/* XPM */
static char *df64b61847f442eea10160ffdba0936b[] = {
/* columns rows colors chars-per-pixel */
"64 64 202 2 ",
"   c None",
".  c #010102",
"X  c #0B0302",
"o  c #050409",
"O  c #0B0B0C",
"+  c #0A0909",
"@  c #1E0B04",
"#  c #190D0A",
"$  c #170A07",
"%  c #0D0D13",
"&  c #0D0D19",
"*  c #070610",
"=  c #0D1011",
"-  c #131413",
";  c #1A1A1A",
":  c #1A1817",
">  c #210D07",
",  c #2D1A0E",
"<  c #2B1D15",
"1  c #261B17",
"2  c #28201F",
"3  c #36261A",
"4  c #0D1120",
"5  c #191E2C",
"6  c #1D1D26",
"7  c #1E2121",
"8  c #1F232D",
"9  c #1E2536",
"0  c #242324",
"q  c #2A2523",
"w  c #22232B",
"e  c #28272E",
"r  c #2A2C2C",
"t  c #3B312E",
"y  c #36302F",
"u  c #2A2E34",
"i  c #242B3D",
"p  c #2F3131",
"a  c #313232",
"s  c #3C3D3D",
"d  c #3C3635",
"f  c #40240C",
"g  c #44291B",
"h  c #4D301E",
"j  c #57351A",
"k  c #4C3625",
"l  c #48392D",
"z  c #413E3C",
"x  c #473A32",
"c  c #543925",
"v  c #603F2B",
"b  c #4E463E",
"n  c #5B4435",
"m  c #55493C",
"M  c #67452B",
"N  c #654433",
"B  c #6B4D38",
"V  c #7B512D",
"C  c #2D364A",
"Z  c #373B48",
"A  c #2E3956",
"S  c #323D58",
"D  c #3E4249",
"F  c #3D4453",
"G  c #3E4769",
"H  c #434444",
"J  c #47474A",
"K  c #47494B",
"L  c #4A4B4D",
"P  c #484343",
"I  c #5A4A40",
"U  c #4D4E51",
"Y  c #434B56",
"T  c #4E5153",
"R  c #525355",
"E  c #555659",
"W  c #56595B",
"Q  c #5A5B5D",
"!  c #565249",
"~  c #644C41",
"^  c #6C4E45",
"/  c #695346",
"(  c #645E5C",
")  c #745B51",
"_  c #715645",
"`  c #696240",
"'  c #6F6D5C",
"]  c #676157",
"[  c #7C725F",
"{  c #5D5E61",
"}  c #515165",
"|  c #424B68",
" . c #5E6062",
".. c #5E6572",
"X. c #626365",
"o. c #656669",
"O. c #67696B",
"+. c #6A6B6D",
"@. c #6A666A",
"#. c #746D65",
"$. c #756F6E",
"%. c #797469",
"&. c #6C6E71",
"*. c #6E7173",
"=. c #727375",
"-. c #757679",
";. c #77797B",
":. c #7A7B7D",
">. c #7B7976",
",. c #875F3D",
"<. c #89664B",
"1. c #956C49",
"2. c #856753",
"3. c #8F6C54",
"4. c #85685A",
"5. c #98765D",
"6. c #A77C59",
"7. c #8B786A",
"8. c #857E7D",
"9. c #A57E60",
"0. c #AF8057",
"q. c #BA8A5E",
"w. c #918E6F",
"e. c #86847D",
"r. c #928F7D",
"t. c #979378",
"y. c #B88C65",
"u. c #A88F79",
"i. c #C69C77",
"p. c #D5A57A",
"a. c #656D88",
"s. c #626887",
"d. c #7D7E81",
"f. c #7B7A8A",
"g. c #807F84",
"h. c #7F8083",
"j. c #828385",
"k. c #848689",
"l. c #86888B",
"z. c #898A8D",
"x. c #938F88",
"c. c #8F908E",
"v. c #95958F",
"b. c #8C8D91",
"n. c #8F9094",
"m. c #8E9093",
"M. c #919296",
"N. c #929395",
"B. c #959699",
"V. c #959699",
"C. c #97999C",
"Z. c #999A9E",
"A. c #9A9B9D",
"S. c #A4958A",
"D. c #A99D93",
"F. c #A4A281",
"G. c #A3A19D",
"H. c #BAA694",
"J. c #B9B598",
"K. c #8E8DA2",
"L. c #9D9EA2",
"P. c #9D9EA1",
"I. c #A89FA3",
"U. c #9FA0A4",
"Y. c #9FA0A3",
"T. c #A1A2A6",
"R. c #A2A3A5",
"E. c #A5A6AA",
"W. c #A5A6A9",
"Q. c #A7A8AC",
"!. c #A7A9AC",
"~. c #A9AAAE",
"^. c #AAABAD",
"/. c #ACA9A5",
"(. c #BEAEA2",
"). c #B7B2A8",
"_. c #ABACB0",
"`. c #ACADB1",
"'. c #AEAFB3",
"]. c #ADAEB1",
"[. c #AFB0B4",
"{. c #AEB0B3",
"}. c #B1B2B6",
"|. c #B1B2B5",
" X c #BEB9B4",
".X c #B5B6B9",
"XX c #B7B8BA",
"oX c #BABBBD",
"OX c #B9B6B7",
"+X c #C4B69E",
"@X c #C9A483",
"#X c #C4BBA9",
"$X c #C8BAB7",
"%X c #CCC6AA",
"&X c #D0C9B3",
"*X c #D8D6B7",
"=X c #C7C6C6",
"-X c #D3D0C5",
";X c #D6D6D4",
":X c #E1D9D6",
">X c #F3F0C8",
",X c #EBE8CA",
/* pixels */
"d.:.:.-.h.;.;.:.;.;.;.:.;.:.-.d.d.-.T U R K U =.:.d.T.E.T.T.Q.n.=.d.W K R R J o.h.=.;.d.d.=.j.;.j.d.Q U U :.:.=.h.-.:.:.;.R H   ",
"j.j.k.j.k.j.j.l.l.j.:.j.h.j.l.j.h.j.{ Q E E R =.h.z.Q.`.`.Q.~.C.z.z.X.E Q E R *.k.j.k.j.k.d.d.k.j.k. .T E d.l.z.j.l.k.k.j.X.E   ",
"h.k.j.k.j.j.k.*.O.-.j.z.k.j.l.=.+.&.E Q X.:.&.M.L.Z.M.n.B.M.P.-.+.&.Q E X.=.=.d.j.j.j.:.z.L.L.n.d.b.:.=.-.h.j.d.X.+.O.+.+.=.=.  ",
"h.k.d.l.j.k.l.{ H  .d.j.k.j.k.W E { E Q &.b.d.T.[.~.k.:.j.d.k.O.R R Q E X.k.j.j.d.k.k.d.z.E.}.L.d.l.j.k.z.k.j.:.E R E R R d.j.  ",
"k.z.:.k.j.j.j.+.E &.j.j.k.j.k.X.E E Q R X.k.j.U.[.`.k.d.l.j.k.O.Q E  .W { k.d.j.d.d.d.h.b.U.}.Z.j.j.k.d.d.j.k.d.E T X.W Q :.:.  ",
"j.:.Q X.{ { { ;.d.j.j.j.k.d.l.X.E { j.j.d.k.h.d.k.k.{ Q X.{ Q =.k.d.d.d.k.Q.E.E.~.~.E.E.T.z.k.b.j.j.z.j.d.k.k.d.E W -.;.j.k.j.  ",
"l.;.E E W W W d.b.j.:.d.k.d.z.{ U W h.z.k.k.j.d.j.d.Q E E E U +.z.j.h.j.b._._.`.}.~.~._.E.j.:.l.k.d.k.j.k.k.k.=.E E =.j.k.j.j.  ",
"d.=.W { { { { d.k.d.z.b.k.:.:.+.X.+.:.j.:.h.k.k.k.j.{ E W o. .-.l.j.j.d.z.~.T.E.E.T._.~.T.k.k.j.j.h.k.j.k.:.d.=.o.W ;.z.j.k.j.  ",
"R { { W -.b.k.j.:.b._..Xj.R R d.k.j.k.l.d.j.k.d.k.k.X.U &.z.k.d.h.k.d.j.h.h.-.B.[.~.Q.E.T.k.j.k.j.k.k.k.d.W T  .l.z.k.j.d.k.d.  ",
"R { E R &.k.h.j.:.z.`..Xj.R R ;.j.j.j.j.h.j.k.l.k.j.X.U +.j.j.k.k.k.z.j.j.j.d.B.}.E.`.}.`.d.d.j.k.d.:.k.h.E R o.j.k.j.j.j.l.z.  ",
"&.=.=.&.d.l.l.M.V.V.B.C.k.o.X.j.k.l.k.j.j.j.k.;.+.=.*.+.-.j.j.j.d.d.j.d.k.M.M.C.L.M.B.Z.P.h.k.k.z.k.h.k.k.&.*.=.j.j.k.k.j.=.&.  ",
"k.b.b.l.j.d.j.`..XT.d.-.k.k.z.k.:.j.j.j.j.:.j.X.K { d.k.k.j.j.k.j.z.d.j.n.}.XXM.:.d.:.:.d.k.j.k.k.k.k.d.k.k.k.l.k.d.j.j.j. .R   ",
"d.d.j.j.k.j.k.U.~.L.k.d.j.d.j.j.:.k.k.h.k.j.j.+.T  .h.l.k.j.j.h.d.k.j.h.z.E.`.Z.d.k.j.j.j.l.j.h.j.h.h.d.k.l.h.h.h.l.l.k.j.X.R   ",
"z.l.d.j.B.L.L.`.`.L.j.k.j.j.z.j.j.z.j.:.m.T.Y.l.=.:.j.d.j.k.j.k.j.j.U.L.L.z.z.b.h.h.j.j.j.o.X.&.l.h.h.k.k.h.h.k.h.l.=. .O.-.:.  ",
"d.j.:.h.L.}.}.`._.Y.:.j.j.j.j.d.:.j.h.:.V..X.XM.k.l.l.h.j.k.h.j.j.d.`.[._.h.:.d.d.j.k.k.h.R U  .k.h.b.z.c.k.k.k.d.l.&.T R :.l.  ",
"k.b.l.k.N.T.E.T.T.Y.h.l.d.j.j.b.j.j.z.k.m.!.T.b.:.j.l.j.k.k.d.h.k.j.T.E.U.j.k.k.d.k.d.d.:.o.{ *.l.G.S.7.u.(.:XB.:.l.*.W E h.l.  ",
"~.E.~._.B.d.k.d.l.k.:.k.j.j.d.Y.E.`.E.~.B.:.j.k.k.d.j.k.-.W W =.k.d.k.k.j.j.k.k.j.k.o.R { h.h.l./.+X3.1.V u./  Xk.k.=.E W j.l.  ",
"_.~.~.~.C.d.j.j.k.h.j.:.j.k.d.W.E.{.~.}.L.d.j.k.z.j.k.b.:.R L +.j.d.:.h.k.k.z.h.k.k.o.T { k.k.G.#X<.,.0.y.1.B %.R.k.&.R E ;.:.  ",
"~.~.E.~.B.d.j.j.j.h.k.d.k.k.d.E.!.^.B.L.M.d.j.-.+.=.-.=.=.=.X.d.Z.C.j.j.k.&.*.*.-.-.+.o.*.h.M.S.5.i.p.p.q.V <.k ).=.=.o.+.z.N.  ",
"E.~.~.`.V.d.k.k.l.k.j.z.h.h.d.Y.!.E.:.:.j.:.j.+.U W W L X.z.d.A.`.`.j.d.:.E W E E W -.k.l.k.:.H.M @X1.y.i.6.5.~ #.e.=.j.k.!.}.  ",
"~.~.E._.V.h.k.j.h.j.j.k.d.j.d.^.}.}.j.j.k.k.z.*.W W E R X.j.:.Z.E..Xz.z.j.W E { Q E d.l.h.d.h.#.k 2.B j 9.M h k D. X*.d.d.R.~.  ",
"`.E.b.M.z.j.j.&.X.&.k.d.b.T.Z.b.z.z.X.o.X.X.o.Q U { =.=.h.T.A.V.l.N.o.X.+.E { Q W R -.j.h.k.k.n.A.>./ _ N _ @ 3 b N.oXj.d.E.^.  ",
"`.L.:.h.j.j.j.{ U  .k.d.C..X`.l.d.:.E W R R W Q R O.l.d.z.|.`.M.:.l.W R { E E Q Q E -.j.h.k.;.n.[.{.#XH.n @ < l 3 $.=Xd.h.Y.`.  ",
"_.T.d.k.k.j.j.X.R o.d.k.M.`.Q.z.j.j.W Q W W Q Q Q { h.k.b.E.}.M.-.l.Q R { Q R Q Q Q :.k.h.l.;.V.Q.^.-XS.# ! &X+X[ OXXXj.z.A.^.  ",
"j.z.d.k.*.R Q h.l.d.j.j.j.k.j.l.j.d.E Q Q Q Q =.l.j.^.^.^.~.^.M.:.l.X.{ X.k.j.k.k.j.k.h.b.E.Q._.Q.|.#.t b ).,X*X%Xx.oX{.W.~.~.  ",
":.j.h.k.O.K { :.l.j.j.d.d.k.l.j.k.l.E R R E R ;.l.h.T.E.^.~.XXV.k.l.E U { k.d.j.;.d.j.;.j.!.Q.Q.{._.).x m *Xw.>X%Xe.=X^.W.`.|.  ",
"j.l.j.l.*.R X.d.l.j.j.j.j.k.j.d.h.j.W Q { +.o.-.j.k.!.`.`.M.Y.k.;.;.o.X.+.k.j.z.b.b.n.b.b.Q.^.E.U.P.).' *XF.` *X#X>.;X`.^.E.Y.  ",
"j.l.j.j.&.R Q d.k.d.j.j.j.j.h.l.k.j.R W +.l.j.z.j.k.`.`.b.K U R U Q j.z.k.k.d.V.}._.^._.~.{.|.).v.XX-.>.' &XJ.t.r.; W..XW.k.-.  ",
"j.l.z.j.+.E Q ;.j.d.j.h.j.j.j.j.j.h.R L o.k.d.j.=.d.^.XXC.E  .W Q R d.d.j.d.:.B.`.~.`._.[.Q.#.H.b K % o L X.#.] z . T..X^.k.:.  ",
"O.+.+.O.+.+.*.j.j.d.j.j.k.j.k.=.+.=.=.=.-.k.d.B.L.B.j.:.:.+.-.o.=.+.V.M.L.B.B.B.b.b.B.l.n.n.] 7.d O.J R ..Z u o e w T.z.M.z.j.  ",
"R R R R -.z.k.l.k.h.j.j.l.j.j.Q K Q k.l.j.j.d.A.oXR.Q H X.k.b.l.l.k.~.[.[.`..XZ.:.j.j.;.d.d.;.P z P H { F i 4 w Z 6 Q.=.j.j.:.  ",
"W Q Q E =.j.:.j.j.j.j.j.j.h.l.X.E  .k.j.j.k.j.z.}.W.O.E o.k.d.d.d.j.A.`.~.E.Q.Z.:.z.d.l.z.h.j.k.&.o.- w 5 & o * & o .Xj.k.h.d.  ",
"E o.h.;.j.j.j.j.k.l.d.k.C.L.!.j.:.:.j.j.k.d.k.-.X.o.;.-.j.k.:.C.W.T._.~._.'.E.Z.d.j.o.Q { X.Q X.{ { o.=.6 Z w Z C i d.z.d.X. .  ",
"R o.k.k.k.j.j.j.d.j.d.-.N.|.{.z.j.j.k.k.k.j.z.X.L Q j.k.k.j.d.A.|.`.`.E.E.Q.`.L.j.k.X.U R W E { E R Q 0 % D C A S A 5 `.l.Q T   ",
"X.=.j.k.j.d.j.k.h.k.M.k.M.~.A.k.j.k.j.j.d.d.k.O.T X.k.j.j.j.:.C.{.~.~.~.'.L.Q.b.=.:.&.o.X.Q W X.I n , X % 5 a.G A S 9 E.-.O.o.  ",
"j.k.j.j.k.j.k.h.d.l.E.~.N.k.j.d.d.j.d.j.h.h.k.=.E o.j.d.l.k.j.B.~.E.E.~.Q.d.k.=.T { =.k.d. .Q +.4.2.g < o 8 a.s.| C Y 0 { :.j.  ",
"k.k.d.d.j.:.:.j.:.l.E..XB.-.j.j.j.k.:.k.k.j.k.+.K W :.h.j.d.;.L.{.}.`.`.E.d.l.&.U R *.l.k.Q E 8.^ N n < + & } K.f.=.T.0 Q d.k.  ",
"j.k.k.k.k.d.j.C.M.A.^.~.B.d.l.j.k.k.d.k.d.&.+.-.+.-.k.j.z.B.V.M.N.B.M.B.M.d.b.d.&.*.:.j.j.W E ( > x l # = O e I.$XS.1 q X.:.k.  ",
"j.h.k.d.j.:.j.~.^.~.`.^.V.j.j.j.j.h.j.j.=.R R -.k.k.j.:.M.}.}.b.d.d.d.j.d.d.h.j.k.k.k.k.j.W E a H z + a =.+.s @ f j k q X.:.l.  ",
"j.j.j.:.k.d.d.E.^.R.^.`.B.k.j.k.j.:.k.k.&.U R =.k.j.j.:.m.`.`.N.:.j.k.k.d.k.j.d.h.j.j.j.j.R R p r s 7 K j.h.E < c 5.v 2 E :.h.  ",
"h.l.~.A.T.L.L.~.~.T.z.b.z.j.j.j.j.k.k.h.h.j.:.j.j.:.k.h.j.z.k.d.j.j.j.d.l.j.k.n._.T.-.E o.:.:.a + - O K k.j.:.# g 3.N y :.j.j.  ",
"j.b.|.~.`.^.`.~.^.T.h.d.k.j.d.j.j.j.d.j.h.:.j.h.h.h.k.j.j.k.d.k.j.j.k.h.j.d.:.M.`.}.&.R Q j.k.-.. a : s h.d.h.W > ) ~ d k.j.k.  ",
"j.z.E.^.W.T.!.T.!.L.j.j.l.k.j.k.j.l.j.j.l.k.l.l.j.k.j.j.j.k.j.j.:.j.k.k.k.b.k.L.T.~.&.{ X.d.h.z.. + - . ;.z.l.=.: t q q d.k.k.  ",
"E.~.^.^.M.h.j.j.j.j.d.j.j.h.j.j.d.k.j.d.V.`.W.z.d.l.h.j.j.j.h.j.j.l.k.j.b._.Q.B.j.k.;.d.k.l.;.s =.- r :.j.~.^.T.X.X : ; p l.j.  ",
"E.`.~.`.N.d.j.j.h.j.j.j.j.j.l.j.k.:.:.;.z.}.`.N.h.l.j.j.k.j.k.j.j.j.d.d.l.'.[.L.d.h.k.j.k.d.;.&.h.&.h.d.:.~.`.T.O.0 - H - j.h.  ",
"~.^.C.L.b.j.j.k.j.j.j.h.k.h.j.k.B.z.b.B.M.Z.T.j.&.;.h.k.h.=.-.:.j.d.b.V.M.~.~.C.d.k.j.h.k.M.M.z.M.b.N.V.M.A.C.Z.d.s r a + X.m.  ",
"E.Y.d.j.j.:.h.h.j.j.j.j.z.k.j.E..X|.`.|.C.:.j.X.U { d.k.-.E L =.k.j.T.}.Q.`._.Z.h.k.h.j.z.^.~.|.X.X.X.Q T.j.:.z.A.D = O - =.}.  ",
"^.T.h.j.l.j.k.l.k.h.h.:.j.d.:.T.E.^.W.^.T.h.k.+.R Q j.z.:.Q R +.l.j.L.}.~.`._.P.h.j.h.d.k.^.E.L . . . . : r r r u Q H ; ; &.^.  ",
"M.M.j.l.-.{ +.d.k.k.A.T.C.T.A.V.l.z.A.b.j.X.o.o.Q Q &.X.O.:.=.b.T.B.M.b.M.b.b.b.j.d.g.j.l.E.`.T.z.V.l.+.o.Q Q R r r 7 7 : { l.  ",
":.k.k.k.O.L W :.j.b.^.}.~.|.}.k.:.:.j.d.=.R E E W W E U o.z.j.L.XX`.k.;.d.k.d.d.j.d.k.d.j.}.`.Z.;.;.;.d.j.;.:.k.:.-.B.~.T.l.-.  ",
":.j.j.:.+.E { d.:.l.^.^.W.Y.E.k.j.l.k.k.-.R E Q { { W Q O.j.;.B.E.Q.z.k.k.k.d.j.z.h.k.j.z.E.E.V.k.z.l.j.k.:.z.h.j.j.Z.^.E.b.h.  ",
"Q Q Q W -.:.h.z.j.z.^.~.A.k.l.j.d.l.d.j.=.R W &.d.l.j.d.:.k.j.k.k.k.h.d.k.j.k.d.j.j.C._.T.j.k.d.j.j.j.:.k.j.j.z.E.R.V.j.k.d.:.  ",
"Q W E L -.k.k.j.;.z.E.^.C.;.d.z.j.l.j.z.-.W R ;.k.j.j.j.z.k.:.k.k.l.k.d.l.j.k.k.h.h.P.XX`.h.k.j.z.h.j.h.j.l.j.z.|.|.C.:.k.k.z.  ",
"E { =.o.-.j.j.b.z.Z.~.{.B.:.l.-.+.-.=.-.+.o.X.:.k.j.j.:.j.j.z.=.&.:.k.k.k.j.d.k.h.j.B.U.C.l.d.j.:.*.j.j.:.k.j.z.L.Z.M.j.l.;.-.  ",
"W O.z.j.h.j.j.!.Q.^.Q.{.m.;.j. .R Q W R X.h.l.k.h.h.j.j.h.d.l.O.R W d.k.k.j.k.l.h.h.h.d.h.k.k.-.R T *.l.j.h.h.d.h.;.h.:.h.{ W   ",
"T X.k.j.k.k.h.R.Q.^.!.oXC.j.z. .W W W T X.k.h.h.h.z.j.k.j.l.l.O.R U j.h.k.:.h.j.;.b.j.l.b.h.l.-.L W =.l.j.h.l.j.k.h.z.k.j.Q T   ",
"*.;.j.l.l.d.j.R.{.Y.m.N.:.O.+.Q Q  .;.*.:.j.j.k.h.j.O.O.+.+.X.&.;.=.d.j.l.A.C.N.h.j.*.o.X.*.O.O.:.+.:.l.h.;.l.j.j.;.h.X.+.*.-.  ",
"l.k.h.d.l.j.h.!.^.A.h.j.O.W W Q R Q l.l.j.h.k.j.h.d.W R R W T *.k.m.h.h.l.{..XA.:.h. .R W R R O.z.l.k.j.h.d.j.j.j.h.*.T  .:.l.  ",
"h.h.l.h.k.k.j.T.!.R.d.j.*.Q E W W { d.j.j.j.j.k.l.j.X.W W Q U =.j.k.:.d.M.~.}.B.h.l.O.W Q R T o.j.k.d.d.k.k.j.l.d.l.*.R W :.h.  ",
"k.h.z.j.V.^.^.m.h.j.j.z.+.R  .:.k.j.j.d.k.k.j.:.j.h.Q R +.j.j.d.h.:.R.~.Z.X.{  . . .E R { j.k.j.k.j.h.j.k.j.j.;.R X.Q E Q j.k.  ",
"k.j.l.d.A.|.E.j.j.l.k.k.-.R U :.j.k.j.h.j.j.k.:.k.j.X.U X.j.j.j.k.j.~.}.Y.R E R Q R W E W j.j.k.h.j.h.j.j.d.k.:.T R E W E :.h.  ",
"d.:.l.d.C.E.E.z.j.:.:.-.&.Q  .h.j.k.j.j.j.:.:.k.:.;.+.W +.z.k.k.h.k.N.~.N.R W { Q R Q  .o.d.j.j.h.k.j.j.l.;.:.;.o.{ Q Q X.j.l.  ",
"R { j.:.j.:.j.k.l.=.E E =.k.l.j.d.j.d.j.k.j.k.o.U { :.d.M.|.E.E..X.XE K W W Q Q E { ;.k.k.k.k.k.k.k.d.:.j.Q R X.j.k.b.k.j.j.d.  ",
"R X.k.j.k.;.j.j.j.=.E R o.j.j.k.:.d.d.:.:.:.k.+.K Q j.:.k.E.W.^.T.|.X.R E E R E R E -.k.d.d.:.:.d.j.j.d.k.W R Q z.:.j.:.j.:.:.  "
};
