/* XPM */
static char *f4ff9710b8d643d89812c64c8834ac97[] = {
/* columns rows colors chars-per-pixel */
"64 64 195 2 ",
"   c None",
".  c #0A0605",
"X  c #0B0B0C",
"o  c #07070B",
"O  c #130E0D",
"+  c #1D0D0A",
"@  c #0E110F",
"#  c #1F100A",
"$  c #0F0E13",
"%  c #0E0F19",
"&  c #120F10",
"*  c #0F1110",
"=  c #0B1018",
"-  c #131313",
";  c #1A1412",
":  c #14151F",
">  c #171918",
",  c #1E1D1E",
"<  c #21130D",
"1  c #26180E",
"2  c #2B1E1B",
"3  c #261915",
"4  c #1C211F",
"5  c #2A211E",
"6  c #3B271E",
"7  c #3D2B1D",
"8  c #3A2217",
"9  c #181A24",
"0  c #201F2C",
"q  c #252525",
"w  c #2C2D2E",
"e  c #2A2826",
"r  c #3C2C24",
"t  c #2E2E31",
"y  c #252A37",
"u  c #2F3130",
"i  c #343534",
"p  c #37393A",
"a  c #52361E",
"s  c #432519",
"d  c #42312A",
"f  c #483629",
"g  c #513D2C",
"h  c #443835",
"j  c #5C3F34",
"k  c #4B433D",
"l  c #4B493F",
"z  c #56473B",
"x  c #654637",
"c  c #724D37",
"v  c #7F593E",
"b  c #63613A",
"n  c #353645",
"m  c #3B3B49",
"M  c #393B46",
"N  c #2F3A51",
"B  c #323D58",
"V  c #403F49",
"C  c #3C4046",
"Z  c #384058",
"A  c #304161",
"S  c #434244",
"D  c #45464B",
"F  c #464949",
"G  c #4A4B4D",
"H  c #4D4945",
"J  c #53524B",
"K  c #4D4E51",
"L  c #494957",
"P  c #4E5153",
"I  c #525355",
"U  c #555659",
"Y  c #56595A",
"T  c #5A5B5D",
"R  c #5D5B54",
"E  c #775443",
"W  c #666356",
"Q  c #7A6558",
"!  c #6A654C",
"~  c #5D5E61",
"^  c #5A5C6A",
"/  c #5E6062",
"(  c #626365",
")  c #656669",
"_  c #66696B",
"`  c #6A6B6E",
"'  c #686863",
"]  c #71726F",
"[  c #787468",
"{  c #6D6E71",
"}  c #726D7C",
"|  c #6E7172",
" . c #6C717B",
".. c #727375",
"X. c #7A7A77",
"o. c #757679",
"O. c #77797B",
"+. c #7A7B7D",
"@. c #77787A",
"#. c #825633",
"$. c #98663D",
"%. c #8D6947",
"&. c #916D4A",
"*. c #826F5A",
"=. c #816151",
"-. c #987A5B",
";. c #A26E45",
":. c #A1714A",
">. c #A67D5C",
",. c #877A6C",
"<. c #9C7F66",
"1. c #878475",
"2. c #9C8473",
"3. c #958C77",
"4. c #AB8669",
"5. c #B38A68",
"6. c #CA996F",
"7. c #6F6F82",
"8. c #6A748E",
"9. c #7D7E81",
"0. c #747991",
"q. c #807F84",
"w. c #7E8183",
"e. c #76819C",
"r. c #7884A3",
"t. c #828385",
"y. c #848689",
"u. c #86888B",
"i. c #898A8D",
"p. c #88878A",
"a. c #9C948A",
"s. c #8B8C90",
"d. c #8D8E91",
"f. c #8D8E91",
"g. c #8F9094",
"h. c #8E9193",
"j. c #919296",
"k. c #929395",
"l. c #95969A",
"z. c #959699",
"x. c #97999C",
"c. c #999A9E",
"v. c #9A9B9D",
"b. c #9B9895",
"n. c #A79C8A",
"m. c #B19E87",
"M. c #A8A88C",
"N. c #B5A692",
"B. c #9D9EA2",
"V. c #9C9EA1",
"C. c #989EAB",
"Z. c #A19FA0",
"A. c #9FA0A4",
"S. c #9FA1A3",
"D. c #A1A2A6",
"F. c #A2A3A5",
"G. c #A5A6AA",
"H. c #A5A6A9",
"J. c #A7A8AC",
"K. c #A7AAAC",
"L. c #A9AAAE",
"P. c #AAABAD",
"I. c #ACA7A2",
"U. c #B0AFAF",
"Y. c #ABACB0",
"T. c #ACADB1",
"R. c #AEAFB3",
"E. c #ADAEB1",
"W. c #B1AFB1",
"Q. c #AFB0B4",
"!. c #AEB1B3",
"~. c #B1B2B6",
"^. c #B2B3B5",
"/. c #B5B6B9",
"(. c #B6B8BB",
"). c #B9BBBD",
"_. c #B8B7BC",
"`. c #BDB4A7",
"'. c #E2AE81",
"]. c #EFBF94",
"[. c #C9BEA7",
"{. c #C2BBB3",
"}. c #C8C5A7",
"|. c #C8C4B9",
" X c #D5C6B5",
".X c #D8D6BB",
"XX c #CAC8C3",
"oX c #D8D3CC",
"OX c #DCDBD7",
"+X c #DFDFDA",
"@X c #E1D7C8",
"#X c #F2EBC9",
"$X c #FEFBD4",
"%X c #EBEAC3",
"&X c #E4E4E1",
/* pixels */
"9.+.+.o.w.O.O.+.O.O.O.+.O.+.@.9.9.o.P K I G K ..+.9.D.G.D.D.J.g...9.Y G I I D ) w...O.9.9...t.O.t.9.T K K +.+...w.o.+.+.@.I S   ",
"t.t.y.t.y.t.t.u.p.t.+.t.w.t.p.t.w.t.~ T U U I ..w.i.J.T.T.J.L.x.i.i.( U T U I { y.t.y.t.y.9.9.y.t.y./ P U 9.u.i.t.u.y.y.t.( U   ",
"w.y.t.y.t.t.y.| _ o.t.i.y.t.p...` { U T ( +.{ j.B.c.j.d.l.j.V.o.` { T U ( ....9.t.t.t.+.i.B.B.g.9.d.+...o.w.t.9.( ` _ ` ` ....  ",
"w.y.9.u.t.y.p.~ S / 9.t.y.t.y.Y U ~ U T { d.9.D.Q.L.y.+.t.9.y._ I I T U ( y.t.t.9.y.y.9.i.G.~.B.9.u.t.y.i.y.t.+.U I U I I 9.t.  ",
"y.i.+.y.t.t.t.` U { t.t.y.t.y.( U U T I ( y.t.A.Q.T.y.9.u.t.y._ T U / Y ~ y.9.t.9.9.9.w.s.A.~.c.t.t.y.9.9.t.y.9.U P ( Y T +.+.  ",
"t.+.T ( ~ ~ ~ O.9.t.t.t.y.9.u.( U ~ t.t.9.y.w.9.y.y.~ T ( ~ T ..y.9.9.9.y.J.G.G.L.L.G.G.D.i.y.s.t.t.i.t.9.y.y.9.U Y o.@.t.y.t.  ",
"u.O.U U Y Y Y 9.s.t.+.9.y.9.i.~ K Y w.i.y.y.t.9.t.9.T U U U K ` i.t.w.t.d.Y.Y.T.~.L.L.Y.G.t.+.u.y.9.y.t.y.y.y...U U ..t.y.t.t.  ",
"9...Y ~ ~ ~ ~ 9.y.9.i.s.y.+.+.` ( ` +.t.+.w.y.y.y.t.~ U Y ) / o.u.t.t.9.i.L.D.G.G.D.Y.L.D.y.y.t.t.w.y.t.y.+.9...) Y @.i.t.y.t.  ",
"I ~ ~ Y o.s.y.t.+.d.Y./.t.I I 9.y.t.y.p.9.t.y.9.y.y.( K { i.y.9.w.y.9.t.w.w.o.l.Q.L.J.G.D.y.t.y.t.y.y.y.w.Y P / p.i.y.t.9.y.9.  ",
"I ~ U I { y.w.t.+.i.T./.t.I I @.t.t.t.t.w.t.y.p.y.t.( K ` t.t.y.y.y.i.t.t.t.9.l.~.G.T.~.T.9.9.t.y.9.+.y.w.U I ) t.y.t.t.t.p.i.  ",
"{ ....{ 9.u.u.j.z.z.l.x.y.) ( t.y.p.y.t.t.t.y.O.` ..| ` o.t.t.t.9.9.t.9.y.j.j.x.B.j.l.c.c.w.y.y.i.y.9.y.y.{ | ..t.t.y.y.t...{   ",
"y.s.d.u.t.9.t.T./.D.9.o.y.y.i.y.+.t.t.t.t.+.t.( G ~ 9.y.y.t.y.y.t.i.9.t.g.~.).j.+.9.+.+.9.y.y.y.y.y.y.9.y.y.y.p.y.9.t.t.t./ I   ",
"9.9.t.t.y.t.y.A.L.B.y.9.t.9.t.t.+.y.y.w.y.t.t.` P / w.u.y.t.t.w.9.y.t.w.i.G.T.c.9.y.t.t.y.u.y.w.t.w.w.9.y.u.w.w.w.p.u.y.w.( I   ",
"i.i.9.t.l.B.B.T.T.B.t.y.t.t.i.t.t.i.t.+.h.D.S.p...+.t.9.t.y.t.y.t.t.A.B.B.i.i.d.w.w.t.t.t.) ( { p.w.w.y.y.w.w.y.w.p.../ _ o.+.  ",
"9.t.+.w.B.~.~.T.Y.S.+.t.t.t.t.9.+.t.w.+.z././.j.y.u.u.w.t.y.w.t.t.9.T.Q.Y.w.+.9.9.t.y.y.w.U K / y.w.t.y.w.w.y.y.9.p.{ P I O.p.  ",
"y.s.u.y.k.D.G.D.D.S.w.u.9.t.t.d.t.t.i.y.h.J.D.d.+.t.y.t.y.y.9.9.y.t.D.P.oXXXH.y.9.y.9.9.9.) ~ | p.w.y.w.w.u.y.i.+.p.| Y U w.p.  ",
"L.G.L.Y.l.9.y.9.u.y.+.y.t.t.9.S.G.T.G.L.l.+.t.y.y.9.t.y.o.Y Y ..y.y.{. X2.*. XI.P.p.) I ~ w.w.u.y.w.w.w.y.J.J.S.w.y...U Y t.p.  ",
"Y.L.L.L.x.9.t.t.y.w.t.+.t.y.9.H.G.Q.L.~.B.9.t.y.i.t.y.d.+.I G ` y.@Xm.v >.%.-.7 Q i.) P ~ w.y.u.w.w.w.w.9.G.(.J.t.y.{ I U @.+.  ",
"L.L.G.L.l.9.t.t.t.w.y.9.y.y.9.G.J.P.l.B.j.9.t.o.` ..o.......( 9.P.m.&.6.'.].5.4.2.oX` ) | w.9.w.w.w.s.z.g.g.V.d.` ....) ` i.k.  ",
"G.L.L.T.k.9.y.y.u.y.t.i.w.w.9.S.J.G.+.+.t.+.t.` K Y Y G ( i.9.v.XX,.%.:.;.$.#.5.2.,.i.y.u.y.y.y.w.9.A.Q.Q.y.y.@.P I ..t.y.J.~.  ",
"L.L.G.Y.z.w.y.t.9.t.t.y.9.t.9.P.~.~.t.t.y.y.i.| Y Y U I ( t.+.c.P.z <.4.5.5.v c f |.j.u.w.9.w.y.w.O.V.L.J.O.y.+.Y G | 9.9.F.L.  ",
"T.G.s.j.i.t.t.{ ( { y.9.d.D.c.d.i.i.( ) ( ( ) T K ~ ....w.D.v.z.i.b.z 7 a x x s d {.U.t.w.y.y.h.A.V.S.Y.J.y.p.y.+...y.t.9.G.P.  ",
"T.B.+.w.t.t.t.~ K / y.9.x./.T.u.9.+.U Y I I Y T I _ u.9.i.^.T.j.+.u.,.N.*.g 1 1 6 k Z.t.w.y.O.g.Q.Q.S.Q.J.u.O.+.t.y.i.9.w.S.T.  ",
"Y.D.9.y.y.t.t.) I ) 9.y.j.T.J.i.t.t.Y T Y Y T T T ~ w.y.d.G.~.j.o.u.T `.n.< n.[.3.W OXy.w.p.O.z.L.K.L.~.G.y.w.i.t.y.y.t.i.v.P.  ",
"t.i.9.y.| I T w.u.9.t.t.t.y.t.p.t.9.U T T T T ..u.t.P.P.P.L.P.j.+.u.( [ k a.n.#X}.l +Xw.s.G.J.Y.L.L.S.L.J.w.y.y.t.+.x.Q.G.L.L.  ",
"+.t.w.y._ G ~ +.u.t.t.9.9.y.p.t.y.p.U I I U I O.u.w.D.G.P.L.(.z.y.u.U ..h 1.! $X.XW OXO.w.G.J.J.!.Y.Q.J.Q.y.w.y.y.t.c.P.G.T.^.  ",
"t.u.t.p.| I ( 9.u.t.t.t.t.y.t.9.w.t.Y T ~ ` ) o.t.y.J.T.T.j.S.y.@.@.) ` [ }.b %X|.l &Xs.s.J.L.G.A.V.G.x.S.y.w.w...@.z.T.P.G.S.  ",
"t.p.t.t.{ I T 9.y.9.t.t.t.t.w.u.y.t.I Y ` p.t.i.t.y.T.T.d.F K U X.X.v.] 1..XM.M.J , /.Y.J.!./.c.w.9.w.9.9.w.w.9.K G y./.H.y.o.  ",
"t.p.i.t.` U T O.t.9.t.w.t.t.t.t.t.w.I G ) y.9.t...9.P.(.x.U / ] H J p $ - ' ' R w S @.Y.Q.J.Q.V.w.w.w.y.w.u.y.w.I G i./.P.y.+.  ",
"_ ` ` _ ` ` | t.t.9.t.t.y.t.y...` ......o.y.9.l.B.l.t.+.+.` o...R ; ` ~ D ^ n o 0 m 9.u.g.g.z.h.w.u.y.t.w. .) { y.y.i.i.j.i.t.  ",
"I I I I o.i.y.p.y.w.t.t.p.t.t.T G T y.u.t.t.9.v.).F.T S ( y.d.y.( e . F p = 9 o y n o.O.9.9.w.w.w.u.y.9.w.T K | )./.x...t.t.+.  ",
"Y T T U ..t.+.t.t.t.t.t.t.w.p.( U / y.t.t.y.t.i.~.H._ U ) y.9.9.9.t.j.I p o : % 9 9 ../.i.w.w.y.9.y.t.t.w.T I ` T.F.v.w.y.w.9.  ",
"U ) w.O.t.t.t.t.y.p.9.y.x.B.J.t.+.+.t.t.y.9.y.o.( ) O.o.t.y.+.x.H.D.Y.B.j.t m n B N y P.~ ( T ( ~ ~ ( ( ~ O.@.t.p.t.i.t.9.( /   ",
"I ) y.y.y.t.t.t.9.t.9.o.k.^.Q.i.t.t.y.y.y.t.i.( G T t.y.y.t.9.v.^.T.T.G.b.9 m B B A Z +.I Y U ~ I I U I I i.p.y.9.y.u.p.u.T P   ",
"( ..t.y.t.9.t.y.w.y.j.y.j.L.v.y.t.y.t.t.9.9.y._ P ( y.t.t.t.+.x.Q.L.L.L.|.- L r.e.r.0.+.) T Y ( T Y ( ) T y.+.u.+.y.+...o._ )   ",
"t.y.t.t.y.t.y.w.9.u.G.L.k.y.t.9.9.t.9.t.w.w.y...U ) t.9.u.y.t.l.L.G.G.L.k &  .8.e.7.L 9.P.i ..~ / T ..i.9.y.+.y.t.t.{ U T +.t.  ",
"y.y.9.9.t.+.+.t.9.u.G./.l.o.t.t.t.y.+.y.y.t.y.` G Y +.w.t.9.O.B.Q.~.T.W.k O C C.} h r 3 - 4 e ) U K ` y.y.+.t.t.t.t.| U U 9.y.  ",
"t.y.y.y.y.9.t.x.j.v.P.L.l.9.u.t.y.y.9.y.9.{ ` o.` o.y.t.i.l.z.j.k.l.j.p.6 # $ o.2 x Q + . > 4 e | | t.w.y.9.u.y.+.p.{ U / +.y.  ",
"t.w.y.9.t.+.t.L.P.L.T.P.z.t.t.t.t.w.t.t...I I o.y.y.t.+.j.~.~.d.9.9.9.a.8 < O ; 6 E =.h e - S u y.y.i.t.y.w.y.y.w.p.{ I ~ +.u.  ",
"t.t.t.+.y.9.9.G.P.F.P.T.l.y.t.y.t.+.y.y.{ K I ..y.t.t.+.h.T.T.k.+.t.y.r f # . S d x j 3 5 h - w h.w.+.t.t.w.y.w.y.y.o.I U +.w.  ",
"w.p.L.v.D.B.v.L.L.D.i.d.u.t.t.t.t.y.y.w.w.t.+.t.t.+.y.w.t.i.y.+.t.i.D.5 h 3 p d.J.I 2 2 q ..I G t.t.t.w.y.t.t.+.( T | +.+.t.t.  ",
"t.d.^.L.T.P.T.L.P.D.w.9.y.t.9.t.t.t.9.t.w.+.t.w.w.w.y.t.t.y.9.y.t...q - O O ` j.T.~.S e U t.y.w.t.y.t.9.+.9.w.+.K K o.i.y.t.y.  ",
"t.i.G.L.H.D.J.D.J.B.t.t.p.y.t.y.t.p.t.t.p.y.u.i.t.y.t.t.t.y.t.x.O.i.X , - i y.B.D.L.{ ~ ( 9.9.i.t.y.t.y.9.i.u.9.U T o.w.y.y.y.  ",
"G.L.T.P.j.w.t.t.t.t.9.t.t.w.t.t.9.y.t.9.z.T.H.i.9.p.w.t.t.t.w.U u e * F @ V.J.l.t.y.O.9.y.u.t.y.+.9.t.y.t.P.P.D.t.t.y.+.y.p.t.  ",
"G.T.L.T.k.9.t.t.w.t.t.t.t.t.p.t.y.+.+.@.i.~.T.k.w.p.t.t.y.t.y.y.( F * - e L.Q.B.9.w.y.t.y.9.+.t.t.t.w.9.+.L.T.D.w.w.p.w.t.t.w.  ",
"L.P.x.B.d.t.t.y.t.t.t.w.y.w.t.y.l.i.d.l.j.c.D.t.{ @.w.y.w...o.9.k.- X @ > G G I D S S S S F ~ { j.d.k.z.j.v.x.c.t.w.i.t.w.i.h.  ",
"G.S.9.t.t.+.w.w.t.t.t.t.i.y.t.G./.^.T.^.x.+.t.( K ~ 9.y.o.U G T , X X - , S S M t D 9.9.y.G.L./.~.P.T.T.L.t.+.+.+.+.t.+.y.P.~.  ",
"P.D.w.t.u.t.y.u.y.w.w.+.t.9.+.D.G.P.H.P.D.w.y.` I T t.i.+.T I ` +.o.g.D.B.T.Y.V.w.t.w.9.y.P.G.P.G.J.L.L./.9.i.t.p.t.p.+.+.D.P.  ",
"j.j.t.u.o.~ ` 9.y.y.v.D.x.D.v.z.u.i.v.d.t.( ) ) T T { ( _ +...s.D.l.j.d.j.d.d.d.t.9.q.t.u.G.T.D.i.z.h.i.i.u.y.y.y.9.j.D.B.j.u.  ",
"+.y.y.y._ G Y +.t.d.P.~.L.^.~.y.+.+.t.9...I U U Y Y U K ) i.t.B._.T.y.O.9.y.9.9.t.9.y.+.t.~.T.c.O.O.O.9.t.O.+.y.t.+.v.~.P.i.o.  ",
"+.t.t.+.` U ~ 9.+.u.P.P.H.S.G.y.t.p.y.y.o.I U T ~ ~ Y T _ t.O.l.G.J.i.y.y.y.w.y.i.w.y.t.i.G.G.z.y.i.u.t.y.+.i.t.t.t.v.P.G.d.w.  ",
"T T T Y o.+.w.i.t.i.P.L.v.y.u.t.9.p.9.t...I Y { 9.u.t.9.+.y.t.y.y.y.w.9.y.t.y.w.t.t.x.Y.D.t.y.9.t.t.t.+.y.t.t.i.G.F.z.t.y.9.+.  ",
"T Y U G ..y.y.t.O.i.G.P.x.O.9.i.t.u.t.i.o.Y I O.y.t.t.t.i.y.+.y.y.u.y.9.u.t.y.y.w.w.V.).T.w.y.t.i.w.t.w.t.u.t.i.^.Q.x.+.y.y.i.  ",
"U ~ ..) o.t.t.d.i.c.L.Q.l.+.p.o.` o...o.{ ) ( +.y.t.t.+.t.t.i...{ +.y.y.y.t.9.y.w.t.l.A.x.p.9.t.+.| t.t.+.y.t.i.B.c.j.t.p.@.o.  ",
"Y _ i.t.w.t.t.J.J.P.J.Q.h.O.t./ I T Y I ( w.p.y.w.w.t.t.w.9.p._ I Y 9.y.y.t.y.u.w.w.w.9.w.y.y.o.I P | p.t.w.w.9.w.@.w.+.w.~ Y   ",
"P ( y.y.y.y.w.F.J.P.J.).x.t.i./ Y Y Y P ( y.w.w.w.i.t.y.w.p.p._ I K t.w.y.+.w.t.O.s.t.u.s.w.u.o.G Y ..p.t.w.p.t.y.w.i.y.t.T P   ",
"| O.t.p.p.9.t.F.Q.S.h.k.+._ ` T T / @.| +.t.t.y.w.t._ _ ` ` ( { @...9.t.p.v.x.k.w.t.| ) ( | _ _ +.` +.p.w.O.p.t.t.@.w.( ` | o.  ",
"p.y.w.9.p.t.w.J.P.v.w.t._ Y Y T I T p.p.t.w.y.t.w.9.Y I I Y P | y.h.w.w.p.Q./.v.+.w./ I Y I I _ i.p.y.t.w.9.t.t.t.w.| P / +.p.  ",
"w.w.p.w.y.y.t.D.J.F.9.t.| T U Y Y ~ 9.t.t.t.t.y.p.t.( Y Y T K ..t.y.+.9.j.L.~.l.w.u._ Y T I P ) t.t.9.9.y.y.t.p.9.u.| I Y +.w.  ",
"y.w.i.t.z.P.P.h.w.t.t.i.` I / +.y.t.t.9.y.y.t.+.t.w.T I ` t.t.9.w.+.F.L.c.( ~ / / / U I ~ t.y.t.y.t.w.t.y.t.t.@.I ( T U T t.y.  ",
"y.t.u.9.v.^.G.t.t.p.y.y.o.I K +.t.t.t.w.t.t.y.+.y.t.( K ( t.t.t.y.t.L.~.S.I U I T I Y U Y t.t.y.w.t.w.t.t.9.y.+.P I U Y U +.w.  ",
"9.+.u.9.x.G.G.i.t.+.+.o.{ T / w.t.y.t.t.t.+.+.y.+.@.` Y ` i.y.y.w.y.k.L.k.I Y ~ T I T / ) 9.t.t.w.y.t.t.u.+.+.@.) ~ T T ( t.u.  ",
"I ~ t.+.t.+.t.y.u...U U ..y.u.t.9.t.9.t.y.t.y.) K ~ +.9.j.^.G.G././.U F Y T T T U ~ O.y.y.y.y.y.y.y.9.+.t.T I ( t.y.d.y.t.t.9.  ",
"I ( y.t.y.O.t.t.t...U I ) t.t.y.+.9.9.+.+.+.y.` G T t.+.y.G.H.P.D.^.( I U U I U I U o.y.9.9.+.+.9.t.t.9.y.Y I T i.+.t.+.t.+.+.  "
};
