/* XPM */
static char *_f90c04a6b574c72abac3c990c8ee41d[] = {
/* columns rows colors chars-per-pixel */
"64 64 208 2 ",
"   c None",
".  c #010102",
"X  c #050109",
"o  c #0C0E0D",
"O  c #090504",
"+  c #130E0C",
"@  c #110807",
"#  c #1A130F",
"$  c #17160E",
"%  c #0B0A18",
"&  c #0F1011",
"*  c #131313",
"=  c #1B1413",
"-  c #1A1B1C",
";  c #181A15",
":  c #230B00",
">  c #371C0F",
",  c #241B19",
"<  c #251918",
"1  c #24120C",
"2  c #1C211F",
"3  c #24201C",
"4  c #2D2618",
"5  c #35241D",
"6  c #3C2716",
"7  c #171828",
"8  c #1E2120",
"9  c #1E223C",
"0  c #222323",
"q  c #2A2523",
"w  c #24232B",
"e  c #28262C",
"r  c #2B2A2A",
"t  c #242927",
"y  c #322422",
"u  c #382B27",
"i  c #2E312F",
"p  c #3D342B",
"a  c #33312F",
"s  c #2B2C3A",
"d  c #272835",
"f  c #392D30",
"g  c #3A3633",
"h  c #363837",
"j  c #3C3A35",
"k  c #3D3C3D",
"l  c #333335",
"z  c #43230F",
"x  c #42281D",
"c  c #562F14",
"v  c #41331D",
"b  c #54321C",
"n  c #4B2D20",
"m  c #4D3629",
"M  c #523728",
"N  c #433B3D",
"B  c #483E3B",
"V  c #533F34",
"C  c #603820",
"Z  c #46403B",
"A  c #594538",
"S  c #6B4628",
"D  c #764E33",
"F  c #7A5636",
"G  c #6F4A31",
"H  c #3B3949",
"J  c #323855",
"K  c #483B45",
"L  c #3C435B",
"P  c #3B4463",
"I  c #434445",
"U  c #4B4B4D",
"Y  c #484648",
"T  c #524C47",
"R  c #57544D",
"E  c #424354",
"W  c #4D4E51",
"Q  c #4E5153",
"!  c #525355",
"~  c #555659",
"^  c #56585B",
"/  c #5A5B5D",
"(  c #5B5A52",
")  c #604D42",
"_  c #785945",
"`  c #6D5F50",
"'  c #715D52",
"]  c #68584D",
"[  c #606153",
"{  c #6F675C",
"}  c #7A6558",
"|  c #5D5E61",
" . c #5B5964",
".. c #625C66",
"X. c #5E6062",
"o. c #626365",
"O. c #6A6163",
"+. c #656669",
"@. c #67696B",
"#. c #6A6B6E",
"$. c #69646B",
"%. c #6D6E71",
"&. c #6E697B",
"*. c #6E7073",
"=. c #727375",
"-. c #757679",
";. c #77797B",
":. c #7A7B7D",
">. c #797876",
",. c #706B67",
"<. c #875C35",
"1. c #906537",
"2. c #885E42",
"3. c #8C654C",
"4. c #8C6B4E",
"5. c #8E6E56",
"6. c #88765C",
"7. c #977151",
"8. c #956E56",
"9. c #A67E58",
"0. c #857967",
"q. c #807D77",
"w. c #9D7B63",
"e. c #9F836C",
"r. c #84807E",
"t. c #9A8774",
"y. c #939079",
"u. c #B58A61",
"i. c #BB906A",
"p. c #A19F7D",
"a. c #AA8862",
"s. c #C89F71",
"d. c #CDA077",
"f. c #DAAC7E",
"g. c #7D7E81",
"h. c #737B8C",
"j. c #7B7E98",
"k. c #807F84",
"l. c #7E8183",
"z. c #7A8499",
"x. c #7780A0",
"c. c #828385",
"v. c #8A8684",
"b. c #848689",
"n. c #86888B",
"m. c #898A8D",
"M. c #888788",
"N. c #938A87",
"B. c #999489",
"V. c #8C8D91",
"C. c #838197",
"Z. c #8E9093",
"A. c #929396",
"S. c #959699",
"D. c #97999C",
"F. c #9A9B9D",
"G. c #9E9994",
"H. c #A89787",
"J. c #B09C89",
"K. c #A69C96",
"L. c #ABA69F",
"P. c #B6AC8C",
"I. c #9C9EA1",
"U. c #9FA1A4",
"Y. c #9EA3AB",
"T. c #A1A2A6",
"R. c #A2A3A5",
"E. c #ABA6A2",
"W. c #A5A6AA",
"Q. c #A5A6A9",
"!. c #A7A8AC",
"~. c #A7AAAC",
"^. c #A9AAAE",
"/. c #AAABAD",
"(. c #ADAAA5",
"). c #B7AAA5",
"_. c #B9B6A8",
"`. c #ABACB0",
"'. c #ADAEB2",
"]. c #ADAEB1",
"[. c #A6A8B3",
"{. c #AEB1B4",
"}. c #B1B2B6",
"|. c #B2B3B5",
" X c #B5B6B9",
".X c #B6B8BB",
"XX c #BABCBD",
"oX c #B8B6B6",
"OX c #C0AB93",
"+X c #D2A882",
"@X c #E3BE9A",
"#X c #C5B7A7",
"$X c #C2BCB6",
"%X c #CECA9E",
"&X c #C9C3BA",
"*X c #DACBB3",
"=X c #CCC7A4",
"-X c #F4EFBD",
";X c #E4E0B9",
":X c #BCC4C2",
">X c #C8C8C8",
",X c #D1CAC3",
"<X c #D1C6C0",
"1X c #D7D2C8",
"2X c #D0D1D1",
"3X c #E4DED6",
"4X c #F5F1C3",
"5X c #F8F0D2",
/* pixels */
"g.:.:.-.l.;.;.:.;.;.;.:.;.:.>.g.g.-.Q W ! U W =.:.g.T.W.T.T.!.Z.=.g.^ U ! ! Y @.l.=.;.g.g.=.c.;.c.g./ W W :.:.=.l.-.:.:.;.! I   ",
"c.c.b.c.b.c.c.n.n.c.:.c.l.c.n.c.l.c.| / ~ ~ ! =.l.m.!.].].!.^.D.m.m.o.~ / ~ ! %.b.c.b.c.b.g.g.b.c.b.X.Q ~ g.n.m.c.n.b.b.c.o.~   ",
"l.b.c.b.c.c.b.*.@.-.c.m.b.c.n.=.#.%.~ / o.:.%.A.I.D.A.V.S.A.I.-.#.%./ ~ o.=.=.g.c.c.c.:.m.I.I.Z.g.V.:.=.-.l.c.g.o.#.@.#.#.=.=.  ",
"l.b.g.n.c.b.n.| I X.g.c.b.c.b.^ ~ | ~ / %.V.g.T.{.^.b.:.c.g.b.@.! ! / ~ o.b.c.c.g.b.b.g.m.W.|.I.g.n.c.b.m.b.c.:.~ ! ~ ! ! g.c.  ",
"b.m.:.b.c.c.c.#.~ %.c.c.b.c.b.o.~ ~ / ! o.b.c.U.{.].b.g.n.c.b.@./ ~ X.^ | b.g.c.g.g.g.l.V.U.|.D.c.c.b.g.g.c.b.g.~ Q o.^ / :.:.  ",
"c.:./ o.| | | ;.g.c.c.c.b.g.n.o.~ | c.c.g.b.l.g.b.b.| / o.| / =.b.g.g.g.b.!.W.Q.^.^.W.W.T.m.b.V.c.c.m.c.g.b.b.g.~ ^ -.;.c.b.c.  ",
"n.;.~ ~ ^ ^ ^ g.V.c.:.g.b.g.m.| W ^ l.m.b.b.c.g.c.g./ ~ ~ ~ W #.m.c.l.c.V.`.`.].|.^.^.`.W.c.:.n.b.g.b.c.b.b.b.=.~ ~ =.c.b.c.c.  ",
"g.=.^ | | | | g.b.g.m.V.b.:.:.#.o.#.:.c.:.l.b.b.b.c.| ~ ^ +.X.-.n.c.c.g.m.^.T.W.W.T.`.^.T.b.b.c.c.l.b.c.b.:.g.=.+.^ ;.m.c.b.c.  ",
"! |  .^ -.V.b.c.g.V.`. Xc.! ! g.b.c.b.n.g.c.b.g.b.b.o.W %.m.b.g.l.b.g.c.l.l.-.S.{.^.!.W.T.b.c.b.c.b.b.b.g.^ Q X.n.m.b.c.g.b.g.  ",
"!  .~ ! %.b.g.c.:.m.]. Xc.! ! ;.c.c.c.c.l.c.b.n.b.c.o.W #.c.c.b.b.b.m.c.c.c.g.S.|.W.].|.].g.g.c.b.g.:.b.l.~ ! +.c.b.c.c.c.n.m.  ",
"%.=.=.%.g.n.n.S.&X&XH.3XD.#.o.c.b.n.b.c.c.c.b.;.#.=.*.#.-.c.c.c.g.g.c.g.b.A.A.D.I.A.S.D.I.l.b.b.m.b.l.b.b.%.*.=.c.c.b.b.c.=.%.  ",
"b.V.V.n.c.g.c.<XH._ 5.0.#XG.Z.b.:.c.c.c.c.:.c.o.U | g.b.b.c.c.b.c.m.g.c.Z.|..XA.g.g.:.:.g.b.c.b.b.b.b.g.b.b.b.n.b.g.c.c.c.X.!   ",
"g.l.c.c.c.c.$XOXS 9.<.7._ ] <XF.:.b.b.l.b.c.c.#.Q X.l.n.b.c.c.l.g.b.c.l.m.Q.].D.g.b.c.c.c.n.c.l.c.l.l.g.b.n.l.l.l.n.n.b.c.o.!   ",
"m.m.g.c.S.$XP.4.u.f.f.d.F w.m B.F.m.c.:.Z.T.U.n.=.:.c.g.c.b.c.b.c.c.U.I.I.m.m.V.l.l.c.c.c.@.o.%.n.l.l.b.b.l.l.b.l.n.=.X.@.-.:.  ",
"g.c.:.l.I.1Xt.a.s.1.u.<.D 8.m ).oXb.l.:.S. X XA.b.n.n.l.c.b.l.c.c.g.].{.`.l.:.g.g.c.b.b.l.! W X.b.l.c.b.l.l.b.b.g.n.%.Q ! :.n.  ",
"b.V.n.b.A.&XA F @X+Xi.u.D 3.n B v.b.m.b.Z.!.T.V.:.c.b.c.b.b.g.l.b.c.T.Q.U.c.b.b.g.b.g.g.g.+.| *.n.l.b.l.l.n.b.m.:.n.*.^ ~ l.n.  ",
"^.W.^.`.S.n.v.6 z c D 3.z M V <X/.].W.^.S.:.c.b.b.g.c.b.-.^ ^ =.b.g.b.b.c.c.b.b.c.b.@.! | l.l.n.b.l.l.l.b.!.!.U.l.b.=.~ ^ c.n.  ",
"`.^.^.^.D.g.b.{ t.e.b _ 5 : 6 u E. X^.|.I.g.c.b.m.c.b.V.:.! U #.c.g.:.l.b.b.m.l.b.b.+.Q | b.b.n.l.l.l.l.g.Q..X!.c.b.%.! ~ ;.:.  ",
"^.^.W.^.S.g.c.n._.*X} 5 p m v 3 E./.S.I.A.g.c.-.#.=.-.=.=.=.o.g.D.D.c.c.b.%.*.*.-.-.#.+.*.l.g.l.l.l.V.A.Z.A.I.V.#.=.=.@.#.m.A.  ",
"W.^.^.].A.g.b.b.&X#XA *X4X%X6.4 (.^.:.:.c.:.c.#.W ^ ^ U o.m.g.F.].].c.g.:.~ ^ ~ ~ ^ -.b.n.b.b.b.b.g.U.{.{.b.b.;.Q ! =.c.b.!.|.  ",
"^.^.W.`.A.l.b.XX>.4 B.5X4X-X%Xy.( 2Xm.c.b.b.m.*./ ^ ~ ! o.c.:.D.W. Xm.m.c.^ ^ | / ~ g.n.l.g.l.b.l.;.I.^.!.;.b.:.^ U *.g.g.R.^.  ",
"].W.V.A.m.c.c.oXB.j p H.;X4XP._.j U >X#.o.o.+./ W | =.=.l.T.F.S.n.A.+.o.#.^ | / ^ ! -.c.l.b.b.Z.U.I.U.`.!.b.n.b.:.=.b.c.g.W./.  ",
"].I.:.l.c.c.c.oX( j G.= 0.p.=X[ U l m.%.! ! ^ / ! @.n.g.m.|.].A.:.n.^ ! | ~ ~ / / ~ -.c.l.b.;.Z.{.{.U.{.!.n.;.:.c.b.m.g.l.U.].  ",
"`.T.g.b.b.c.F.R.R R B.q T ,X[ . g.b.m.XX^ ^ / / / | l.b.V.W.|.A.-.n./ ! | / ! / / / :.b.l.n.;.A.!.W.!.{.Q.b.l.m.c.b.b.c.m.F./.  ",
"c.m.g.b.*.! M.O.q 3 q.T . 3 O X H ~ Y >X/ / / =.n.c././.!.^./.A.:.n.o.| o.b.c.b.b.c.b.l.V.Q.!.`.^.!.U.^.!.l.b.b.c.:.D.{.W.^.^.  ",
":.c.l.b.@.+.,Xj = q g E.c.s w % ..V.! oX! ~ ! ;.n.l.T.W./.^..XS.b.n.~ W | b.g.c.:.g.c.;.l.W.!.!.{.`.{.!.{.b.l.b.b.c.D./.W.].|.  ",
"c.n.c.n.*.(.R ).O.I # G./ d H w O.N.( _.| #.@.-.c.b.!.].].A.U.b.;.;.@.o.#.b.c.m.V.Z.Z.V.V.!.^.W.U.I.Q.D.U.b.l.l.=.;.S.].!.W.U.  ",
"c.n.c.c.%.(.Z v.T = ,.g s E H e 1 ) ` &X#.n.c.m.c.b.].].V.Y W ! W / c.m.b.b.g.A.|.`.^.`.!.{. XF.l.g.l.g.g.l.l.g.W U b. XR.b.-.  ",
"c.n.m.c.#.@./ r 0 g j e 7 9 d X } H.J.&X+.b.g.c.=.g./..XD.~ X.^ / ! g.g.c.g.:.S.].^.].`.{.^.{.I.g.l.l.b.l.n.b.l.! U m. X!.b.:.  ",
"@.#.#.@.#.#.=.c.c.Y Y Y s J 9 % y 0.H.L.-.b.g.S.I.S.c.:.:.#.-.@.=.#.S.A.I.S.S.S.V.V.S.n.Z.Z.A.Z.l.n.b.c.l.*.+.%.b.b.m.m.A.m.c.  ",
"! ! ! ! -.m.b.n.b.l.v.a E L P L - @ B.m.c.c.g.F.XXR./ I o.b.V.n.n.b.^.{.{.]. XD.:.c.c.;.g.g.l.l.l.b.b.g.l.| W *.XX XS.=.c.c.:.  ",
"^ / / ~ =.c.:.c.c.n.N.y  .C.x.z. .e >Xm.b.b.c.m.|.R.@.~ @.b.g.g.g.c.I.'.`.W.!.D.:.m.g.n.m.l.l.b.g.b.b.b.l./ ! #.].R.F.l.b.l.g.  ",
"~ +.l.;.c.c.c.c.b.E.' M f &.j.h.Y.| 2X| k n.b.-.o.@.;.-.c.b.:.D.R.T.`.^.`.'.W.D.g.c.@./ | o./ o.| | o.o.| ;.;.c.n.c.m.c.g.o.X.  ",
"! @.b.b.b.c.c.c.n.J._ _ x K C.[.%.* k * o t m.o.U / c.b.b.c.g.F.|.].].W.W.!.].I.c.b.o.W ! ^ ~ | ! ! ~ ! ! m.n.b.g.b.n.n.n./ Q   ",
"o.=.c.b.c.g.c.b.K.A 3.S n N $.+.+ , O o * o - ! Q o.b.c.c.c.:.D.{.^.^.^.'.I.!.V.=.:.%.+.o./ ^ o./ ^ o.+./ b.:.n.:.b.:.=.-.@.+.  ",
"c.b.c.c.b.c.b.l.K.A 2.C > < r + q y + o h r * ~ ~ +.c.g.n.b.c.S.^.W.W.^.!.g.b.=.Q | =.b.g.X./ | X./ =.m.g.b.:.b.c.c.%.~ / :.c.  ",
"b.b.g.g.c.:.:.c.q.A 4.b > U :.~ < u + ; o l 0 ! U ^ :.l.c.g.;.I.{.|.].].W.g.n.%.W ! *.n.b./ ~ ~ ~ W #.b.b.:.c.c.c.c.*.~ ~ g.b.  ",
"c.b.b.b.b.g.c.I.r.V _ x < :.n.c.~ , , ; & Y r / #.-.b.c.m.S.S.A.A.S.A.S.A.g.V.g.%.*.:.c.c.^ ~ #.*.*.c.l.b.g.n.b.:.n.%.~ X.:.b.  ",
"c.l.b.g.c.:.n.o.r # 5 p N b.c.c.c.o.k - - ! W *.b.b.c.:.A.|.|.V.g.g.g.c.g.g.l.c.b.b.b.b.c.^ ~ %.b.b.m.c.b.l.b.b.l.n.%.! | :.n.  ",
"c.c.c.:.b.g.A.i q = * ! S.b.c.b.c.:.b.-.+.W ! =.b.c.c.:.Z.].].A.:.c.b.b.g.b.c.g.l.c.c.c.c.! ! @.Z.l.:.c.c.l.b.l.b.b.-.! ~ :.l.  ",
"l.n.^.F.R.F.:Xo.* a . ;.m.c.c.c.c.b.b.l.l.c.:.c.c.:.b.l.c.m.b.g.c.c.c.g.n.c.b.Z.`.T.-.~ @.:.:.-.c.c.c.l.b.c.c.:.o./ *.:.:.c.c.  ",
"c.V.|.^.^ t t 2 I 0 U c.b.c.g.c.c.c.g.c.l.:.c.l.l.l.b.c.c.b.g.b.c.c.c.l.c.g.:.A.].|.%.! / c.b.l.c.b.c.g.:.g.l.:.W W -.m.b.c.b.  ",
"c.m.W.^.Y h ! 2 8 - o.c.n.b.c.b.c.n.c.c.n.b.n.n.c.b.c.c.c.b.c.c.:.c.n.b.b.V.b.I.T.^.%.| o.g.l.m.c.b.c.b.g.n.n.g.~ / -.l.b.b.b.  ",
"W.^.]./.V.I - - 0 - g.:.:.;.:.:.;.g.c.l.Z.R.D.m.g.n.l.c.c.c.l.c.c.n.b.c.V.`.!.S.c.b.;.g.b.n.c.b.:.g.c.b.c.!./.T.c.c.b.:.b.n.c.  ",
"W.].^.].X.l o * & & . . . . . . k ! ~ ~ -.F.F.A.l.n.c.c.b.c.b.c.c.c.g.g.n.'.{.I.g.l.b.c.b.g.:.c.c.c.l.g.:.^.].T.l.l.n.l.c.c.l.  ",
"^./.D.I.m.#.-.-.=.:.g.l.b.l.c.b.S.m.V.S.A.D.T.c.%.;.l.b.l.=.-.:.c.g.V.A.A.^.^.D.g.b.c.l.b.A.A.m.A.V.A.S.A.F.D.D.c.l.m.c.l.m.Z.  ",
"W.U.g.c.c.:.l.l.c.c.c.c.m.b.c.W. X|.].|.D.:.c.o.W | g.b.-.~ U =.b.c.T.|.!.].`.D.l.b.l.c.m./.^. X|./.].].^.c.:.:.:.:.c.:.b.!.|.  ",
"/.T.l.c.n.c.b.n.b.l.l.:.c.g.:.T.W./.R./.R.l.b.#.! / c.m.:./ ! #.n.c.I.|.^.].`.I.l.c.l.g.b.!.W./.W.!.^.^. Xg.m.c.n.c.n.:.:.R./.  ",
"A.A.c.n.-.| #.g.b.b.F.T.D.R.F.S.m.m.F.V.c.o.+.+./ / %.o.@.:.=.V.T.S.A.V.A.V.V.V.c.g.k.c.b.W.].T.m.S.Z.m.m.n.b.b.b.g.A.T.I.A.n.  ",
":.b.b.b.@.U ^ :.c.V./.|.^.|.|.b.:.:.c.g.=.! ~ ~ ^ ^ ~ W +.m.c.I..X].b.;.g.b.g.g.c.g.b.:.c.|.].D.;.;.;.g.c.;.:.b.c.:.F.|.!.m.-.  ",
":.c.c.:.#.~ | g.:.n.!./.R.U.W.b.c.n.b.b.-.! ~ / | | ^ / @.c.;.S.W.!.m.b.b.b.g.c.m.l.b.c.m.W.W.S.b.m.n.c.b.:.m.c.c.c.F.!.W.V.l.  ",
"/ | / ^ -.:.l.m.c.m./.^.F.b.m.c.g.n.g.c.=.! ^ %.g.n.c.g.:.b.c.b.b.b.l.g.b.c.b.g.c.c.D.`.T.c.b.g.c.c.c.:.b.c.c.m.W.R.S.c.b.g.:.  ",
"/ ^ ~ U =.b.b.c.;.m.!./.S.;.g.m.c.n.c.m.-.^ ! ;.b.b.c.c.m.b.:.b.b.n.b.g.n.c.b.b.l.l.I..X].l.b.c.m.l.c.l.c.n.c.m.|.|.S.:.b.b.m.  ",
"~ | =.@.-.c.c.V.m.D.^.{.S.:.n.-.#.-.=.-.#.+.o.:.b.c.c.:.c.c.m.=.%.:.b.b.b.c.g.b.l.c.S.U.D.n.g.c.:.*.c.c.:.b.c.m.I.D.A.c.n.;.-.  ",
"^ @.m.c.l.c.c.!.!./.!.{.Z.;.c.X.! / ^ ! o.l.n.b.l.l.c.c.l.g.n.@.! ^ g.b.b.c.b.n.l.l.l.g.l.b.b.-.! Q *.n.c.l.l.g.l.;.l.:.l.| ^   ",
"Q o.b.b.b.b.l.R.!./.!.XXS.c.m.X.^ ^ ^ Q o.b.l.l.l.m.c.b.c.n.n.@.! W c.l.b.:.l.c.;.V.c.n.V.l.n.-.U ^ =.n.c.l.n.c.b.l.m.b.c./ Q   ",
"*.;.c.n.n.g.c.R.{.U.Z.A.:.@.#./ / X.;.*.:.c.c.b.l.c.@.@.#.#.o.%.;.=.g.c.n.F.D.A.l.c.*.+.o.*.@.@.:.#.:.n.l.;.n.c.c.;.l.o.#.*.-.  ",
"n.b.l.g.n.c.l.!./.F.l.c.@.^ ^ / ! / n.n.c.l.b.c.l.g.^ ! ! ^ Q *.b.Z.l.l.n.{. XF.:.l.X.! ^ ! ! @.m.n.b.c.l.g.c.c.c.l.*.Q X.:.n.  ",
"l.g.n.l.b.b.c.T.!.R.g.c.*./ ~ ^ ^ | g.c.c.c.c.b.n.c.o.^ ^ / W =.c.b.:.g.A.^.|.S.l.n.@.^ / ! Q +.c.c.g.g.b.b.c.n.g.n.*.! ^ :.l.  ",
"b.g.m.c.S.!.!.Z.l.c.c.m.#.! X.:.b.c.c.g.b.b.c.:.c.l./ ! #.c.c.g.l.:.R.^.D.o.| X.X.X.~ ! | c.b.c.b.c.l.c.b.c.c.;.! o./ ~ / c.b.  ",
"b.c.n.g.F.|.W.c.c.n.b.b.-.! U :.c.b.c.l.c.c.b.:.b.c.o.W o.c.c.c.b.c.^.|.U.! ~ ! / ! ^ ~ ^ c.c.b.l.c.l.c.c.g.b.:.W ! ~ ^ ~ :.l.  ",
"g.:.n.g.D.W.W.m.c.:.:.-.%./ X.l.c.b.c.c.c.:.:.b.:.;.#.^ #.m.b.b.l.b.A.^.A.! ^ | / ! / X.+.g.c.c.l.b.c.c.n.;.:.;.+.| / / o.c.n.  ",
"! | c.:.c.:.c.b.n.=.~ ~ =.b.n.c.g.c.g.c.b.c.b.+.W | :.g.A.|.W.W. X X~ Y ^ / / / ~ | ;.b.b.b.b.b.b.b.g.:.c./ ! o.c.b.V.b.c.c.g.  ",
"! o.b.c.b.;.c.c.c.=.~ ! +.c.c.b.:.g.g.:.:.:.b.#.U / c.:.b.W.R./.T.|.o.! ~ ~ ! ~ ! ~ -.b.g.g.:.:.g.c.c.g.b.^ ! / m.:.c.:.c.:.:.  "
};
