/* XPM */
static char *_cd8e41594e944f0bda5935b6a48c760[] = {
/* columns rows colors chars-per-pixel */
"64 64 192 2 ",
"   c None",
".  c #030201",
"X  c #0B0704",
"o  c #0B0C0D",
"O  c #06030B",
"+  c #100D0E",
"@  c #150803",
"#  c #0B0A16",
"$  c #120C1D",
"%  c #0F1113",
"&  c #131414",
"*  c #1B1512",
"=  c #1C1B1C",
"-  c #2C1C13",
";  c #221A19",
":  c #2B1D1A",
">  c #23221E",
",  c #2B201B",
"<  c #3D281D",
"1  c #1E202B",
"2  c #252424",
"3  c #2A2A2B",
"4  c #23252C",
"5  c #332621",
"6  c #372A26",
"7  c #2F312E",
"8  c #34342E",
"9  c #3A342E",
"0  c #282937",
"q  c #343232",
"w  c #3C3B3B",
"e  c #3C3636",
"r  c #481D0A",
"t  c #43261C",
"y  c #472B1C",
"u  c #5B2B12",
"i  c #4A290A",
"p  c #432D23",
"a  c #49352B",
"s  c #5B3E2D",
"d  c #543E27",
"f  c #413C34",
"g  c #423D3D",
"h  c #483B35",
"j  c #3F4031",
"k  c #47433D",
"l  c #454035",
"z  c #584436",
"x  c #6D452F",
"c  c #75502C",
"v  c #664836",
"b  c #774F36",
"n  c #7E5738",
"m  c #774823",
"M  c #3B3C49",
"N  c #3E4142",
"B  c #3E4654",
"V  c #434344",
"C  c #46464B",
"Z  c #4A4B4D",
"A  c #4D4946",
"S  c #544844",
"D  c #5D5143",
"F  c #545347",
"G  c #4D4E51",
"H  c #444552",
"J  c #514F57",
"K  c #4E5153",
"L  c #525355",
"P  c #555659",
"I  c #56585B",
"U  c #5A5B5D",
"Y  c #595654",
"T  c #625A4C",
"R  c #685748",
"E  c #7F5E43",
"W  c #675D57",
"Q  c #64615D",
"!  c #6B615A",
"~  c #7A6A5F",
"^  c #5D5E61",
"/  c #615F6A",
"(  c #5E6062",
")  c #626365",
"_  c #656669",
"`  c #66696B",
"'  c #6A6B6E",
"]  c #6D6B60",
"[  c #716C66",
"{  c #75726E",
"}  c #7D726A",
"|  c #6D6E71",
" . c #6E7073",
".. c #727375",
"X. c #757679",
"o. c #79777A",
"O. c #77797B",
"+. c #7A7B7E",
"@. c #797876",
"#. c #845D49",
"$. c #885D44",
"%. c #87664E",
"&. c #806959",
"*. c #966B54",
"=. c #88705E",
"-. c #94755C",
";. c #9C7453",
":. c #A17551",
">. c #8C7968",
",. c #877A72",
"<. c #B5865A",
"1. c #948474",
"2. c #998576",
"3. c #88847C",
"4. c #A5866B",
"5. c #B58C69",
"6. c #BB946E",
"7. c #C3986D",
"8. c #C99B72",
"9. c #C3A17F",
"0. c #7D7E81",
"q. c #787A87",
"w. c #807F84",
"e. c #7E8183",
"r. c #828385",
"t. c #888886",
"y. c #848689",
"u. c #86888B",
"i. c #898A8D",
"p. c #8A8787",
"a. c #99968B",
"s. c #8C8D91",
"d. c #8E9093",
"f. c #919296",
"g. c #929395",
"h. c #9A9593",
"j. c #95969A",
"k. c #959699",
"l. c #97999B",
"z. c #999A9E",
"x. c #9A9B9D",
"c. c #988A85",
"v. c #A29D87",
"b. c #B09E8F",
"n. c #A19D9A",
"m. c #B19D92",
"M. c #A7A494",
"N. c #A3A39D",
"B. c #AEA892",
"V. c #B5AB98",
"C. c #BBB79A",
"Z. c #9D9EA2",
"A. c #9C9EA1",
"S. c #9FA0A4",
"D. c #9FA1A3",
"F. c #A1A2A6",
"G. c #A2A3A5",
"H. c #AAA5A2",
"J. c #A5A6AA",
"K. c #A5A6A9",
"L. c #A7A8AC",
"P. c #A7A9AC",
"I. c #A9AAAE",
"U. c #AAABAD",
"Y. c #B5B3AE",
"T. c #BFB8AD",
"R. c #ABACB0",
"E. c #ACADB1",
"W. c #AEAFB3",
"Q. c #ADAEB1",
"!. c #A5A1B0",
"~. c #B1ACB5",
"^. c #AFB0B4",
"/. c #AEB1B3",
"(. c #B1B2B6",
"). c #B2B2B5",
"_. c #B5B6B9",
"`. c #B8B7BB",
"'. c #B6B8BB",
"]. c #BABBBC",
"[. c #DAAE8A",
"{. c #CBBAA9",
"}. c #C5B4A3",
"|. c #CDBFB8",
" X c #C8C2BA",
".X c #D5CAB7",
"XX c #E0DABF",
"oX c #D2CCC4",
"OX c #DFDDD4",
"+X c #F3EDCF",
"@X c #F7F2CE",
"#X c #F7F3DD",
/* pixels */
"0.+.+.X.e.O.O.+.O.O.O.+.O.+.@.0.0.X.K G L Z G ..+.0.F.J.F.F.L.d...0.I Z L L C _ e...O.0.0...r.O.r.0.U G G +.+...e.X.+.+.O.L V   ",
"r.r.y.r.y.r.r.u.u.r.+.r.e.r.u.r.e.r.^ U P P L ..e.i.L.E.E.L.I.l.i.i.) P U P L | y.r.y.r.y.0.0.y.r.y.( K P 0.u.i.r.u.y.y.r.) L   ",
"e.y.r.y.r.r.y. ._ X.r.i.y.r.u...' | P U ) +.| f.Z.z.f.s.j.f.A.X.' | U P ) ....0.r.r.r.+.i.Z.Z.d.0.s.+...X.e.r.0.) ' ` ' ' ....  ",
"e.y.0.u.r.y.u.^ V ( 0.r.y.r.y.I L ^ P U | s.0.F.^.I.y.+.r.0.y.` L L U P ) y.r.r.0.y.y.0.i.J.(.Z.0.u.r.y.i.y.r.+.L L P L L 0.r.  ",
"y.i.+.y.r.r.r.' P | r.r.y.r.y.) P P U L ) y.r.S.^.E.y.0.u.r.y.` U P ( I ^ y.0.r.0.0.0.e.s.S.(.z.r.r.y.0.0.r.y.0.P K ) I U +.+.  ",
"r.+.U ) ^ ^ ^ O.0.r.r.r.y.0.u.) L ^ r.r.0.y.e.0.y.y.^ U ) ^ U ..y.0.0.0.y.L.J.J.I.I.J.J.F.i.y.s.r.r.i.r.0.y.y.0.P I X.O.r.y.r.  ",
"u.O.P P I I I 0.s.r.+.0.y.0.i.^ G I e.i.y.y.r.0.r.0.U P P P G ' i.r.e.r.s.R.R.E.(.I.I.R.J.r.+.u.y.0.y.r.y.y.y...P L ..r.y.r.r.  ",
"0...I ^ ^ ^ ^ 0.y.0.i.s.y.+.+.' ) ' +.r.+.e.y.y.y.r.^ P I _ ( X.u.r.r.0.i.I.F.J.J.F.R.I.F.y.y.r.r.e.y.r.y.+.0..._ I O.i.r.y.r.  ",
"L ^ ^ I X.s.y.r.+.s.I._.r.L L 0.y.r.y.u.0.r.y.0.y.y.) G | i.y.0.e.y.0.r.e.e.X.j.^.I.L.J.F.y.r.y.r.y.y.y.0.I K ( u.i.y.r.0.y.0.  ",
"L ^ P L | y.e.r.+.i.E._.r.L L O.r.r.r.r.e.r.y.u.y.r.) G ' r.r.y.y.y.i.r.r.r.0.j.(.J.E.(.E.0.0.r.y.0.+.y.e.P L _ r.y.r.r.r.u.i.  ",
"| ....| 0.u.u.f.k.k.j.l.y._ ) r.y.u.y.r.r.r.y.O.' .. .' X.r.r.r.0.0.r.0.y.f.f.l.Z.f.j.z.z.e.y.y.i.y.e.y.y.|  ...r.r.y.y.r...|   ",
"y.s.s.u.r.0.r.E._.F.0.X.y.y.i.y.+.r.r.r.r.+.r.) Z ^ 0.y.y.r.y.y.r.i.0.r.d.(.'.f.+.0.+.+.0.y.r.y.y.y.y.0.y.y.y.u.y.0.r.r.r.( L   ",
"0.0.r.r.y.r.y.S.I.Z.y.0.r.0.r.r.+.y.y.e.y.r.r.' K ( e.u.y.r.r.e.0.y.r.e.i.J.E.z.0.y.r.r.y.u.y.e.r.e.e.0.y.u.e.e.e.u.u.y.r.) L   ",
"i.i.0.r.j.Z.Z.E.E.Z.r.y.r.r.i.r.r.i.r.+.d.F.D.u...+.r.0.r.y.r.y.r.r.S.Z.Z.i.i.s.e.e.r.r.r._ ) | u.e.e.y.y.e.e.y.e.u...( ` X.+.  ",
"0.r.+.e.Z.(.(.E.R.D.+.r.r.r.r.0.+.r.e.+.k._.].n.n.k.u.e.r.y.e.r.r.0.E.^.R.e.+.0.0.r.y.y.r.P G ( y.e.r.y.e.e.y.y.0.u.| K L +.u.  ",
"y.s.u.y.g.F.J.F.F.D.e.u.0.r.r.s.r.r.i.y.d.oXV.=.2.}.OXf.y.y.0.0.y.r.F.J.S.r.y.y.0.y.0.0.0._ ^  .u.e.y.e.e.u.y.i.+.u. .I I e.u.  ",
"I.J.I.R.j.0.y.0.u.y.+.y.r.r.0.D.J.E.J.I.n.}.#.;.n 4.z oXO.I I ..y.0.y.y.r.r.y.y.r.y._ L ^ e.e.u.y.e.e.e.y.L.L.D.e.y...P I r.u.  ",
"R.I.I.I.l.0.r.r.y.e.r.+.r.y.0.K.J.^.I.]..X-.;.8.8.:.#.~ h.L Z ' r.0.+.e.y.y.i.e.y.y._ K ^ e.y.u.e.e.e.e.0.J.'.U.r.y.| L P O.+.  ",
"I.I.J.I.j.0.r.r.r.e.y.0.y.y.0.J.L.U.j.{.4.6.7.<.<.m $.y  X..) 0.z.l.r.r.y.|  . .X.X.' _  .e.0.e.e.e.s.k.d.g.A.s.' ...._ ' i.g.  ",
"J.I.I.E.k.0.y.y.u.y.r.i.e.e.0.D.L.K.+.1.v 9.c 5.[.5.$.s } i.0.x.E.E.r.0.+.P I P P I X.y.u.y.y.y.e.0.S.^.^.y.y.O.K L ..r.y.L.(.  ",
"I.I.J.R.k.e.y.r.e.r.r.y.0.r.0.U.(.).r.r.D d R i %.v y p |.Y.+.z.J._.i.i.r.I P ^ U P 0.u.e.0.e.y.e.O.A.I.L.O.y.+.I Z  .0.0.G.I.  ",
"E.J.s.f.i.r.r.| ) | y.0.s.F.z.s.i.i.) _ ` Q ,.>.s z @ , @ h.x.k.u.g._ ) ' P ^ U I L X.r.e.y.y.d.S.A.D.R.L.y.u.y.+...y.r.0.J.U.  ",
"E.Z.+.e.r.r.r.^ G ( y.0.l._.E.u.+.+.P I L L { {.z T T D a H.E.f.+.u.I L ^ P P U U P X.r.e.y.O.d.^.^.D.^.L.u.O.+.r.y.i.0.e.D.E.  ",
"R.F.0.y.y.r.r.) L _ 0.y.f.E.L.i.r.r.I U I U T.1.c.#X+XC.f _.(.f.X.u.U L ^ U L U U U +.y.e.u.O.k.I.P.I.(.J.y.e.i.r.y.y.r.i.x.U.  ",
"r.i.0.y. .L U e.u.0.r.r.r.y.r.u.r.0.P U U Y.F @ B.V.@XXXl U.U.f.+.u.) ^ ) y.r.y.y.r.y.e.s.J.L.R.I.L.D.I.L.e.y.y.r.+.l.^.J.I.I.  ",
"+.r.e.y.` Z ^ +.u.r.r.0.0.y.u.r.y.u.P L L N.a.f M.a.C.B.3.k.'.k.y.u.P G ^ y.0.r.+.0.r.O.e.J.L.L./.R.^.L.^.y.e.y.y.r.z.U.J.E.).  ",
"r.u.r.u. .L ) 0.u.r.r.r.r.y.r.0.e.r.I U ^ G.9 [ ] F v..X@.+.L.y.O.O._ ) ' y.r.i.s.d.d.s.s.L.I.J.S.A.J.l.D.y.e.e...O.k.E.U.J.D.  ",
"r.u.r.r.| L U 0.y.0.r.r.r.r.e.u.y.r.L I ' N.> A N.j M.k J $ `.U G U r.i.y.y.0.k.(.E.I.R.L./._.z.e.0.e.0.0.e.e.0.G Z y._.K.y.X.  ",
"r.u.i.r.' L U O.r.0.r.e.r.r.r.r.r.e.L Z ..H.X 9 F { Y o _ ) V U.U L 0.0.r.0.+.j.E.I.E.R.^.I.^.A.0.e.e.y.e.u.y.e.L Z i._.U.y.+.  ",
"` ' ' ` ' '  .r.r.0.r.r.y.r.y...' ...... X,.! 9 A ).G # P 0.l.t...' k.f.Z.j.j.j.s.s.j.u.d.d.k.d.e.u.y.r.e. ._ | y.y.i.i.f.i.r.  ",
"L L L L X.i.y.u.y.e.r.r.u.r.r.U Z U y.u.H.c.} e ..= C 4 # ) t.G.i.y.I.^.^.E._.z.+.r.r.O.0.0.e.e.e.y.y.0.e.^ G  .]._.l...r.r.+.  ",
"I U U P ..r.+.r.r.r.r.r.r.e.u.) L ( y.r.y...W k > 1 0 4 O e g o.0.r.x.E.I.J.L.z.+.i.0.u.i.e.e.y.0.y.y.y.e.U L ' E.G.x.e.y.e.0.  ",
"L _ e.O.r.r.r.r.y.u.0.y.l.Z.L.r.+.+.r.r.y.0.p.T 6 H 0 0 9 S S { K.F.R.I.R.W.J.z.0.r._ U ^ ) U ) ^ ^ ) ) ^ O.O.r.u.r.i.r.0.) (   ",
"L _ y.y.y.r.r.r.0.r.0.X.g.).^.i.r.r.y.y.i.r.2.s a w B M ] m.b.v.).E.E.J.J.L.E.Z.r.y.) G L I P ^ L L P L L i.u.y.0.y.u.u.u.U K   ",
") ..r.y.r.0.r.y.e.y.f.y.f.I.x.y.r.y.r.y.,.-.*.*.v 9 q.q.A W W  X^.I.I.I.E.Z.L.s...+.| _ ) U I ) U I ) _ U y.+.u.+.y.+...X.` _   ",
"r.y.r.r.y.r.y.e.0.u.J.I.g.y.r.0.0.r.0.y.&.b u r t 5 0.!.~.. 2 g.I.J.J.I.L.0.y...K ^ ..y.0.( U ^ ( U ..i.0.y.+.y.r.r.| P U +.r.  ",
"y.y.0.0.r.+.+.r.+.u.J._.j.X.r.r.r.y.+.i.h x #.a p : ; J.^ o 2 Z.^.(.E.E.J.0.u.| G L  .u.y.U P P P G ' y.y.+.r.r.r.r. .L P 0.y.  ",
"r.y.y.y.y.0.r.l.f.x.U.I.j.0.u.r.y.y.0.d.f < t : g e = + . = 2 f.g.j.f.j.f.0.s.0.|  .+.r.r.I P '  . .r.e.y.0.u.y.+.u.| L ( +.y.  ",
"r.e.y.0.r.+.r.I.U.I.E.U.k.r.r.r.r.e.r...Y k @ g i.y.| + * 5 , f.0.0.0.r.0.0.e.y.y.y.y.y.r.I P | y.y.i.r.y.e.y.y.e.u.| L ^ +.u.  ",
"r.r.r.+.y.0.0.J.U.G.U.E.j.y.r.y.r.+.y...q q o N y.r.r.Z - p 5 j.+.r.y.y.0.y.y.0.e.r.r.r.r.L L ` d.e.+.r.r.e.y.e.y.y.X.L P +.e.  ",
"e.u.I.x.F.Z.x.I.I.F.i.s.i.r.r.r.r.y.y.+.= 2 Z N l.+.y.O.: < - g.r.r.r.0.u.y.y.d.R.F.X.P _ +.+.X.r.r.r.e.y.r.r.+.) U  .+.+.r.r.  ",
"r.s.).I.E.U.E.I.U.G.e.0.y.r.0.r.r.r.0.r.U 2 7 = i.e.y.r.V ; * g y.r.y.e.r.0.+.f.E.(.| L U r.y.e.r.y.r.0.+.0.e.+.G G X.i.y.r.y.  ",
"r.i.J.I.K.G.L.F.L.Z.r.r.u.y.r.y.r.u.r.r.Q V 8 L u.y.r.r.V = o X ` r.y.y.y.s.y.Z.F.I.| ^ ) 0.e.i.r.y.r.y.0.u.u.0.P U X.e.y.y.y.  ",
"J.I.E.U.f.e.r.r.r.r.0.r.r.e.r.r.0.y.r.I t.' G.i.0.u.e.r.V q 2 & ( u.y.r.s.R.L.j.r.y.O.0.y.u.r.y.+.0.r.y.r.U.U.F.r.r.y.+.y.u.r.  ",
"J.E.I.E.g.0.r.r.e.r.r.r.r.r.u.r.y.+.+.X.u.(.E.g.e.u.r.r.L 2 o & & r.0.0.u.W.^.Z.0.e.y.r.y.0.+.r.r.r.e.0.+.I.E.F.e.e.u.e.r.r.e.  ",
"I.U.l.Z.s.r.r.y.r.r.r.e.y.e.r.y.j.i.s.j.f.z.F.r.| O.e.y.i.Z % & = 0.s.g.f.I.I.l.0.y.r.e.y.f.f.i.f.s.g.k.f.x.l.z.r.e.i.r.e.i.d.  ",
"J.D.0.r.r.+.e.e.r.r.r.r.i.y.r.J._.).E.I.w w L L C L _ ` 7 4 N & L r.F.(.L.E.R.z.e.y.e.r.i.U.I._.(.U.E.E.I.r.+.+.+.+.r.+.y.U.(.  ",
"U.F.e.r.u.r.y.u.y.e.e.+.r.0.+.G.J.U.K.l.L V Z w 3 3 C U w & o 3 0.r.Z.(.I.E.R.A.e.r.e.0.y.U.J.U.J.L.I.I._.0.i.r.u.r.u.+.+.G.U.  ",
"f.f.r.u.X.^ ' 0.y.y.x.F.l.G.x.k.u.i.x.s.r.) _ _ U U | ) _ X.' u.F.j.f.s.f.s.s.s.r.0.w.r.y.J.E.F.i.k.d.i.i.u.y.y.y.+.f.F.Z.f.u.  ",
"+.y.y.y.` Z I +.r.s.U.(.I.).(.y.+.+.r.0...L L P I I P G _ i.r.Z.`.E.y.o.0.y.0.0.r.0.y.+.r.(.E.z.O.O.O.0.r.O.+.y.r.+.x.(.U.i.X.  ",
"+.r.r.+.' P ^ 0.+.u.U.U.K.D.J.y.r.u.y.y.X.L P U ^ ^ I U ` r.O.j.J.L.i.y.y.y.e.y.i.e.y.r.i.J.J.k.y.i.u.r.y.+.i.r.r.r.z.U.J.s.e.  ",
"U U U I X.+.e.i.r.i.U.I.x.y.u.r.0.u.0.r...L I | 0.u.r.0.+.y.r.y.y.y.e.0.y.r.y.e.r.r.l.R.F.r.y.0.r.r.r.+.y.r.r.i.J.G.k.r.y.0.+.  ",
"U I P Z X.y.y.r.O.i.J.U.l.O.0.i.r.u.r.i.X.I L O.y.y.r.r.i.y.+.y.y.y.y.0.u.r.y.y.e.e.A.'.E.e.y.r.i.e.r.e.r.u.r.i.).).l.+.y.y.i.  ",
"P ^ .._ X.r.r.s.i.z.I.^.j.+.u.X.' X...X.| _ ) +.y.r.r.+.r.r.i...| +.y.y.y.r.0.y.e.r.j.S.l.u.0.r.+. .r.r.+.y.r.i.Z.z.f.r.u.O.X.  ",
"I ` i.r.e.r.r.L.L.U.L.^.d.O.r.( L U I L ) e.u.y.e.e.r.r.e.0.u.` L I 0.y.y.r.y.u.e.e.e.0.e.y.y.X.L K  .u.r.e.e.0.e.O.e.+.e.^ I   ",
"K ) y.r.r.y.e.G.L.U.L.].l.r.i.( I I I K ) y.e.e.e.i.r.y.r.u.u.` L G r.e.y.+.e.r.O.s.r.u.s.e.u.X.Z I ..u.r.e.u.r.y.e.i.y.r.U K   ",
" .O.r.u.u.0.r.G.^.D.d.g.+.` ' U U ( O. .+.r.r.y.e.r.` ` ' ' ) | O...0.r.u.x.l.g.e.r. ._ )  .` ` +.' +.u.e.O.u.r.r.O.e.) '  .X.  ",
"u.y.e.0.u.r.e.L.U.x.e.r.` I I U L U u.u.r.e.y.r.e.0.I L L I K  .y.d.e.e.u.^._.x.+.e.( L I L L ` i.u.y.r.e.0.r.r.r.e. .K ( +.u.  ",
"e.e.u.e.y.y.r.F.L.G.0.r. .U L I I ^ 0.r.r.r.r.y.u.r.) I I U G ..r.y.+.0.f.I.(.j.e.u.` I U L K _ r.y.0.0.y.y.r.u.0.u. .L I +.e.  ",
"y.e.i.r.k.U.U.d.e.r.r.i.' L ( +.y.r.r.0.y.y.r.+.r.e.U L ' r.r.0.e.+.G.I.z._ ^ ( ( ( P L ^ r.y.r.y.r.e.r.y.r.r.O.L ) U P U r.y.  ",
"y.r.u.0.x.).J.r.r.u.y.y.X.L G +.r.y.r.e.r.r.y.+.y.r.) G ) r.r.r.y.r.I.(.D.L L L U L I P I r.r.y.e.r.e.r.r.0.y.+.G L L I P +.e.  ",
"0.+.u.0.l.J.J.i.r.+.+.X.| U ( e.r.y.r.r.r.+.+.y.+.O.' I ' i.y.y.e.y.g.I.g.L I ^ U L U ( _ 0.r.r.e.y.r.r.u.O.+.O._ ^ U U ) r.u.  ",
"L ^ r.+.r.+.r.y.u...P L ..y.u.r.0.r.0.r.y.r.y._ G ^ +.0.f.).J.J._._.P Z I I I U L ^ O.y.y.y.y.y.y.y.0.+.r.U L ) r.y.s.y.r.r.0.  ",
"L ) y.r.y.O.r.r.r...L L _ r.r.y.+.0.0.+.+.+.y.' Z U r.+.y.J.K.U.F.).) L L L L L L P X.y.0.0.+.+.0.r.r.0.y.I L U i.+.r.+.r.+.+.  "
};
