/* XPM */
static char *aade085b444e420c8b9a9f9459332974[] = {
/* columns rows colors chars-per-pixel */
"64 64 180 2 ",
"   c None",
".  c #020202",
"X  c #080707",
"o  c #090A08",
"O  c #150E0F",
"+  c #0F101C",
"@  c #161817",
"#  c #1C1C1B",
"$  c #16181A",
"%  c #271509",
"&  c #201E1E",
"*  c #281A13",
"=  c #1D201F",
"-  c #211F20",
";  c #1F2222",
":  c #232225",
">  c #262828",
",  c #2B2B2B",
"<  c #292729",
"1  c #382C27",
"2  c #32312E",
"3  c #252630",
"4  c #2F3130",
"5  c #343334",
"6  c #3C3934",
"7  c #36353D",
"8  c #3B3B39",
"9  c #462514",
"0  c #43321F",
"q  c #483C2E",
"w  c #463F3C",
"e  c #453B32",
"r  c #653F2C",
"t  c #5E412E",
"y  c #484239",
"u  c #68442A",
"i  c #784728",
"p  c #72432A",
"a  c #63473C",
"s  c #795237",
"d  c #3F4545",
"f  c #3F4050",
"g  c #444444",
"h  c #4B4945",
"j  c #47474C",
"k  c #4B4C4D",
"l  c #4B4648",
"z  c #595243",
"x  c #59554E",
"c  c #4D4E51",
"v  c #4E5153",
"b  c #525355",
"n  c #595651",
"m  c #555659",
"M  c #56595A",
"N  c #5A5B5D",
"B  c #585858",
"V  c #6C4F42",
"C  c #62564C",
"Z  c #735A4A",
"A  c #7F5E48",
"S  c #635D59",
"D  c #5E605F",
"F  c #64625F",
"G  c #6B625E",
"H  c #756559",
"J  c #5D5E61",
"K  c #5E6062",
"L  c #626365",
"P  c #646669",
"I  c #67696B",
"U  c #6A6B6D",
"Y  c #686462",
"T  c #726D66",
"R  c #777568",
"E  c #646571",
"W  c #6D6E71",
"Q  c #6E7073",
"!  c #727375",
"~  c #757679",
"^  c #77797B",
"/  c #7A7B7E",
"(  c #797878",
")  c #8B5A3E",
"_  c #8B6949",
"`  c #986940",
"'  c #946542",
"]  c #8B6750",
"[  c #8F735C",
"{  c #A3744B",
"}  c #A27A58",
"|  c #83776E",
" . c #8B7B6A",
".. c #957760",
"X. c #817D7C",
"o. c #AA845B",
"O. c #9D806D",
"+. c #979468",
"@. c #86837F",
"#. c #928B7B",
"$. c #939272",
"%. c #A3896C",
"&. c #B48968",
"*. c #BF9263",
"=. c #A3A27D",
"-. c #7D7E81",
";. c #7D7E8F",
":. c #807F84",
">. c #7E8183",
",. c #828385",
"<. c #8D8885",
"1. c #848689",
"2. c #86888B",
"3. c #898A8D",
"4. c #918C8C",
"5. c #938883",
"6. c #9C918D",
"7. c #8C8E91",
"8. c #8E9093",
"9. c #929395",
"0. c #999694",
"q. c #959699",
"w. c #97999C",
"e. c #9A9B9D",
"r. c #989896",
"t. c #A89D85",
"y. c #B49D88",
"u. c #A39F96",
"i. c #B7A48D",
"p. c #BAB58A",
"a. c #A8A495",
"s. c #B5AE9A",
"d. c #9C9EA1",
"f. c #9FA0A4",
"g. c #9FA1A3",
"h. c #A2A3A7",
"j. c #A1A2A6",
"k. c #A2A3A5",
"l. c #ACA9A5",
"z. c #A4A5A9",
"x. c #A6A7AB",
"c. c #A5A6A9",
"v. c #A7A8AC",
"b. c #A7A9AC",
"n. c #A9AAAE",
"m. c #AAABAD",
"M. c #B2ACA6",
"N. c #B1B1AF",
"B. c #ABACB0",
"V. c #ADAEB2",
"C. c #ADAEB1",
"Z. c #B0AFB1",
"A. c #AFB0B4",
"S. c #AEB1B3",
"D. c #B1B2B6",
"F. c #B2B3B5",
"G. c #BAB6B6",
"H. c #B6B6BA",
"J. c #B5B6B9",
"K. c #B6B8BB",
"L. c #B9BABC",
"P. c #BBB8B9",
"I. c #C5BBA5",
"U. c #C5BDB7",
"Y. c #C1C1AC",
"T. c #C2C1BD",
"R. c #CBC3B6",
"E. c #D5CAB9",
"W. c #E7E3B9",
"Q. c #BFBFC0",
"!. c #C1C1C3",
"~. c #CBCBCB",
"^. c #D0CBC6",
"/. c #D8D3CD",
"(. c #D4D5D3",
"). c #F0E7C8",
"_. c #F0E8C8",
"`. c #F6F0CB",
"'. c #E4E0D5",
"]. c #E2E2E2",
/* pixels */
"-./ / ~ >.^ ^ / ^ ^ ^ / ^ / ( -.-.~ v c b j c ! / -.j.z.j.h.v.8.! -.M j b b j P >.! ^ -.-.! ,.^ ,.-.N c c / / ! >.( / / ^ b g   ",
",.,.1.,.1.,.,.2.2.,./ ,.>.,.2.,.>.,.J N m m b ! >.3.v.B.B.x.n.w.3.3.L m N m b Q 1.,.1.,.1.-.-.1.,.1.K v m -.2.3.,.2.1.1.,.L m   ",
">.1.,.1.,.,.1.Q P ~ ,.3.1.,.2.! U W m N L / W 9.d.w.9.8.q.9.d.~ U W N m L ! ! -.,.,.,./ 3.d.d.8.-.7./ ! ~ >.,.-.L U I U U ! !   ",
">.1.-.2.,.1.2.J g K -.,.1.,.1.M m J m N W 7.-.j.A.n.1./ ,.-.1.I b b N m L 1.,.,.-.1.1.-.3.z.D.d.-.2.,.1.3.1.,./ m b m b b -.,.  ",
"1.3./ 1.,.,.,.U m W ,.,.1.,.1.L m m N b L 1.,.f.A.B.1.-.2.,.1.I N m K M J 1.-.,.-.-.-.>.7.f.D.w.,.,.1.-.-.,.1.-.m v L M N / /   ",
",./ N L J J J ^ -.,.,.,.1.-.2.L m J ,.,.-.1.>.-.1.1.J N L J N ! 1.-.-.-.1.v.z.z.n.n.z.z.j.3.1.7.,.,.3.,.-.1.1.-.m M ( ^ ,.1.,.  ",
"2.^ m m M M M -.7.,./ -.1.-.3.J c M >.3.1.1.,.-.,.-.N m m m c U 3.,.>.,.7.B.B.B.D.n.n.B.z.,./ 2.1.-.1.,.1.1.1.! m m ! ,.1.,.,.  ",
"-.! M J J J J -.1.-.3.7.1./ / U L U / ,./ >.1.1.1.,.J m M P K ~ 2.,.,.-.3.n.j.z.z.j.B.n.j.1.1.,.,.>.1.,.1./ -.! P M ^ 3.,.1.,.  ",
"b J J M ~ 7.1.,.-.7.B.J.,.b b -.1.,.1.2.-.,.1.-.1.1.L c W 3.1.-.>.1.-.,.>.>.~ q.A.n.v.z.j.1.,.1.,.1.1.1.-.M v K 2.3.1.,.-.1.-.  ",
"b J m b W 1.>.,./ 3.B.J.,.b b ^ ,.,.,.,.>.,.1.2.1.,.L c U ,.,.m.4.5.<.G.1.,.-.q.D.z.B.D.B.-.-.,.1.-./ 1.>.m b P ,.1.,.,.,.2.3.  ",
"W ! ! W -.2.2.9.9.9.q.w.1.P L ,.1.2.1.,.,.,.1.^ U ! Q U ~ 1.l. .O.A [  .R.k.9.w.d.9.q.w.w.>.1.1.3.1.-.1.1.W Q ! ,.,.1.1.,.! W   ",
"1.7.7.2.,.-.,.B.J.j.-.~ 1.1.3.1./ ,.,.,.,./ ,.L j J -.1.1.U.y.] s } s } Z /.L.9.-.-./ / -.1.,.1.1.1.1.-.1.1.1.2.1.-.,.,.,.K b   ",
"-.-.,.,.1.,.1.f.n.d.1.-.,.-.,.,./ 1.1.>.1.,.,.U b L >.2.^.t.%.o.*.{ ` ' u R.J.w.-.1.,.,.,.2.,.>.,.>.>.-.1.2.>.>.>.2.2.1.,.L b   ",
"3.2.-.,.q.d.d.B.B.d.,.1.,.,.3.,.,.3.,./ 8.j.g.2.! / ,.-.9.#..._ &.{ { i ] | e.7.>.>.,.,.,.P P W 2.>.>.1.1.>.>.1.>.2.! K I ~ /   ",
"-.,./ >.d.D.D.B.B.g.-.,.,.,.,.-./ ,.>./ q.J.J.9.1.2.2.>.,.M.q t r &.) p ..S 9.-.-.,.1.1.,.m c K 1.>.,.1.>.>.1.1.-.2.W v b / 2.  ",
"1.7.2.1.9.j.z.j.h.g.>.3.-.,.,.7.,.,.3.1.8.x.j.7./ ,.2.,.1.9.5.H V s r 9 a G m.1.-.1.-.-.-.P J Q 2.>.1.>.>.2.1.3./ 2.Q M m >.2.  ",
"n.z.n.B.q.-.1.-.2.1./ 1.,.,.-.g.z.B.z.n.q./ ,.1.1.-.,.1.~ l.| E.i.9 Z * % U.G.e.,.1.P b J >.>.2.1.>.>.>.1.v.x.g.>.1.! m M ,.2.  ",
"B.n.n.n.w.-.,.,.1.>.,./ ,.1.-.k.z.A.n.D.d.-.,.1.3.,.1.7./ L a.I.i.0 C z T x F m.1.1.P v J >.1.2.>.>.>.>.-.z.K.m.,.1.W b m ^ /   ",
"n.n.z.n.q.-.,.,.,.>.1.-.1.1.-.z.m.n.q.d.9.-.,.~ U ! ~ ! ! ! '.e q I._.). .S T.Q ~ ~ U P Q >.-.>.>.>.7.q.8.9.d.7.U ! ! P U 3.q.  ",
"z.n.n.B.9.-.1.1.2.1.,.3.>.>.-.g.x.z./ / ,./ ,.U c M M k L T.u.y z t.p.`.s.Y G.m m M ~ 1.2.1.1.1.>.-.f.A.A.1.1.^ v b ! ,.1.x.D.  ",
"n.n.z.B.q.>.1.,.>.,.,.1.-.,.-.m.D.D.,.,.1.1.3.Q N M m b L l.S 6 R.H +.W.R 0.D.J N m -.2.>.-.>.1.>.^ d.n.v.^ 1./ M j Q -.-.k.n.  ",
"B.z.7.9.3.,.,.W L W 1.-.7.j.w.7.3.3.L P L L P N c J ! ! ,.N.h n @.6 $.=.E.Y !.N M b ~ ,.>.1.1.8.f.d.g.B.v.1.2.1./ ! 1.,.-.z.m.  ",
"B.d./ >.,.,.,.J c K 1.-.w.J.B.2.-./ m M b b M N b I 2.-.3.(.Q 2 ( g a.Y.x B (.N N m ~ ,.>.1.^ 8.A.A.g.A.v.2.^ / ,.1.3.-.>.g.B.  ",
"B.j.-.1.1.,.,.P b P -.1.9.B.v.3.,.,.M N M M N N N J >.1.7.].@.N n - X : P m ].N N N / 1.>.2.^ q.n.x.n.D.z.1.>.3.,.1.1.,.3.e.m.  ",
",.3.-.1.Q b N >.2.-.,.,.,.1.,.2.,.-.m N N N N ! 2.,.m.m.m.~.U & X.j.j f ;.7 K.1.1.,.1.>.7.z.v.B.n.n.g.n.v.>.1.1.,./ w.A.z.n.n.  ",
"/ ,.>.1.I j J / 2.,.,.-.-.1.2.,.1.2.m b b m b ^ 2.>.j.z.m.J.F k 3.P : ~ E + K.,.^ -.,.^ >.c.v.v.S.B.A.v.A.1.>.1.1.,.w.m.z.B.F.  ",
",.2.,.2.Q b L -.2.,.,.,.,.1.,.-.>.,.M N J U P ( ,.1.x.B.F.N.2 < . j 5 g / k ~.3.7.7.8.7.7.v.n.c.f.d.z.w.g.1.>.>.! ^ q.B.m.z.g.  ",
",.2.,.,.W b N -.1.-.,.,.,.,.>.2.1.,.b M U 2.,.3.,.1.B.B.7.<.F 5 5 , : 8 9.D J.q.D.B.n.B.v.S.J.e.>.-.>.-.-.>.>.-.c k 1.J.k.1.~   ",
",.2.3.,.U m N ^ ,.-.,.>.,.,.,.,.,.>.b k P 1.-.,.! -.m.K.w.P ( # b . ~ m k M x.q.B.n.B.B.A.n.A.d.-.>.>.1.>.2.1.>.b k 3.J.m.1./   ",
"I U U I U U Q ,.,.-.,.,.1.,.1.! U ! ! ! ~ 1.-.q.d.q.,./ / U Q.5 7 3 P -.g N Z.q.7.7.q.2.8.8.q.8.>.2.1.,.>.Q P W 1.1.3.3.9.3.,.  ",
"b b b b ~ 3.1.2.1.>.,.,.2.,.,.N j N 1.2.,.,.-.e.L.k.N g L 1.k.5 $ E N M n T L.w./ ,.,.^ -.-.>.>.>.1.1.-.>.J c Q L.J.w.! ,.,./   ",
"M N N m ! ,./ ,.,.,.,.,.,.>.2.L m K 1.,.,.1.,.3.D.k.I m P 1.k.8 & 4.G.^.h U.v.w./ 3.-.2.3.>.>.1.-.1.1.1.>.N b U B.k.e.>.1.>.-.  ",
"m P >.^ ,.,.,.,.1.2.-.1.w.d.x.,./ / ,.,.1.-.1.( L P ^ ~ ,.1.e.8 h H 6.% X.L.z.w./ ,.P N J L N L J J L L J ^ ^ ,.2.,.3.,.-.L K   ",
"b P 1.1.1.,.,.,.-.,.-.~ 9.F.A.3.,.,.1.1.1.,.3.L k N ,.1.1.,.w.Y 1 H H e / !.B.d.,.1.P c b M m J b b m b b 3.2.1.-.1.2.2.2.N v   ",
"L ! ,.1.,.-.,.1.>.1.9.1.9.n.e.1.,.1.,.,.-.-.1.I v L 1.,.,.,.m.0.* 1 C 1 < /.x.7.! / W P L N M L N M L P N 1./ 2./ 1./ ! ~ I P   ",
",.1.,.,.1.,.1.>.-.2.z.n.9.1.,.-.-.,.-.,.>.>.1.! m P ,.-.2.1.m.4.. O w w h ! w.! v J ! 1.-.K N J K N ! 3.-.1./ 1.,.,.W m N / ,.  ",
"1.1.-.-.,./ / ,.-.2.z.J.q.~ ,.,.,.1./ 1.1.,.1.U j M / >.,.-.3.k , < k g 8 M d.W c b Q 2.1.N m m m c U 1.1./ ,.,.,.,.Q m m -.1.  ",
",.1.1.1.1.-.,.w.9.e.m.n.q.-.2.,.1.1.-.1.-.W U ~ U ( 1.,.3.q.m.m.# $ d K v N j.-.W Q / ,.,.M m U Q Q ,.>.1.-.2.1./ 2.W m K / 1.  ",
",.>.1.-.,./ ,.n.m.n.B.m.q.,.,.,.,.>.,.,.! b b ( 1.1.,./ 9.D.D.1.@ @ = ; > M d.,.1.1.1.1.,.M m W 1.1.3.,.1.>.1.1.>.2.W b J / 2.  ",
",.,.,./ 1.-.-.z.m.k.m.B.q.1.,.1.,./ 1.1.W c b ! 1.,.,./ 8.B.!.9.X : k m h q.j.-.>.,.,.,.,.b b I 8.>./ ,.,.>.1.>.1.1.( b m / >.  ",
",.2.n.e.j.d.d.n.n.j.3.7.3.,.,.,.,.1.1.>.>.,./ ,.,./ 1.>.,.3.x.Q 4 # x 5 g N w.8.B.j.~ m P / / ~ ,.,.,.>.1.,.,./ L N Q / / ,.,.  ",
",.7.F.n.B.m.B.n.B.j.>.-.1.,.-.,.,.,.-.,.>./ ,.>.>.>.1.,.,.1./ 5 # o 2 8 # r.9.9.B.D.W b N ,.1.>.,.1.,.-.-.-.>./ c c ~ 3.1.,.1.  ",
",.7.z.n.k.j.x.j.x.d.,.,.2.1.,.1.,.2.1.,.2.1.2.3.,.1.,.,.,.1.,.,.K k h B g F.1.d.h.n.W J L -.>.3.,.1.,.1.-.3.2.-.m N ( >.1.1.1.  ",
"z.n.B.m.9.>.,.,.,.,.-.,.,.>.,.,.-.1.,.-.q.B.k.3.-.2.>.,.,.,.>.,.,.W U K / B.x.q.,.1.^ -.1.2.,.1./ -.,.1.,.m.m.j.,.,.1./ 1.2.,.  ",
"z.B.n.B.9.-.,.,.>.,.,.,.,.,.2.,.1./ / ^ 3.D.B.9.>.2.,.,.1.,.1.,.,.,.-.-.2.V.A.d.-.>.1.,.1.-./ ,.,.,.>.-./ n.B.j.>.>.2.>.,.,.>.  ",
"n.m.w.e.7.,.,.1.,.,.,.>.1.>.,.1.q.3.7.q.9.w.j.,.W ^ >.1.>.! ( / ,.-.7.q.9.n.n.w.-.1.,.>.1.9.9.3.9.7.9.q.9.e.w.w.,.>.3.,.>.3.8.  ",
"x.g.-.,.,./ >.>.,.,.,.,.3.1.,.z.J.F.B.F.w./ ,.L c J -.1.( m k ! 1.,.j.D.v.B.B.w.>.1.>.,.3.m.n.J.D.m.B.B.n.,./ / / / ,./ 1.m.D.  ",
"m.j.>.,.2.,.1.2.1.>.>./ ,.-./ j.z.m.k.m.j.>.1.U b N ,.3./ N b U 2.,.d.D.n.B.B.d.>.,.>.-.1.m.z.m.z.m.n.n.J.-.3.,.2.,.2./ / j.m.  ",
"9.9.,.2.( J U -.1.1.e.j.w.j.e.q.3.3.e.7.,.L P P N N W L I / ! 7.j.q.9.7.9.7.7.7.,.-.:.,.2.z.B.j.3.q.8.3.3.2.1.1.1.-.9.j.d.9.2.  ",
"-.1.1.1.P j M / ,.7.m.D.n.F.F.2./ / ,.-.! b m m M M m c P 3.,.d.K.B.1.^ -.1.-.-.,.-.1./ ,.D.B.w.^ ^ ^ -.,.^ / 1.,./ e.D.m.3.~   ",
"-.,.,./ U m J -./ 2.m.m.k.g.z.1.,.2.1.1.~ b m N J J M N I ,.^ q.z.v.3.1.1.1.-.,.3.>.1.,.3.z.z.q.1.3.2.,.1./ 3.,.,.,.w.m.z.7.>.  ",
"J J N M ~ / >.3.,.3.m.n.e.1.3.,.-.2.-.,.! b M W -.2.,.-./ 1.,.1.1.1.>.-.1.,.1.-.,.,.w.B.j.,.1.-.,.,.,./ 1.,.,.3.z.k.q.,.1.-./   ",
"N M m k ! 1.1.,.^ 3.x.m.w.^ -.3.,.2.,.3.~ M b ^ 1.1.,.,.3.1./ 1.1.2.1.-.2.,.1.1.>.>.d.L.B.>.1.,.3.>.,.>.,.2.,.3.F.F.w./ 1.1.3.  ",
"m J ! P ~ ,.,.7.3.w.n.A.q./ 2.~ U ~ ! ~ U P L / 1.,.,./ ,.,.3.! W / 1.1.1.,.-.1.>.,.q.f.w.2.-.,./ Q ,.,./ 1.,.3.d.w.9.,.2.^ ~   ",
"M I 3.,.>.,.,.x.v.m.v.A.8.^ ,.K b N M b L >.2.1.>.>.,.,.>.-.2.I b M -.1.1.,.1.2.>.>.>.-.>.1.1.~ b v Q 2.,.>.>.-.>.^ >./ >.J M   ",
"v L 1.1.1.1.>.k.v.m.x.L.w.,.3.K M M M v L 1.>.>.>.3.,.1.,.2.2.I b c ,.>.1./ >.,.^ 7.,.2.7.>.2.~ k M ! 2.,.>.2.,.1.>.3.1.,.N v   ",
"Q ^ ,.2.2.-.,.k.A.g.8.9./ I U N N K ^ Q / ,.,.1.>.,.I I U U L W ^ ! -.,.2.e.w.9.>.,.Q P L Q I I / U / 2.>.^ 2.,.,.^ >.L U Q ~   ",
"2.1.>.-.2.,.>.x.m.e.>.,.I M M N b N 2.2.,.>.1.,.>.-.M b b M v Q 1.8.>.>.2.A.J.e./ >.K b M b b I 3.2.1.,.>.-.,.,.,.>.Q v K / 2.  ",
">.-.2.>.1.1.,.j.x.k.-.,.Q N m M M J -.,.,.,.,.1.2.,.L M M N c ! ,.1./ -.9.n.D.q.>.2.I M N b v P ,.,.-.-.1.1.,.2.-.2.Q b M / >.  ",
"1.-.3.,.q.m.m.8.>.,.,.3.U b K / 1.,.,.-.1.1.,./ ,.>.N b U ,.,.-.>./ k.n.w.L J K K K m b J ,.1.,.1.,.>.,.1.,.,.^ b L N m N ,.1.  ",
"1.,.2.-.e.F.z.,.,.2.1.1.( b c / ,.1.,.>.,.,.1./ 1.,.L c L ,.,.,.1.,.n.D.g.b m b N b M m M ,.,.1.>.,.>.,.,.-.1./ c b m M m / >.  ",
"-./ 2.-.w.z.z.3.,./ / ( W N K >.,.1.,.,.,./ / 1./ ^ U M U 3.1.1.>.1.9.n.9.b M J N b N K P -.,.,.>.1.,.,.2.^ / ^ P J N N L ,.2.  ",
"b J ,./ ,./ ,.1.2.! m m ! 1.2.,.-.,.-.,.1.,.1.P c J / -.9.F.z.z.J.J.m j M M N N m J ^ 1.1.1.1.1.1.1.-./ ,.N b L ,.1.7.1.,.,.-.  ",
"b L 1.,.1.^ ,.,.,.! m b P ,.,.1./ -.-./ / / 1.U j N ,./ 1.z.k.m.j.F.L b m m b m b m ~ 1.-.-./ / -.,.,.-.1.M b N 3./ ,./ ,./ /   "
};
