/* XPM */
static char *a026abdd9fcc431eb7ca2f5a1bc1935b[] = {
/* columns rows colors chars-per-pixel */
"64 64 216 2 ",
"   c #030101",
".  c #0B0200",
"X  c #010901",
"o  c #0B0903",
"O  c #070B0C",
"+  c #0B0B0A",
"@  c #130100",
"#  c #1A0000",
"$  c #120C02",
"%  c #1A0D04",
"&  c #081106",
"*  c #191613",
"=  c #210D0A",
"-  c #221A1A",
";  c #2A1C1C",
":  c #2B2928",
">  c #302E2D",
",  c #343333",
"<  c #3B3636",
"1  c #402D31",
"2  c #473C3A",
"3  c #443B3C",
"4  c #523E3D",
"5  c #613623",
"6  c #47423D",
"7  c #5A4D3D",
"8  c #754528",
"9  c #6E4730",
"0  c #664C35",
"q  c #69523B",
"w  c #74543A",
"e  c #4B4947",
"r  c #534943",
"t  c #595448",
"y  c #4E4F51",
"u  c #4F5052",
"i  c #535456",
"p  c #565659",
"a  c #58575C",
"s  c #57585A",
"d  c #5A5B5D",
"f  c #645543",
"g  c #6D504C",
"h  c #785C59",
"j  c #586053",
"k  c #676A58",
"l  c #766759",
"z  c #7D775E",
"x  c #5D5E61",
"c  c #605F64",
"v  c #745E60",
"b  c #5F6062",
"n  c #626264",
"m  c #6D6D61",
"M  c #666669",
"N  c #67686A",
"B  c #6A6B6D",
"V  c #7C6363",
"C  c #716D66",
"Z  c #7A6C68",
"A  c #7A7767",
"S  c #75736C",
"D  c #7C756C",
"F  c #6E6E71",
"G  c #706F73",
"H  c #6F7072",
"J  c #727375",
"K  c #7D7973",
"L  c #767679",
"P  c #77787A",
"I  c #7A7B7D",
"U  c #876C56",
"Y  c #8D745E",
"T  c #927154",
"R  c #876B65",
"E  c #916F63",
"W  c #897668",
"Q  c #9C7E66",
"!  c #827B72",
"~  c #827E7A",
"^  c #7A8C6D",
"/  c #848373",
"(  c #8C8C72",
")  c #888479",
"_  c #978A7A",
"`  c #B19072",
"'  c #B99379",
"]  c #CB946C",
"[  c #D4966F",
"{  c #C79976",
"}  c #D39A75",
"|  c #D6A177",
" . c #7E7E81",
".. c #807F84",
"X. c #7F8082",
"o. c #828385",
"O. c #8B8682",
"+. c #8C8A83",
"@. c #858689",
"#. c #88878C",
"$. c #87888A",
"%. c #8A8A8C",
"&. c #948E84",
"*. c #8D9289",
"=. c #989487",
"-. c #95928A",
";. c #9A948B",
":. c #8E8E91",
">. c #8F9092",
",. c #929395",
"<. c #9D9894",
"1. c #969699",
"2. c #97989A",
"3. c #9A9A9C",
"4. c #A79988",
"5. c #B99B89",
"6. c #A39C95",
"7. c #B6A694",
"8. c #B6A599",
"9. c #BBAC9E",
"0. c #9E9EA1",
"q. c #A09FA4",
"w. c #9FA0A2",
"e. c #A2A3A5",
"r. c #A6A6A9",
"t. c #A8A7AC",
"y. c #A7A8AA",
"u. c #AAABAD",
"i. c #B6ADA4",
"p. c #BCAEA1",
"a. c #B8B4A6",
"s. c #BCB5A5",
"d. c #B5B3AA",
"f. c #BCB5AB",
"g. c #BFB9AE",
"h. c #ADAEB1",
"j. c #B0AFB4",
"k. c #AFB0B2",
"l. c #B2B3B4",
"z. c #B9B9B6",
"x. c #B5B6B9",
"c. c #C69C85",
"v. c #C3A184",
"b. c #C9A487",
"n. c #D2A68F",
"m. c #C3B4A3",
"M. c #C5B7A7",
"N. c #C2B8A6",
"B. c #CAB9A5",
"V. c #C5BAAC",
"C. c #CBBDAC",
"Z. c #C4BCB2",
"A. c #CABEB2",
"S. c #C4BCB9",
"D. c #EDBAA2",
"F. c #BEC0BB",
"G. c #CCC2AF",
"H. c #CBC2B3",
"J. c #C3C2BA",
"K. c #C7C3BA",
"L. c #CBC4BA",
"P. c #D2C5B4",
"I. c #D6C9B7",
"U. c #DACAB5",
"Y. c #D5C6BC",
"T. c #D4CBBD",
"R. c #DBCDBC",
"E. c #CBDABA",
"W. c #DBD2BD",
"Q. c #ECCBAC",
"!. c #F8C6AC",
"~. c #F2D1AE",
"^. c #EACDB9",
"/. c #F3CAB5",
"(. c #FDCCB4",
"). c #F8CCB9",
"_. c #E9D4BB",
"`. c #FAD4B8",
"'. c #FED5BB",
"]. c #FFE0BA",
"[. c #C7CBC9",
"{. c #D0C7C0",
"}. c #D4CCC2",
"|. c #DDCEC1",
" X c #CBDAC8",
".X c #D7D2C4",
"XX c #DCD3C4",
"oX c #DBD3C9",
"OX c #D6D8C9",
"+X c #D7DCD4",
"@X c #E2D4C5",
"#X c #E2D5CB",
"$X c #E7D9CA",
"%X c #F2D1C0",
"&X c #FED5C1",
"*X c #E9DAD3",
"=X c #CDE2C1",
"-X c #D8E5C7",
";X c #D8E7D6",
":X c #E6E6CD",
">X c #E6E4DC",
",X c #F2E5D4",
"<X c #F6EBDC",
"1X c #FBEDDC",
"2X c #E7F8D6",
"3X c #FEF1DE",
"4X c #F5ECE3",
"5X c #FCEFE8",
"6X c #ECF2ED",
"7X c #FDF2E3",
"8X c #FFFAE6",
"9X c #F3F3E9",
"0X c #FDF4EA",
"qX c #FFFBE9",
"wX c #F4F9F3",
"eX c #FFFDF3",
/* pixels */
"i d d i d i d u.u.h. . . .i d x d d d d i d i p  .o.o.p p x d d s p d ,.x.l.J s p d i n o.o.o.o.o.L p d d d d s d M r.h.h. ...o.",
"d n d d b p p r.y.k.I  . .i d d p p d d i d d d o.X.$.d d d p p p p i %.h.l.B i d d s d o.o.@.o.o.J p p d p i d p x r.u.u.o.@.@.",
"i J @.o.n d d 3.2.,.o.o.o.i d d p d H X.I n i i P J I i i n I J I I J :.0.0.B p d d d d @. .o.I L H p d N J H x s d ,.0.,.o.o. .",
"i ,.h.x.F s i o.I I o.o.o.i p b p i %.l.x.F p d i i i d p H x.l.h.u.k.1.I o.n s p x s d o.@.I i i d p d %.x.u.F s p s i x o.o. .",
"i %.h.k.B i p $.o.o.o.o. .d d d i p ,.h.u.B u s d x d d i B h.h.u.u.u.1.X.o.n d d x d x o.%.I i d d i i :.l.h.B d d d p n @.#.I ",
"i o.,.>.n d d o.o.o.B N B i i J :.$.:.>.2.I J J d d d d s n @. .@.,.,.%.X.@.n d s s p d B F B d i B $.o.,.,.1.B d p d i d J J B ",
"i J o.o.M s s 1.o.X.s i d d p X.l.z.1.I o. .o.$.n d p d d s p i M o.X.o.o.@.n d s d d p d i p d s o.l.u.2.X. .n p p d d d d a d ",
"d J @.X.n i s o.o.o.d S K <.;.&.<.6.6.-.-.C ! K C ~ O.s p d x d B $.o.@. . .M d i d u d i d d p i o.x.l.3.o.o.n d d d d p i i x ",
"d n n n x d i n b M i K D ;.&.;.&.) _ ;.;.! D D ) ~ F x I x p d d N n  .@.o.N i d :.2.,.d d b d x N I J H N B x d d x d M ,.:.#.",
"d d p p d d d         0X4XoXoXoX}.oXoXoXT.oX{.    p d d i x p d i d p J o.o.n p d u.y.u.p p d d i d i p p p s s s d d p B j.h.q.",
"i b d d n u.n         0X7XR.A..XT..XL.T.}.T.}.  $ d d d d x i d d d d J @.$.B i d r.h.y.p d p b d p i i p p p d s d d p M h.l.2.",
"d n s i 3.*   }.{.0X<XT.I.@X@XV.s.s.H.#XL.=   4X4X    r.e.e.e.e.@.d i x n d d d d @.@.%.i x B 0.3.r.0.e.,.I X.n d d d s n :.,.%.",
"d p s i 0.  . }.oX<X7XR.@XP.I.N.V.V.s.H.T.. . 0X4X.   l.r.h.y.u.>.i d n p d d i d I X. .s d B l.u.u.r.l.2.I @.n s d d s x o.o.o.",
"d B B o   L..X7X7X1X<XR.R.m.B.C.s.V.N.C.V.@X|.4XeX4X9X.   u.h.u.,.i p d s i n d n L o. .d d F k.y.k.u.u.1.X.@.n i s d p x o.@.@.",
"i %.k.  . L..X<X7X7X1XW.U.m.C.m.G.V.N.C.9.I.I.7X4X5X9X     .X. .I i d d d d 1.u.y.:.X.@.p d d $.o.X.o.o.o.o.X.n i d d d d d d x ",
"i :.u.    }..X7X1X1X7X1X1X_.U.m.H.9.N.XXXX8XqX7X7X4XeXD ~ o. .X.P p d x i u 3.u.y.@.@.o.i d n %.@.@.o.X.o.@.@.n i b p d d d p d ",
"L %.e.    *XL.0X1X7X3X3X1XW.G.m.G.m.P.I.I.1X,X7X<X7X7XD O.u.I o.J p i n B N ,.u.y.%.I o.i p n o.L o.$.o.@.I  .N s u M x d d d d ",
"h.    z.K.H.#XI.R.1X1X7X7X1X8X<X7X3X1XV.M.7X8X1X8XT.}.oXL.) K i p p d :.l.h.,.I I @.o.o.d d p d p N o.I H i s p d n u.h.u.d n d ",
"u.    S.{.Y.T.@X@X1X1X7X1X1X7X8X1X3X1XV.H.1X1X7X<XXXoXoX{.! C i d s i %.l.u.,.o.o.@.@.@.p p d i s B $.@.F i d i p s 0.h.u.i i d ",
"%.o   f.i.! W |.P.R.|.1X7X7X1X1X<X7XqX1X1XP.m.P.$XI.H.H.g.A O.x x d d I 2.,.%.o.@.L L J d p n d d N I  .F d p F J L 3.0.3.J G L ",
"i     Z.L.Z W @XP.@XXX<X7X0X7X7X7X1X1X7X7Xm.B.R.R.R.XXV.f.! S d d p s d u i L o.o.d p p d d d d d d i i p d d 1.l.u.@.I $.h.j.r.",
"d *.-.o . 7.5.E W A.f.K.A.}.|.R.U.R.U.R.I.B.m.B.B.m.H.a.K.    p x p p d s i I X.@.d p s d d d d p d d d d i s 1.u.k.@.o.o.h.h.e.",
"d *.&.. @ 5.c.E R V.J.a.f.#XR.U._.R.R.oXT.C.C.B.B.m.C.f.g.o   p d d d x d d I @.%.n d d d s d b s d d d d d d $.3.3.@.o.@.3.1.,.",
"i ;._ . @ ' c.&X).W l H.T.9.C.C.s.&.=.g.a./ l m.M.C.A.V.f..   d p p d d d d P o.o.d p d s d s d d x i d d d p L o.X.o. .$.o.o...",
"d =.4.@ # c.{ /.&XY z V.H.9.Y.V.d.<.-.z.d.) / V.B.m.m.A.A.    d p d x d p d L @.o.n d p p d p d d b p d p s d I  .o.$. .@.o.@. .",
"s _ _ @ # (.(.'.)._.:XA D A.8.-.-.z.l.[.F.S S f.A.V.M.V.Z.  o d B ,.,.L i p n M N s p p d d n ,.:.X.i d L %.%.o.o.o.o.o.o.B B B ",
"d -.4.. # (.(.!.&X$XXX/ K Z.}.-.+.J.J.z.x.K S Z.N.9.V.V.f.$   d L l.l.@.p d b i i d d d d s B x.l.1.y p %.x.l.:.o.X.o. .@.a d d ",
"i 2.n f 0 &X).&X%X7 t 9XwX-.O.&.=.Z.d.K ) d.L.Z.H.H.i.D &.>Xp i J h.u.@.i i n d d d p i i i B h.u.3.i d $.k.u.>.o.o.%.@.o.a d p ",
"i o.y.t q /.'.).^.7 t 9XwX,.6._ 4.m.H.! S J.f.Z.f.Z.Z.D C e.i d B %.%.@.I I o. .I n d n r.r.2.$.%.I p s b B N I @.o.n d n x x x ",
"i $.h.7 0 &X).&X/.. . 9XeX&._ 5.v.Y l ( A V.Z.V.f.H.Z.    r.p p M o. .@.o.o.o.o.o.x i s u.u.u. .X.I i i d d p J o.o.n d p d x x ",
"d I >Xf w D.'.(./.# @ 3XqX_ ' { { T _ U W A.f.Z.f.g.J.  + k.y p M @.o.%. .o.o.o.@.n d n u.h.e.X.o.I d d n p d L %.@.x p x p p i ",
"d 0XqX5.c.'.!.(.'.Q._._.Q.b.{ [ | { ` Q W p.A.A.Z.o   X.X.o.i d d d i J @.o.o.o.@.x p i d i n $.o.@.o.@.J i d d d d x d a c n J ",
"5XL.8X` b.'.(.D.(.Q.~.].`.] [ ] ] { v.Y Y C.Z.f.K.    o.o.$.y s d d i J @.o.o.o.o.n d d p d d @. .o.@.o.J i d s d i d i d a i B ",
"a F 8X8X8X5 9 n.c.`.`.` { } [ } ] ' v.5.9..   o   e.e.z.o.o.x n x d d J  .I o.X. .n p d d d b %.o.$.I I J d d d N n M n n M c e.",
"I :.x.7X7Xh g 5.5.^.^.v.{ } } } { n.5.4.7.  +   o OXo.o.@.o.@.@.L d d d i i s i p d d p d p d %.o.I i s d p i 2.h.l.h.k.l.j.x.r.",
"i  .y.k.J i s @ @ . @ 0 w 8 8 8 9 U W @   i d p o.%.o.$.@.,.$.o.J i x x d x d d p d i p d d d $.@. .i d d d s 2.h.l.u.u.y.h.t.r.",
"@.,.3.0.H p p . .   . f q 0 w 0 q W W     M d a F J H o.X.X.I P B d d d s d s p i J P I i d d J P F p d d p p @.,.1.e.r.e.0.e.e.",
"h.1. .o.N p i u.k.t r / _ z / k k k m     L i d d p s @.o.o.y p i d d d d p n s s e.l.h.d d p d p d d p x d d i i i I  . .o.I  .",
"l.1.o.@.B i i u.y.t t / A ^ ^ k p j k   X N a a d p d @.o.o.p s x d p d i p x p i e.u.l.s i x x p x d s d i p s d p o.@.@.@.o.@.",
",.I n M n d i 3 2 ! )   & E.=X;X;XX &  X+X    >.x d p H N B p i d i p J %.@.@.$.@.1.,.,.d d d s s d s p J @.@.n d i J F F @...@.",
"o.F i s d p i 3 r ! =.    2XE. X X  X  X;XX   [.n d p d i d d s x i p o.l.k.l.l.l.@. .o.s p d d d x d i $.l.h.L s p d p i o.o.@.",
"@.J s d n d s < 3     E.-XE.-X-X;XX   ;X X    h.M p x p d n d i d s p X.u.r.u.r.u.@.@.o.x p x d p d p i @.u.h.J i d p d d #.@.o.",
"@.J s i J  .I 3 6 . o :X-XE.E.E.;X    ;X;X  X %.+X3.2.d p d d d F 2.2.1.:.:.,.,.,.o.o.X.P I J d d n d d I ,.,. .J J x d d B B F ",
"o.J s p 6Xe ,     }.oX.XE.:X-X            >X+X  * x.l.d p d p p J l.u.2.I $.I o. .@.o.o.o.@.o.p s d d i F o. .o.@.o.n p d a p c ",
"o.J p d L < 3   . #X$X$XXXOXOX  .   . . . +XOX    h.u.d d d d i P l.y.3. .o.o.o.o.@.o.@. .o.X.d p x d i J @.@.o.$.X.n i d a d c ",
"d d d     - - . . *X@X8.9.  . l V l Z 4 4 .           e.y.w.p p d M n I X.@.o.o.o.o.o.o.M b M s d d d d x n x x x n x s d x d x ",
"d d d     o * . . *X$Xm.4.$ . V R V V 4 4 . .       X l.y.u.y d p d p B $.o.o.o.o.o.X.o.d i d d d n i d d d d i d p d p x x d d ",
"i d d     : : - ; . . . % . @ @ # @ # h v g r ; * : >     y.i d d d p N @.o.o.o. .$.o.o.d d d s i d x n d i p d d y n s d d d c ",
"d d p     o * - ; . @ . .   . @ @ = @ V Z 1 2 - ; : >     o.u d i d d n d i x p p I o.@.p d p d s L y.u.$.s d d p d w.y.r.u.r.r.",
"i d d p d   +     i u.u.y. . .,.u.u.@.. . 3 < > , < <     @.i d i x p n p p n s i o.o.@.i d p d i J x.y.%.i p d p p e.u.u.h.u.r.",
"d B  .o.M O   o   L 0.e.3.o.o.$.3.0.I     < : < > , ,     L x p x J H N n n d s d L X.X.d i d B M I u.u.o.d d d p d 2.u.y.t.r.e.",
"d o.k.l.I i p e.h.h.o.I  .o.o.I i i b d p   O         i i d s s J k.l.0.o.o.F d i d p p d d n x.h.e. . .@.o.o.M d i  .o.X.o. .@.",
"y %.u.k.L d p e.u.u. .@.@.o.@.I i p x i d O   o       d d d d p F l.u.3.I @.M p d x d s p p n l.u.r.I %.@.o.%.M i i I I o.@.o.o.",
"%.$.,.0.H d i ,.2.,.@.o.o.o.@.I d d F @.@.N d d x d d d d x p d B r.3.1. .$.B d d d d d L I I 3.e.0.I @.I I I N d d o.o.$.I I I ",
"l.3.I @.B i i o. . .o.I @.$.o.I i i o.x.x.L p d x s d d s d d p x o.o.o.o.o.N d p d d d u.l.y.o.I o.X.@.B i i d p p I o.@.d i d ",
"y.,.o.o.H d d I o.o.o.o.@.I @. .i s o.h.h.P d p d p d d d d d d M o.@.o.o.o.B p p x s d u.u.l.I @.@.@.@.J i d i d p I o.o.d d d ",
",.o.M n M p d N N B @.o.@.@.o. .i d I 1.,.X.J J %.:.,.d d n i d x F B I @.o.B d d d d d $.o.$.B J L $.@.J d d N J F o.o.$.d d d ",
"o.B i i d d d d i i @.o.o.@.o.I p i F o.o.@.o.@.r.h.k.d d d d s i d i B @.@.B i p d p d d p d p i n o.@.J i p I $.o.@.o.@.d d s ",
"o.J d d d d d d n p o.o.o.o.o.L p p J o.X.@. .o.e.h.u.x d d d d d d p F @.o.B d d x d d i p d d i N o.@.J i p J o.@.@.o.$.d d i ",
"o.I I I N d d d i d o.o.o.n n n d p x x d I o.o.%.%.%.2.3.2.i p d d s n M n n d p d d d ,.1.,.p d x M M n p d n M N N M N d i n ",
"@.@.@.$.B d d d d d o.o.o.i p d d p b d i L o.o.@.o.o.h.u.y.u d x p i d d d d d p x d d u.u.u.p d x d p d p d d p d d d d d i N ",
"o.) I o.N d d d d d  .o. .p s d x p n n x I o.o.o.X. .u.u.r.d d b p d x p d x d i n d d r.u.u.i p d d p x d d d i d d d p d i N ",
"$.I d d d d d d i d d x d d p d p p I e.e.%. .o.$.o.X.%.@.$.e.0.1.u d d s d d d i 1.e.e.@.$.$.p p d d d d d d d d d d d d 3.2.e.",
"o.B i p d d d d d d d d d d i x i i @.x.h.,. .I o.o. .X.I %.h.l.w.i p x p d n d y 0.h.u.@. .@.p d d p d d d d d p d d d d u.u.u."
};
