/* XPM */
static char *_c90bfeca6204b408d7ecbae61a6da44[] = {
/* columns rows colors chars-per-pixel */
"64 64 218 2 ",
"   c #030100",
".  c #0B0100",
"X  c #030A01",
"o  c #0B0902",
"O  c #09070A",
"+  c #0C0C0D",
"@  c #0D0F0E",
"#  c #140100",
"$  c #1B0200",
"%  c #150B09",
"&  c #111209",
"*  c #140E14",
"=  c #1C1B1A",
"-  c #251C1F",
";  c #22211F",
":  c #2D2D29",
">  c #342C2D",
",  c #313129",
"<  c #362E32",
"1  c #383635",
"2  c #3A3A34",
"3  c #443939",
"4  c #6B3C28",
"5  c #46433D",
"6  c #52463C",
"7  c #70482D",
"8  c #644536",
"9  c #6A503E",
"0  c #755135",
"q  c #4E3F42",
"w  c #3A4040",
"e  c #484949",
"r  c #5A4B4D",
"t  c #4B544A",
"y  c #565749",
"u  c #4E4F51",
"i  c #4F5052",
"p  c #535456",
"a  c #5F5A57",
"s  c #565659",
"d  c #58575C",
"f  c #57585A",
"g  c #5A5B5D",
"h  c #674B44",
"j  c #71554D",
"k  c #625B58",
"l  c #596650",
"z  c #656859",
"x  c #79655C",
"c  c #6A7154",
"v  c #5D5E61",
"b  c #605F64",
"n  c #5F6062",
"m  c #626365",
"M  c #686B62",
"N  c #666669",
"B  c #67686A",
"V  c #6A6B6D",
"C  c #796B63",
"Z  c #6E7166",
"A  c #75726C",
"S  c #7A756A",
"D  c #7B766E",
"F  c #6E6E71",
"G  c #6F7072",
"H  c #727375",
"J  c #7A7673",
"K  c #7C7A74",
"L  c #767679",
"P  c #77787A",
"I  c #7A7B7D",
"U  c #845130",
"Y  c #846959",
"T  c #926C57",
"R  c #827465",
"E  c #86796B",
"W  c #887868",
"Q  c #917565",
"!  c #846E70",
"~  c #817C74",
"^  c #8B7E75",
"/  c #827D7A",
"(  c #6D8165",
")  c #7A836A",
"_  c #938A6D",
"`  c #85817C",
"'  c #89847E",
"]  c #958373",
"[  c #97927D",
"{  c #A58D7B",
"}  c #B6937B",
"|  c #C08A5B",
" . c #C7956A",
".. c #C5926F",
"X. c #CA9B76",
"o. c #7D7E81",
"O. c #807F84",
"+. c #7F8082",
"@. c #828385",
"#. c #8B8987",
"$. c #858689",
"%. c #87888A",
"&. c #8A8A8C",
"*. c #928A85",
"=. c #968A89",
"-. c #999284",
";. c #959289",
":. c #9D948B",
">. c #8D8E91",
",. c #9E8D95",
"<. c #8F9092",
"1. c #929395",
"2. c #9D9793",
"3. c #959699",
"4. c #97989A",
"5. c #999A9C",
"6. c #A88C84",
"7. c #B28C89",
"8. c #A79785",
"9. c #B89A86",
"0. c #A38F96",
"q. c #B19E90",
"w. c #AAA48B",
"e. c #BDA288",
"r. c #A6A598",
"t. c #B7A998",
"y. c #BAB69F",
"u. c #9D9EA1",
"i. c #A09FA4",
"p. c #9FA0A2",
"a. c #A2A3A5",
"s. c #A6A6A9",
"d. c #A8A7AC",
"f. c #A7A8AA",
"g. c #AAABAD",
"h. c #B6ADA2",
"j. c #BCB3A3",
"k. c #BFB9A6",
"l. c #BCB5AC",
"z. c #BDB8AC",
"x. c #ADAEB1",
"c. c #B0AFB4",
"v. c #AFB0B2",
"b. c #B2B3B5",
"n. c #BAB6B3",
"m. c #BBBAB4",
"M. c #B5B6B9",
"N. c #BCBDBB",
"B. c #C59883",
"V. c #D39E84",
"C. c #C99A90",
"Z. c #C4A187",
"A. c #DCA786",
"S. c #CDAE97",
"D. c #C3AFA6",
"F. c #C6B7A7",
"G. c #C2B9A6",
"H. c #C1B6AB",
"J. c #C4BBAB",
"K. c #C5BDB3",
"L. c #C3BAB6",
"P. c #C9BEB2",
"I. c #EEBEA7",
"U. c #F9BDA3",
"Y. c #BDDABB",
"T. c #C6C1AE",
"R. c #CAC1AE",
"E. c #D4C3AF",
"W. c #CBC3B3",
"Q. c #CBC4BB",
"!. c #C9C5BC",
"~. c #D5C4B5",
"^. c #D3C6B9",
"/. c #D4CCBC",
"(. c #DBCDBB",
"). c #C9D3BC",
"_. c #D9D2BF",
"`. c #FCC5AB",
"'. c #E8C9B7",
"]. c #FCCBB4",
"[. c #F6CEBE",
"{. c #EAD1BB",
"}. c #F5D4BB",
"|. c #FED2BB",
" X c #CCCDC8",
".X c #D4CCC3",
"XX c #D3CBC6",
"oX c #DACEC3",
"OX c #CFDAC6",
"+X c #DBD3C4",
"@X c #DBD4CB",
"#X c #D6D9C8",
"$X c #CCD1D1",
"%X c #D1D3D1",
"&X c #DBDED5",
"*X c #E3D3C3",
"=X c #E6D8C9",
"-X c #FDD5C5",
";X c #F9DCCA",
":X c #E4DBD6",
">X c #D7E2CA",
",X c #D2E9CD",
"<X c #DDE7D3",
"1X c #E9E5D5",
"2X c #F5E7D4",
"3X c #F4E9DB",
"4X c #FCEDDD",
"5X c #FFF2DF",
"6X c #EDEBE8",
"7X c #F5EDE2",
"8X c #FBEEE4",
"9X c #EDFBEC",
"0X c #FDF3E3",
"qX c #FDF3E9",
"wX c #F8FAEA",
"eX c #FFFBEC",
"rX c #EBFDF3",
"tX c #FAFEF5",
/* pixels */
"p g g p g p g g.g.x.o.o.o.p g v g g g g p g p s o.@.@.s s v g g f s g 1.M.b.H f s g p m @.@.@.@.@.L s g g g g f g N s.x.x.o.O.@.",
"g m g g n s s s.f.v.I o.o.p g g s s g g p g g g @.+.%.g g g s s s s p &.x.b.V p g g f g @.@.$.@.@.H s s g s p g s v s.g.g.@.$.$.",
"p H $.@.m g g 5.4.1.@.@.@.p g g s g G +.I m p p P H I p p m I H P I H >.u.u.V s g g g g $.o.@.I L G s g B H G v f g 1.u.1.@.@.o.",
"p 1.x.M.F f p @.I I @.@.@.p s n s p &.b.M.F s g p p p g s G M.b.x.g.v.3.I @.m f s v f g @.$.P p p g s g &.M.g.F f s f i v @.@.o.",
"p &.x.v.V p s %.@.@.@.@.o.g g g p s 1.x.g.V i f g v g g p V x.x.g.g.g.3.+.@.m g g v g v @.&.I p g g p p >.b.x.V g g g s m $.%.I ",
"p @.1.<.m g g @.@.@.V B V s p H >.%.>.<.4.I H H g g g g f m $.o.$.1.1.&.+.$.m g f f s g V F V g p V %.@.1.1.3.V g s g p g H H B ",
"p H @.@.N f f @.@.+.f p g g s +.b.x.3.I @.o.@.%.m g s g g f s p N @.+.@.@.$.m g f g g s g p s g f @.b.g.4.+.o.m s s v g g g g g ",
"g H $.+.m p f @.@.@.g g g g s o.v.g.3.@.@.$.$.%.v g g f s g v g V %.@.$.o.o.N g p g i g J J =.2.*.*.*.*.2.' / J A ` J J s p p v ",
"g m m m v g p m n N p g v g s m G V I @.@.V v B g g g v g v s g g B m o.$.@.B p g >.4.6X' ` *.2.;.:.r.2.;.2.A J / J / A N 1.>.%.",
"g g s s g g g g g s f g v p s v p p H $.%.n s g f s g g p v s g p g s H @.@.m s .     . 7X3X.X!..X.XW.L.@X@X@XXX    g s 6Xc.x.i.",
"p n g g m g m p p p m g g g s m g f H @.$.m s g v g g g g v p g g g g H $.%.V p .     o 7XeX=X.X/./.1XQ.+X^.^.@X.   g s B x.c.4.",
"g m f p 5.g.g.m g g g.f.5.f g g g g g f v g g f g s n s.a.a.a.a.$.g p v m g     .X@XqX0X/.+XR./.T.W.j.K./.@X  . 7X0X    m >.<.%.",
"g s f p u.f.x.m s p M.s.f.u f g p s g g g s f p g g f b.s.x.f.g.1.p g m s g     +X.X0X0X^.*X/.+XG.j.T.k.+X^.. . 0X0X.   v @.@.O.",
"g V V V 1.x.g.g f g g.g.4.g g m v n v s p g v s B g B s.g.g.x.g.1.p s g     :X.XqX0X0X4X^.+Xj.J.J.G.G.J.k.k.+XW.eX7X7XeX    $.$.",
":X&.v.g.<.I $.g g g o.o.$.$.@.@.@.@.F g g g p g s.x.f.@.@.o.+.o.I p g g     @X.X8X4X0X0X(.*Xy.G.G.j.k.j.W.J.(./.0X8XeX1X    g v ",
"*.M g.f.<.I %.g p v %.$.@.+.$.$.@.$.H p s g g p s.g.s.@.o.@.o.+.P s g v     Q.+X0X0X4X0X2X5X_.(.W.R.T.j././.5X0X0X3X4XeX~ K f v ",
"A K a.a.>.@.$.v g v L P I $.+.$.@.@.G s g N V B u.g.s.$.@.%.I @.H s p m     .X/.0X8X4X0X4X0X_.~.k.t.j.W././.0X5X5XeX3X3XS D g g ",
"~ D I @.+.$.$.g g s p s m @.@.@.@.@.H s s 3.b.v.%.I @.o.@.I p p s s     !.K.oX*X~.*X0X4X4X0X3X0XqXeX0X0XG.j.0X4X2X2X=X/.=X.XA J ",
"D ` +.$.+.@.o.g s g p s m @.@.$.$.@.F s i u.g.M.+.o.@.$.$.@.p p g f @ . n.l.oX(.*X~.0X4X0X8X3XqX8X8X0X0Xj.G.0X5X0X5X(.(.oX.X~ I ",
"    @.$.H H L N g v g g m H H P L H V g p <.5.5.@.@.@.@.@.@.s v v g     L.z.^ E ^.*X'.'.4X8X8XqX8X8X3XeX0X2X~.y.E.{.(.(.P.K.A K ",
".   @.$.m s p g s g s g g s s g p s g g p L @.o.@.@.@.$.o.@.s g g s . . l.P.C S *X~.(.oX0XqX8XqX8XqXqX1XeX4XF.F.(.(.(.(.k.W.D K ",
"&   @.%.m f s v g g p f s g s v p s v f p L @.@.+.o.@.%.$.$.p s v s =.0.. . t.w.C R G.H.z.L.Q.:XQ.@X.X.X+XoXG.G.R.F.D.P.J.z.o   ",
"  @ N V g s m g g g g g m 1.>.@.f g P &.>.@.@.@.$.@.$.V V F g s g g ,.0.. . w.[ _ R W.P.L.XXXX.X#XW./.oX^.W.P.G.G.G.W.P.K.l.    ",
"    s s g g g p g s g s V M.g.4.p p &.b.b.&.@.+.$.@.$.s s g g g s s =.:.. $ e.e.}.}.Y Q D.h.P.T.y.W.:.*.P.^.R E W.j.j.G.K.l.. O ",
"    g f v g p m g g s p B s.g.3.p p >.g.f.>.$.$.@.o.@.g g g g g s g ;.-.. # B.X.].|.T Q ~.~.G.T.y.T.-.:.j.j.S R G.G.W.K.z.l.    ",
"g g f g g g p 4.5.5.I I I H V F s p N V H I @.+.N m V f f g s g V 1.2.-.# $ ].|.].|.-X;XC S J.k.:.[ G.P.Q.J.E R G.J.j.l.K.!..   ",
"g g g g n g p f.g.g.+.@.o.u p g s g v g p P @.%.v p f g g m p g L b.;.-.# $ ].|.I.[.*X=X~ D z.K.] 8.J.H.H.H.E E W.J.W.h.!.m.    ",
"p m m m m v m a.g.f.$.@.@.g g v s g v f p I $.%.g g v g g g s p H x.g.$.j 8 -X|.{.;Xy t rXtX#.:.6.6.D.~.E E J.j.l.W.l.!.A / g s ",
"p @.f.s.g.g.p.%.@.%.I @.$.I o.$.@.+.F f f g g m g v p f.u.a.p g V &.&.$.h h [.'.;X*Xy t rXrX1.*.7.{ D.P.C E J.J.K.z.L.l.` A v v ",
"p %.x.f.a.s.x.%.+.$.I @.@.o.@.$.+.@.H f g p p s g g g x.x.s.s s N @.o.XXj 8 -X;X'.=X  X 9XwX-.6.C.C.Q R ] R H.H.l.W.m.N.    v v ",
"g I f.a.a.g.f.o.o.@.I +.@.$.@.&.o.o.G s v n m p m m V g.f.v.u s N $.@.&.8 0 ].I.|.{..   eXeX] } ..B.Q Q Y x /.K.L.m.N.M.    s p ",
"g g p f f p s g s p g g m $.@.L p s v s g p p g s.g.x.+.+.@.p g g g p 0Xe.B.].|.`.|.|.}.{.'.Z.X.X.X.9.t.Q ] j.h.!.n.  X d b m H ",
"d g f p g g s g s g p g g $.@.P p s v s d v s f a.v.x.@.@.%.u f g g p  X9.S.`.`.`.U.`.].|.|...X.|  .B.e.R W W.H.!.n.  O g d p V ",
"d F I I N g g g g v s g m o.o.L v v n v v v f f 5.a.a.$.@.@.v m v g g H 0X4X0 7 A.V.;X].B.B...X. .X.} e.9.q..       N m m N b H ",
"p >.M.b.H p g s p s g f g p s v g g v d s d v i o.o.@.@.$.@.$.$.L g g g p I 9 8 Z.9.'.-XB.B.V. . . .Z.S.9.q.. .   @ x.$Xb.c.M.s.",
"p o.f.v.H p f g v g g p g g v d f p d f p p d f $.&.@.%.$.o.%.@.H p v v g v g g . . $ # h j 4 U U 7 T Y $ . f 4.x.b.g.g.f.x.d.s.",
"$.1.5.u.G s s @.@.@.g g v g p B &.@.@.o.@.N v g F H G @.+.+.P P V g g g f g f I X     . h h 9 8 0 7 Q W . . s $.1.3.a.s.a.u.a.a.",
"x.3.o.@.B s p g.v.M.s g g g s I x.x.b.x.M.L p g g s f $.@.@.u s p g g g g s m f f a.a z x z [ ) c c z z     g p p p I o.o.@.I o.",
"b.3.@.$.V p p g.f.b.s g g g s I x.x.g.s.b.B d d g s g $.@.@.s f v g s g p s v s N.a.M Z y z ) ( c l z M X   s f g s @.$.$.$.@.$.",
"1.I m N m g p &.1.1.p f g g d N o.P &.3.3.>.>.<.v g s G B V s p g p s H &.$.$.%Xt : K D A z OX,XY.<XX X &X<XX   g P H F F $.O.$.",
"@.F p f g s p @.+.o.g g g s s g g p F $.o.u.g.N.m g s g p g g f v p s @.b.v.b.b.e 5 #.` a l >X>XOX).X X #X#X  X f p g s s @.@.$.",
"$.H f g m g f o.$.@.g s g v g v p d F +.I u.v.x.N s v s g m g p g f s +.g.s.g.s.1 < @X:X6 6     #X1X<XOXX   &X&X    s g g %.$.@.",
"$.H f p H o.I $.@.$.p f B 5.5.&.g g N N N o.>.&.5.5.4.g s g g g F 4.4.3.>.>.1.1.e 5 :X=X6 6 .   1X_.).<XX X #X&X  @ v g g V B F ",
"@.H f s I $.+.$.+.$.g g v M.x.5.p s m d p H $.o.d.g.b.g s g s s H b.g.4.I %.I @.r k   .     & X OX>X<X).X X   o     m s g d s b ",
"@.H s g L +.+.@.@.@.g p m x.s.3.p f g g s L @.@.a.x.g.g g g g p P b.f.5.o.@.@.@.k a . . . .     <X#X#X#X  X     &   m p g d g b ",
"g g g s m v g v g v s g v &.%.@.p g v g s P @.+.$.@.&.a.f.p.s s g N m P o.$.e 1 > 1 3 r x x . . t.t.t.r.  X : , 2 <   O g v g v ",
"g g g s g s g n g g v s v +.o.@.g s g f p P @.$.$.@.@.b.f.g.u g s g s $X%.@.w e < > q 3 ! x . # t.h.h.r.o   , 5 = :     v v g g ",
"p g g g v s s g g i H V H @.$.I B V m g p L I I @.+.+.s.s.f.p g g g s B $.@.    < < 3 3 > 3 2 2 X     o 3 2 = @ ; : @   g g g b ",
"g g s g g s g g g g g.g.s.@.o.1.g.b.$.p f g s s @.@.@.@.+.@.i g p g g m g p   O < 1 - < < > e 2 X X     2 5 ; = = @   @ s.g.s.s.",
"p g g s g f g g g p g.g.f.o.o.1.g.g.$.s g s g s $.+.@.$.@.$.p g p v s m I s m f     * . . . s g p H M.f.&.p O     @ a.g.g.x.g.s.",
"g V o.@.N f s I I L u.a.5.@.@.%.5.u.I g s v s g L o.o.I I L v s v H G B m m g f O     % . . v V N I g.g.@.g @   *   4.g.f.d.s.a.",
"g @.v.b.I p s a.x.x.@.I o.@.@.P p p n g f g s g g p s p p g f f H v.b.u.@.@.F g p g s s g g N M.x.a.o.o.$.@.@.N g p o.@.+.@.o.$.",
"u &.g.v.L g s a.g.g.o.$.$.@.$.I p s v p g g f s g s v g g g g s F b.g.M.I $.N s g v g f s s m b.g.s.I &.$.@.&.N p p I I @.$.@.@.",
"&.%.1.u.G g p 1.4.1.$.@.@.@.$.P g g F $.%.B g g v g g g g v s g V s.5.3.o.%.V g g g g g L I I 5.a.u.I $.I P I B g g @.@.%.I I I ",
"b.5.I $.V p p @.o.o.@.I $.%.@.I p p @.M.M.L s g v f g g f g g s v @.@.@.@.@.B g s g g g g.b.f.@.I @.+.$.V p p g s s I @.$.g p g ",
"f.1.@.@.G g g I @.@.@.@.$.I $.o.p f @.x.x.P g s g s g g g g g g N @.$.@.@.@.V s s v f g g.g.b.I $.$.$.$.H p g p g s I @.@.g g g ",
"1.@.N m N s g B B V $.@.$.$.@.o.p g P 3.1.+.H H &.>.1.g g m p g v F V I $.@.V g g g g g %.@.%.V H L %.$.H g g B H F @.@.%.g g g ",
"@.V p p g g g g p p $.@.@.$.@.I s p F @.@.$.@.$.s.x.v.g g g g f p g p V $.$.V p s g s g g s g s p m @.$.H p s P %.@.$.@.$.g g f ",
"@.H g g g g g g m s @.@.@.@.@.L s s H @.+.$.o.@.a.x.g.v g g g g g g s F $.@.V g g v g g p s g g p B @.$.H p s H @.$.$.@.%.g g p ",
"@.I I I B g g g p g @.@.@.m m m g s v v g P @.@.&.&.&.4.5.4.p s g g f m N m m g s g g g 1.3.1.s g v N N m s g m N B B N B g p m ",
"$.$.$.%.V g g g g g @.@.@.p p g g s n g p L @.@.$.@.@.x.g.f.i g v s p g g g g g s v g g g.g.g.s g v g s g s g g s g g g g g p B ",
"@.` P @.B g g g g g o.@.o.s f g v s m m v P @.@.@.+.o.g.g.s.g g n s g v s g v g p m g g s.g.g.p s g g s v g g g p g g g s g p B ",
"%.P g g g g g g p g g v g g s g s s I a.a.&.o.@.%.@.+.&.$.%.a.u.3.i g g f g g g p 3.a.a.$.%.%.s s g g g g g g g g g g g g 5.4.a.",
"@.V p d g g g g g g g g g g p v p p $.M.x.1.o.I @.@.o.+.I &.x.b.p.p s v s g m g u u.x.g.$.o.$.s g g s g g g g g s g g g g g.g.g."
};
