/* XPM */
static char *_386aa7758b84843b78cb0b0b4fd7ef8[] = {
/* columns rows colors chars-per-pixel */
"64 64 211 2 ",
"   c #030200",
".  c #0A0200",
"X  c #010B00",
"o  c #0C0903",
"O  c #080D09",
"+  c #130200",
"@  c #1A0000",
"#  c #1B0D06",
"$  c #08110E",
"%  c #17110C",
"&  c #210200",
"*  c #251F1C",
"=  c #26211B",
"-  c #322A25",
";  c #33352F",
":  c #383933",
">  c #3B3B34",
",  c #4D3436",
"<  c #443A37",
"1  c #7B3F2F",
"2  c #39423D",
"3  c #47433C",
"4  c #594839",
"5  c #65492A",
"6  c #724D28",
"7  c #694735",
"8  c #705032",
"9  c #433F40",
"0  c #3C4242",
"q  c #4C4B48",
"w  c #5C5246",
"e  c #4E4F51",
"r  c #584A50",
"t  c #4F5052",
"y  c #535456",
"u  c #5D5E50",
"i  c #565659",
"p  c #58575C",
"a  c #57585A",
"s  c #5A5B5D",
"d  c #685A45",
"f  c #785746",
"g  c #655758",
"h  c #5B675D",
"j  c #726249",
"k  c #686658",
"l  c #7C6D5C",
"z  c #5D5E61",
"x  c #605F64",
"c  c #5F6062",
"v  c #626364",
"b  c #6B6C66",
"n  c #656669",
"m  c #67686A",
"M  c #6A6B6D",
"N  c #726D69",
"B  c #777368",
"V  c #7B756C",
"C  c #7E786E",
"Z  c #6E6E71",
"A  c #6F7072",
"S  c #737375",
"D  c #7C7C73",
"F  c #767679",
"G  c #77787A",
"H  c #7A7B7D",
"J  c #824C3E",
"K  c #896A57",
"L  c #956C5B",
"P  c #8A755F",
"I  c #91755A",
"U  c #887767",
"Y  c #84756C",
"T  c #8E7369",
"R  c #817C74",
"E  c #817C79",
"W  c #A17167",
"Q  c #7B8060",
"!  c #7E847A",
"~  c #87886A",
"^  c #93856C",
"/  c #898378",
"(  c #93857B",
")  c #A7887C",
"_  c #B99278",
"`  c #C88E68",
"'  c #CA956E",
"]  c #D4946E",
"[  c #CB9974",
"{  c #C29678",
"}  c #D59B78",
"|  c #CCA07D",
" . c #7E7E81",
".. c #807F84",
"X. c #7F8082",
"o. c #828385",
"O. c #858689",
"+. c #87888A",
"@. c #8A8888",
"#. c #8A8A8C",
"$. c #928A86",
"%. c #928D84",
"&. c #859280",
"*. c #989385",
"=. c #969189",
"-. c #9C958B",
";. c #8E8E91",
":. c #8F9092",
">. c #929395",
",. c #969699",
"<. c #98979C",
"1. c #97989A",
"2. c #9A9A9C",
"3. c #AE8C82",
"4. c #A79C8F",
"5. c #B89B89",
"6. c #A59C95",
"7. c #A8A294",
"8. c #B4A393",
"9. c #B9A89B",
"0. c #BBB39F",
"q. c #9E9EA1",
"w. c #A09FA4",
"e. c #9FA0A2",
"r. c #A2A3A5",
"t. c #A6A6A9",
"y. c #A8A7AC",
"u. c #A7A8AA",
"i. c #AAABAD",
"p. c #BCB4A5",
"a. c #BCBBA4",
"s. c #B4B4A9",
"d. c #BCB4AC",
"f. c #BCBAAC",
"g. c #AEAEB1",
"h. c #B0AFB4",
"j. c #AFB0B2",
"k. c #B2B2B5",
"l. c #BCBCB2",
"z. c #B5B6B8",
"x. c #B7B8BA",
"c. c #C69589",
"v. c #D39F90",
"b. c #C9A48B",
"n. c #D4A88B",
"m. c #C6AE9C",
"M. c #C2B3A4",
"N. c #C6B6A6",
"B. c #C2B6AB",
"V. c #CAB7AC",
"C. c #C4BCAC",
"Z. c #CBBCAC",
"A. c #C3BCB2",
"S. c #CCBEB4",
"D. c #C2BFB8",
"F. c #BCC2A6",
"G. c #C5C5AE",
"H. c #CCC1AF",
"J. c #D8CDAD",
"K. c #C4C1B4",
"L. c #CEC3B4",
"P. c #C8C6BB",
"I. c #CDC4BA",
"U. c #D3C4B4",
"Y. c #D4C6B9",
"T. c #D3CABC",
"R. c #DBCCBB",
"E. c #C9D6BB",
"W. c #D0D5BE",
"Q. c #DDD1BD",
"!. c #EAC8AE",
"~. c #F3CAAF",
"^. c #E6CEBA",
"/. c #F3CCB4",
"(. c #F5CCB8",
"). c #EBD8BA",
"_. c #F4D4BA",
"`. c #FDD4BA",
"'. c #D0E1BF",
"]. c #CFCFC3",
"[. c #D4CDC1",
"{. c #DBCDC1",
"}. c #CEDAC7",
"|. c #DAD2C4",
" X c #DDD6CA",
".X c #D6D9C9",
"XX c #EDCDC1",
"oX c #E3D3C4",
"OX c #E6D7C7",
"+X c #F9D5C3",
"@X c #F9D8C6",
"#X c #CDE0C0",
"$X c #D7E3CA",
"%X c #DCE5D4",
"&X c #E7E3CC",
"*X c #EEE4D4",
"=X c #E8E5D8",
"-X c #F6E6D5",
";X c #F8EAD6",
":X c #F6EBDC",
">X c #FBEDDC",
",X c #FEF1DE",
"<X c #F5EDE1",
"1X c #FDEDE3",
"2X c #F3EEE8",
"3X c #F7F1E5",
"4X c #FEF3E3",
"5X c #FFF9E6",
"6X c #FDF5EA",
"7X c #FFFBED",
"8X c #FDFAF3",
/* pixels */
"y s s y s y s i.i.g. . . .y s z s s s s y s y i  .o.o.i i z s s a i s >.z.k.S a i s y v o.o.o.o.o.F i s s s s a s n t.g.g. ...o.",
"s v s s c i i t.u.j.H  . .y s s i i s s y s s s o.X.+.s s s i i i i y #.g.k.M y s s a s o.o.O.o.o.S i i s i y s i z t.i.i.o.O.O.",
"y S O.o.v s s 2.1.>.o.o.o.y s s i s A X.H v y y G S H y y v H S G H S ;.q.q.M i s s s s O. .o.H F A i s m S A z a s >.q.>.o.o. .",
"y >.g.z.Z a y o.H H o.o.o.y i c i y #.k.z.Z i s y y y s i A z.k.g.i.j.,.H o.v a i z a s o.O.G y y s i s #.z.i.Z a i a y z o.o. .",
"y #.g.j.M y i +.o.o.o.o. .s s s y i >.g.i.M t a s z s s y M g.g.i.i.i.,.X.O.v s s z s z o.#.H y s s y y ;.k.g.M s s s i v O.+.H ",
"y o.>.:.v s s o.o.o.M m M i y S ;.+.;.:.1.H S S s s s s a v O. .O.>.>.#.X.O.v s a a i s M Z M s y M +.o.>.>.,.M s i s y s S S M ",
"y S o.o.n a a o.o.X.a y s s i X.k.g.,.H o. .o.+.v s i s s a i y n o.X.o.o.O.v s a s s i s y i s a o.k.i.1.X. .v i i z s s s p s ",
"s S O.X.v y a o.o.o.s s s s i  .j.i.,.o.o.O.O.+.z s s a i s z s M +.o.O. . .n s y s t s y s s i y o.z.k.2.o.o.v s s z s i y y z ",
"s v v v z s y v c n y s z s i v A M H o.o.M z m s s N R =.-.%.=.%.-.=.=.R C N E N S 1.>.s s c s z m G S A m M z s s z s n >.;.+.",
"s s i i s s s s s i a s z y i z y y S O.+.c i s a i C %./ %.*.*.4./ -.4.k / %.N @.S u.i.i i s s y s y i i i a a a s s i M h.g.w.",
"y c s s v s v y y y v s s s i v s a S o.O.v   .     6X<X[. X|.T.T.T.T.[.|.[.    s t.g.u.i s i c s i y y i i i s a s s i n g.k.<.",
"s v a y 2.i.i.v s s i.u.2.a s s s s s a z s     . + <X<X|.T.T.[.[.OXT.|.[.|.%   s O.O.#.y z M q.2.t.q.r.>.H X.v s s s a v ;.>.#.",
"s i a y q.u.g.v i y z.t.u.e a s y i s s .   |.[.:X6XT.|.|.T.C.p.f.p.T.Y..   :X6Xo   X. .a s M k.i.i.t.k.1.H O.v a s s a z o.o.o.",
"s M M M >.g.i.s a s i.i.1.s s v z c z i .    X|.5X4XQ.T.|.Q.L.G.a.H.|.Y.# . 3X6X    o. .s s Z j.u.j.i.i.,.X.O.v y a s i z o.O.O.",
"y #.j.i.:.H O.s s s  . .O.O.o.o.o.o.    [.|.4X*X>X5XH.R.Z.0.9.M.M.L.0.M.Q.|.3X<X7X<Xo   i s s +.o.X.o.o.o.o.X.v y s s s s s s z ",
"y ;.i.u.:.H +.s y z +.O.o.X.O.O.o.O.    |.[.>X5X,X;XoXQ.m.Z.L.M.C.0.Z.Z.R.R.5X*X7X7X    y s v #.O.O.o.X.o.O.O.v y c i s s s i s ",
"F #.r.r.;.o.O.z s z F G H O.X.O.o.o.    |.T.>X5X>X-X5X,XU.Q.Z.M.H.0.oXQ.:X4X5X:X<X3XC D y i v o.F o.+.o.O.H  .m a t n z s s s s ",
"g.,.H o.X.O.O.s s i y i v o.o.o.o.o.o   {.T.5X>X;X-X>X;X^.R.Z.M.Z.H.U.U.4X;X:X*X8X3XB / s s i s i m o.H A y a i s v i.g.i.s v s ",
"i.r.X.O.X.o. .s i s y i v o.o.O.  o s.I.OXY.Y.R.>X4X>X,X4X,X,X>X>X>XN.M.7X4X7X:X{.|.|.[.%.b s y a M +.O.Z y s y i a q.i.i.y y s ",
"#.H o.O.S S F n s z s s v S S G   . d.A.Y.OXR.^.,X,X>X:X>X>X4X,X4X5XN.Z.-X-X*X>X{.I. X[.B D v s s m H  .Z s i Z S F 2.q.2.S A F ",
"y S o.O.v i y s i s i s s i i s     I.A.Y l R.U.R.Y.>X5X5X5X4X:X>X4X-X>XU.Z.oX|.{. XA.A.R V s s s s y y i s s ,.k.i.O.H +.g.h.t.",
"s Z o.+.v a i z s s y a i s i z     B.C.U T oXR.OXR.4X<X:X:X6X1X1X1X4X5XM.M.R.{.Y.[.d.A.C / s s i s s s s y a ,.i.j.O.o.o.g.g.r.",
"s v n M s i v s s s s s v >.;.o.>.s . . 4.8.P U M.M.I.A.[.|.T.{.{.R.{.oXM.Z.M.S.C.B.I.d.    s c a s s s s s s +.2.2.O.o.O.2.,.>.",
"y s i i s s s y s i s i M x.i.1.y y   . 8.5.T U V.V.B.p. XT.{.{.T.R.{.Y.Z.N.S.9.U.C.d.D..   a s s z y s s s i F o.X.o. .+.o.o...",
"s s s a z s y v s s i y m t.i.,.F i o . 5.c._.+XL K U.0.a.a.C.p.*.*.d.A.Y Y Y.M.N.S.B.d.%   i s s c i s i a s G  .o.+. .O.o.O. .",
"s s a s s s y 1.2.2.H H H S M Z i y   . b.c.(.+XW L Z.a.F.G.a.p.-.-.A.S.Y Y M.N.U.M.d.P.  $ v >.;.X.y s F #.#.o.o.o.o.o.o.M M M ",
"s s s s c s y u.i.i.X.o. .e y s i s + + _.`._.XX@XXX/ B s.s.*.7.s.s.D.d.V Y S.Z.M.I.B.A.    M x.k.,.e i #.z.k.;.o.X.o. .O.p s s ",
"y v v v v z v r.i.u.O.o.o.s s z $.s + @ /.@X+XXX@XoXC ! F.P./ ( f.P.l.s.@.C p.p.Z.M.C.f.    M g.i.2.y s +.j.i.:.o.o.#.O.o.p s i ",
"y o.u.t.i.i.e.+.o.+.H o.O.H  .O.o.D.f 7 ~.!._.+Xw w 2X8X@.=.6.-.S.d.D / s.D.K.K.C.C.B / t.t.1.+.#.H i a c M m G O.o.v s v z z z ",
"y +.g.u.r.t.g.+.X.O.H o.o. .o.O.X.o.f J (.+X+X^.4 u 6X8X6.$.( ) S.A.R B l.l.l.p.A.A.V C i.i.i. .X.H y y s s i S o.o.v s i s z z ",
"s H u.r.r.i.u. . .o.H X.o.O.o.#. . .8 1 ~.~./.@X.   4X1XE 4.m.5.T U Y R K.f.K.K.f.f..   i.g.r.X.o.G s s v i s F #.O.z i z i i y ",
"s s y a a y i s i y s s v O.o.F y i J 1 `._./._..   5X1X3.) { n.L K ^ B p.f.f.A.C.l.    s y v +.o.O.o.O.S y s s s s z s p x v S ",
"p s a y s s i s i s y s s O.o.G y 1Xv.c.(./.~.`.).J.@X/._ v.[ } { b.K U C.a.f.A.    s s i s s O. .o.O.o.S y s a s y s y s p y M ",
"p Z H H n s s s s z i s v  . .F z z c.c././.`.!.).).`.`.} ' ] } [ _ I P M.T.C.f.    i s s s c #.o.+.H H S s s s m v n v v n x S ",
"y ;.z.k.S y s i y i s a s y i z s s z 4Xf 7 5.b._.).{ [ ' } } ` } n._ 5.+       i s s i s i s #.o.H y a s i y 1.g.k.g.j.k.h.z.t.",
"y  .u.j.S y a s z s s y s s z p a y p i 4 7 5.5.^.!.n.| [ ' ' [ { b.5.8..       i s y i s s s +.O. .y s s s a 1.g.k.i.i.u.g.y.t.",
"O.>.2.q.A i i o.o.o.s s z s y m +.o.o. .o.n + + @ & 5 5 8 6 6 5 I P . . a a a i y S G G y s s S G Z i s s i i O.>.,.r.t.r.q.r.r.",
"g.,. .o.m i y i.j.z.i s s s i H g.g.k.g.z.F   % + @ d 5 8 5 8 j l Y %   s i v a a r.k.g.s s i s i s s i z s s y y y H  . .o.H  .",
"k.,.o.O.M y y i.u.k.i s s s i H g.g.i.t.k.m p p g , / U ^ ~ d k k b     y i z i y r.i.k.a y z z i z s a s y i a s i o.O.O.O.o.O.",
">.H v n v s y #.>.>.y a s s p n  .H #.,.,.;.;.:.r g / ~ ~ Q h b h h $   #.o.O.+.O.,.>.>.s s s a a s a i S O.O.v s y S Z Z O...O.",
"o.Z y a s i y o.X. .s s s i i s s y Z O. .q.0 2 ! D X X E.'.#X$X    $X%X    k.k.k.O. .o.a i s s s z s y +.k.g.F a i s i y o.o.O.",
"O.S a s v s a  .O.o.s i s z s z y p Z X.H q.> : ! &.X X #X$XE.%X  X }.}.X X i.t.i.O.O.o.z i z s i s i y O.i.g.S y z i s s +.O.o.",
"O.S a y S  .H O.o.O.y a m 2.2.#.s s n n n  .q >     %XW.$XE.%X$XX X }.%X    >.>.>.o.o.X.G G S s s v s s H >.>. .S S z s s M M Z ",
"o.S a i H O.X.O.X.O.s s z z.g.2.y i v p y S 9 <   o |.OX*X&X.XE.X   .X.XX   H o. .O.o.o.o.O.o.i a s s y Z o. .o.O.o.v i s p i x ",
"o.S i s F X.X.o.o.o.s y v g.t.,.y a s s i F r g . . 9.9.8.8.    .X.X%X.X    o.o.o.O.o.O. .o.X.s i z s y S O.O.o.+.X.v y s p s x ",
"s s s i v z s z s z i s z #.+.o.y s z s i G g g . # 9.9.N.8..   =X]..X%X  O o.o.o.o.o.o.n c n a s s s s z v z z z v z a s z s z ",
"s s s i s i s c s s z i z X. .o.s i s a y F o.O.< , + + . + k k 3 q q > .   o.o.o.o.X.o.s y s s s v y s s s s y s i s i z z s s ",
"y s s s z i i s s t S M S o.O.H m M v s y F H H < < . . + . b V > 3 3 3     o.o. .+.o.o.s s s a y s z v s y i s s e v a s s s x ",
"s s i s s i s s s s i.i.t.o. .>.i.k.O.y a s i i   . : = < - - < % * .   s y z i i H o.O.i s i s a F u.i.+.a s s i s e.u.t.i.t.t.",
"y s s i s a s s s y i.i.u. . .>.i.i.O.i s i s i O   ; > ; : : - * %     i i v a y o.o.O.y s i s y S z.u.#.y i s i i r.i.i.g.i.t.",
"s M  .o.n a i H H F q.r.2.o.o.+.2.q.H s i z i s F  .          .     A m v v s a s F X.X.s y s M n H i.i.o.s s s i s 1.i.u.y.t.r.",
"s o.j.k.H y i r.g.g.o.H  .o.o.G y y c s a s i s s y   O   O         k.q.o.o.Z s y s i i s s v z.g.r. . .O.o.o.n s y  .o.X.o. .O.",
"e #.i.j.F s i r.i.i. .O.O.o.O.H y i z y s s a i s i z s s s s i Z k.i.2.H O.n i s z s a i i v k.i.t.H #.O.o.#.n y y H H o.O.o.o.",
"#.+.>.q.A s y >.1.>.O.o.o.o.O.G s s Z O.+.m s s z s s s s z i s M t.2.,. .+.M s s s s s F H H 2.r.q.H O.H G H m s s o.o.+.H H H ",
"k.2.H O.M y y o. . .o.H O.+.o.H y y o.z.z.F i s z a s s a s s i z o.o.o.o.o.m s i s s s i.k.u.o.H o.X.O.M y y s i i H o.O.s y s ",
"u.>.o.o.A s s H o.o.o.o.O.H O. .y a o.g.g.G s i s i s s s s s s n o.O.o.o.o.M i i z a s i.i.k.H O.O.O.O.S y s y s i H o.o.s s s ",
">.o.n v n i s m m M O.o.O.O.o. .y s G ,.>.X.S S #.;.>.s s v y s z Z M H O.o.M s s s s s +.o.+.M S F +.O.S s s m S Z o.o.+.s s s ",
"o.M y y s s s s y y O.o.o.O.o.H i y Z o.o.O.o.O.t.g.j.s s s s a y s y M O.O.M y i s i s s i s i y v o.O.S y i G +.o.O.o.O.s s a ",
"o.S s s s s s s v i o.o.o.o.o.F i i S o.X.O. .o.r.g.i.z s s s s s s i Z O.o.M s s z s s y i s s y m o.O.S y i S o.O.O.o.+.s s y ",
"o.H H H m s s s y s o.o.o.v v v s i z z s G o.o.#.#.#.1.2.1.y i s s a v n v v s i s s s >.,.>.i s z n n v i s v n m m n m s y v ",
"O.O.O.+.M s s s s s o.o.o.y y s s i c s y F o.o.O.o.o.g.i.u.t s z i y s s s s s i z s s i.i.i.i s z s i s i s s i s s s s s y m ",
"o./ H o.m s s s s s  .o. .i a s z i v v z G o.o.o.X. .i.i.t.s s c i s z i s z s y v s s t.i.i.y i s s i z s s s y s s s i s y m ",
"+.G s s s s s s y s s z s s i s i i H r.r.#. .o.+.o.X.#.O.+.r.q.,.t s s a s s s y ,.r.r.O.+.+.i i s s s s s s s s s s s s 2.1.r.",
"o.M y p s s s s s s s s s s y z y y O.z.g.>. .H o.o. .X.H #.g.k.e.y i z i s v s e q.g.i.O. .O.i s s i s s s s s i s s s s i.i.i."
};
