/* XPM */
static char *_45c65a6160d4956bad05420cb29d1778iS5bBN0cC9tEPIr[] = {
/* columns rows colors chars-per-pixel */
"64 64 180 2 ",
"   c None",
".  c #030203",
"X  c #04050B",
"o  c #0B0A0A",
"O  c #0B0A09",
"+  c #120B0B",
"@  c #16120F",
"#  c #0E0E10",
"$  c #0F1110",
"%  c #131213",
"&  c #151619",
"*  c #171818",
"=  c #1C1819",
"-  c #20150E",
";  c #221C1A",
":  c #36291F",
">  c #312416",
",  c #232323",
"<  c #2A2A2C",
"1  c #232529",
"2  c #352C27",
"3  c #33312D",
"4  c #3B322C",
"5  c #3E3C2C",
"6  c #342F32",
"7  c #2F3230",
"8  c #343434",
"9  c #3B3734",
"0  c #3F3830",
"q  c #3C3B3B",
"w  c #30333D",
"e  c #42372E",
"r  c #403D3B",
"t  c #42413D",
"y  c #494737",
"u  c #584C3D",
"i  c #5F5A3A",
"p  c #7C4D2C",
"a  c #6C4B35",
"s  c #6B533D",
"d  c #333744",
"f  c #3E3C40",
"g  c #34394B",
"h  c #3D3E4A",
"j  c #423F40",
"k  c #3E4040",
"l  c #444445",
"z  c #48464C",
"x  c #4B4B4D",
"c  c #4A4646",
"v  c #514D4B",
"b  c #544742",
"n  c #5E5548",
"m  c #4D4E51",
"M  c #4E5153",
"N  c #525355",
"B  c #595756",
"V  c #5B5C57",
"C  c #555659",
"Z  c #56595B",
"A  c #5A5B5D",
"S  c #65594D",
"D  c #6A584B",
"F  c #745947",
"G  c #605F5F",
"H  c #5F615F",
"J  c #64615D",
"K  c #7B6E5C",
"L  c #756058",
"P  c #5D5E61",
"I  c #56596A",
"U  c #5E6062",
"Y  c #626365",
"T  c #6E6663",
"R  c #646669",
"E  c #67696B",
"W  c #6A6B6D",
"Q  c #706F6E",
"!  c #6F706F",
"~  c #73716F",
"^  c #6D6E71",
"/  c #6E7073",
"(  c #727375",
")  c #7A7774",
"_  c #757679",
"`  c #77797B",
"'  c #7A7B7E",
"]  c #7A7977",
"[  c #875837",
"{  c #8C674A",
"}  c #996D4D",
"|  c #876B57",
" . c #9C795F",
".. c #A67B55",
"X. c #877C68",
"o. c #967965",
"O. c #857F70",
"+. c #83826E",
"@. c #8D8C7E",
"#. c #878679",
"$. c #978375",
"%. c #96957C",
"&. c #A8846B",
"*. c #BA8C6C",
"=. c #AC8970",
"-. c #B58E72",
";. c #A89979",
":. c #BC9575",
">. c #CCA07B",
",. c #6D7482",
"<. c #7D7E81",
"1. c #807F84",
"2. c #7E8183",
"3. c #7E8392",
"4. c #828385",
"5. c #8A8885",
"6. c #848689",
"7. c #86888B",
"8. c #898A8D",
"9. c #888688",
"0. c #958B84",
"q. c #999382",
"w. c #94918F",
"e. c #8C8D91",
"r. c #8E9093",
"t. c #929395",
"y. c #959699",
"u. c #97999C",
"i. c #9A9B9D",
"p. c #9A9895",
"a. c #A59B8C",
"s. c #BC9A85",
"d. c #A49D92",
"f. c #A19C9D",
"g. c #AFAA84",
"h. c #ADA097",
"j. c #B4A392",
"k. c #9D9EA1",
"l. c #9FA1A3",
"z. c #A1A2A6",
"x. c #A2A3A5",
"c. c #A9A6A3",
"v. c #A5A6AA",
"b. c #A5A6A9",
"n. c #A7A8AC",
"m. c #A7AAAC",
"M. c #A9AAAE",
"N. c #AAABAD",
"B. c #B2AEAA",
"V. c #BBB4AB",
"C. c #BEBCA8",
"Z. c #ABACB0",
"A. c #ACADB1",
"S. c #AEAFB3",
"D. c #ADAEB1",
"F. c #AFB0B4",
"G. c #AEB1B4",
"H. c #B1B2B6",
"J. c #B2B2B5",
"K. c #BFB7B1",
"L. c #B5B6BA",
"P. c #B5B6B9",
"I. c #B6B8BC",
"U. c #BABBBD",
"Y. c #BAB9B8",
"T. c #CEB99E",
"R. c #C2B9AC",
"E. c #C0BDB2",
"W. c #C9C5A3",
"Q. c #D7C4A2",
"!. c #C9C4B9",
"~. c #DDCDB1",
"^. c #D6D1B4",
"/. c #E3CDA3",
"(. c #B9B9C0",
"). c #C8C7CA",
"_. c #D3D3C1",
"`. c #CECFD1",
"'. c #D6D4D5",
"]. c #E8E5C9",
/* pixels */
"<.' ' _ 2.` ` ' ` ` ` ' ` ' ] <.<._ M m N z m ( ' <.z.v.z.z.n.r.( <.Z z N N z R 2.( ` <.<.( 4.` 4.<.A m m ' ' ( 2.( ' ' ` N l   ",
"4.4.6.4.6.4.4.7.7.4.' 4.2.4.7.4.2.4.P A C C N ( 2.8.n.A.A.n.M.u.8.8.Y C A C N / 6.4.6.4.6.<.<.6.4.6.U M C <.7.8.4.7.6.6.4.Y C   ",
"2.6.4.6.4.4.6./ R _ 4.8.6.4.7.( W ^ C A Y ' ^ t.k.u.t.r.y.t.k._ W ^ A C Y ( ( <.4.4.4.' 8.k.k.r.<.e.' ( _ 2.4.<.Y W E W W ( (   ",
"2.6.<.7.4.6.7.P l U <.4.6.4.6.Z C P C A ^ e.<.z.F.M.6.' 4.<.6.E N N A C Y 6.4.4.<.6.6.<.8.v.H.k.<.7.4.6.8.6.4.' C N C N N <.4.  ",
"6.8.' 6.4.4.4.W C ^ 4.4.6.4.6.Y C C A N Y 6.4.l.F.A.6.<.7.4.6.E A C U Z P 6.<.4.<.<.<.2.e.l.H.u.4.4.6.<.<.4.6.<.C M Y Z A ' '   ",
"4.' A Y P P P ` <.4.4.4.6.<.7.Y C P 4.4.<.6.2.<.6.6.P A Y P A ( 6.<.<.<.6.n.v.b.M.M.v.v.z.8.6.e.4.4.8.4.<.6.6.<.C Z ( ` 4.6.4.  ",
"7.` C C Z Z Z <.e.4.' <.6.<.8.P m Z 2.8.6.6.4.<.4.<.A C C C m W 8.4.2.4.e.Z.Z.A.H.M.M.Z.v.4.' 7.6.<.6.4.6.6.6.( C C ( 4.6.4.4.  ",
"<.( Z P P P P <.6.<.8.e.6.' ' W Y W ' 4.' 2.6.6.6.4.P C Z R U _ 7.4.4.<.8.M.z.v.v.z.Z.M.z.6.6.4.4.2.6.4.6.' <.( R Z ` 8.4.6.4.  ",
"N P P Z _ e.6.4.' e.Z.L.4.N N <.6.4.6.7.<.4.6.<.6.6.Y m ^ 8.6.<.2.6.<.4.2.2._ y.F.M.n.v.z.6.4.6.4.6.6.6.<.Z M U 7.8.6.4.<.6.<.  ",
"N P C N ^ 6.2.4.' 8.A.L.4.N N ` 4.4.4.4.2.4.6.7.6.4.Y m W 4.t.B.c.t.e.4.4.4.<.y.H.v.A.H.A.<.<.4.6.<.' 6.2.C N R 4.6.4.4.4.7.8.  ",
"^ ( ( ^ <.7.7.t.y.y.y.u.6.R Y 4.6.7.6.4.4.4.6.` W ( / W _ K.$.| a X.R.4.6.t.t.u.k.t.y.u.u.2.6.6.8.6.2.6.6.^ / ( 4.4.6.6.4.( ^   ",
"6.e.e.7.4.<.4.A.L.z.<._ 6.6.8.6.' 4.4.4.4.' 4.Y z P <.6.!.D  .:.p { s V.r.H.I.t.<.<.' ' <.6.4.6.6.6.6.<.6.6.6.7.6.<.4.4.4.U N   ",
"<.<.4.4.6.4.6.l.M.k.6.<.4.<.4.4.' 6.6.2.6.4.4.W N U 4.e.a.&.[ p [ ..:.$.f.b.A.u.<.6.4.4.4.7.4.2.4.2.2.<.6.7.2.2.2.7.7.6.4.Y N   ",
"8.7.<.4.y.k.k.A.A.k.4.6.4.4.8.4.4.8.4.' r.z.l.7.( ` 4.c.D { *.} >...-.F K.8.t.p.B 2.4.4.4.R R ^ 7.2.2.6.6.2.2.6.2.7.( U E _ '   ",
"<.4.' 2.k.H.H.A.Z.l.' 4.4.4.4.<.' 4.2.' t.P.P.t.6.7.7.c.4 s.a } a =.F F q.N.c.r <.4.6.6.2.C m U 6.2.4.6.2.2.6.6.<.7.^ M N ' 7.  ",
"6.e.7.6.t.z.v.z.z.l.2.7.<.4.4.e.4.4.8.6.r.b.z.e.' 4.7.7.T L o.| ;.o.| > ) ~ x 6.<.6.<.<.<.R P / 7.2.6.2.2.7.6.8.' 7./ Z C 2.7.  ",
"M.v.M.Z.y.<.6.<.7.6.' 6.4.4.<.l.v.A.v.M.y.' 4.6.6.<.4.e.J > T././.~.u + j ( Z 6.4.6.R N P 2.2.7.6.2.2.2.6.n.b.l.2.6.( C Z 4.7.  ",
"Z.M.M.M.u.<.4.4.6.2.4.' 4.6.<.b.v.F.M.H.k.<.4.6.8.4.6.E.X.X.u Q.Q.K c ; O.3 t Z 6.6.R M P 2.6.7.2.2.2.2.<.b.I.N.4.6.^ N C ` '   ",
"M.M.v.M.y.<.4.4.4.2.6.<.6.6.<.v.b.N.y.k.t.<.4._ W ( !.W.].^.> K S @ r y ]._.N.E _ _ W R / 2.<.2.2.2.e.y.r.t.k.e.W ( ( R W 8.t.  ",
"v.M.M.A.t.<.6.6.7.6.4.8.2.2.<.l.b.v.' ' 4.' 4.W m Y n W.g.C.O.T t 6 t.@.%.#.4.C C Z _ 6.7.6.6.6.2.<.l.F.F.6.6.` M N ( 4.6.b.H.  ",
"M.M.v.Z.y.2.6.4.2.4.4.6.<.4.<.N.H.H.6.4.6.6.8./ A ~ y ;.i q.V.. k.q t.@.+.5 p.P A C <.7.2.<.2.6.2.` k.M.n.` 6.' Z z / <.<.x.M.  ",
"A.v.e.t.8.4.4.^ Y ^ 6.<.e.z.u.e.8.8.Y R Y Y R A m N C.d.d.@.t ! Y q Y V #.K.G A Z N _ 4.2.6.6.r.l.k.l.Z.n.6.7.6.' ( 6.4.<.v.N.  ",
"A.k.' 2.4.4.4.P m U 6.<.u.L.A.7.<.' C Z N N Z A N ^ , q * . 8 3 q V q & . z M.A A C _ 4.2.6.` r.F.F.l.F.n.7.` ' 4.6.8.<.2.l.A.  ",
"Z.z.<.6.6.4.4.R N R <.6.t.A.n.8.4.4.Z A Z Z A A A P < I h X $ W q 5., * 8 _ 7.A A A ' 6.2.7.` y.M.m.M.H.b.6.2.8.4.6.6.4.8.i.N.  ",
"4.8.<.6./ N A 2.7.<.4.4.4.6.4.7.4.<.C A A A A ( 7.4.M.h 1 < = 5.'.W ^ < q H , t.6.4.6.2.e.b.n.Z.M.n.l.M.n.2.6.6.4.' u.F.v.M.M.  ",
"' 4.2.6.E z P ' 7.4.4.<.<.6.7.4.6.7.C N N C N ` 7.2.t.< l c 3 ; & d ,.w , ) N t.` <.4.` 2.v.n.n.G.Z.F.n.F.6.2.6.6.4.u.N.v.A.J.  ",
"4.7.4.7./ N Y <.7.4.4.4.4.6.4.<.2.4.Z A P W R ( 4.' 2 e < q h.n z g I d X < 5.x e.e.r.e.e.n.M.v.l.k.b.u.l.6.2.2.( ` t.A.N.v.l.  ",
"4.7.4.4.^ N A <.6.<.4.4.4.4.2.7.6.4.N Z W 7.4.8.4.4 j.q.= 6 0.b f g 3.m . v ~ 8.H.A.M.Z.n.G.P.i.2.<.2.<.<.2.2.<.m x 6.L.b.6._   ",
"4.7.8.4.W C A ` 4.<.4.2.4.4.4.4.4.2.N x R 6.<.4.( J d.' l % A Y X W P.U.q J.' y.A.M.A.Z.F.M.F.k.<.2.2.6.2.7.6.2.N x 8.L.N.6.'   ",
"E W W E W W / 4.4.<.4.4.6.4.6.( W ( ( ( _ 6.<.y.k.t.4.' c u.(.N 1 9 . c J N.y.y.e.e.y.7.r.r.y.r.2.7.6.4.2./ R ^ 6.6.8.8.t.8.4.  ",
"N N N N _ 8.6.7.6.2.4.4.7.4.4.A z A 6.7.4.4.<.i.U.x.A c f P 4.f + - : 2 @ Y.L.u.' 4.4.` <.<.2.2.2.6.6.<.2.P m / U.L.u.( 4.4.'   ",
"Z A A C ( 4.' 4.4.4.4.4.4.2.7.Y C U 6.4.4.6.4.8.H.b.E C ` % o $ % : n S w.'.n.u.' 8.<.7.8.2.2.6.<.6.6.6.2.A N W A.x.i.2.6.2.<.  ",
"C R 2.` 4.4.4.4.6.7.<.6.u.k.b.4.' ' 4.4.6.<.6.( Y R ` _ 4./ # C 9.0 0 v B `.v.u.' 4.R A P Y A Y P P Y Y P ` ` 4.7.4.8.4.<.Y U   ",
"N R 6.6.6.4.4.4.<.4.<._ t.J.F.8.4.4.6.6.6.4.8.Y x A 4.6.6.R % 4.` w.% 8 l F.A.k.4.6.R m N Z C P N N C N N 8.7.6.<.6.7.7.7.A M   ",
"Y ( 4.6.4.<.4.6.2.6.t.6.t.M.i.6.4.6.4.4.<.<.6.E M Y 6.4.4.4.Y u.( , 7 $ 8.`.v.e.( ' ^ R Y A Z Y A Z Y R A 6.' 7.' 6.' ( _ E R   ",
"4.6.4.4.6.4.6.2.<.7.v.M.t.6.4.<.<.4.<.4.2.2.6.( C R 4.<.7.6.4.x.( * A 8 u.).6.( M P ( 6.<.U A P U A ( 8.<.6.' 6.4.4.^ C A ' 4.  ",
"6.6.<.<.4.' ' 4.<.8.v.L.y._ 4.4.4.6.' 6.6.4.6.W z Z ' 2.4.7.8 E ( ( $ q x N.7.^ m N / 7.6.A C C C m W 6.6.' 4.4.4.4./ C C <.6.  ",
"4.6.6.6.6.<.4.u.t.i.N.M.y.<.7.4.6.6.<.6.<.^ W _ W ( 6.4.8.y.c c O % x x ` ).8.<.^ / ' 4.4.Z C W / / 4.2.6.<.7.6.' 7.^ C U ' 6.  ",
"4.2.6.<.4.' 4.M.N.M.A.N.t.4.4.4.4.2.4.4.( N N ( 6.6.4.' t.H.H.e.W 8 # O . b.2.4.6.6.6.6.4.Z C ^ 6.6.8.4.6.2.6.6.2.7.^ N P ' 7.  ",
"4.4.4.' 6.<.<.v.N.x.N.A.y.6.4.6.4.' 6.6.^ m N ( 6.4.4.' r.A.A.t.' ( , . $ v.4.<.2.4.4.4.4.N N E r.2.' 4.4.2.6.2.6.6.( N C ' 2.  ",
"2.7.M.i.z.k.k.M.M.z.8.e.8.4.4.4.4.6.6.2.2.4.' 4.4.' 6.2.4.8.6.<.4.4.4.^ 6.4.6.r.Z.z._ C R ' ' _ 4.4.4.2.6.4.4.' Y A / ' ' 4.4.  ",
"4.e.J.M.A.N.A.M.N.z.2.<.6.4.<.4.4.4.<.4.2.' 4.2.2.2.6.4.4.6.<.6.4.4.4.2.4.<.' t.A.H.^ N A 4.6.2.4.6.4.<.<.<.2.' m m _ 8.6.4.6.  ",
"4.8.v.M.b.z.b.z.b.k.4.4.7.6.4.6.4.7.4.4.7.6.7.8.4.6.4.4.4.6.4.4.' 4.7.6.6.e.6.k.z.M.^ P Y <.2.8.4.6.4.6.<.8.7.<.C A ( 2.6.6.6.  ",
"v.M.A.N.t.2.4.4.4.4.<.4.4.2.4.4.<.6.4.<.t.A.b.8.<.7.2.4.4.4.2.4.4.7.6.4.e.Z.n.y.4.6.` <.6.7.4.6.' <.4.6.4.N.N.z.4.4.6.' 6.7.4.  ",
"v.A.M.A.t.<.4.4.2.4.4.4.4.4.7.4.6.' ' ` 8.H.A.t.2.7.4.4.6.4.6.4.4.4.<.<.7.S.F.k.<.2.6.4.6.<.' 4.4.4.2.<.' M.A.z.2.2.7.2.4.4.2.  ",
"M.N.u.k.e.4.4.6.4.4.4.2.6.2.4.6.y.8.e.y.t.u.z.4.^ ` 2.6.2.( ( ' 4.<.e.y.t.M.M.u.<.6.4.2.6.t.t.8.t.e.t.t.t.i.u.u.4.2.8.4.2.8.r.  ",
"v.l.<.4.4.' 2.2.4.4.4.4.8.6.4.v.L.J.A.J.u.' 4.Y m P <.6.( C x ( 6.4.z.H.n.A.Z.u.2.6.2.4.8.N.M.P.H.N.A.A.M.4.' ' ' ' 4.' 6.N.H.  ",
"N.z.2.4.7.4.6.7.6.2.2.' 4.<.' z.v.N.b.N.z.2.6.W N A 4.8.' A N W 7.4.k.H.M.A.Z.k.2.4.2.<.6.N.v.N.v.b.M.M.P.<.8.4.7.4.7.' ' z.N.  ",
"t.t.4.7.( P W <.6.6.i.z.u.z.i.t.7.8.i.r.4.Y R R A A ^ Y E ' ( e.z.y.t.e.t.e.e.e.4.<.1.4.7.v.A.z.8.t.r.8.8.7.6.6.6.<.t.z.k.t.7.  ",
"<.6.6.6.R z Z ' 4.e.N.H.M.J.H.6.' ' 4.<.( N C C Z Z C m R 8.4.k.I.A.6.` <.6.<.<.4.<.6.' 4.H.A.u.` ` ` <.4.` ' 6.4.' i.H.N.8._   ",
"' 4.4.' W C P <.' 7.N.N.b.l.v.6.4.7.6.6._ N C A P P Z A E 4.` y.v.n.8.6.6.6.<.4.8.2.6.4.8.v.v.t.6.8.7.4.6.' 8.4.4.4.u.N.v.e.2.  ",
"P P A Z _ <.2.8.4.8.N.M.i.6.8.4.<.7.<.4.( N Z ^ <.7.4.<.' 6.4.6.6.6.2.<.6.4.6.<.4.4.u.Z.z.4.6.<.4.4.4.' 6.4.4.8.v.x.t.4.6.<.'   ",
"A Z C x ( 6.6.4.` 8.b.N.u.` <.8.4.7.4.8._ Z N ` 6.6.4.4.8.6.' 6.6.7.6.<.7.4.6.6.2.2.k.I.A.2.6.4.8.2.4.2.6.7.4.8.J.J.u.' 6.6.8.  ",
"C P ( R _ 4.4.e.8.u.M.F.y.' 7._ W _ ( _ W R Y ' 6.4.4.' 4.4.8.( ^ ' 6.6.6.4.<.6.2.4.y.l.u.7.<.4.' / 4.4.' 6.4.8.k.u.t.4.7.` _   ",
"Z E 8.4.2.4.4.b.n.N.n.F.r.` 4.U N A Z N Y 2.7.6.2.2.4.4.2.<.7.E N Z <.6.6.4.6.7.2.2.2.<.2.6.6._ N M / 7.4.2.2.<.2.` 2.' 2.P Z   ",
"M Y 6.6.6.6.2.x.n.N.b.U.u.4.8.U Z Z Z M Y 6.2.2.2.8.4.6.4.7.7.E N m 4.2.6.' 2.4.` e.4.7.e.2.7._ x Z ( 7.4.2.7.4.6.2.8.6.4.A M   ",
"/ ` 4.7.7.<.4.x.F.l.r.t.' E W A A U ` / ' 4.4.6.2.4.E E W W Y ^ ` ( <.4.7.i.u.t.2.4./ R Y / E E ' W ' 7.2.` 7.4.4.` 2.Y W / _   ",
"7.6.2.<.7.4.2.b.N.k.2.4.E Z Z A N A 7.7.4.2.6.4.2.<.Z N N Z M / 6.r.2.2.7.F.P.i.' 2.U N Z N N E 8.7.6.4.2.<.4.4.4.2./ M U ' 7.  ",
"2.2.7.2.6.6.4.z.b.x.<.4./ A C Z Z P <.4.4.4.4.6.7.4.Y Z Z A m ( 4.6.' <.t.M.H.y.2.7.E Z A N M R 4.4.<.<.6.6.4.7.<.7./ N Z ' 2.  ",
"6.<.8.4.t.N.N.r.2.4.4.8.W N U ' 6.4.4.<.6.6.4.' 4.2.A N W 4.4.<.2.' x.M.u.Y P U U U C N P 4.6.4.6.4.2.4.6.4.4.` N Y A C A 4.6.  ",
"6.4.7.<.i.J.v.4.4.7.6.6.( N m ' 4.6.4.2.4.4.6.' 6.4.Y m Y 4.4.4.6.4.M.H.l.N C N A N Z C Z 4.4.6.2.4.2.4.4.<.6.' m N C Z C ' 2.  ",
"<.' 7.<.u.v.v.8.4.' ' ( ^ A U 2.4.6.4.4.4.' ' 6.' ` W Z W 8.6.6.2.6.t.M.t.N Z P A N A U R <.4.4.2.6.4.4.7.` ' ` R P A A Y 4.7.  ",
"N P 4.' 4.' 4.6.7.( C C ( 6.7.4.<.4.<.4.6.4.6.R m P ' <.t.J.v.v.P.P.C z Z Z A Z C P ` 6.6.6.6.6.6.6.<.' 4.A N Y 4.6.e.6.4.4.<.  ",
"N Y 6.4.6.` 4.4.4.( C N R 4.4.6.' <.<.' ' ' 6.W z A 4.' 6.v.b.N.z.J.Y N C C N C N C _ 6.<.<.' ' <.4.4.<.6.Z N A 8.' 4.' 4.' '   "
};
