/* XPM */
static char *_b4ecd2b0a874e50bfda5fc15259d38b[] = {
/* columns rows colors chars-per-pixel */
"64 64 234 2 ",
"   c #040201",
".  c #0B0301",
"X  c #020B01",
"o  c #0C0A03",
"O  c #0B0608",
"+  c #050A09",
"@  c #0D0B0B",
"#  c #130201",
"$  c #160A07",
"%  c #041305",
"&  c #270408",
"*  c #36262B",
"=  c #3E3337",
"-  c #52352E",
";  c #4A3839",
":  c #57393A",
">  c #7F342E",
",  c #6A3E34",
"<  c #57452C",
"1  c #49463D",
"2  c #594936",
"3  c #4D5234",
"4  c #575839",
"5  c #694434",
"6  c #664D35",
"7  c #63423C",
"8  c #784939",
"9  c #56623E",
"0  c #3B3F40",
"q  c #4B3F43",
"w  c #494949",
"e  c #594746",
"r  c #55584B",
"t  c #4E4F51",
"y  c #4F5052",
"u  c #495D51",
"i  c #535456",
"p  c #565659",
"a  c #58575C",
"s  c #57585A",
"d  c #5A5B5D",
"f  c #654947",
"g  c #714F48",
"h  c #665648",
"j  c #755547",
"k  c #675854",
"l  c #775958",
"z  c #5A6847",
"x  c #5C7050",
"c  c #6B664B",
"v  c #6C6D53",
"b  c #6B6D56",
"n  c #7A6C5B",
"m  c #7A725D",
"M  c #5D5E61",
"N  c #605F64",
"B  c #7B5A61",
"V  c #5F6062",
"C  c #626264",
"Z  c #6E6560",
"A  c #666669",
"S  c #67686A",
"D  c #6A6B6D",
"F  c #796966",
"G  c #667468",
"H  c #7B7264",
"J  c #7C776B",
"K  c #6E6E71",
"L  c #6F7072",
"P  c #727375",
"I  c #7F7772",
"U  c #767779",
"Y  c #77787A",
"T  c #7A7B7D",
"R  c #824D53",
"E  c #84575A",
"W  c #8E6B55",
"Q  c #865D65",
"!  c #866967",
"~  c #92666B",
"^  c #887769",
"/  c #907768",
"(  c #857C74",
")  c #897D77",
"_  c #947972",
"`  c #A27B6B",
"'  c #6B835D",
"]  c #7A866A",
"[  c #788E71",
"{  c #7A8A74",
"}  c #89866E",
"|  c #87837A",
" . c #98887A",
".. c #98917F",
"X. c #A88C7A",
"o. c #C99C77",
"O. c #D2967E",
"+. c #D2A77C",
"@. c #7E7E81",
"#. c #817F83",
"$. c #7F8082",
"%. c #758E88",
"&. c #788C89",
"*. c #828385",
"=. c #8A8787",
"-. c #858689",
";. c #87888A",
":. c #8A8A8C",
">. c #958B85",
",. c #9B8E86",
"<. c #958B8A",
"1. c #8C918B",
"2. c #979288",
"3. c #9B928B",
"4. c #8E8E91",
"5. c #8F9092",
"6. c #859A95",
"7. c #929395",
"8. c #999796",
"9. c #969699",
"0. c #9A9A9C",
"q. c #A69585",
"w. c #B79B88",
"e. c #A49C98",
"r. c #92A699",
"t. c #A6A69A",
"y. c #B8AD95",
"u. c #BAA89A",
"i. c #9E9EA1",
"p. c #A09FA4",
"a. c #9FA0A2",
"s. c #9CB3AD",
"d. c #A2A3A5",
"f. c #A6A6A9",
"g. c #A7A8AA",
"h. c #AAABAD",
"j. c #B8AAA5",
"k. c #AAB2A1",
"l. c #BDB4A5",
"z. c #BCB4AC",
"x. c #BAB9A8",
"c. c #BCBAAB",
"v. c #AEAEB1",
"b. c #B0AFB4",
"n. c #AFB0B2",
"m. c #B2B2B5",
"M. c #BCB9B5",
"N. c #B5B6B9",
"B. c #CE938B",
"V. c #CB9A8A",
"C. c #D49B8D",
"Z. c #E59A94",
"A. c #CBA38B",
"S. c #CCA688",
"D. c #D4A787",
"F. c #CCA997",
"G. c #D4A794",
"H. c #CBB197",
"J. c #E7B093",
"K. c #CDAEA5",
"L. c #C3B4A4",
"P. c #C3B4AC",
"I. c #C8B7A8",
"U. c #C3BCAC",
"Y. c #CCBDAD",
"T. c #C4BBB2",
"R. c #C5B8B5",
"E. c #CBBBB2",
"W. c #F0BBB0",
"Q. c #BECDAB",
"!. c #BEE2BB",
"~. c #C9C1AC",
"^. c #C6C3B7",
"/. c #CAC3B3",
"(. c #CEC3BA",
"). c #D3C5B4",
"_. c #D7C7B7",
"`. c #D3C5BC",
"'. c #D3CBBC",
"]. c #DBCCBD",
"[. c #C4DBBD",
"{. c #D3D5BC",
"}. c #DCD3BD",
"|. c #E8C3A8",
" X c #F8CBAA",
".X c #F8D2AE",
"XX c #EBCAB7",
"oX c #E4CDBC",
"OX c #FBC6B6",
"+X c #F3CCBC",
"@X c #FFCBBB",
"#X c #E6D6BB",
"$X c #FAD5B8",
"%X c #FCD4BD",
"&X c #C6E1B8",
"*X c #DAE2BD",
"=X c #D7CBC2",
"-X c #C7D9C3",
";X c #DBD4C4",
":X c #DBD7C6",
">X c #DBDAD3",
",X c #E7CEC4",
"<X c #F4CCC3",
"1X c #FECDC6",
"2X c #FBCEC9",
"3X c #E4D4C5",
"4X c #EBD4C4",
"5X c #EBD5CB",
"6X c #E7D9CB",
"7X c #F2D4C4",
"8X c #FDD4C4",
"9X c #F7D8C7",
"0X c #F2D4CA",
"qX c #E7D8D1",
"wX c #F4DAD1",
"eX c #CAE6C7",
"rX c #D4E8C6",
"tX c #D5E4CC",
"yX c #D8F7CD",
"uX c #D8E7D7",
"iX c #EAE3CC",
"pX c #ECE7D4",
"aX c #F2E5D4",
"sX c #F7EAD7",
"dX c #FBEDDC",
"fX c #EBF1DC",
"gX c #FBF3DC",
"hX c #E6EBE3",
"jX c #F6ECE0",
"kX c #FDEEE1",
"lX c #FDF4E3",
"zX c #FFF9E5",
"xX c #F9F7E8",
"cX c #FFFCEB",
/* pixels */
"i d d i d i d h.h.v.@.@.@.i d M d d d d i d i p @.*.*.p p M d d s p d 7.N.m.P s p d i C *.*.*.*.*.U p d d d d s d A f.v.v.@.#.*.",
"d C d d V p p f.g.n.T @.@.i d d p p d d i d d d *.$.;.d d d p p p p i :.v.m.D i d d s d *.*.-.*.*.P p p d p i d p M f.h.h.*.-.-.",
"i P -.*.C d d 0.0.7.*.*.*.i d d p d L $.T C i i Y P T i i C T P Y T P 4.i.i.D p d d d d -.@.*.T U L p d S P L M s d 7.i.7.*.*.@.",
"i 7.v.N.K s i *.T T *.*.*.i p V p i :.m.N.K p d i i i d p L N.m.v.h.n.9.T *.C s p M s d *.-.Y i i d p d :.N.h.K s p s i M *.*.@.",
"i :.v.n.D i p ;.*.*.*.*.@.d d d i p 7.v.h.D y s d M d d i D v.v.h.h.h.9.$.*.C d d M d M *.:.T i d d i i 4.m.v.D d d d p C -.;.T ",
"i *.7.5.C d d *.*.*.D S D p i P 4.;.4.5.0.T P P d d d d s C -.@.-.7.7.:.$.-.C d s s p d D K D d i D ;.*.7.7.9.D d p d i d P P D ",
"i P *.*.A s s *.*.$.s i d d p $.m.v.9.T *.@.*.;.C d p d d s p i A *.$.*.*.-.C d s d d p d i p d s *.m.h.9.$.@.C p p M d d d a d ",
"d P -.$.C i s *.*.*.d d d d p @.n.h.9.*.*.-.-.;.M d d s p d M d D ;.*.-.@.@.A d i d y d i d d p i *.N.m.0.*.*.C d d M d p i i M ",
"d C C C M d i C V A i d M d p C L D T *.*.D M S d d d M d M p d d S C @.-.*.S i d 4.0.7.d d V d M S Y P L S D M d d M d A 7.4.;.",
"d d p p d d d d d p s d M i p M i i P -.;.V p d s p d d i M p d i d p P *.*.C p d h.g.h.p p d d i d i p p p s s s d d p D b.v.p.",
"i V d d C d C i i i C d d d p C d s P *.-.C p d M d d d d M i d d d d P -.;.D i d f.v.g.p d p V d p i i p p p d s d d p A v.m.9.",
"d C s i 0.h.h.C d d h.g.0.s d d d d d s M d d s d p V f.d.d.d.d.-.d i M C d d d d -.-.:.i M D i.0.f.i.d.7.T $.C d d d s C 4.7.:.",
"d p s i i.g.v.C p i N.f.g.t s d i p d d d p s i d d s m.f.v.g.h.5.i d C p d d i d T $.@.s d D m.h.h.f.m.9.T -.C s d d s M *.*.*.",
"d D D D 7.v.h.d s d h.h.0.d d C M V M p i d M p S d S f.h.h.v.h.7.i p d s i C d C U *.@.d d K n.g.n.h.h.9.$.-.C i s d p M *.-.-.",
"i :.n.h.5.T -.d d d @.@.-.-.*.*.*.*.K d d d i d d.v.g.*.( J 8.| 2.e.>.>.F | 8.t.g.4.$.-.p d d ;.*.$.*.*.*.*.$.C i d d d d d d M ",
"i 4.h.g.5.T ;.d i M ;.-.*.$.-.-.*.-.P i p d d i f.h.f.*.( I 3.t. .>.2.3.) ) | >.g.-.-.*.i d C :.-.-.*.$.*.-.-.C i V p d d d p d ",
"U :.d.d.4.*.-.M d M U Y T -.$.-.*.*.L p d A D S =.I I ( =XqX/.;X`.6X'.=X`.`.>.I | K 7.:.8.t.C *.U *.;.*.-.T @.S s y A M d d d d ",
"v.9.T *.$.-.-.d d p i p C *.*.*.*.*.P p p 9.m.n.) H J ( '.'.;X'.6X`.].qX'.;XH ^ H ) 3.1.4.:.p d p S *.T L i s p d C h.v.h.d C d ",
"h.d.$.-.$.*.@.d p d i p C *.*.-.-.*.K p t i..   T.P.;X=XjXxX'.=XE.z.3X(.kXlX/.;XT.z.. . p p d i s D ;.-.K i d i p s i.h.h.i i d ",
":.T *.-.P P U A d M d d C P P Y U P D d i 4.. # E.u._.=XfXxX;X'.T.E.(.`.zXlX6X;X/.U.$   d p C d d S T @.K d p K P U 0.i.0.P L U ",
"i P *.-.C p i d p d p d d p p d i p d d   . j.P.kXzXcXpX;X;XP.E.E.P.P.Y._.3X6XaXlXjXz.T.    d d d d i i p d d 9.m.h.-.T ;.v.b.f.",
"d K *.;.C s p M d d i s p d p M i p M s     =XP.lXaXsXzX/.'.l.P.`.I.E.Y.Y.}.lXlXcXlXE.z.. O d d p d d d d i s 9.h.n.-.*.*.v.v.d.",
"d C A D d p C d d d d d C 7.4.*.s d Y :.7.e.`.3XdXlXlXlXl.~.3X_.I.L._.].3X].lXdXsXaX'.=X3.<.d V s d d d d d d ;.0.0.-.*.-.0.9.7.",
"i d p p d d d i d p d p D N.h.9.i i :.m.=.| qX_.kXaXkXdXI.L.].,XI.).].].].].lXdXkXcX6X=X,.<.s d d M i d d d p U *.$.*.@.;.*.*.#.",
"d d d s M d i C d d p i S f.h.9.i i     >XT.=X3X].].u.~.dXlX].]._.3X).}.sXdXgXlX]._.E.6XT.R.@   d V p d p s d Y @.*.;.@.-.*.-.@.",
"d d s d d d i 0.0.0.T T T P D K p i     ^.z.'.'.'.;XU.L.aXzX).3X3X).}.'.gXlXaXzX].'.6X'.T.z.    4.$.i d U :.:.*.*.*.*.*.*.D D D ",
"d d d d V d i g.h.h.$.*.@.t i d p s     M.c.c.U.'.{.H m cXlXsXlXaXcXiXcXpXgX}.}.'.;Xl.(.z.M.o   m.9.t p :.N.m.4.*.$.*.@.-.a d d ",
"i C C C C M C d.h.g.-.*.*.d d M p d   . M.^.^.c.{.{.J ^ iXlXdXlXcXpXzXpXgXgX~.'.'.}.U.l.T.z.  + h.0.i d ;.n.h.5.*.*.:.-.*.a d p ",
"i *.g.f.h.h.a.;.*.;.T *.-.T @.-.$.$..   ^.c.t.Q.x.c.z.U.^ ^ ].;XU.;X'.;X'.;X} ^ U.l.U.u.T.z..   :.T p s V D S Y -.*.C d A M M M ",
"i ;.v.g.d.f.v.;.$.-.T *.*.@.*.-.$.*.. $ j.).c.x.c./.P.l.^ / _.;X;X'.;X;X/./.m ^ L.).L._.U.c..   $.T i i d d p P *.*.C d p d M M ",
"d T g.d.d.h.g.@.@.*.T $.*.-.*.:.@ # j.X.w. .L.~.l.~.H ^ n n ).P.U.c.l.x.}  .! ^ L.L.U.y. ...t.l.    d d C p d U :.-.M p M p p i ",
"d d i s s i p d p i d d C -.*.U   # u.F.X. .).).y.L.^  ./ ! E.P.z.=XE.P.^ F ^ _ I.I.L.Y...q.y.u..   *.-.P i d d d d M d a N C P ",
"a d s i d d p d p d i d d -.*.Y O # u.A.X. .L.L.^ _ 4X_.0X4X^ ( E.u.! _ 5XwX5X,X^ / Y.I.X.X.u.L.# . -.*.P i d s d i d i d a i D ",
"a K T T A d d d d M p d C @.@.U O . L.w.q.q.l.U._ ! 0XwX,XaXn H E.E._ ! 0X,X5X5X/ W H.F.q. .u.j.. $ T T P d d d S C A C C A N P ",
"i 4.N.m.P i d p i p d s d i p M d d H ^ } 2.(.R.! ! <XoXoX9X3X6X^ ! <X1X<X4X5XoX7XXX` /  .q.o . *.T i s d p i 0.v.m.v.n.m.b.N.f.",
"i @.g.n.P i s d M d d i d d M a p Y J } ..8.z.j.>._ <X7X9XoX3X3X/ ` 2XW.2X0XoX6X#XXXW / q.=.  + -.@.i d d d s 9.v.m.h.h.g.v.g.f.",
"-.7.0.i.L p p *.*.*.d d M d i S ;.*.8.,.3.>.) ) =XwXsXdX< 4 #X7X1XOX+X+Xh r fXsX%X$XG.K.  + &.&.Y K p d d p p -.7.9.d.f.d.i.d.d.",
"v.9.@.*.S p i h.n.N.p d d d p T v.v.<.3.,.>.! ! 5X5XlXsX3 3 6X<X2X8XOX9X4 1 cXsX|.%XV.B.o + 6.s.p d d p M d d i i i T @.@.*.T @.",
"m.9.*.-.D i i h.g.m.p d d d p T v.v.h.f.j.,._ / 0X4XsXlXo X iX0XW.OX8X4X  X fXgX%X@XC.G.  X &.%.p M d s d i p s d p *.-.-.-.*.-.",
"7.T C A C d i :.7.7.i s d d a A @.T :.9.<. ./ W +X+XsXlX. o }.+X@XOX@X7X# X fX6X8XOXZ.V..   6.r.s d s p P -.-.C d i P K K -.#.-.",
"*.K i s d p i *.$.@.d d d p p d d i K -.0.,.6 8 C.G.8XXX0X4X+X.X$XJ. X8X7X3XiX9XV.B.> , d i d d d M d i ;.m.v.U s p d p i *.*.-.",
"-.P s d C d s @.-.*.d p d M d M i a K $.1.2.2 6 G.C.OX1X1X+X%X X X$X.XW.8X0XoXXXG.V.8 l M i M d p d p i -.h.v.P i M p d d ;.-.*.",
"-.P s i P @.T -.*.-.i s S 0.0.:.d d A C + X {.#X< 8 V.C.1X<X+X$X+.o. X@XOX2XF.w.j - # # Y Y P d d C d d T 7.7.@.P P M d d D D K ",
"*.P s p T -.$.-.$.-.d d M N.v.0.i p C s X X &X*X2 < G.J.W.2X8X|.D.D.@X@X@X1XF.u.h h . . *.-.*.p s d d i K *.@.*.-.*.C p d a p N ",
"*.P p d U $.$.*.*.*.d i C v.f.9.i s e g =X[.&XyX4 n # # g 5 G.V.A.S.S.G.5 g # . 9 z X % @.*.$.d p M d i P -.-.*.;.$.C i d a d N ",
"d d d p C M d M d M p d M :.;.*.i d 7 j #XrXrXeXx b . # h - H.A.A.G.S.w.j f $   ' x X   A V A s d d d d M C M M M C M s d M d M ",
"d d d p d p d V d d M p M $.@.*.k 7 G.S.XX{.-XeXG u tX;Xm v 6 j 5 6 j n c r | { Q.&XrXpX| P d d d C i d d d d i d p d p M M d d ",
"i d d d M p p d d y P D P *.-.T e 5 O.+..XiXtXuXu G uX-Xx x z m < 2 c z b G ] ' rXrX*X'.| #.d s i d M C d i p d d t C s d d d N ",
"d d p d d p d d d d h.h.f.*.@.7.e 8 J.o.D.w.    @   uXtXrX!.rX;Xb v [ ' tX-X{ } {.}.y.u.h k p d p U g.h.;.s d d p d a.g.f.h.f.f.",
"i d d p d s d d d i h.h.g.@.@.7.r 7 C.o.F.u.. O   . >XtX[.!.eXeXx x [ [ -XuX] { ;X5XA.H.2 f p d i P N.g.:.i p d p p d.h.h.v.h.f.",
"d D @.*.A s p T T U i.d.0.*.*.;.0.i.g , j f P.j.  o 0.t.tXrXrXeXrXtX] ] tX-Xr.k.. # XX%X+X0Xf k A T h.h.*.d d d p d 0.h.g.g.f.d.",
"d *.n.m.T i p d.v.v.*.T @.*.*.Y i i e R - g E.R..   d.k.;X{.tX[.eX-X] ] >X>Xk.t.  . #X X%X+Xg 2 v.d.@.@.-.*.*.A d i @.*.$.*.@.-.",
"t :.h.n.U d p d.h.h.@.-.-.*.-.T i p M i d d   o ; e # . . # h k h h o o   + 0 w . # 0X8X|.8Xg f h.f.T :.-.*.:.A i i T T *.-.*.*.",
":.;.7.i.L d i 7.0.7.-.*.*.*.-.Y d d K -.;.S     1 ; # # # # 7 g e c .       w w . $ 5XXX8X+X: e d.i.T -.T Y T S d d *.*.;.T T T ",
"m.0.T -.D i i *.@.@.*.T -.;.*.T i i *.N.N.U   . ^ l ! ~ Q E ~ E 7 - f e e w     p d ; 5 5 g g.*.T *.$.-.D i i d p p T *.-.d i d ",
"g.7.*.*.L d d T *.*.*.*.-.T -.@.i s *.v.v.Y     F ! Q Q E ~ E ! 7 : e ; ; = O   p M Z : h k >XT -.-.-.-.P i d i d p T *.*.d d d ",
"7.*.A C A p d S S D -.*.-.-.*.@.i d Y 9.7.$.  # e : Q ~ Q l & # # . # $ O   D d hXd d d ;.*.;.D P U ;.-.P d d S P K *.*.;.d d d ",
"*.D i i d d d d i i -.*.*.-.*.T p i K *.*.-.@ $ * f Q B ! F # # .         @ D i p d p d d p d p i C *.-.P i p Y ;.*.-.*.-.d d s ",
"*.P d d d d d d C p *.*.*.*.*.U p p P *.$.-.@.*.# # ; f ; e ; w d d p K -.*.D d d M d d i p d d i S *.-.P i p P *.-.-.*.;.d d i ",
"*.T T T S d d d i d *.*.*.C C C d p M M d Y *.*.  # ; : f * y = d d s C A C C d p d d d 7.9.7.p d M A A C p d C A S S A S d i C ",
"-.-.-.;.D d d d d d *.*.*.i i d d p V d i U *.*.  O q * ; ;   O M p i d d d d d p M d d h.h.h.p d M d p d p d d p d d d d d i S ",
"*.| T *.S d d d d d @.*.@.p s d M p C C M Y *.*.@   * * = * .   V p d M p d M d i C d d f.h.h.i p d d p M d d d i d d d p d i S ",
";.Y d d d d d d i d d M d d p d p p T d.d.:.@.*.h.*.@ O O O d.i.9.y d d s d d d i 9.d.d.-.;.;.p p d d d d d d d d d d d d 0.0.d.",
"*.D i a d d d d d d d d d d i M i i -.N.v.7.@.T *.*.    O   v.m.a.i p M p d C d t i.v.h.-.@.-.p d d p d d d d d p d d d d h.h.h."
};
