/* XPM */
static char *_bb64bbf5b2e4a1eb06a816ceb556172[] = {
/* columns rows colors chars-per-pixel */
"64 64 201 2 ",
"   c None",
".  c #040203",
"X  c #0A0605",
"o  c #070806",
"O  c #0B0B0C",
"+  c #07060F",
"@  c #130C0A",
"#  c #1C130D",
"$  c #0A0912",
"%  c #120E10",
"&  c #131214",
"*  c #151319",
"=  c #1C1C1C",
"-  c #191711",
";  c #2D1D1A",
":  c #241916",
">  c #1B1D23",
",  c #171723",
"<  c #252325",
"1  c #2A2B2B",
"2  c #272829",
"3  c #332E29",
"4  c #312622",
"5  c #2E302E",
"6  c #38322B",
"7  c #2A2C38",
"8  c #2F3135",
"9  c #2E3039",
"0  c #333332",
"q  c #3D3B32",
"w  c #3B3A3A",
"e  c #3B3737",
"r  c #50372D",
"t  c #413C34",
"y  c #4A3D35",
"u  c #423F3F",
"i  c #46403A",
"p  c #5F4A35",
"a  c #554339",
"s  c #584A3B",
"d  c #61442E",
"f  c #6B4C39",
"g  c #77543A",
"h  c #3A3B42",
"j  c #3F4141",
"k  c #3F4150",
"l  c #434343",
"z  c #4B4A45",
"x  c #46464A",
"c  c #4B4B4D",
"v  c #47484A",
"b  c #594E47",
"n  c #5B5144",
"m  c #5A534E",
"M  c #51514F",
"N  c #4D4E51",
"B  c #4A4D5C",
"V  c #4E5053",
"C  c #525355",
"Z  c #595655",
"A  c #555659",
"S  c #56585A",
"D  c #5A5B5D",
"F  c #5A5358",
"G  c #625848",
"H  c #725949",
"J  c #615D5C",
"K  c #635A54",
"L  c #6A6541",
"P  c #64645F",
"I  c #7A6957",
"U  c #79755D",
"Y  c #5D5E61",
"T  c #555D6A",
"R  c #595E71",
"E  c #5E6062",
"W  c #626365",
"Q  c #6D6966",
"!  c #646669",
"~  c #67696B",
"^  c #6A6B6D",
"/  c #686768",
"(  c #726E69",
")  c #716A67",
"_  c #7D7963",
"`  c #73716C",
"'  c #7A7662",
"]  c #6D6E71",
"[  c #676875",
"{  c #6E7073",
"}  c #6D717B",
"|  c #727375",
" . c #7B7772",
".. c #7E7976",
"X. c #757679",
"o. c #77797B",
"O. c #7A7B7D",
"+. c #767877",
"@. c #895834",
"#. c #86664E",
"$. c #916647",
"%. c #9D704E",
"&. c #816C5C",
"*. c #9B7454",
"=. c #A06D49",
"-. c #A7734B",
";. c #827F6C",
":. c #8A7668",
">. c #967B65",
",. c #817B7F",
"<. c #89867B",
"1. c #908A77",
"2. c #96937A",
"3. c #B78C6D",
"4. c #A98F7B",
"5. c #AF977E",
"6. c #B59175",
"7. c #D0A078",
"8. c #656D80",
"9. c #7D7E81",
"0. c #807F84",
"q. c #7E8183",
"w. c #828385",
"e. c #8C8B85",
"r. c #848689",
"t. c #86888B",
"y. c #88898B",
"u. c #88898D",
"i. c #898A8E",
"p. c #898B8D",
"a. c #898787",
"s. c #9C9287",
"d. c #8B8C90",
"f. c #8D8E91",
"g. c #8D8E91",
"h. c #8F9094",
"j. c #8E9193",
"k. c #919296",
"l. c #929395",
"z. c #95969A",
"x. c #959699",
"c. c #97999C",
"v. c #999A9E",
"b. c #9A9B9D",
"n. c #9B9A96",
"m. c #928A89",
"M. c #A19C95",
"N. c #A39E99",
"B. c #A7A693",
"V. c #BFAA96",
"C. c #B8B395",
"Z. c #B6B38B",
"A. c #9D9EA2",
"S. c #9C9EA1",
"D. c #919AA7",
"F. c #9FA0A4",
"G. c #9FA1A3",
"H. c #A1A2A6",
"J. c #A2A3A5",
"K. c #A5A6AA",
"L. c #A5A6A9",
"P. c #A7A8AC",
"I. c #A7AAAC",
"U. c #A9AAAE",
"Y. c #AAABAD",
"T. c #AAA8A7",
"R. c #B2AFA8",
"E. c #B5B2A3",
"W. c #B8B4AA",
"Q. c #ABACB0",
"!. c #ACADB1",
"~. c #AEAFB3",
"^. c #ADAEB1",
"/. c #B0AFB0",
"(. c #AFB0B4",
"). c #AEB1B4",
"_. c #B1B2B6",
"`. c #B2B3B5",
"'. c #B5B6B9",
"]. c #B6B8BB",
"[. c #BABBBC",
"{. c #B9B6B1",
"}. c #C79E83",
"|. c #C4A283",
" X c #C8AE95",
".X c #CAB79C",
"XX c #D6AA86",
"oX c #C1B9A3",
"OX c #C5BEB5",
"+X c #D7C7AB",
"@X c #CCC5BD",
"#X c #C6C5BF",
"$X c #CEC7AF",
"%X c #EED8B3",
"&X c #E3CBA7",
"*X c #BFBDC2",
"=X c #BDC0C6",
"-X c #C2C1C1",
";X c #CFD1C0",
":X c #DEDDCA",
">X c #EBE8C8",
/* pixels */
"9.O.O.X.q.o.o.O.o.o.o.O.o.O.+.O.9.X.V N C c N | O.9.H.K.H.H.P.h.| 9.S c C C x ! q.| o.9.9.| w.o.w.9.D N N O.O.| q.| O.O.o.C l   ",
"w.w.r.w.r.w.w.y.t.w.O.w.q.w.t.w.q.w.Y D A A C | q.i.P.!.!.P.U.c.i.i.W A D A C { r.w.r.w.r.9.9.r.w.r.E V A 9.u.p.w.y.r.r.w.W A   ",
"q.r.w.r.w.w.r.{ ~ X.w.i.r.w.t.| ^ ] A D W O.] k.A.v.k.f.z.k.S.X.^ ] D A W | | 9.w.w.w.O.i.A.A.h.9.f.O.| X.q.w.9.W ^ ~ ^ ^ | |   ",
"q.r.9.y.w.r.t.Y l E 9.w.r.w.r.S A Y A D ] f.9.H.(.U.r.O.w.9.r.~ C C D A W r.w.q.9.r.r.9.i.K._.A.9.u.w.r.i.r.w.O.A C A C C 9.w.  ",
"r.i.O.r.w.w.w.^ A ] w.w.r.w.r.W A A D C W r.w.F.(.!.r.9.u.w.r.~ D A E S Y r.9.w.9.9.9.q.d.F._.v.w.w.r.9.9.w.r.9.A V W S D O.O.  ",
"w.O.D W Y Y Y o.9.w.w.w.r.9.y.W A Y w.w.9.r.q.9.r.r.Y D W Y D | r.9.9.9.r.P.K.L.U.U.K.K.H.i.r.d.w.w.i.w.9.r.r.9.A S | o.w.r.w.  ",
"u.o.A A S S S 9.d.w.O.9.r.9.i.Y N S q.i.r.r.w.9.w.9.D A A A N ^ i.w.q.w.f.Q.Q.!._.U.U.Q.K.w.O.u.r.9.r.w.r.r.r.| A A | w.r.w.w.  ",
"9.| S Y Y Y Y 9.r.9.i.d.r.O.O.^ W ^ O.w.O.q.r.r.r.w.Y A S ! E X.u.w.w.9.i.U.H.K.K.H.Q.U.H.r.r.w.w.q.r.w.r.O.9.| ! S o.i.w.r.w.  ",
"C Y Y S X.d.r.w.O.f.U.'.w.C C 9.r.w.r.t.9.w.r.9.r.r.W N ] i.r.9.q.r.9.w.q.q.X.z.(.U.P.K.H.r.w.r.w.r.r.r.9.S V E t.i.r.w.9.r.9.  ",
"C Y A C ] r.q.w.O.i.!.'.w.C C o.w.w.w.w.q.w.r.t.r.w.W N ^ w.w.r.r.r.i.w.w.w.9.z._.K.!._.!.9.9.w.r.9.O.r.q.A C ! w.r.w.w.w.t.i.  ",
"] | | ] 9.t.t.k.z.z.z.c.r.! W w.r.t.r.w.w.w.r.o.^ | { ^ X.w.w.w.9.9.w.9.r.k.k.c.A.k.z.v.v.q.r.r.i.r.q.r.r.] { | w.w.r.r.w.| ]   ",
"r.d.f.t.w.9.w.!.'.H.9.X.r.r.i.r.O.w.w.w.w.O.w.W c Y 9.r.r.w.w.r.w.i.9.w.h._.].k.O.9.O.O.9.r.w.r.r.r.r.9.r.r.r.t.r.9.w.w.w.E C   ",
"9.9.w.w.r.w.r.F.U.A.r.9.w.9.w.w.O.r.r.q.r.w.w.^ V E q.u.r.w.w.q.9.r.w.q.i.L.!.v.9.r.w.w.w.u.w.q.w.q.q.9.r.u.q.q.q.t.u.r.w.W C   ",
"i.u.9.w.z.A.A.!.!.A.w.r.w.w.i.w.w.i.w.O.j.H.G.t.| O.w.9.w.r.w.r.w.w.F.A.A.i.i.f.q.q.w.w.w.! W ] t.q.q.r.r.q.q.r.q.t.| E ~ X.O.  ",
"9.w.O.q.A._._.!.Q.G.O.w.w.w.w.9.O.w.q.O.x.'.'.k.r.y.y.q.w.r.q.w.w.9.!.(.Q.q.O.9.9.w.r.r.q.C N E r.q.w.r.q.q.r.r.9.t.] V C O.t.  ",
"r.d.u.r.l.H.K.H.H.G.q.y.9.w.w.f.w.w.p.r.j.P.H.f.O.w.t.w.r.r.9.q.r.w.H.L.F.w.r.r.9.r.9.9.9.! Y { t.q.r.q.q.u.r.p.O.t.{ S A q.t.  ",
"U.K.U.Q.z.9.r.9.u.r.O.r.w.w.9.G.K.!.K.U.z.O.w.r.r.9.w.r.X.S S | r.9.r.r.w.w.r.r.w.r.! C Y q.q.u.r.q.q.q.r.P.P.G.q.r.| A S w.t.  ",
"Q.U.U.U.c.9.w.w.r.q.w.O.w.r.9.L.K.(.U._.A.9.w.r.i.w.r.f.O.C c ^ w.9.O.q.r.r.i.q.r.r.! V Y q.r.u.q.q.q.q.9.L.].P.w.r.] C A o.O.  ",
"U.U.K.U.z.9.w.w.w.q.r.9.r.r.9.K.P.Y.z.A.k.9.w.X.^ | X.| | | W 9.v.c.w.w.r.] { { X.X.^ ! { q.9.q.q.q.d.z.h.l.S.f.^ | | ! ^ i.l.  ",
"K.U.U.!.l.9.r.r.u.r.w.i.q.q.9.G.P.L.O.O.w.O.w.^ N S S c W i.9.b.!.!.w.9.O.A S A A S X.r.t.r.r.r.q.9.F.(.(.r.r.o.V C | w.r.P._.  ",
"U.U.K.Q.z.q.r.w.q.w.w.r.9.w.9.Y._._.w.w.r.r.i.{ D S A C W w.O.v.K.'.p.i.w.S A Y D A 9.u.q.9.q.r.q.o.S.U.P.o.r.O.S c { 9.9.J.U.  ",
"!.K.d.k.i.w.w.] W ] r.9.f.H.v.f.p.p.W ! W W ! D N Y | | q.H.b.x.y.l.! ! ^ A Y D S C X.w.q.r.r.j.F.S.G.Q.P.r.t.r.O.| r.w.9.K.Y.  ",
"!.A.O.q.w.w.w.Y N E r.9.c.'.!.y.9.O.A S C C S D C ~ y.9.p.`.!.k.O.t.S C Y A A D D A X.w.q.r.o.h.(.(.G.(.P.u.o.O.w.r.p.9.q.G.!.  ",
"Q.H.9.r.r.w.w.! C ! 9.r.k.!.P.p.w.w.S D S S D D D Y q.r.i.K._.k.X.y.D C Y D C D D D O.r.q.t.o.z.U.I.U._.L.r.q.i.w.r.r.w.i.b.Y.  ",
"w.i.9.r.{ C D q.y.9.w.w.w.r.w.t.w.9.A D D D D | y.w.Y.Y.Y.U.Y.k.O.y.W Y W r.w.r.r.w.r.q.d.L.P.Q.U.U.G.U.P.q.r.r.w.O.c.(.K.U.U.  ",
"O.w.q.r.~ c Y O.y.w.w.9.9.r.t.w.r.t.A C C A C o.y.q.H.K.Y.U.].x.r.y.A N Y r.9.w.O.9.w.o.q.K.P.P.).Q.(.P.(.r.q.r.r.w.v.Y.K.!.`.  ",
"w.y.w.t.{ C W 9.y.w.w.w.w.r.w.9.q.w.S D Y ^ ! | w.r.P.!.!.k.G.r.o.o.! W ^ r.w.i.d.f.h.d.d.P.U.K.F.S.L.c.G.r.q.q.| o.x.!.Y.K.G.  ",
"w.t.w.w.] C D 9.r.9.w.w.w.w.q.y.r.w.C S ^ t.w.i.w.r.!.!.f.v N C N D w.i.r.r.9.z._.Q.Y.Q.U.)._.v.q.9.q.9.9.q.q.9.N c r.'.L.r.X.  ",
"w.t.i.w.^ A D o.w.9.w.q.w.w.w.w.w.q.C c ! r.9.w.| 9.Y.].c.A E S D C 9.9.w.9.o.z.(.U.!.Q.(.P.(.S.q.q.q.r.q.u.t.q.C c i.'.Y.r.O.  ",
"~ ^ ^ ~ ^ ^ { w.w.O.w.w.r.w.r.| ^ | | | X.r.9.z.A.z.w.w.l.J.k.| | ^ x.k.A.z.z.z.f.f.z.u.h.h.z.j.q.u.r.w.q.} ! ] r.r.p.p.k.i.w.  ",
"C C C C X.i.r.t.r.q.w.w.t.w.w.D c D r.y.w.w.9.b.[.L.e.@Xs.&.I oXR.r.U.(.(.!.'.v.O.w.w.o.9.9.q.q.q.t.r.9.q.D N { [.'.c.| w.w.O.  ",
"S D D A | w.O.w.w.w.w.w.w.q.t.W A E r.w.w.r.w.i._.L.@Xd #.3.g g I W.b.!.U.K.P.v.O.i.9.u.i.q.q.r.9.r.w.w.q.D C ^ !.J.b.q.r.q.9.  ",
"A ! q.o.w.w.w.w.r.t.9.r.c.A.P.w.O.O.w.w.r.9.r.| W @Xp 6.%.@.-.$.|.1.[.U.Q.~.K.v.O.w.! D Y W D W Y Y W W Y o.o.w.t.w.i.w.9.W E   ",
"C ! r.r.r.w.w.w.9.w.9.X.l.`.(.i.w.w.r.r.r.w.i.W S s.>.g @.=.-.7.*.>.M.K.K.[.r.v.w.r.W N C S A Y C C A C C i.t.r.9.r.y.t.y.D V   ",
"W | w.r.w.9.w.r.q.r.k.r.k.U.b.r.w.r.w.w.9.9.r.~ S m H }.$.3.XX%.6.H OX#X[.l.O.f.| O.] ! W D S W D S W ! D r.O.y.O.r.O.| X.~ !   ",
"w.r.w.w.r.w.r.q.9.y.K.U.l.r.w.9.9.w.9.w.q.q.r.| W m.:.f f g d f r s K e.e.z X.| C Y | r.9.E D Y E D | p.9.r.O.r.w.w.] A D O.w.  ",
"r.r.9.9.w.O.O.w.O.y.K.'.z.X.w.w.w.r.O.r.r.w.r.^ c J n a 4. X5.V.:.: ) Q C | t.] N C { u.r.D A A A N ^ r.r.O.w.w.w.w.{ A A 9.r.  ",
"w.r.r.r.r.9.w.c.k.b.Y.U.z.9.y.w.r.r.9.r.9.] ^ X.{ {.# n +X&X%X.XI <.3 / A X.d.9.] { O.w.w.S A ^ { { w.q.r.9.y.r.O.t.] A E O.r.  ",
"w.q.r.9.w.O.w.U.Y.U.!.Y.x.w.w.w.w.q.w.w.| C C | OXE.t b :.+X.XG 6 2.;.q w w 9.w.r.r.r.r.w.S A ] r.r.p.w.r.q.r.r.q.t.] C Y O.y.  ",
"w.w.w.O.r.9.9.K.Y.J.Y.!.z.r.w.r.w.O.r.r.] N C n.:X>X_ 3 4 G n n s >X>XoXW.J.w.9.q.w.w.w.w.C C ~ j.q.O.w.w.q.r.q.r.r.| C A O.q.  ",
"q.t.U.b.H.A.b.U.U.H.i.f.y.w.w.w.w.r.r.q.q.w.O.r.' 2.1.#X. Q e <.;.$XZ.+X_ f.r.h.Q.H.X.A ! O.O.X.w.w.w.q.r.w.w.O.W D { O.O.w.w.  ",
"w.f.`.U.!.Y.!.U.Y.H.q.9.r.w.9.w.w.w.9.w.q.O.w.b.q 1.B.v ^ | O.= ;XC.L C.G J.O.k.!._.] C D w.r.q.w.r.w.9.O.9.q.O.N N X.i.r.w.r.  ",
"w.i.K.U.L.H.P.H.P.A.w.w.t.r.w.r.w.t.w.w.t.r.y...M.e.P M W ^ l | z B.U ' E. .r.A.H.U.] Y W 9.q.i.w.r.w.r.9.y.y.9.A D | q.r.r.r.  ",
"K.U.!.Y.k.q.w.w.w.w.9.w.w.q.w.w.9.r.w.9.x.Y.L.-X` C . < j ~ W 1 l 0 <.e.( /.P.z.w.r.o.9.r.y.w.r.O.9.w.r.w.Y.Y.H.w.w.r.O.r.t.w.  ",
"K.!.U.!.l.9.w.w.q.w.w.w.w.w.t.w.r.O.O.o.f._.(.X.w.= & A l D ` z l + 7 ! 8 !.(.A.9.q.r.w.r.9.O.w.w.w.q.9.O.U.!.H.q.q.t.q.w.w.q.  ",
"U.Y.c.b.f.w.w.r.w.w.w.q.r.q.w.r.z.i.f.z.k.v.J.] 9.1 l 1 | J ` ( O , k } V K.U.z.9.r.w.q.r.k.k.i.k.f.l.x.k.b.c.v.w.q.i.w.q.i.j.  ",
"K.G.9.w.w.O.q.q.w.w.w.w.i.r.w.K.'.`.!.`.c.O.r.! Y N 1 [ X.i...e % C l > O.~.Q.v.q.r.q.w.i.Y.U.'._.Y.!.!.U.w.O.O.O.O.w.O.r.Y._.  ",
"Y.H.q.w.y.w.r.y.r.q.q.o.w.9.O.H.K.Y.L.Y.H.q.A.S.! 8 9 B R + o  .m z l 0 w.!.Q.S.q.w.q.9.r.Y.K.Y.K.P.U.U.'.9.i.w.t.w.t.O.O.H.Y.  ",
"k.k.w.y.| Y ^ 9.r.r.b.H.c.H.b.x.y.i.b.f.w.W A < F > 7 8.R B = N.( c 1 | z.f.f.f.w.9.0.w.r.K.!.H.i.x.j.i.i.y.r.r.r.O.k.H.A.k.y.  ",
"9.r.r.r.! c S O.w.f.Y._.U.`._.r.O.o.w.9.| C M c F % h D.T 9 * ..Z e w 9.9.w.9.9.w.9.r.O.w._.!.v.o.o.o.9.w.o.O.r.w.O.b._.Y.i.X.  ",
"9.w.w.O.^ A Y 9.O.y.Y.Y.L.G.K.r.w.t.r.r.X.C D Q D < ~.=Xc.0 2 w.l * h r.r.r.q.r.i.q.r.w.i.K.K.x.r.i.y.w.r.O.i.w.w.w.v.Y.K.f.q.  ",
"Y Y D S X.O.q.i.w.i.Y.U.b.r.y.w.9.t.9.w.| C S ] Y.C ,.& % Z . z.Q.u.x 9.r.w.r.q.w.w.c.Q.H.w.r.9.w.w.w.O.r.w.w.i.K.J.x.w.r.9.O.  ",
"D S A c | r.r.w.o.i.K.Y.c.o.9.i.w.y.w.i.X.S A o.y.e ; ; # @ . r.z.! w 9.t.w.r.r.q.q.S.].!.q.r.w.i.q.w.q.w.y.w.i.`.`.c.O.r.r.i.  ",
"A Y | ! X.w.w.f.p.v.U.(.z.O.t.X.^ X.| X.] ! W O.k.n.y a y # . . . O p.r.r.w.9.r.q.w.z.F.c.t.q.w.O.{ w.w.O.w.w.i.A.v.k.w.t.o.X.  ",
"S ~ p.w.q.w.w.P.P.Y.P.(.j.o.w.E C D S C W q.t.r.i.N.t i n . x.. o v w.r.r.w.r.u.q.q.q.9.q.r.r.X.C V { t.w.q.q.O.q.o.q.O.q.Y S   ",
"V W w.r.r.r.q.J.P.Y.P.[.c.w.p.E S S S V W r.q.q.t.e M - <.0 *XO o w w.q.r.O.q.w.o.d.w.u.d.q.u.X.c S | t.w.q.t.w.r.q.p.r.w.D V   ",
"{ o.w.t.t.O.w.J.(.G.j.l.O.~ ^ D D E o.{ O.w.w.r.t.w.< w 2 S v.E & W 9.w.t.b.c.l.q.w.{ ! W { ~ ~ O.^ O.t.q.o.t.w.w.o.q.W ^ { X.  ",
"t.r.q.9.t.w.q.P.Y.b.q.w.~ S S D C D t.t.w.q.r.w.j.Y.O 2 = < ] { t.j.q.q.t.(.'.b.O.q.E C S C C ~ p.t.r.w.q.9.w.w.w.q.{ V E O.t.  ",
"q.q.t.q.r.r.w.H.P.J.9.w.{ D A S S Y 9.w.w.w.w.r.k.T.w Q u 0 T.] q.t.O.9.k.U._.z.q.y.~ S D C V ! w.w.9.9.r.r.w.t.9.y.{ C S O.q.  ",
"r.q.i.w.x.Y.Y.j.q.w.w.i.^ C E O.r.w.w.9.r.r.w.O.i.Z l X 0 J ..= 2 9.J.U.v.W Y E E E A C Y w.r.w.r.w.q.w.r.w.w.o.C W D A D w.r.  ",
"r.w.y.9.b.`.K.w.w.t.r.r.| C N O.w.r.w.q.w.w.r.O.c.g.0 i < X 0 S ^ w.U._.G.C A C D C S A S w.w.r.q.w.q.w.w.9.r.O.N C A S A O.q.  ",
"9.O.y.9.c.K.K.i.w.O.O.| ] D E q.w.r.w.w.w.O.O.r.p.0 O o 0 0 w.r.q.r.l.U.l.C S Y D C D E ! 9.w.w.q.r.w.w.y.o.O.o.! Y D D W w.y.  ",
"C Y w.O.w.O.w.r.y.| A A | r.y.w.9.w.9.w.r.w.r.! C 5 o O c Y.K.K.'.'.A v S S D D A Y o.r.r.r.r.r.r.r.9.O.w.D C W w.r.f.r.w.w.9.  ",
"C W r.w.r.o.w.w.w.| A C ! w.w.r.O.9.9.O.O.O.r.^ c D E ~ r.K.L.Y.H.`.W C A A C A C A X.r.9.9.O.O.9.w.w.9.r.S C D i.O.w.O.w.O.O.  "
};
