/* XPM */
static char *fb7f823caf7e4afa9513e3059cd078ca[] = {
/* columns rows colors chars-per-pixel */
"64 64 232 2 ",
"   c #030202",
".  c #0B0201",
"X  c #060805",
"o  c #0C0C0A",
"O  c #130201",
"+  c #1B0301",
"@  c #160A06",
"#  c #0E100C",
"$  c #191418",
"%  c #260901",
"&  c #2E2629",
"*  c #322F31",
"=  c #3A3437",
"-  c #57342C",
";  c #443739",
":  c #573A39",
">  c #683731",
",  c #4C463A",
"<  c #5C4439",
"1  c #58543A",
"2  c #69452F",
"3  c #63463D",
"4  c #67493A",
"5  c #74463A",
"6  c #473A44",
"7  c #563C43",
"8  c #4D4A4B",
"9  c #584846",
"0  c #5B534B",
"q  c #4E4F51",
"w  c #4F5052",
"e  c #535456",
"r  c #5B5F50",
"t  c #565659",
"y  c #58575C",
"u  c #57585A",
"i  c #5A5B5D",
"p  c #624944",
"a  c #674946",
"s  c #774B48",
"d  c #734F4B",
"f  c #68554B",
"g  c #6A5859",
"h  c #765754",
"j  c #566B4B",
"k  c #4C724F",
"l  c #5A6B54",
"z  c #577556",
"x  c #69634D",
"c  c #696956",
"v  c #746D5C",
"b  c #667357",
"n  c #7E735E",
"m  c #5D5E60",
"M  c #605F64",
"N  c #795C61",
"B  c #5F6062",
"V  c #626365",
"C  c #6F6161",
"Z  c #666669",
"A  c #67686A",
"S  c #6A6B6D",
"D  c #786866",
"F  c #7B7568",
"G  c #6E6E71",
"H  c #706F73",
"J  c #6F7072",
"K  c #727375",
"L  c #7B7A74",
"P  c #767679",
"I  c #77787A",
"U  c #7B7B7D",
"Y  c #85564E",
"T  c #876252",
"R  c #86755A",
"E  c #815F60",
"W  c #836766",
"Q  c #877768",
"!  c #857B6D",
"~  c #94766B",
"^  c #8C6E73",
"/  c #877B73",
"(  c #967171",
")  c #A4746C",
"_  c #7C806F",
"`  c #788975",
"'  c #87806E",
"]  c #97816B",
"[  c #878479",
"{  c #968678",
"}  c #A88C79",
"|  c #AE947C",
" . c #D49B7F",
".. c #D2A07F",
"X. c #7E7E81",
"o. c #807F84",
"O. c #A67E86",
"+. c #7F8082",
"@. c #7C9881",
"#. c #828385",
"$. c #8D8C85",
"%. c #858689",
"&. c #88878C",
"*. c #87888A",
"=. c #8A8A8C",
"-. c #968B8A",
";. c #8D948A",
":. c #95938C",
">. c #9A9689",
",. c #8E8E91",
"<. c #878E98",
"1. c #8E9193",
"2. c #929395",
"3. c #989897",
"4. c #969699",
"5. c #9A9B9C",
"6. c #AA9887",
"7. c #B89787",
"8. c #AF9596",
"9. c #A49D9A",
"0. c #9BAC98",
"q. c #A6A99A",
"w. c #BCAD97",
"e. c #B8A99A",
"r. c #9599A2",
"t. c #9E9EA1",
"y. c #A09FA4",
"u. c #9FA0A2",
"i. c #A2A3A5",
"p. c #A6A6A9",
"a. c #A8A7AC",
"s. c #A7A8AA",
"d. c #AAABAD",
"f. c #B8AEA6",
"g. c #BDB1A3",
"h. c #B6B4AB",
"j. c #BDB4AC",
"k. c #B9BAA8",
"l. c #AEAEB1",
"z. c #B0AFB4",
"x. c #AFB0B2",
"c. c #B2B3B5",
"v. c #BAB8B5",
"b. c #B5B6B9",
"n. c #C29986",
"m. c #CE988F",
"M. c #D49C88",
"N. c #CBA58D",
"B. c #D7A38D",
"V. c #C7A895",
"C. c #D1AD9B",
"Z. c #C3AFA4",
"A. c #D9A9A2",
"S. c #C3B3A3",
"D. c #C5BAA7",
"F. c #C3B4AB",
"G. c #C3BAAC",
"H. c #CBBBAD",
"J. c #D5BAAF",
"K. c #C6B7B2",
"L. c #C4BCB3",
"P. c #CABDB3",
"I. c #F5BDB1",
"U. c #BCCEB8",
"Y. c #BAE3B9",
"T. c #CAC2AD",
"R. c #D9C4AF",
"E. c #CBC3B5",
"W. c #CAC7B6",
"Q. c #CDC5BA",
"!. c #D2C4B4",
"~. c #D3CAB5",
"^. c #D3C2BA",
"/. c #D4CBBC",
"(. c #DACCBC",
"). c #D6D1BE",
"_. c #DCD2BD",
"`. c #EAC8AA",
"'. c #FACAAC",
"]. c #F4D0AC",
"[. c #E8C9B7",
"{. c #F8CAB7",
"}. c #E8D3BD",
"|. c #FAD6B6",
" X c #F3D3BB",
".X c #FDD3BC",
"XX c #C4C3C1",
"oX c #DAC7C0",
"OX c #D2CDC2",
"+X c #DACCC1",
"@X c #C3DFC4",
"#X c #CBD9C6",
"$X c #D4D0C4",
"%X c #DCD3C3",
"&X c #D8DCC7",
"*X c #DCD6CB",
"=X c #DCDBCD",
"-X c #D9DED3",
";X c #EBCAC3",
":X c #F6CDC7",
">X c #FCCEC2",
",X c #E3D5C5",
"<X c #E2D4CB",
"1X c #E3DACB",
"2X c #EAD8C9",
"3X c #F3D3C4",
"4X c #FDD3C3",
"5X c #FDDBC3",
"6X c #FCD4CA",
"7X c #F7D9C9",
"8X c #ECD7D2",
"9X c #FCDDD1",
"0X c #C8E5C7",
"qX c #D7E2CA",
"wX c #D6E8D2",
"eX c #D0F0D3",
"rX c #E6E1C8",
"tX c #FDE3CC",
"yX c #EAE7D8",
"uX c #F6E6D7",
"iX c #F5EBDC",
"pX c #FBEDDE",
"aX c #FAF3D9",
"sX c #FDF5DC",
"dX c #F9EBE1",
"fX c #F1EBED",
"gX c #FDF2E3",
"hX c #F7FDE3",
"jX c #FDFAE6",
"kX c #FFF4EA",
"lX c #FFFDEA",
"zX c #FFFBF2",
/* pixels */
"e i i e i e i d.d.l.X.X.X.e i m i i i i e i e t X.#.#.t t m i i u t i 2.b.c.K u t i e V #.#.#.#.#.P t i i i i u i Z p.l.l.X.o.#.",
"i V i i B t t p.s.x.U X.X.e i i t t i i e i i i #.+.*.i i i t t t t e =.l.c.S e i i u i #.#.%.#.#.K t t i t e i t m p.d.d.#.%.%.",
"e K %.#.V i i 5.5.2.#.#.#.e i i t i J +.U V e e I K U e e V U K I U K ,.t.t.S t i i i i %.X.#.U P J t i A K J m u i 2.t.2.#.#.X.",
"e 2.l.b.G u e #.U U #.#.#.e t B t e =.c.b.G t i e e e i t J b.c.x.d.x.4.U #.V u t m u i #.%.I e e i t i =.b.d.G u t u e m #.#.X.",
"e =.l.x.S e t *.#.#.#.#.X.i i i e t 2.l.d.S w u i m i i e S l.l.d.d.d.4.+.#.V i i m i m #.=.U e i i e e ,.c.l.S i i i t V %.&.U ",
"e #.2.1.V i i #.#.#.S A S t e K ,.*.,.1.5.U K K i i i i u V %.X.%.2.2.=.+.%.V i u u t i S G S i e S *.#.2.2.4.S i t i e i K K S ",
"e K #.#.Z u u #.#.+.u e i i t +.c.l.4.U #.X.#.*.V i t #.#.*.2.,.2.2.,.U S 4.5.i u i i t i e t i u #.c.d.4.+.X.V t t i i i i y i ",
"i K %.+.V e u #.#.#.i i i i t X.x.d.4.#.#.%.%.*.m i i L [ [ >.$.:.$.:.U K 5.2.u e i w i e i i t e #.b.c.5.#.#.V i i i i t e e m ",
"i V V V m i e V B Z e i m i t V J S U #.#.S m [ F / D *XQ.*X%X/.$X/.OX*XOXF / F F >.:.-.:.i B i m A I K J A S m i i m i Z 2.,.&.",
"i i t t i i i i i t u i m e t m e e K %.*.B t F / / ! (.(.T._.(.%X).+X~.(.! ! F ! >.>.9.$.t i i e i e t t t u u u i i t S z.l.y.",
"e B i i V i V e e e V i i i t V i i K #.%.  . L.P.^.~.lXpX,X~.S.g.%X%XdXgX/.~.P.L..   s.t i t B i t e e t t t i u i i t Z l.c.4.",
"i V u e 5.d.d.V i i d.s.5.u i i i i i u m X   P.g.,X1XuXiX(.%XD.E.~.+XpXiX1X/.Q.f.. @ =.e m S t.5.p.t.i.2.U +.V i i i u V ,.2.=.",
"i t u e t.s.l.V t e b.p.s.q u i e t i     f.Q.iXgXiXpX1X,XS.H.e.H.G.g.,X(.iXpXdXkXL.h..   i S c.d.d.p.c.4.U %.V u i i u m #.#.#.",
"i S S S 2.l.d.i u i d.d.5.i i V m B m     OXL.yXlXaXsX!.H.P.^.H.P.^.H.(.(.gXpXgXkXG.Q.    i G x.s.x.d.d.4.+.%.V e u i t m #.%.%.",
"e =.x.d.1.U %.i i i X.X.%.%.#.#.#.#.G 9.$.$X~.lXrXaXaX!.!.(.^.F.F.^.!.,X(.pXgXiXiX%X/.>.-.i i *.#.+.#.#.#.#.+.V e i i i i i i m ",
"e ,.d.s.1.U *.i e m *.%.#.+.%.%.#.%.K 3.:.%X).aXsXsXsXe.g.<XoXK.^.+X_.!.(.gXjXiXgX*XQ.:.9.i V =.%.%.#.+.#.%.%.V e B t i i i t i ",
"P =.i.i.,.#.%.m i m P I U %.+.%.#.  . v.j./.%XT.,Xw.D.jXgX+X<X+X^.<X(.gXgXiXuX(.(.W.*XL.h.  X #.P #.*.#.%.U X.A u w Z m i i i i ",
"l.4.U #.+.%.%.i i t e t V #.#.#.#.X . j.L.$X%X).!.D.~.iXuX<X^.<X2X+X/.pXgXgXgX%X(.%X/.L.v.X   i t A #.U J e u t i V d.l.d.i V i ",
"d.i.+.%.+.#.X.i t i e t V #.#.%.%.. O L.j.g.g.~.}.n F jXjXgXyXkXgXiXgXpXiX~.(.!.<Xk.!.f.v.    e u S *.%.G e i e t u t.d.d.e e i ",
"=.U #.%.K K P Z i m i i V K K I P . . G.P.H.E.%XD.' F yXgXpXlXyXgXkXkXyXzX%X,X(.!.P.6.%XL.  # i i A U X.G i t G K P 5.t.5.K H P ",
"e K #.%.V t e i t i t i i t t i e . O F.G.F.e.G.E.j.L.! [ /.!./.(.(.%X/.E.v { Z.H.H.W.j.e.. . i i i e e t i i 4.c.d.%.U *.l.z.p.",
"i G #.*.V u t m i i e u t i t m e . % H.H.E.E.j.L.j.E.c ! ~.1X).(.(.*X=X*X! Q g.!.S.G.F.!.. . i t i i i i e u 4.d.x.%.#.#.l.l.i.",
"i V Z S i t V i i i i i V 2.,.$ . F.} 6.{ g.P.F.K./ ! [ / k.W.e.T.j.h.D ! F / G.g.D.f.6.{ e.f.X   i i i i i i *.5.5.%.#.%.5.4.2.",
"e i t t i i i e i t i t S b.d.  . e.V.] 6.H.P.^.Z.W / Q Q D.k.k.W.U.E.! R R Q g.OXL.E.{ } V.e.o X m e i i i t P #.+.#.X.*.#.#.o.",
"i i i u m i e V i i t e A p.d.  . V.N.} 6.S.S.~ ~ 3X3X3X}.R F T.h.L / }.`.|.3X! D v.g.} 7.n.e.#   B t i t u i I X.#.*.X.%.#.%.X.",
"i i u i i i e 5.5.5.U U U K S $ O w.N.} 6.H.Z.~ ~  X{.[.}.~ n E.h.L W .X|.'.].Q F XXF.6.) C.Z..   +.e i P =.=.#.#.#.#.#.#.S S S ",
"i i i i B i e s.d.d.+.#.X.q e i u L R { { P.^.! F rX X5X3X:X;X( / 8X6X[.`.5X9X3X8Xc { / q..   b.c.4.q t =.b.c.,.#.+.#.X.%.y i i ",
"e V V V V m V i.d.s.%.#.#.i i m e L Q >.>.h.q.[ ' _.R.tX[.9X;X~ ~ 3X[.uX[.[.[.3X[.] ! 6.[   # yXd.5.e i *.x.d.1.#.#.=.%.#.y i t ",
"e #.s.p.d.d.u.*.#.*.U #.%.U X.%.#.>.>.>.[ ` ;.OX1XgXsX1 < 7X9X{.9XI.7X: g zX9X5X|.n.6.. o ;.;.*.d.U t u B S A I %.#.V i V m m m ",
"e *.l.s.i.p.l.*.+.%.U #.#.X.#.%.+.$.>.L 3.K D yX*XgXhX, f }.[.>XI.4X3Xp 6 zXkX].|.B.V..   1.;.hXi.U e e i i t K #.#.V i t i m m ",
"i U s.i.i.d.s.X.X.#.U +.#.%.#.=.U +.J 9.8.^ ^ 8X<XiXyX  . 2XtX X4X{.}.O o fXpX X'.M.| @   <.3.+.#.I i i V t i P =.%.m t m t t e ",
"i i e u u e t i t e i i V %.#.P e e B -.O.( ) ;X2XgXdX+ + [.`.tX`..X[.O . dXpX X.XB.C.. # r.#.*.#.%.#.%.K e i i i i m i y M V K ",
"y i u e i i t i t i e i i %.#.I e t m -.8.s s A.7.[.tXR.tX X5X`.].].[.[.3X7X[.J.7.2 p i t i i %.X.#.%.#.K e i u i e i e i y e S ",
"y G U U Z i i i i m t i V X.X.P i i V 9.( a 5 n.A.4X5X X`.].|.].|.|.5X.X].`.6X7.C.4 7 i i i B =.#.*.U U K i i i A V Z V V Z M K ",
"e ,.b.c.K e i t e t i u i e t m i i m y t . O Y > m.m.>X.X|.'... .I.{.'.'.B.N.a p . o t i t i =.#.U e u i t e 5.l.c.l.x.c.z.b.p.",
"e X.s.x.K e u i m i i e i i m y t e y y t . + 3 s A.m.>X.X'.'. .M.{..X{..XN.N.3 9 .   t i i i *.%.X.e i i i u 4.l.c.d.d.s.l.a.p.",
"%.2.5.t.J t t #.#.#.i i m i e A &.#.#.X   *X%X%X2X. + d 5 m.B.M.B.B.N.5 5 % + %XyX-X-X  o i i K I G t i i t t %.2.4.i.p.i.t.i.i.",
"l.4.X.#.A t e d.x.b.t i i i t U l.l.c.  X wXqX0XqXX O p a m.B.B.n.V.V.- 4 O . yX#XwX#XX   i t i t i i t m i i e e e U X.X.#.U X.",
"c.4.#.%.S e e d.s.c.t i i i t U l.g p <XwX@X0Xk z 0X#Xc D h T 2 4 f x v F &X#Xl l 0XqXqX$X0 9 m t m i u i e t u i t #.%.%.%.#.%.",
"2.U V Z V i e =.2.2.e u i i y Z X.a s [.&X0XY.z k 0XwXl r v x 1 1 x c b l 0X@Xz b 0XqX).2X4 < u u i u t K %.%.V i e K G G %.o.%.",
"#.G e u i t e #.+.X.i i i t t 9 a :X{.C.6.&XqXj z eXY.0XwX#XqXl l ` ` wX@XeXeXj b &X_.w.7.{.6X> p m i e *.c.l.P u t i t e #.#.%.",
"%.K u i V i u X.%.#.i t i m i 9 s >X'.B.C.7X_.b j 0X0XeX0X0X0Xj z ` @.@X0X0X0Xj c rX3XV.n.>XI.Y 3 i t e %.d.l.K e i t i i &.%.#.",
"%.K u e K X.U %.#.%.e u A 5.5.9 3 >X'.`.;X. .   X 0.0.#XwX&XqX=X=X[ _ &X#Xq.q.  .   . 2X6X4X>X4 9 V i i U 2.2.X.K K m i i S S G ",
"#.K u t U %.+.%.+.%.i i m b.l.g p [..X[.uX+ . .   q.q.wX=X=X<X<X+X! { =X-Xh.>.X   O @ 2X;X6X;X3 0 i i e G #.X.#.%.#.V t i y t M ",
"#.K t i P +.+.#.#.#.i e V l.p.4.e f 4 3 < O O C / . @   @ f f f h h 9 O .   . 0 D . . p a < p i t m i e K %.%.#.*.+.V e i y i M ",
"i i i t V m i m i m t i m =.*.#.e 9 f p 9 + O g ^ . . O + a d d h a d + O O . D F . O g 9 f 0 y i i i i m V m m m V m u i m i m ",
"i i i t i t i B i i m t m +.X.#.i t i y e   . 9 ; 7 7 g D W E p - W N W W 9 9 , ; @ . #.i e i i i V e i i i i e i t i t m m i i ",
"e i i i m t t i i w K S K #.%.U A S Z i t X o ; ; 9 9 D D D C : : W W D N ; 9 ; 8 . X #.i i i u e i m V i e t i i q V u i i i M ",
"i i t i i t i i i i d.d.p.#.X.2.d.c.%.e u X   = = & = . .   . . . O O . @ & = & =     %.t i t i u P s.d.*.u i i t i u.s.p.d.p.p.",
"e i i t i u i i i e d.d.s.X.X.2.d.d.%.t i     & = ; *           .   . .   = * * * X $ %.e i t i e K b.s.=.e t i t t i.d.d.l.d.p.",
"i S X.#.Z u t U U P t.i.5.#.#.*.5.t.U i t m t       o U U P m t m K H A V   X     P +.+.i e i S Z U d.d.#.i i i t i 5.d.s.a.p.i.",
"i #.x.c.U e t i.l.l.#.U X.#.#.I e e B i u i t   o X   e e i t t K x.c.t.#.X   o   i t t i i V b.l.i.X.X.%.#.#.Z i e X.#.+.#.X.%.",
"q =.d.x.P i t i.d.d.X.%.%.#.%.U e t m e i i u t i t m i i i i t G c.d.5.U %.Z t i m i u t t V c.d.p.U =.%.#.=.Z e e U U #.%.#.#.",
"=.*.2.t.J i e 2.5.2.%.#.#.#.%.I i i G %.*.S i i m i i i i m t i S p.5.4.X.*.S i i i i i P U U 5.i.t.U %.U I U A i i #.#.*.U U U ",
"c.5.U %.S e e #.X.X.#.U %.*.#.U e e #.b.b.P t i m u i i u i i t m #.#.#.#.#.A i t i i i d.c.s.#.U #.+.%.S e e i t t U #.%.i e i ",
"s.2.#.#.J i i U #.#.#.#.%.U %.X.e u #.l.l.I i t i t i i i i i i Z #.%.#.#.#.S t t m u i d.d.c.U %.%.%.%.K e i e i t U #.#.i i i ",
"2.#.Z V Z t i A A S %.#.%.%.#.X.e i I 4.2.+.K K =.,.2.i i V e i m G S U %.#.S i i i i i *.#.*.S K P *.%.K i i A K G #.#.*.i i i ",
"#.S e e i i i i e e %.#.#.%.#.U t e G #.#.%.#.%.p.l.x.i i i i u e i e S %.%.S e t i t i i t i t e V #.%.K e t I *.#.%.#.%.i i u ",
"#.K i i i i i i V t #.#.#.#.#.P t t K #.+.%.X.#.i.l.d.m i i i i i i t G %.#.S i i m i i e t i i e A #.%.K e t K #.%.%.#.*.i i e ",
"#.U U U A i i i e i #.#.#.V V V i t m m i I #.#.=.=.=.5.5.4.e t i i u V Z V V i t i i i 2.4.2.t i m Z Z V t i V Z A A Z A i e V ",
"%.%.%.*.S i i i i i #.#.#.e e i i t B i e P #.#.%.#.#.l.d.s.w i m t e i i i i i t m i i d.d.d.t i m i t i t i i t i i i i i e A ",
"#.[ U #.A i i i i i X.#.X.t u i m t V V m I #.#.#.+.X.d.d.p.i i B t i m t i m i e V i i p.d.d.e t i i t m i i i e i i i t i e A ",
"*.I i i i i i i e i i m i i t i t t U i.i.=.X.#.*.#.+.=.%.*.i.t.4.w i i u i i i e 4.i.i.%.*.*.t t i i i i i i i i i i i i 5.5.i.",
"#.S e y i i i i i i i i i i e m e e %.b.l.2.X.U #.#.X.+.U =.l.c.u.e t m t i V i q t.l.d.%.X.%.t i i t i i i i i t i i i i d.d.d."
};
