/* XPM */
static char *_2234454fdf64215b0402a6d05d4b675[] = {
/* columns rows colors chars-per-pixel */
"64 64 229 2 ",
"   c #030201",
".  c #0B0201",
"X  c #040A02",
"o  c #0B0B03",
"O  c #0B080A",
"+  c #120301",
"@  c #1A0302",
"#  c #160A06",
"$  c #031301",
"%  c #210302",
"&  c #342928",
"*  c #31302E",
"=  c #3B3533",
"-  c #4A3738",
";  c #523230",
":  c #55393A",
">  c #6E3C2E",
",  c #673B3B",
"<  c #49443B",
"1  c #55473A",
"2  c #57533D",
"3  c #684437",
"4  c #6D4E36",
"5  c #774735",
"6  c #5B633D",
"7  c #5C3F43",
"8  c #4C4948",
"9  c #594947",
"0  c #4C5542",
"q  c #5A5846",
"w  c #4E4F51",
"e  c #4F5052",
"r  c #535456",
"t  c #595552",
"y  c #565659",
"u  c #58575C",
"i  c #57585A",
"p  c #5A5B5D",
"a  c #674846",
"s  c #754943",
"d  c #695749",
"f  c #7A5447",
"g  c #6A5854",
"h  c #765956",
"j  c #556B4B",
"k  c #556E50",
"l  c #5C7454",
"z  c #6F6D51",
"x  c #636758",
"c  c #79695D",
"v  c #5D5E61",
"b  c #605F64",
"n  c #5F6062",
"m  c #626365",
"M  c #6D6966",
"N  c #666669",
"B  c #67686A",
"V  c #6A6B6D",
"C  c #786B66",
"Z  c #7D7365",
"A  c #7C776A",
"S  c #6E6E71",
"D  c #706F73",
"F  c #6F7072",
"G  c #6E7971",
"H  c #727375",
"J  c #7F7872",
"K  c #767679",
"L  c #77787A",
"P  c #7A7B7D",
"I  c #894E52",
"U  c #865A5D",
"Y  c #82704C",
"T  c #866D5B",
"R  c #85745A",
"E  c #8C5B61",
"W  c #886864",
"Q  c #8B7668",
"!  c #837C6C",
"~  c #94716D",
"^  c #957868",
"/  c #877B75",
"(  c #847C75",
")  c #A07161",
"_  c #768568",
"`  c #778C73",
"'  c #86816E",
"]  c #968467",
"[  c #8A837B",
"{  c #848879",
"}  c #968778",
"|  c #84917D",
" . c #A68B7B",
".. c #AE937A",
"X. c #BAA07D",
"o. c #C89979",
"O. c #CCA67B",
"+. c #D2A177",
"@. c #7E7E81",
"#. c #807F84",
"$. c #6D8B83",
"%. c #7F8082",
"&. c #828385",
"*. c #8A8787",
"=. c #858689",
"-. c #87888A",
";. c #8A8A8C",
":. c #968C87",
">. c #8B9686",
",. c #989389",
"<. c #8D8592",
"1. c #8E8E91",
"2. c #8F9192",
"3. c #929395",
"4. c #9B9695",
"5. c #969699",
"6. c #97989B",
"7. c #9A9A9C",
"8. c #A79586",
"9. c #B89C89",
"0. c #A49B96",
"q. c #9CAE93",
"w. c #B9A48A",
"e. c #A8A19B",
"r. c #B8AA99",
"t. c #BEB29D",
"y. c #9E9EA1",
"u. c #9FA0A2",
"i. c #A2A3A5",
"p. c #A6A6A9",
"a. c #A8A5AD",
"s. c #A7A8AA",
"d. c #AAABAD",
"f. c #BCAAA3",
"g. c #B9B6A5",
"h. c #BCB4A4",
"j. c #BCB4AB",
"k. c #BCBBAA",
"l. c #AEAEB1",
"z. c #ADB1B0",
"x. c #AFB0B2",
"c. c #B2B3B5",
"v. c #BBB9B6",
"b. c #B5B6B9",
"n. c #CA988B",
"m. c #D89B89",
"M. c #D79B91",
"N. c #C9A885",
"B. c #D4A788",
"V. c #C7A794",
"C. c #DCA699",
"Z. c #D2B295",
"A. c #E5A894",
"S. c #D19DA1",
"D. c #C3B4A4",
"F. c #C3B4AB",
"G. c #C9B6A9",
"H. c #C3BCAC",
"J. c #CCBCAD",
"K. c #D3BDA7",
"L. c #C0B6B4",
"P. c #C4BCB3",
"I. c #CABBB2",
"U. c #F6BEB0",
"Y. c #A5C09D",
"T. c #B9D6B4",
"R. c #BDE9BD",
"E. c #C7C4AC",
"W. c #D8CAAD",
"Q. c #CBC3B3",
"!. c #C8C6B7",
"~. c #CDC3BA",
"^. c #D2C4B4",
"/. c #D6C8B7",
"(. c #D3C5BC",
"). c #D4CBBC",
"_. c #DCCCBD",
"`. c #C8D7BA",
"'. c #D5D5BE",
"]. c #DBD3BF",
"[. c #EDCAAA",
"{. c #F5C9AA",
"}. c #F6D3AD",
"|. c #E7CAB8",
" X c #F3CBBC",
".X c #FCC8B9",
"XX c #E9D4BB",
"oX c #FAD6B6",
"OX c #FDD2BC",
"+X c #C6E5BA",
"@X c #E0E3B6",
"#X c #CAC1C2",
"$X c #D7CBC2",
"%X c #C9DBC6",
"&X c #D6D7C6",
"*X c #DAD3C3",
"=X c #DDDACA",
"-X c #DAD6D1",
";X c #E7CDC5",
":X c #F4CCC3",
">X c #FCCBC4",
",X c #E3D3C4",
"<X c #E1D5CA",
"1X c #EBD6C9",
"2X c #E8D9C9",
"3X c #F3D5C4",
"4X c #F3DAC3",
"5X c #FAD7C8",
"6X c #EBDAD1",
"7X c #F9DAD5",
"8X c #CBE6CD",
"9X c #D2E8CC",
"0X c #D7F5C8",
"qX c #D5E2D2",
"wX c #C9F0D0",
"eX c #F0E4CD",
"rX c #EDE8D6",
"tX c #F3E8D7",
"yX c #FBEDDC",
"uX c #E7F4DC",
"iX c #FAF3DD",
"pX c #FDEEE2",
"aX c #FAE9E8",
"sX c #E7F4E6",
"dX c #F6F7E4",
"fX c #FEF4E4",
"gX c #FFF9E5",
"hX c #FFFCEB",
"jX c #FEEBF8",
/* pixels */
"r p p r p r p d.d.l.@.@.@.r p v p p p p r p r y @.&.&.y ( H 4.[ ,.0.:.:.C [ 4.e.y p r m &.&.&.&.&.K y p p p p i p N p.l.l.@.#.&.",
"p m p p n y y p.s.x.P @.@.r p p y y p p r p p p &.%.-.p ( J ,.e.} :.,.,./ / [ *.p p i p &.&.=.&.&.H y y p y r p y v p.d.d.&.=.=.",
"r H =.&.m p p 7.6.3.&.&.&.r p p y p F %.P m r r *.J J ( $X<X~.*X(.<X).*X(.(.:.J [ M 4.;.4.e.&.P K F y p B H F v i p 3.y.3.&.&.@.",
"r 3.l.b.S i r &.P P &.&.&.r y n y r ;.c.b.S y p ( A A ! ).).*X).<X(._.6X).*XZ ! Z / ,.1.1.;.L r r p y p ;.b.d.S i y i r v &.&.@.",
"r ;.l.x.V r y -.&.&.&.&.@.p p p r y 3.l.d.V .   P.H.*X$XdXfX).$XI.j.<X~.pXfXQ.*XP.h..   &.;.P r p p r r 1.c.l.V p p p y m -.-.P ",
"r &.3.2.m p p &.&.&.V B V y r H 1.-.1.2.6.P . + I.t./.$XrXfX*X).P.~.~.).gXfX<X<XQ.H.#   V S V p r V -.&.3.3.5.V p y p r p D H V ",
"r H &.&.N i i &.&.%.i r p p y %.c.l.5.P   . f.F.pXgXhXrX*X=XF.I.I.F.F.J.^.,X6XeXfXpXh.P.    y p i &.c.d.6.%.@.m y y v p p p u p ",
"p H =.%.m r i &.&.&.p p p p y @.x.d.5.&.    $XF.fXrXtXgXQ.).h.F.(.G.I.J.J._.fXfXhXfXI.j.. . p y r &.b.c.7.&.&.m p p v p y r r v ",
"p m m m v p r m n N r p v p y m S V P &.3.0.(.<XyXfXfXfXh.E.,X_.G.D.^._.XX_.fXyXyXtX).$X,.:.n p v B L H F B V v p p v p N 3.1.-.",
"p p y y p p p p p y i p v r y v r r H =.*.[ 6X(.pXtXpXyXG.D._.;XG.^._._._._.fXyXpXhX2X$X:.:.p i r p r y y y i i i p p y V c.l.u.",
"r n p p m p m r r r m p p p y m p i     -XL.*X,X_._.t.E.yXfX_._./.2X^.].tXyXiXfX_.^.I.<XP.v.#   p y r r y y y p i p p y N l.c.6.",
"p m i r 7.d.d.m p p d.s.7.i p p i i     ~.g.).).).*XH.D.eXgX^.,X,X^.].).yXfXeXgX_.).<X).P.j.    7.p.y.i.3.P %.m p p p i m 1.3.;.",
"p y i r y.s.l.m y r b.p.s.w i p r y     v.k.k.H.).'.Z c hXfXyXfXeXhXeXhXeXiX].]./.*Xh.~.j.v.o   d.d.p.c.6.P =.m i p p i v &.&.&.",
"p V V V 3.l.d.p i p d.d.6.p p m v n   . v.!.T.k.'.'.A ! eXfXyXfXgXrXgXrXiXiXE./.).].H.h.!.j.  O s.x.d.d.5.%.=.m r i p y v &.=.=.",
"r ;.x.d.2.P =.p p p @.@.=.=.&.&.&.&..   P.H.r.k.g.k.h.J.! ! ).*XH.=X).&X).2X' A H.h.H.g.H.g.o   &.%.&.&.&.&.%.m r p p p p p p v ",
"r 1.d.s.2.P -.p r v -.=.&.%.=.=.&.=.. # t.^.k.k.k.Q.H.D.! ! ^.].<X).=X*X).Q.c ' h.Q.D.^.Q.H.    =.=.&.%.&.=.=.m r n y p p p y p ",
"K ;.i.i.1.&.=.v p v K L P =.%.=.O + f. .9.} g.E.t.E.Z Q c c ^.D.h.h.h.F./ } Z Q h.G.J.t.} } r.j.    -.&.=.P @.B i e N v p p p p ",
"l.5.P &.%.=.=.p p y r y m &.&.&.  + r.V...] W./.r.D.Q } Q W J.F.H.*X~.G.W C Q Q G.J.D.J. .8.w.r..   &.P F r i y p m d.l.d.p m p ",
"d.i.%.=.%.&.@.p y p r y m &.&.=.o + r.V. .} t.D.Q ^ 1X_.7X;X~ / I.e.C Q 6X6X,X;XQ Q ^.G. .8.r.f.# . -.=.S r p r y i y.d.d.r r p ",
";.P &.=.H H K N p v p p m H H L o . F.9.8.8.t.G.^ T 1X7X;X7XW W ^.J.^ W 1XXX,X3X^ T D.D.8.} f.f.. . P @.S p y S H K 7.y.7.H D K ",
"r H &.=.m y r p y p y p p y y p r y C / [ ,.Q.G.W Q ,X;X;X5X:X3XR c |.4X|.XX4X|.5XXX^ Z ,.0.+ . p p r r y p p 5.c.d.=.P -.l.c.p.",
"p S &.-.m i y v p p r i y p y v r y ( ( >.4.h.r.} Q ,X1X5X X XXXR ] oX|.4XXX|.5XOX|.Y A ,.*.O O y p p p p r i 5.d.x.=.&.&.l.l.i.",
"p m N V p y m p p p p p m 3.1.&.p p 4.,.>.| ' } |.6XrXdX< q 2X;X3X[.[.oXq t jX7XOXoXN.N.. o =.<.i p p p p p p -.7.7.=.&.=.7.5.3.",
"r p y y p p p r p y p y V b.d.6.r r :.,.,.{ ! T 1X=XdXuX0 q _.5X5X}.[.}.2 w jXaX.X{.N.w..   3.a.p v r p p p y K &.%.&.@.-.&.&.#.",
"p p p i v p r m p p y r B p.d.5.r r ;.d.e.,.Q T 4X<XuXsX$   1X3X[.{.oXXXo   jXjX>X.Xo.V..   2.%.p n y p y i p L @.&.-.@.=.&.=.@.",
"p p i p p p r 6.7.7.P P P H V S y r N V [ } ^ )  XXXiXuX  + 5X XOXOX}.4X    aX7X>XU.A.w.#   3.6.1.%.r p K ;.;.&.&.&.&.&.&.V V V ",
"p p p p n p r s.d.d.%.&.@.w r p y p v p 0.:.f > M.M.>XXX5X3X X.XOXU.>X X2X,X5XXXC.n., 2 p i V b.c.5.w y ;.b.c.1.&.%.&.@.=.u p p ",
"r m m m m v m i.d.s.=.&.&.p p v y p v p :.8.3 > M.A..XOX{.>XOX{.OXOX>X.XoXoX[.}.Z.V.a d r r V l.d.7.r p -.x.d.2.&.&.;.=.&.u p y ",
"r &.s.p.d.d.u.-.&.-.P &.=.P @.=.&.&.S p i p + @ 3 5 m.m..X.XOX{.B.m..XOX[.}.N.X.3 1 qX&X  o 6.;.;.P y i n V B L =.&.m p N v v v ",
"r -.l.s.i.p.l.-.%.=.P &.&.@.&.=.%.&.H i p r   + a > B.C..X.XOX}.+.m..X{.oX{.o.K.1 q %XqX  . d.@.%.P r r p p y H &.&.m p y p p v ",
"p P s.i.i.d.s.@.@.&.P %.&.=.&.;.@.@.F y v n   X k l   @ 3 5 o.N.o.o.O.B.3 5 @ + x k wX8XuX|.s a &.L p p m y p K ;.=.v y v y y r ",
"p p r i i r y p y r p p m =.&.K r y v y p r   $ j k $   4 4 N.9.Z.B.O...4 3 @ # x k R.T.E.3X, a &.=.&.=.H r p p p p v p u b m H ",
"u p i r p p y p y p r p p =.&.L r y p y P >.qXwX+X+X` _ z 6 6 z 3 > f Y d c <X-Xx l R.0X@XOXC.S.a 9 =.&.H r p i p r p r p u r V ",
"u S P P N p p p p v y p m @.@.K p p m v J ! '.`.0X+X_ _ l l j z d a g z j j &X=Xx x 8X+XW.}.o.m.I a P P H p p p B m N m m N b H ",
"r 1.b.c.H r p y r y p i p r y v p p v u g a V.w.'.`.` { %X%XwX%Xc g &.` 8XwX0X`.X X     w.Z.+.A.> a r i p y r 6.l.c.l.x.c.c.b.p.",
"r @.s.x.H r i p v p p r p p v i y r u ~.3 3 n.w.2X&X_ { &XqX%XqXx M %.$.8XR.+X9X      # V.N.+.o.5 a r p p p y 5.l.c.d.d.s.l.a.p.",
"=.3.7.y.F y y &.&.&.p p v p r B -.&.9 s :X>X X1X  o ,.q.&XuX8X8XqX-XG >.T.9Xq.>.X   #Xf.g : f f pXS y p p y y =.3.5.i.p.i.y.i.i.",
"l.5.@.&.B y r d.x.b.y p p p y P l.l.a 3 >X:XXX<X    r.Y.`.&X8X9X`.%X| [ qX%Xq.x.  . g.G.d d a - y p p y v p p r r r P @.@.&.P @.",
"c.5.&.=.V r r d.s.c.y v p p y P l.l.a s >X>X5X7X+ @ - < +   . . g g 9 g   o   o = 8 . . i r p v y v p i p r y i p y &.=.=.=.&.=.",
"3.P m N m p r ;.3.3.r i p p i N @.3.g , 7X|.|.;X# + 1 - . + + . g 9 h h + @ . . < 1 . . p p p p i p i y H =.=.m p r H S S =.#.=.",
"&.S r i p y r &.%.@.p p p y y p p r S =.: a g g m p + + 9 - : 7 7 a U h U U h W g C .   u y p p p v p r -.c.l.K i y p y r &.&.=.",
"=.H i p m p i @.=.&.p y p v p v r i S %.8 9 t 8 N y   # - 9 - 7 ; ; W W W ~ E E W c #   v y v p y p y r =.d.l.H r v y p p -.=.&.",
"=.H i r H @.P =.&.=.r i B 7.7.;.p p N N N @.1.;.7.7.6.p # .   . # + @ % U U E U : : .   L L H p p m p p P 3.3.@.H H v p p V V S ",
"&.H i y P =.%.=.%.=.p p v b.l.7.r y m i y H =.@.s.d.c.p         . . . % W U E W : : .   &.=.&.y i p p r S &.@.&.=.&.m y p u y b ",
"&.H y p K %.%.&.&.&.p r m l.p.5.r i p p y K &.&.i.l.d.p p p p r K c.8 : ; , , ; % + &.=.@.&.%.p y v p r H =.=.&.-.%.m r p u p b ",
"p p p y m v p v p v y p v ;.-.&.r p v p y L &.%.=.&.;.i.s.u.y y p N 7 8 9 : : 7 + . &.&.N n N i p p p p v m v v v m v i p v p v ",
"p p p y p y p n p p v y v %.@.&.p y p i r L &.=.=.&.&.c.s.d.w p y p     & & & - .   %.&.p r p p p m r p p p p r p y p y v v p p ",
"r p p p v y y p p e H V H &.=.P B V m p r K P P &.%.%.p.p.s.r p p p     * = = =   o &.&.p p p i r p v m p r y p p w m i p p p b ",
"p p y p p y p p p p d.d.p.&.@.3.d.c.=.r i p y y &.&.&.&.%.&.e p r p p m O     X y P &.=.y p y p i K s.d.-.i p p y p u.s.p.d.p.p.",
"r p p y p i p p p r d.d.s.@.@.3.d.d.=.y p y p y =.%.&.=.&.=.r p r v y m   X     r &.&.=.r p y p r H b.s.;.r y p y y i.d.d.l.d.p.",
"p V @.&.N i y P P K y.i.7.&.&.-.7.y.P p y v y p K @.@.P P K v y p H F B m m p i p K %.%.p r p V N P d.d.&.p p p y p 6.d.s.a.p.i.",
"p &.x.c.P r y i.l.l.&.P @.&.&.L r r n p i p y p p r y r r p i i H x.c.y.&.&.S p r p y y p p m b.l.i.@.@.=.&.&.N p r @.&.%.&.@.=.",
"w ;.d.x.K p y i.d.d.@.=.=.&.=.P r y v r p p i y p y v p p p p y S c.d.7.P =.N y p v p i y y m c.d.p.P ;.=.&.;.N r r P P &.=.&.&.",
";.-.3.y.F p r 3.6.3.=.&.&.&.=.L p p S =.-.B p p v p p p p v y p V p.7.5.@.-.V p p p p p K P P 7.i.y.P =.P L P B p p &.&.-.P P P ",
"c.7.P =.V r r &.@.@.&.P =.-.&.P r r &.b.b.K y p v i p p i p p y v &.&.&.&.&.B p y p p p d.c.s.&.P &.%.=.V r r p y y P &.=.p r p ",
"s.3.&.&.F p p P &.&.&.&.=.P =.@.r i &.l.l.L p y p y p p p p p p N &.=.&.&.&.V y y v i p d.d.c.P =.=.=.=.H r p r p y P &.&.p p p ",
"3.&.N m N y p B B V =.&.=.=.&.@.r p L 5.3.%.H H ;.1.3.p p m r p v S V P =.&.V p p p p p -.&.-.V H K -.=.H p p B H S &.&.-.p p p ",
"&.V r r p p p p r r =.&.&.=.&.P y r S &.&.=.&.=.p.l.x.p p p p i r p r V =.=.V r y p y p p y p y r m &.=.H r y L -.&.=.&.=.p p i ",
"&.H p p p p p p m y &.&.&.&.&.K y y H &.%.=.@.&.i.l.d.v p p p p p p y S =.&.V p p v p p r y p p r B &.=.H r y H &.=.=.&.-.p p r ",
"&.P P P B p p p r p &.&.&.m m m p y v v p L &.&.;.;.;.6.7.6.r y p p i m N m m p y p p p 3.5.3.y p v N N m y p m N B B N B p r m ",
"=.=.=.-.V p p p p p &.&.&.r y p p y n p r K &.&.=.&.&.l.d.s.e p v y r p p p p p y v p p d.d.d.y p v p y p y p p y p p p p p r B ",
"&.{ L &.B p p p p p @.&.@.y i p v y m m v L &.&.&.%.@.d.d.p.p p n y p v y p v p r m p p p.d.d.r y p p y v p p p r p p p y p r B ",
"-.L p p p p p p r p p v p p y p y y P i.i.;.@.&.-.&.%.;.=.-.i.y.5.e p p i p p p r 5.i.i.=.-.-.y y p p p p p p p p p p p p 7.6.i.",
"&.S r u p p p p p p p p p p r v r r =.b.l.3.@.P &.&.@.%.P ;.l.c.u.r y v y p m p w y.l.d.=.@.=.y p p y p p p p p y p p p p d.d.d."
};
