/* XPM */
static char *_c45abfc02de498884f88f15fc7344ca[] = {
/* columns rows colors chars-per-pixel */
"64 64 192 2 ",
"   c None",
".  c #020202",
"X  c #0B0B0B",
"o  c #080507",
"O  c #110A0B",
"+  c #170E08",
"@  c #1F130F",
"#  c #090B16",
"$  c #080B18",
"%  c #1D0F10",
"&  c #141312",
"*  c #16161A",
"=  c #1C1C1B",
"-  c #181718",
";  c #211916",
":  c #29221C",
">  c #332017",
",  c #191928",
"<  c #232223",
"1  c #2A2523",
"2  c #2B2B2C",
"3  c #282828",
"4  c #34312E",
"5  c #292A36",
"6  c #343434",
"7  c #323A36",
"8  c #3B3935",
"9  c #36373C",
"0  c #38373A",
"q  c #3C3C3B",
"w  c #463125",
"e  c #5B3A22",
"r  c #443933",
"t  c #493D37",
"y  c #45413D",
"u  c #4B4139",
"i  c #5D4D3E",
"p  c #5A4737",
"a  c #4E503E",
"s  c #794A27",
"d  c #764322",
"f  c #634838",
"g  c #704B34",
"h  c #7A5538",
"j  c #383A43",
"k  c #403F40",
"l  c #3E4241",
"z  c #3D414A",
"x  c #434445",
"c  c #4A4944",
"v  c #46464D",
"b  c #47484B",
"n  c #4B4B4C",
"m  c #4B4748",
"M  c #534944",
"N  c #594A43",
"B  c #564E4A",
"V  c #585149",
"C  c #4D4E51",
"Z  c #444659",
"A  c #524F51",
"S  c #4E5153",
"D  c #525355",
"F  c #5C5C57",
"G  c #555659",
"H  c #56595A",
"J  c #5A5B5D",
"K  c #5A5552",
"L  c #6C564C",
"P  c #645F45",
"I  c #765A49",
"U  c #605F5E",
"Y  c #6A5A53",
"T  c #716A49",
"R  c #686558",
"E  c #7C6D5D",
"W  c #75635A",
"Q  c #5D5E61",
"!  c #545A62",
"~  c #5E6062",
"^  c #626365",
"/  c #686665",
"(  c #656669",
")  c #666A6B",
"_  c #6A6B6D",
"`  c #746A66",
"'  c #746C68",
"]  c #65716C",
"[  c #75726D",
"{  c #7C7769",
"}  c #6D6E71",
"|  c #656879",
" . c #6E7073",
".. c #727375",
"X. c #757679",
"o. c #77797B",
"O. c #7A7B7D",
"+. c #787877",
"@. c #84512F",
"#. c #905F38",
"$. c #95704C",
"%. c #856C57",
"&. c #906F57",
"*. c #80795A",
"=. c #97765D",
"-. c #9F785D",
";. c #9F7752",
":. c #A67A5B",
">. c #897264",
",. c #957868",
"<. c #817B74",
"1. c #887B77",
"2. c #A07964",
"3. c #7F8077",
"4. c #B2805C",
"5. c #89866E",
"6. c #9F8066",
"7. c #8C837B",
"8. c #88877B",
"9. c #948173",
"0. c #9A897E",
"q. c #8F9074",
"w. c #AC866A",
"e. c #B6896C",
"r. c #B99373",
"t. c #BE9975",
"y. c #7D7E81",
"u. c #807F85",
"i. c #7E8183",
"p. c #828385",
"a. c #848689",
"s. c #86888B",
"d. c #898A8D",
"f. c #8D8682",
"g. c #95958C",
"h. c #9C948D",
"j. c #979689",
"k. c #8C8D91",
"l. c #868992",
"z. c #8E9093",
"x. c #929395",
"c. c #959699",
"v. c #999698",
"b. c #97999B",
"n. c #9A9B9D",
"m. c #989694",
"M. c #A48E81",
"N. c #A49E88",
"B. c #B49A85",
"V. c #A2A08D",
"C. c #B1A08B",
"Z. c #ADA39F",
"A. c #ADA897",
"S. c #B0A69A",
"D. c #B8B699",
"F. c #9C9EA1",
"G. c #9496A4",
"H. c #9FA1A3",
"J. c #9CA0B0",
"K. c #A2A3A5",
"L. c #A5A6A9",
"P. c #A6A9AC",
"I. c #AAABAD",
"U. c #ACAEA2",
"Y. c #B2A9A3",
"T. c #BDBCAB",
"R. c #B8B6A6",
"E. c #ADAEB1",
"W. c #AEB1B3",
"Q. c #B2B3B5",
"!. c #B5B6B9",
"~. c #B6B8BB",
"^. c #B9BBBD",
"/. c #B8B7BC",
"(. c #C19E8B",
"). c #CBA68B",
"_. c #D1A98B",
"`. c #D3B697",
"'. c #C9B395",
"]. c #C4BFA3",
"[. c #C5BBB6",
"{. c #D1B9A9",
"}. c #DAC8AA",
"|. c #C8C8BC",
" X c #D6D7BF",
".X c #E9CFA8",
"XX c #EED8B7",
"oX c #BAC3C0",
"OX c #C6C7C5",
"+X c #D9D8D6",
"@X c #D9D9C4",
"#X c #E1E1C9",
/* pixels */
"y.O.O.X.i.o.o.O.o.o.o.O.o.O.+.y.y.X.S C D b C ..O.y.K.L.K.K.P.z.Z.E f :.$.g p S.a...o.y.y...p.o.p.y.J C C O.O...i...O.O.o.D x   ",
"p.p.a.p.a.p.p.s.s.p.O.p.i.p.s.p.i.p.Q J G G D ..i.d.P.E.E.P.I.OX>.=.w.4.#.s t.%.R.p.a.p.a.y.y.a.p.a.~ S G y.s.d.p.s.a.a.p.^ G   ",
"i.a.p.a.p.p.a. .( X.p.d.a.p.s..._ } G J ^ O.} x.F.b.x.z.c.x.I.Y.>.:.s d @.4.;.w.` d.p.p.n.s.s.z.y.k.O...X.i.p.y.^ _ ) _ _ ....  ",
"i.a.y.s.p.a.s.Q x ~ y.p.a.p.a.H G Q G J } k.y.K.W.I.a.O.p.y.v.7.%.-.e.:.e.h r.w.M Z.x.x.c.( E.F.y.s.p.a.d.a.p.O.G D G D D y.p.  ",
"a.d.O.a.p.p.p._ G } p.p.a.p.a.^ G G J D ^ a.p.H.W.E.a.y.s.p.k.{ L `.g w.2.(.e B.i 1.<.n.b F.Q.b.p.p.a.y.y.p.a.y.G S ^ H J O.O.  ",
"p.O.J ^ Q Q Q o.y.p.p.p.a.y.s.^ G Q p.p.y.a.i.y.a.a.Q J ^ Q ~ h.L I I h =.w > p r <./ 0 F.d.a.k.p.p.d.p.y.a.a.y.G H ..o.p.a.p.  ",
"s.o.G G H H H y.k.p.O.y.a.y.d.Q C H i.d.a.a.p.y.p.y.J G G G ~ j.L ,.`.`..X'.9.V X 8 _ D x.p.O.s.a.y.a.p.a.a.a...G G ..p.a.p.p.  ",
"y...H Q Q Q Q y.a.y.d.k.a.O.O._ ^ _ O.p.O.i.a.a.a.p.Q G ) U.R.{ 9.t B.XX`.}.i + [ F 4 m A p.a.p.p.i.a.p.a.O.y...( H o.d.p.a.p.  ",
"D Q Q H X.k.a.p.O.k.E.!.p.D D y.a.p.a.s.y.p.a.y.a.a.^ C R.].N.].5.t N C.}.E : { #X@X|.L.z.p.p.a.p.a.a.a.y.H S ~ s.d.a.p.y.a.y.  ",
"D Q G D } a.i.p.O.d.E.!.p.D D o.p.p.p.p.i.p.a.s.a.p.^ _ 5.D.T P A.R 4 M u ` 8.V.q.D.+.!.E.y.y.p.a.y.O.a.i.G D ( p.a.p.p.p.s.d.  ",
"} ....} y.s.s.x.x.x.c.b.a.( ^ p.a.s.a.p.p.p.a.o._ .. ._ R ].*.5.T.8 < p.[ A 8 T. Xj.G n.b.i.a.a.d.a.y.a.a.}  ...p.p.a.a.p...}   ",
"a.k.k.s.p.y.p.E.!.K.y.o.a.a.d.a.O.p.p.p.p.O.p.^ b Q y.X.<.S.N.<.g.q y.D v.0 J 8.8.a g.p.y.a.a.a.a.a.a.y.a.a.a.s.a.y.p.p.p.~ D   ",
"y.y.p.p.a.p.a.H.I.F.a.y.p.y.p.p.O.a.a.i.a.p.p._ S ~ i...A y y _ q ^ p.U _ d.2 . g.|.3.O.a.s.a.i.p.i.i.y.a.s.i.i.i.s.s.a.p.^ D   ",
"d.s.y.p.c.F.F.E.E.F.p.a.p.p.d.p.p.d.p.O.z.K.H.s...O.p.a.2 H , o 9 n c F 6 k q X . q a.a.p.( ^ } s.i.i.a.a.i.i.a.i.s...~ ) ..O.  ",
"y.p.O.i.F.Q.Q.E.E.H.O.p.p.p.p.y.O.p.i.O.c.!.!.x.a.s.s.d.k.Z Z , # < 8.8 O.6 o q < C a.y.p.G C ~ a.i.p.a.i.i.a.a.y.s.} S D O.s.  ",
"a.k.s.a.x.K.L.K.K.H.i.s.y.p.p.k.p.p.d.a.z.P.K.k.O.p.s.d.l.J.| 5 j C ) +Xp.q 3 n 3 u.9 ..y.^ Q  .s.i.a.i.i.s.a.d.O.s. .H G i.s.  ",
"I.L.I.E.c.y.a.y.s.a.O.a.p.p.y.H.L.E.L.I.c.O.p.a.a.y.p.s.y.z ! # 5 G.G n X . . = n H H J Q i.i.s.a.i.i.i.a.P.P.H.i.a...G H p.s.  ",
"E.I.I.I.b.y.p.p.a.i.p.O.p.a.y.L.L.W.I.Q.F.y.p.a.d.p.a.c.X.O.OX= 5 | j o 1 ' o.- X 6 x O.Q i.a.s.i.i.i.i.y.L.~.P.p.a.} D G o.O.  ",
"I.I.L.I.c.y.p.p.p.i.a.y.a.a.y.L.P.I.c.F.x.y.p.X._ ..X.o.q ^ ; + ; v $ m [.<.f.p.5 j C J  .i.y.i.i.i.k.c.z.x.F.k._ ....( _ d.x.  ",
"L.I.I.E.x.y.a.a.s.a.p.d.i.i.y.H.P.L.O.O.p.O.p._ C H H n G 1 Y M.0.t * O.` %.,.h.' b b y.s.a.a.a.a.y.H.W.W.a.a.o.S D ..p.a.P.Q.  ",
"I.I.L.E.c.i.a.p.y.p.p.a.y.p.y.P.Q.Q.p.p.a.a.d. .J H G D [ o W {.M.c & m.f ).).W Y.C o.s.i.y.i.a.i.o.F.P.P.o.a.O.H b  .y.y.K.I.  ",
"E.L.k.x.d.p.p.} ^ } a.y.k.K.b.k.d.d.^ ( ^ ^ ( J C Q .. .i.p.t Y y / = . I _.r.I [.Q X.p.i.a.a.z.H.F.F.E.P.a.s.a.O...a.p.y.L.I.  ",
"E.F.O.i.p.p.p.Q C ~ a.y.b.!.E.s.y.O.G H D D H J D ) s.y.d.Q./ m m.n.- o w &.,.p f.J ..p.i.a.o.z.W.W.H.W.P.s.o.O.p.a.d.y.i.H.E.  ",
"E.K.y.a.a.p.p.^ D ( y.a.x.E.P.d.p.p.H J H H J J J Q i.a.d.L.L.= : . O 1 r L N m K ^ O.a.i.s.o.c.P.P.P.Q.L.a.i.d.p.a.a.p.d.n.I.  ",
"p.d.y.a. .D J i.s.y.p.p.p.a.p.s.p.y.G J J J J ..s.p.I.I.P.I.!.[ W Y % 6 K - = / +Xp.a.i.k.L.P.E.P.P.H.I.P.i.a.a.p.O.b.W.L.I.I.  ",
"O.p.i.a.) b Q O.s.p.p.y.y.a.s.p.a.s.G D D G D o.s.i.K.L.I.I.!.K N Y @ O - 2 6 o OXy.p.O.i.P.P.P.W.E.W.P.W.a.i.a.a.p.b.I.L.E.Q.  ",
"p.s.p.s. .D ^ y.s.p.p.p.p.a.p.y.i.p.H J Q _ ( ..p.a.P.E.E.x.n.B 8 : : 3 U q 8 c ( c.z.k.k.P.I.P.H.F.L.b.H.a.i.i...o.c.E.P.L.H.  ",
"p.s.p.p.} D J y.a.y.p.p.p.p.i.s.a.p.D H _ s.p.d.p.a.E.E.k.b D 6 6 2 - X - & = n +XE.I.E.P.W.!.n.i.y.i.y.y.i.i.y.C n a.!.L.a.X.  ",
"p.s.d.p._ G J o.p.y.p.i.p.p.p.p.p.i.D n ( a.y.p...y.I.~.b.G ) J X & . n & 7 H 7 !.E.E.E.W.P.W.F.y.i.i.a.i.s.a.i.D n d.!.P.a.O.  ",
") _ _ ) _ _  .p.p.y.p.p.a.p.a..._ ......X.a.y.c.F.c.p.O.O._ X.d.6 & . F.x ] P.J l b.c.s.z.z.c.z.i.s.a.p.i. .^ } a.a.d.d.x.d.p.  ",
"D D D D X.d.a.s.a.i.p.p.s.p.p.J b J a.s.p.p.y.n.^.K.J x ^ a.k.s.n X . E.( ) oXl 2 a.p.o.y.y.i.i.i.a.a.y.i.Q C  .^.!.b...p.p.O.  ",
"H J J G ..p.O.p.p.p.p.p.p.i.s.^ G ~ a.p.p.a.p.d.Q.L.) G ( a.y.b.x & . E.c.6 3 . O.d.i.s.d.i.i.a.y.a.a.a.i.! D _ E.K.n.i.a.i.y.  ",
"G ( i.o.p.p.p.p.a.s.y.a.b.F.P.p.O.O.p.p.a.y.a.X.^ ( o.X.p.a.y.^ X - y.P.E.K.c.s.O.p.( J Q ^ J ^ Q Q ^ ^ Q o.o.p.s.p.d.p.y.^ ~   ",
"D ( a.a.a.p.p.p.y.p.y.X.x.Q.W.d.p.p.a.a.a.p.d.^ n J p.a.a.p.y.b.O.F.E.L.L.P.E.F.a.a.^ C D H G Q D D G D D d.s.a.y.a.s.s.s.J S   ",
"^ ..p.a.p.y.p.a.i.a.x.a.x.I.n.a.p.a.p.p.y.y.a.) S ^ a.p.p.p.O.b.W.I.I.I.E.F.P.k...O.} ^ ^ J H ^ J H ^ ( J a.O.s.O.a.O...X.) (   ",
"p.a.p.p.a.p.a.i.y.s.L.I.x.a.p.y.y.p.y.p.i.i.a...G ( p.y.s.a.p.c.P.L.L.I.P.y.a...S Q ..a.y.~ J Q ~ J ..d.y.a.O.a.p.p.} G J O.p.  ",
"a.a.y.y.p.O.O.p.y.s.L.!.c.X.p.p.p.a.O.a.a.p.a._ b H O.i.p.y.o.F.W.Q.E.E.L.y.s.} C D  .s.a.J G G G C _ a.a.O.p.p.p.p. .G G y.a.  ",
"p.a.a.a.a.y.p.b.x.n.P.I.c.y.s.p.a.a.y.a.y.} _ X._ ..a.p.d.c.c.x.x.c.x.c.x.y.k.y.}  .O.p.p.H G _  . .p.i.a.y.s.a.O.s.} G ~ O.a.  ",
"p.i.a.y.p.O.p.I.P.I.E.P.c.p.p.p.p.i.p.p...D D ..a.a.p.O.x.Q.Q.k.y.y.y.p.y.y.i.a.a.a.a.a.p.H G } a.a.d.p.a.i.a.a.i.s.} D Q O.s.  ",
"p.p.p.O.a.y.y.L.I.K.I.E.c.a.p.a.p.O.a.a.} C D ..a.p.p.O.z.E.E.x.O.p.a.a.y.a.a.y.i.p.p.p.p.D D ) z.i.O.p.p.i.a.i.a.a...D G O.i.  ",
"i.s.I.n.K.F.F.I.I.K.d.k.d.p.p.p.p.a.a.i.i.p.O.p.p.O.a.i.p.d.a.y.p.p.i.y.s.a.s.z.E.K...G ( O.O.X.p.p.p.i.a.p.p.O.^ J  .O.O.p.p.  ",
"p.k.Q.I.E.I.E.I.E.K.i.y.a.p.y.p.p.p.y.p.i.O.p.i.i.i.a.p.p.a.y.a.p.p.a.y.p.y.y.x.E.Q.} D J p.a.i.p.a.p.y.y.y.i.O.C C X.d.a.p.a.  ",
"p.k.L.I.L.K.P.K.P.F.p.p.s.a.p.a.p.s.p.p.s.a.s.d.p.a.p.p.p.a.p.p.O.p.a.a.a.k.a.F.K.I.} Q ^ y.i.d.p.a.p.a.y.d.s.y.G J ..i.a.a.a.  ",
"L.I.E.I.x.i.p.p.p.p.y.p.p.i.p.p.y.a.p.y.c.E.L.d.y.s.i.p.p.p.i.p.p.s.a.p.k.E.P.c.p.a.o.y.a.s.p.a.O.y.p.a.p.P.I.K.p.p.a.O.a.s.p.  ",
"L.E.I.E.x.y.p.p.i.p.p.p.p.p.s.p.a.O.O.o.d.Q.E.x.i.s.p.p.a.p.a.p.p.p.y.y.s.E.W.F.y.i.a.p.a.y.O.p.p.p.i.y.O.I.E.K.i.i.s.i.p.p.i.  ",
"I.I.b.F.k.p.p.a.p.p.p.i.a.i.p.a.c.d.k.c.x.b.K.p.} o.i.a.i.....O.p.y.k.c.x.I.I.b.y.a.p.i.a.x.x.d.x.k.x.c.x.n.b.b.p.i.d.p.i.d.z.  ",
"L.F.y.p.p.O.i.i.p.p.p.p.d.a.p.L.!.Q.E.Q.b.O.p.^ C Q y.a...G n ..a.p.K.Q.P.E.E.b.i.a.i.p.d.I.I.!.Q.I.E.E.I.p.O.O.O.O.p.O.a.P.Q.  ",
"I.K.i.p.s.p.a.s.a.i.i.O.p.y.O.K.L.I.L.I.K.i.a._ D J p.d.O.J D _ s.p.F.Q.I.E.E.F.i.p.i.y.a.P.L.I.L.P.I.I.!.y.d.p.s.p.s.O.O.K.I.  ",
"x.x.p.s...Q _ y.a.a.n.K.b.K.n.c.d.d.n.k.p.^ ( ( J J } ^ ) O...k.K.c.x.k.x.k.k.k.p.y.u.p.a.L.E.K.d.c.z.d.d.s.a.a.a.y.x.K.F.x.s.  ",
"y.a.a.a.( b H O.p.k.I.Q.I.Q.Q.a.O.O.p.y...D G G H H G C ( d.p.F./.E.a.o.y.a.y.y.p.y.a.O.p.Q.E.b.o.o.o.y.p.o.O.a.p.O.n.Q.P.d.X.  ",
"y.p.p.O._ G Q y.O.s.P.I.L.H.L.a.p.s.a.a.X.D G J Q Q H J ) p.o.c.L.P.d.a.a.a.y.a.d.i.a.p.d.L.L.c.a.d.s.p.a.O.d.p.p.p.b.P.L.k.i.  ",
"Q Q J H X.y.i.d.p.d.I.I.n.a.d.p.y.s.y.p...D H } y.s.p.y.O.a.p.a.a.a.i.y.a.p.a.y.p.p.b.E.K.p.a.y.p.p.p.O.a.p.p.d.L.K.c.p.a.y.O.  ",
"J H G n ..a.a.p.o.d.L.I.b.o.y.d.p.s.p.d.X.H D o.a.p.p.p.d.a.O.a.a.s.a.y.s.p.a.a.i.i.F.^.E.i.a.p.d.i.p.i.p.s.p.d.Q.Q.b.O.a.a.d.  ",
"G Q ..( X.p.p.k.d.b.I.E.c.O.s.X._ X...X._ ( ^ O.a.p.p.O.p.p.d...} O.a.a.a.p.y.a.i.p.c.H.b.s.y.p.O. .p.p.O.a.p.d.F.b.x.p.s.o.X.  ",
"H ) d.p.i.p.p.P.P.I.P.W.z.o.p.~ D J H D ^ i.s.a.i.i.p.p.i.y.s.) D H y.a.a.p.a.s.i.i.i.y.i.a.a...D S  .s.p.i.i.y.i.o.i.O.i.Q H   ",
"S ^ a.a.a.a.i.K.P.I.P.^.b.p.d.~ H H H S ^ a.i.i.i.d.p.a.p.s.s.) D C p.i.a.O.i.p.o.k.p.s.k.i.s...n H ..s.p.i.s.p.a.i.d.a.p.J S   ",
" .o.p.s.s.y.p.K.W.H.z.x.O.) _ J J ~ o. .O.p.p.a.i.p.) ) _ _ ^ } o...y.p.s.n.b.x.i.p. .^ ^  .) ) O._ O.s.i.o.s.p.p.o.i.^ _  ...  ",
"s.a.i.y.s.p.i.P.I.F.i.p.) H H J D J s.s.p.i.a.p.i.y.H D D H S  .a.z.i.i.s.W.!.n.O.i.~ D H D D ) d.s.a.p.i.y.p.p.p.i. .S ~ O.s.  ",
"i.y.s.i.a.a.p.K.P.K.y.p. .J G H H Q y.p.p.p.p.a.s.p.^ H H J C ..p.a.O.y.x.I.Q.c.i.s.) H J D S ( p.p.y.y.a.a.p.s.y.s. .D H O.i.  ",
"a.y.d.p.c.P.P.z.i.p.p.d._ D ~ O.a.p.p.y.a.a.p.O.p.i.J D _ p.p.y.i.O.K.I.b.^ Q ~ ~ ~ G D Q p.a.p.a.p.i.p.a.p.p.o.D ^ J G J p.a.  ",
"a.p.s.y.n.Q.L.p.p.s.a.a...D C O.p.a.p.i.p.p.a.O.a.p.^ C ^ p.p.p.a.p.I.Q.H.D G D J D H G H p.p.a.i.p.i.p.p.y.a.O.C D G H G O.i.  ",
"y.O.s.y.b.L.L.d.p.O.O...} J ~ i.p.a.p.p.p.O.O.a.O.o._ H _ d.a.a.i.a.x.I.x.D H Q J D J ~ ( y.p.p.i.a.p.p.s.O.O.o.( Q J J ^ p.s.  ",
"D Q p.O.p.O.p.a.s...G G ..a.s.p.y.p.y.p.a.p.a.( C Q O.y.x.Q.L.L.!.!.G n H H J J G Q o.a.a.a.a.a.a.a.y.O.p.J D ^ p.a.k.a.p.p.y.  ",
"D ^ a.p.a.o.p.p.p...G D ( p.p.a.O.y.y.O.O.O.a._ b J p.O.a.L.L.I.K.Q.^ D G G D G D G X.a.y.y.O.O.y.p.p.y.a.H D J d.O.p.O.p.O.O.  "
};
