/* XPM */
static char *f156cd5f48bd491e84877564d8aa55fb[] = {
/* columns rows colors chars-per-pixel */
"64 64 207 2 ",
"   c None",
".  c #020202",
"X  c #0B0A09",
"o  c #080707",
"O  c #151514",
"+  c #14141B",
"@  c #1A191C",
"#  c #1A1010",
"$  c #060811",
"%  c #311D0F",
"&  c #231D1C",
"*  c #261B1A",
"=  c #1C251F",
"-  c #22221D",
";  c #3B291B",
":  c #0F1320",
">  c #1B1E28",
",  c #211F25",
"<  c #222123",
"1  c #252A2A",
"2  c #2B2B2C",
"3  c #292626",
"4  c #392A24",
"5  c #322B2A",
"6  c #353127",
"7  c #242734",
"8  c #322E32",
"9  c #343434",
"0  c #3B3A3B",
"q  c #3B3635",
"w  c #41270D",
"e  c #47372A",
"r  c #433A35",
"t  c #403631",
"y  c #503A30",
"u  c #5F4129",
"i  c #49433C",
"p  c #54463A",
"a  c #5A5438",
"s  c #764423",
"d  c #624C3F",
"f  c #725033",
"g  c #64452B",
"h  c #3C3C41",
"j  c #3A3E51",
"k  c #423F40",
"l  c #3E4248",
"z  c #444345",
"x  c #464649",
"c  c #4B4B4D",
"v  c #4C4645",
"b  c #504D4E",
"n  c #5E4F4B",
"m  c #53534F",
"M  c #5C574E",
"N  c #4D4E51",
"B  c #474B59",
"V  c #514C53",
"C  c #4E5153",
"Z  c #525355",
"A  c #555659",
"S  c #56595A",
"D  c #5A5B5D",
"F  c #545958",
"G  c #675647",
"H  c #7B5A41",
"J  c #795F4D",
"K  c #635B55",
"L  c #725F5B",
"P  c #5F605E",
"I  c #75604C",
"U  c #64625D",
"Y  c #68695F",
"T  c #76695C",
"R  c #746856",
"E  c #7B7257",
"W  c #5D5E61",
"Q  c #575C6A",
"!  c #5E6062",
"~  c #5E6965",
"^  c #626365",
"/  c #6C6763",
"(  c #646669",
")  c #68666B",
"_  c #67696B",
"`  c #6A6B6D",
"'  c #6D6966",
"]  c #746D67",
"[  c #716D6B",
"{  c #766A63",
"}  c #7B7463",
"|  c #6D6E71",
" . c #636779",
".. c #706F75",
"X. c #6E7173",
"o. c #727375",
"O. c #757679",
"+. c #77797B",
"@. c #7A7B7D",
"#. c #797979",
"$. c #86512F",
"%. c #855B3C",
"&. c #895D40",
"*. c #936547",
"=. c #8B6D56",
"-. c #916F5B",
";. c #86735E",
":. c #9B7659",
">. c #84654E",
",. c #AD7A53",
"<. c #8C7C6C",
"1. c #827266",
"2. c #967C68",
"3. c #887E79",
"4. c #888175",
"5. c #968477",
"6. c #959278",
"7. c #898467",
"8. c #A18063",
"9. c #AA896D",
"0. c #B48566",
"q. c #B2906D",
"w. c #AF8D70",
"e. c #B8997D",
"r. c #C19374",
"t. c #C7A07F",
"y. c #7D7E81",
"u. c #837E82",
"i. c #7E8183",
"p. c #7D8092",
"a. c #828385",
"s. c #848689",
"d. c #86888B",
"f. c #88898B",
"g. c #88898D",
"h. c #898A8E",
"j. c #898A8C",
"k. c #898687",
"l. c #958980",
"z. c #9D8F84",
"x. c #938582",
"c. c #98918D",
"v. c #989887",
"b. c #8B8C90",
"n. c #8D8E91",
"m. c #8D8E91",
"M. c #8F9094",
"N. c #8E9193",
"B. c #919296",
"V. c #929395",
"C. c #95969A",
"Z. c #949699",
"A. c #97989C",
"S. c #999A9E",
"D. c #9A9B9D",
"F. c #959896",
"G. c #A1988E",
"H. c #B79B86",
"J. c #A19F9C",
"K. c #A79F91",
"L. c #A9A38D",
"P. c #A1A29C",
"I. c #A9A799",
"U. c #BDA99D",
"Y. c #9D9EA2",
"T. c #9C9EA1",
"R. c #9FA0A4",
"E. c #9FA1A3",
"W. c #A1A2A6",
"Q. c #A2A3A5",
"!. c #A5A6AA",
"~. c #A5A6A9",
"^. c #A7A8AC",
"/. c #A7AAAC",
"(. c #A9AAAE",
"). c #AAABAD",
"_. c #ACA8A6",
"`. c #B3ACA6",
"'. c #B4B0A1",
"]. c #ABACB0",
"[. c #ACADB1",
"{. c #AEAFB3",
"}. c #ADAEB1",
"|. c #AFB0B4",
" X c #AEB1B3",
".X c #B1B2B6",
"XX c #B2B3B5",
"oX c #B5B6B9",
"OX c #B6B8BB",
"+X c #BABBBC",
"@X c #BBB8B4",
"#X c #C4A98A",
"$X c #D3AD8E",
"%X c #CEB497",
"&X c #CAC9AF",
"*X c #D0C1A5",
"=X c #CDC9B4",
"-X c #C4C2BD",
";X c #CDC5BC",
":X c #D2CABA",
">X c #E3CFAF",
",X c #EFD3AD",
"<X c #EED9B9",
"1X c #CACECB",
"2X c #D3D5C1",
"3X c #EBE6CE",
"4X c #E7E4D3",
/* pixels */
"y.@.@.O.i.+.+.@.+.+.+.@.+.@.O.@.y.O.C N Z c N o.@.y.W.!.W.W.^.M.o.y.S c Z Z x ( i.o.+.y.y.o.a.+.a.y.D N N @.@.o.i.O.@.@.+.Z z   ",
"a.a.s.a.s.a.a.f.d.a.@.a.i.a.d.a.i.a.W D A A Z o.i.h.^.[.[.^.(.A.h.h.^ A D A Z | s.a.s.a.s.y.y.s.a.s.! C A y.g.j.a.f.s.s.a.^ A   ",
"i.s.a.s.a.a.s.X._ O.a.h.s.a.d.o.` | A D ^ @.| B.Y.S.B.n.C.B.T.O.` | D A ^ o.o.y.a.a.a.@.h.Y.Y.M.y.n.@.o.O.i.a.y.^ ` _ ` ` o.o.  ",
"i.s.y.f.a.s.d.W z ! y.a.s.a.s.S A W A D | n.y.W.|.(.s.@.a.y.s._ Z Z D A ^ s.a.a.y.s.s.y.h.!..XY.y.g.a.s.h.s.a.@.A Z A Z Z y.a.  ",
"s.h.@.s.a.a.a.` A | a.a.s.a.s.^ A A D Z ^ s.a.R.|.[.s.y.g.a.s._ D A ! S W s.y.a.y.y.y.i.b.R..XS.a.a.s.y.y.a.s.y.A C ^ S D @.@.  ",
"a.@.D ^ W W W +.y.a.a.a.s.y.f.^ A W a.a.y.s.i.y.s.s.W D ^ W D o.s.y.y.y.s.^.!.~.(.(.!.!.W.h.s.b.a.a.h.a.y.s.s.y.A S O.+.a.s.a.  ",
"g.+.A A S S S y.b.a.@.y.s.y.h.W N S i.h.s.s.a.y.a.y.D A A A N ` h.a.i.a.n.].].[..X(.(.].!.a.@.g.s.y.s.a.s.s.s.o.A A o.a.s.a.a.  ",
"y.o.S W W W W y.s.y.h.b.s.@.@.` ^ ` @.a.@.i.s.s.s.a.W A S ( ! O.g.a.a.y.h.(.W.!.!.W.].(.W.s.s.a.a.i.s.a.s.@.y.o.( S +.h.a.s.a.  ",
"Z W W S O.b.s.a.@.n.].oXa.Z Z y.s.a.s.d.y.a.s.y.s.s.^ N | h.s.y.i.s.y.a.i.i.o.C.|.(.^.!.W.s.a.s.a.s.s.s.y.S C ! d.h.s.a.y.s.y.  ",
"Z W A Z | s.i.a.@.h.[.oXa.Z Z +.a.a.a.a.i.a.s.d.s.a.^ N ` a.a.s.s.s.h.a.a.a.y.C..X!.[..X[.y.y.a.s.y.@.s.i.A Z ( a.s.a.a.a.d.h.  ",
"| o.o.| y.d.d.B.Z.Z.C.A.s.( ^ a.s.d.s.a.a.a.s.+.` o.X.` O.a.a.a.y.y.a.y.s.B.B.A.Y.B.C.S.S.i.s.s.h.s.i.s.s.| X.o.a.a.s.s.a.o.|   ",
"s.b.n.d.a.y.a.[.oXW.y.O.s.s.h.s.@.a.a.a.a.@.a.^ c W y.s.s.a.s.s.a.h.y.a.M..XOXB.@.y.@.@.y.s.s.s.s.s.s.y.s.s.s.d.s.y.a.a.a.! Z   ",
"y.y.a.a.s.a.s.R.(.Y.s.y.a.y.a.a.@.s.s.i.s.a.a.` C ! i.g.s.a.a.i.y.s.a.i.h.~.[.S.y.s.a.a.a.g.a.i.a.i.i.y.s.g.i.i.i.d.g.s.a.^ Z   ",
"h.h.y.a.C.Y.Y.[.[.Y.a.s.a.a.h.a.a.h.a.@.N.W.R.d.o.@.a.y.a.s.a.s.a.a.R.Y.Y.h.h.n.i.i.a.a.a.( ^ | d.i.i.s.s.i.i.s.i.d.o.! _ o.@.  ",
"y.a.@.i.Y.|..X[.].R.@.a.a.a.a.y.@.a.i.@.Z.oXoXB.s.f.f.i.a.s.i.a.a.y.[.|.].i.@.y.y.a.s.s.i.Z N ! s.i.a.s.i.i.s.s.y.d.| C Z @.d.  ",
"s.b.g.s.V.W.!.W.W.R.i.f.y.a.a.n.a.a.j.s.N.^.W.n.@.a.s.a.s.s.y.y.s.a.W.~.R.a.s.s.y.s.y.y.y.( W X.d.i.s.i.i.g.s.h.@.d.X.S F i.d.  ",
"(.!.(.].C.y.s.y.g.s.@.s.a.a.y.R.!.[.!.(.C.@.a.s.s.y.a.s.O.S S o.s.y.s.s.a.a.s.s.a.s.( Z W i.i.g.s.i.i.i.s.^.^.R.i.s.o.A S a.d.  ",
"].(.(.(.A.y.a.a.s.i.a.@.a.s.y.~.!.|.(..XY.y.a.s.h.a.s.n.@.Z c ` a.y.@.a.s.s.h.i.s.s.( C W s.s.g.i.i.i.i.y.~.OX^.a.s.| Z A +.@.  ",
"(.(.!.(.C.y.a.a.a.i.s.y.s.s.y.!.^.).C.Y.B.y.a.O.` o.O.o.o.o.^ y.S.-Xl.l.G.@XX.X.O.O.` ( X.i.y.a.i.i.b.Z.M.V.T.n.` o.o.( ` h.V.  ",
"!.(.(.[.V.y.s.s.g.s.a.h.i.i.y.R.^.!.@.@.a.@.a.` N S S c ^ h.y.Y.;XT >.H H 1.'.A A S O.s.s.s.a.s.i.y.R.|.|.s.s.+.C Z o.a.s.^..X  ",
"(.(.!.].Z.i.s.a.i.a.a.s.y.a.y.)..X.Xa.a.s.s.h.X.S S A Z ^ a.@.;Xd :.r.*.s q.G _.D A y.g.i.y.i.s.i.+.T.(.^.+.s.@.S c X.y.y.Q.(.  ",
"[.!.b.B.h.a.a.| ^ | s.y.n.W.S.n.j.j.^ ( ^ ^ ( D N W o.o.i.W.).z.8.&.$.s ,.:.9.z.D Z @.F.o.s.s.N.R.T.E.].^.s.d.s.@.o.s.a.y.!.).  ",
"[.Y.@.i.a.a.a.W N ! s.y.A.oX[.f.y.@.A S Z Z S D Z _ f.y.j.XX-X<.=.0.*.0.%.t.-.1.k.( P.D +.s.+.M.|.|.E.|.^.g.+.@.a.s.j.y.i.R.[.  ",
"].W.y.s.s.a.a.( Z ( y.s.B.[.^.j.a.a.S D S S D D D W i.s.n.!.+XK #X9.*.*.%Xu H.y x.' j.Z i.d.+.Z.(./.(..X~.s.i.h.a.s.s.a.h.D.).  ",
"a.h.y.s.X.Z D i.f.y.a.a.a.s.a.d.a.y.A D D D D o.f.a.).).).(.@XT 2.g f 8.w % G p 3.U D i.b.~.^.].(.^.E.(.^.i.s.s.a.@.A.|.!.(.(.  ",
"@.a.i.s._ c W @.f.a.a.y.y.s.d.a.s.d.A Z Z A Z +.f.i.W.!.).(.1XK 2.H.#X,X%X5.} ] v [ A +.i.!.^.^. X].|.^.|.s.i.s.s.a.S.).!.[.XX  ",
"a.f.a.d.X.Z ^ y.f.a.a.a.a.s.a.y.i.a.S D W ` ( O.a.s.^.[.[.@XK.<.; I <X#X>Xp } v.M - m ! b.^.(.!.R.T.~.A.E.s.i.i.o.+.Z.[.).!.R.  ",
"a.d.a.a.| Z D y.s.y.a.a.a.a.i.f.s.a.Z S ` d.a.h.a.s.[.[.N.4X3X:Xe G E *XI 6 L.6.&Xv.-X!.(. X.XS.i.y.i.y.y.i.i.y.N c s.oX~.s.O.  ",
"a.d.h.a.` A D +.a.y.a.i.a.a.a.a.a.i.Z c ( s.y.a.o.y.).OX).4.&XR 6.;Xr / r 3 } 7.E =Xk.].|.(.|.T.y.i.i.s.i.g.s.i.Z c h.oX).s.@.  ",
"_ ` ` _ ` ` X.a.a.@.a.a.s.a.s.o.` o.o.o.O.s.y.C.D.C.a.@.).6 I.2XY 9 u.0 ( 8 :Xa 6.L.+.g.M.M.Z.N.i.g.s.a.i.X.( | s.s.j.j.B.h.a.  ",
"Z Z Z Z O.h.s.d.s.i.a.a.d.a.a.D c D s.f.a.a.y.D.+XQ.D z F P.v.U ^ h @.D ( ^ v '.=X=Xm +.y.y.i.i.i.s.s.y.i.W N X.+XoXA.o.a.a.@.  ",
"S D D A o.a.@.a.a.a.a.a.a.i.d.^ A ! s.a.a.s.a.h..X~._ A Y.' #.- o c x / Z 9 i O . o ^ d.h.i.i.s.y.s.s.s.i.D Z ` [.Q.D.i.s.i.y.  ",
"A ( i.+.a.a.a.a.s.d.y.s.A.Y.^.a.@.@.a.a.s.y.s.O.^ ( +.O.W s.8 3 2 c ^ q [ Z < : B l ( D W ^ D ^ W W ^ ^ W +.+.a.d.a.h.a.y.^ !   ",
"Z ( s.s.s.a.a.a.y.a.y.O.V.XX|.h.a.a.s.s.s.a.h.^ c D a.s.Z y.x c < x #.U o.q $ j  . .^ N Z S A W Z Z A Z Z h.d.s.y.s.f.d.f.D C   ",
"^ o.a.s.a.y.a.s.i.s.B.s.B.(.D.s.a.s.a.a.y.y.s._ C ^ s.a.c W 9 x + < 9 F.W b.+ 7 p.B | ( ^ D S ^ D S ^ ( D s.@.f.@.s.@.o.O._ (   ",
"a.s.a.a.s.a.s.i.y.f.!.(.V.s.a.y.y.a.y.a.i.i.s.o.A ( a.i...) @ o z Z + . B Q 7 z Y.< o.s.y.! D W ! D o.j.y.s.@.s.a.a.| A D @.a.  ",
"s.s.y.y.a.@.@.a.y.f.!.oXC.O.a.a.a.s.@.s.s.a.s.` c S @.O.3 N + x J.I.c.0 > B @ # K A X.g.s.D A A A N ` s.s.@.a.a.a.a.X.A A y.s.  ",
"a.s.s.s.s.y.a.A.B.D.).(.C.y.f.a.s.s.y.s.y.| ` O.` O.s.@.k V q `.T ;.4.[ 2 8 5.5.4 S @.a.a.S A ` X.X.a.i.s.y.f.s.@.d.| A ! @.s.  ",
"a.i.s.y.a.@.a.(.).(.[.).Z.a.a.a.a.i.a.a.o.Z Z O.s.s.a.@.@.k.[ ] e.e.G u.3 q U.#X4 @.s.s.a.S A | s.s.j.a.s.i.s.s.i.d.| Z W @.f.  ",
"a.a.a.@.s.y.y.!.).Q.).[.C.s.a.s.a.@.s.s.| N Z o.s.a.a.@.N.[.).K w.$XJ . 2 Z i R b y.a.a.a.Z Z _ N.i.@.a.a.i.s.i.s.s.O.Z A @.i.  ",
"i.d.(.D.W.Y.D.(.(.W.h.n.f.a.a.a.a.s.s.i.i.a.@.a.a.@.s.i.a.f.f.i =.-.e o 9 J.c.& ^.W.o.A ( @.@.O.a.a.a.i.s.a.a.@.^ D X.@.@.a.a.  ",
"a.n.XX(.[.).[.(.).W.i.y.s.a.y.a.a.a.y.a.i.@.a.i.i.i.s.a.a.s.+.P t L v 9 X . 3 D [..X| Z D a.s.i.a.s.a.y.@.y.i.@.N N O.h.s.a.s.  ",
"a.h.!.(.~.W.^.W.^.Y.a.a.d.s.a.s.a.d.a.a.d.s.f.h.a.s.a.a.a.s.a.X.0 , v q * { M a.W.(.| W ^ y.i.h.a.s.a.s.y.f.f.y.A D O.i.s.s.s.  ",
"!.(.[.).B.i.a.a.a.a.y.a.a.i.a.a.y.s.a.y.Z.).~.j.y.d.i.a.a.a.h.c 2 9 3 & * n r ` a.s.+.y.s.f.a.s.@.y.a.s.a.).).W.a.a.s.@.s.d.a.  ",
"!.[.(.[.V.y.a.a.i.a.a.a.a.a.d.a.s.@.@.+.h..X[.V.i.d.a.a.s.a.a.z 0 9 A < & 5 b Z.y.i.s.a.s.y.@.a.a.a.i.y.@.(.[.W.i.i.d.i.a.a.i.  ",
"(.).A.D.n.a.a.s.a.a.a.i.s.i.a.s.C.h.n.C.B.S.W.a.| +.i.s.i.o.i.o.1 = . . O 2 x A.y.s.a.i.s.B.B.h.B.n.V.Z.B.D.A.S.a.i.h.a.i.h.N.  ",
"!.R.y.a.a.@.i.i.a.a.a.a.h.s.a.!.oXXX[.XXA.@.a.^ N W y.s.O.A c 1 ~ F 2 V.. O A S.i.s.i.a.h.).(.oX.X).[.[.(.a.@.@.@.@.a.@.s.)..X  ",
").W.i.a.f.a.s.f.s.i.i.@.a.y.@.W.!.).~.).W.i.s.` Z D a.h.@.D c 1 1XE.9 .X. @ B.T.i.a.i.y.s.).!.).!.^.(.(.oXy.h.a.d.a.d.@.@.W.).  ",
"B.B.a.f.O.W ` y.s.s.D.W.A.W.D.Z.f.h.D.n.a.^ ( ( D D | ^ _ @.| 2 F l y.n.. o y.n.a.y.u.a.d.!.[.W.h.Z.N.h.h.f.s.s.s.@.B.W.Y.B.f.  ",
"y.s.s.s.( c S @.a.n.)..X(.XX.Xs.@.+.a.y.o.Z A A S S A N ( h.a.` o.a.a.@.2 o x y.a.y.s.@.a..X[.S.+.+.+.y.a.+.@.s.a.@.D..X).h.O.  ",
"y.a.a.@.` A W y.@.f.).).~.R.!.s.a.d.s.s.O.Z A D W W S D _ a.+.C.!.^.g.s.a.` ( s.h.i.s.a.h.!.^.Z.s.h.f.a.s.@.h.a.a.a.S.).!.n.i.  ",
"W W D S O.@.i.h.a.h.).(.D.s.f.a.y.d.y.a.o.Z S | y.f.a.y.@.s.a.s.s.s.i.y.s.a.s.i.a.a.A.].W.a.s.y.a.a.a.@.s.a.a.h.!.Q.Z.a.s.y.@.  ",
"D S A c o.s.s.a.+.h.!.).A.+.y.h.a.f.a.h.O.S Z +.s.a.a.a.j.s.@.s.s.s.s.y.g.a.s.s.i.i.T.OX[.i.s.a.h.i.a.i.a.f.a.h.XXXXA.@.s.s.h.  ",
"A W o.( O.a.a.n.j.S.(.|.C.@.d.O.` O.o.O.| ( ^ @.s.a.a.@.a.a.h.o.| @.s.s.s.a.y.s.i.a.C.R.A.d.i.a.@.X.a.a.@.a.a.h.Y.S.B.a.d.+.O.  ",
"S _ j.a.i.a.a.^.^.).^.|.N.+.a.! Z D S Z ^ i.d.s.i.i.a.a.i.y.d._ Z S y.s.s.a.s.g.i.i.i.y.i.s.s.o.Z C X.d.a.i.i.y.i.+.i.@.i.W S   ",
"C ^ s.s.s.s.i.Q.^.).^.+XA.a.j.! S S S C ^ s.i.i.i.j.a.s.a.d.d._ Z N a.i.s.@.i.a.+.b.a.g.b.i.g.o.c S o.d.a.i.d.a.s.i.j.s.a.D C   ",
"X.+.a.d.d.@.a.Q.|.R.N.V.@._ ` D D ! +.X.@.a.a.s.i.a._ _ ` ` ^ | +.o.y.a.d.D.A.V.i.a.X.( ^ X._ _ @.` @.d.i.+.d.a.a.+.i.^ ` X.o.  ",
"d.s.i.y.d.a.i.^.).D.i.a._ S S D Z D d.d.a.i.s.a.i.y.S Z Z S C X.s.N.i.i.d.|.oXD.@.i.! Z S Z Z _ j.d.s.a.i.y.a.a.a.i.X.C ! @.d.  ",
"i.i.d.i.s.s.a.W.^.Q.y.a.X.D A S S W y.a.a.a.a.s.d.a.^ S S D N o.a.s.@.y.B.(..XC.i.f._ S D Z C ( a.a.y.y.s.s.a.d.y.f.X.Z S @.i.  ",
"s.y.h.a.Z.).).N.i.a.a.h.` Z ! @.s.a.a.y.s.s.a.@.a.i.D Z ` a.a.y.i.@.Q.(.S.^ W ! ! ! A Z W a.s.a.s.a.i.a.s.a.a.+.Z ^ D A D a.s.  ",
"s.a.f.y.D.XX!.a.a.d.s.s.O.Z N @.a.s.a.i.a.a.s.@.s.a.^ N ^ a.a.a.s.a.(..XR.Z A Z D Z S A S a.a.s.i.a.i.a.a.y.s.@.N Z A S A @.i.  ",
"y.@.f.y.A.!.!.h.a.@.@.O.| D ! i.a.s.a.a.a.@.@.s.@.+.` S ` h.s.s.i.s.V.(.V.Z S W D Z D ! ( y.a.a.i.s.a.a.f.+.@.+.( W D D ^ a.f.  ",
"Z W a.@.a.@.a.s.f.o.A A o.s.f.a.y.a.y.a.s.a.s.( N W @.y.B.XX!.!.oXoXA x S D D D A W +.s.s.s.s.s.s.s.y.@.a.D Z ^ a.s.n.s.a.a.y.  ",
"Z ^ s.a.s.+.a.a.a.o.A Z ( a.a.s.@.y.y.@.@.@.s.` c D a.@.s.!.~.).W.XX^ Z A A Z A Z A O.s.y.y.@.@.y.a.a.y.s.S Z D h.@.a.@.a.@.@.  "
};
