/* XPM */
static char *fa4d820ef02b4e9795df757b85e3c7f6[] = {
/* columns rows colors chars-per-pixel */
"64 64 211 2 ",
"   c None",
".  c #010102",
"X  c #03030C",
"o  c #0D0A0B",
"O  c #0C070B",
"+  c #130C0C",
"@  c #160A06",
"#  c #070814",
"$  c #0D1116",
"%  c #131415",
"&  c #14151A",
"*  c #1C1C1D",
"=  c #171719",
"-  c #18110B",
";  c #2A1E16",
":  c #261A18",
">  c #27221A",
",  c #1A1D23",
"<  c #1A1C29",
"1  c #201D29",
"2  c #1C212F",
"3  c #192030",
"4  c #242424",
"5  c #2A2B24",
"6  c #22242B",
"7  c #252829",
"8  c #2B2B2C",
"9  c #2D2420",
"0  c #332E2B",
"q  c #322820",
"w  c #2C302F",
"e  c #34312D",
"r  c #3F322B",
"t  c #272B37",
"y  c #302F31",
"u  c #323334",
"i  c #393534",
"p  c #32353A",
"a  c #3C3C3C",
"s  c #37383D",
"d  c #2F3439",
"f  c #6B3716",
"g  c #47352C",
"h  c #443C35",
"j  c #433F3C",
"k  c #4E3D35",
"l  c #50392C",
"z  c #3E413F",
"x  c #42413D",
"c  c #4E443A",
"v  c #534235",
"b  c #61452E",
"n  c #7D512F",
"m  c #63493A",
"M  c #785234",
"N  c #774D30",
"B  c #2B3040",
"V  c #3B3D44",
"C  c #3B3D4A",
"Z  c #343844",
"A  c #353C51",
"S  c #3F4041",
"D  c #3E4049",
"F  c #434344",
"G  c #4B4A46",
"H  c #45464B",
"J  c #4A4B4D",
"K  c #474847",
"L  c #524E4D",
"P  c #564A45",
"I  c #55534E",
"U  c #5C524D",
"Y  c #5E5A47",
"T  c #4D4E51",
"R  c #434656",
"E  c #4E5153",
"W  c #4F545C",
"Q  c #525355",
"!  c #5E5454",
"~  c #555659",
"^  c #56595A",
"/  c #5A5B5D",
"(  c #595659",
")  c #63554C",
"_  c #675A49",
"`  c #605D5C",
"'  c #665D57",
"]  c #7D5E4A",
"[  c #5F605E",
"{  c #6D624F",
"}  c #61615D",
"|  c #6E6150",
" . c #786758",
".. c #79765F",
"X. c #5D5E61",
"o. c #555969",
"O. c #565865",
"+. c #565C72",
"@. c #645F63",
"#. c #5E6162",
"$. c #5E6275",
"%. c #626365",
"&. c #636867",
"*. c #646669",
"=. c #66696B",
"-. c #6A6C6D",
";. c #6B6864",
":. c #766A65",
">. c #797764",
",. c #7B776D",
"<. c #626575",
"1. c #6D6E71",
"2. c #6A6B78",
"3. c #6E7072",
"4. c #727375",
"5. c #747876",
"6. c #7B7976",
"7. c #757679",
"8. c #77797B",
"9. c #7A7B7E",
"0. c #7B777A",
"q. c #8F5D39",
"w. c #90613A",
"e. c #86654B",
"r. c #976746",
"t. c #856956",
"y. c #97765D",
"u. c #8C786A",
"i. c #9C7D65",
"p. c #A67E62",
"a. c #7E8279",
"s. c #B4855E",
"d. c #9D8269",
"f. c #838479",
"g. c #888575",
"h. c #968779",
"j. c #9C977F",
"k. c #A68266",
"l. c #B48B6C",
"z. c #B29174",
"x. c #A7A17E",
"c. c #C59B79",
"v. c #7D7E81",
"b. c #777984",
"n. c #646E86",
"m. c #847F82",
"M. c #7E8183",
"N. c #7D828D",
"B. c #7F8590",
"V. c #828385",
"C. c #8E8785",
"Z. c #848689",
"A. c #86888B",
"S. c #898A8D",
"D. c #868887",
"F. c #938E8C",
"G. c #948E8A",
"H. c #9A9983",
"J. c #989487",
"K. c #8C8D91",
"L. c #858993",
"P. c #8E9093",
"I. c #929395",
"U. c #949699",
"Y. c #97989C",
"T. c #9A9B9D",
"R. c #9A9896",
"E. c #A59B89",
"W. c #A19894",
"Q. c #9EA09F",
"!. c #A2A18F",
"~. c #ACA589",
"^. c #A8A597",
"/. c #BAAA95",
"(. c #B9B698",
"). c #8A94A9",
"_. c #8E92A4",
"`. c #9D9EA1",
"'. c #9799A8",
"]. c #9FA1A3",
"[. c #9DA2B3",
"{. c #A2A3A5",
"}. c #ACA3A1",
"|. c #A5A6A9",
" X c #A7A9AC",
".X c #AAABAD",
"XX c #A9AAA4",
"oX c #B7B3A9",
"OX c #ADAEB2",
"+X c #ACAEB1",
"@X c #A0A3B5",
"#X c #AEB1B4",
"$X c #B2B2B5",
"%X c #B5B6B9",
"&X c #BABBBD",
"*X c #B6B8BC",
"=X c #C9B89B",
"-X c #D4BC97",
";X c #C4BBB4",
":X c #D9C8AB",
">X c #C8C8B7",
",X c #D5CFB1",
"<X c #DBD5B5",
"1X c #C2C1AC",
"2X c #E5D4B2",
"3X c #F6E1BB",
"4X c #B3B7C4",
"5X c #C7C6CC",
"6X c #C8C5C7",
"7X c #E5E4E4",
"8X c #EAE9EA",
/* pixels */
"v.9.9.7.M.8.8.9.8.8.8.9.8.9.5.v.v.7.E T Q J T 4.9.v.{.|.{.{. XP.4.v.~ J Q Q K *.M.4.8.v.v.4.V.8.V.v./ T T 9.9.4.M.7.9.9.8.Q F   ",
"V.V.Z.V.Z.V.V.A.A.V.9.V.M.V.A.V.M.V.X./ ~ ~ Q 4.M.S. X+X+X X.XY.S.S.%.~ / ~ Q 3.Z.V.Z.V.Z.v.v.Z.V.Z.#.E ~ v.A.S.V.A.Z.Z.V.%.~   ",
"M.Z.V.Z.V.V.Z.3.*.7.V.S.Z.V.A.4.-.1.~ / %.9.1.I.`.Y.I.K.Y.U.}.h.h.h.X./ %.4.4.v.V.V.V.9.S.`.`.P.v.K.9.4.7.M.V.v.%.-.=.-.-.4.4.  ",
"M.Z.v.A.V.Z.A.X.F #.v.V.Z.V.Z.^ ~ X.~ / 1.K.v.{.OX.XZ.9.oXh. .y.M b | J.*.A.V.V.v.Z.Z.v.S.|.$X`.v.A.V.Z.S.Z.V.9.~ Q ~ Q Q v.V.  ",
"Z.S.9.Z.V.V.V.-.~ 1.V.V.Z.V.Z.%.~ ~ / Q %.Z.V.].OX+XZ.;X .e.k.r.n M k. .%.Z.v.V.v.v.v.M.K.].$XY.V.V.Z.v.v.V.Z.v.~ E %.^ / 9.9.  ",
"V.9./ %.X.X.X.8.v.V.V.V.Z.v.A.%.~ X.V.V.v.Z.M.v.Z.Z.0.E.] p.q.f q.w.l.i.J. X|.{..X.X|.|.{.S.Z.K.V.V.S.V.v.Z.Z.v.~ ^ 7.8.V.Z.V.  ",
"A.8.~ ~ ^ ^ ^ v.K.V.9.v.Z.v.S.X.T ^ M.S.Z.Z.V.v.V.M.W. .z.n r.r.s.s.c.y.U +X+X+X.XA.|.+X|.V.9.A.Z.v.Z.V.Z.Z.Z.4.~ ~ 4.V.Z.V.V.  ",
"v.4.^ X.X.X.X.v.Z.v.S.K.Z.9.9.-.%.-.9.V.9.M.Z.Z.Z.Z.}.u.e.l.N l.c.l.p.i.j T.P.I.A.Z.|..X{.Z.Z.V.V.M.Z.V.Z.9.v.4.*.^ 8.S.V.Z.V.  ",
"Q X.X.^ 7.K.Z.Z.9.K.+X%XV.Q Q v.Z.V.Z.A.v.V.Z.v.Z.Z.C.k d.b b k.l t.g m : L J V.D.v.|.|.{.Z.V.Z.V.Z.Z.Z.v.^ E #.A.S.Z.V.v.Z.v.  ",
"Q X.~ Q 1.Z.M.V.9.S.+X%XV.Q Q 8.V.V.V.V.M.V.Z.A.Z.V.G.U v m t.d.z. .) q P : I.` *.|.+X$X+Xv.v.V.Z.v.9.Z.M.~ Q *.V.Z.V.V.V.A.S.  ",
"1.4.4.1.v.A.A.I.U.U.U.Y.Z.*.%.V.Z.A.Z.V.V.V.Z.8.-.4.I.L ; h.:X2X3X:Xu.r  .P G 6.V.I.U.Y.`.M.Z.Z.S.Z.M.Z.Z.1.3.4.V.V.Z.Z.V.4.1.  ",
"Z.K.K.A.V.v.V.+X%X{.v.7.Z.Z.S.Z.9.V.V.V.V.9.V.%.J X.XXR.@ v =X-X-X=XU :. ./.Y ' ` 7.9.9.v.Z.V.Z.Z.Z.Z.v.Z.Z.Z.A.Z.v.V.V.V.#.Q   ",
"v.v.V.V.Z.V.Z.`..X`.Z.v.V.v.V.V.9.Z.Z.M.Z.V.V.=.E oXg.>.q g _ =X/._ U > {  .~.} -.V.V.V.V.A.V.M.V.M.M.v.Z.A.M.M.M.A.A.Z.V.%.Q   ",
"S.S.v.V.U.`.`.+X+X`.V.Z.V.V.S.V.V.S.V.9.P.{.].A.oX(.,X(.Y x P v h I G x ~.<Xx.f.V.M.V.V.V.*.%.1.A.M.M.Z.Z.M.Z.Z.M.A.4.#.=.7.9.  ",
"v.V.9.M.`.$X$X+X+X].9.V.V.V.V.v.9.V.M.9.U.%X%XT.^.,X(./.H.>Xj ! ! x 6X,.E.=X,XJ.v.V.Z.Z.V.~ T #.Z.M.V.Z.M.M.Z.Z.v.A.1.E Q 9.A.  ",
"Z.K.A.Z.U.{.|.{.{.].M.A.v.V.V.K.V.V.S.Z.P. X{.{.g.~.<XH.a.x -.L L -.x ,.h.<X~.g.9.Z.v.v.9.*.X.3.A.M.Z.M.N.A.Z.S.9.A.3.^ ~ M.A.  ",
".X|..X+XU.v.Z.v.A.Z.9.Z.V.V.v.].|.+X|..XU.9.V.G.H._ H.XXF 7 S.8.0.S.> ;.>Xj.m H.6.Z.*.Q X.M.M.A.Z.M.M.M.Z. X X].M.Z.4.~ ^ V.A.  ",
"+X.X.X.XY.v.V.V.Z.M.V.9.V.Z.v.|.|.#X.X$X`.v.V.I 1X..^.I *.N.Y.J T U.M.|.;.!.>.>X} Z.*.E X.N.Z.A.M.M.M.M.v.|.*X XV.Z.1.Q ~ 8.9.  ",
".X.X|..XU.v.V.V.V.M.Z.v.Z.Z.v.|. X.XU.`.I.v.V.4.f.!.G.7 6 W % ( / a J & 7 G.^.f.*.7.-.*.3.M.v.N.M.M.K.U.P.I.`.K.-.4.4.*.-.S.I.  ",
"|..X.X+XU.v.Z.Z.A.Z.V.S.M.M.v.]. X|.9.9.V.9.V.8., / 4 & 6 p / / } %.p 6 # 1 *.4.X.^ 7.Z.A.Z.Z.Z.V.v.].#X#XZ.Z.8.E Q 4.V.Z. X$X  ",
".X.X|.+XU.M.Z.V.v.V.V.Z.v.V.v. X$X$XV.V.Z.Z.S.7.$.2.< H 6 H %.T.R.%.H $ 2.C <.+.O.~ v.A.M.v.M.Z.M.8.`. X X8.Z.9.^ J 3.v.v.{..X  ",
"+X|.K.I.S.V.V.1.%.1.Z.v.K.{.Y.K.S.S.%.*.%.%.*.W [.o.V H , L.Z.4.-.Z.B.< D O.o.@XO.Q 7.V.M.Z.Z.P.].`.].+X XZ.A.Z.9.4.Z.V.v.|..X  ",
"+X`.9.M.V.V.V.X.T #.Z.v.Y.%X+XA.v.9.~ ^ Q Q ^ d O.N.6 & C o.<.# X <.+.A $ 8 V.O.p ~ 7.V.M.Z.8.P.#X#X].#X XA.8.9.V.Z.S.v.M.].+X  ",
"+X{.v.Z.Z.V.V.*.Q *.v.Z.I.+X XS.V.V.^ / ^ ^ *.S A.~ p , R +.B C V Z +.$.< . ^ Z.V / 8.Z.M.A.8.U. X X X$X|.Z.M.S.V.Z.Z.V.S.T..X  ",
"V.S.v.Z.3.Q / M.A.v.V.V.V.Z.V.A.V.v.~ / / / F K u 3./ p o._.2 Z V 3 ).n.R . 4.e ^ V.Z.M.K.|. X+X X X]. X XM.Z.Z.V.9.T.#X|..X.X  ",
"9.V.M.Z.=.J X.9.A.V.V.v.v.Z.A.V.Z.A.~ Q Q ~ a a 8 / 4.s '.'.t $ % t ).).<.@.! 0 y v.V.8.M.|. X X#X+X#X X#XZ.M.Z.Z.V.Y..X|.+X$X  ",
"V.A.V.A.3.Q %.v.A.V.V.V.V.Z.V.v.M.V.^ / X.-.Q K J u 7.~ 4X'.t X o X N.4Xb.R.! h ~ K.P.K.K. X.X|.].`.|.Y.].Z.M.M.4.8.U.+X X|.].  ",
"V.A.V.V.1.Q / v.Z.v.V.V.V.V.M.A.Z.V.Q ^ -.A.V.9.-.8 L a 5X6XF + - O 4.5X5Xu G.3..X+X.X+X X#X%XT.M.v.M.v.v.M.M.v.T J Z.%X|.Z.7.  ",
"V.A.S.V.-.~ / 8.V.v.V.M.V.V.V.V.V.M.Q J *.Z.v.V.4.9.L + ;.m.i - - @ 0 C.6.i F.V.+X.X+X+X#X X#X`.v.M.M.Z.M.A.Z.M.Q J S.%X XZ.9.  ",
"=.-.-.=.-.-.3.V.V.v.V.V.Z.V.Z.4.-.4.4.4.7.Z.v.U.`.U.R.L ,.' g : ; c ) k F.I.Z.U.K.K.U.A.P.P.U.P.M.A.Z.V.M.3.*.1.Z.Z.S.S.I.S.V.  ",
"Q Q Q Q 7.S.Z.A.Z.M.V.V.A.V.V./ J / Z.A.V.V.v.T.&X{.;.0 h c ) @ ; ) :.g |.+X%XY.9.V.V.8.v.v.M.M.M.Z.Z.v.M.X.T 3.&X%XY.4.V.V.9.  ",
"^ / / ~ 4.V.9.V.V.V.V.V.V.M.A.%.~ #.Z.V.V.Z.V.S.$X{.-.i e c - + O ; r h G Y. XY.9.S.v.A.S.M.M.Z.v.Z.Z.Z.M.X.Q -.+X{.T.M.Z.M.v.  ",
"~ *.M.8.V.V.V.V.Z.A.v.Z.Y.`. XV.9.9.V.V.Z.v.Z.7.%.v.S a a G x O * 8 5 > F S.|.Y.9.V.*./ X.%./ %.X.X.%.%.X.8.8.V.A.V.S.V.v.%.#.  ",
"Q *.Z.Z.Z.V.V.V.v.V.v.7.I.$X#XS.V.V.Z.Z.Z.V.S.%.J Z.H w F 5.J # , 8.&.5 #.-.+X`.V.Z.%.T Q ^ ~ X.Q Q ~ Q Q S.A.Z.v.Z.A.A.A./ E   ",
"%.4.V.Z.V.v.V.Z.M.Z.I.Z.I..XT.Z.V.Z.V.V.v.v.Z.=.E 4.7 $ 9.I.7 = * z R.a.8 V. XK.4.9.1.*.%./ ^ %./ ^ %.*./ Z.9.A.9.Z.9.4.7.=.*.  ",
"V.Z.V.V.Z.V.Z.M.v.A.|..XI.Z.V.v.v.V.v.V.M.M.Z.4.~ P.* 7 a u = .X%.. 8 4 o *.Z.7.E X.4.Z.v.#./ X.#./ 4.S.v.Z.9.Z.V.V.1.~ / 9.V.  ",
"Z.Z.v.v.V.9.9.V.v.A.|.%XU.7.V.V.V.Z.9.Z.Z.V.Z.-.J Q.4 *.K a a 7X&X7 [ J K ( Z.1.T Q 3.A.Z./ ~ ~ ~ T -.Z.Z.9.V.V.V.V.3.~ ~ v.Z.  ",
"V.Z.Z.Z.Z.v.V.Y.I.T. X.XU.v.A.V.Z.Z.v.Z.v.1.-.7.-.F / % F ` i 7X8X4.% K a * K.v.1.3.9.V.V.^ ~ -.3.3.V.M.Z.v.A.Z.9.A.1.~ #.9.Z.  ",
"V.M.Z.v.V.9.V..X X.X+X XU.V.V.V.V.M.V.V.4.Q Q 7.T.F 8 % % 8 a 7X8X*.= K &.^ / Z.Z.Z.Z.Z.V.^ ~ 1.Z.Z.S.V.Z.M.Z.Z.M.A.1.Q X.9.A.  ",
"V.V.V.9.Z.v.v.|..X{..X+XU.Z.V.Z.V.9.Z.Z.1.T Q 4.1./ S.E % . O * = . o = E T.~ #.M.V.V.V.V.Q Q =.P.M.9.V.V.M.Z.M.Z.Z.7.Q ~ 9.M.  ",
"M.A..XT.{.`.`..X.X{.S.K.S.V.V.V.V.Z.Z.M.M.V.9.V.=.&.D.Q . % 4 8 7 7 y s v.v.v.K.+X{.7.~ *.9.9.7.V.V.V.M.Z.V.V.9.%./ 3.9.9.V.V.  ",
"V.K.$X.X+X.X+X.X+X{.M.v.Z.V.v.V.V.V.v.V.M.9.V.M.M./ / ~ Q ~ v.Z.V.V.Z.v.V.v.v.I.+X$X1.Q / V.Z.M.V.Z.V.v.v.v.M.9.T T 7.S.Z.V.Z.  ",
"V.K.|..X|.{. X{. X`.V.V.A.Z.V.Z.V.A.V.V.A.Z.A.A.V.Z.V.V.V.Z.V.V.9.V.Z.Z.Z.K.Z.`.{..X1.X.%.v.M.S.V.Z.V.Z.v.S.A.v.~ / 7.M.Z.Z.Z.  ",
"|..X+X.XI.M.V.V.V.V.v.V.V.M.V.V.v.Z.V.v.U.+X|.S.v.A.M.V.V.V.M.V.V.A.Z.V.K.+X XU.V.Z.8.v.Z.A.V.Z.9.v.V.Z.V. X.X{.V.V.Z.9.Z.A.V.  ",
"|.+X.X+XI.v.V.V.M.V.V.V.V.V.A.V.Z.9.9.8.S.$X+XI.M.A.V.V.Z.V.Z.V.V.V.v.v.A.OX#X`.v.M.Z.V.Z.v.9.V.V.V.M.v.9..X+X{.M.M.A.M.V.V.M.  ",
".X.XT.`.K.V.V.Z.V.V.V.M.Z.M.V.Z.U.S.K.U.I.Y.{.V.1.8.M.Z.M.4.7.9.V.v.K.U.I..X.XY.v.Z.V.M.Z.I.I.S.I.K.I.U.I.T.T.Y.V.M.S.V.M.S.I.  ",
"|.`.v.V.V.9.M.M.V.V.V.V.S.Z.V.|.%X$X+X$XT.9.V.%.T X.v.Z.7.~ J 4.Z.V.{.$X X+X+XY.M.Z.M.V.S..X.X%X$X.X+X+X.XV.9.9.9.9.V.9.Z. X$X  ",
".X{.M.V.A.V.Z.A.Z.M.M.9.V.v.9.{.|..X|..X{.M.Z.-.Q / V.S.9./ Q -.A.V.`.$X.X+X+X`.M.V.M.v.Z. X|..X|. X.X.X%Xv.S.V.A.V.A.9.9.{..X  ",
"I.I.V.A.7.X.-.v.Z.Z.T.{.T.{.T.U.A.S.T.K.V.%.*.*./ / 1.%.=.9.4.K.{.U.I.K.I.K.K.K.V.v.m.V.Z.|.+X{.S.I.P.S.S.A.Z.Z.Z.v.I.{.`.I.A.  ",
"v.Z.Z.Z.*.J ^ 9.V.K..X$X.X$X$XZ.9.9.V.v.4.Q ~ ~ ^ ^ ~ T *.S.V.`.*X+XZ.8.v.Z.v.v.V.v.Z.9.V.$X+XY.8.8.8.v.V.8.9.Z.V.9.T.$X XS.7.  ",
"9.V.V.9.-.~ X.v.9.A. X.X|.].|.Z.V.A.Z.Z.7.Q ~ / X.X.^ / =.V.8.U.|. XS.Z.Z.Z.v.Z.S.M.Z.V.S.|. XU.Z.S.A.V.Z.9.S.V.V.V.Y. X|.K.M.  ",
"/ / / ^ 7.v.M.S.V.S..X.XT.Z.S.V.v.A.v.V.4.Q ^ 1.v.A.V.v.9.Z.V.Z.Z.Z.M.v.Z.V.Z.v.V.V.Y.+X{.V.A.v.V.V.V.9.Z.V.V.S.|.{.U.V.Z.v.9.  ",
"/ ^ ~ J 7.Z.Z.V.8.S.|..XU.8.v.S.V.A.V.S.7.^ Q 8.Z.Z.V.V.S.Z.9.Z.Z.A.Z.v.A.V.Z.Z.M.M.`.*X+XM.Z.V.S.M.V.M.V.A.V.S.$X$XY.9.Z.Z.S.  ",
"~ X.4.*.7.V.V.K.S.Y..X+XU.9.A.7.-.7.4.7.-.*.%.9.Z.V.V.9.V.V.S.4.1.9.Z.Z.Z.V.v.Z.M.V.U.].Y.A.v.V.9.3.V.V.9.Z.V.S.`.Y.I.V.A.8.7.  ",
"^ =.S.V.M.V.V. X X.X X#XP.8.V.#.Q / ^ Q %.M.A.Z.M.M.V.V.M.v.A.=.Q ^ v.Z.Z.V.Z.A.M.M.M.v.M.Z.Z.7.Q E 3.A.V.M.M.v.M.8.M.9.M.X.^   ",
"E %.Z.V.Z.Z.M.{. X.X X&XY.V.S.#.^ ^ ^ E %.Z.M.M.M.S.V.Z.V.A.A.=.Q T V.M.Z.9.M.V.8.K.V.A.K.M.A.7.J ^ 4.A.V.M.A.V.Z.M.S.Z.V./ E   ",
"3.8.V.A.A.v.V.{.#X].P.I.9.=.-./ / #.8.3.9.V.V.Z.M.V.=.=.-.-.%.1.8.4.v.V.A.T.Y.I.M.V.3.*.%.3.=.=.9.-.9.A.M.8.A.V.V.8.M.%.-.3.7.  ",
"A.Z.M.v.A.V.M. X.XT.M.V.=.^ ^ / Q / A.A.V.M.Z.V.M.v.^ Q Q ^ E 3.Z.P.M.M.A.#X%XT.9.M.#.Q ^ Q Q =.S.A.Z.V.M.v.V.V.V.M.3.E #.9.A.  ",
"M.v.A.M.Z.Z.V.{. X{.v.V.3./ ~ ^ ^ X.v.V.V.V.V.Z.A.V.%.^ ^ / T 4.V.Z.9.v.I..X$XU.M.A.=.^ / Q E *.V.Z.v.v.Z.Z.V.A.v.A.3.Q ^ 9.M.  ",
"Z.v.S.V.U. X XP.M.V.V.S.-.Q #.9.Z.V.V.v.Z.Z.V.9.V.M./ Q -.V.V.v.M.9.{..XY.%.X.#.#.#.~ Q X.V.Z.V.Z.V.M.V.Z.V.V.8.Q %./ ~ / V.Z.  ",
"Z.V.A.v.T.$X|.V.V.A.Z.Z.7.Q T 9.V.Z.V.M.V.V.Z.9.Z.V.%.T %.V.V.V.Z.V..X$X].Q ~ Q / Q ^ ~ ^ V.V.Z.M.V.M.V.V.v.Z.9.T Q ~ ^ ~ 9.M.  ",
"v.9.A.v.T.|.|.S.V.9.9.7.1./ #.M.V.Z.V.V.V.9.9.Z.9.8.-.^ -.S.Z.Z.M.Z.I..XI.Q ^ X./ Q / #.*.v.V.V.M.Z.V.V.A.8.9.8.*.X./ / %.V.A.  ",
"Q X.V.9.V.9.V.Z.A.4.~ ~ 4.Z.A.V.v.V.v.V.Z.V.Z.*.T X.9.v.I.$X|.|.%X%X~ K / / / / ~ X.8.Z.Z.Z.Z.Z.Z.Z.v.9.V./ Q %.V.Z.K.Z.V.V.v.  ",
"Q %.Z.V.Z.8.V.V.V.4.~ Q *.V.V.Z.9.v.v.9.9.9.Z.-.J / V.9.Z.|.|..X{.$X%.Q ~ ~ Q ~ Q ~ 7.Z.v.v.9.9.v.V.V.v.Z.^ Q / S.9.V.9.V.9.9.  "
};
