/* XPM */
static char *_9fe89d8ad1944889446a4d12e0b8aad[] = {
/* columns rows colors chars-per-pixel */
"64 64 181 2 ",
"   c None",
".  c #080808",
"X  c #160900",
"o  c #14120F",
"O  c #090911",
"+  c #110F13",
"@  c #0F1011",
"#  c #1C1C1C",
"$  c #171715",
"%  c #27140D",
"&  c #281916",
"*  c #2C221E",
"=  c #3D271C",
"-  c #211F25",
";  c #221D2D",
":  c #1E2420",
">  c #252524",
",  c #2A2422",
"<  c #2B2C2B",
"1  c #26282B",
"2  c #332C23",
"3  c #392D25",
"4  c #2D302E",
"5  c #37372D",
"6  c #2E2E33",
"7  c #343533",
"8  c #3B3A32",
"9  c #353638",
"0  c #3D3C3B",
"q  c #46220F",
"w  c #43291A",
"e  c #502E1A",
"r  c #54301C",
"t  c #42342B",
"y  c #483226",
"u  c #463731",
"i  c #4C3C35",
"p  c #493F3E",
"a  c #5B3828",
"s  c #3E423F",
"d  c #44423E",
"f  c #4B463D",
"g  c #735438",
"h  c #7A4A2A",
"j  c #3D3C43",
"k  c #413F43",
"l  c #3F4143",
"z  c #434343",
"x  c #4D4D46",
"c  c #43444A",
"v  c #4A4B4D",
"b  c #48494A",
"n  c #534E4A",
"m  c #4E514E",
"M  c #56584F",
"N  c #4D4E51",
"B  c #4E5153",
"V  c #525355",
"C  c #5B5A52",
"Z  c #555659",
"A  c #56595A",
"S  c #5A5B5D",
"D  c #595753",
"F  c #765844",
"G  c #6E5D52",
"H  c #67665E",
"J  c #6C6453",
"K  c #7D695E",
"L  c #7A765F",
"P  c #5D5E61",
"I  c #5E6062",
"U  c #626365",
"Y  c #646669",
"T  c #67696B",
"R  c #6A6B6D",
"E  c #6A6963",
"W  c #736560",
"Q  c #7A746C",
"!  c #6D6E71",
"~  c #6E7073",
"^  c #727375",
"/  c #757679",
"(  c #77797B",
")  c #7A7B7E",
"_  c #797979",
"`  c #895A39",
"'  c #946A47",
"]  c #856B5C",
"[  c #807D5D",
"{  c #93725E",
"}  c #8B6547",
"|  c #A3754F",
" . c #AA7B55",
".. c #8A7260",
"X. c #847C6C",
"o. c #817665",
"O. c #967B69",
"+. c #817E76",
"@. c #A37D61",
"#. c #AE8354",
"$. c #B0805C",
"%. c #868368",
"&. c #96826F",
"*. c #83807B",
"=. c #928A79",
"-. c #AB8167",
";. c #B48F71",
":. c #B5957C",
">. c #C0936B",
",. c #7D7E81",
"<. c #7A7581",
"1. c #807F84",
"2. c #7E8183",
"3. c #828385",
"4. c #848689",
"5. c #86888B",
"6. c #898A8D",
"7. c #888782",
"8. c #918F8A",
"9. c #94938E",
"0. c #8C8D91",
"q. c #8E9093",
"w. c #929396",
"e. c #959699",
"r. c #97989B",
"t. c #9A9B9D",
"y. c #9B9894",
"u. c #948A96",
"i. c #A69280",
"p. c #A49E8A",
"a. c #B29B87",
"s. c #A49E94",
"d. c #9FA19D",
"f. c #B2AD88",
"g. c #AFA897",
"h. c #B0AC97",
"j. c #A8A787",
"k. c #958FA2",
"l. c #9D9EA2",
"z. c #9C9EA1",
"x. c #9FA0A4",
"c. c #9FA1A3",
"v. c #A1A2A6",
"b. c #A2A3A5",
"n. c #ABABA5",
"m. c #A5A6AA",
"M. c #A5A6A9",
"N. c #A7A8AC",
"B. c #A7A9AC",
"V. c #A9AAAE",
"C. c #AAABAD",
"Z. c #B3ADA1",
"A. c #B0AFAC",
"S. c #BDBCAE",
"D. c #ABACB0",
"F. c #ACADB1",
"G. c #AEAFB3",
"H. c #ADAEB1",
"J. c #AFB0B4",
"K. c #AEB1B3",
"L. c #B1B2B6",
"P. c #B2B3B5",
"I. c #BBB9B4",
"U. c #B5B6B9",
"Y. c #B6B8BC",
"T. c #BABBBC",
"R. c #B8B7BC",
"E. c #C2BFB4",
"W. c #BFC0BF",
"Q. c #CEC5AE",
"!. c #D4D0AC",
"~. c #C6C2BF",
"^. c #C9C4B9",
"/. c #D2CEB7",
"(. c #C8C4C7",
"). c #D3D2C7",
"_. c #D5D5C8",
"`. c #F3E2CD",
"'. c #F6F3CC",
"]. c #E5E3D1",
"[. c #FBF9D3",
/* pixels */
",.) ) / 2.( ( ) ( ( ( ) ( ) / ,.,./ B N V v N ^ ) ,.v.m.v.v.N.q.^ ,.A v V V b Y 2.^ ( ,.,.^ 3.( 3.,.S N N ) ) ^ 2./ ) ) ( V z   ",
"3.3.4.3.4.3.3.5.5.3.) 3.2.3.5.3.2.3.P S Z Z V ^ 2.6.N.F.F.N.V.r.6.6.U Z S Z V ! 4.3.4.3.4.,.,.4.3.4.I B Z ,.5.6.3.5.4.4.3.U Z   ",
"2.4.3.4.3.3.4.~ Y / 3.6.4.3.5.^ R ! Z S U ) ! w.l.r.w.0.e.w.z./ R ! S Z U ^ ^ ,.3.3.3.) 6.l.l.q.,.0.) ^ / 2.3.,.U R T T R ^ ^   ",
"2.4.,.5.3.4.5.P z I ,.3.4.3.4.A Z P Z S ! 0.,.v.G.V.4.) 3.,.4.T V V S Z U 4.3.3.,.4.4.,.6.m.L.l.,.5.3.4.6.4.3.) Z V Z V V ,.3.  ",
"4.6.) 4.3.3.3.R Z ! 3.3.4.3.4.U Z Z S V U 4.3.x.J.F.4.,.5.3.4.T S Z I A P 4.,.3.,.,.,.2.0.x.L.r.3.3.4.,.,.3.4.,.Z B U A S ) )   ",
"3.) S U P P P ( ,.3.3.3.4.,.5.U Z P 3.3.,.4.2.,.4.4.P S U P S ^ 4.,.,.,.4.N.m.M.V.V.m.m.v.6.4.0.3.3.6.3.,.4.4.,.Z A / ( 3.4.3.  ",
"5.( Z Z A A A ,.0.3.) ,.4.,.6.P N A 2.6.4.4.3.,.3.,.S Z Z Z N R 6.3.2.3.0.D.D.F.L.V.V.D.m.3.) 5.4.,.4.3.4.4.4.^ Z Z ^ 3.4.3.3.  ",
",.^ A P P P P ,.4.,.6.0.4.) ) R U R ) 3.) 2.4.4.4.3.P Z A Y I / 5.3.3.,.6.V.v.m.m.v.D.V.v.4.4.3.3.2.4.3.4.) ,.^ Y A ( 6.3.4.3.  ",
"V P P A / 0.4.3.) 0.D.U.3.V V ,.4.3.4.5.,.3.4.,.4.4.U N ! 6.4.,.2.4.,.3.2.2./ e.J.V.N.m.v.4.3.4.3.4.4.4.,.A B I 5.6.4.3.,.4.,.  ",
"V P Z V ! 4.2.3.) 6.F.U.3.V V ( 3.3.3.3.2.3.4.5.4.3.U N R 3.3.4.4.4.6.3.3.3.,.e.L.m.F.L.F.,.,.3.4.,.) 4.2.Z V Y 3.4.3.3.3.5.6.  ",
"! ^ ^ ! ,.5.5.w.e.e.e.r.4.Y U 3.4.5.4.3.3.3.4.( R ^ ~ R / 3.3.3.,.,.3.,.4.w.w.r.l.w.e.r.r.2.4.4.6.4.2.4.4.! ~ ^ 3.3.4.4.3.^ !   ",
"4.0.0.5.3.,.3.F.U.v.,./ 4.4.6.4.) 3.3.3.3.) 3.U v P ,.4.4.3.3.4.3.6.,.3.q.L.R.w.) ,.) ) ,.4.3.4.4.4.4.,.4.4.4.5.4.,.3.3.3.I V   ",
",.,.3.3.4.3.4.x.V.l.4.,.3.,.3.3.) 4.4.2.4.3.3.R B I 2.5.4.M.^...F ] s.8.6.M.F.r.,.4.3.3.3.5.3.2.3.2.2.,.4.5.2.2.2.5.5.4.3.U V   ",
"6.5.,.3.e.l.l.F.F.l.3.4.3.3.6.3.3.6.3.) q.v.c.5.^ ) 3.,.n.=.a.} ` ' g &.(.6.6.0.2.2.3.3.3.Y Y ! 5.2.2.4.4.2.2.4.2.5.^ I T / )   ",
",.3.) 2.l.L.L.F.D.c.) 3.3.3.3.,.) 3.2.) e.U.U.w.4.5.5.2.y.w ' $.'  .| :.i.A.) ,.,.3.4.4.2.Z N I 4.2.3.4.2.2.4.4.,.5.! B V ) 5.  ",
"4.0.5.4.w.v.m.v.v.c.2.5.,.3.3.0.3.3.6.4.q.N.v.0.) 3.5.3.Z.{ h ` #.>. .-.O.7.4.4.,.4.,.,.,.Y P ~ 5.2.4.2.2.5.4.6.) 5.~ A Z 2.5.  ",
"V.m.V.D.e.,.4.,.5.4.) 4.3.3.,.c.m.F.m.V.e.) 3.4.4.,.3.6.t F `  .' ;.a O.Q 3.4.4.3.4.Y V P 2.2.5.4.2.2.2.4.N.N.c.2.4.^ Z A 3.5.  ",
"D.V.V.V.r.,.3.3.4.2.3.) 3.4.,.b.m.J.V.L.l.,.3.4.6.3.4.0.t ..e r @.w = t 0.4.6.2.4.4.Y B P 2.4.5.2.2.2.2.,.M.Y.N.3.4.! V Z ( )   ",
"V.V.m.V.e.,.3.3.3.2.4.,.4.4.,.m.N.C.e.l.w.,.3./ R ^ / ^ g.i % ] q O.i.Q l.! ~ ~ / / R Y ~ 2.,.2.2.2.0.e.q.w.z.0.R ^ ^ Y R 6.e.  ",
"m.V.V.F.w.,.4.4.5.4.3.6.2.2.,.c.N.m.) ) 3.) 3.R N A A v y.i X & y a.`.o.9.Z A Z Z A / 4.5.4.4.4.2.,.x.J.J.4.4.( B V ^ 3.4.N.L.  ",
"V.V.m.D.e.2.4.3.2.3.3.4.,.3.,.C.L.L.3.3.4.4.6.~ S A Z V t.X.h./.X.J =.E.e.A Z P S Z ,.5.2.,.2.4.2.( z.V.N.( 4.) A v ~ ,.,.b.V.  ",
"F.m.0.w.6.3.3.! U ! 4.,.0.v.r.0.6.6.U Y U U Y S N P ^ ^ 8.%.'.!.Q.3 2 8.I.Z P S A V / 3.2.4.4.q.x.z.c.D.N.4.5.4.) ^ 4.3.,.m.C.  ",
"F.l.) 2.3.3.3.P N I 4.,.r.U.F.5.,.) Z A V V A S V T 5.,.).=.[.f.p.p.8 ).U Z Z S S Z / 3.2.4.( q.J.J.c.J.N.5.( ) 3.4.6.,.2.c.F.  ",
"D.v.,.4.4.3.3.Y V Y ,.4.w.F.N.6.3.3.A S A A S S S P 2.4.D J j.[ f Z.+.d U S V S S S ) 4.2.5.( e.V.B.V.L.M.4.2.6.3.4.4.3.6.t.C.  ",
"3.6.,.4.~ V S 2.5.,.3.3.3.4.3.5.3.,.Z S S S S ^ 5.3.C.F.x S._./.8 Q H d R 4.3.4.4.3.4.2.0.M.N.D.V.N.c.V.N.2.4.4.3.) r.J.m.V.V.  ",
") 3.2.4.T v P ) 5.3.3.,.,.4.5.3.4.5.Z V V Z V ( 5.2.v.F.9 0 D x 0 E 8 d T.4.,.3.( ,.3.( 2.m.N.N.K.D.J.N.J.4.2.4.4.3.r.C.m.F.P.  ",
"3.5.3.5.~ V U ,.5.3.3.3.3.4.3.,.2.3.A S P R Y / 3.4.N.P.6 ,.c @ > ^ 4 4 W.4.3.6.0.0.q.0.0.N.V.m.x.z.M.r.c.4.2.2.^ ( e.F.C.m.c.  ",
"3.5.3.3.! V S ,.4.,.3.3.3.3.2.5.4.3.V A R 5.3.6.3.4.F.d.l w.Y z (.T.# ^ ) 4.,.e.L.F.V.D.N.K.U.t.2.,.2.,.,.2.2.,.N v 4.U.b.4./   ",
"3.5.6.3.R Z S ( 3.,.3.2.3.3.3.3.3.2.V v Y 4.,.3.^ ,.C.M $ c P O 6 ( 0 R / ,.) e.F.V.F.D.J.V.J.z.,.2.2.4.2.5.4.2.V v 6.U.C.4.)   ",
"T R R T R R ~ 3.3.) 3.3.4.3.4.^ R ^ ^ ^ / 4.,.e.l.e.I.n.5 7.V 1 A O . ^ 5.e.e.e.0.0.e.5.q.q.e.q.2.5.4.3.2.~ Y ! 4.4.6.6.w.6.3.  ",
"V V V V / 6.4.5.4.2.3.3.5.3.3.S v S 4.5.3.3.,.t.T.b.C ].8 I.z z 6 j > +.6.F.U.r.) 3.3.( ,.,.2.2.2.4.4.,.2.P N ~ T.U.r.^ 3.3.)   ",
"A S S Z ^ 3.) 3.3.3.3.3.3.2.5.U Z I 4.3.3.4.3.6.L.b.L ]., U 0 3.. c > D J.m.N.r.) 6.,.5.6.2.2.4.,.4.4.4.2.S V R F.b.t.2.4.2.,.  ",
"Z Y 2.( 3.3.3.3.4.5.,.4.r.l.N.3.) ) 3.3.4.,.4./ U U h.s.o 7 n.k j - - c.D.G.m.r.,.3.Y S P U S U P P U U P ( ( 3.5.3.6.3.,.U I   ",
"V Y 4.4.4.3.3.3.,.3.,./ w.P.J.6.3.3.4.4.4.3.6.U v U ).*.U H _ <.k.; # w.N.N.F.l.3.4.Y N V A Z P V V Z V V 6.5.4.,.4.5.5.5.S B   ",
"U ^ 3.4.3.,.3.4.2.4.w.4.w.V.t.4.3.4.3.3.,.,.4.T B T b.) ,.d ~.(.u.b + r.F.l.N.0.^ ) ! Y U S A U S A U Y S 4.) 5.) 4.) ^ / T Y   ",
"3.4.3.3.4.3.4.2.,.5.m.V.w.4.3.,.,.3.,.3.2.2.4.^ Z Y 3.,.5.V * p W n o e.N.,.4.^ B P ^ 4.,.I S P I S ^ 6.,.4.) 4.3.3.! Z S ) 3.  ",
"4.4.,.,.3.) ) 3.,.5.m.U.e./ 3.3.3.4.) 4.4.3.4.R v A ) 2.q.V u K G 2 n T.m.,.5.! N V ~ 5.4.S Z Z Z N R 4.4.) 3.3.3.3.~ Z Z ,.4.  ",
"3.4.4.4.4.,.3.r.w.t.C.V.e.,.5.3.4.4.,.4.,.! R / R / 4.3.T., u i 3 $ b e.w.,.0.,.! ~ ) 3.3.A Z R ~ ~ 3.2.4.,.5.4.) 5.! Z I ) 4.  ",
"3.2.4.,.3.) 3.V.C.V.F.C.e.3.3.3.3.2.3.3.^ V V / 4.4.3.( 0 d d f # @ v t.,.,.2.3.4.4.4.4.3.A Z ! 4.4.6.3.4.2.4.4.2.5.! V P ) 5.  ",
"3.3.3.) 4.,.,.m.C.b.C.F.e.4.3.4.3.) 4.4.! N V ^ 4.3.3.) 7 s m V < # v ,.,.4.3.,.2.3.3.3.3.V V T q.2.) 3.3.2.4.2.4.4./ V Z ) 2.  ",
"2.5.V.t.v.l.t.V.V.v.6.0.6.3.3.3.3.4.4.2.2.3.) 3.3.) 4.2.4 B I b < $ Y e.5.3.4.q.D.v./ Z Y ) ) / 3.3.3.2.4.3.3.) U S ~ ) ) 3.3.  ",
"3.0.P.V.F.C.F.V.C.b.2.,.4.3.,.3.3.3.,.3.2.) 3.2.2.2.5.3.1 : $ : # # v 5.3.,.) w.F.L.! V S 3.4.2.3.4.3.,.) ,.2.) N N / 6.4.3.4.  ",
"3.6.m.V.b.b.N.v.N.l.3.3.5.4.3.4.3.5.4.3.5.4.5.6.3.4.3.3.b.m U v 7 . B r.4.0.4.l.v.V.! P U ,.2.6.3.4.3.4.,.5.5.,.Z S / 2.4.4.4.  ",
"m.V.F.C.w.2.3.3.3.3.,.3.3.2.3.3.,.4.3.,.e.C.b.6.,.5.2.3.> D 7 S < < A R 0.D.N.e.3.4.( ,.4.5.3.4.) ,.3.4.3.C.C.v.3.3.4.) 4.5.3.  ",
"m.F.V.F.w.,.3.3.2.3.3.3.3.3.5.3.4.) ) ( 6.L.F.w.2.5.3.3.b.# 7 < . # 9 ( 5.G.J.l.,.2.4.3.4.,.) 3.3.3.2.,.) V.F.v.2.2.5.2.3.3.2.  ",
"V.C.r.l.0.3.3.4.3.3.3.2.4.2.3.4.e.6.0.e.w.r.v.3.! ( 2.4.4.s T A A Z 0.e.w.V.V.r.,.4.3.2.4.w.w.6.w.0.w.e.w.t.r.r.3.2.6.3.2.6.q.  ",
"m.c.,.3.3.) 2.2.3.3.3.3.6.4.3.m.U.P.F.P.r.) 3.U N P ,.4./ V z T ) 3.v.L.N.F.D.r.2.4.2.3.6.C.V.U.L.C.F.F.V.3.) ) ) ) 3.) 4.C.L.  ",
"C.v.2.3.5.3.4.5.4.2.2.) 3.,.) b.m.C.b.C.b.2.4.R V S 3.6.) S V R 5.2.l.J.V.F.D.z.2.3.2.,.4.C.m.C.m.N.V.V.U.,.6.3.5.3.5.) ) b.C.  ",
"w.w.3.5./ P R ,.4.4.t.v.r.b.t.e.6.6.t.0.3.U Y Y S S ! U T ) ^ 0.v.e.w.0.w.0.0.0.3.,.1.3.5.m.F.v.6.e.q.6.6.5.4.4.4.,.w.v.l.w.5.  ",
") 4.4.4.T v A ) 3.0.C.L.V.P.L.4.) ) 3.,.^ V Z Z A A Z N Y 6.3.l.R.F.4.( ,.4.,.,.3.,.4.) 3.L.F.r.( ( ( ,.3.( ) 4.3.) t.L.C.6./   ",
") 3.3.) R Z P ,.) 5.C.C.b.c.m.4.3.5.4.4./ V Z S P P A S T 3.( e.m.N.6.4.4.4.,.3.6.2.4.3.6.m.m.e.4.6.5.3.4.) 6.3.3.3.r.C.m.0.2.  ",
"S S S A / ) 2.6.3.6.C.V.t.4.6.3.,.5.,.3.^ V A ! ,.5.3.,.) 4.3.4.4.4.2.,.4.3.4.,.3.3.r.D.v.3.4.,.3.3.3.) 4.3.3.6.m.b.e.3.4.,.)   ",
"S A Z v ^ 4.4.3.( 6.m.C.r.( ,.6.3.5.3.6./ A V ( 4.4.3.3.6.4.) 4.4.5.4.,.5.3.4.4.2.2.z.R.F.2.4.3.6.2.3.2.3.5.3.6.P.P.r.) 4.4.6.  ",
"Z P ^ Y / 3.3.0.6.r.V.J.e.) 5./ R / ^ / R Y U ) 4.3.3.) 3.3.6.^ ! ) 4.4.4.3.,.4.2.3.e.x.r.5.,.3.) ~ 3.3.) 4.3.6.l.r.w.3.5.( /   ",
"A T 6.3.2.3.3.N.N.C.N.J.q.( 3.I V S A V U 2.5.4.2.2.3.3.2.,.5.T V A ,.4.4.3.4.5.2.2.2.,.2.4.4./ V B ~ 5.3.2.2.,.2.( 2.) 2.P A   ",
"B U 4.4.4.4.2.b.N.C.N.T.r.3.6.I A A A B U 4.2.2.2.6.3.4.3.5.5.T V N 3.2.4.) 2.3.( 0.3.5.0.2.5./ v A ^ 5.3.2.5.3.4.2.6.4.3.S B   ",
"~ ( 3.5.5.,.3.b.J.c.q.w.) T R S S I ( ~ ) 3.3.4.2.3.T T R R U ! ( ^ ,.3.5.t.r.w.2.3.~ Y U ~ T T ) R ) 5.2.( 5.3.3.( 2.U R ~ /   ",
"5.4.2.,.5.3.2.N.C.t.2.3.T A A S V S 5.5.3.2.4.3.2.,.A V V A B ~ 4.q.2.2.5.J.U.t.) 2.I V A V V T 6.5.4.3.2.,.3.3.3.2.~ B I ) 5.  ",
"2.,.5.2.4.4.3.v.N.b.,.3.~ S Z A A P ,.3.3.3.3.4.5.3.U A A S N ^ 3.4.) ,.w.V.L.e.2.5.T A S V B Y 3.4.,.,.4.4.3.5.,.5.~ V A ) 2.  ",
"4.,.6.3.e.C.C.q.2.3.3.6.R V I ) 4.3.3.,.4.4.3.) 3.2.S V R 3.3.,.2.) b.V.r.U P I I I Z V P 3.4.3.4.3.2.3.4.3.3.( V U S Z S 3.4.  ",
"4.3.5.,.t.P.m.3.3.5.4.4./ V v ) 3.4.3.2.3.3.4.) 4.3.U N U 3.3.3.4.3.V.L.c.V Z V S V A Z A 3.3.4.2.3.2.3.3.,.4.) N V Z A Z ) 2.  ",
",.) 5.,.r.m.m.6.3.) ) / ! S I 2.3.4.3.3.3.) ) 4.) ( R A R 6.4.4.2.4.w.V.w.V A P S V S I Y ,.3.3.2.4.3.3.5.( ) ( Y P S S U 3.5.  ",
"V P 3.) 3.) 3.4.5.^ Z Z ^ 4.5.3.,.3.,.3.4.3.4.Y N P ) ,.w.P.m.m.U.U.Z b A A S S Z P ( 4.4.4.4.4.4.4.,.) 3.S V U 3.4.0.4.3.3.,.  ",
"V U 4.3.4.( 3.3.3.^ Z V Y 3.3.4.) ,.,.) ) ) 4.R v S 3.) 4.m.b.C.v.P.U V Z Z V Z V Z / 4.,.,.) ) ,.3.3.,.4.A V S 6.) 3.) 3.) )   "
};
