/* XPM */
static char *_61c9ee20b0440c0afb4d41d064c81b2[] = {
/* columns rows colors chars-per-pixel */
"64 64 198 2 ",
"   c #030405",
".  c #0B0707",
"X  c #04060B",
"o  c #070A0A",
"O  c #0C0B0C",
"+  c #190905",
"@  c #160D0B",
"#  c #060816",
"$  c #0E0E12",
"%  c #0A1211",
"&  c #141414",
"*  c #181614",
"=  c #12121C",
"-  c #17191B",
";  c #1B1B1B",
":  c #260F07",
">  c #391C0B",
",  c #251C19",
"<  c #20211F",
"1  c #37271A",
"2  c #181A25",
"3  c #1F2229",
"4  c #242324",
"5  c #282524",
"6  c #23232C",
"7  c #2B2A2B",
"8  c #3D2822",
"9  c #342A29",
"0  c #38342D",
"q  c #232632",
"w  c #2D2D34",
"e  c #333334",
"r  c #39363A",
"t  c #373939",
"y  c #3B3B3C",
"u  c #422C1D",
"i  c #4B2B18",
"p  c #4C301C",
"a  c #472F26",
"s  c #433124",
"d  c #413229",
"f  c #573725",
"g  c #433A37",
"h  c #533E37",
"j  c #613B29",
"k  c #73441F",
"l  c #494437",
"z  c #5A453D",
"x  c #664731",
"c  c #714F3A",
"v  c #77543A",
"b  c #282C41",
"n  c #2F3A48",
"m  c #353849",
"M  c #2E3A55",
"N  c #343953",
"B  c #313A5C",
"V  c #453C41",
"C  c #3D4249",
"Z  c #3B4056",
"A  c #3B4666",
"S  c #424345",
"D  c #484646",
"F  c #44464B",
"G  c #4A4B4D",
"H  c #584E48",
"J  c #59534A",
"K  c #4D4E51",
"L  c #484C5A",
"P  c #4E5153",
"I  c #525355",
"U  c #555659",
"Y  c #56585B",
"T  c #5A5B5D",
"R  c #6B5948",
"E  c #785C49",
"W  c #655B55",
"Q  c #705B50",
"!  c #666859",
"~  c #7B7A5E",
"^  c #5D5E61",
"/  c #4B5373",
"(  c #585D71",
")  c #5E6062",
"_  c #5C6073",
"`  c #626365",
"'  c #696B65",
"]  c #646669",
"[  c #67696B",
"{  c #6A6B6D",
"}  c #776D64",
"|  c #716C6B",
" . c #7A756A",
".. c #6D6E71",
"X. c #63687C",
"o. c #6E7173",
"O. c #727375",
"+. c #7D7E74",
"@. c #757679",
"#. c #77787A",
"$. c #77797B",
"%. c #7A7B7D",
"&. c #885C37",
"*. c #886249",
"=. c #956D56",
"-. c #94755E",
";. c #9A7759",
":. c #99765A",
">. c #A0724B",
",. c #A17655",
"<. c #836E60",
"1. c #9B7B64",
"2. c #827A73",
"3. c #917F74",
"4. c #8B887B",
"5. c #988C73",
"6. c #94877B",
"7. c #9A8979",
"8. c #AF8968",
"9. c #BE926D",
"0. c #A78F76",
"q. c #CC9B6F",
"w. c #CE9D74",
"e. c #D1A379",
"r. c #7D7E81",
"t. c #757D9D",
"y. c #807F84",
"u. c #7E8183",
"i. c #7D8499",
"p. c #828385",
"a. c #8D8A83",
"s. c #848689",
"d. c #86888B",
"f. c #898A8D",
"g. c #918D8E",
"h. c #9B988C",
"j. c #8C8D91",
"k. c #8E9193",
"l. c #8F9094",
"z. c #919296",
"x. c #929396",
"c. c #999B94",
"v. c #959699",
"b. c #95969A",
"n. c #97999B",
"m. c #9A9B9D",
"M. c #999A9E",
"N. c #A99B8B",
"B. c #A29D97",
"V. c #A49F9B",
"C. c #A4A18A",
"Z. c #AEAE91",
"A. c #A3A29D",
"S. c #A9A698",
"D. c #B9A696",
"F. c #B4B09F",
"G. c #9C9EA1",
"H. c #9D9EA2",
"J. c #A99EA0",
"K. c #9FA0A4",
"L. c #9FA1A4",
"P. c #A1A2A6",
"I. c #A2A3A6",
"U. c #ADAEA5",
"Y. c #A5A6AA",
"T. c #A7A8AC",
"R. c #A7AAAC",
"E. c #AAABAD",
"W. c #A9AAAE",
"Q. c #B6B4A8",
"!. c #ABACB0",
"~. c #ACADB1",
"^. c #AEAFB3",
"/. c #B0AFB1",
"(. c #AFB0B4",
"). c #AEB1B4",
"_. c #B2B2B5",
"`. c #B1B2B6",
"'. c #B5B6B9",
"]. c #B8B5B8",
"[. c #B6B8BB",
"{. c #B9BBBD",
"}. c #D1A883",
"|. c #C1BD9E",
" X c #E3B388",
".X c #C5B6A6",
"XX c #C5BEB6",
"oX c #EEC39C",
"OX c #C9C3BC",
"+X c #D6C7BD",
"@X c #D5D3B1",
"#X c #DDD8BF",
"$X c #E1D1BF",
"%X c #D7D3C9",
"&X c #D9DBCA",
"*X c #DED8D2",
"=X c #F2EFCE",
"-X c #EDF4EB",
/* pixels */
"%.r.%.%.@.u.$.$.%.$.$.$.%.$.%.@.%.r.@.P K I G K O.%.r.P.Y.P.P.T.l.O.r.U G I I F ] u.O.$.r.r.O.p.$.p.r.T K K %.%.O.u.@.%.%.@.I S ",
"r.p.p.s.p.s.p.p.d.d.p.%.p.u.p.d.p.u.p.^ T U U I O.u.f.T.~.~.T.W.n.f.f.` U T U I o.s.p.s.p.s.r.r.s.p.s.) P U r.d.f.p.d.s.s.p.` U ",
"p.u.s.p.s.p.p.s.o.[ @.p.f.s.p.d.O.{ ..U T ` %...x.H.M.x.l.b.x.H.@.{ ..T U ` O.O.r.p.p.p.%.f.H.H.l.r.j.%.O.@.u.p.r.` { [ { { O.O.",
"p.u.s.r.d.p.s.d.^ S ) r.p.s.p.s.Y U ^ U T ..j.r.P.(.W.s.%.p.r.s.[ I I T U ` s.p.p.r.s.s.r.f.Y.`.H.r.d.p.p.f.s.p.%.U I U I I r.p.",
"p.s.f.%.s.p.p.p.{ U ..p.p.s.p.s.` U U T I ` s.p.K.(.~.s.r.d.p.s.[ T U ) Y ^ s.r.p.r.r.r.u.j.K.`.M.p.p.s.r.r.p.s.r.U P ` Y T %.%.",
"u.p.%.T ` ^ ^ ^ $.r.p.p.p.s.r.d.` U ^ p.p.r.s.u.r.s.s.^ T ` ^ T O.s.r.r.r.s.T.Y.Y.W.W.Y.Y.P.f.s.j.p.p.f.p.r.s.s.r.U Y @.$.p.s.p.",
"f.d.$.U U Y Y Y r.j.p.%.r.s.r.f.^ K Y u.f.s.s.p.r.p.r.T U U U K { f.p.u.p.j.~.~.~.`.W.W.~.Y.p.%.d.s.r.s.p.s.s.s.O.U U O.p.s.p.p.",
"r.r.O.Y ^ ^ ^ ^ r.s.r.f.j.s.%.%.{ ` { %.p.%.u.s.s.s.p.^ U Y ] ) @.d.p.p.r.f.W.P.Y.Y.P.~.W.P.s.s.p.p.u.s.p.d.%.r.O.] Y @.f.p.s.p.",
"Y I ^ ^ Y @.j.s.p.r.j.W.[.p.I I r.s.p.s.d.r.p.s.r.s.s.` K ..f.s.r.u.s.r.p.u.u.O.b.(.W.T.T.P.s.p.s.p.s.s.s.r.Y P ) d.f.s.p.r.s.r.",
"Y I ^ U I ..s.r.p.%.f.~.[.p.I I @.p.p.p.p.u.p.s.d.s.p.` K { p.p.s.s.s.f.p.p.p.r.b.`.Y.~.`.~.r.r.p.s.r.%.s.u.U I ] p.s.p.p.p.d.f.",
"....O.O...r.d.d.x.b.b.b.n.p.] ` p.s.d.s.p.p.p.s.$.{ O.o.{ @.p.p.p.r.r.p.r.s.x.x.n.H.x.b.M.M.u.s.s.f.s.u.s.s...o.O.p.p.s.s.p.O...",
"j.s.j.j.d.p.r.p.~.[.P.r.@.s.s.f.s.%.p.p.p.p.%.p.` G ^ r.s.p.p.s.s.p.f.r.p.l.`.[.x.%.r.%.%.r.s.p.s.s.s.s.r.s.s.s.d.s.r.p.p.p.) I ",
"r.r.r.p.p.p.p.s.H.W.H.s.r.p.r.p.p.%.s.s.u.s.p.p.{ P ) u.d.s.p.p.u.r.s.p.u.f.Y.~.M.r.s.p.u.p.d.p.u.p.u.u.r.s.d.u.u.u.d.d.s.p.` I ",
"d.f.f.r.p.b.H.H.~.~.H.p.s.p.p.f.p.p.f.p.%.k.P.K.d.O.%.p.r.p.s.p.s.p.p.K.H.H.f.f.j.u.u.p.p.p.] ` ..s.u.u.s.s.u.s.p.u.d.O.) [ O.%.",
"$.r.p.%.r.H.`.`.~.~.K.%.Q. .Q.p.r.%.p.u.%.x.'.'.x.s.d.d.u.p.s.u.p.p.r.~.(.~.u.%.r.r.p.s.s.u.I K ) s.u.p.s.u.u.s.s.r.d...P I %.d.",
"s.s.j.d.s.x.P.Y.P.P.XX+XR 1.E .Xn.p.p.f.s.k.T.P.j.%.p.d.p.s.s.r.u.s.p.P.Y.K.p.s.s.r.s.r.r.%.] ^ o.d.u.s.u.u.d.s.f.%.d.o.U U u.d.",
"W.W.Y.W.~.b.r.s.r.%Xu -.&.>.,.c $XY.~.Y.W.b.%.p.s.s.r.p.s.@.Y Y O.s.r.s.s.p.p.s.s.p.s.] I ^ u.u.f.s.u.u.u.s.T.T.K.u.s.O.U Y p.d.",
"Y.~.W.W.W.n.r.p.n.} 1.v  Xq.w.,.8..X`.W.`.H.r.p.s.f.p.s.j.%.I G { p.r.%.u.s.s.f.u.s.s.] P ^ u.s.d.u.u.u.u.r.Y.[.T.p.s...I U $.%.",
"Y.W.W.Y.W.b.r.p.V.8 =.k &.e.8.9.;.0.S.n.H.x.r.p.@.{ O.@.O.O.O.` r.M.n.p.p.s...o.o.@.@.{ ] o.u.r.u.u.u.j.b.l.l.H.j.{ O.O.] { f.x.",
"Y.Y.W.W.~.b.r.s.2.a =.*.oX}.*.;.;.0.6.%.%.p.%.p.{ K Y Y G ` f.r.M.~.~.p.r.%.U Y U U Y @.s.d.s.u.s.u.r.K.(.(.s.s.@.P I O.p.s.T.`.",
"T.W.W.Y.~.b.u.s.*Xu f i ;.x > E u 2.`.p.p.s.s.f.o.T Y U I ` p.%.M.Y.[.f.f.p.Y U ^ T U r.d.u.r.u.s.u.$.H.T.T.$.s.%.Y G o.r.r.P.W.",
"W.~.Y.j.x.f.p.p.2.1 : z x p 3.g.d.f.f.` ] ` ` ] T K ^ O.O.u.P.M.x.d.x.] ` { U ^ T Y I @.s.u.s.s.k.K.H.K.~.T.s.d.s.%.O.s.p.r.Y.W.",
"W.~.H.%.p.p.p.p.c.l J . 1 5.OX(.f.%.%.U Y I I Y T I [ d.r.f.`.~.x.%.d.Y I ^ U U T T U O.s.u.s.$.l.(.(.K.(.T.d.$.%.p.s.f.r.u.K.~.",
"T.~.P.r.s.s.p.x. .|.#X4.@ R XXW.f.p.p.Y T Y Y T T T ^ u.s.f.Y.`.x.@.f.T I ^ ^ I T T T %.s.u.d.$.b.T.T.T.`.Y.s.u.f.p.s.s.p.f.M.W.",
"p.p.f.r.s.o.I Y C.@X=XQ.l 0 l U.d.p.r.U T T T T O.d.p.W.W.T.W.W.x.%.d.` ^ ` s.p.s.s.p.s.u.j.Y.T.~.T.T.L.T.T.u.s.s.p.%.n.).Y.W.W.",
"p.%.p.u.s.[ G T C.=XZ.Q.} J +.d.p.s.d.U I I U I $.d.u.P.Y.W.W.[.x.s.d.U K ^ s.r.p.$.r.p.%.u.Y.T.T.).~.(.T.(.s.u.s.s.p.M.W.Y.~.`.",
"p.p.d.p.d.o.I A.S.@XC.~ F.S.+.d.r.u.p.Y T ^ { ] @.p.s.T.~.~.x.K.s.$.@.] ` { s.p.f.j.k.l.j.j.T.W.Y.L.H.Y.n.K.s.u.u.O.$.x.~.T.Y.K.",
"r.p.d.p.p...U 7 4.5.Z.&Xh.a.D '.M.h.B.U Y { d.p.f.p.s.~.).j.F K I K T p.f.s.s.r.b.`.~.W.~.T.(.`.n.u.r.u.r.r.u.u.r.K G s.[.P.s.@.",
"s.p.d.f.p.{ T 4 0 !  .' Y - o e 4 6.N.U G ] s.r.p.O.r.W.[.n.U ` Y T I r.r.p.r.%.b.~.W.~.~.(.T.(.H.r.u.u.s.u.d.s.u.I G f.[.T.s.%.",
"{ [ { { [ { s.6 r o 3 C ( L S s.D d N.O.O.@.s.r.b.H.b.p.%.%.{ @.] O.{ x.x.H.b.b.b.j.j.b.d.l.l.b.k.u.d.s.u.u.o.] ..s.s.f.f.x.f.p.",
"P I I I I @.x.6 m w 2 b N m ..{ V 9 J s.d.p.p.r.M.{.P.T S ` s.j.d.d.s.W.(.(.~.[.M.%.p.p.$.r.r.u.u.u.d.s.u.u.T K o.{.[.n.O.p.p.%.",
"^ Y T T U @.' $ = = X # q q 2 y I I ) s.p.p.s.p.f.`.P.[ U ] s.r.r.r.p.M.~.W.Y.T.M.%.f.r.d.f.u.u.s.r.s.u.u.u.^ I { ~.P.M.u.s.u.r.",
"T U ] u.$.Q.OX6 m b q w 6 %.] Y.p.%.%.p.p.s.r.s.@.` ] $.@.p.s.%.n.P.P.~.W.~.~.Y.M.%.p.] T ^ ` T ` ^ ^ ` ` ^ $.$.p.d.p.f.p.r.` ) ",
"I I ] s.d.+.&XF N B N m q F $./.f.d.p.s.s.s.p.f.` G T p.s.s.p.r.M.`.~.~.Y.Y.T.~.H.p.s.` K I Y U ^ I I U I I f.d.s.r.s.d.d.d.T P ",
"` ` O.p.A.! -Xn B B / n # O 4 H H V.s.p.p.r.r.s.[ P ` s.p.p.p.%.n.).W.W.!.~.H.T.j.O.%...] ` T Y ` T Y ` ] T s.%.d.%.s.%.O.@.[ ] ",
"p.p.s.p.f.S.c.n M A t.Z = @ > c -.7.p.r.p.u.u.s.O.U ] p.r.d.s.p.b.W.Y.Y.W.T.r.s.O.P ^ O.s.r.) T ^ ) T O.f.r.s.%.s.p.p...U T %.p.",
"p.s.s.r.A.%XO.` _ i.X.2 O , i f v D.s.%.s.s.p.s.{ G Y %.u.p.r.$.H.).`.~.~.Y.r.d...K I o.d.s.T U U U K { s.s.%.p.p.p.p.o.U U r.s.",
"p.p.s.s.| *X, J.].`.@.& ; @ s <.s W s.r.s.r...{ @.{ @.s.p.f.b.x.x.x.b.x.b.x.r.j.r...o.%.p.p.Y U { o.o.p.u.s.r.d.s.%.d...U ) %.s.",
"p.p.u.s.[ W s h } |   n.b.D   , , * p.p.p.O.I I @.s.s.p.%.x.`.`.j.r.r.r.p.r.r.u.p.s.s.s.s.p.Y U ..s.s.f.p.s.u.s.s.u.d...I ^ %.d.",
"p.p.p.p.r.9 f *.j 8 @ W.~.{   C G t r.s.s...K I O.s.p.p.%.k.~.~.x.%.p.s.s.r.s.p.r.u.p.p.p.p.I I [ k.u.%.p.p.u.s.u.s.s.@.I U %.u.",
"p.u.d.W.M.g f =.j : r.f.j.` o $     s.s.p.p.p.%.p.p.%.s.u.p.d.s.r.p.p.p.r.d.p.s.l.~.P.O.U ] %.%.@.p.p.p.u.s.p.p.%.` T o.$.%.p.p.",
"p.p.j.`.W.g f *.> 7 M.p.r.` o D & - p.r.p.p.%.p.u.u.u.s.p.p.s.r.s.p.p.s.u.p.r.%.x.~.`...I T p.s.u.p.s.p.r.r.%.u.%.K K @.d.s.p.s.",
"p.p.j.Y.W.r d Q + @.H.p.u.S   ; * ..d.p.p.d.s.d.f.p.s.p.p.p.s.p.p.%.p.s.s.s.j.s.H.P.W...^ ` r.u.f.p.s.p.s.r.f.d.r.U Y @.u.s.s.s.",
"W.Y.W.~.%.* * . y p.p.r.%.t   O - T $.p.r.x.~.Y.f.r.d.u.p.p.p.u.p.p.d.s.p.j.!.T.n.p.s.$.r.s.d.p.s.%.r.p.s.p.W.W.P.p.p.s.%.s.d.p.",
"Y.Y.~.W.* < - & S u.p.p.p.p.` e ` s.U %.@.f.`.~.x.u.d.p.p.s.p.s.p.p.p.r.r.d.~.(.H.r.u.s.p.s.r.%.p.p.p.u.r.%.W.~.P.u.u.d.p.p.s.p.",
"W.W.W.$.& G - 4 F p.p.p.u.s.u.r.$.s.s.j.b.x.M.P.p...$.u.s.u.O.@.%.p.r.j.b.x.W.W.n.r.s.p.u.s.x.x.f.x.j.x.x.x.M.n.M.p.u.f.p.p.f.x.",
"W.Y.H.U . * 7 ) $.p.p.p.p.f.s.p.Y.[.`.~.`.n.%.p.` K ^ r.s.@.U G O.s.p.P.`.T.~.~.M.u.s.u.p.f.W.W.'.`.W.~.~.W.p.%.%.%.%.p.%.s.T.`.",
"~.W.P.U & O 7 t G @.O.O.{ e ; - - { W.P.W.P.u.s.{ I T p.f.%.T I { d.p.H.`.W.~.!.H.u.p.u.r.s.T.Y.W.Y.T.W.W.'.%.f.p.d.p.d.%.%.P.W.",
"f.x.x.Y * - 7 U e   $ o & o o y y 5 f.M.j.p.` ] ] T T ..` [ %.O.j.P.b.x.j.x.j.j.j.p.r.y.p.s.Y.~.P.f.x.k.f.f.d.s.s.s.r.x.P.H.x.d.",
"p.%.p.O   % % o O 7 @.f.x.f.x.`.s.%.%.p.r.O.I U U Y Y U K ] f.p.H.[.~.s.$.r.s.r.r.p.r.s.%.p.`.~.M.$.$.$.r.p.$.%.s.p.%.M.`.T.f.@.",
"s.%.p.p.%.{ U ^ r.%.d.T.W.P.K.Y.s.p.d.s.s.@.I U T ^ ^ U T [ p.$.b.Y.T.f.p.s.s.r.s.f.u.d.p.f.Y.Y.x.s.f.d.p.s.%.f.u.p.p.M.T.Y.j.u.",
"Y ^ T T Y @.r.u.f.p.f.W.W.M.s.f.p.r.d.r.p.O.I Y ..r.d.p.r.%.s.p.s.s.s.u.r.s.p.s.u.p.p.n.~.P.p.s.r.p.p.p.%.s.p.p.f.Y.P.x.p.s.r.%.",
"U T Y U G O.s.p.p.$.f.T.W.b.$.r.f.p.d.p.f.@.Y I $.s.s.p.p.f.s.%.s.s.s.s.r.d.p.s.s.u.u.H.{.~.u.s.p.f.u.p.p.s.d.p.f.(.`.n.%.s.s.f.",
"T U ^ O.] @.p.p.j.f.M.W.~.b.%.d.$.{ @.O.@.{ ] ` %.s.p.p.%.p.p.f.O...%.s.s.s.p.r.s.u.p.b.K.n.s.r.p.%.o.p.p.%.p.p.f.H.M.x.p.d.$.@.",
") Y [ f.p.u.p.p.T.T.W.T.(.j.$.p.) I Y Y I ` u.d.s.u.u.p.p.u.r.d.[ I Y r.s.s.p.s.d.u.u.u.r.u.s.s.O.I P o.d.p.u.u.r.u.@.u.%.u.^ Y ",
"I P ` s.s.s.s.u.P.T.W.T.{.n.p.f.) Y Y Y P ` s.u.u.u.f.p.s.p.d.d.[ I K p.u.s.%.u.p.$.j.p.d.j.u.d.O.G Y O.d.p.u.d.p.s.u.f.s.p.T P ",
"o.o.$.p.d.d.r.p.P.(.K.k.x.%.[ { T T ) @.o.%.p.p.s.u.p.[ [ { { ` ..@.O.r.p.d.M.n.x.u.p.o.] ` o.[ [ %.{ %.d.u.$.d.p.p.$.u.` { o.O.",
"d.d.s.u.%.d.p.u.T.W.H.u.p.[ Y Y T I T d.d.p.u.s.p.u.u.Y I I Y P o.s.k.u.u.d.(.'.M.%.u.) I Y I I [ f.d.s.p.u.%.p.p.p.u.o.P ) %.d.",
"u.u.r.d.u.s.s.p.P.T.P.r.p.o.T U Y Y ^ r.p.p.p.p.s.d.p.` U Y T K O.p.s.%.r.x.W.`.n.u.d.[ Y T I P ] p.s.r.r.s.s.p.d.r.d.o.I Y %.u.",
"d.s.r.f.p.x.T.T.k.u.p.p.d.{ I ) %.d.p.p.r.s.s.p.%.p.u.T I { p.p.r.u.r.P.T.M.` ^ ) ) ^ U I T p.s.p.s.s.u.p.s.p.p.@.I ` T U T p.s.",
"u.s.p.d.r.M.`.Y.p.p.d.s.s.@.I G %.p.s.p.u.p.p.s.%.s.p.` K ` p.p.p.s.p.W.`.K.I U I T I Y U Y p.p.s.u.p.u.p.p.r.s.r.P I U Y U %.u.",
"u.r.%.d.r.n.Y.Y.f.p.%.%.@...T ) u.p.s.p.p.p.%.%.d.%.$.{ Y { f.s.s.u.s.x.W.x.I Y ^ T I T ) ] r.p.p.u.s.p.p.d.%.%.@.] ^ T T ` p.d.",
"U I ^ p.%.p.%.p.s.d.O.U U O.s.d.p.r.p.r.p.s.p.s.] K ^ %.r.x.`.Y.Y.'.'.U D Y Y T T U ^ $.s.s.s.s.s.s.s.r.%.p.T I ` p.s.j.s.p.p.r.",
"U I ` s.p.s.$.p.p.p.O.U I ] p.p.s.%.r.r.%.%.%.s.{ G T p.%.s.Y.P.W.P.`.` I U U I U I U @.s.r.r.%.%.r.p.p.r.s.Y I T f.%.p.%.p.%.%."
};
