/* XPM */
static char *a75b40ab43d74390973aee63f724ac9f[] = {
/* columns rows colors chars-per-pixel */
"64 64 188 2 ",
"   c None",
".  c #0C0403",
"X  c #0C0B09",
"o  c #070507",
"O  c #150B0A",
"+  c #0F100F",
"@  c #16110E",
"#  c #1D140F",
"$  c #0E0D17",
"%  c #0F1111",
"&  c #141312",
"*  c #1B1D1C",
"=  c #1B1918",
"-  c #2A1006",
";  c #321C0F",
":  c #221A15",
">  c #381D13",
",  c #22201F",
"<  c #35231D",
"1  c #37271C",
"2  c #161928",
"3  c #242524",
"4  c #2D2221",
"5  c #2B2927",
"6  c #2A272A",
"7  c #2C2D2C",
"8  c #332A21",
"9  c #38312D",
"0  c #252630",
"q  c #353434",
"w  c #36373A",
"e  c #3B3A3B",
"r  c #3A3736",
"t  c #452618",
"y  c #4B301A",
"u  c #442F2A",
"i  c #522F22",
"p  c #4C3D2E",
"a  c #5A3925",
"s  c #483938",
"d  c #613F26",
"f  c #5C402F",
"g  c #6D412B",
"h  c #68482E",
"j  c #754E2C",
"k  c #6F4F32",
"l  c #6A503F",
"z  c #7B533A",
"x  c #7C5839",
"c  c #2F3648",
"v  c #3D3C41",
"b  c #373842",
"n  c #363B51",
"m  c #413D43",
"M  c #434344",
"N  c #4D4743",
"B  c #45454B",
"V  c #4A4B4E",
"C  c #47484A",
"Z  c #52514F",
"A  c #4D4E51",
"S  c #4E5153",
"D  c #525355",
"F  c #555659",
"G  c #56595A",
"H  c #5A5B5D",
"J  c #5B575B",
"K  c #60534B",
"L  c #7C5C43",
"P  c #6A5E55",
"I  c #655C5B",
"U  c #625B53",
"Y  c #7B6248",
"T  c #60625C",
"R  c #726A5E",
"E  c #76755A",
"W  c #4E4F60",
"Q  c #5D5E61",
"!  c #5E6062",
"~  c #626365",
"^  c #6D6361",
"/  c #656669",
"(  c #67696B",
")  c #6A6B6D",
"_  c #736A65",
"`  c #75746B",
"'  c #7C756C",
"]  c #6D6E71",
"[  c #6C6E78",
"{  c #6E7073",
"}  c #727375",
"|  c #797572",
" . c #7E7C75",
".. c #757679",
"X. c #77797B",
"o. c #7A7B7D",
"O. c #77787A",
"+. c #895C37",
"@. c #915F3A",
"#. c #86604A",
"$. c #886A57",
"%. c #99775A",
"&. c #A57C58",
"*. c #88786B",
"=. c #977968",
"-. c #857C76",
";. c #8B7D71",
":. c #927E72",
">. c #8B8A78",
",. c #908F7B",
"<. c #AE8668",
"1. c #B88D66",
"2. c #AA937D",
"3. c #CCA27D",
"4. c #D2A379",
"5. c #6F728B",
"6. c #7D7E81",
"7. c #807F84",
"8. c #7E8183",
"9. c #828385",
"0. c #898584",
"q. c #848689",
"w. c #86888B",
"e. c #898A8D",
"r. c #898A8C",
"t. c #898A83",
"y. c #948E84",
"u. c #9C9D8A",
"i. c #8B8C90",
"p. c #8D8E91",
"a. c #8D8E91",
"s. c #898798",
"d. c #8F9094",
"f. c #8E9193",
"g. c #919296",
"h. c #929395",
"j. c #9A9A94",
"k. c #939498",
"l. c #95969A",
"z. c #959699",
"x. c #97989C",
"c. c #97999B",
"v. c #999A9E",
"b. c #9A9B9D",
"n. c #A29E9C",
"m. c #A5A29D",
"M. c #ACA59C",
"N. c #B4AB9D",
"B. c #B4A495",
"V. c #9D9EA2",
"C. c #9C9EA1",
"Z. c #A39FA6",
"A. c #9FA0A4",
"S. c #9FA1A3",
"D. c #A1A2A6",
"F. c #A2A3A5",
"G. c #AAA8A2",
"H. c #A3A4A8",
"J. c #A5A6AA",
"K. c #A5A6A9",
"L. c #A7A8AC",
"P. c #A7A9AC",
"I. c #A9AAAE",
"U. c #AAABAD",
"Y. c #B5ACA4",
"T. c #ABACB0",
"R. c #ACADB1",
"E. c #AEAFB3",
"W. c #ADAEB1",
"Q. c #AFB0B4",
"!. c #AEB1B3",
"~. c #B1B2B6",
"^. c #B1B2B5",
"/. c #B5B6B9",
"(. c #B6B8BB",
"). c #B9BBBD",
"_. c #B8B7BC",
"`. c #C6B09A",
"'. c #EDB889",
"]. c #C3C1AB",
"[. c #D3C2AF",
"{. c #D6CDBD",
"}. c #DCD7B7",
"|. c #C7C6C8",
" X c #F5F0C9",
".X c #E3E1D3",
"XX c #F7F1DC",
"oX c #E8E5C8",
/* pixels */
"6.o.o...8.X.X.o.X.X.X.o.X.o.O.6.6...S A D V A } o.6.D.H.D.H.L.d.} 6.G V D D C / 8.} X.6.6.} 9.X.9.6.H A A o.o.} 8...o.o.O.D M   ",
"9.9.q.9.q.9.9.w.w.9.o.9.8.9.w.9.8.9.Q H F F D } 8.e.L.R.R.L.I.x.e.e.~ F H F D ] q.9.q.9.q.6.6.q.9.q.! S F 6.e.r.9.w.q.q.9.~ F   ",
"8.q.9.q.9.9.q.{ ( ..9.e.q.9.w.} ) ] F H ~ o.] g.V.v.g.p.l.g.C...) ] H F ~ } } 6.9.9.9.o.e.V.V.d.6.p.o.} ..8.9.6.~ ) ( ) ) } }   ",
"8.q.6.w.9.q.w.Q M ! 6.9.q.9.q.G F Q F H ] p.6.D.Q.I.q.o.9.6.q.( D D H F ~ q.9.9.6.q.q.6.e.H.~.V.6.e.9.q.e.q.9.o.F D F D D 6.9.  ",
"q.e.o.q.9.9.9.) F ] 9.9.q.9.q.~ F F H D ~ q.9.A.Q.E.q.6.e.9.q.( H F ! G Q q.6.9.6.6.6.8.i.A.~.v.9.9.q.6.6.9.q.6.F S ~ G H o.o.  ",
"9.o.H ~ Q Q Q X.6.9.9.9.q.6.w.~ F Q 9.9.6.q.8.6.w.q.Q H ~ Q H } q.6.6.6.q.L.H.H.I.I.H.H.D.e.q.i.9.9.e.9.6.q.q.6.F G ..O.9.q.9.  ",
"e.X.F F G G G 6.i.9.o.6.q.6.e.Q A G 8.r.q.q.9.6.9.6.H F F F A ) e.9.8.9.p.T.T.R.~.I.I.T.H.9.o.e.q.6.q.9.q.q.q.} F F } 9.q.9.9.  ",
"6.} G Q Q Q Q 6.q.6.e.i.q.o.o.) ~ ) o.9.o.8.q.q.q.9.Q F G ~ ! ..e.9.9.6.e.I.D.H.H.D.T.I.D.q.q.9.9.8.q.9.q.o.6.} / G O.e.9.q.9.  ",
"D Q Q G ..i.q.9.o.p.T./.9.D D 6.q.9.q.w.6.9.q.6.q.q.~ A ] e.q.6.8.q.6.9.8.8...l.Q.I.L.H.D.q.9.q.9.q.q.q.8.G S ! w.e.q.9.6.q.6.  ",
"D Q F D ] q.8.9.o.e.R./.9.D D O.9.9.9.9.8.9.q.w.q.9.~ A ) 9.9.q.q.q.e.9.9.9.6.l.~.H.R.~.R.6.6.9.q.6.o.q.8.F D / 9.q.9.9.9.w.e.  ",
"] } } ] 6.w.w.g.k.k.l.x.q./ ~ 9.q.w.q.9.9.9.q.X.) } { ) ..9.9.9.6.6.9.6.q.g.g.x.V.g.l.v.v.8.q.q.e.q.8.q.q.] { } 9.9.q.q.9.} ]   ",
"q.i.p.w.9.6.9.R./.D.6...q.q.e.q.o.9.9.9.9.o.9.~ V Q 6.q.q.9.9.q.9.e.6.9.d.~.).g.o.6.o.o.6.q.9.q.q.q.q.6.q.q.q.w.q.6.9.9.9.! D   ",
"6.6.9.9.q.9.q.A.I.V.q.6.9.6.9.9.o.q.q.8.q.9.9.) S ! 8.e.q.9.9.8.6.q.9.8.e.H.R.v.6.q.9.9.9.e.9.8.9.8.8.6.q.e.8.8.8.w.e.q.8.~ D   ",
"e.e.6.9.l.V.V.R.R.V.9.q.9.9.e.9.9.e.9.o.f.D.S.w.} o.9.6.9.q.9.q.9.9.A.V.V.e.e.p.8.8.9.9.9./ ~ ] w.8.8.q.q.8.8.q.8.w.} ! ( ..o.  ",
"6.9.o.8.V.Q.~.R.T.S.o.9.9.9.9.6.o.9.8.o.k././.g.q.w.w.8.9.q.8.9.9.6.R.Q.T.8.o.6.6.9.q.q.9.F A ! q.8.9.q.8.8.q.q.6.w.] S D o.w.  ",
"q.i.e.q.k.D.H.D.D.S.8.w.6.9.9.p.9.9.r.q.f.L.D.p.o.9.w.9.q.9.6.8.q.9.D.H.A.9.q.q.6.q.m.^ e.~ Q { w.8.q.8.8.e.q.e.o.w.{ G F 8.w.  ",
"I.H.I.T.l.6.q.6.e.q.o.q.9.9.6.S.H.R.H.I.l.o.9.q.q.6.9.q...G G } q.6.q.q.9.9.q.q.Y.[.L %.$.y.8.e.q.8.8.8.q.L.L.S.8.q.} F G 9.w.  ",
"T.I.I.I.x.6.9.9.q.8.9.o.9.q.6.H.H.!.I.~.V.6.9.q.e.9.q.p.o.D V ) 9.6.o.8.q.q.e.n.P k &.@.+.Y M.e.8.8.8.8.6.H.(.L.9.q.] D F O.o.  ",
"I.I.H.I.l.6.9.9.9.8.q.6.q.q.6.H.P.I.l.V.g.6.9...) } ..} } } ~ 6.v.c.9.9.q.] { Y.$.x 1.'.4.1.%.N.8.8.i.k.d.h.C.p.) } } / ) e.k.  ",
"H.I.I.R.k.6.q.q.e.q.9.e.8.8.6.S.P.H.o.o.9.o.9.) A G G V ~ e.6.b.R.R.9.6.o.F 0.I =.x 3.&.1.&.h `.8.6.A.Q.Q.q.q.O.S D } 9.q.L.~.  ",
"I.I.H.T.k.8.q.9.8.9.9.q.6.9.6.P.^.~.9.9.q.q.e.{ H G F D ~ 9.o.v.H./.r.e.9.G ( _ f t <.j a 2.y | 8.X.C.I.L.X.q.o.G V { 6.6.F.I.  ",
"R.H.i.g.e.9.9.] ~ ] q.6.p.D.v.p.r.r.~ / ~ ~ / H A Q } } 8.D.b.k.w.h./ ~ ) F Q -.; - =.d ..8.q.f.A.C.S.T.L.q.w.q.o.} q.9.6.H.U.  ",
"R.V.o.8.9.9.9.Q A ! q.6.x./.R.w.6.o.F G D D G H D ( w.6.r.^.R.g.o.w.G D Q F F -.p N 1 ;.8.q.X.d.Q.Q.S.Q.L.e.X.o.9.q.r.6.8.S.R.  ",
"T.D.6.q.q.9.9.~ D / 6.q.g.R.L.r.9.9.G H G G H H H Q 8.q.p.H.~.g...w.H D Q H } ' }.XX{.U o.e.X.k.I.P.I./.H.q.8.e.9.q.q.9.e.b.U.  ",
"9.e.6.q.{ D H 8.w.6.9.9.9.q.9.w.9.6.F H H H H } w.9.U.U.P.I.U.g.o.w.~ Q ~ q.m.>. XoXN.1 8 j.L.T.I.L.S.I.L.8.q.q.9.o.c.!.H.I.I.  ",
"o.9.8.q.( V Q o.w.9.9.6.6.q.w.9.q.w.F D D F D X.w.8.D.H.U.I.(.k.q.w.F A Q q.T ,.}.E .X .t. .L.L.!.T.Q.L.Q.q.8.q.q.9.v.U.H.R.^.  ",
"9.w.9.w.{ D ~ 6.w.9.9.9.9.q.9.6.8.9.G H Q ) / ..9.q.L.R.R.g.D.q.O.O./ ~ ) !.e >.].u.* G.r ) U.H.A.C.H.x.S.q.8.8.} O.k.R.P.H.S.  ",
"9.w.9.9.] D H 6.q.6.9.9.9.9.8.w.q.9.D G ) w.9.e.9.q.R.R.p.C A D A H 9.e.q.q.A w ` `  .` & H ^.x.8.6.8.6.6.8.8.6.A V q./.H.q...  ",
"9.w.e.9.) F H X.9.6.9.8.9.9.9.9.9.8.D V / q.6.9.} 6.U.(.c.F ! G H D 6.6.b.C [ v + t.j.9 & C ^.C.6.8.8.q.8.e.q.8.D V e./.P.q.o.  ",
"( ) ) ( ) ) { 9.9.o.9.9.q.9.q.} ) } } } ..q.6.l.V.l.9.o.o.) ../ } ) k.l.D |.b 0 = G b.O P Y./ f.8.e.q.9.8.{ ~ ] q.q.r.r.g.e.9.  ",
"D D D D ..e.q.w.q.8.9.9.w.9.9.H V H q.w.9.9.6.b.).F.H M / q.r.w.w.q.I.G.0.F e $ B w m I 9 R ) 8.8.q.q.6.8.Q A { )./.c.} 9.9.o.  ",
"G H H F } 9.o.9.9.9.9.9.9.8.w.~ F ! q.9.9.q.9.r.~.H.( F / q.6.6.6.9.V.0.r I 5 X 2 2 B ^ Z 8.8.q.6.q.q.q.8.Q D ) R.F.b.8.q.8.6.  ",
"F / 8.X.9.9.9.9.q.w.6.q.c.V.L.9.o.o.9.9.q.6.q...~ / X...9.q.o.c.H.D.I.N *.p *.6 n c m u K ~ H ~ Q Q ~ ~ Q X.O.9.w.9.e.9.6.~ !   ",
"D / q.q.q.9.9.9.6.9.6...h.^.!.e.9.9.q.q.q.9.e.~ V H 9.q.q.9.6.b.^.R.P.R *.`.B.r 5.W s #.#.:.' ! D D F D D e.w.q.6.q.w.w.w.H S   ",
"~ } 9.q.9.6.9.q.8.q.g.q.g.I.b.q.9.q.9.9.6.6.q.( S ~ q.9.9.9.o.c.!.I.| _ s . 4 e.s.J t a g z $.~ H G ~ / H q.o.w.o.q.o.} ..( /   ",
"9.q.9.9.q.9.q.8.6.w.H.I.h.q.9.6.6.9.6.9.8.8.q.} F / 9.6.w.q.9.l.I.H.} F.I.o , |.Z.4 u i g z a ~ ! H } r.6.q.o.q.9.9.] F H o.9.  ",
"q.q.6.6.9.o.o.9.6.w.H./.l...9.9.9.q.o.q.q.9.q.) V G o.8.9.6.X.V.!.~.D.I.H.& X & X 3 v e > l 1 G F A ) q.q.o.9.9.9.9.{ F F 6.q.  ",
"9.q.q.q.q.6.9.c.g.b.P.I.l.6.w.9.q.q.6.q.6.] ) ..) ..q.9.r.l.k.g.h.l.g.l.g.# : . 6 { o.) . : q w { { 9.8.q.6.w.q.o.w.] F ! o.q.  ",
"9.8.q.6.9.o.9.I.P.I.R.P.k.9.9.9.9.8.9.9.} D D ..q.q.9.o.g.~.~.p.6.6.6.9.6.8 1 # ) q.q.] X 3 V w q.q.r.9.q.8.q.q.8.w.] D Q o.w.  ",
"9.9.9.o.q.6.6.H.U.F.U.R.l.q.9.q.9.o.q.q.] A D } q.9.9.o.f.R.R.h.o.9.q.q...< < M 8.9.9.] 5 Z X H f.8.o.9.9.8.q.8.q.q...D F o.8.  ",
"8.w.I.b.D.V.b.I.I.D.e.p.w.9.9.9.9.q.q.8.8.9.o.9.9.o.q.8.9.e.q.6.9.9.9.6.w 4 O o.T.D...* 3 3 7 ..9.9.9.8.q.9.9.o.~ H { o.o.9.9.  ",
"9.p.^.I.R.U.R.I.R.D.8.6.q.9.6.9.9.9.6.9.8.o.9.8.8.8.q.9.9.q.6.q.9.9.q.C X @ + 6.R.~.] w 3 5 M 8.9.q.9.6.6.6.8.o.A A ..e.q.9.q.  ",
"9.r.H.I.H.D.L.D.L.V.9.9.w.q.9.q.9.w.q.9.w.q.w.e.9.q.9.9.9.q.9.9.o.9.q.q 3 5 w q.H.I.] Q Q F ~ o.9.q.9.q.6.w.w.6.F H ..8.q.q.q.  ",
"H.I.R.U.g.8.9.9.9.9.6.9.9.8.9.9.6.q.9.6.k.R.H.r.6.w.8.9.9.9.8.9.9.e.9.% & o & q.9.q.X.6.q.w.O.q.o.6.9.q.9.P.U.D.9.9.q.o.q.w.9.  ",
"H.R.I.R.h.6.9.9.8.9.9.9.9.9.w.9.q.o.o.O.r.~.R.h.8.w.9.9.q.9.q.9.9.9.o.& * * X.V.6.8.q.9.q.6.o.9.9.9.8.6.o.I.R.D.8.8.w.8.9.9.8.  ",
"I.U.c.V.p.9.9.q.9.9.9.8.q.8.9.q.l.e.p.l.g.v.D.9.] O.8.q.8.} ..o.9.6.i.q & 7 w w D H D F D w 3 } g.p.h.k.g.b.c.v.9.8.e.9.8.r.g.  ",
"L.S.6.9.9.o.8.8.9.9.9.9.e.q.9.H./.^.R.^.c.o.9.~ A Q 6.q...F V } q.9.A.V.p.I.L.e.~ / ~ ~ ) 9.9.c.~.U.R.R.I.9.o.o.o.o.9.o.q.P.~.  ",
"U.F.8.9.w.9.q.w.q.8.8.o.9.6.o.D.H.U.H.U.D.8.q.) D H 9.e.o.H D ) w.9.V.~.I.R.T.C.8.9.8.6.q.P.H.U.H.L.I.I./.6.e.9.w.9.w.o.o.D.U.  ",
"g.g.9.w...Q ) 6.q.q.b.D.c.D.b.k.e.e.b.p.9.~ / / H H ] ~ ( o.} i.D.l.g.p.g.p.p.i.9.6.7.9.q.H.R.D.r.k.f.r.e.w.q.q.q.6.g.D.V.g.w.  ",
"o.q.q.q./ V G o.9.p.U.~.I.^.^.w.o.o.9.6.} D F F G G F A / e.9.V._.R.q.X.6.q.6.6.9.6.q.o.9.~.R.v.X.X.X.6.9.X.o.q.9.o.b.~.P.e...  ",
"o.9.9.o.) F Q 6.o.w.P.U.H.S.H.q.9.w.q.q...D F H Q Q G H ( 9.X.l.H.L.e.q.q.q.8.9.e.8.q.9.e.H.H.k.q.e.w.9.q.o.e.9.9.9.b.P.H.p.8.  ",
"H Q H G ..o.8.r.9.r.U.I.b.q.e.9.6.w.6.9.} D G ] 6.w.9.6.o.q.9.q.q.q.8.6.q.9.q.6.9.9.x.T.D.9.q.6.9.q.9.o.q.9.9.r.H.F.k.9.q.6.o.  ",
"H G F V ..q.q.9.X.e.H.U.c.X.6.e.9.w.9.e...G D X.q.9.9.9.r.q.o.q.q.q.q.6.w.9.q.q.8.8.C.).R.8.q.9.e.8.9.8.q.w.9.r.^.^.c.o.q.q.e.  ",
"F Q } / ..9.9.p.r.v.I.!.l.o.w...) ..} ..) / ~ o.q.9.9.o.9.9.e.} ] o.q.q.q.9.6.q.8.9.l.A.x.w.6.9.o.{ 9.9.o.q.9.r.V.v.g.9.w.O...  ",
"G ( r.9.8.9.9.L.L.U.L.!.f.X.9.! D H G D ~ 8.w.q.8.8.9.9.8.6.w.( D G 6.q.q.9.q.e.8.8.8.6.8.q.q...D S { w.9.8.8.6.8.O.8.o.8.Q G   ",
"S ~ q.9.q.q.8.F.L.U.L.).c.9.r.! G G G S ~ q.8.8.8.r.9.q.9.w.w.( D A 9.8.q.o.8.9.X.i.9.e.i.8.e...V G } w.9.8.w.9.q.8.r.q.9.H S   ",
"{ X.9.w.e.6.9.F.!.A.f.h.o.( ) H H ! O.{ o.9.9.q.8.9.( ( ) ) ~ ] O.} 6.9.w.b.x.h.8.9.{ ~ ~ { ( ( o.) o.w.8.X.w.9.9.O.8.~ ) { ..  ",
"w.q.8.6.w.9.8.L.U.C.8.9.( G G H D H w.w.9.8.q.9.8.6.G D D G S { q.f.8.8.w.!./.b.o.8.! D G D D ( r.w.q.9.8.6.9.9.9.8.{ S ! o.w.  ",
"8.8.w.8.q.q.9.D.L.F.6.9.{ H F G G Q 6.9.9.9.9.q.w.9.~ G G H A } 9.q.o.6.g.I.~.l.8.w.( G H D S / 9.9.6.6.q.q.9.w.6.w.{ D G o.8.  ",
"q.8.e.9.k.P.P.f.8.9.9.e.) D ! o.q.9.9.6.q.q.9.o.9.8.H D ) 9.9.6.8.o.F.I.v.~ Q ! ! ! F D Q 9.q.9.q.9.8.9.q.9.9.O.D ~ H F H 9.q.  ",
"q.9.w.6.b.^.H.9.9.w.q.q...D A o.9.q.9.8.9.9.q.o.q.9.~ A ~ 9.9.9.q.9.I.~.S.D F D H D G F G 9.9.q.8.9.8.9.9.6.q.o.S D F G F o.8.  ",
"6.o.w.6.c.H.H.e.9.o.o...] H ! 8.9.q.9.9.9.o.o.q.o.O.) G ) r.q.q.8.q.h.I.h.D G Q H D H ! / 6.9.9.8.q.9.9.w.o.o.O./ Q H H ~ 9.w.  ",
"D Q 9.o.9.o.9.q.w.} F F } q.w.9.6.9.6.9.q.9.q./ A Q o.6.g.^.H.H././.F C G G H H F Q X.q.q.q.q.q.q.q.6.o.9.H D ~ 9.q.p.q.9.9.6.  ",
"D ~ q.9.q.X.9.9.9.} F D / 9.9.q.o.6.6.o.o.o.q.) V H 9.o.q.H.H.U.D.^.~ D F F D F D F ..q.6.6.o.o.6.9.9.6.q.G D H e.o.9.o.9.o.o.  "
};
