/* XPM */
static char *b2c9a833f4ad49a286af5660d939aaf2[] = {
/* columns rows colors chars-per-pixel */
"64 64 199 2 ",
"   c #020203",
".  c #0D0505",
"X  c #06060D",
"o  c #0D0C0C",
"O  c #110100",
"+  c #1D0B05",
"@  c #130C0C",
"#  c #0F100D",
"$  c #19130D",
"%  c #0A0B11",
"&  c #121315",
"*  c #1A1413",
"=  c #14161A",
"-  c #191B1C",
";  c #28160D",
":  c #291A16",
">  c #351C16",
",  c #3B221B",
"<  c #171824",
"1  c #1B1C24",
"2  c #241F20",
"3  c #1E2121",
"4  c #232320",
"5  c #262529",
"6  c #2A2B2C",
"7  c #3C2922",
"8  c #3D3529",
"9  c #26283B",
"0  c #2F3032",
"q  c #343434",
"w  c #3A3736",
"e  c #3B3C3D",
"r  c #452713",
"t  c #442F25",
"y  c #473227",
"u  c #493226",
"i  c #563A28",
"p  c #403D3D",
"a  c #493B38",
"s  c #454034",
"d  c #5F4739",
"f  c #67412B",
"g  c #75502B",
"h  c #664932",
"j  c #764E33",
"k  c #373A46",
"l  c #393E4C",
"z  c #333A53",
"x  c #323855",
"c  c #453E40",
"v  c #4B3D43",
"b  c #3F424C",
"n  c #394151",
"m  c #434446",
"M  c #4A4847",
"N  c #4B4B4D",
"B  c #584F45",
"V  c #5B584B",
"C  c #434250",
"Z  c #4D4E51",
"A  c #4E5153",
"S  c #525355",
"D  c #5B5957",
"F  c #555659",
"G  c #56595B",
"H  c #5A5B5D",
"J  c #655846",
"K  c #745346",
"L  c #625E5F",
"P  c #7F6348",
"I  c #716659",
"U  c #444C6E",
"Y  c #4E5262",
"T  c #5D5E61",
"R  c #5E5969",
"E  c #404C72",
"W  c #605860",
"Q  c #5E6062",
"!  c #626365",
"~  c #6D6962",
"^  c #656669",
"/  c #66696B",
"(  c #6A6B6E",
")  c #716B6A",
"_  c #7B7667",
"`  c #616277",
"'  c #6D6E71",
"]  c #6E7173",
"[  c #727375",
"{  c #757679",
"}  c #787778",
"|  c #77797B",
" . c #7A7B7D",
".. c #85593A",
"X. c #8C613C",
"o. c #8E6342",
"O. c #936C4C",
"+. c #826B52",
"@. c #906F5D",
"#. c #8F755E",
"$. c #9B7458",
"%. c #A47C57",
"&. c #A27758",
"*. c #837969",
"=. c #807F7F",
"-. c #838065",
";. c #848275",
":. c #85837F",
">. c #89807B",
",. c #979370",
"<. c #AF8464",
"1. c #B2876A",
"2. c #A78977",
"3. c #B89377",
"4. c #C29C7D",
"5. c #6E7388",
"6. c #767C84",
"7. c #7D7E81",
"8. c #7E7C92",
"9. c #817D82",
"0. c #7E8183",
"q. c #7A819E",
"w. c #7A83A6",
"e. c #828385",
"r. c #8C8A85",
"t. c #848689",
"y. c #86888B",
"u. c #88898B",
"i. c #88898D",
"p. c #898A8D",
"a. c #898A8E",
"s. c #978C81",
"d. c #8F908F",
"f. c #979687",
"g. c #8B8C90",
"h. c #8D8E91",
"j. c #908E9E",
"k. c #8E9193",
"l. c #8F9094",
"z. c #929395",
"x. c #919296",
"c. c #9F9791",
"v. c #9C9B95",
"b. c #959699",
"n. c #95969A",
"m. c #97989B",
"M. c #9A9B9D",
"N. c #999A9E",
"B. c #A4988C",
"V. c #A49B94",
"C. c #A8A58D",
"Z. c #B5A086",
"A. c #A8A598",
"S. c #B7A992",
"D. c #9C9EA1",
"F. c #9D9EA2",
"G. c #9FA1A3",
"H. c #9FA0A4",
"J. c #A2A3A5",
"K. c #A1A2A6",
"L. c #A9A6A4",
"P. c #A5A6A9",
"I. c #A5A6AA",
"U. c #A7A8AC",
"Y. c #A7A9AC",
"T. c #AAABAD",
"R. c #A9AAAE",
"E. c #B5ADA6",
"W. c #BCB6AD",
"Q. c #BAB8AE",
"!. c #ABACB0",
"~. c #ACADB1",
"^. c #AEAFB3",
"/. c #AEB1B3",
"(. c #AFB0B4",
"). c #B2B3B5",
"_. c #B1B2B6",
"`. c #BBB7B7",
"'. c #B5B6B9",
"]. c #B6B8BB",
"[. c #BABBBC",
"{. c #D8AB82",
"}. c #DFB48E",
"|. c #CEB39F",
" X c #E6B98E",
".X c #C7B9AA",
"XX c #D6C6AD",
"oX c #C4C1B7",
"OX c #CDC6BC",
"+X c #DBDABF",
"@X c #CECCC2",
"#X c #D4D4CD",
"$X c #E0D8D0",
"%X c #EAE9C7",
"&X c #EAE7CB",
"*X c #EEECC9",
"=X c #ECE2D4",
"-X c #F9F0D4",
";X c #E7E8E0",
/* pixels */
" .7. . .{ 0.| |  .| | |  .|  .}  .7.{ A Z S N Z [  .7.K.I.K.K.U.l.[ 7.F N S S N ^ 0.[ | 7.7.[ e.| e.7.H Z Z  . .[ 0.{  . .| S m ",
"7.e.e.t.e.t.e.e.u.y.e. .e.0.e.y.e.0.e.T H F F S [ 0.a.U.~.~.U.R.m.a.a.! F H F S ] t.e.t.e.t.7.7.t.e.t.Q A F 7.a.a.e.u.t.t.e.! F ",
"e.0.t.e.t.e.e.t.] / { e.a.t.e.y.[ ( ' F H !  .' z.F.N.z.l.n.z.F.{ ( ' H F ! [ [ 6.e.e.e. .a.F.F.l.7.h. .[ { 0.e.7.! ( / ( ( [ [ ",
"e.0.t.7.u.e.t.y.T m Q 7.e.t.e.t.G F T F H ' h.7.K.(.R.t. .e.7.t./ S S H F ! t.e.e.7.e.t.7.a.I._.F.7.a.e.e.a.t.e. .F S F S S 7.e.",
"e.t.a. .t.e.e.e.( F ' e.e.t.e.t.! F F H S ! t.e.H.(.~.t.7.a.e.t./ H F Q G T t.7.e.7.7.7.0.g.H._.N.e.e.t.7.7.e.t.7.F A ! G H  . .",
"0.e. .H ! T T T | 7.e.e.e.t.7.u.! F T e.e.7.t.0.7.t.t.T H ! T H [ t.7.7.7.t.U.I.I.R.R.I.I.K.a.t.g.e.e.a.e.7.t.t.7.F G { | e.t.e.",
"a.a.| F F G G G 7.g.e. .7.t.7.a.T Z G 0.a.t.t.e.7.e.7.H F F F Z ( a.e.0.e.h.!.!.~._.R.R.!.I.e. .a.t.7.t.e.t.t.t.[ F F [ e.t.e.e.",
"6.7.[ G T T T T 7.t.7.a.g.t. . .( ! (  .e. .0.t.t.t.e.T F G ! Q { a.e.e.7.a.R.K.I.I.K.!.R.K.t.t.e.e.0.t.e.t. .7.[ ^ G | a.e.t.e.",
"G S T T G { g.t.e. .h.R.].e.S S 7.t.e.t.y.7.e.t.7.t.t.! Z ' a.t.7.0.t.7.e.0.0.{ n.(.R.U.I.K.t.e.t.e.t.t.t.7.G A Q y.a.t.e.7.t.7.",
"G S T F S ' t.0.e. .a.~.].e.S S | e.e.e.e.0.e.t.a.t.e.! Z ( e.e.t.t.t.a.e.e.e.7.n._.I.~._.~.7.7.e.t.7. .t.0.F S ^ e.t.e.e.e.y.a.",
"' ' [ [ ' 6.y.y.z.z.z.n.m.t.^ ! e.t.y.t.e.e.e.t.| ( [ ] ( { e.e.e.7.7.e.7.t.z.z.m.F.z.n.N.N.0.t.t.a.t.0.t.t.' ] [ e.e.t.t.e.[ ' ",
"g.t.g.h.y.e.7.e.~.].K.7.{ t.t.a.t. .e.e.e.e. .e.! N T 7.t.e.e.t.t.e.a.7.e.l._.].z. .7. . .7.t.e.t.t.t.t.7.t.t.t.y.t.7.e.e.e.Q S ",
"7.6.0.e.e.t.e.e.H.R.F.t.7.e.7.e.e. .t.t.0.t.e.e.( A Q 0.a.t.e.e.0.7.t.e.0.a.I.~.N.7.t.e.e.e.a.e.0.e.0.0.7.t.a.0.0.0.y.a.t.e.! S ",
"y.a.a.7.e.n.F.F.~.~.F.e.t.e.e.a.e.e.a.e. .k.K.G.y.[  .e.7.e.t.e.t.e.e.H.F.F.a.a.h.0.0.e.e.e.^ ! ' y.0.0.t.t.0.t.e.0.y.[ Q / {  .",
"| 6.e. .0.F._._.~.!.G. .e.e.e.e.7. .e.0. .n.'.'.z.t.u.u.0.e.t.0.e.e.7.~.(.!.0. .7.7.e.t.t.0.S Z Q t.0.e.t.0.0.t.t.7.y.' A S  .y.",
"t.t.g.a.t.z.K.I.K.K.G.0.u.7.e.e.h.e.e.a.t.k.U.K.h. .e.y.e.t.t.7.0.t.e.K.I.H.e.t.t.7.t.7.7.6.! T ] y.0.t.0.0.a.t.a. .y.] F F 0.y.",
"R.R.I.R.!.n.7.t.7.a.t. .t.e.e.7.G.I.~.I.R.n. .e.t.t.7.e.t.{ G G [ t.7.t.t.e.e.t.t.e.t.^ S T 0.0.a.t.0.0.0.t.U.U.G.0.t.[ F G e.y.",
"I.!.R.R.R.m.7.e.e.t.0.e. .e.t.7.I.I./.R._.F.7.u.L.=X=XQ.z. .S N ( e.7. .0.t.t.a.0.t.t.! A T 0.t.a.0.0.0.0.7.I.].U.e.t.' S F |  .",
"I.R.R.I.R.n.7.e.e.e.0.t.7.t.t.7.I.U.R.n.F.m.OX_ |.h P Z.B.| [ ! 7.N.m.e.e.t.' ] ] { { ( ! ] 0.7.0.0.0.g.z.l.l.F.h.( [ [ ^ ( a.z.",
"I.I.R.R.~.z.7.t.t.a.t.e.a.0.0.7.G.U.I. .7.E.d r 4.%.%.g +..Xh.7.N.~.~.e.7. .F G F F G { t.t.t.0.t.0.7.H.(.(.t.t.| A S [ e.t.U._.",
"U.R.R.I.!.z.0.t.e.0.e.e.t.7.e.7.U._._.e.L.$XI 1.&.}. X{.O.#.r. .N.I.].a.a.e.G F T H F 7.a.0.7.0.t.0.| F.U.U.| t. .G N ] 7.7.K.R.",
"R.~.I.g.z.a.e.e.' ! ' t.7.h.K.N.h.a.a.! `.s.2.1...X.o.o.<.h L.N.n.u.z.^ ! ( F T H G S { e.0.t.t.k.H.F.G.!.U.t.y.t. .[ t.e.7.I.R.",
"R.~.F. .0.e.e.e.T Z Q t.7.m.].~.u. . .F L.B.> f j 3.O.$.3.u I.~.z. .y.G S T F F H H F { t.0.t.| l.(.(.G.(.U.a.|  .e.t.a. .0.G.~.",
"U.!.K.7.t.t.e.e.! S ^ 7.t.z.~.U.a.e.e.G  .V.  O h h i u J e.I._.z.{ a.H S T H S H H H  .t.0.y.| z.U.U.U._.I.t.0.a.e.t.t.e.a.N.R.",
"e.e.a.7.t.] S H 0.u.7.e.e.e.t.e.y.e.7.F =.W.  + ; i +.XXOXI.R.R.z. .u.! T ! t.e.t.t.e.t.0.g.I.U.!.U.U.G.U.U.0.t.t.e. .m./.I.R.R.",
"e. .e.0.t./ N T  .u.e.e.7.7.t.y.e.t.u.F n.oX8 V *.; S.-X@XR.R.].n.t.u.F Z T t.7.e. .7.e.6.0.I.U.U./.!.(.U.(.t.0.t.t.e.N.R.I.~._.",
"e.e.u.e.y.] S ! 7.u.e.e.e.e.t.e.7.0.e.G [.s f.*XC.>.B _ _.~.z.G.t.| | ^ ! ( t.e.a.h.k.z.g.g.U.U.I.G.F.I.m.G.t.0.0.[ | n.~.U.I.G.",
"7.e.y.e.e.' S H 7.t.7.e.e.e.e.0.u.t.e.S v.;.%X%XI s.w r.~.h.M Z S Z H e.a.t.t.7.z._.!.R.!.U./._.m.0.7.0.7.7.0.0.7.Z N t.].I.t.{ ",
"t.e.y.a.e.( F H | e.7.e.0.e.e.e.e.e.0.S v.A.&X*XJ C._ 0.].m.F Q G H S 7.7.e.7. .n.~.R.~.!.(.U.(.F.7.0.0.t.0.a.t.0.S N a.].U.t. .",
"( / ( ( / ( ( ] e.e.7.e.e.t.e.t.[ ( [ m.N.$ _ ,.-.+Xf./  .| ' { ^ [ ( n.z.F.n.n.n.h.h.n.a.l.l.z.k.0.a.t.0.0.] ! ' t.t.a.a.z.a.e.",
"A S S S S { a.t.y.t.0.e.e.y.e.e.H N H k.0 6 ;.C.A.:.4 # ! q L e.y.u.t.R.(.(.~.].N. .e.e.| 7.7.0.0.0.y.t.0.0.H Z ] [.].m.[ e.e. .",
"T G H H F [ e. .e.e.e.e.e.e.0.y.! F Q G.6 X = * C ` k 3 D p } ^ 7.7.e.N.~.R.I.U.N. .a.7.a.a.0.0.t.0.t.0.0.0.T S ( ~.K.N.0.t.0.7.",
"H F ^ 0.| e.e.e.e.t.y.7.t.m.F.U.e. .K.'.1   1 X 9 l l ] p w c ^ m.I.K.!.R.!.~.I.N. .e.^ H T ! H ! T T ! ! T | | e.y.e.a.e.7.! Q ",
"S S ^ t.t.t.e.e.e.7.e.7.{ z._./.a.e.A.r.5 < < %     6 o Z H  .7.N._.~.~.I.I.U.~.F.e.t.! Z S G F T S S F S S a.y.t.7.t.u.y.u.H A ",
"! ! [ e.t.e.7.e.t.0.t.z.t.z.R.N.t.e.Q.f.0 9 9 1 5 & ^ H e.e.e. .m./.R.R.!.~.F.U.h.[  .' ! ! H G ! H G ! ^ H t. .u. .t. .[ { / ^ ",
"e.e.t.e.e.t.e.t.0.7.u.I.R.z.t.e.7.d.;.;Xb x x z l 6 H  .7.u.t.e.n.R.I.I.R.U.7.t.[ A T [ t.7.Q H T Q H [ a.7.t. .t.e.e.' F H  .e.",
"e.t.t.7.7.e. . .e.7.a.I.].n.{ e.e.oX;.#XY U E U z < U. .0.e.7.| F./._.~.~.I.7.y.' Z S ] a.t.H F F F Z ( t.t. .e.e.e.e.] F F 7.t.",
"e.e.t.t.t.t.7.e.m.z.N.U.R.n.7.u.z.v.oX~ j.w.w.q.n 1 `.t.e.a.n.n.z.z.n.z.n.z.7.g.7.' ]  .e.e.G F ( ] ] e.0.t.7.u.t. .y.' F Q  .t.",
"e.e.0.t.7.e. .e.R.U.R.~.U.n.e.t.M M OXM W 8.q.5.6.@ 8 n. .z._._.h.7.7.7.e.7.7.0.e.t.t.t.t.e.G F ' t.t.a.e.t.0.t.t.0.y.' S T  .u.",
"e.e.e.e. .t.7.7.I.R.K.R.~.n.t.m - N c.t 7 v R F.6 $ y V. .k.~.~.z. .e.t.t.7.t.e.6.0.e.e.e.e.S S / k.0. .e.e.0.t.0.t.t.{ S F  .0.",
"e.0.y.R.N.K.F.N.R.R.K.a.a.a.( - 6 5 5 u @.t v 9.o + > ) 0.e.a.t.7.e.e.e.7.a.e.t.l.!.K.{ F ^  . .{ e.e.e.0.t.e.e. .! H ] |  .e.e.",
"e.e.h._.R.~.R.~.R.~.K.0.7.t./ G 5 o a t $.i > @ . + , >.e.e.t.7.t.e.e.t.0.e.6. .z.~._.' S H e.t.0.e.t.e.7.7. .0. .Z Z { u.t.e.t.",
"e.e.h.I.R.I.K.U.K.U.F.e.e.y.( e 4 w 7 > K i a q . + y 7 e.e.t.e.e. .e.t.t.t.g.t.F.K.R.' T ! 7.0.a.e.t.e.t.7.a.u.7.F H { 0.t.t.t.",
"R.I.R.~.R.z.0.e.e.e.e. .e.e./ w N q : : , M R.m.e ; a : e.e.e.0.e.e.a.t.e.h.!.U.n.e.t.| 7.t.u.e.t. .7.e.t.e.R.R.K.e.e.t. .t.y.e.",
"I.I.~.U.~.z.7.e.e.0.e.e.e.e.0.t.e.e.q 2 N a._.~.y.* * @ 0 H e.t.e.e.e.7.7.a.~.(.F.7.0.t.e.t.7. .e.e.e.0.7. .R.~.K.0.0.y.e.e.t.0.",
"R.R.R.m.F.h.e.e.t.e.e.e.0.t.0.e.t.n.a.a.n.z.N.K.e.5 * q &  .[ {  .e.7.h.z.z.R.R.n.7.t.e.0.t.z.z.a.z.h.z.n.z.N.m.N.e.0.a.e.e.a.k.",
"R.I.F.7.e.e. .0.0.e.e.e.e.a.t.e.I.]._.~._.m. .e.! m   q & ( F N [ t.e.K._.U.~.!.N.0.t.0.e.a.R.R.'._.R.~.~.R.e. . . . .e. .t.U._.",
"~.R.K.0.e.u.e.t.u.t.0.0. .e.7. .K.I.R.I.R.K.0.t.( A - q = ! G S ( y.e.F._.R.~.!.F.0.e.0.7.t.U.I.R.I.U.R.R.'. .a.e.y.e.y. . .K.R.",
"a.z.z.e.u.{ H (  .t.t.N.K.m.K.N.n.a.a.N.h.e.! ^ ^ H F S e H  .[ g.K.n.z.h.z.h.h.h.e.7.9.e.t.I.~.K.a.n.d.a.a.u.t.t.t.7.z.K.F.z.u.",
"e.7.t.t.t.^ N G  .e.h.R._.R._._.t. .| e.7.[ S F F G G F Z ^ a.e.F.].~.t.| 7.t.7.7.e.7.t. .e._.~.N.| | | 7.e.|  .t.e. .N._.U.a.{ ",
"t.7.e.e. .( F T 7. .u.U.R.I.K.I.t.e.y.t.t.{ S F H T T F H / e.| n.I.U.a.e.t.t.7.t.a.0.y.e.a.I.U.n.t.a.u.e.t. .a.0.e.e.N.U.I.h.0.",
"G T T H G {  .0.a.e.a.R.R.N.t.a.e.7.y. .e.[ S G ' 7.u.e.7. .t.e.t.t.t.0.7.t.e.t.0.e.e.m.~.K.e.t.7.e.e.e. .t.e.e.a.I.K.n.e.t.7. .",
"F H G F N { t.t.e.| a.U.R.n.| 7.a.e.u.e.u.{ G S | t.t.e.e.a.t. .t.t.t.t.7.a.e.t.t.0.0.F.[.~.0.t.e.a.0.e.e.e.u.e.a./._.m. .t.t.a.",
"H F T [ ^ { e.e.h.a.N.R.~.n. .y.| ( { [ { ( ^ !  .t.e.e. .e.e.a.[ '  .t.t.t.e.7.t.0.e.n.H.m.y.0.e. .] e.e. .e.e.a.F.N.z.e.y.| { ",
"Q G / a.e.0.e.e.U.U.R.U./.g.| e.Q S G G S ! 0.y.t.0.0.e.e.0.7.y./ S G 7.t.t.e.t.a.0.0.0.7.0.t.t.{ S A ] y.e.0.0.7.0.| 0. .0.T G ",
"S A ! t.t.t.t.0.K.U.R.U.[.m.e.a.Q G G G A ! t.0.0.0.a.e.t.e.y.y./ S Z e.0.t. .0.e.| g.0.a.g.0.a.{ N G [ y.e.0.y.e.t.0.a.t.e.H A ",
"] ] | e.y.a.7.e.K./.H.k.z. ./ ( H H Q | ]  .e.e.t.0.e./ / ( ( ! ' | [ 7.e.y.N.m.z.0.e.] ! ! ] / /  .(  .y.0.| y.e.e.| 0.! ( ] [ ",
"y.y.t.0. .y.e.0.U.R.F.0.e./ G G H S H y.y.e.0.t.e.0.0.G S S G A ] t.k.0.0.a./.'.N. .0.Q S G S S / a.y.t.e.0. .e.e.e.0.] A Q  .y.",
"0.0.7.y.0.t.t.e.K.U.K.7.e.] H F G G T 7.e.e.e.e.t.y.e.! F G H Z [ e.t. .7.z.R._.m.7.u./ G H S A ! e.t.7.7.t.t.e.y.7.u.] S G  .0.",
"u.t.7.a.e.n.U.U.k.0.e.e.u.( S Q  .y.e.e.7.t.t.e. .e.0.H S ( e.e.7.0. .K.U.N.! T Q Q T F S H e.t.e.t.e.0.e.t.e.e.| S ! H F H e.t.",
"0.t.e.u.7.N._.I.e.e.y.t.t.{ S N  .e.t.e.0.e.e.t. .t.e.! Z ! e.e.e.t.e.R._.G.S F S H S G F G e.e.t.0.e.0.e.e.7.t.7.Z S F G F  .0.",
"0.7. .u.7.m.I.I.a.e. . .{ ' H Q 0.e.t.e.e.e. . .y. .| ( G ( a.t.t.0.t.z.R.z.S G T H S H Q ^ 7.e.e.0.t.e.e.u. . .| ^ T H H ! e.u.",
"F S T e. .e. .e.t.u.[ F F [ t.u.e.7.e.7.e.t.e.t.^ Z T  .7.z._.I.I.'.'.F M G G H H F T | t.t.t.t.t.t.t.7. .e.H S ! e.t.h.t.e.e.7.",
"F S ! t.e.t.| e.e.e.[ F S ^ e.e.t. .7.7. . . .t.( N H e. .t.I.I.R.K._.! S F F S F S F { t.7.7. . .7.e.e.7.t.G S H a. .e. .e. . ."
};
