/* XPM */
static char *_e2c6485c0ca4bb5bf66f92faca6cd97[] = {
/* columns rows colors chars-per-pixel */
"64 64 202 2 ",
"   c None",
".  c #040303",
"X  c #090504",
"o  c #0C0B0C",
"O  c #060709",
"+  c #140E0C",
"@  c #130503",
"#  c #050919",
"$  c #180F10",
"%  c #0E1512",
"&  c #141414",
"*  c #1B1415",
"=  c #16191A",
"-  c #1B1B1C",
";  c #161519",
":  c #1A1702",
">  c #250F06",
",  c #231D1D",
"<  c #261914",
"1  c #361B0D",
"2  c #26211C",
"3  c #3E231A",
"4  c #1C1D22",
"5  c #161B30",
"6  c #261F20",
"7  c #1D2422",
"8  c #252524",
"9  c #282726",
"0  c #2B2B2B",
"q  c #292827",
"w  c #312F2C",
"e  c #362623",
"r  c #292B33",
"t  c #262532",
"y  c #2A3331",
"u  c #343333",
"i  c #3D3936",
"p  c #39383D",
"a  c #38352B",
"s  c #40251E",
"d  c #532D1D",
"f  c #53351B",
"g  c #63351F",
"h  c #462E22",
"j  c #4A3628",
"k  c #453C36",
"l  c #583B31",
"z  c #633C22",
"x  c #4A412D",
"c  c #41423C",
"v  c #574439",
"b  c #6A442B",
"n  c #7D5028",
"m  c #734B3C",
"M  c #7F633F",
"N  c #29314B",
"B  c #3A3C48",
"V  c #323957",
"C  c #434345",
"Z  c #46454B",
"A  c #4B4B4D",
"S  c #4A4845",
"D  c #5C4B42",
"F  c #564A4A",
"G  c #5F514C",
"H  c #4D4E51",
"J  c #4E5153",
"K  c #525355",
"L  c #555659",
"P  c #56585B",
"I  c #5A5B5D",
"U  c #5A5759",
"Y  c #6A4C41",
"T  c #785A46",
"R  c #635B56",
"E  c #6C6256",
"W  c #5D5E61",
"Q  c #625D6E",
"!  c #5E6062",
"~  c #5F606C",
"^  c #626365",
"/  c #656669",
"(  c #66696B",
")  c #6A6B6D",
"_  c #676966",
"`  c #706E6C",
"'  c #74716D",
"]  c #797465",
"[  c #6D6E71",
"{  c #6D6F7B",
"}  c #6E7173",
"|  c #727375",
" . c #7D7C71",
".. c #757679",
"X. c #77797B",
"o. c #7A7B7D",
"O. c #77787A",
"+. c #835A3C",
"@. c #8B6449",
"#. c #92664D",
"$. c #9A6A43",
"%. c #886C58",
"&. c #936853",
"*. c #947A56",
"=. c #A47956",
"-. c #877C65",
";. c #827871",
":. c #B68F5F",
">. c #8B887D",
",. c #95897C",
"<. c #9B9272",
"1. c #BD9577",
"2. c #AF8A70",
"3. c #C2916A",
"4. c #D3A779",
"5. c #6A708F",
"6. c #7D7E81",
"7. c #656F91",
"8. c #7A7E97",
"9. c #666E88",
"0. c #807F84",
"q. c #7F8083",
"w. c #7C8299",
"e. c #828385",
"r. c #858689",
"t. c #86888B",
"y. c #88898B",
"u. c #88898D",
"i. c #898A8E",
"p. c #898A8D",
"a. c #8D8280",
"s. c #9A8F87",
"d. c #8E9086",
"f. c #99958A",
"g. c #8B8C90",
"h. c #8D8E91",
"j. c #8D8E91",
"k. c #8F9094",
"l. c #8E9092",
"z. c #919296",
"x. c #929395",
"c. c #999694",
"v. c #95969A",
"b. c #959699",
"n. c #97989B",
"m. c #999A9E",
"M. c #9A9B9D",
"N. c #9D9B93",
"B. c #A69381",
"V. c #A09E9C",
"C. c #ADA487",
"Z. c #A8A39D",
"A. c #B1AA86",
"S. c #9D9EA2",
"D. c #9D9EA1",
"F. c #9FA0A4",
"G. c #9FA0A2",
"H. c #A1A2A6",
"J. c #A2A3A5",
"K. c #AAAAA6",
"L. c #A5A6AA",
"P. c #A5A6A9",
"I. c #A7A8AC",
"U. c #A7A9AB",
"Y. c #A9AAAE",
"T. c #AAABAD",
"R. c #BFB4A6",
"E. c #ABACB0",
"W. c #ACADB1",
"Q. c #AEAFB3",
"!. c #ADAEB1",
"~. c #A5A7B6",
"^. c #AFB0B4",
"/. c #AFB0B3",
"(. c #B1B2B6",
"). c #B2B2B4",
"_. c #B5B6B9",
"`. c #B7B8BB",
"'. c #BBBCBD",
"]. c #BCB9B6",
"[. c #B3AAA4",
"{. c #DFB082",
"}. c #C8A588",
"|. c #C6BDA8",
" X c #C7B8AA",
".X c #C8BDB3",
"XX c #D5BDA7",
"oX c #D2C2AA",
"OX c #C9C7BA",
"+X c #D5D0BB",
"@X c #D7C8B5",
"#X c #E1D3BA",
"$X c #EBE1B6",
"%X c #F6EDBD",
"&X c #BBBDC0",
"*X c #C6C7C8",
"=X c #D6D4C5",
"-X c #EDDDC9",
";X c #E1DBD4",
":X c #EFECC2",
">X c #FBF6CE",
",X c #F7F0DA",
/* pixels */
"6.o.o...q.X.X.o.X.X.X.o.X.o.O.6.6...J H K A H | o.6.H.L.H.H.I.k.| 6.P A K K Z / q.| X.6.6.| e.X.e.6.I H H o.o.| q...o.o.O.K C   ",
"e.e.r.e.r.e.e.y.t.e.o.e.q.e.t.e.q.e.W I L L K | q.i.I.W.W.I.Y.n.i.i.^ L I L K [ r.e.r.e.r.6.6.r.e.r.! J L 6.u.i.e.y.r.r.e.^ L   ",
"q.r.e.r.e.e.r.} ( ..e.i.r.e.t.| ) [ L I ^ o.[ z.S.m.z.j.v.z.D...) [ I L ^ | | 6.e.e.e.o.i.S.S.k.6.h.o.| ..q.e.6.^ ) ( ) ) | |   ",
"q.r.6.y.e.r.t.W C ! 6.e.r.e.r.P L W L I [ h.6.H.^.Y.r.o.e.6.r.( K K I L ^ r.e.q.6.r.r.6.i.L.(.S.6.u.e.r.i.r.e.o.L K L K K 6.e.  ",
"r.i.o.r.e.e.e.) L [ e.e.r.e.r.^ L L I K ^ r.e.F.^.W.r.6.u.e.r.( I L ! P W r.6.e.6.6.6.q.g.F.(.m.e.e.r.6.6.e.r.6.L J ^ P I o.o.  ",
"e.o.I ^ W W W X.6.e.e.e.r.6.y.^ L W e.e.6.r.q.6.t.r.W I ^ W I | r.6.6.6.r.I.L.L.Y.Y.L.L.H.i.r.g.e.e.i.e.6.r.r.6.L P ..O.e.r.e.  ",
"u.X.L L P P P 6.g.e.o.6.r.6.i.W H P q.i.r.r.e.6.e.6.I L L L H ) i.e.q.e.h.E.E.W.(.Y.Y.E.L.e.o.u.r.6.r.e.r.r.r.| L L | e.r.e.e.  ",
"6.| P W W W W 6.r.6.i.g.r.o.o.) ^ ) o.e.o.q.r.r.r.e.W L P ^ ! ..u.e.e.6.i.Y.H.L.L.H.E.Y.H.r.r.e.e.q.r.e.r.o.6.| / P O.i.e.r.e.  ",
"K W W P ..g.r.e.o.h.E._.e.K K 6.r.e.r.t.6.e.r.6.r.r.^ H [ i.r.6.q.r.6.e.q.q...v.^.Y.I.L.H.r.e.r.e.r.r.r.q.P J ! t.i.r.e.6.r.6.  ",
"K W L K [ r.q.e.o.i.W._.e.K K O.e.e.e.e.q.e.r.u.r.e.^ H ) e.e.r.r.r.i.e.e.e.6.v.(.L.W.(.W.6.6.r.r.6.o.r.q.L K / e.r.e.e.e.t.i.  ",
"[ | | [ 6.t.t.z.v.v.v.n.r./ ^ e.r.t.r.e.e.e.r.X.) | } ) ..e.e.e.6.6.e.6.r.z.z.n.S.z.v.m.m.q.r.r.i.r.q.r.r.[ } | e.e.r.r.e.| [   ",
"r.g.h.t.e.6.e.W._.H.6...r.r.i.r.o.e.e.e.e.o.e.^ A W 6.r.r.e.r.r.e.i.6.e.k.(.`.z.o.6.o.o.6.r.r.r.r.r.r.6.r.r.r.t.r.6.e.e.e.! K   ",
"6.6.e.e.r.e.r.F.Y.S.r.6.e.6.e.e.o.r.r.q.r.e.e.) J ! q.u.r.e.e.q.6.r.e.q.i.L.W.m.6.r.e.e.e.u.e.q.e.q.q.6.r.u.q.q.q.t.u.r.q.^ K   ",
"i.i.6.e.v.S.S.W.W.S.e.r.e.e.i.e.e.i.e.o.l.H.G.t.| o.e.6.e.r.e.r.e.e.F.S.S.i.i.h.q.q.e.e.e./ ^ [ t.q.q.r.r.q.q.r.q.t.| ! ( ..o.  ",
"6.e.o.q.S.^.(.W.E.G.o.e.e.e.e.6.o.e.q.o.b._._.z.r.y.y.q.e.r.q.e.e.6.W.^.E.q.o.6.6.e.r.r.q.K H ! r.q.e.r.q.q.r.r.6.t.[ J K o.t.  ",
"r.g.u.r.x.H.L.H.H.G.q.y.6.e.e.h.e.e.i.r.l.U.H.h.o.e.t.e.r.r.6.6.r.e.H.L.F.e.r.r.6.r.6.6.o.^ W } t.q.r.q.q.u.r.i.o.t.} P L q.t.  ",
"Y.L.Y.E.v.6.r.6.u.r.o.r.e.e.6.G.L.W.L.Y.v.o.e.r.r.6.e.r...P P | r.6.r.r.e.e.r.r.e.r./ K W q.q.u.r.q.K.e.M.E.U.G.q.r.| L P e.t.  ",
"E.Y.Y.Y.n.6.e.e.r.q.e.o.e.r.6.P.L./.Y.(.S.6.e.r.i.e.r.h.o.K A ) e.6.o.q.r.r.i.q.r.r.^ J W r.r.u.l..X%.2.T  X*XT.e.r.[ K L O.o.  ",
"Y.Y.L.Y.v.6.e.e.e.q.r.6.r.r.6.L.U.T.v.S.z.6.e...) | ..| | | ^ 6.m.n.e.e.r.[ } } ....) ^ } q.q.t.s.T @.+.=.b #Xb.) | | / ) i.x.  ",
"L.Y.Y.W.v.6.r.r.u.r.e.i.q.q.6.G.U.L.o.o.e.o.e.) H P P A ^ i.6.M.W.W.e.6.o.L P L L P ..r.u.r.V.j %.&.3.4.{.:.*. XJ K | e.r.U.(.  ",
"Y.Y.L.E.v.q.r.e.q.e.e.r.6.e.6.T.(.(.e.e.r.r.i.} I P L K ^ e.o.m.L._.i.i.e.P L W I P 6.u.q.T.Z.D @.#.$.=.n 4.M  XI A } 6.6.J.Y.  ",
"W.L.g.z.i.e.e.[ ^ [ r.6.h.H.m.h.i.i.^ / ^ ^ / I H W | | q.H.M.b.y.x./ ^ ) L W I P K ..e.q.r.) D T z 1.2.1.}.f s.o.| r.e.6.L.T.  ",
"W.S.o.q.e.e.e.W H ! r.6.n._.W.y.6.o.L P K K P I K ( y.6.i.).W.z.o.t.P K W L L I W P ..e.q.r.X.R h 1 %.f l v D Z.e.r.i.6.q.G.W.  ",
"E.H.6.r.r.e.e.^ K / 6.r.z.W.I.i.e.e.P I P P I I I W q.r.i.L.(.z...y.I K W I K I I W o.r.q.r.X.R < . j T XX@XN.i.e.r.r.e.i.M.T.  ",
"e.i.6.r.} K I q.y.6.e.e.e.r.e.t.e.6.L I I I I | y.e.T.T.T.Y.T.z.o.y.^ W ^ r.e.r.r.e.r.q.g.L.).x -.C.,.D -X=Xh.r.e.o.n./.L.Y.Y.  ",
"o.e.q.r.( A W o.y.e.e.6.6.r.t.e.r.t.L K K L K X.y.q.H.L.T.Y.`.b.r.y.L H W r.6.e.o.6.e.o.r.*X] <.$X>X,X,.E OXK.r.r.e.m.T.L.W.).  ",
"e.y.e.t.} K ^ 6.y.e.e.e.e.r.e.6.q.e.P I W ) / ..e.r.U.W.W.z.G.r.O.O./ ^ ) r.e.i.h.h.z.i.*X0 ].C.%X:X+Xk w ' M.q.| O.b.W.T.L.G.  ",
"e.t.e.e.[ K I 6.r.6.e.e.e.e.q.y.r.e.K P ) t.e.i.e.r.W.W.h.Z H K H I e.i.r.r.6.v.(.W.Y.'.r ~ i |.A.B.: OXu ` M.6.H A r._.P.r...  ",
"e.t.i.e.) L I X.e.6.e.q.e.e.e.e.e.q.K A / r.6.e.| 6.T.`.n.L ! P I K 6.6.e.6.o.v.W.Y.W.x.{ ~.p a OX .8 >.S A '.q.K A i._.T.r.o.  ",
"( ) ) ( ) ) } e.e.o.e.e.r.e.r.| ) | | | ..r.6.v.S.v.e.o.o.) ../ | ) b.z.S.v.v.v.h.h.v.n.I W = O 9 9 S  .& 0 M.| r.r.i.i.z.i.e.  ",
"K K K K ..i.r.t.r.q.e.e.t.e.e.I A I r.y.e.e.6.M.'.J.I C ^ r.h.t.y.r.Y.^.^.W._.m.o.e.e.c.` | 7 8 4 z.).w 0 , i K.'._.n.| e.e.o.  ",
"P I I L | e.o.e.e.e.e.e.e.q.t.^ L ! r.e.e.r.e.i.(.P.( L / r.6.6.6.e.M.W.Y.L.I.m.o.i.6.c.;.>.0 r 4 8 X.w C >.[.' W.J.M.q.r.q.6.  ",
"L / q.X.e.e.e.e.r.t.6.r.n.S.U.e.o.o.e.e.r.6.r...^ / X...e.r.o.n.P.H.E.Y.E.Q.L.m.6.e./ .XB.v * ; B B ; ^ * k R o.t.e.i.e.6.^ !   ",
"K / r.r.r.e.e.e.6.e.6...x.)./.i.e.e.r.r.r.e.i.^ A I e.r.r.e.6.M.).W.W.L.L.I.W.S.e.r.^ R.oX-.2 # 5 # I K A | | i.6.r.y.t.y.I J   ",
"^ | e.r.e.6.e.r.q.r.z.r.z.Y.M.r.e.r.e.e.6.6.r.( J ^ r.e.e.e.o.n./.Y.Y.Y.W.S.I.h.| o.o.;Xk 2 # N V N Z U K r.o.y.o.r.o.| ..( /   ",
"e.r.e.e.r.e.r.q.6.y.L.Y.x.r.e.6.6.e.6.e.q.q.r.| L / e.6.y.r.e.v.Y.L.L.Y.I.6.r.| J W '.' 6 t 9.7.5.Q e c.6.r.o.r.e.e.[ L I o.e.  ",
"r.r.6.6.e.o.o.e.o.y.L._.v...e.e.e.r.o.r.r.e.r.) A P o.q.e.6.X.S./.(.W.W.L.6.t.[ H T.c =XOXD.8.w.8.F s G i.o.e.e.e.e.} L L 6.r.  ",
"e.r.r.r.r.6.e.n.z.M.T.Y.v.6.y.e.r.r.6.r.6.[ ) ..) ..r.e.i.v.b.z.x.v.z.v.z.6.g.6.6.u d.OXq B ~.w.W e m T R.q.y.r.o.t.[ L ! o.r.  ",
"e.q.r.6.e.o.e.Y.T.Y.W.T.b.e.e.e.e.q.e.e.| K K ..r.r.e.o.z.(.(.h.6.6.6.e.6.6.q.e.- . r.' & $ p 6.U 3 b #.D l.r.r.q.t.[ K W o.y.  ",
"e.e.e.o.r.6.6.L.T.J.T.W.v.r.e.r.e.o.r.r.[ H K | r.e.e.o.l.W.W.x.o.e.r.r.6.r.r.o.; u Z ; * e + & , 3 g #.D c.r.q.r.r...K L o.q.  ",
"q.t.Y.M.H.S.M.Y.Y.H.i.h.i.e.e.e.e.r.r.q.q.e.o.e.e.o.r.q.e.i.r.6.e.e.e.6.u.r.r.h.0 0 ; ; < e u | ..> d &.v Z.e.o.^ I } o.o.e.e.  ",
"e.h.).Y.W.T.W.Y.T.H.q.6.r.e.6.e.e.e.6.e.q.o.e.q.q.q.r.e.e.r.6.r.e.e.r.q.e.6.o.j.^ / ; + , u e.q.e.@ 3 Y h N.y.o.H H ..i.r.e.r.  ",
"e.i.L.Y.P.H.U.H.U.S.e.e.t.r.e.r.e.t.e.e.t.r.y.y.e.r.e.e.e.r.e.e.o.e.r.r.r.g.r.D.v.E.X 0 H 6.q.i.e.| < < X 0 ^ r.L I ..q.r.r.r.  ",
"L.Y.W.T.z.q.e.e.e.e.6.e.e.q.e.e.6.r.e.6.b.W.P.i.6.t.q.e.e.e.q.e.e.u.r.e.h.E.I.v.e.r.| 6.r.y.e.r.o.6.K . u & W *Xn.e.r.o.r.t.e.  ",
"L.W.Y.W.x.6.e.e.q.e.e.e.e.e.t.e.r.o.o.O.i.(.W.x.q.t.e.e.r.e.r.e.e.e.6.6.u.Q.^.S.6.q.r.e.r.6.o.e.e.e...= % 7 r.p A *Xt.q.e.e.q.  ",
"Y.T.n.S.h.e.e.r.e.e.e.q.r.q.e.r.v.i.h.v.z.m.H.e.[ O.q.r.q.| ..o.e.6.h.x.z.Y.Y.n.6.r.e.q.r.z.z.i.z.h.x.0 7 y - K 8 i.i.e.q.i.l.  ",
"L.G.6.e.e.o.q.q.e.e.e.e.i.r.e.L._.).W.).n.o.e.^ H W 6.r...L A | r.e.H.(.I.W.E.m.6.r.6.q.i.Y.T.(./.Y.T.T.; = 8 9 _ *Xe.o.r.T.(.  ",
"T.H.q.e.y.e.r.y.r.q.q.o.e.6.o.H.L.T.P.T.H.q.r.) K I e.i.o.I K ) t.e.S.(.Y.W.E.D...} K ; o o X . . . . o & & & . ) P.t.o.o.H.T.  ",
"z.z.e.y...W ) 6.r.r.M.H.n.H.M.b.y.i.M.h.e.^ / / I I [ ^ ( o.| g.H.v.z.h.z.h.h.g.e.6.0.e.t.L.z.0.) ..| - O . . X C ).z.H.S.z.y.  ",
"o.r.r.r./ A P o.e.h.T.(.Y.).(.r.o.o.e.6.| K L L P P L H / i.e.S.`.W.r.X.6.r.6.6.e.6.r.o.e.(.W.m.X.X.X.6.e.X.o.r.e.o.M.(.T.i...  ",
"o.e.e.o.) L W 6.o.y.T.T.P.G.L.r.e.t.r.r...K L I W W P I ( e.X.v.L.I.i.r.r.r.6.r.i.q.r.e.i.L.L.b.r.i.y.e.e.o.i.q.e.e.M.T.L.h.q.  ",
"W I I P ..o.q.i.e.i.T.Y.M.r.i.e.6.t.6.e.| K P [ 6.y.e.6.o.r.e.r.r.r.q.6.r.e.r.6.e.e.n.E.H.e.r.6.e.e.e.o.r.q.e.i.L.J.b.e.r.6.o.  ",
"I P L A ..r.r.e.X.i.L.T.n.X.6.i.e.y.e.i...P K X.r.e.e.e.i.r.o.r.r.r.r.6.t.e.r.r.q.q.D.`.W.q.r.e.i.q.e.q.e.y.e.i.).).n.o.r.r.i.  ",
"L W | / ..e.e.h.i.m.Y./.v.o.t...) ..| ..) / ^ o.r.e.e.o.e.e.i.| [ o.r.r.r.e.6.r.q.e.v.F.n.t.6.e.o.} e.e.o.e.e.i.S.m.z.e.t.O...  ",
"P ( i.e.q.e.e.U.I.T.I./.l.X.e.! K I P K ^ q.t.r.q.q.e.e.q.6.t.( K P 6.r.r.e.r.u.q.q.q.6.q.r.r...K J } t.e.q.q.6.q.O.q.o.q.W P   ",
"J ^ r.e.r.r.q.J.I.T.U.'.n.e.i.! P P P J ^ r.q.q.q.i.e.r.e.t.t.( K H e.q.r.o.q.e.X.g.e.u.g.q.u...A P | t.e.q.t.e.r.q.i.r.e.I J   ",
"} X.e.t.t.6.e.J./.G.l.x.o.( ) I I ! O.} o.e.e.r.q.e.( ( ) ) ^ [ O.| 6.e.t.M.n.x.q.e.} ^ ^ } ( ( o.) o.t.q.X.t.e.e.O.q.^ ) } ..  ",
"t.r.q.6.t.e.q.U.T.M.q.e.( P P I K I t.t.e.q.r.e.q.6.P K K P J } r.l.q.q.t./._.M.o.q.! K P K K ( i.t.r.e.q.6.e.e.e.q.} J ! o.t.  ",
"q.q.t.q.r.r.e.H.U.J.6.e.} I L P P W 6.e.e.e.e.r.t.e.^ P P I H | e.r.o.6.z.Y.(.v.q.y.( P I K J / e.e.6.6.r.r.e.t.6.y.} K P o.q.  ",
"r.q.i.e.b.T.T.l.q.e.e.i.) K ! o.r.e.e.6.r.r.e.o.e.q.I K ) e.e.6.q.o.J.Y.m.^ W ! ! ! L K W e.r.e.r.e.q.e.r.e.e.O.K ^ I L I e.r.  ",
"r.e.y.6.M.).L.e.e.t.r.r...K H o.e.r.e.q.e.e.r.o.r.e.^ H ^ e.e.e.r.e.Y.(.G.K L K I K P L P e.e.r.q.e.q.e.e.6.r.o.J K L P L o.q.  ",
"6.o.y.6.n.L.L.i.e.o.o...[ I ! q.e.r.e.e.e.o.o.r.o.O.) P ) i.r.r.q.r.x.Y.x.K P W I K I ! / 6.e.e.q.r.e.e.y.X.o.O./ W I I ^ e.y.  ",
"K W e.o.e.o.e.r.y.| L L | r.y.e.6.e.6.e.r.e.r./ H W o.6.z.).L.L._._.L Z P P I I L W X.r.r.r.r.r.r.r.6.o.e.I K ^ e.r.h.r.e.e.6.  ",
"K ^ r.e.r.X.e.e.e.| L K / e.e.r.o.6.6.o.o.o.r.) A I e.o.r.L.P.T.H.).^ K L L K L K L ..r.6.6.o.o.6.e.e.6.r.P K I i.o.e.o.e.o.o.  "
};
