/* XPM */
static char *_2696d0f1a8d4dd78c4f6f6609fbfe2f[] = {
/* columns rows colors chars-per-pixel */
"64 64 211 2 ",
"   c #030200",
".  c #0B0100",
"X  c #000901",
"o  c #0D0A03",
"O  c #080709",
"+  c #0B0C0A",
"@  c #120100",
"#  c #1B0000",
"$  c #140B00",
"%  c #180B07",
"&  c #041100",
"*  c #171616",
"=  c #230000",
"-  c #27191C",
";  c #372D2A",
":  c #392E2F",
">  c #3B3636",
",  c #422A2D",
"<  c #443836",
"1  c #513E3A",
"2  c #6F3F33",
"3  c #5C422B",
"4  c #4A433E",
"5  c #57473D",
"6  c #684528",
"7  c #664A39",
"8  c #79473A",
"9  c #69513A",
"0  c #785536",
"q  c #394344",
"w  c #494A49",
"e  c #534B43",
"r  c #5B504C",
"t  c #4E4F51",
"y  c #4F5052",
"u  c #535456",
"i  c #5F5755",
"p  c #565659",
"a  c #58575C",
"s  c #57585A",
"d  c #5A5B5D",
"f  c #615547",
"g  c #7D5343",
"h  c #5F634A",
"j  c #686757",
"k  c #766A59",
"l  c #5D5E61",
"z  c #605F64",
"x  c #5F6062",
"c  c #626365",
"v  c #666669",
"b  c #67686A",
"n  c #6A6B6D",
"m  c #786C63",
"M  c #6A7062",
"N  c #7D7668",
"B  c #7C756D",
"V  c #6E6E71",
"C  c #746E74",
"Z  c #6F7072",
"A  c #727375",
"S  c #7A7672",
"D  c #777B76",
"F  c #767679",
"G  c #77787A",
"H  c #7A7B7D",
"J  c #815236",
"K  c #82624B",
"L  c #856C5B",
"P  c #87755C",
"I  c #8D7363",
"U  c #8C7963",
"Y  c #80766C",
"T  c #867A68",
"R  c #91796A",
"E  c #837B72",
"W  c #867C76",
"Q  c #7F8464",
"!  c #78837B",
"~  c #84816A",
"^  c #998A6D",
"/  c #89837A",
"(  c #9A8775",
")  c #948A7C",
"_  c #B98D6F",
"`  c #AD9379",
"'  c #B9967C",
"]  c #C4906F",
"[  c #C59274",
"{  c #C89878",
"}  c #D69C7B",
"|  c #D5A07E",
" . c #7E7E81",
".. c #807F84",
"X. c #8A7C84",
"o. c #7F8082",
"O. c #828385",
"+. c #838F83",
"@. c #858689",
"#. c #8A868C",
"$. c #87888A",
"%. c #8A8A8C",
"&. c #958F84",
"*. c #8D938C",
"=. c #999187",
"-. c #97918A",
";. c #9A9689",
":. c #8E8E91",
">. c #8F9092",
",. c #929395",
"<. c #969699",
"1. c #98979C",
"2. c #97989A",
"3. c #9A9A9C",
"4. c #A99787",
"5. c #B79A86",
"6. c #B19C94",
"7. c #BCA18C",
"8. c #ADA997",
"9. c #B6A898",
"0. c #B5B39E",
"q. c #9E9EA1",
"w. c #A09FA4",
"e. c #9FA0A2",
"r. c #A2A3A5",
"t. c #A6A6A9",
"y. c #A8A7AC",
"u. c #A7A8AA",
"i. c #AAABAD",
"p. c #B8ADA0",
"a. c #BBB2A4",
"s. c #BCB4AA",
"d. c #B9B8AB",
"f. c #BDB9AB",
"g. c #ADAEB1",
"h. c #B0AFB4",
"j. c #AFB0B2",
"k. c #B2B2B5",
"l. c #BCBDB4",
"z. c #B5B6B8",
"x. c #BAB9B9",
"c. c #C29B83",
"v. c #CB9D84",
"b. c #CB9F92",
"n. c #C9A38B",
"m. c #D2A588",
"M. c #C2A795",
"N. c #C2B5A5",
"B. c #C2B9A7",
"V. c #C2B6AB",
"C. c #C8B6A8",
"Z. c #C4BAAB",
"A. c #CABCAC",
"S. c #C3BDB2",
"D. c #C8BBB2",
"F. c #C6C1AF",
"G. c #C5C2B5",
"H. c #CCC2B4",
"J. c #CEC4BB",
"K. c #CDC9BC",
"L. c #D2C4B5",
"P. c #D9C6B6",
"I. c #D3C7B9",
"U. c #D5CBBC",
"Y. c #DACDBC",
"T. c #C7D7BA",
"R. c #D7D0BE",
"E. c #DBD1BE",
"W. c #F6C7A9",
"Q. c #FDCBAE",
"!. c #F1D0AE",
"~. c #E3CBBB",
"^. c #EBCBBC",
"/. c #F9CDB6",
"(. c #E9D4B8",
"). c #F4D2B7",
"_. c #FED5B5",
"`. c #FDD4BB",
"'. c #FFD9BD",
"]. c #CCCBC6",
"[. c #D7CBC2",
"{. c #D5CDC2",
"}. c #CCDAC2",
"|. c #D5D6C7",
" X c #DBD2C3",
".X c #DCD4CB",
"XX c #CCDED4",
"oX c #D0DFDA",
"OX c #E9CEC8",
"+X c #E5D5C7",
"@X c #F9D9C4",
"#X c #E1DAD1",
"$X c #CFE2C7",
"%X c #D7E6CA",
"&X c #CEE2D6",
"*X c #D6E6D1",
"=X c #EDE5D7",
"-X c #F5E7D7",
";X c #F5EBDB",
":X c #FAEDDC",
">X c #FCF1DE",
",X c #EFECE8",
"<X c #F6EEE5",
"1X c #FDEEE3",
"2X c #EAF1E1",
"3X c #FDF3E3",
"4X c #FFFAE7",
"5X c #FDF5EA",
"6X c #F6F9E8",
"7X c #FFFAEB",
"8X c #FBFAF5",
/* pixels */
"u d d u d u d i.i.g. . . .u d l d d d d u d u p  .O.O.p p l d d s p d ,.z.k.A s p d u c O.O.O.O.O.F p d d d d s d v t.g.g. ...O.",
"d c d d x p p t.u.j.H  . .u d d p p d d u d d d O.o.$.d d d p p p p u %.g.k.n u d d s d O.O.@.O.O.A p p d p u d p l t.i.i.O.@.@.",
"u A @.O.c d d 3.2.,.O.O.O.u d d p d Z o.H c u u G A H u u c H A G H A :.q.q.n p d d d d @. .O.H F Z p d b A Z l s d ,.q.,.O.O. .",
"u ,.g.z.V s u O.H H O.O.O.u p x p u %.k.z.V p d u u u d p Z z.k.g.i.j.<.H O.c s p l s d O.@.G u u d p d %.z.i.V s p s u l O.O. .",
"u %.g.j.n u p $.O.O.O.O. .d d d u p ,.g.i.n y s d l d d u n g.g.i.i.i.<.o.O.c d d l d l O.%.H u d d u u :.k.g.n d d d p c @.#.H ",
"u O.,.>.c d d O.O.O.n b n p u A :.$.:.>.2.H A A d d d d s c @. .@.,.,.%.o.@.c d s s p d n V n d u n $.O.,.,.<.n d p d u d A A n ",
"u A O.O.v s s O.O.o.s u d d p o.k.g.<.H O. .O.$.c d p d d s p u v O.o.O.O.@.c d s d d p d u p d s O.k.i.2.o. .c p p d d d d a d ",
"d A @.o.c u s O.O.O.d d d d p  .j.i.<.O.O.@.@.$.l d d s p d l d n $.O.@. . .v d u d y d u d d p u O.z.k.3.O.O.c d d d d p u u l ",
"d c c c l d u c x v u d l d p c Z n H O.O.n l b d d d l d l p d d b c  .@.O.b u d :.2.,.d d x d l b G A Z b n l d d l d v ,.:.#.",
"d d p p d d d d d p s d l u p l u u A x.$.x p d s p d d u l p d u d p A O.O.c p d i.u.i.p p d d u d u p p p s s s d d p n h.g.w.",
"u x d d c d c u u u c d d d p c d s A / E m S B E -.-.-.-.-.-.-.-.S O.A @.$.n u d t.g.u.p d p x d p u u p p p d s d d p v g.k.1.",
"d c s u 3.i.i.c d d i.u.3.s d d d d d s l S / B B -.-.-.-.-.-.-.-.S H x c d d d d @.@.%.u l n q.3.t.q.r.,.H o.c d d d s c :.,.%.",
"d p s u q.u.g.c p u z.t.u.t s d u p d d d   o {.{.{. XU.{.{.U. X{.5X<X. @     u d H o. .s d n k.i.i.t.k.2.H @.c s d d s l O.O.O.",
"d n n n ,.g.i.d s d i.i.2.d d c l x l p u o   =XG.U. XU.{.[.U. XU.;X:X@ . % . d c F O. .d d V j.u.j.i.i.<.o.@.c u s d p l O.@.@.",
"u %.j.i.>.H @.d d d  . .@.@.O.O.O.O.V .   ,X7X  $ U.U.Z.Z.Z.A.U.U. XI.5X=X[.].  . :.o.@.p d d $.O.o.O.O.O.O.o.c u d d d d d d l ",
"u :.i.u.>.H $.d u l $.@.O.o.@.@.O.@.A   o 5X<X.   R.U.Z.Z.V.A.U.[.I.U.1X5X+X.X.   @.i.O.u d c %.@.@.O.o.O.@.@.c u x p d d d p d ",
"F %.r.r.:.O.@.l d l F G H @.o.@.O.. . <X5X=X3X X XZ.A.Z.A.A.Z.A.B. XU.4X-X1X5XJ..X  + O.u p c O.F O.$.O.@.H  .b s y v l d d d d ",
"g.<.H O.o.@.@.d d p u p c O.O.O.O.    5X5X3X3XL.U.N.Z.a.B.Z.N.A.N.U.E.>X3X3X;X#X{.+   O.d d p d p b O.H Z u s p d c i.g.i.d c d ",
"i.r.o.@.o.O. .d p d u p c O.O.@.@./ m 3X7X=X7X3X:XY.U.A.Z.A.A.Y.Y.3X;X:X4X-X7X[.[.    @.p p d u s n $.@.V u d u p s q.i.i.u u d ",
"%.H O.@.A A F v d l d d c A A G F Y N 4X-X3X:X:X3XY.U.Z.Z.A.A.P.Y.>X;X4X-X3X1XU. X  . A d p x d d b H  .V d p V A F 3.q.3.A Z F ",
"u A O.@.c p u d p d p d d p p H S {. XU.U.3X:X:X3XZ.A.:X3X-X>X:X3X3X>X3X3XP.P.+X XZ.S.    d d s d d u u p d d <.k.i.@.H $.g.h.t.",
"d V O.$.c s p l d d u s p d p H W J.U.U.U.:X:X3X3XN.A.-X3X:X3X>X>X7X=X:X:XP.+XP.L.A.s.  . d d d p d d d d u s <.i.j.@.O.O.g.g.r.",
"d c v n d p c d d d d d c ,.:.A S H.H.E.U.+XL.A.a.3X:X4X4X:X3X:X>X:X3X+XY.~.P.L R H.p..   s d x s d d d d d d $.3.3.@.O.@.3.<.,.",
"u d p p d d d u d p d p n z.i.A / s.N.U.E.U.U.H.Z.5X3X3X:X-X:X:X3X;X3XL.L.~.~.I R a.Z.    d s d d l u d d d p F O.o.O. .$.O.O...",
"d d d s l d u c d d p u b t.i.+   H.N.A.Z.a.A.V.A.J.U.U. X+X XE.U.Z.S.A.L.I I 5.4.$ . =.-.d p d d x p d p s d G  .O.$. .@.O.@. .",
"d d s d d d u 2.3.3.H H H A n +   Z.a.Z.Z.Z.U.V.D. X.XJ.U. XU.U.I.a.H.V.N.R L 7.M.. $ ) ;.d c ,.:.o.u d F %.%.O.O.O.O.O.O.n n n ",
"d d d d x d u u.i.i.o.O. .t u     Z.Z.Z.Z.a.a.Y B V.s.=.;.a.B.F.Z.S.S.Y T OX~.7.5.. @ ) &.s n z.k.<.t p %.z.k.:.O.o.O. .@.a d d ",
"u c c c c l c r.i.u.@.O.O.d d     Z.Z.Z.Z.A.Z.Y Y S.s.&.;.f.S.S.s.S.S.W L @X@X5.7.@ . ;.;.u n g.i.3.u d $.j.i.>.O.O.%.@.O.a d p ",
"u O.u.t.i.i.e.$.O.$.H O.@.H  .  . V.A.C.A.B.H.k E f.K.p.S.&.) G.l.C X.OXOX@X!.!.(..   *.*.t.2.$.%.H p s x n b G @.O.c d c l l l ",
"u $.g.u.r.t.g.$.o.@.H O.O. .O.* o.Z.A.A.A.N.p.N N Z.d.S.K.;.6.S.l.#.X.OX^.`._.!.!.$   s i.i.i. .o.H u u d d p A O.O.c d p d l l ",
"d H u.r.r.i.u. . .O.H o.O.@.O.%. .E k A.Z.f.H.Z.Z.T N Z.Z./ ) ) =.,X,Xf 9 _.W.'.).7 5 c i.g.r.o.O.G d d c p d F %.@.l p l p p u ",
"d d u s s u p d p u d d c @.O.F u B / G.a.G.8.B.f.N T B.N.4.6.( 4.8X8X5 3 '._.Q./.g 7 u d u c $.O.@.O.@.A u d d d d l d a z c A ",
"a d s u d d p d p d u d d @.O.G u o   l.d.d.K.F.F.T P U U ` 7.^ ( 6X2Xo # !._.Q./.g 7 d p d d @. .O.@.O.A u d s d u d u d a u n ",
"a V H H v d d d d l p d c  . .F l l x l.l.d.G.8.B.T U P P 5.c._ ` 4X7X. # W.Q.Q.`.2 g d d d l %.O.$.H H A d d d b c v c c v z A ",
"u :.z.k.A u d p u p d s d u p l d d l     l.d.K.A.P I ' ' v.{ { { ~.(.(.!._.`.W./.b.6.p d p d %.O.H u s d p u 2.g.k.g.j.k.h.z.t.",
"u  .u.j.A u s d l d d u d d l a s u a p u k.d.S.a.R L n.n.[ { } { '.(.).`.W.Q.'.`.5.u p d d d @.@. .u d d d s 2.g.k.i.i.u.g.y.t.",
"@.,.3.q.Z p p O.O.O.d d l d u b $.O.O. .O.o   . . 7.5.5.v._ ] } { c.c./.'.' c.9 7 A G G u d d A G V p d d p p @.,.<.r.t.r.q.r.r.",
"g.<. .O.b p u i.j.z.p d d d p H g.g.k.g.z.F u d d 6.M.5.n.m.] | [ v.' @X/.n.5.9 s r.k.g.d d p d p d d p l d d u u u H  . .O.H  .",
"k.<.O.@.n u u i.u.k.p d d d p H g.g.i.t.k.b a a d @ @ I K 6 0 6 J 8 g = # @ @ p u r.i.k.s u l l p l d s d u p s d p O.@.@.@.O.@.",
",.H c v c d u %.,.,.u s d d a v  .H %.<.<.:.:.>.l @ . ( U 9 6 0 6 8 8 = @ @.@.@.@.<.,.,.d d d s s d s p A @.@.c d u A V V @...@.",
"O.V u s d p u O.o. .d d d p p d d u V @. .q.i.x.c     j f k k P ^ I R 5 e j.k.k.k.@. .O.s p d d d l d u $.k.g.F s p d p u O.O.@.",
"@.A s d c d s  .@.O.d p d l d l u a V o.H q.j.g.v X   M j h h Q ~ ~ ;.e w t.].t.i.@.@.O.l p l d p d p u @.i.g.A u d p d d #.@.O.",
"@.A s u A  .H @.O.@.u s b 3.3.%.d d v v v  .:.    oXXXX X *X$X%X$X    ! ! q w ,.,.O.O.o.G G A d d c d d H ,.,. .A A l d d n n V ",
"O.A s p H @.o.@.o.@.d d l z.g.3.u p c a u A @.X X XX&XX X *X%XT.$XX X +.D w > O. .@.O.O.O.@.O.p s d d u V O. .O.@.O.c p d a p z ",
"O.A p d F o.o.O.O.O.d u c g.t.<.u s d d s F O.X   &X*XX X *XT.%X}.%X|.o   4 > O.O.@.O.@. .O.o.d p l d u A @.@.O.$.o.c u d a d z ",
"d d d p c l d l d l p d l %.$.O.u d l d s G O.    *X}.& X T.%XT.%X#X Xo   < w O.O.O.O.O.v x v s d d d d l c l l l c l s d l d l ",
"d d d p d p d x d d l p l o. .O.d p d s u G O.X X |.*X|.|.o   p.8.8.0.  $ r i O.O.O.o.O.d u d d d c u d d d d u d p d p l l d d ",
"u d d d l p p d d y A n A O.@.H b n c d u F H   + .X|.#X.X. . 9.0.9.a.    O.O.O. .$.O.O.d d d s u d l c d u p d d t c s d d d z ",
"d d p d d p d d d d i.i.t.O. .,.i.k.@.u s d p     w 4 4 1 k m @ @ .   4 e u l p p H O.@.p d p d s F u.i.$.s d d p d e.u.t.i.t.t.",
"u d d p d s d d d u i.i.u. . .,.i.i.@.p d p d * @.4 < r 1 L k @ @ . $ ; : p c s u O.O.@.u d p d u A z.u.%.u p d p p r.i.i.g.i.t.",
"d n  .O.v s p H H F q.r.3.O.O.$.3.q.H d p l p d F . . % % , , , , ; ; + O c d s d F o.o.d u d n v H i.i.O.d d d p d 2.i.u.y.t.r.",
"d O.j.k.H u p r.g.g.O.H  .O.O.G u u x d s d p d d u p - - : < : : ; > q.O.O.V d u d p p d d c z.g.r. . .@.O.O.v d u  .O.o.O. .@.",
"t %.i.j.F d p r.i.i. .@.@.O.@.H u p l u d d s p d p l   O     .   O   3.H @.v p d l d s p p c k.i.t.H %.@.O.%.v u u H H O.@.O.O.",
"%.$.,.q.Z d u ,.2.,.@.O.O.O.@.G d d V @.$.b d d l d d d d l p O n t.* <. .$.n d d d d d F H H 3.r.q.H @.H G H b d d O.O.$.H H H ",
"k.3.H @.n u u O. . .O.H @.$.O.H u u O.z.z.F p d l s d d s d d p l O.O.O.O.O.b d p d d d i.k.u.O.H O.o.@.n u u d p p H O.@.d u d ",
"u.,.O.O.Z d d H O.O.O.O.@.H @. .u s O.g.g.G d p d p d d d d d d v O.@.O.O.O.n p p l s d i.i.k.H @.@.@.@.A u d u d p H O.O.d d d ",
",.O.v c v p d b b n @.O.@.@.O. .u d G <.,.o.A A %.:.,.d d c u d l V n H @.O.n d d d d d $.O.$.n A F $.@.A d d b A V O.O.$.d d d ",
"O.n u u d d d d u u @.O.O.@.O.H p u V O.O.@.O.@.t.g.j.d d d d s u d u n @.@.n u p d p d d p d p u c O.@.A u p G $.O.@.O.@.d d s ",
"O.A d d d d d d c p O.O.O.O.O.F p p A O.o.@. .O.r.g.i.l d d d d d d p V @.O.n d d l d d u p d d u b O.@.A u p A O.@.@.O.$.d d u ",
"O.H H H b d d d u d O.O.O.c c c d p l l d G O.O.%.%.%.2.3.2.u p d d s c v c c d p d d d ,.<.,.p d l v v c p d c v b b v b d u c ",
"@.@.@.$.n d d d d d O.O.O.u u d d p x d u F O.O.@.O.O.g.i.u.y d l p u d d d d d p l d d i.i.i.p d l d p d p d d p d d d d d u b ",
"O./ G O.b d d d d d  .O. .p s d l p c c l G O.O.O.o. .i.i.t.d d x p d l p d l d u c d d t.i.i.u p d d p l d d d u d d d p d u b ",
"$.G d d d d d d u d d l d d p d p p H r.r.%. .O.$.O.o.%.@.$.r.q.<.y d d s d d d u <.r.r.@.$.$.p p d d d d d d d d d d d d 3.2.r.",
"O.n u a d d d d d d d d d d u l u u @.z.g.,. .H O.O. .o.H %.g.k.e.u p l p d c d t q.g.i.@. .@.p d d p d d d d d p d d d d i.i.i."
};
