/* XPM */
static char *_9acfb4d186346eeb76e24f698371fb7[] = {
/* columns rows colors chars-per-pixel */
"64 64 210 2 ",
"   c #030201",
".  c #0B0100",
"X  c #020A02",
"o  c #0D0A01",
"O  c #04070A",
"+  c #040A0B",
"@  c #130101",
"#  c #150902",
"$  c #110C0B",
"%  c #141207",
"&  c #121A15",
"*  c #1B1B14",
"=  c #181817",
"-  c #250300",
";  c #221E13",
":  c #19201F",
">  c #2D271B",
",  c #1A2322",
"<  c #292D2D",
"1  c #35312E",
"2  c #2D3232",
"3  c #333333",
"4  c #393232",
"5  c #383B3A",
"6  c #493938",
"7  c #45433A",
"8  c #5D4C3B",
"9  c #684B36",
"0  c #704E32",
"q  c #744B38",
"w  c #775135",
"e  c #394247",
"r  c #4C4B49",
"t  c #584848",
"y  c #555249",
"u  c #4E4F51",
"i  c #4F5052",
"p  c #535456",
"a  c #565659",
"s  c #58575C",
"d  c #57585A",
"f  c #5A5B5D",
"g  c #664B45",
"h  c #6D544A",
"j  c #745A5D",
"k  c #5F6457",
"l  c #656259",
"z  c #75665A",
"x  c #5D5E61",
"c  c #605F64",
"v  c #785D62",
"b  c #5F6062",
"n  c #626365",
"m  c #616861",
"M  c #666669",
"N  c #67686A",
"B  c #6A6B6D",
"V  c #786966",
"C  c #6D716F",
"Z  c #7D7466",
"A  c #767369",
"S  c #6E6E71",
"D  c #6F7072",
"F  c #737375",
"G  c #7A7672",
"H  c #7D7C77",
"J  c #767679",
"K  c #77787A",
"L  c #7A7B7D",
"P  c #8F6F57",
"I  c #856D5A",
"U  c #8E735B",
"Y  c #81666D",
"T  c #877867",
"R  c #83766A",
"E  c #8A7A6C",
"W  c #957D6A",
"Q  c #837C73",
"!  c #8A7E72",
"~  c #827E7B",
"^  c #77837A",
"/  c #8C8173",
"(  c #87857A",
")  c #918474",
"_  c #B88B6F",
"`  c #AB8C78",
"'  c #BA957A",
"]  c #CC966E",
"[  c #C79777",
"{  c #D39D76",
"}  c #7D7E81",
"|  c #807F84",
" . c #7F8082",
".. c #7E898B",
"X. c #828385",
"o. c #838B80",
"O. c #858689",
"+. c #88878C",
"@. c #87888A",
"#. c #8A8A8C",
"$. c #958C83",
"%. c #978D8A",
"&. c #979186",
"*. c #999487",
"=. c #9A938A",
"-. c #8E8E91",
";. c #958C92",
":. c #8F9092",
">. c #939395",
",. c #9B9497",
"<. c #969699",
"1. c #97989A",
"2. c #9A9A9D",
"3. c #A39587",
"4. c #B79987",
"5. c #A59C98",
"6. c #BBA28E",
"7. c #BAA799",
"8. c #BDB19E",
"9. c #9D9EA1",
"0. c #A09FA4",
"q. c #9FA0A2",
"w. c #A2A3A5",
"e. c #A6A6A9",
"r. c #A7A8AA",
"t. c #AAA9AA",
"y. c #AAABAD",
"u. c #B9AFA4",
"i. c #B3B3A4",
"p. c #BCB3A5",
"a. c #BDB4AA",
"s. c #BDB9AB",
"d. c #ADAEB1",
"f. c #B0AFB4",
"g. c #AFB0B2",
"h. c #B2B3B5",
"j. c #B5B6B9",
"k. c #BABBBB",
"l. c #C59C87",
"z. c #C09E92",
"x. c #C5A288",
"c. c #D3A282",
"v. c #C5A998",
"b. c #D1A795",
"n. c #C0AFA7",
"m. c #C2B4A5",
"M. c #C4B9A7",
"N. c #C2B6AA",
"B. c #C9B7AB",
"V. c #C4BAAB",
"C. c #C9BBAC",
"Z. c #C3B7B1",
"A. c #C4BCB2",
"S. c #CABEB2",
"D. c #BEC0B3",
"F. c #C6C1AE",
"G. c #CCC1AE",
"H. c #CCC2B4",
"J. c #C8C3B8",
"K. c #D2C4B5",
"L. c #D3CBB7",
"P. c #D2C6BA",
"I. c #D5CABB",
"U. c #D5CBBE",
"Y. c #DACCBC",
"T. c #C5D4BA",
"R. c #DCD2BF",
"E. c #ECC7A8",
"W. c #ECC9AC",
"Q. c #F7C8AD",
"!. c #F4D0AE",
"~. c #EACCB8",
"^. c #F7CBB2",
"/. c #EAD4BD",
"(. c #F3D3B3",
"). c #FCD2B5",
"_. c #F5D3BA",
"`. c #FAD5BA",
"'. c #F0D8BE",
"]. c #FEDABC",
"[. c #CAC5C2",
"{. c #D5CDC3",
"}. c #DBCDC1",
"|. c #CBD9C7",
" X c #D7D7C7",
".X c #DCD1C4",
"XX c #DCD8D3",
"oX c #E2D4C5",
"OX c #E6D5C8",
"+X c #E4DACB",
"@X c #F7D9C4",
"#X c #D4E3CA",
"$X c #DCE3D3",
"%X c #D9E8D4",
"&X c #DEF1D5",
"*X c #E6E0D4",
"=X c #EDE4D5",
"-X c #F3E5D4",
";X c #F4E6D7",
":X c #F5EBDD",
">X c #FBEDDD",
",X c #FEF1DE",
"<X c #ECE8E2",
"1X c #F5EFE3",
"2X c #FEEEE2",
"3X c #FEF3E3",
"4X c #FBF7E6",
"5X c #FCF5EA",
"6X c #FFFBEB",
"7X c #FAFDF9",
/* pixels */
"p f f p f p f y.y.d.} } } p f x f f f f p f p a } X.X.a a x f f d a f >.j.h.F d a f p n X.X.X.X.X.J a f f f f d f M e.d.d.} | X.",
"f n f f b a a e.r.g.L } } p f f a a f f p f f f X. .@.f f f a a a a p #.d.h.B p f f d f X.X.O.X.X.F a a f a p f a x e.y.y.X.O.O.",
"p F O.X.n f f 2.1.>.X.X.X.p f f a f D  .L n p p K F L p p n L F K L F -.9.9.B a f f f f O.} X.L J D a f N F D x d f >.9.>.X.X.} ",
"p >.d.j.S d p X.L L X.X.X.p a b a p #.h.j.S a f p p p f a D j.h.d.y.g.<.L X.n d a x d f X.O.K p p f a f #.j.y.S d a d p x X.X.} ",
"p #.d.g.B p a @.X.X.X.X.} f f f p a >.d.y.B i d f x f f p B d.d.y.y.y.<. .X.n f f x f x X.#.L p f f p p -.h.d.B f f f a n O.+.L ",
"p X.>.:.n f f X.X.X.B N B a p F -.@.-.:.1.L F F f f f f d n O.} O.>.>.#. .O.n f d d a f B S B f p B @.X.>.>.<.B f a f p f F F N ",
"p F X.X.M d d X.X. .d p f f a  .h.d.<.L X.} X.@.n f a f f d a p M X. .X.X.O.n f d f f a f p a f d X.h.y.1. .} n a a x f f f s f ",
"f F O. .n p d X.X.X.f f f f a } g.y.<.X.X.O.O.@.x f f d a f x f B @.X.O.} } M f p f i f p f f a p X.j.h.2.X.X.n f f x f a p p x ",
"f n n n x f p n b M p f x f a n D B L X.X.B x N f f f x f x a f f N n } O.X.F X.F G H A &.&.=.=.=.=.&.$.Q C B x f f x f M >.-.+.",
"f f a a f f f f f a d f x p a x p p F O.@.b a f d a f f p x a f p f a F X.X.J D H H A Q =.&.$.$.$.$.&.=.Q G d d a f f a B f.d.0.",
"p b f f n f n p p p n f f f a n f d F X.O.n a f x f f f f x p f f f f F O.@.B p      X{.{..X.X.X.X.X}.{.5X<X        f a M d.h.1.",
"f n d p 2.y.y.n f f y.r.2.d f f f f f d x f f d f a b e.w.w.w.w.O.f p x n f f f     P..XU.U.U.U.U.U.U.U.5X4Xo     o f d n -.>.#.",
"f a d p 9.r.d.n a p j.e.r.u d f p a f f f a d p f f d h.e.d.r.y.:.p f n a f o   1X6X  o .XL.S.N.N.S.U..XU.P.5X5X.XJ.o   x X.X.X.",
"f B B B >.d.y.f d f y.y.1.f f n x b x a p f x a N f N e.y.y.d.y.>.p a f d p     5X*X%   R.L.C.M.m.S.P.Y.+XI.:X:X.X{.$   x X.O.O.",
"p #.g.y.:.L O.f f f } } O.O.X.X.X.X.S f f f p f e.d.r.X.X.}  .} L p f f     5X5X1X7XH.+XV.V.M.M.M.M.M.M.G.R.4X3X:X4XV.XX  = f x ",
"p -.y.r.:.L @.f p x @.O.X. .O.O.X.O.F p a f f p e.y.e.X.} X.}  .K a f x o . 5X:X6X=X.XL.V.V.M.M.M.M.M.C.Y./.>X;X6X3X.X{.    a f ",
"J #.w.w.-.X.O.x f x J K L O. .O.X.X.D a f M B N 9.y.e.O.X.@.L X.F a p n Q A 7X5X:X6X=X3XY.L.M.C.M.C.oXY.,X;X4X3X>X4XP..X    f f ",
"d.<.L X. .O.O.f f a p a n X.X.X.X.X.F a a <.h.g.@.L X.} X.L p p a a f -.Q ! ;X:X:X,X3X6XR.Y.G.M.8.m.I.Y.>X3X-X;X6X4XP.U.  o n f ",
"y.w. .O. .X.} f a f p a n X.X.O.O.X.S a i 9.y.j. .} X.O.O.X.p p f d X.G {.P.+X+X>X;X3X=X8.G.;X4X4X4X3X,X,X4X,X3X}.I.oX.Xa.A.$   ",
"#.L X.O.F F J M f x f f n F F K J F B f p :.2.2.X.X.X.X.X.X.a x x f F C .X{.P.}.3X4X6X3XC.G.:X3X3X4X>X3X>X,X>X3XI.K.Y.P.S.a.    ",
"p F X.O.n a p f a f a f f a a f p a f f p J X.} X.X.X.O.} X.a f f a K ~ N.S.}.P.}.K.m.m.>X;X4X>X;X2X:X3X2X3XI.K.-X}.! R B.A.o $ ",
"f S X.@.n d a x f f p d a f a x p a x d p J X.X. .} X.@.O.O.p a x a F ~ Z.B.oX}..X.Xm.G.>X;X4X4X3X5X3X2X3X>XoXI.I.C.! R N.Z.    ",
"f n M B f a n f f f f f n >.-.X.d f K #.-.X.X.X.O.X.O.B B S f a x f O   S.n.C.N.C.K.m.m..XY.I.I.P.P..XU.N.p.S.C.E E 5.5.# . $.5.",
"p f a a f f f p f a f a B j.y.1.p p #.h.h.#.X. .O.X.O.a a f f f a a   o Z.B.S.S.m.V.M.M.Y..XI.oX.XI.OXP.V.P.m.B.T I 6.6.. . =.;.",
"f f f d x f p n f f a p N e.y.<.p p -.y.r.-.O.O.X.} X.f f f f f a f O   A.a.P.p.V.N.Z E V.p.*.&.p.F.p.V.F.p.) P (.`.[ l..   ;.;.",
"f f d f f f p 1.2.2.L L L F B S a p M B F L X. .M n B d d f a f B >.    Z.V.H.V.H.H.R R V.p.&.3.s.V.F.s.i.F.T P (.E.[ b..   ,.<.",
"f f f f b f p r.y.y. .X.} u p f a f x f p K X.@.x p d f f n p f J h.  $ H.C.m.u.N.p.Z Z V.P.p.i.&.( s.D.o.A OX@XE.].`.W.@   ;.>.",
"p n n n n x n w.y.r.O.X.X.f f x a f x d p L O.@.f f x f f f a p F d.$   a.N.S.H.H.V./ R p.s.A.A.=.=.J.k.C H +XOX(.`.W.@X@ . %.q.",
"p X.r.e.y.y.q.@.X.@.L X.O.L } O.X. .S d d f f n f x p r.9.w.p f B #.#.O.! / 8.p.N.H.p.V.! / a.a.$.$.&.&.7X7Xy 8 @X_._._.g h x x ",
"p @.d.r.w.e.d.@. .O.L X.X.} X.O. .X.F d f p p a f f f d.d.e.a a M X.} O.Z V P.A.a.V.A.P.Z ! V.p.3.3.) =.7X7Xr 8 @X^.`.~.9 h f x ",
"f L r.w.w.y.r.} } X.L  .X.O.X.#.} } D a x b n p n n B y.r.g.u a M O.X.#.  o a.A.A.V.V.p.R Z T W 4.v.` 3.5X<Xo . ^.].E.`.q q a p ",
"f f p d d p a f a p f f n O.X.J p a x a f p p f e.y.d. . .X.p f f f p F     J.A.s.a.S.V.R W I U ' ' _ ` 6X6X. # ^.Q.].(.q q c F ",
"s f d p f f a f a f p f f O.X.K p a x a s x a d w.g.d.X.X.@.u d f f p F O.X.    J.u.H.C.W I l.l.[ [ { [ _.~.'.W.).).!.(.l.4.p B ",
"s S L L M f f f f x a f n } } J x x n x x x a a 2.w.w.O.X.X.x n x f f F } L O o t.J.a.8.I W 4.c.{ ] ] ] Q._.`.).Q.).E.`.l.z.c F ",
"p -.j.h.F p f a p a f d f p a x f f x s a s x i } } X.X.O.X.O.O.J f f f p p d p     # # 4.6.' [ { { { { c._ ].)._ l.0 9 *X2Xj.e.",
"p } r.g.F p d f x f f p f f x s d p s d p p s a O.#.X.#.O.} @.X.F p x x f x f f       . 7.6.x.x.[ [ ] ] _ l.E.W.b.l.9 9 r.d.r.e.",
"O.>.2.9.D a a X.X.X.f f x f p N +.X.X.} X.M x f S F D X. . .K K B f f f d f d a p F K K   @ z U 0 w 0 w w w - - @ @ ;Xe.[.9.0.w.",
"d.<.} X.N a p y.g.j.a f f f a L d.d.h.d.j.J p f f a d O.X.X.u a p f f f f a n d d w.g.g.    ! E 8 9 9 9 9 9 @ @ . o L } } X.L } ",
"h.<.X.O.B p p y.r.h.a f f f a L d.d.y.e.h.N s s f a f O.X.X.a d x f a f p a x a p w.y.h.    l l l z / ) E 3.t t f a X.O.O.O.X.O.",
">.L n M n f p #.>.>.p d f f s M } K +.<.<.-.-.:.x f a D N B a p f p a F #.O.O.@.O.1.>.>.  + m k A k ^ ( ( Q y a f p F D S O.| O.",
"X.S p d f a p X. .} f f f a a f f p S O.} 9.y.k.n f a f p f f d x p a X.h.g.h.h.h.O.X X |.#X  X |.T.&X|.X X ....e e f a p X.X.O.",
"O.F d f n f d } O.X.f a f x f x p s S  .L 9.g.d.M a x a f n f p f d a  .y.e.y.e.y.O.    &X|.X   #X%XT.|.X   ^ ^ 2 r a f f +.O.X.",
"O.F d p F } L O.X.O.p d N 2.2.#.f f M M M } -.#.2.2.1.f a f f f S 1.1.<.-.-.>.>.>.X.  X |.$X    #XT.&X%X X$XX   r 3 x f f B B S ",
"X.F d a L O. .O. .O.f f x j.d.2.p a n s p F O.} r.y.h.f a f a a F h.y.1.L @.L X.} O.    $X{.o    XT.#X|. XL.. o > 7 n a f s a c ",
"X.F a f J  . .X.X.X.f p n d.e.<.p d f f a J X.X.w.d.y.f f f f p K h.r.2.} X.X.X.O   XXXXo   .     o %X X/.@X/./.# . 6 4 f s f c ",
"f f f a n x f x f x a f x #.@.X.p f x f a K X. .O.X.#.w.r.q.a a f M n K  .O.X.X.    <XXX. . . .     |. X~.@X/.@X@ . 4 7 f x f x ",
"f f f a f a f b f f x a x  .} X.f a f d p K X.O.O.X.X.h.r.y.u f a f a B O.X.O         . t 6 V V V l %   v.x.~./.. . ; =   & f f ",
"p f f f x a a f f i F B F X.O.L N B n f p J L L X. . .e.e.r.p f f f a N O.X.      $ . @ 6 g j z V A   . 7.v.@X~.@   = = X   f c ",
"f f a f f a f f f f y.y.e.X.} >.y.h.O.p d f a a X.X.X.X. .X.i f p f f n     2 5 & = r 6 V v @ @ .       @ @ . . = = & & X   e.e.",
"p f f a f d f f f p y.y.r.} } >.y.y.O.a f a f a O. .X.O.X.O.p f p x a n   = = < = = 6 t V Y @ . @   $   . .   $ & : , :   & y.e.",
"f B } X.M d a L L J 9.w.2.X.X.@.2.9.L f a x a f J } } L L J x a x F D N     e 3 5 3 4 1 . @ x B M L y.y.X.f f f         y.r.e.w.",
"f X.g.h.L p a w.d.d.X.L } X.X.K p p b f d f a f f p a p p f d d F g.h.9.    2 < 3 2 3 4 . . n j.d.w.} } O.X.X.M O + + O } X.} O.",
"u #.y.g.J f a w.y.y.} O.O.X.O.L p a x p f f d a f a x f f f f a S h.y.2.L O.            a a n h.y.e.L #.O.X.#.M p p L L X.O.X.X.",
"#.@.>.9.D f p >.1.>.O.X.X.X.O.K f f S O.@.N f f x f f f f x a f B e.2.<.} @.      + O   J L L 2.w.9.L O.L K L N f f X.X.@.L L L ",
"h.2.L O.B p p X.} } X.L O.@.X.L p p X.j.j.J a f x d f f d f f a x X.X.X.X.X.N f a f f f y.h.r.X.L X. .O.B p p f a a L X.O.f p f ",
"r.>.X.X.D f f L X.X.X.X.O.L O.} p d X.d.d.K f a f a f f f f f f M X.O.X.X.X.B a a x d f y.y.h.L O.O.O.O.F p f p f a L X.X.f f f ",
">.X.M n M a f N N B O.X.O.O.X.} p f K <.>. .F F #.-.>.f f n p f x S B L O.X.B f f f f f @.X.@.B F J @.O.F f f N F S X.X.@.f f f ",
"X.B p p f f f f p p O.X.X.O.X.L a p S X.X.O.X.O.e.d.g.f f f f d p f p B O.O.B p a f a f f a f a p n X.O.F p a K @.X.O.X.O.f f d ",
"X.F f f f f f f n a X.X.X.X.X.J a a F X. .O.} X.w.d.y.x f f f f f f a S O.X.B f f x f f p a f f p N X.O.F p a F X.O.O.X.@.f f p ",
"X.L L L N f f f p f X.X.X.n n n f a x x f K X.X.#.#.#.1.2.1.p a f f d n M n n f a f f f >.<.>.a f x M M n a f n M N N M N f p n ",
"O.O.O.@.B f f f f f X.X.X.p p f f a b f p J X.X.O.X.X.d.y.r.i f x a p f f f f f a x f f y.y.y.a f x f a f a f f a f f f f f p N ",
"X.( K X.N f f f f f } X.} a d f x a n n x K X.X.X. .} y.y.e.f f b a f x a f x f p n f f e.y.y.p a f f a x f f f p f f f a f p N ",
"@.K f f f f f f p f f x f f a f a a L w.w.#.} X.@.X. .#.O.@.w.9.<.i f f d f f f p <.w.w.O.@.@.a a f f f f f f f f f f f f 2.1.w.",
"X.B p s f f f f f f f f f f p x p p O.j.d.>.} L X.X.}  .L #.d.h.q.p a x a f n f u 9.d.y.O.} O.a f f a f f f f f a f f f f y.y.y."
};
