/* XPM */
static char *_58353af507b4651a5bc9539fd575723[] = {
/* columns rows colors chars-per-pixel */
"64 64 202 2 ",
"   c #020201",
".  c #0B0200",
"X  c #040A03",
"o  c #0B0A02",
"O  c #08090B",
"+  c #130300",
"@  c #1B0301",
"#  c #110B06",
"$  c #0A1200",
"%  c #151007",
"&  c #161618",
"*  c #1E1F24",
"=  c #292B2A",
"-  c #36292A",
";  c #38302E",
":  c #393735",
">  c #453936",
",  c #433C3A",
"<  c #513E33",
"1  c #444138",
"2  c #5B4B3B",
"3  c #734C2B",
"4  c #644C34",
"5  c #6B4D39",
"6  c #724E38",
"7  c #665036",
"8  c #765333",
"9  c #3B3C40",
"0  c #453D41",
"q  c #3F4745",
"w  c #484645",
"e  c #564847",
"r  c #5A5147",
"t  c #4E4F51",
"y  c #4F5052",
"u  c #535456",
"i  c #565659",
"p  c #58575C",
"a  c #57585A",
"s  c #5A5B5D",
"d  c #6B5345",
"f  c #735741",
"g  c #655855",
"h  c #5E6456",
"j  c #6A6556",
"k  c #64635C",
"l  c #766958",
"z  c #5D5E60",
"x  c #605F64",
"c  c #5F6062",
"v  c #626264",
"b  c #616860",
"n  c #666669",
"m  c #67686A",
"M  c #6A6B6D",
"N  c #786B65",
"B  c #6C716D",
"V  c #7D7466",
"C  c #767369",
"Z  c #6E6E71",
"A  c #716F72",
"S  c #6F7072",
"D  c #737375",
"F  c #7A7672",
"G  c #7E7C76",
"H  c #767679",
"J  c #77787A",
"K  c #7A7B7D",
"L  c #8E6F57",
"P  c #866D5A",
"I  c #8D735B",
"U  c #83766A",
"Y  c #837B6B",
"T  c #897868",
"R  c #947C6A",
"E  c #837C73",
"W  c #8A7E72",
"Q  c #827E7B",
"!  c #7E8174",
"~  c #8C8173",
"^  c #868479",
"/  c #938270",
"(  c #B38C6D",
")  c #AA8D78",
"_  c #B79378",
"`  c #BC987D",
"'  c #CC966E",
"]  c #C79875",
"[  c #D39D76",
"{  c #7E7E81",
"}  c #807F84",
"|  c #7F8082",
" . c #828385",
".. c #858689",
"X. c #87888A",
"o. c #8A8A8C",
"O. c #958C83",
"+. c #968E89",
"@. c #979186",
"#. c #9A938A",
"$. c #999488",
"%. c #8E8E91",
"&. c #8E9092",
"*. c #8E9699",
"=. c #929395",
"-. c #969699",
";. c #97989A",
":. c #9A9B9C",
">. c #A39587",
",. c #B69A87",
"<. c #A79C95",
"1. c #B09F95",
"2. c #BBA28E",
"3. c #ABAA9A",
"4. c #B9A798",
"5. c #BDB19E",
"6. c #9E9FA1",
"7. c #A09FA4",
"8. c #9FA0A2",
"9. c #A2A3A5",
"0. c #A6A6A9",
"q. c #A7A8AA",
"w. c #AAA8AA",
"e. c #AAABAD",
"r. c #B9AFA4",
"t. c #B4B3A4",
"y. c #BDB3A5",
"u. c #BDB4AA",
"i. c #BDB9AB",
"p. c #ADAEB1",
"a. c #B0AFB4",
"s. c #AFB0B2",
"d. c #B2B2B5",
"f. c #B5B6B9",
"g. c #BCBDB9",
"h. c #C29E87",
"j. c #C6A284",
"k. c #C7A994",
"l. c #C0AFA7",
"z. c #C2B4A5",
"x. c #C4B9A7",
"c. c #C2B6AA",
"v. c #C9B7AB",
"b. c #C4BAAB",
"n. c #C9BBAC",
"m. c #C3B7B1",
"M. c #C4BCB2",
"N. c #CABEB2",
"B. c #C7C0AE",
"V. c #CCC1AE",
"C. c #CCC2B4",
"Z. c #C8C3B8",
"A. c #D2C6B6",
"S. c #D2C6BA",
"D. c #D5CABB",
"F. c #D5CBBE",
"G. c #DACCBC",
"H. c #CAD5BC",
"J. c #DCD2BF",
"K. c #EAC8AC",
"L. c #F4C9AA",
"P. c #ECCBB2",
"I. c #F2CDB3",
"U. c #F8CEB5",
"Y. c #EAD1BA",
"T. c #F5D1B3",
"R. c #FDD3B4",
"E. c #F4D4BB",
"W. c #FCD5BB",
"Q. c #FEDBBC",
"!. c #BBC3C4",
"~. c #C8C8C7",
"^. c #D6CDC4",
"/. c #DBCDC1",
"(. c #CDDCC3",
"). c #DCD1C4",
"_. c #D5DBC5",
"`. c #D7D2C8",
"'. c #DBD3CB",
"]. c #D0D5D3",
"[. c #E1D5C5",
"{. c #E8D6C6",
"}. c #E4DACB",
"|. c #F7D9C4",
" X c #D5E2C5",
".X c #D8E6CB",
"XX c #DBE4CC",
"oX c #DBE6D5",
"OX c #ECE3D5",
"+X c #F3E5D4",
"@X c #F4E6D8",
"#X c #F5EBDD",
"$X c #FBEDDD",
"%X c #FEF1DE",
"&X c #EFEBE3",
"*X c #F5EFE3",
"=X c #FEEFE2",
"-X c #FEF3E3",
";X c #FBF7E6",
":X c #FCF5EA",
">X c #FFFBEB",
",X c #FBFDF9",
/* pixels */
"u s s u s u s e.e.p.{ { { u s z s s s s u s u i {  . .i i z s s a i s =.f.d.D a i s u v  . . . . .H i s s s s a s n 0.p.p.{ }  .",
"s v s s c i i 0.q.s.K { { u s s i i s s u s s s  .| X.s s s i i i i u o.p.d.M u s s a s  . ... . .D i i s i u s i z 0.e.e. .....",
"u D .. .v s s :.;.=. . . .u s s i s S | K v u u J D K u u v K D K K D %.6.6.M i s s s s ..{  .K H S i s m D S z a s =.6.=. . .{ ",
"u =.p.f.Z a u  .K K  . . .u i c i u o.d.f.Z i s u u u s i S f.d.p.e.s.-.K  .v a i z a s  ...K u u s i s o.f.e.Z a i a u z  . .{ ",
"u o.p.s.M u i X. . . . .K s s s u i =.p.e.M y a s z s s u M p.p.e.e.e.-.|  .v s s z s z  .o.K u s s u u %.d.p.M s s s i v ..X.K ",
"u  .=.&.v s s  . . .M m M u u D %.X.%.&.;.K D D s s s s a v ..{ ..=.=.o.| ..v s a a i s M Z M s u M X. .=.=.-.M s i s u s D D M ",
"u D  . .n a a  . .| a u s s i | d.p.-.K  .{  .X.v s i s s a i u n  .|  . ...v s a s s i s u i s a  .d.e.;.| { v i i z s s s p s ",
"s D ..| D  .D F G C +.@.$.#.#.$.+.+.E A  .....X.z s s a i s z s M X. ...{ { n s u s y s u s s i u  .f.d.:. . .v s s z s i u u z ",
"s v v v D A G G C E $.@.O.O.O.O.@.$.E F  .M z m s s s z s z i s s m v { .. .m u s %.;.=.s s c s z m K D S m M z s s z s n =.%.X.",
"s s i i s s     `.^.^.).`.`.`.`./.^.:X&X        a i s s u z i s u s i D  . .v i s e.q.e.i i s s u s u i i i a a a s s i M a.p.7.",
"u c s s v s     S.`.F.F.F.F.F.F.F.F.:X:X.     o z s s s s z u s s s s D ..X.M u s 0.p.q.i s i c s i u u i i i s a s s i n p.d.;.",
"s v a u .   *X>X  o ).D.N.c.c.N.D.).F.S.:X>X`.Z..   c 0.9.9.9.9...s u z v s s s s ....o.u z M 6.:.0.6.9.=.K | v s s s a v %.=.o.",
"s i a u     :XOX%   J.A.B.x.x.N.S.G.}.D.#X#X`.`.#   a g.0.p.q.e.&.u s v i s s u s K | { a s M d.e.e.0.d.;.K ..v a s s a z  . . .",
"s M     :X>X*X,XC.}.x.x.x.x.x.x.x.x.V.J.;X-X#X;Xb.'.  & e.e.p.e.=.u i s a u v s v H  .{ s s Z s.q.s.e.e.-.| ..v u a s i z  .....",
"u o.. . :X#X>XOX).A.b.b.x.x.x.x.x.n.G.Y.$X@X>X-X`.^..    .{ | { K u s s s s -.e.q.%.| ..i s s X. .|  . . . .| v u s s s s s s z ",
"u %.E V ,X:X#X>XOX-XG.D.x.n.x.b.[.G.%X@X>X-X$X;XS.`.    {  .{ | J i s z u y :.e.q..... .u s v o..... .|  .....v u c i s s s i s ",
"H o.E W @X#X#X%X-X>XJ.G.V.x.5.z.D.G.$X-X+X@X>X;XS.F.  .  .X.K  .D i u v M m =.e.q.o.K  .u i v  .H  .X. ...K { m a y n z s s s s ",
" .F ^.S.}.}.$X+X-X+X5.V.+X;X;X;X-X-X%X>X%X-XG.D.[.`.u.M.%   u u i i s %.d.p.=.K K .. . .s s i s i m  .K S u a i s v e.p.p.s v s ",
"D A '.^.S./.-X;X>X-Xn.V.@X-X-X;X$X-X$X-X$X%XD.A.G.S.N.c.    u i s a u o.d.e.=. . .......i i s u a M X...Z u s u i a 6.e.e.u u s ",
"K Q c.N./.S./.A.z.x.$X+X;X$X@X=X#X-X=X-XD.A.+X/.W U b.N.o # i z z s s K ;.=.o. ...H H D s i v s s m K { Z s i Z D H :.6.:.D A H ",
"D Q m.v.[./.).).x.V.$X@X;X;X;X>X-X=X-X$X[.D.G.n.W U c.m.    i s s i a s y u H  . .s i i s s s s s s u u i s s -.d.e...K X.p.a.0.",
"    N.l.n.c.n.A.z.z.).G.D.G.S.S.).F.c.y.N.n.W W 1.1.+ . O.<.K i z i i s a u K | ..s i a s s s s i s s s s u a -.e.s... . .p.p.9.",
"  . m.c.N.N.z.c.x.x.G.).D.[.).D.[.F.b.S.z.v.T P 4.4.. . #.+.s i s s s z s s K ..o.v s s s a s c a s s s s s s X.:.:... ...:.-.=.",
"    M.c.S.z.b.c.V Y x.y.$.@.y.B.t.b.N.y./ L T.W.` ,..   %.&.s s i i s s s s J  . .s i s a s a s s z u s s s i H  .|  .{ X. . .} ",
"    m.b.Z.b.C.N.U U x.y.@.>.i.b.B.i.t.B.T L R.L.` k.. . -.*.s s i s z s i s H .. .v s i i s i s s c i s i a s K {  .X.{ .. ...{ ",
"  # Z.n.x.r.c.y.V V b.S.u.t.$.^ i.g. .C {.|.K.Q.W.P.+   o.=.u s M =.=.H u i v n m a i i s s v =.%.| u s H o.o. . . . . . .M M M ",
"O   u.c.N.C.C.c.E U y.i.N.B.#.#.Z.g.B G }.{.Y.W.K.|.+ . +.:.u s H d.d...i s c u u s s s s a M f.d.-.t i o.f.d.%. .|  .{ ..p s s ",
"u v E ~ 5.t.c.N.r.b.E W u.i.@.+.@.+.,X,Xr 2 |.E.T.E.d g s s i u D p.e...u u v s s s i u u u M p.e.:.u s X.s.e.&. . .o... .p s i ",
"u  .V N S.N.i.b.N.S.V W b.y.>.>.~ $.,X,Xe 2 |.P.W.I.4 d 6.9.u s M o.o...K K  .{ K v s v 0.0.;.X.o.K i a c M m K .. .v s n z z z ",
"u X.  . u.N.N.b.c.y.U V T R ,.k.) >.:X&X+ + I.Q.L.W.6 5 p.0.i i n  .{ .. . . . . .z u a e.e.e.{ | K u u s s i D  . .v s i s z z ",
"s K     Z.g.i.i.N.c.U R P I ` ` ( ) >X>X+ @ I.L.Q.I.6 5 q.s.t i n .. .o.{  . . ...v s v e.p.9.|  .K s s v i s H o...z i z i i u ",
"s s u a     Z.r.C.n.R P h.h.] ] [ ] Y.{.E.K.Q.L.R.R.h.,.|  .u s s s u D .. . . ...z i u s u v X. ... ...D u s s s s z s p x v D ",
"p s a =.X o w.Z.i.5.P R ,.j.[ ' ' ' T.E.I.I.R.R.U.U.h.2. .X.t a s s u D .. . . . .v s s i s s ..{  ... .D u s a s u s u s p u M ",
"p Z K K n s     + + ,.k._ ] [ [ [ [ [ _ Q.T._ ` 8 6 #X=X . .z v z s s D { K  .| { v i s s s c o. .X.K K D s s s m v n v v n x D ",
"u %.f.d.D u       . 4.2.j.j.] ] ' ' ( j.P.K.k._ f d  . ... .....H s s s u u a u i s s i s i s o. .K u a s i u ;.p.d.p.s.d.a.f.0.",
"u { q.s.D u a s z s   + l I 5 8 3 8 f 7 @ @ . + ..o.~.X...{ X. .D u z z s z s s i s u i s s s X...{ u s s s a ;.p.d.e.e.q.p.q.0.",
"..=.:.6.S i i  . . .    E W 2 4 4 4 7 < . . . o Z D S  .| | K J M s s s a s a i u D J K u s s D J Z i s s i i ..=.-.9.0.9.6.9.9.",
"p.-.=. .m i u e.~.d.    k k j l ~ ~ j Y k k u ].s i i .. . .t i u s s s s i v a a 9.d.p.s s i s i s s i z s s u u u K { {  .K { ",
"d.-. ...M u u e.q.d.X X b h C h ! ^ j g k m p p s i s .. . .i a z s i s u i z i u 9.e.d.a u z z i z s a s u i a s i  ....... ...",
"=.K v n v s u o.  X .X(.X $ (. XoX(.j l G ! q q !.s i S m M i u s u i D o.....X...-.=.=.s s s a a s a i D ....v s u D Z Z ..} ..",
" .Z u a =.i u  .X   (.oXX X  X(.H.XXj j ^ ^ w = v s i s u s s a z u i  .d.s.d.d.d...{  .a i s s s z s u X.d.p.H a u s i i  . ...",
"..D a s v s     ].].X X .X X(..XX X > 2 ).^.1 : n i z i s v s u s a i | e.0.e.0.e..... .z i z s i s i u ..e.p.D u s i s s X... .",
"..D a u D ].  X ~.oXX X  XH. X.XX X r > @XOX, w :.:.;.s i s s s Z ;.;.-.%.%.=.=.=. . .| J K D s s v s s K =.=.{ D D z s s M M Z ",
" .D a i K ..O   X     X .XXX_.XXX o . . . . g e q.e.d.s i s i i D d.e.;.K X.K  .{ .. . . ... .i a s s u Z  .{  ... .v i s p i x ",
" .D i s H |         X $ H._._._.    + + + @ r g 9.p.e.s s s s u J d.q.:.{  . . . ... ...{  .| s i z s u D .... .X.| v u s p s x ",
"s s s i     9 : : :     t.t.3.i.  . N g < > ; , 0 , o.9.q.8.i i s n v K | .. . . . . . .n c n a s s s s z v z z z v z a s z s z ",
"s s s i   O = : : =   o 3.3.3.t.  . N N e e - - w 0  .d.q.e.t s i s i M X. . . . . .|  .s u s s s v u s s s s u s i s i z z s s ",
"u s s s   O & & = & : >         , , - > - : - :     | 0.0.q.u s s s i m .. . . .{ X. . .s s s a u s z v s u i s s t v a s s s x ",
"s s i s O   & * & & 1 :       . : , ; > - : : ;      . .|  .y s u s s v s u z i i K  ...i s i s a H q.e.X.a s s i s 8.q.0.e.0.0.",
"u s s i s a     O   e.e.q.{ { =.e.e.            ..|  ... ...u s u z i v i i v a u  . ...u s i s u D f.q.o.u i s i i 9.e.e.p.e.0.",
"s M {  .n a         6.9.:. . .X.:.6.        O   H { { K K H z i z D S m v v s a s H | | s u s M n K e.e. .s s s i s ;.e.q.q.0.9.",
"s  .s.d.K u i 9.p.p. .K {  . .K u u c s a s i s s u i u u s a a D s.d.6. . .Z s u s i i s s v f.p.9.{ { .. . .n s u {  .|  .{ ..",
"t o.e.s.H s i 9.e.e.{ .... ...K u i z u a s a i s i z s s s s i Z d.e.:.K ..n i s z s a i i v d.e.0.K o... .o.n u u K K  ... . .",
"o.X.=.6.S s u -.;.=... . . ...K s s Z ..X.m s s z s s s s z i s M 0.:.-.{ X.M s s s s s H K K :.9.6.K ..K K K m s s  . .X.K K K ",
"d.:.K ..M u u  .{ {  .K ..X. .K u u  .f.f.H i s z a s s a s s i z  . . . . .m s i s s s e.d.q. .K  .| ..M u u s i i K  ...s u s ",
"q.=. . .S s s K  . . . ...K ..{ u a  .p.p.J s i s i s s s s s s n  ... . . .M i i z a s e.e.d.K ........D u s u s i K  . .s s s ",
"=. .n v n i s m m M .. ..... .{ u s K -.=.| D D o.%.=.s s v u s z Z M K .. .M s s s s s X. .X.M D H X...D s s m D Z  . .X.s s s ",
" .M u u s s s s u u .. . ... .K i u Z  . ... ...0.p.s.s s s s a u s u M ....M u i s i s s i s i u v  ...D u i K X. ... ...s s a ",
" .D s s s s s s v i  . . . . .H i i D  .| ..{  .9.p.e.z s s s s s s i Z .. .M s s z s s u i s s u m  ...D u i D  ..... .X.s s u ",
" .K K K m s s s u s  . . .v v v s i z z s K  . .o.o.o.;.:.;.u i s s a v n v v s i s s s =.-.=.i s z n n v i s v n m m n m s u v ",
"......X.M s s s s s  . . .u i s s i c s u H  . ... . .p.e.q.y s z i u s s s s s i z s s e.e.e.i s z s i s i s s i s s s s s u m ",
" .^ K  .m s s s s s {  .{ i a s z i v v z K  . . .| { e.e.0.s s c i s z i s z s u v s s 0.e.e.u i s s i z s s s u s s s i s u m ",
"X.K s s s s s s u s s z s s i s i i K 9.9.o.{  .X. .| o...X.9.6.-.y s s a s s s u -.9.9...X.X.i i s s s s s s s s s s s s :.;.9.",
" .M u p s s s s s s s s s s u z u u ..f.p.=.0.K  . .{ | K o.p.d.8.u i z i s v s t 6.p.e...{ ..i s s i s s s s s i s s s s e.e.e."
};
