/* XPM */
static char *a3b14c8e88b74fc9a12ba45ec8b36892[] = {
/* columns rows colors chars-per-pixel */
"64 64 224 2 ",
"   c #0A0500",
".  c #0C0400",
"X  c #130601",
"o  c #150B01",
"O  c #1A0D04",
"+  c #180B08",
"@  c #1C0E0B",
"#  c #151100",
"$  c #1C1303",
"%  c #1D1B02",
"&  c #1E120B",
"*  c #1C1509",
"=  c #1E0E12",
"-  c #1F1211",
";  c #200F06",
":  c #210E0C",
">  c #221304",
",  c #221B04",
"<  c #22130C",
"1  c #231A0C",
"2  c #291C0D",
"3  c #210E12",
"4  c #231312",
"5  c #251A12",
"6  c #2A1D13",
"7  c #271A1A",
"8  c #1E2200",
"9  c #242303",
"0  c #2A2604",
"q  c #252B02",
"w  c #2B2C04",
"e  c #25220B",
"r  c #2A250B",
"t  c #252809",
"y  c #2B2B0B",
"u  c #322B0B",
"i  c #2C3203",
"p  c #2E310B",
"a  c #333B02",
"s  c #363806",
"d  c #32340B",
"f  c #343B0B",
"g  c #2B2313",
"h  c #2D2B13",
"j  c #2C221A",
"k  c #282618",
"l  c #312C15",
"z  c #32241B",
"x  c #342719",
"c  c #332B1C",
"v  c #2E3115",
"b  c #333513",
"n  c #3A3D14",
"m  c #35331C",
"M  c #38371A",
"N  c #3C3D1B",
"B  c #2D2421",
"V  c #352C23",
"C  c #352924",
"Z  c #363325",
"A  c #3C3424",
"S  c #3C3A23",
"D  c #3C332B",
"F  c #3E3A2A",
"G  c #3C3733",
"H  c #413B1D",
"J  c #443627",
"K  c #423C25",
"L  c #43362B",
"P  c #443B2C",
"I  c #4A3D2E",
"U  c #463D31",
"Y  c #493D32",
"T  c #453938",
"R  c #3A4403",
"E  c #3D4708",
"W  c #3D440A",
"Q  c #3C4316",
"!  c #3C411C",
"~  c #3E4125",
"^  c #414A0C",
"/  c #434716",
"(  c #43431B",
")  c #4C5413",
"_  c #5B621E",
"`  c #474725",
"'  c #44412C",
"]  c #49432C",
"[  c #4C5226",
"{  c #545928",
"}  c #454433",
"|  c #4B4334",
" . c #4C4339",
".. c #4C4838",
"X. c #514630",
"o. c #534D35",
"O. c #52453B",
"+. c #534B3B",
"@. c #59573A",
"#. c #5D6327",
"$. c #5D6738",
"%. c #62672C",
"&. c #6C742B",
"*. c #676C38",
"=. c #6D7337",
"-. c #737A3C",
";. c #4A4646",
":. c #4A4B4E",
">. c #544D45",
",. c #594D42",
"<. c #5C5444",
"1. c #595648",
"2. c #4C4D50",
"3. c #534C51",
"4. c #4F5053",
"5. c #525356",
"6. c #5D5A53",
"7. c #555659",
"8. c #57585B",
"9. c #5A5B5D",
"0. c #615845",
"q. c #645B4B",
"w. c #645E56",
"e. c #5E6348",
"r. c #686748",
"t. c #69644B",
"y. c #716C4E",
"u. c #757947",
"i. c #626354",
"p. c #6C6553",
"a. c #6D6B53",
"s. c #65635B",
"d. c #6D6A5B",
"f. c #726C54",
"g. c #736E5B",
"h. c #756A5D",
"j. c #6E715C",
"k. c #747255",
"l. c #797655",
"z. c #75735B",
"x. c #7A745B",
"c. c #7C785E",
"v. c #5D5E61",
"b. c #5F6063",
"n. c #626365",
"m. c #6A6863",
"M. c #646669",
"N. c #67686A",
"B. c #6B6C6D",
"V. c #716E63",
"C. c #756F65",
"Z. c #757363",
"A. c #7B7462",
"S. c #7E7A63",
"D. c #78766A",
"F. c #6D6E71",
"G. c #736F70",
"H. c #6E7072",
"J. c #727375",
"K. c #7A7672",
"L. c #7C7C75",
"P. c #757679",
"I. c #77797B",
"U. c #7A7B7D",
"Y. c #817C5C",
"T. c #827B64",
"R. c #847C6A",
"E. c #807D74",
"W. c #79823F",
"Q. c #7D864B",
"!. c #7F807D",
"~. c #878C4F",
"^. c #868659",
"/. c #89866C",
"(. c #90916E",
"). c #8D8474",
"_. c #8A8876",
"`. c #84837D",
"'. c #928D74",
"]. c #948B7A",
"[. c #9A977A",
"{. c #9B947C",
"}. c #9DA275",
"|. c #A1A17C",
" X c #7D7E81",
".X c #7E8183",
"XX c #828385",
"oX c #878787",
"OX c #8A8B85",
"+X c #848689",
"@X c #86898B",
"#X c #898A8D",
"$X c #8A8B8C",
"%X c #918E8B",
"&X c #999785",
"*X c #94948C",
"=X c #8C8D91",
"-X c #8F9194",
";X c #929395",
":X c #9A9595",
">X c #949599",
",X c #97989C",
"<X c #9A9B9D",
"1X c #A39B88",
"2X c #9FA29B",
"3X c #A4A286",
"4X c #AAA28C",
"5X c #A9A494",
"6X c #B0A991",
"7X c #BFB59C",
"8X c #9C9EA2",
"9X c #9FA1A3",
"0X c #A2A3A6",
"qX c #ACA8A7",
"wX c #A5A6A9",
"eX c #A7A9AC",
"rX c #A9AAAD",
"tX c #A9AAAE",
"yX c #B2AAA8",
"uX c #ADAEB1",
"iX c #AEB1B4",
"pX c #B1B2B5",
"aX c #B5B6B9",
"sX c #B7B9BB",
/* pixels */
"U. XU.U.P..XI.I.U.I.I.I.U.I.U.P.U.U.P.4.2.5.:.2.J.U. X0XwX0X0XeX-XJ. X7.:.5.5.:.M..XJ.I. X XJ.XXI.XX X9.2.2.U.U.J..XP.U.U.I.5.;.",
" XXXXX+XXX+XXXXX@X@XXXU.XX.XXX@XXX.XXXv.9.7.7.5.J..X#XeXuXuXeXtX,X#X#Xn.7.9.7.5.H.+XXX+XXX+X X X+XXX+Xb.4.7. X@X#XXX@X+X+XXXn.7.",
"XX.XXXXX+XXXXX+XH.N.P.XX#X+XXX@XJ.B.B.7.9.n.U.F.;X8X,X>X-X>X;X8XP.B.F.9.7.n.J.J. XXXXXXXU.#X8X8X-X X=XU.J.P..XXX Xn.B.N.B.B.J.J.",
"XX.X+X X@XXX+X@Xv.;.b. XXX+XXX+X8.7.9.7.9.B.=X X0XiXtX+XU.XX X+XN.4.5.9.7.n.+XXXXX X+X+X X#XwXpX8X X#XXX+X#X+XXXU.7.5.7.5.5. XXX",
"XX+X#XU.+XXXXXXXB.7.B.XXXX+XXX+Xn.7.7.9.5.n.XXXX9XiXuX+X X#XXX+XN.9.7.b.8.v.+X XXX X X X.X=X9XpX,XXXXX+X X XXX+X X7.4.n.8.9.U.U.",
".XXXU.9.n.v.v.v.I. XXXXXXX+X X@Xn.7.v.XXXX X+X.X X+X+Xv.9.n.v.9.J.+X X X X+XeXwX0XtXtXwXwX0X#X+X=XXXXX#XXX X+X+X X7.8.P.I.XX+XXX",
"#X#XI.7.7.8.8.8. X=XXXU. XXX X#Xv.2.8..X#X+XXXXX XXX.X9.7.7.7.2.B.#XXX.XXX=XuXtXuXpXuXtXuXwXXXU.#X+X X+XXX+X+X+XJ.7.7.J.XX+XXXXX",
" X XJ.8.v.v.v.v. X+X X#X=X+XU.U.B.n.B.U.XXU..XXXXX+XXXv.7.8.M.M.I.oXXXXX X#XtX0XwXwX0XtXtX0X+X+XXXXX.X+XXX+XU.U.J.M.8.I.#XXX+XXX",
"8.5.v.v.8.P.=X+XXX X=XtXaXXX5.5. X+XXX+XoX XXX+X X+X+XB.B.`._.Z.z.a.Z.Z.D.XX.XP.>XiXtXeXwX0X+XXX+XXX+X+X+X X8.4.b.@X#X+XXX X+X X",
"8.5.v.7.5.F.+X XXXU.#XuXaXXX5.5.I.XXXXXX+X.XXXoX#X*XE.d.g.d.g.k.k.k.z.g.g.D.G. X>XpXwXuXpXuX X XXX+X XU.+X.X7.5.M.XX+XXXXXXX@X#X",
"F.F.J.J.F. X@X@X;X>X>X>X,X+XM.n.XX+X@X+XXXXXK.m.P d.x.A.c.f.T.k.l.l.k.k.A.A.i.L.>X8X;X>X,X8X.X+X+X#X+X.X+X+XF.H.J.XXXX+X+XXXJ.F.",
"=X+X=X=X@XXX XXXuXaX0X XP.+X+X#X+XU.XXXXXX#X:Xd.A.P a.x.r.c.k.f.k.f.l.k.f.S.Z.V.K. X XU.U. X+XXX+XXX+X+X X+X+X+X@X+X.XXXXX.Xb.5.",
" X X.XXXXXXXXX+X8XtX8X+X XXX XXXXXU.+X+XJ.;.Z.].p.f.] x.[.r.f.x.k.k.T.x.a.f.g.d.V.U.+XXXXXXX#XXX.XXX.X.X X+X#XXX.X.X@X#X+XXXn.5.",
"@X#X#X XXX>X8X8XuXuX8XXXXXXXXX#XXXXX#XXXm.V 1.&X'.'.x.r.T.'.c.g.f.f.f.S.[.'.R.R.d.s.U.XXXXXXM.n.F.@X.XXX+X+X.X.XXX.X@XJ.b.N.P.U.",
"I. XXXU. X8XpXpXuXtX9XU.XXXXXXXXU.U.XX.Xm.U | f.4X1X7Xf.r.R.0.'.].).T.A./.k.<.+.P V 9.+X+X.X5.2.n.+X.XXX+X.X.X+X+X X@XF.4.5.U.@X",
"+X+X=X#XXX>X0XwX0X0X9X.X@X XXXXX#XXXXX#Xm.P P @.1X{.{.6XT.c | ).).).R.<.c o $ X o o ;. X XU.M.v.H.@X.X+X+X.X#X+X#XU.@XJ.8.8..X@X",
"tXtXwXtXuX>X X+X X@X+XU.+XXXXX X9XwXuXwXJ.D |  .A.C.].4XA.A P O O O @ < < < < < < @ ;.M.5.v..X.X#X+X.X.X.X+XeXeX9X.X+XJ.7.8.XX@X",
"wXuXtXtXtX,X XXXXX+X.XXXU.XX+XU.wXwXiXtXG. .D j A.Y ,.V < 2 < 2 & < < < < < : < 4 @ ;.n.4.v..X+X#X.X.X.X.X X0XsXeXXX+XF.5.7.I.U.",
"wXtXtXwXtX>X XXXXXXX.X+X X+X+X XwXeXtX>XJ.k $ g A.P x O O < o & < < < < > > < & < @ T B.M.H..X X+X.X.X=X>X-X-X<X=XB.J.J.M.B.#X;X",
"wXwXtXtXuX>X X+X+X#X+XXX#XXX.XU.9XeXwXU.T D Z g <.| < < 5 @ < < < < < > > > < < < @ G P.+X#X+XXX+X.X X9XiXiX+XXXI.4.5.J.XX+XeXpX",
"eXtXtXwXuX>X.X+XXX.XXXXX+X XXX XeXpXpX+X1.q.+.$ I Y 6 O O @ 4 < : : < < > > < < < @ C  X#X.X X.X+X.XI.8XeXeXI.+XU.8.:.H. X X0XtX",
"tXuXwX=X;X#XXXXXF.n.F.+X X=X0X,X=X#X#XM.E...c , I A 5 @ < 4 4 + : : < < < < < < < @ C U.+X.X+X+X-X9X8X9XuXeX+X@X+XU.J.+XXX XwXtX",
"tXuX8XU..XXXXXXXv.2.b.+X X,XaXuX@X XU.8.1.F c 1 I > > < < : 4 4 3 3 4 < < : < < & @ B #X+X.X+XI.-XiXiX9XiXeX#XI.U.XX+X#X X.X0XuX",
"eXtX0X X+XXXXXXXn.5.M. X+X;XuXeX#XXXXXv.6.| V , I O L z : : + 4 @ 3 4 4 4 < < < & + B :X>X.X#XI.>XeXwXeXpX0X+XXX#XXX+X+XXX#X<XtX",
"XXXX#X X+XH.5.9..X@X XXXXXXX+XXX@XXX XN.D V D $ 6 O J z O < < : 4 & < o o X 1 < & @ B yXqX,X0X0XwXeXeX9XtXeX.X+X+XXXU.,XiXwXtXtX",
"XXU.XX.X+XN.:.v.U.@XXXXX X X+X@XXX+X@X+Xw.V 5 $ o x O.z O < < : O X x <.,.O.z $ < & 1 >.w.K.%XL.`.!.%Xm.,XiX+X.X+X+XXX,XtXwXuXpX",
"XXXX@XXX@XH.5.n. X@XXXXXXXXX+XXX X.X+X%XK.>.c $ C L | z O < O O m m @.R.g.A.r.I 2 $ 1 $ F 1.1.D.Z.d.V. .C.>X+X.X.XJ.I.>XuXeXwX9X",
" XXX@XXXXXF.5.9. X+X XXXXXXXXX.X@X+X;X:X .w.+.5 O. .Y z O < < g r./.x.x.x.g.T.).+.O 1 +.| | <.g.z.S.z._.+.1.+X.X X2.:.+XaXwX+XP.",
"+XXX@X#XXXB.7.9.I.XX XXX.XXXXXXX+X*X:XV.>.P c * P D  .j O 1 2 x.x.y.r.x.x.A.].4X0.. g g.c.S.@.o.c.a.g.g.D.w.3.#X X5.:.#XaXeX+XU.",
"B.N.B.B.N.B.B.H.XXXX XXXXX+X+X`.Z.V.Z.Z.+.| c 1 U >. .5 $ $ 1 g.k.x.c.f.A.1Xq.j $ 2 j | f.k.g.@.K T.z.p.A.1.D 3.F.+X+X#X#X;X#XXX",
"4.5.5.5.5.P.#X+X@X+X.XXX!.L.L.Z.Z.z.g.z.o.' c $ g o 1.q.p.+.. +.z.z.S.g.P A 5 < @ O & 1 | ].4X'.y.` {.4X4X_.w.3.J.sXaX,XJ.XXXXU.",
"v.8.9.9.7.J.XXU.XXXXXX`.Z.z.z.z.x.k.k.S.| ' c O O ,.d.D.A.g.R.K +.<.' F P @ @ @ 4 5 O @ j Y +.+.H u X.+.<.+.D C F.uX0X<X.X+X.X X",
"9.7.M..XI.XXXXXXXX+XV.g.c.f.Z.r.r.y.f.R.| K L X 1 q.A.x.x.).g.U K ' g 1 Y @ 4 : 4 @ 4 6 + O . o O O O O o o X 7 XX@XXX#XXX Xn.b.",
"5.4.M.+X+X+XXXXXXX`.`._.f.f.c.@.` l.c.g.+.P c * 1 m q.r.).g.  | | } c g Y O : < : 4 < + 4 4 4 4 < 1 < < < * & B +X X+X@X@X@X9.4.",
"n.n.J.XX+XXX.XXX+X#X*X&Xx.l.l.Y.r.' c.f.+.j o < $ P P +.1 . g P | ] x x A 2 1 < < < < < & + & & < < @ & & * + 7 @XU.XXU.J.P.N.n.",
"XXXX+XXXXX@XXX@XXXL.G <.3X3Xl.y.r.S P A.V & * X $ | P | c $ 1 F P Z <.A.x.h.> O O < & @ 4 7 4 & & < & & & - @ 7 +XXXXXF.7.9.U.XX",
"XX+X+X X X+X`.OXoXD.V $ @.o./.6X].h.P <.5 O < < & Y K o.c . * P p.f.T.1X).h.q.p.P   $ 5 O O 4 @ & 4 4 < & - & j +XXXXXH.7.7. XXX",
"XX+X#X*X*X*Xk./.&X/.c e K K +.O.O.c V 6 C D 5 & & Y P F | +.| <.z.z.T.'.4X{.{.S.r.+.,.X < < < @ @ - - @ @ & o 6 @XJ.oXF.7.b.U.+X",
"XX=XOX'.'.[.{ =.3X'.r 1 F | 5 X X & O O C ,.L O * F +.@.g.'.'.T.f.T.f.c.'./.6X'.k.0.<.g 2 & @ 5 = 4 - - & * $ 1 D.c s.J.5.v.U.#X",
"XX;X_.l.u.~.E #.^.y.c 1 U Y 7 = 5 O < & L L j < L | g.A./.&X3XS.x.x.g.x.f.f./.3Xz.' K | 6 < @ & = 4 - & & < o % % h h 6.8.8.!.+X",
"XX%X[.~.*.=./ f 9 S A * P I 6 & < < @ < L z X A 1XA.A.k.f.S.&X{.T.x.g.x.k.k.l.a.'._.K | | z O 4 < @ @ < < > $ $ r r y y i.!.} `.",
"OX&X*.a i i f i r A V o +.I 6 @ < O < < $ V c 1 Y 4Xg.k.k.y.l.x.{.4X'.g.x.f.k.x.z.z.A.p.A.,.C O < & 2 < O $ $ > 9 u % w y m } F ",
"k.^.-.) i i q w e V 1.q.. o.6 O 4 & O 2 z I L > | c ].4X/.y.k.X.o.p.c.f.k.c.c.@.' o.+.R.<.j & < $ $ $ o $ > $ , 0 9 0 w t t S `.",
"[.(.~.&._ i a d e Z | q.o.2 O 4 & < O O Y J > 2 I 1 ] p.{.'.y.@.] ] f.A.f.g.T.f.<.K K K 2 * $ 1 r $ e l , , r $ 0 u 0 y % ' `.XX",
"0X5X}.&._ E E p y y S ] y.P C + @ 4 4 X L z o 2 L 6 1 | g.R./.'.r.K ] q.A.A.| ,.P x c X $ 1 1 o 9 d 0 y r e l y 9 , 0 9 1 } +X+X",
"tX1X|.-.R E E / w n ( ( d x.C @ 5 @ 6 O I c O 6 U 6 U Y Z | {.{./.r.] ] q.w.< O o < O 6 1 $ $ % w ( w 9 h e 1 1 r o.m e D s.#X-X",
"tX_.*.-.=.a E f / i w ( ( K 6 = 4 @ @ O L z O 6 O.X D | P | P p.&XT.<.c O < o O < O 1 o O $ $ y / f Q ~ h e h m m U.d.k M.+XeXpX",
"uXqX@.[ Q.-.E E a ^ s i ( ` 6 - 4 4 & < < $ > 2 Y Y 1 c +.P K ' g.S $ * & O 1 < 4 : @ 4 5 o l N Q f p q y e ' #X+X@X+X@X XU.0XtX",
"#X;X*Xa.n / 8 a #.-.#.i s , $ < @ 4 < & < O z L Y | K g g ..F } D.L O O 4 < O < : 4 4 = - $ r w i Q q 9 w e g >.@X+X X;X0X0X;X@X",
"+X+X#XoXL.j.a.f ) =.u.#.f $ $ o < $ & < < < 6  .Y P P K g e +.F D 6 4 4 4 : O < < : = = 4 $ , 9 q i f d 8 9 e 1 m.3.U.<XpXeX#XP.",
"+X XXX+X XH.9.S % ( $.@.( w w y r $ $ , 1 X z Y L q.K K ] S g | * @ 4 < ; > > > > > 4 - & # r b p q d q q d r h o 7.XX,XeXwX=XXX",
"8.v.v.9.8.I.XX6.v 8 9 i n / n ( H 0 o , $ $ c U P R.g l <.p.h m 1 & < O O > > > > > < & & o h ` n 9 i q q 8 % y w.wX0X>XXX+X XU.",
"7.9.8.7.:.J.+X#X@.q a a a E E / ` ` l % % $ 1 | +.p.c A F | x.1 1 & < < ; > > > > O @ & < # e y b w q 8 i w t h #XpXpX,XU.+X+X#X",
"9.8.b.J.N.I.XXD.u.-.%.a ^ E a { ^.[.M , 1 o g ,.a.% e m +.P ] A.5 & < < < < ; > < & & & * # e w y q w 9 9 p b e V <X<X;X.X@XI.I.",
"b.8.N.#XXXXXXXOX{ #.Q.&.R R %.Q.|.[., ] S F h m c.h $ F U P Y | j & @ & 4 4 : 3 3 4 4 & $ # y n w % ! ` 9 8 e k !..XI..XU..Xv.8.",
"5.4.n.+X+X+XXX.X&X*.^ ) E a $.}.(.M $ e S ~ M b n 9 % A | P | I 1 O < < @ 3 3 4 = = @ o $ % d Q b n y M z.i.k XXXX+X.X#X+XXX9.4.",
"H.H.I.XX@X#X XXX0X2XZ.$.f Q [ r.` . , e b ! Q f i d 9 b | | F | < < o 4 & 4 7 = 4 - @ $ , y N Q b b t % `.XXJ.@XXXXXI..Xn.B.H.P.",
"@X@X+XXXU.@XXX.XeXtX9XoXe.N Q q 9 y e N @.` R R a R d n S ' o.K 6 $ < < O & @ - @ * 1 , y b b p 9 t e } L..X XXXXXXX.XH.4.b.U.@X",
".X.X.X@X.XXX@XXX0XeX0X.X@X1.` ` ` b X.b '.u.E E i q a d 8 t ( K 1 $ $ # 1 1 $ 1 $ 1 r 9 9 9 h y v m } .X XXXXXXX@X.X@XH.4.8.U..X",
"@X+X.X#XXX>XeXeX-X.XXXXX#XJ.9.i.b ~ ~ oXXXr.) W.=.i q n ` N 9 y # * $ $ $ # e g l e 9 y y $ E.L.Z @X+X.XXX+XXXXXI.5.n.9.7.9.XX+X",
".X+XXX@X X<XpXwXXXXX@X+X+XP.5.8.!.XX+XXX.XoXy./ u.u.d p N ! f p e e e e e h l % $ e b h # s.+XXX@X.XXX.XXXXX X+X X4.5.7.8.7.U..X",
".X XU.@X X,XwXwX#XXXU.U.P.F.9.b..XXX+XXXXXXX`.c.[ u.t e.a.v q 8 v h t y y $ # 6.B.6.# g m.N. XXXXX.X+XXXXX@XI.U.I.M.v.9.9.n.XX@X",
"7.5.9.XXU.XXU.XX+X@XJ.7.7.J.+X@XXX XXX XXX+XXXoXd.m.i.`.`.i.! q j.&Xr.8 Z i.6.N.v.9.9.B.+X+X+X+X+XXX+X XU.XX9.5.n.XX+X=X+XXXXX X",
"7.5.n.+XXX+XI.XXXXXXJ.7.5.M.XXXX+XU. X XU.U.U.+XF.5.9.+X.XoX1.[ 5X0X&X1.6.n.9.8.7.7.7.P.+X X XU.U. XXXXX X+X8.5.9.#XU.XXU.XXU.U."
};
