/* XPM */
static char *_b82b5d4d4a34e73b6bf98cbbadc1423[] = {
/* columns rows colors chars-per-pixel */
"64 64 234 2 ",
"   c #0E1200",
".  c #171800",
"X  c #261D05",
"o  c #321E0C",
"O  c #321C14",
"+  c #1E2400",
"@  c #232401",
"#  c #292404",
"$  c #252B03",
"%  c #2B2B04",
"&  c #26270A",
"*  c #2B240A",
"=  c #2B2C0B",
"-  c #322808",
";  c #2C3602",
":  c #2D330C",
">  c #363A07",
",  c #33350C",
"<  c #3A3D0C",
"1  c #2C2A14",
"2  c #322312",
"3  c #382819",
"4  c #2F3414",
"5  c #333513",
"6  c #363917",
"7  c #3A3D1C",
"8  c #381A25",
"9  c #382826",
"0  c #373825",
"q  c #471B17",
"w  c #453A0A",
"e  c #472F16",
"r  c #461527",
"t  c #441B2D",
"y  c #4B1B2D",
"u  c #441C33",
"i  c #4A1D33",
"p  c #481E39",
"a  c #521B30",
"s  c #46272B",
"d  c #51312D",
"f  c #462233",
"g  c #4B2235",
"h  c #4B223A",
"j  c #48263A",
"k  c #532436",
"l  c #53253B",
"z  c #59293A",
"x  c #583339",
"c  c #65293B",
"v  c #68343D",
"b  c #2F4000",
"n  c #394506",
"m  c #3B440D",
"M  c #3D4314",
"N  c #394418",
"B  c #3E4324",
"V  c #474509",
"C  c #434819",
"Z  c #4D5412",
"A  c #526513",
"S  c #61781E",
"D  c #444A26",
"F  c #4E4E2E",
"G  c #4C5333",
"H  c #585A36",
"J  c #6F5633",
"K  c #5A6332",
"L  c #6D7130",
"P  c #572B42",
"I  c #5B2D43",
"U  c #503146",
"Y  c #5B3246",
"T  c #5B3748",
"R  c #622C44",
"E  c #652E47",
"W  c #673347",
"Q  c #64334A",
"!  c #6D394D",
"~  c #753949",
"^  c #683953",
"/  c #763D53",
"(  c #464746",
")  c #4A4B4D",
"_  c #564A46",
"`  c #57554B",
"'  c #4C4D51",
"]  c #4F5053",
"[  c #525355",
"{  c #5B5E52",
"}  c #555659",
"|  c #57585B",
" . c #5A5B5D",
".. c #754448",
"X. c #7E5B4C",
"o. c #654657",
"O. c #7C4659",
"+. c #5A6446",
"@. c #686A4A",
"#. c #73704C",
"$. c #676958",
"%. c #5D5E61",
"&. c #715A67",
"*. c #5F6062",
"=. c #626365",
"-. c #6B6B64",
";. c #646669",
":. c #67696B",
">. c #6A6B6E",
",. c #766C6F",
"<. c #757868",
"1. c #6D6E71",
"2. c #6E7072",
"3. c #727375",
"4. c #7A7875",
"5. c #757679",
"6. c #77797B",
"7. c #7A7B7E",
"8. c #86733B",
"9. c #863F4F",
"0. c #833E58",
"q. c #85464A",
"w. c #8A534D",
"e. c #83445C",
"r. c #884858",
"t. c #934E58",
"y. c #875659",
"u. c #975659",
"i. c #9A535C",
"p. c #A35E5A",
"a. c #906A53",
"s. c #A8655D",
"d. c #834563",
"f. c #884765",
"g. c #8B4C64",
"h. c #944D63",
"j. c #924B6A",
"k. c #885467",
"l. c #945463",
"z. c #9A5464",
"x. c #9B5B64",
"c. c #94546B",
"v. c #9A556A",
"b. c #945A68",
"n. c #9C5B6B",
"m. c #8F5876",
"M. c #975972",
"N. c #A35C65",
"B. c #A15B6B",
"V. c #A35C73",
"C. c #8B6769",
"Z. c #9A6569",
"A. c #9C6574",
"S. c #897574",
"D. c #967576",
"F. c #A56464",
"G. c #A76867",
"H. c #A4646B",
"J. c #A9656B",
"K. c #AB6A6C",
"L. c #B16B69",
"P. c #A9786D",
"I. c #B5736E",
"U. c #A56774",
"Y. c #AA6B72",
"T. c #B26E79",
"R. c #A87577",
"E. c #B87677",
"W. c #C27A73",
"Q. c #718233",
"!. c #788152",
"~. c #7E8271",
"^. c #868A5E",
"/. c #8D926D",
"(. c #858778",
"). c #B7807B",
"_. c #C8837A",
"`. c #D28E7D",
"'. c #7D7E81",
"]. c #8C7A85",
"[. c #A86D83",
"{. c #C17E85",
"}. c #7F8183",
"|. c #828385",
" X c #848689",
".X c #858689",
"XX c #8A8788",
"oX c #86888B",
"OX c #898A8C",
"+X c #898A8D",
"@X c #948787",
"#X c #969788",
"$X c #8C8D91",
"%X c #938C92",
"&X c #8F9194",
"*X c #929395",
"=X c #9C9795",
"-X c #949599",
";X c #97989C",
":X c #9A9B9E",
">X c #AD8D8C",
",X c #A69A98",
"<X c #9DA397",
"1X c #AEA593",
"2X c #A4A39A",
"3X c #9C9EA1",
"4X c #9FA1A4",
"5X c #A2A3A6",
"6X c #ABA5A7",
"7X c #A5A6A9",
"8X c #A7A9AC",
"9X c #A9ABAD",
"0X c #B3ACA9",
"qX c #ACAEB1",
"wX c #AEB1B4",
"eX c #B2B2B5",
"rX c #B6B7BA",
"tX c #C98986",
"yX c #D58E87",
"uX c #CF908D",
"iX c #D69689",
"pX c #D99896",
"aX c #E19C8C",
"sX c #E49B97",
"dX c #CBA397",
"fX c #D9A597",
"gX c #E5A596",
"hX c #DA98A9",
"jX c #C7ADA8",
"kX c #DAB2A9",
"lX c #E8B6AC",
"zX c #EAB6AE",
"xX c #F0C6BB",
"cX c #F8D2C9",
/* pixels */
"7.'.7.7.5.}.6.6.7.6.6.6.7.6.7.5.7.7.5.] ' [ ) ' 3.7.'.5X7X5X5X8X&X3.'.} ) } [ ) ;.}.3.6.'.'.3.|.6.|.'. .' ' 7.7.3.}.5.7.7.6.[ ( ",
"'.|.|..X|..X|.|.oXoX|.7.|.}.|.oX|.}.|.%. .} } [ 3.}.+X8XqXqX8X9X;X+X+X=.}  .} [ 2..X|..X|..X'.'..X|..X*.] } '..X+X|.oX.X.X|.=.} ",
"|.}.|.|..X|.|..X2.:.5.|.+X.X|.oX3.>.>.}  .=.7.1.*X3X;X-X&X-X*X3X5.>.1. .} =.3.3.'.|.|.|.7.+X3X3X&X'.$X7.3.5.}.|.'.=.>.:.>.>.3.3.",
"|.}..X'.oX|..XoX%.( *.'.|..X|..X| }  .}  .>.$X'.5XwX9X.X7.|.'..X:.] [  .} =..X|.|.'.|..X'.+X7XeX3X'.+X|..X+X.X|.7.} [ } [ [ '.|.",
"|..X+X7..X|.|.|.>.} >.|.|..X|..X=.} }  .[ =.|.|.4XwXqX.X'.+X|..X:. .} *.| %..X'.|.'.'.'.}.$X4XeX;X|.|..X'.'.|..X'.} ] =.|  .7.7.",
"}.|.7. .=.%.%.%.6.'.|.|.|..X'.oX=.} %.|.|.'..X}.'..X.X%. .=.%. .3..X'.'.'..X8X7X5X9X9X7X7X5X+X.X$X|.|.+X|.'..X.X'.} | 5.6.|..X|.",
"+X+X6.} } | | | '.$X|.7.'.|.'.+X%.' | }.+X.X|.|.'.|.}. .} } } ' >.+X|.}.|.$XqX9XqXeXqX9XqX7X|.7.+X.X'..X|..X.X.X3.} } 3.|..X|.|.",
"'.'.3.| %.%.%.%.'..X'.+X$X.X7.7.>.=.>.7.|.7.}.|.|..X|.%.} | ;.*.5.+X|.|.'.+X9X5X7X7X5X9X9X5X.X.X|.|.}..X|..X7.7.3.=.| 6.+X|..X|.",
"| [ %.%.| 5.$X.X|.'.$X9XrX|.[ [ '..X|..XoX'.|..X'..X.X=.' 1.+X.X'.}.oX'.|.}.}.5.-XwX9X8X7X5X.X|..X|..X.X.X'.| ] *.oX+X.X|.'..X'.",
"| [ %.} [ 1..X'.|.7.+XqXrX|.[ [ 6.|.|.|.|.}.|..XoX.X|.=.' >.|.|..X.X.X+X|.|.|.'.-XeX8XqXeXqX'.'.|..X'.7..X}.} [ =.|..X|.|.|.oX+X",
"1.1.3.3.1.'.oXoX*X-X-X-X;X.X;.=.|..XoX.X|.|.|..X6.>.3.2.>.5.|.|.|.'.'.|.'..X*X*X;X3X*X-X;X;X}..X.X+X.X}..X.X1.2.3.|.|..X.X|.3.1.",
"$X.X$X$XoX|.'.|.qXrX5X'.5..X.X+X.X7.|.|.|.|.7.|.=.) %.'..X|.|..X.X|.+X'.|.&XeXrX*X7.'.7.7.'..X|..X|..X.X'..X.X.XoX.X}.|.|.}.*.[ ",
"'.'.'.|.|.|.|..X3X9X3X.X'.|.'.|.|.7..X.X}..X|.|.>.] =.|.oX.X|.|.].7..X|.}.+X5XqX;X'..X|.}.|.+X|.}.|.}.}.'..X+X|.}.}.oX+X.X|.=.[ ",
"oX+X+X'.|.-X3X3XqXqX3X|.|.|.|.+X|.|.+X|.7.&X5X4XoX5.7.|.XX,X1XdXR.C.S.4X3X3X+X+X$X}.}.|.|.|.;.=.1..X}.|..X.X}.}.|.}.oX3.*.:.5.7.",
"6.'.|.7.'.3XeXeXqX9X4X7.|.|.|.|.7.7.|.}.7.-XeXeX*X.XoX,XjXkXzXgXyXI.C.=XqXqX}.7.'.'.|..X.X}.} ' =..X}.|..X}.}..X.X'.oX1.] [ 7.oX",
".X.X$XoX|.-X5X7X5X5X4X}.oX'.|.|.+X|.|.+X.X&X7X5X$X7.,XkXkXgXgXiXsXpXE.D.@X:X|.oXoX'..X'.'.7.;.%.2.oX}..X.X}.+X.X+X7.oX3.| | }.oX",
"9X9X7X9XqX-X'..X'.oX.X7..X|.|.'.4X7XqX7X9X-X7.|..X,XzXzXgX`.iXpXyX_.uXr.k.S.]..X.X|..X:.} %.}.}.+X.X}.}.}..X8X7X4X}..X3.} | |.oX",
"7XqX9X9X9X;X'.|.|..X}.|.7.|..X7.7X7XwX9XeX3X'.|.=XkXzXiX`.aXiXiXL.u.q.c k.m.&.5.'..X.X;.] %.}..X+X}.}.}.}.'.5XrX7X|..X1.[ } 6.7.",
"7X9X9X7X9X-X'.|.|.|.}..X'..X.X'.7X8X9X-X3X*X'.|.,XcXiXiXaX_.s.s.yXF.c c R Q I o.%.5.5.>.;.2.}.'..X}.}.$X-X&X&X:X$X>.3.3.;.>.+X*X",
"7X7X9X9XqX-X'..X.X+X.X|.+X|.}.7.4X7X7X7.7.|.7.|.>XP.P.yXgX_.L.E.sXtXr.! l I z h f ] | 5..XoX.X}..X.X'.4XwXwX.X|.6.] [ 3.|..X7XeX",
"8X9X9X7XqX-X}..X|.}.|.|..X'.|.'.8XeXeX.X|..X.X@X>XtXE.iXyXW.W.sXyXE.Z.k I P I r l 8 %.'.+X}.'.}..X}.6.3X8X8X6..X7.| ) 2.'.'.5X9X",
"9XqX7X$X*X+X|.|.1.=.1..X'.$X5X;X$X+X+X=.=.=.=.D.>XxXiXpXI.L.sXyXI.N.H.v R i i i i t o.5..X}..X.X&X4X3X4XqX8X.XoX.X7.3..X|.'.7X9X",
"9XqX3X7.}.|.|.|.%.' *..X'.;XrXqXoX'.7.} | [ -.zXzXyXpXI.p.F.gXs.L.J.l.z y g i l Y P f &..X}..X6.&XwXwX4XwX8X+X6.7.|..X+X7.}.5XqX",
"7X9X5X'..X|.|.|.=.[ ;.'..X*XqX7X+X|.|.|  .| @XfXuXL.K.K.F.F.I.L.J.Y.x.a y l z P I i i T %X}.+X7.-X8X7X8XeX5X.X|.+X|..X.X|.+X:X9X",
"|.|.+X'..X2.[  .}.oX'.|.|.|..X|.oX|.}.}  .%.R.).I.p.G.K.G.K.K.u.w.x.t...z z I Y P p u P &.$X5X8XqX8X8X4X9X9X}.|..X|.7.;XwX7X9X9X",
"|.7.|.}..X>.) %.7.oX|.|.'.'..XoX|..XoX} [ ,.A.F.s.L.F.G.G.J.u.p.u.q.r.>XW R I l p u l u 8 ].7X8X8XwXqXwX8XwX.X}..X.X|.;X9X7XqXeX",
"|.|.oX|.oX2.[ =.'.oX|.|.|.|..X|.'.}.|.|  .C.Z.H.G.F.G.F.Y.x.q.pX{.F.T.kX..z z p u p h h g j -X9X5X4X3X5X;X4X.X}.}.3.6.-XqX8X7X4X",
"'.|.oX|.|.1.[  .'..X'.|.|.|.|.}.oX.X|.[ 4.k.A.K.F.L.G.K.w.u.hXK.F.F.I.uX~ y k p P u t i g f ].eX;X}.'.}.'.'.}.}.'.' ) .XrX7X.X5.",
".X|.oX+X|.>.}  .6.|.'.|.}.|.|.|.|.|.}.} D.Z.x.x.T.N.L.i.K.tXY.G.G.F.I.gXZ.c r u p p p g t Y T ].3X'.}.}..X}.+XoX'.[ ) +XrX8X.X7.",
">.>.>.>.:.>.>.2.|.|.'.|.|..X|..X3.>.3.@XR.Z.l.x.H.N.N.i.E.tXu.K.G.G.s._.uXr.r h p P i y l Y u o.XX}.+X.X.X}.2.;.1..X.X+X+X*X+X|.",
"] [ [ [ [ 5.+X.XoX.X}.|.|.oX|..X .) 4.R.Z.Z.b.n.i.N.i.i.u.F.G.G.F.K.s.u.pXt.r h p p p i t l Y j U .X.X.X'.}. .' 2.rXrX;X3.|.|.7.",
"%.|  . .} 3.|.7.|.|.|.|.|.|.}.oX=.>.D.A.Z.Y.x.i.B.J.K.t.q.t.K.H.F.F.F.L.uXl.r h j u u g y R z Y T %X.X|.|.}. .} >.qX5X:X}..X}.'.",
" .} =.}.6.|.|.|.|..XoX'..X;X3X7XXXD.Z.A.U.l.r.{.tXF.F.F.t.t.Y.G.G.F.J.i.hXt.r g f u h i i R Y l T =X5.=.*.%.6.6.|.oX|.+X|.'.=.*.",
"[ ] ;..X.X.X|.|.|.'.|.'.5.*XeX6XjXdXy.~ U.v.{.E.I.F.K.K.x.t.i.J.Y.N.N.i.T.n.! t g u g i i l I Y Y &.5.} [ [ +X.X.X'..XoXoXoX .] ",
"=.=.3.|..X|.'.|..X}..X*X.X*X6XjXzXzX..v t.l.pXT.F.J.K.H.N.i.r.x.H.x.i.z.z.n.g.y g u i p i i h U T j S.5.=. ..X7.oX7..X7.3.5.:.=.",
"|.|..X|.|..X|..X}.'.oX7X9X=XjXxXzXp.H.~ k n.u.H.J.G.J.x.i.z.r.q.t.B.i.z.U.b.! i g u h i p p u j j U ].XX+X'..X7..X|.|.1.}  .7.|.",
"|..X.X'.'.|.7.7.|.'.oX7X0XjXxXzXtXs.uXU.a a l.U.Y.H.B.z.h.v.9.r.u.u.x.U.t.r./ y u u h u p h j j T x x ,.+X.X7.|.|.|.|.2.} } '.|.",
"|.|..X.X.X.X'.|.;X*X:X6X1XzXzXiXI.tXE.Z.~ r ~ r.n.n.z.z.V.z.q.x.x.U.n.n.~ W W O.i u p p p h j j f f f &.%X.X'.oX.X7.oX1.} *.7..X",
"|.|.}..X'.|.7.|.9X8X9X,XdXfXfX`.I.uXY.Z.y.z y O.b.v.v.z.B.h.l.H.U.U.H.z.~ ~ ~ k.! l p h h p u j g g t ^ ].XX}..X.X}.oX1.[ %.7.oX",
"|.|.|.|.7..X'.'.7X9X5X,XxXfXyXyXyXF.H.A.O.t g ! b.l.v.h.r.h.U.H.H.H.Y.t.B.v./ c A.Q t i j u f P P Q P l o.%X}..X}..X.X5.[ } 7.}.",
"|.}.oX9X:X5X4X3X9X7X*X1XxXfX_.p.F.K.l.b.k.t f k ! A.M.c r.T.Z.Y.x.x.x.z.z.z.h.r.hX/ r i h t h h Y I I I o.=X+X|.7.=. .2.6.7.|.|.",
"|.|.+XeX9X=X(.(.<X2X0X>XD.P.s.L.F.H.b.M.k.u u g E E ~ / g.B.x.x.u.z.z.z.z.z.h.r.hX[.W i i u l Y P I Q h ^ T XX|.7.' ' 5.+X.X|..X",
"|.|.+X7X5X=X/.#./.@.S.1XC.P.F.s.N.x.e.W Q i g t k z W d.g.l.x.u.z.z.z.x.n.B.z.h.V.U./ t g h l R E R E Y j U %X*X'. .=.5.}..X.X.X",
"9X,X7X9X7X#X!.S L m H S.C.C.u.u.x.l.O.z z i i t k ! O.d.g.l.t.x.z.z.z.l.z.v.z.h.9.M./ r i l z R I R z l U x ,X=X$.9 oX.X7..XoX|.",
"2X2X2X2X9X@.; V n V w e C.q q.Y.B.v.M.M.k.W k i k E O.d.c.c.9.z.v.v.v.b.b.c.h.f.r.M./ i l l R R Q R x _ s X #XG   0 XX$X.X|.|.|.",
"^.#.#.<X2X#X#.> Q.L J e q Z.H.H.U.l.r.d.e./ R z a k d.m.m.c.0.r.v.v.v.M.M.c.g.e.e.d.W l P I E R R z T 9 o 3 & 1 H 1X#X` 4.|.$X-X",
"#X^.!./.D /./.% w L 8.J J a.F.Y.x.v.r.e.f.g.O.k y a d.m.j.j.f.0.g.g.g.g.g.f.e.0.g.d.Q h P I E E R x d 3 3 * @ @ = D +.7 -.+X7X7.",
"^.#.A K m K @.+ @ V J J a.a.x.x.l.v.t.r.q.r.r.W a a ^ f.f.d.f.f.f.e.e.O.e.e.e.r.e.d.! l Y I R I z d s 2 & @ : @ % $ 6 H (.XX(.<.",
"+.N m n n m : $ ; + > V J a.u.l.M.j.t.q.q.q.w.v I i r / e.e.j.f.f.0.g.g.r.r.e.e.r.g.! R Q R z z d 3 O 2 * * * @ = D 6 !./.!., /.",
".X<.% C m > C M M C n V w X.a.b.c.e...y.a.a.J X.Y f s ..y.O.O.d./ c.M.U.U.~ a k.O.e.! k z z x x s 2 2 * X @ = % : N @ + , M C M ",
".X|.~.5 C > ; C L L A ; Z w J D.C.y...X.J a.X.X._ O 2 o o d y...b.Z.A.U.M.W r z O.x s s x 3 3 2 * X # # % : @ @ @ $ : + , C : ~.",
"| ;.=.$.6 H @.; A Q.Q.A n w F F d d e e w Z a.H 3 * 6 , - - d y.Z.G.U.b.! z l t T s O 2 3 * 1 * * - - * # @ @ @ @ $ + , 6 B (.#X",
"}  .=.*.` 4.(.F b A S S V n w 6 * # % % # @ H H 5 = < C > % - J a.w.y...k t u f 8 O 2 1 # . @ @ # # @ = @ @ , % % $ + : 7 G (.#X",
" .} *.5.:.6.|.#XC ; A Q.Q.n m m < , > C C % @ , 5 + @ < < < X X e e q q s s s 9 3 * X * @ $ : = @ , X . = $ 6 C : $ 5 $ 4 0 D |.",
"*.| :.+X|.|.|.0 N M m n n n n n C n % ; < m % N 6 % $ > C < X 1 - - - 2 2 o 2 o X * % # = & & . . = = & 4 7 5 = & @ @ 4 4 ( =.3.",
"[ ] =..X.X.XoX4.B : G !.; m m b ; m > m < < 5 6 5 % < < < M 7 # 5 5 @ & = @ * 6 % @ % * X . _ (.<.1 1 1 0 (.(.G $ 6 & <.(.|.%.| ",
"2.2.6.|.oX+X'.|.(.4.#X*X$.N M M K m m < C @.@.F , > < m < , , = 6 7 : $ $ $ , M % @ # 1 { ` 5.:.>.<.$.>.4.|.6.~.<.$.-.}.=.>.2.5.",
"oXoXoX|.7.oX|.}.7X9X4X}.|.{ D $.*.G D D $.|.|.$.7 C M M , @ @ @ 7 N N $ + < M C = 6 0 _ [ | [ [ >.+XoX.X|.}.'.|.|.|.}.2.] *.7.oX",
"}.}.}.oX}.|.oX|.5X7X5X}.|.2. .[ | | G -.|.|.}.|.(.: 6 % . 5 @ $ 5 7 7 $ + : 7 5   7.oX>.|  .[ ] =.|.|.'.7.|.|.|.oX'.oX2.] | 7.}.",
"oX.X}.+X|.-X8X8X&X}.|.|.+X>.[ *.7..X|.|.'..X.X|.7.|.|.*._   1   <.$.  . (.#X>.-.=.*.%.} [  .|..X|..X.X}.|..X|.|.6.[ =. .}  .|..X",
"}..X|.oX'.:XeX7X|.|.oX.X.X5.[ ) 7.|..X|.}.|.|..X7..X|.=.] =.3.<.|..X-.XXeX4X[ } [  .[ | } | |.|..X}.|.}.|.|.'..X'.] [ } | } 7.}.",
"}.'.7.oX'.;X7X7X+X|.7.7.5.1. .*.}.|..X|.|.|.7.7..X7.6.>.| >.+X.X.X}..X*X9X*X[ | %. .[  .*.=.'.|.|.}..X|.|.oX6.7.6.=.%. . .=.|.oX",
"} [  .|.7.|.7.|..XoX3.} } 3..XoX|.'.|.'.|..X|..X=.' %.7.].*XeX7X7XeXeX} )  . . . .} %.6..X.X.X.X.X.X.X'.7.|. .[ =.|..X$X.X|.|.'.",
"} [ =..X|..X6.|.|.|.3.} [ =.|.|..X7.'.'.7.7.7..X>.)  .|.7..X7X7X9X5XeX=.[ } } [ } [ } 5..X'.'.7.7.'.|.|.'..X| [  .+X7.|.7.|.7.7."
};
