/* XPM */
static char *df78bdc0f6e94476a4f72cd16dde7f72[] = {
/* columns rows colors chars-per-pixel */
"64 64 232 2 ",
"   c #000B04",
".  c #011402",
"X  c #011B02",
"o  c #0B1805",
"O  c #02150C",
"+  c #041A0A",
"@  c #090919",
"#  c #150E1E",
"$  c #071815",
"%  c #11151C",
"&  c #171B1B",
"*  c #032202",
"=  c #0B2404",
"-  c #0A2706",
";  c #0B2B0D",
":  c #0D2C0C",
">  c #142A08",
",  c #133503",
"<  c #143905",
"1  c #193808",
"2  c #172819",
"3  c #1A3413",
"4  c #183617",
"5  c #1A3B13",
"6  c #24330D",
"7  c #263815",
"8  c #243C1C",
"9  c #0E0D24",
"0  c #140E24",
"q  c #170A28",
"w  c #0D1626",
"e  c #151324",
"r  c #191326",
"t  c #141B24",
"y  c #1B1B24",
"u  c #161329",
"i  c #1B152C",
"p  c #161A2B",
"a  c #1C1A2C",
"s  c #1B1631",
"d  c #1C1A31",
"f  c #181936",
"g  c #22162D",
"h  c #211A2E",
"j  c #261A37",
"k  c #221C34",
"l  c #1C2429",
"z  c #1C3724",
"x  c #242529",
"c  c #283924",
"v  c #252235",
"b  c #292736",
"n  c #262339",
"m  c #2B243B",
"M  c #2C2A3C",
"N  c #31273D",
"B  c #35383B",
"V  c #1C420C",
"C  c #1E4218",
"Z  c #25480A",
"A  c #244315",
"S  c #274915",
"D  c #25431C",
"F  c #2E5415",
"G  c #335317",
"H  c #294526",
"J  c #354829",
"K  c #3A5727",
"L  c #384636",
"P  c #3B5336",
"I  c #3F6124",
"U  c #44582B",
"Y  c #424E39",
"T  c #45573B",
"R  c #466C2B",
"E  c #57683A",
"W  c #55773B",
"Q  c #69733E",
"!  c #2D2742",
"~  c #332C44",
"^  c #392E46",
"/  c #353144",
"(  c #393547",
")  c #3C344C",
"_  c #3C394E",
"`  c #3D3851",
"'  c #433548",
"]  c #42354C",
"[  c #433C4E",
"{  c #4B3C4D",
"}  c #433C53",
"|  c #4B3E53",
" . c #463B58",
".. c #513E50",
"X. c #4C3C63",
"o. c #3C4743",
"O. c #45434B",
"+. c #4A4B4D",
"@. c #485A45",
"#. c #52564C",
"$. c #444155",
"%. c #4A4154",
"&. c #4C4D51",
"*. c #46425A",
"=. c #4B435B",
"-. c #4D495D",
";. c #534455",
":. c #52445B",
">. c #56485A",
",. c #5A4A5B",
"<. c #4F5053",
"1. c #4E5754",
"2. c #525355",
"3. c #555A53",
"4. c #555659",
"5. c #57585B",
"6. c #5A5A5D",
"7. c #604E5E",
"8. c #675E5F",
"9. c #526747",
"0. c #52644C",
"q. c #5B7548",
"w. c #596557",
"e. c #65774A",
"r. c #687656",
"t. c #4A4561",
"y. c #544766",
"u. c #544B63",
"i. c #5B4E64",
"p. c #565365",
"a. c #5D5165",
"s. c #5C5D61",
"d. c #5C5269",
"f. c #624F62",
"g. c #665866",
"h. c #63546B",
"j. c #66596D",
"k. c #6A5B6D",
"l. c #725C6E",
"z. c #655A72",
"x. c #6B5C73",
"c. c #695A76",
"v. c #735F73",
"b. c #5F6063",
"n. c #5F6C63",
"m. c #5B7562",
"M. c #626365",
"N. c #696766",
"B. c #646569",
"V. c #67696B",
"C. c #6A6B6E",
"Z. c #75646D",
"A. c #697565",
"S. c #74776C",
"D. c #6B6475",
"F. c #6D6E71",
"G. c #6D6379",
"H. c #776677",
"J. c #72647A",
"K. c #6E7073",
"L. c #727375",
"P. c #757679",
"I. c #797678",
"U. c #77797B",
"Y. c #7A7B7E",
"T. c #816A74",
"R. c #846E7B",
"E. c #8B737B",
"W. c #91777D",
"Q. c #5E843E",
"!. c #6E8451",
"~. c #758366",
"^. c #7B8477",
"/. c #868F68",
"(. c #848878",
"). c #8A9879",
"_. c #92AC76",
"`. c #786C84",
"'. c #7D7383",
"]. c #7D7E81",
"[. c #7D7C89",
"{. c #836E80",
"}. c #847483",
"|. c #8C7682",
" X c #867A89",
".X c #937B86",
"XX c #8B7E95",
"oX c #7F8183",
"OX c #828385",
"+X c #858A85",
"@X c #848689",
"#X c #858689",
"$X c #8B868C",
"%X c #86888B",
"&X c #898A8C",
"*X c #898A8D",
"=X c #9B848E",
"-X c #8D948A",
";X c #93978B",
":X c #8D8293",
">X c #8C8D91",
",X c #958898",
"<X c #8E9193",
"1X c #929395",
"2X c #989B94",
"3X c #949599",
"4X c #97989B",
"5X c #9A9B9D",
"6X c #A38D9A",
"7X c #A3989D",
"8X c #A1AB8F",
"9X c #A3A69C",
"0X c #9C9EA2",
"qX c #A898A6",
"wX c #AC98A9",
"eX c #9FA1A4",
"rX c #A2A3A5",
"tX c #A7AAA3",
"yX c #A5A6A9",
"uX c #A7A9AC",
"iX c #A9AAAE",
"pX c #B6A0AD",
"aX c #ACAEB1",
"sX c #B8A6B5",
"dX c #AEB1B4",
"fX c #B2B3B6",
"gX c #B5B6B9",
"hX c #B7B9BB",
"jX c #C1ACB9",
"kX c #C1B1BB",
"lX c #BCB0C6",
"zX c #CAB6C5",
/* pixels */
"Y.].Y.Y.P.oXU.U.Y.U.U.U.Y.U.Y.I.Y.].P.<.&.2.+.&.L.Y.].rXyXrXrXuX<XL.].4.+.4.2.O.B.oXL.U.].].L.OXU.OX].6.&.&.Y.Y.L.oXP.Y.Y.I.2.O.",
"].OXOX#XOX#XOXOX%X%XOXY.OX^.OX%X#XOXOXs.6.4.4.2.L.oX*XuXaXaXuXiX4X*X*XM.4.6.4.2.K.#XOX#XOX#X].].#XOX#Xb.<.4.].%X*XOX%X#X#XOXM.4.",
"OXoXOXOX#XOXOX#XK.V.P.OX%X#XOX%XL.C.C.4.6.M.Y.F.1X0X4X3X<X3X1X0XP.C.F.6.4.M.L.L.].OXOXOXY.*X0X0X<X].>XY.L.P.oXOX].M.C.V.C.C.L.L.",
"OXoX#X].%XOX#X%Xs.O.b.].OX#XOX#X5.4.6.4.6.C.>X].rXdXiX#XY.OX].#XV.<.2.6.4.M.#XOXOX].#X#X].*XyXfX0X].*XOX#X*X#XOXY.4.2.4.2.2.].OX",
"OX#X*XY.#XOXOXOXC.4.C.OXOX#XOX#XM.4.4.6.2.M.OXOXeXdXaX#X].*XOX#XV.6.4.b.5.s.#X].OX].].].oX>XeXfX4XOXOX#X].].OX#X].4.<.M.5.6.Y.Y.",
"oXOXY.6.M.s.s.s.U.].OXOXOX#X].%XM.4.s.OXOX].#XoX].#X#Xs.6.M.s.6.L.#X].].].#XuXyXrXiXiXyXyXrX*X#X>XOXOX*XOX].#X#X].4.5.P.I.OX#XOX",
"*X*XU.4.4.5.5.5.].>XOXY.].OX].*Xs.&.5.oX*X#XOXOX].OXoX6.4.4.4.&.C.*XOXoXOX>XaXiXaXfXaXiXaXyXOXY.*X#X].#XOX#X#X#XL.4.4.L.OX#XOXOX",
"].].L.5.s.s.s.s.].#X].*X>X#XY.Y.C.M.C.Y.OXY.oXOXOX#XOXs.4.5.B.b.P.*XOXOX].*XiXrXyXyXrXiXiXrX#X#XOXOXoX#XOX#XY.Y.L.B.5.I.*XOX#XOX",
"5.2.s.s.5.P.>X#XOX].>XiXgXOX2.2.].#XOX#X%X].OX#X].#X#XM.&.F.*X#X].oX#X].OXoXoXP.3XdXiXuXyXrX#XOX#XOX#X#X#X].5.<.b.%X*X#XOX].#X].",
"5.2.s.4.2.F.#X].OXY.*XaXgXOX2.2.I.OXOXOXOXoXOX#X%X#XOXM.&.C.OXOX#X#X#X*XOXOXOX].3XfXuXaXfXaX].].OX#X].Y.#XoX4.2.B.OX#XOXOXOX%X*X",
"F.F.L.L.F.].%X%X1X3X3X3X4X#XB.M.OX#X%X#XOXOXOX#XU.C.L.K.C.P.OXOXOX].].OX].#X1X1X4X0X1X3X4X4XoX#X#X*X#XoX#X#XF.K.L.OXOX#X#XOXL.F.",
">X#X>X>X%XOX].OXaXgXrX].P.#X#X*X#XY.OXOXOXOXY.OXM.+.s.].#X#XOX#X#XOX*X].OX<XfXhX1XY.].Y.Y.].#XOX#X#X#X#X].#X#X#X%X#XoXOXOXoXb.2.",
"].].oXOXOXOXOX#X0XiX0X#X].OX].OXOXY.#X#XoX#XOXOXC.<.b.oX%X#XOXOXoX].#XOXoX*XrXaX4X].#XOXoXOX*XOXoXOXoXoX].#X*XOXoXoX%X*X#XOXM.2.",
"%X*X*X].OX3X0X0XaXaX0XOXOXOXOX*XOXOX*XOXY.<XrXeX%XL.Y.OX].OXOXOXOXOXOXeX0X0X*X*X>XoXoXOXOXOXB.M.F.%XoXoX#X#XoXOXOXoX%XL.b.V.P.Y.",
"U.].OXY.].0XfXfXaXiXeXY.OXOXOXOXY.Y.OXoXY.3XgXgX1X#X%X%XoXOX#XoXOXOX].aXdXaXoXY.].].OX#X#XoX4.&.M.#XoXoX#XoXoX#X#XY.%XF.<.2.Y.%X",
"#X#X>X*XOX3XrXyXrXrXeXoX%X].OXOX*XOXOX*X#X<XuXrX>XY.OX%XOX#XOXY.oX#XOXrXrXeXOX%X%X].#X].].Y.B.s.K.%XoX#X#X#X*X#X*XY.%XL.5.5.oX%X",
"iXiXyXiXaX3X].#X].%X#XY.#XOXOX].eXyXaXyXiX3XY.OX#X#X].OX#XP.5.5.L.#X].#X#XOXOX#X#XOX#XB.4.s.oXoX*X#XoXoXoX#XuXuXeXoX#XL.4.5.OX%X",
"yXaXiXiXiX4X].OXOX#XoXOXY.OX#XY.yXyXdXiXfX0X].OX#X*XOX#X>XY.2.+.C.OX].Y.oX#X#X*XoX#X#XB.<.s.oX#X*XoXoXoXoX].rXhXuXOX#XF.2.4.I.Y.",
"yXiXiXyXiX3X].OXOXOXoX#X].#X#X].yXuXiX3X0X1X].OXP.C.L.P.L.L.L.M.].4X4XOXOX#XF.K.K.P.P.C.B.K.oX].#XoXoX>X3X<X<X5X>XC.L.L.B.C.*X1X",
"yXyXiXiXaX3X].#X#X*X#XOX*XOXoXY.rXuXyXY.Y.OXY.OXC.&.5.6.2.6.*X].5XaXaXOX].Y.4.5.4.4.5.P.#X*X#X#X#XOX].eXdXdX#XOXI.<.2.L.OX#XuXfX",
"uXiXiXyXaX3XoX#XOXoXOXOX#X].OX].uXfXfXOXOX#X#X*XK.N..X.Xx.[ a.( >XyXgX*X*XOX5.4.s.6.4.].*XoX].oX#XoXU.0XuXuXU.#XY.5.+.K.].].rXiX",
"iXaXyX>X1X*XOXOXF.M.F.#X].>XrX4X>X*X*XM.B.M.M.B.I.|.|.Z.f.| | ^ ( P.3XB.M.C.5.s.6.5.4.P.OXoX#X#X<XeX0XeXaXuX#X%X#XY.L.#XOX].yXiX",
"iXaX0XY.oXOXOXOXs.&.b.#X].4XgXaX%X].Y.4.5.2.2.C.=X|..Xg.;.| } ) M b K.5.2.s.4.4.6.6.4.P.OXoX#XU.<XdXdXeXdXuX*XU.Y.OX#X*XY.oXrXaX",
"uXiXrX].#XOXOXOXM.2.B.].#X1XaXuX*XOXOX5.6.5.5.E.E.|.R.,.' [ =.=._ b M s.2.s.6.4.6.6.6.U.#XoX%XU.3XuXyXuXfXrX#XOX*XOX#X#XOX*X5XiX",
"OXOX*X].#XK.2.6.oX%X].OXOXOX#XOX%XOX].4.6.6.E..X.XR.g.>.( $.$.} $.} v % s.M.#XOX#X#XOX#XoX>XrXuXaXuXuXeXiXiXoXOX#XOXY.4XdXyXiXiX",
"OXY.OXoX#XV.+.s.Y.%XOXOX].].#X%XOX#X%X4.2.N.=XT.=XzX{ [ %.*.$.*./ @ i b b 6.#X].OXY.].OXY.oXyXuXuXdXaXdXuXdX#XoX#X#XOX4XiXyXaXfX",
"OXOX%XOX%XK.2.M.].%XOXOXOXOX#XOX].].OX5.6..XT.wX6X;.| =.} _ -.v M } } a e 5.*XOX*X>X>X<X>X>XuXiXrXeX0XrX4XeX#XoXoXL.I.3XaXuXyXeX",
"].OX%XOXOXF.2.6.].#X].OXOXOXOXoX%X#XOX4.I.=X6X,XH.^ %.$.} $./ ! ) } } v r _ U.].3XfXaXaXaXuXdXdX4XoX].oX].].oXoX].&.+.#XgXyX#XP.",
"#XOX%X*XOXC.4.6.U.OX].OXoXOXOXOXOXOXoX2.,XsXjX7.^ | =.*.} _ u } *. .%.k i r b ].3XaXiXaXaXdXiXdX0X].oXoX#XoX*X%X].2.+.*XgXuX#XY.",
"C.V.C.C.V.C.C.K.OXOX].OXOX#XOX#XL.C.L.$XqX}.{ { =.=.` *.~ u u.} ) =.c.m r v h M 1X>X>X3X*X<X<X3X<XoX*X#X#XoXK.B.F.#X#X*X*X1X*XOX",
"<.2.2.2.2.P.*X#X%X#XoXOXOX%XOX#X6.+.6.<X}.>.| | } =.t.! k m [ ' u.z.=.k i r r b &.U.OXOXU.].].oXoXoX#X#X].oX6.&.K.hXgX4XL.OXOXY.",
"s.5.6.6.4.L.OXY.OXOXOXOXOXOXoX%XM.4.L.'.>.' | | } ! ) s i k } d.d.u.m k a k a y a B.*X].*X*XOXOX#X].#XOXOXoX6.4.C.aXrX5XoX#XoX].",
"6.4.B.oXU.OXOXOXOX#X%X].#X4X0XuXOX]. Xa.| >.^ } m k u d i h } -.-.~ 0 i k d i d u u.OXB.6.s.M.6.M.s.s.M.b.s.I.I.OX%XOX*XOX].M.b.",
"2.<.B.#X#X#XOXOXOX].OX].P.1XfXdX*X<X:XJ.a.x.j i i k k k u v e a u i v d d s u k k i &.M.&.2.6.4.s.2.2.4.2.2.*X%X#X].#X%X%X%X6.<.",
"M.M.L.OX#X#X].OX#XoX#X1X#X1XiX5X>X|.|. X}.'.f.h.h.=.[ d d u i n d d i 0 ) } / k u a M P.B.M.6.5.M.6.5.M.B.6.#XY.%XY.#XY.L.P.V.M.",
"OXOX#XOXOX#XOX#XoX].%XyXiX1X#X$X|..X.X.X|.R.k.f.H.,Xd. .v i d 0 a a i ~ ` ` t.d k i n s.#X].b.6.6.b.6.L.*X].#XY.#XOXOXF.4.6.Y.OX",
"OX#X#X].].OXY.Y.OX].%XyXgX3X].$XW.W.W.E.R.g.l.l.,XwXu. .~ d u k i v i ` *.} ` k u u v @  XOX6.4.4.4.&.C.#X#XY.OXOXOXOXK.4.4.].OX",
"OXOX#X#X#X#X].OX4X1X5XuXiX3X X}..XW.W.W.R.Z.,.pX,X;.i g i i k a d a d ) } ) s i d n a 9 [.>XM.4.C.K.K.OXoX#X].%X#XY.%XF.4.b.Y.#X",
"OXOXoX#X].OXY.OXiXuXiXaXrXI.qXkX6XW.W.W.R.,.jX,XH.;.g i ^ z.) =.n i $.p.m a k i i i 0 i } -.p.F.P.#X#X*XOX#XoX#X#XoX%XF.2.s.Y.%X",
"OXOXOX*XOX%XY.Y.yXiXrXiXqX>. XqXjX6X7XwXqX6X XH.| j | | i.x.d.=._ / n n n i s s ! ~ } ~ _ _ *.D.-.%X#XY.OXOXoX#XoX#X#XP.2.4.Y.oX",
"OXOX<XrX*X2X5X5XiXiXrX<X X{ ;.}.wXsXjXwXqX,X,.| ] N J.J.h.x.x.a.u._ u i a i k k ) =.=._ =.*.} *.0 ) #X].#X#XOXOXY.M.6.K.Y.Y.OXOX",
"OXOX1X5XS.A.;X9XyXiXrX'.,.;.{ ;.H.sXsX}.;.' ,.] i.x.c.c.x.c.h.XXD.M n k u i n  .| =.| =. .} *.} m u i @ ].#XOXoXY.&.&.P.*X#XOX#X",
"OXOX<X9X;Xr.r.(.9X7X7XsXwX>...{ ;.{ | %.,.j.^ j.x.G.i.j.h.k.,X:.N i i i k n ) ] ] :.h.z.i.}  .k j s u y x y -.>XoX4.6.P.oX#X#X#X",
"uX9XtX9X8X).e.r.(.2XI.I. X6XR.g.,.h.a.i.i.h.x.=.a.x.J.j.J.}.i.:.m a v a 0 m  Xa.h.h.c.G.=.=.] k q j ^ / x y M D.0XOXOX%XOX%X%XOX",
"5X;X;X).)._.q.E r.9XN.g.Z.6X6X,X{.k.k.J.H. XH.>.:.=.j.x.`.x.' :.^ @ k 0 m u.'.J.h.c.x.u.:.] ) ~ ^ } -.%.a r a p 4X#XOX^.(.+X%X*X",
"tXS.r.e.e._.G G !.).N.6.g.7.wXsXwXg.Z.}.,XsXa.J.} h d.XXj.' :.} ~ a i 0 x.:Xh.j.x.c.h.| =.N m c.`.u./ %.b d 9 m >X%X^.7 r.A.OX3X",
"rXtXT K !.Q.Z Z A 8 #.N.g.k.Z.H.6XpXpXzX,X' | { } %.r `. Xi.| =. .^ h r } G.z.j.j.j.] :.0 i.lXx. .=.%.a a d f s b c U !.E ^.uXaX",
"iX9X2Xq.F Q.F , > 7 w.M.g.g.x.g.R.kX{.l.h.] =.} } } r n d. X) |  .} h i ^ h.j.G.J.h.z.g `.,X`.~ ~ n v i u d s d % c 6 1 /.-XeXyX",
"*X1X2X~.1 R S , o 2 2.C.g.g.v.7.H.jXx.X. .X. .=.$.} ~ 0 =.'.:.:.} } q j N ] '.j.c.c.x.q `.XX^ s f f s a i d s p t 2 - X r.^.*X>X",
"+X(.-Xr., Z S , o . <.g.g.k.x.l.R.pXx.y.X.X. . ._ $.*.k ^ z.z.:.} ` s i q ^ XXk.c.z.h.k | } i d f f s i i i d d t 2 . * 3 J M.oX",
"e.r.J 1 Z !.F - . . 3.B.g.c.c.j.l..X,.|  . .} [ %.$.=.j q j J.:.! u n u h i #  X,X`.} k a i e d d d y y h i s d p $ X - A ).1X*X",
"/.Q E U Z Z R I , . #.s.j.J.z.j.k.l...{ | | %.%.} / y.! s ! c.-.~ e e a y a x b M M i v i p p y y y y y y a d d w O . * 1 K T Y ",
"/.!.~.q., , W W G > J w.D.d.c.x.x.k.;.| | [ %.[ $.*.~ f f n d.B b e x a e a e a e d u p e t t y y y & & y y d f $ O + X D 1 L A.",
"S.^.~.q.1 * F W q.A 3 L 4.g.x.k.g.j.| } } [ [ } _ _ 9 u d t o.l % l y & y y y i d d p p l l t t y y & & y y t w $ $ * X 8 P A.OX",
"C.U.@.5 < F * S q.D -   x N.g.k.j.G. . . . .*.*.) 9 v l 2 & o o 2 & % y l t i d d s d a a i u v i i y y & % $ O O ; H P 4 ^.b.M.",
"b.o.c D V V < < * H X o o & 8.g.D.'.%. . . .} *.( t % & o > q.r.L   $ $   % p a d d d d i a d a d f t % $ O O O z 4 * - +XOXb.<.",
"P.C.S.9.1 1 V < , 5 4 - . . c +.L.*X&.$.} *. .-.b 2 7 J U U e.U 2 + . 2 2 2 % p u d i p y p u d w p w $ $ . + X : : - 3 w.K.K.L.",
"*X<X*X^.Y E P K V 5 D : - - . c w.A.B ( ( B B B B > 6 E e.W W - . : : 4 4 4   % l t t % % % p p w @ O O . X * - X 8 @.0.L M.Y.%X",
"oXOXOX%X+X*X;Xr., S V V D D H 3 X c c ;   $ . 4 8 7 S < I W < < 4 C 5 * * X - $ $ O + + + O $   O X X - * X X H L c w.K.<.5.Y.oX",
"%X#X].*XOX3X0.8 A V C V V 5 - 5 4 X H 8 3 X X * , S 1 Z Z A D : 4 4 D * X * * . O O X X . . $ $ X : 3 X 1 3 8 c U.4.M.6.4.6.OX#X",
"oX#XOX%X].0X5X-XA.7 1 A P A.w.T : 3 * 5 C : 4 X * 5 < , 5 5 4 m.^.A., , 1 1 : ; X + X 3 3 : . 2 > > J A.J 8 @.U.].2.2.4.5.4.Y.oX",
"oX].Y.%X].4XyXyX-Xw.w.0.w.P.M.n.1.w.J 5 5 H @.P P @.0.@.@.0.w.%X#XOX0.H A 5 c . X ; * D 3 : 2 n.n.w.A.OXS.w.V.Y.U.B.b.6.6.M.OX%X",
"4.2.s.OXY.OXY.OX#X%XI.6.5.L.#X*XOXOX#Xw.8 #.%X#XB.2.M.^.OX1XaXyXyXfXfX@.7 Y L l L o.L P 8 c n.#X#X#X#X].Y.OX6.2.M.OX#X>X#XOXOX].",
"4.2.M.#XOX#XU.OXOXOXL.4.2.B.OXOX#XY.OXOX^.].].#XC.+.6.OXY.#XyXyXiXrXaXC.5.5.4.2.5.4.6.Y.+XoXoXY.Y.].OXOX].#X5.2.6.*XY.OXY.OXY.Y."
};
