/* XPM */
static char *c02f5164b37d4d338c85dab40581f352[] = {
/* columns rows colors chars-per-pixel */
"64 64 244 2 ",
"   c #000504",
".  c #010B03",
"X  c #00050A",
"o  c #020B0C",
"O  c #080A09",
"+  c #011403",
"@  c #021B02",
"#  c #03140B",
"$  c #091709",
"%  c #051B0B",
"&  c #0A1B0C",
"*  c #020C11",
"=  c #0B0E17",
"-  c #041214",
";  c #0A1415",
":  c #051914",
">  c #0A1C14",
",  c #051319",
"<  c #0B1319",
"1  c #051B1A",
"2  c #0B1C1D",
"3  c #141B19",
"4  c #121B1E",
"5  c #032301",
"6  c #092304",
"7  c #052902",
"8  c #0C2A02",
"9  c #05210B",
"0  c #0C240B",
"q  c #122A0B",
"w  c #122D0C",
"e  c #0E3502",
"r  c #143605",
"t  c #1C3C05",
"y  c #153C0B",
"u  c #1C3D0C",
"i  c #0C2416",
"p  c #132B15",
"a  c #14231D",
"s  c #1A2919",
"d  c #0E3113",
"f  c #1B3514",
"g  c #1C3B14",
"h  c #1B3619",
"j  c #233C0E",
"k  c #213B15",
"l  c #223D1C",
"z  c #0D1B21",
"x  c #141C22",
"c  c #1B1F24",
"v  c #0E2324",
"b  c #0B2626",
"n  c #142324",
"m  c #192426",
"M  c #162A24",
"N  c #15252A",
"B  c #1B252A",
"V  c #152A2B",
"C  c #1B2B2D",
"Z  c #18322A",
"A  c #172931",
"S  c #1C2C32",
"D  c #183433",
"F  c #1D3334",
"G  c #1E3A38",
"H  c #202A27",
"J  c #222A2D",
"K  c #253827",
"L  c #323D2E",
"P  c #222D32",
"I  c #2A2D36",
"U  c #233434",
"Y  c #293537",
"T  c #243A36",
"R  c #253439",
"E  c #253B3B",
"W  c #2B3C3C",
"Q  c #363F3A",
"!  c #323C3E",
"~  c #1B4505",
"^  c #1D420C",
"/  c #1D4417",
"(  c #22430D",
")  c #264908",
"_  c #2D530C",
"`  c #224414",
"'  c #234B14",
"]  c #27441C",
"[  c #285119",
"{  c #395A1A",
"}  c #1E4322",
"|  c #2C4626",
" . c #324B2D",
".. c #375529",
"X. c #294339",
"o. c #384938",
"O. c #3C5536",
"+. c #43583B",
"@. c #49682B",
"#. c #51712E",
"$. c #4A6A36",
"%. c #58753A",
"&. c #273641",
"*. c #2D3C42",
"=. c #383C41",
"-. c #284342",
";. c #2D4342",
":. c #334344",
">. c #384648",
",. c #334C4B",
"<. c #3C4C4D",
"1. c #39534A",
"2. c #3B4851",
"3. c #3C5454",
"4. c #3C5456",
"5. c #3E5B59",
"6. c #3F6140",
"7. c #43474A",
"8. c #4A4B4D",
"9. c #46574A",
"0. c #454D51",
"q. c #4C4D51",
"w. c #4E5153",
"e. c #455959",
"r. c #435C5C",
"t. c #525356",
"y. c #505B53",
"u. c #555659",
"i. c #56595B",
"p. c #5A5B5D",
"a. c #4C6648",
"s. c #536C4B",
"d. c #5B7847",
"f. c #47645C",
"g. c #586757",
"h. c #5B7156",
"j. c #6C7548",
"k. c #667B4A",
"l. c #677958",
"z. c #4B5C63",
"x. c #575E61",
"c. c #5C5D61",
"v. c #466462",
"b. c #4B6564",
"n. c #4C6966",
"m. c #4C656A",
"M. c #4D6B69",
"N. c #4F6C6B",
"B. c #5F6163",
"V. c #566868",
"C. c #536D6C",
"Z. c #54726D",
"A. c #58746E",
"S. c #5A786C",
"D. c #556D71",
"F. c #567371",
"G. c #5A7573",
"H. c #5A7774",
"J. c #5B7975",
"K. c #5D7A79",
"L. c #616365",
"P. c #656F63",
"I. c #656669",
"U. c #66696A",
"Y. c #6A6B6D",
"T. c #687965",
"R. c #6C726C",
"E. c #737C63",
"W. c #646B71",
"Q. c #6D6E71",
"!. c #6E7073",
"~. c #647975",
"^. c #627C7A",
"/. c #6C7C7B",
"(. c #727375",
"). c #747A73",
"_. c #747679",
"`. c #76797C",
"'. c #7A7B7D",
"]. c #648048",
"[. c #76885C",
"{. c #6B8268",
"}. c #71876D",
"|. c #66837B",
" X c #798779",
".X c #7B847D",
"XX c #8A8F7B",
"oX c #889879",
"OX c #83A269",
"+X c #667882",
"@X c #777F80",
"#X c #7D7E81",
"$X c #698684",
"%X c #6C8484",
"&X c #738685",
"*X c #7E8183",
"=X c #738B8B",
"-X c #74928D",
";X c #7C998F",
":X c #7B9493",
">X c #7D9995",
",X c #828385",
"<X c #848A84",
"1X c #848689",
"2X c #858689",
"3X c #87888A",
"4X c #86898B",
"5X c #898B8C",
"6X c #898A8D",
"7X c #879587",
"8X c #8B918D",
"9X c #929885",
"0X c #8C8D91",
"qX c #8D9193",
"wX c #839A98",
"eX c #929395",
"rX c #929C93",
"tX c #9B9F93",
"yX c #949599",
"uX c #97989C",
"iX c #9A9B9E",
"pX c #9AA785",
"aX c #91AB92",
"sX c #99A39C",
"dX c #A3A799",
"fX c #969CA2",
"gX c #9D9EA1",
"hX c #8BA7A4",
"jX c #9EA1A3",
"kX c #94A9A8",
"lX c #93B2A8",
"zX c #9AB5B3",
"xX c #A2A3A5",
"cX c #A6AAA7",
"vX c #A5A6A9",
"bX c #A7A9AC",
"nX c #AAABAD",
"mX c #A9AAAE",
"MX c #ACAEB1",
"NX c #AEB1B4",
"BX c #A3BDBB",
"VX c #B1B3B6",
"CX c #B5B6B9",
"ZX c #B7B9BB",
/* pixels */
"'.#X'.'._.*X`.`.'.`.`.`.'.`.'._.'.#X_.w.q.t.8.q.(.'.#XxXvXxXxXbXqX(.#Xu.8.u.t.7.I.*X(.`.#X#X(.,X`.,X#Xp.q.q.'.'.(.*X_.'.'.`.t.7.",
"#X,X,X2X,X2X,X,X3X3X,X'.,X.X,X3X2X,X,Xc.p.u.u.t.(.*X6XbXMXMXbXmXuX6X6XL.u.p.u.t.!.2X,X2X,X2X#X#X2X,X2XB.w.u.#X3X6X,X3X2X2X,XL.u.",
",X*X,X,X2X,X,X2X!.U._.,X3X2X,X3X(.Y.Y.u.p.L.'.Q.eXgXuXyXqXyXeXgX_.Y.Q.p.u.L.(.(.#X,X,X,X'.6XgXgXqX#X0X'.(._.*X,X#XL.Y.U.Y.Y.(.(.",
",X*X2X#X3X,X2X3Xc.7.B.#X,X2X2X2Xi.u.p.u.p.Y.0X#XxXNXmX2X'.,X#X2XU.w.t.p.u.L.2X,X,X#X2X2X#X6XvXVXgX#X6X,X2X6X2X,X'.u.t.u.t.t.#X,X",
",X2X6X'.2X,X,X,XY.u.Y.,X,X2X,X2XL.u.u.p.t.L.,X,XjXNXMX2X#X6X,X2XU.p.u.B.i.c.2X#X,X#X#X#X*X0XjXVXuX,X,X2X#X#X,X2X#Xu.w.L.i.p.'.'.",
"*X,X'.p.L.c.c.c.`.#X,X,X,X2X#X3XL.u.c.,X,X#X2X*X#X2X2Xc.p.L.c.p.(.2X#X#X#X2XbXvXxXmXmXvXvXxX6X2X0X,X,X6X,X#X2X2X#Xu.i._.`.,X2X,X",
"6X6X`.u.u.i.i.i.#X0X,X'.#X,X#X6Xc.q.i.*X6X2X,X,X#X,X*Xp.u.u.u.q.Y.6X,X*X,X0XMXmXMXVXMXmXMXvX,X'.6X2X#X2X,X2X2X2X(.u.u.(.,X2X,X,X",
"'.#X(.i.c.c.c.c.#X2X#X6X0X2X'.'.Y.L.Y.'.,X'.*X,X,X2X,Xc.u.i.I.B._.6X,X,X#X6XmXxXvXvXxXmXmXxX2X2X,X,X*X2X,X2X'.'.(.I.i.`.6X,X2X,X",
"i.t.c.c.i._.0X2X,X#X0XmXCX,Xt.t.#X2X,X2X3X#X,X2X#X2X2XL.q.Q.6X2X#X*X2X#X,X*X*X_.yXNXmXbXvXxX2X,X2X,X2X2X2X#Xi.w.B.3X6X2X,X#X2X#X",
"u.t.c.u.t.Q.2X#X,X'.6XMXCX,Xt.t.`.,X,X,X,X*X,X2X3X2X,XL.q.Y.,X,X2X2X2X6X,X,X,X#XyXVXbXMXVXMX#X#X,X2X#X'.2X*Xu.t.I.,X2X,X,X,X3X6X",
"Q.Q.(.(.Q.#X3X3XeXyXyXyXuX2XI.L.,X2X3X2X,X,X,X2X`.Y.(.!.Y._.,X,X,X#X#X,X#X2XeXeXuXgXeXyXuXuX*X2X2X6X2X*X2X2XQ.!.(.,X,X2X2X,X(.Q.",
"0X2X0X0X3X,X#X,XMXCXxX#X_.2X2X6X2X'.,X,X,X,X'.,XL.8.c.#X2X2X,X2X2X,X6X#X,XqXVXZXeX'.#X'.'.#X2X,X2X2X2X2X#X2X2X2X3X2X*X,X,X*XB.t.",
"#X#X*X,X,X,X,X2XgXmXgX2X#X,X#X,X,X'.2X2X*X2X,X,XY.w.B.*X3X2X,X,X*X#X2X,X*X6XxXMXuX#X2X,X*X,X6X,X*X,X*X,X#X2X6X,X*X*X3X6X2X,XL.t.",
"3X6X6X#X,XyXgXgXMXMXgX,X,X,X,X6X,X,X6X,X'.qXxXjX3X(.'.,X#X,X,X,X,X,X,XjXgXgX6X6X0X*X*X,X,X,XI.L.Q.3X*X*X2X2X*X*X,X*X3X(.B.U._.'.",
"`.#X,X'.#XgXVXVXMXmXjX'.,X,X,X,X'.'.,X*X'.yXCXCXeX2X3X3X*X,X2X*X,X,X#XMXNXMX*X'.#X#X,X2X2X*Xu.q.L.2X*X*X2X*X*X2X2X'.3XQ.w.t.'.3X",
"2X2X0X6X,XyXxXvXxXxXjX*X3X#X,X,X6X,X,X6X2XqXbXxX0X'.,X3X,X,X#X_.`.#X#XgXxXjX,X3X3X#X2X#X#X'.I.c.!.3X*X2X2X2X6X2X6X'.3X(.i.i.*X3X",
"mXmXvXmXMXyX#X2X#X3X2X'.2X,X,X#XjXvXMXvXmXyX'.,X2X2X#X,X!.i.0.=.<.<.0.w.t.(.,X2X2X,X2XI.u.c.*X*X6X2X*X*X*X2XbXbXjX*X2X(.u.i.,X3X",
"vXMXmXmXmXuX#X,X,X2X*X,X'.,X2X'.vXvXNXmXVXiX'.,X,X,X/./.&XwXV.U X.:.:.W <.>.0.w.#X0X2XI.w.c.,X2X6X*X*X*X*X#XxXZXbX,X2XQ.t.u.`.'.",
"vXmXmXvXmXyX#X,X,X,X*X2X#X2X2X#XvXbXmXyXgXeX'.#X/.~.F.C.G.V.A.&X|.;.2 n N m B I I =.q.`.U.!.*X#X2X*X*X0XyXqXeXiX0XY.(.(.I.Y.6XeX",
"vXvXmXmXMXyX#X2X2X6X2X,X6X,X*X'.xXbXvX'.'.*X`.J.F.M.A.G.^.G.G.A.G.;.v V 1 B B x P < I c.W.2X2X,X2X*X#XjXNXNX2X,X`.w.t.(.,X2XbXVX",
"bXmXmXvXMXyX*X2X,X*X,X,X2X#X,X#XbXVXVX,X*X/.Z.H.H.A.K.J.C.C.C.r.n.E V U W F C N N B x x c 0.2X*X2X*X`.gXbXbX`.2X'.i.8.!.#X#XxXmX",
"mXMXvX0XeX6X,X,XQ.L.Q.2X#X0XxXuX0X6X6XL.A.Z.K.A.H.A.Z.J.F.n.v.M.n.,.,.~./.:.1 S z P C x B J J 0XqXjXgXjXMXbX2X3X2X'.(.2X,X#XvXmX",
"mXMXgX'.*X,X,X,Xc.q.B.2X#XuXCXMX3X#X`.G.K.Z.Z.K.Z.J.F.M.F.M.v.r.,.1 E -XC.G.r., N n n m C x P ! 0XNXNXjXNXbX6X`.'.,X2X6X'.*XxXMX",
"bXmXxX#X2X,X,X,XL.t.I.#X2XeXMXbX6X*XG.A.C.H.G.G.G.F.J.M.M.M.C.n.D ;.v.^.G.G.G.K.F 2 C n m m 4 m i.jXbXbXVXxX2X,X6X,X2X2X,X6XiXmX",
",X,X6X#X2X!.t.p.*X3X#X,X,X,X2X,X,X~.G.A.G.J.G.C.^.C.C.M.F.F.F.r.Z K.|.M.K.G.^.zX4.C n C n m C ! B x.vXxXmXbX*X,X2X,X'.uXNXvXmXmX",
",X'.,X*X2XU.8.c.'.3X,X,X#X#X2X,X/.A.G.G.A.Z.A.G.C.n.C.F.^.K.v.D C.C.G.J.H.J.F.r.zXK.o V W W W W :.:.B.MXbXNX2X,X2X2X,XuXmXvXMXVX",
",X,X3X,X3X!.t.L.#X3X,X,X,X,X,X`.S.A.G.A.G.G.G.G.m.v.D.K.K.4.4.C.^.Z.G.J.M.Z.J.C.F.%X>XF U W W Y R W :.xXuXjX2X*X*X(.`.yXMXbXvXjX",
"#X,X3X,X,XQ.t.p.#X2X#X,X,X,X@X~.A.A.A.Z.G.K.G.M.m.m.C.b.G.-.,.^.C.G.G.Z.F.F.Z.F.v.K.-Xr.;.T W W W W ! U.#X#X*X*X#Xq.8.2XCXvX2X_.",
"2X,X3X6X,XY.u.p.`.,X#X,X*X'./.Z.G.G.G.G.G.F.C.m.^.b.r.b.M.,.,.K.G.Z.F.H.J.K.Z.5.v.M.r.:X1.F W W W W ! J #X*X6X3X#Xt.8.6XCXbX2X'.",
"Y.U.Y.Y.U.Y.Y.!.,X,X#X,X,X`.^.A.G.A.G.J.F.n.M.H.D.K.F.v.G v.^.K.K.G.J.G.Z.F.F.n.v.v.M.$X;.X.;.U W W W U #X*X!.I.Q.2X2X6X6XeX6X,X",
"w.t.t.t.t._.6X2X3X2X*X*X*X|.Z.A.A.A.F.Z.C.M.F.K.F.H.C.b.G n.K.C.Z.K.G.F.H.Z.v.v.M.M.C.kXG.1.U W T W W W 0.#Xi.q.!.ZXCXuX(.,X,X'.",
"c.i.p.p.u.(.,X'.,X,X,X,X`.~.Z.J.Z.K.G.b.b.F.K.F.F.F.v.4.,.n.K.G.G.G.G.H.H.M.n.M.v.v.C.zXkX~.;.,.:.U ! W B !.p.u.Y.MXxXiX*X2X*X#X",
"p.u.I.*X`.,X,X,X,X2X3X*X.XS.S.A.F.H.Z.5.b.H.C.K.H.C.,.-.b.G.G.G.G.G.K.G.Z.n.M.H.n.v.M.lXBX:Xe.M.>.W W ! B 7.`._.,X3X,X6X,X#XL.B.",
"t.w.I.2X2X2X,X,X,X#X,X*X~.^.Z.|.J.r.v.M.K.F.K.C.C.D v.hXr.G.H.G.G.G.G.C.C.Z.A.H.N.-XzXb.E S N C n n m m 4 >.0X3X2X#X2X3X3X3Xp.w.",
"L.L.(.,X2X,X#X,X2X*X2XqX&XhX|.b.b.n.Z.F.F.C.K.n.,.C.%X^.n.K.C.H.K.^.H.M.f.n.A.H.N.$XzXE C v N n n n m m 4 >.6X'.3X'.2X'.(._.U.L.",
",X,X2X,X,X2X,X2X*X#X3XjX+XzX-XH.M.n.v.Z.K.F.r.r.,.=X^.4.^.G.F.F.F.D.C.b.v.Z.J.H.|.>X:Xi C N N n n n m m x =.0X'.2X,X,XQ.u.p.'.,X",
",X2X2X#X#X,X'.'.*X'.3XyX%XC.lXwX5.5.M.M.H.Z.,.,.hX:XG.n.H.M.K.H.F.m.v.n.F.K.H.M.hXhXC.v n v N N n m m m 4 Q 3X,X,X,X,X!.u.u.#X,X",
",X,X2X2X2X2X#X,XuXqXiXfX%X-XZ.$XzXb.v.f.b.-.D E :XC.n.n.H.K.F.F.C.m.v.n.F.F.Z.G.:Xb.n C n n B N B C B m 4 Q 6X3X2X'.3XQ.u.B.'.2X",
",X,X*X2X#X,X'.,XmXbXbXqX~.|.f.Z.=XF.^.C.,.G b G wXb.C.C.G.K.G.C.,.r.n.M.C.C.^.wXf.F 2 n 2 m S N z < 2 x 4 =.6X2X2X*X3XQ.t.c.'.3X",
",X,X,X,X'.2X#X#XvXmXxXqX/.f.b.f.5.$X$XZ.D Z 1 G ^.n.n.H.G.K.n.4.G r.C.G.K.K.%XhXT 1 C n m x x m ,   o x x =.6X2X*X2X2X_.t.u.'.*X",
",X,X3XmXiXxXgXiXmXmXjX*Xf.n.b.f.v.b.K.C.v b b D b.n.b.n.G.C.4.E F n.G.G.V.wXwXU C m x J o X * X   o o X < 7.0X,X'.L.p.!.'.'.,X,X",
",X,X0XVXmXMXmXmXmXmXxX*Xr.b.b.M.n.5.$XF.i C.f.r.b.v.r.b.C.4.E E r.M.m.~.=XV.<.:.m 4 C * o * X   o   X o X I 6X*X'.q.q._.6X2X,X2X",
",X,X0XvXmXvXxXbXxXvXjX2Xz.b.b.m.m.C.n.r.,.|.K.v.4.G.G.C.m.,.U ;.V.~.V.<.V.>.P C B m ; X X o 4 m   X X * < I eX6X#Xu.i._.*X2X2X2X",
"mXvXmXmXbXrX7X<X8X8XqX&Xe.C.m.b.v.=X4.-.:X^.G.4.D C.=XK.r.:.T ;.~./.b.2 S W R B B -   ; o n >.! C o X   m i.jXxXxX,X,X2X'.2X3X,X",
"vXvXcXdXtXT.l.l.E.9XsX7Xf.n.m.m.n.E E 4.%Xn.K.r.E E E E W W W R ;.V n n W S m *.C N n   U W U R W J o . Y P.cXcXjX3X6X6X*X,X,X*X",
"cXdXXX9XdXoXk.d.k.[.$. .X.f.b.r.:.;.F F ,.,.-.E E F E ;.W E W W T S C v n R W T N 2 n V U >.e.e.>.m -   g.7XO.o. XrX9.8X6X*X6XqX",
"pXoXj.[.oXpX[.%.@.].) r / 1.1.1.S W v C e.e.,.r.4.,.;.E T E W E *.v N C V U W T V C C 4.;.,.n.C.2.P X o 1.h.f g +.l.& P.,XqXbXVX",
"oX#.j.%.d.OXpX$.( %._ ~ / / Z T W V V -.:X%X$X=X%XD.<.W W W R *.&.F v v ;.E U *.n C <.f.b.C.v.r.2.S X C i 0 | h g f  .K g.3XxXmX",
"9XpXk.].%.) ' e 7 ' t ^ / } X.E V - G.BXlXF.v.m.m.z.b.V.a Y W *.&.S V V E W R B m W M.r.5.m.C.V R &.N B B n % K K l h  XxXjXeX3X",
"XX+...{ _ ~ ' e y y ^ ' u 7 Z b v %XhXlX-Xn.v.m.m.4.<.>.n C R R >.A z v E R B < X :.~.^.$Xv.F V P N * ; < 2 # p q h T.rXNXxX6X_.",
"*Xo.+.[ ~ e [ y y u ( t j @ 0 i Z wXlX;X|.S.b.n.5.W T T C N A &.R B v M T B ; X X m 4.n.G.,.> a a #   X o # + + 0  .rX7X<XqXyX,X",
"U.#X'.s.` ` ` 7 5 ^ ( t j @ . > Z ,.Z.|.|.|.S.r.T T W R E A v N m B m n n ; X X = X * v i n a s $   . . . . % + a.dXaX .h o.3X6X",
"u.`.(.R.g.@ + ..].%.) r 7 6 @ # > V.n.b.=X=Xf.U X.o.C o - N n n n B n o * o o X X * * n n M M a $   . . . . & + 5 w |  .l | 8XrX",
"p.u.(.*X).+ 6 w ..k.#._ 8 @ @ # # Z e.G.C.r.1.K 3 a ; X X < : n m H x X X o o X   * * N N n m > #   . . . + & + w w g g  .}.g. X",
"B.i.`.8XR.+ @ + 6 $.%.{ ( 5 d 9 % # ;.z.z.R J m .     o X X - P m x z * * X o . . . ; C N x n X . . . o # # # + 0 g ] w a.oXf s.",
"t.).`.g.s | @ @ @ @ r ( ^ @ a.6.@ @ # C W.* o   O   O o o o ; x B , * * - . . . + . - ; * , ; X . + # # % # + @ @ @ 5 @ 8 k ] l ",
"(.<Xo.k | l h p + @ @ 8 7 e $.%.@.5 p Z > - . . O   o   * X O o * o * ; - # + + % + : - - 1 # + p h K @ % % @ @ @ 6 + w f | w h.",
"6XqXP.g.+.8 p 9 % + & 6 8 ( { #.].e g f s $ . . .   . . - o $ + + . o # # + @ 9 + @ + > # # 0 0 l h d 5 @ @ w @ 0 0 q g.+.K h.oX",
"*XqX8XrX.X0 p % > : K  .] t r _ #.~ ^ ] K % $ + $ 0 $ . % @ @ @ 5 @ @ % % $ + + 0 + % > % + 7 ( ^ y 5 @ 7 7 | w f  .o..XP.L 6X8X",
"3X2X2X6X3XrXbX.Xa # . @ k u ) ) ~ ^ / g @ @ + 0 T.{. .+ @ @ 8 ] g 8 + $ & $ + & + 0 &   + f u ( ^ ' ' ' ` / ` f f L _.(.!.Y.6X8X",
"*X2X,X3X#XiXMXiX*X.X.X.X{.g y r / @ 0 0 . # + p  .d.d...u 7 @ w ` l q + . o $ $ . . ; R.L q u t u 8 r ` e g f T..XR.I.U.B.i.'.*X",
"*X#X'.3X#XuXvXvX6X2X,X,X<Xg.9.a.a.9.i & y.9.H + w | $.$.^ 8 5 @ w w K w.i.J . . Q 7.w.(.U.o.k ( O.a.s.f O.h.a.<X,X(.U.p.p.L.,X3X",
"u.t.c.,X'.,X'.,X2X3X(.u.c.#XqXqX6X6Xt.I eXrXB.$ f k ^ r u O.1.s i i i.Q.c.c.3 a Y.U.(.2XeX.Xl ]  XrXrXo.).6XR.U.Y.,X2X0X2X,X,X#X",
"u.t.L.2X,X2X`.,X,X,X(.u.t.I.,X,X2X,X3X3X3X2X3X8X XoXd.r ] {.sXjXsXsXxX_.I.Q.Y.U.Y.u.u._.2X3X7X7X8X3X8X3X3X8XB.t.p.6X'.,X'.,X'.'."
};
