/* XPM */
static char *_5901_880827865598154cda7b012cf52a694197e150cbb8a00be8f2edd0410de97146[] = {
/* columns rows colors chars-per-pixel */
"64 64 254 2 ",
"   c #15141B",
".  c #19151C",
"X  c #18161A",
"o  c #0F0E18",
"O  c #1D1D25",
"+  c #1A1B25",
"@  c #06182D",
"#  c #211D28",
"$  c #1F202B",
"%  c #1D2336",
"&  c #22222B",
"*  c #262429",
"=  c #2B2D3E",
"-  c #262838",
";  c #302E3B",
":  c #32313C",
">  c #35353B",
",  c #20191B",
"<  c #103552",
"1  c #252B41",
"2  c #2B2E43",
"3  c #2C3144",
"4  c #2C3347",
"5  c #343442",
"6  c #3A3B44",
"7  c #32364B",
"8  c #33394C",
"9  c #3C3D4C",
"0  c #373B47",
"q  c #293C54",
"w  c #3A3E53",
"e  c #363D54",
"r  c #302F44",
"t  c #02336B",
"y  c #403F4B",
"u  c #3E414B",
"i  c #3D4154",
"p  c #3D435B",
"a  c #3A4C58",
"s  c #2F4156",
"d  c #085577",
"f  c #0E486F",
"g  c #384B64",
"h  c #2D5770",
"j  c #195169",
"k  c #43444D",
"l  c #48454D",
"z  c #414254",
"x  c #42465B",
"c  c #454B5C",
"v  c #4A4D5D",
"b  c #4A4854",
"n  c #4B515E",
"m  c #47505C",
"M  c #53555F",
"N  c #464C61",
"B  c #4A4E62",
"V  c #4C5364",
"C  c #4E5469",
"Z  c #4A5566",
"A  c #525565",
"S  c #525966",
"D  c #52566A",
"F  c #545A6C",
"G  c #5A5C6C",
"H  c #5A5B66",
"J  c #565C71",
"K  c #595E73",
"L  c #475C72",
"P  c #5A616D",
"I  c #5B6275",
"U  c #5E647A",
"Y  c #5C6679",
"T  c #4B667D",
"R  c #63646D",
"E  c #65646B",
"W  c #646673",
"Q  c #646975",
"!  c #686A75",
"~  c #62667B",
"^  c #636A7C",
"/  c #6A6C7C",
"(  c #6A727F",
")  c #0D5791",
"_  c #136596",
"`  c #066995",
"'  c #3A769A",
"]  c #316C8D",
"[  c #067AA6",
"{  c #1170AD",
"}  c #287AA6",
"|  c #3574A6",
" . c #257FB8",
".. c #155A97",
"X. c #466886",
"o. c #5C7489",
"O. c #4F718F",
"+. c #656C83",
"@. c #6A6E83",
"#. c #696F8A",
"$. c #656B87",
"%. c #6C7185",
"&. c #6C738C",
"*. c #6A788D",
"=. c #71768C",
"-. c #73798E",
";. c #7B7C8D",
":. c #737485",
">. c #6E7590",
",. c #677C94",
"<. c #717791",
"1. c #737A92",
"2. c #797D94",
"3. c #787D99",
"4. c #4978A3",
"5. c #007CD5",
"6. c #0975CB",
"7. c #2378C8",
"8. c #1E8CB8",
"9. c #2E8DB5",
"0. c #348099",
"q. c #48849C",
"w. c #58849D",
"e. c #6A839B",
"r. c #7B8196",
"t. c #7C829B",
"y. c #75849A",
"u. c #7D808D",
"i. c #5B86A5",
"p. c #5998B7",
"a. c #4E90AA",
"s. c #688BA7",
"d. c #758AA5",
"f. c #7496B1",
"g. c #6B96AF",
"h. c #4CA8BA",
"j. c #7BABAB",
"k. c #0B84D8",
"l. c #1B98D9",
"z. c #158ECA",
"x. c #289CDA",
"c. c #358ECA",
"v. c #18B6D7",
"b. c #27A3DA",
"n. c #33B0D2",
"m. c #168AE5",
"M. c #1898E6",
"N. c #1899F3",
"B. c #099BEF",
"V. c #2C99EE",
"C. c #0DABEC",
"Z. c #18BAEA",
"A. c #1CABFA",
"S. c #1BB9F5",
"D. c #1CAAE9",
"F. c #27A8E9",
"G. c #36ABE8",
"H. c #27B8EA",
"J. c #37B5E7",
"K. c #28A9FA",
"L. c #23B2FD",
"P. c #29B8F7",
"I. c #36B9F7",
"U. c #33ABFA",
"Y. c #4D9CC8",
"T. c #57A9CD",
"R. c #48BECB",
"E. c #4DABD3",
"W. c #65ADC9",
"Q. c #49A7E5",
"!. c #42B7EC",
"~. c #56B6EF",
"^. c #67B6F3",
"/. c #409DE2",
"(. c #26C6D9",
"). c #3BC8DB",
"_. c #30CFD5",
"`. c #17C6EB",
"'. c #0CC5F2",
"]. c #1AC5F8",
"[. c #16D5EC",
"{. c #26C5E9",
"}. c #36CDEA",
"|. c #36D4EA",
" X c #28C7F7",
".X c #36C6F8",
"XX c #38D7F7",
"oX c #29D9F2",
"OX c #38E7F8",
"+X c #30E3F2",
"@X c #1CC4DF",
"#X c #51CDD5",
"$X c #6FD8CF",
"%X c #7AE1CE",
"&X c #47D8EA",
"*X c #45C5F8",
"=X c #4DD4EA",
"-X c #62DCE6",
";X c #73DEE6",
":X c #49E7ED",
">X c #57E4E8",
",X c #46E8FA",
"<X c #55E5F7",
"1X c #56F9FE",
"2X c #47F7F8",
"3X c #67E7F9",
"4X c #7AEAF7",
"5X c #66FAFB",
"6X c #74FFFF",
"7X c #79F9FF",
"8X c #6FE6E8",
"9X c #82859B",
"0X c #83889E",
"qX c #8A8B9B",
"wX c #858695",
"eX c #96949E",
"rX c #858BA3",
"tX c #898DA3",
"yX c #888EA8",
"uX c #8C92AB",
"iX c #8B91A6",
"pX c #9497A9",
"aX c #969CB4",
"sX c #9DA3BA",
"dX c #91A8AF",
"fX c #A4A7B9",
"gX c #89C4BE",
"hX c #AAAFC5",
"jX c #91D3CF",
"kX c #83E1DE",
"lX c #83FEFE",
"zX c #8BFCFE",
"xX c #89F6F9",
"cX c #94FDFE",
"vX c #98FAFA",
"bX c #8AEBEA",
"nX c #A3FDFE",
"mX c #ABFEFD",
"MX c #A3FEF7",
"NX c #BBFFFE",
"BX c #B5FEFC",
"VX c #A8F0EA",
"CX c #A0DBD7",
"ZX c #C2FFFD",
"AX c #CCFEFC",
"SX c #C8F7F8",
"DX c #DBFFFE",
"FX c #D5FFFF",
"GX c #C1EEEC",
"HX c #E4FEFE",
"JX c #EBFFFE",
"KX c #E7FBF6",
"LX c #F6FEFE",
"PX c None",
/* pixels */
"PXPXPXPXPXPXPXPXPXPXPXPXPXPXPXPXPXPXPXPXPXPXPXPXPXPXPXPXPXPXPXPXPXPXPXPXPXPXPXPXPXPXPXPXPXPXPXPXPXPXPXPXPXPXPXPXPXPXPXPXPXPXPXPX",
"PXPXPXPXPXPXPXPXPXPXPXPXPXPXPXPXPXPXPXPXPXPXPXPXPXPXPXPXPXPXPXPXPXPXPXPXPXPXPXPXPXPXPXPXPXPXPXPXPXPXPXPXPXPXPXPXPXPXPXPXPXPXPXPX",
"PXPXPXPXPXPXPXPXPXPXPXPXPXPXPXPXPXPXPXPXPXPXPXPXPXPXPXPXPXPXPXPXPXPXPXPXc.PXPXPXPXPXPXPXPXPXPXPXPXPXPXPXPXPXPXPXPXPXPXPXPXPXPXPX",
"PXPXPXPXPXPXPXPXPXPXPXPXPXPXPXPXPXPXPXPXPXPXPXPXPXPXPXPXPXPXPXPXPXc.^.;XQ.^.c.PXPXPXPXPXPXPXPXPXPXPXPXPXPXPXPXPXPXPXPXPXPXPXPXPX",
"PXPXPXPXPXPXPXPXPXPXPXPXPXPXPXPXPXPXPXPXPXPXPXPXPXPXPXPXPXPXPXPXPXQ.^.^.Q.T.9.X.PXPXPXPXPXPXPXPXPXPXPXPXPXPXPXPXPXPXPXPXPXPXPXPX",
"PXPXPXPXPXPXPXPXPXPXPXPXPXPXPXPXPXPXPXPXPXPXPXPXPXPXPXPXPXPXPXPXPX| ] |  .T.a.< a PXPXPXPXPXPXPXPXPXPXPXPXPXPXPXPXPXPXPXPXPXPXPX",
"PXPXPXPXPXPXPX6 b l k k k z k b l b ; # y > r l : > 6 > * * ; < g K b X...Y.Y.j @ y b z * 6 6 6 6 6 6 6 u > > > * X PXPXPXPXPXPX",
"PXPXPXPXPXPX. eXpXqXwXwXqXqXqXwXqX;.B ;.! :.W W ! ! ! G A H m < e.hXfXf ..9.^.f @ wXqXwX0 / W ( / ! ( ! R R Q ! l * PXPXPXPXPXPX",
"PXPXPXPXPXPXPXwXqX( @.%.%.%.%.:.K w 2.tXD D D x F n v n v V g q y.d.0Xt ) V.~...q %.%.W 1 I N I F a S P v v v v 6 # PXPXPXPXPXPX",
"PXPXPXPXPXPXPXqXwX:.-.%.%.-.1.U p 3.uX&.#.D D J c D Z v S C s s.d.y.3.t { x.!.} X.^ U K 8 Y Z D V S n ( W A V A 6 # PXPXPXPXPXPX",
"PXPXPXPXPXPXPXqXtX@.%.1.#.>.$.w 1.yX#.>.=.<.G K F B S Z m S a g *.+.t t 8.F.!.} ,.( U I 3 I Z Z P Y ^ S n B A A y # PXPXPXPXPXPX",
"PXPXPXPXPXPXo / ^ +.1.%.<.$.p 3.aX1.1.#.<.&.#.D J J m n Z m V q o.h t _ x.F.=X9.e.*.1.U 3 ^ ( Y I V F V F V A A 9 # PXPXPXPXPXPX",
"PXPXPXPXPXPX. :.9X$.+.K C g <.aX3.3.#.<.=.1.1.#.J C J Z m S n % e.] | V.x.I.#Xa.e.( -.I 3 Y +.Y %.^ Z m c N D B 9 # PXPXPXPXPXPX",
"PXPXPXPXPXPX+ qX<.<.rX3.N 3.yX<.aX3.>.#.<.#.+.<.%.C I F v A n % 1.] Q.x.F.!.E.q.t.%.%.Y 4 Y C C I L m Z I V B F y # PXPXPXPXPXPX",
"PXPXPXPXPXPXPX;.=.1.K D yXyX<.t.rX$.<.>.#.3.<.>.<.<.D D K v n i s.Y.G.H.P.J.T.e.t.=.=.^ 4 Y V V Z Z S a K Q D B y # PXPXPXPXPXPX",
"PXPXPXPXPXPXPXwX;.U N #.9X9X<.#.>.>.>.<.<.#.#.>.#.<.=.J D I v h a.G.P.P.P.*Xp.y.0X-.-.Y 2 ^ V C m V V I D G K A y # PXPXPXPXPXPX",
"PXPXPXPXPXPX+ wX/ z 9XhX3.<.<.#.<.>.>.#.<.#.#.<.&.&.1.%.D I o.] c.J.P. XP.!.p.,.w =.<.D r ~ D B D A V ~ K c D A 6 # PXPXPXPXPXPX",
"PXPXPXPXPXPX. ! z :.hXrX<.&.#.<.&.>.>.>.<.>.2.#.*.<.^ 1.%.L i.9.J..XP.P.*XQ.g.,.r K ;.1.r J B B c N c v B B B B y # PXPXPXPXPXPX",
"PXPXPXPXPXPXPXb iXaX1.&.&.&.#.>.&.<.#.<.#.#.<.&.%.#.1.o.O.9.G.I.{.`. X Xx.p.o.@.K % z D % 1 - - - = - % - 1 % - ;   PXPXPXPXPXPX",
"PXPXPXPXPXPXPXy 9XfX=.&.<.=.>.1.>.&.<.#.1.U #.>.&.%.y.p.b..XH.H.`.Z.P.!.W.y.1.;.;.D A G r &.%.2.rX2.&.@.#.@.@.%.! - PXPXPXPXPXPX",
"PXPXPXPXPXPXPXH 3 I 2.%.%.&.=.#.#.*.#.>.1.#.&.<.%.f.Y.b.P.C.S.]. XH.I.W.e.%.P F D K D B 7 aX9X2.rXrX1.1.r.t.3./ H # PXPXPXPXPXPX",
"PXPXPXPXPXPXPXW w 7 F r.&.%.1.<.*.>.*.*.&.<.&.s.w.l.I.L.S.L.C.C.D.*XY.,.%.! A G B B D x 1 t.&.&.$.$.%.*.%.%.=.W v * PXPXPXPXPXPX",
"PXPXPXPXPXPXPXW F N 4 F -.-.$.$.>.$.rX<.1.,.d.p.b.J.K.K.I.N.D.P.I.c.,.&.Z P G m v A A x 1 sX1.#.=.&.#.<.*.@.=.-.A * PXPXPXPXPXPX",
"PXPXPXPXPXPXPX! V C N 8 J %.1.&.#.+.yXpXe.e.p.v..XN.L.L.N.K.I.G.c.4.,.N V n S V V ^ &.w 1 aX1.>.=.=.%.%.1.*.^ ^ H # PXPXPXPXPXPX",
"PXPXPXPXPXPXPX! A N D N 7 D 1.:.#.1.%.y.f.3.z.U.K.K.K.N.A.A.H.b._ i.V Z V Z n n V S P a 1 t.1.>.>.*.P Y 1.$.Y %.A & PXPXPXPXPXPX",
"PXPXPXPXPXPXPXW V A N C x 8 J 1.*.&.-.i.d.W.I.F.U.K.5.N.B.C.L.l.) d.v Z V Z n n V F c e 1 3.<.&.>.*.+.y.+.*.%.;.A # PXPXPXPXPXPX",
"PXPXPXPXPXPXPX! H B Z Z C x w K -.%.%.g.f.G.F.K.N.6.k.5.B.A.L.k.{ i.Z Z n Z n Z B K &.J 1 t.1.#.&.*.*.%.Y Y =.%.A & PXPXPXPXPXPX",
"PXPXPXPXPXPXPXE V V B V C A x r F ;.t._ c.G.F.V.k.6.m.5.B.L.K.M.{ | *.Z V Z S Z B x / B % t.y.<.=.+.I *.=.#.-.:.A & PXPXPXPXPXPX",
"PXPXPXPXPXPXPXA V A A A B V D B 8 D ,.f V.V.K.N.k.m.m.6.B.L.K.K.l. .4.$.S m F Z J C B x 3 2.&.%.F F ;.I S +.*.=.A $ PXPXPXPXPXPX",
"PXPXPXPXPXPXPXW A B D B A D B G N 9 O.) G.U.V.5.M.M.m.5.U.L.L.L.M.x.9.4.1.F -.0X$.+.B x 1 t.2.1.1.U %.P %.^ ^ ^ A & PXPXPXPXPXPX",
"PXPXPXPXPXPXPXE k c 9 w x w z w z 9 X.) /.V.7.m.V.N.5.A.P.S.].S.F.M.G. .' X.B ~ N w p w 3 1.U J P Y C P Y I Z n b * PXPXPXPXPXPX",
"PXPXPXPXPXPXPX6 r 2 7 7 = = - 4 r r L ) 7.6.N.V.V.k.K.L.S.].].'.S.S.F.x.9.' O.1 2 2 2 1 2 8 3 3 3 4 3 3 - = 3 3 : $ PXPXPXPXPXPX",
"PXPXPXPXPXPXPXpXpXpXsXpX3.x 1.rX9X9X@.d ..{ m.K.M.N.S.].].'.].'.].].S.D.F.8.| s.t.tX~ N tXJ K #.K ~ ^ ^ V m m c 6 O PXPXPXPXPXPX",
"PXPXPXPXPXPXPXfX%.&.<.1.x K iX:.:.2.9 ' ) 7.V.k.l.P. XZ.'.'.[.[.].Z.'. XI.x.8.} q.K N iXsX3.C K J C N v S n Z S 0 $ PXPXPXPXPXPX",
"PXPXPXPXPXPXPXaX2.@.=.>.U 2.1.#.=.$.- g ) 6.z.F. XZ.{.XXXX,X,X,X2XOX+X'.Z.{.H.[ _ w.uXaXrX=.$.C K C Z Z V G v V u O PXPXPXPXPXPX",
"PXPXPXPXPXPXPXr.@.9X#.7 J rX<.<.;.B % } ` 6.F.H.`.|.&X=X<X>X#X>X>X:XOXOXoX`.Z..X} ) aX2.3.<.<.#.C I D V ^ F F P 0 O PXPXPXPXPXPX",
"PXPXPXPXPXPXPX+ w 9X1.$.&.=.#.<.=.@.e ` 8.C. XZ.|.&X-X;XvXmXmXmXnXcX<X:XOXoX XH.G.{ X.iX>.>.>.>.#.C Y Z D F C I u $ PXPXPXPXPXPX",
"PXPXPXPXPXPXPX- =.rX#.&.&.&.<.#.&.1.a 8.H. XZ.}.}.8XvXNXAXFXFXAXZXmXcX7X1XXX XS.J.G...aX3.>.>.>.*.+.C I B D @.V 0 $ PXPXPXPXPXPX",
"PXPXPXPXPXPXPX9 tX2.=.=.1.=.#.<.:.y.T J. XS.{.}.#XnXZXAXHXJXJXHXHXSXmXvX7X<X{.H.P.!._ f.>.>.$.<.#.3.+.D I K I V u $ PXPXPXPXPXPX",
"PXPXPXPXPXPX+ %.=.#.#.=.#.<.%.<.%.-.i.{.S. XXX=XxXNXGXJXLXLXLXJXHXFXZXnXcX3Xv. XP.J. .j >.>.>.>.>.$.1.$.B ~ F Z u + PXPXPXPXPXPX",
"PXPXPXPXPXPX. qX%.*.<.&.1.:.&.&.>.<.h.H. X*X&X8XmXjXGXJXLXLXLXJXDXSXBXnXzX5Xv.{. XH.[ d >.>.>.>.>.>.=.=.^ p ~ U u + PXPXPXPXPXPX",
"PXPXPXPXPXPX  wX:.r.1.-.#.<.&.<.%.y.T.J.XX}.#XnXNXj.SXJXLXLXLXJXFXAXBXnXzX>Xn.{.`..X` d <.<.>.#.>.&.&.&.@.I N I u + PXPXPXPXPXPX",
"PXPXPXPXPXPXO ;.F F D K J J D J F U E.H.=X=X;XNXCXdXDXDXKXLXKXJXAXNXnXcX7X).(.{.{. X[ d #.#.#.&.>.>.=.2.9X2.-.F 0 $ PXPXPXPXPXPX",
"PXPXPXPXPXPXo > 7 4 4 3 7 7 7 4 7 2 Y.}.<X8XbXNXdXjXDXHXLXJXKXKXAXBXmXcX7X&X{. X X}.8.j >.1.>.>.>.>.&.&.r.1.r.I c $ PXPXPXPXPXPX",
"PXPXPXPXPXPX. ! Q ^ %.~ ~ Y ^ ~ ^ %.a.(.XX#XkXBXjXjXSXHXKXDXJXDXSXBXmXcX7X<X(.{. X.Xn.' %.1.#.&.&.#.>.2.tX0XN a / - PXPXPXPXPXPX",
"PXPXPXPXPXPX+ Q V Z F ^ G V n Z n F 0.v.}.n.bXBXjXjXAXDXHXDXFXAXBXmXvXxX6X<X{.v.H..X9.g.*.^ *.<.&.1.#.iXqXc i r.P & PXPXPXPXPXPX",
"PXPXPXPXPXPX  Q S n D %.Y S m Z F V s [.{.J.4XnXkXjXFXAXGXZXZXNXBXmXvXzX6X|.|.{. XH.9.f.*.*.yXrX*.%.@.&.c i 0X-.m & PXPXPXPXPXPX",
"PXPXPXPXPXPXPXR n V Y Q P m V V n D 3 h. X{.3XcXvX$XVXZXjXVXBXnXMXbXcX7X6X|.|.[.[.(.g.y.&.t.aX>.#.1.-.N x r.%.%.H $ PXPXPXPXPXPX",
"PXPXPXPXPXPXPXE H Q P ^ m n Z Z A B r B |.(.<XlXlX%X%XMXbXvXvXvXvXxX7X7X6X(.|.[.[.h.s.<.>.#.>.#.1.<.N p r.;.%.-.A $ PXPXPXPXPXPX",
"PXPXPXPXPXPXPXQ P P S Y S Z n n B G 2 A dX(.1X5X-X8X$XbXbXcXzXxXlXlX3X5X1Xv.@X[.h.i.&.*.+.yX1.<.&.Z w 9X*.%.&.:.D $ PXPXPXPXPXPX",
"PXPXPXPXPXPXX ! Q S n I P Z Z Z B A r B sX_.).1X:X4X#X8XxXxX7X6X5X5X1X1X[.[.h.] q.u.1.%.J sX1.&.N w r.&.t.1.#.-.A $ PXPXPXPXPXPX",
"PXPXPXPXPXPXX R S n m S Z Z S S C A 7 B sX+.v.#X1X=X&X_.n.7X6X5X1X2X1XOX).h.X.z 0 Y %.1.&.&.1.N g d.1.%.1.rX0X%.D $ PXPXPXPXPXPX",
"PXPXPXPXPXPXX ! n V Z Z Z Z V V A D 2 A aX&.>._.#XOX(.(.(.|.5X1X1X2X:XR.R.c D C a 7 I =.=.=.B e 3.3.&.%.#.1.r.=.A $ PXPXPXPXPXPX",
"PXPXPXPXPXPX. R M M V A Z Z V Z D A 2 C fXt.1.#.$X#X(._._.(.:X>X:X_._.a.D K B V Z c 8 Y :.B w rX3.#.&.1.y.1.%.=.A $ PXPXPXPXPXPX",
"PXPXPXPXPXPXPXE M M v Z Z A n A A B 7 A hX1.1.:.$.<.2.f.#X#X#XW.#XY H l w U ~ A V A i i p x 9X1.$.=.=.%.iXtX=.( A & PXPXPXPXPXPX",
"PXPXPXPXPXPXPXE b v M v v n v v v D r z 9X@.%.@.@.@.1.;.@./ ! 6 b P u P 6 % 9 K c v A z 7 ;.:./ =.@.@.@.%.:.( :.A & PXPXPXPXPXPX",
"PXPXPXPXPXPXPX* > > : : : : : : : : : r 6 y w y z w 9 w y y 9 5 - > 5 : - & - : : 5 5 : 5 6 9 9 9 u u u u u y y 6 * PXPXPXPXPXPX",
"PXPXPXPXPXPXPX, , X . .   .   . . X   .   +                     o X   .   X   +           . .                 . , PXPXPXPXPXPXPX",
"PXPXPXPXPXPXPXPXPXPXPXPXPXPXPXPXPXPXPXPXPXPXPXPXPXPXPXPXPXPXPXPXPXPXPXPXPXPXPXPXPXPXPXPXPXPXPXPXPXPXPXPXPXPXPXPXPXPXPXPXPXPXPXPX",
"PXPXPXPXPXPXPXPXPXPXPXPXPXPXPXPXPXPXPXPXPXPXPXPXPXPXPXPXPXPXPXPXPXPXPXPXPXPXPXPXPXPXPXPXPXPXPXPXPXPXPXPXPXPXPXPXPXPXPXPXPXPXPXPX",
"PXPXPXPXPXPXPXPXPXPXPXPXPXPXPXPXPXPXPXPXPXPXPXPXPXPXPXPXPXPXPXPXPXPXPXPXPXPXPXPXPXPXPXPXPXPXPXPXPXPXPXPXPXPXPXPXPXPXPXPXPXPXPXPX",
"PXPXPXPXPXPXPXPXPXPXPXPXPXPXPXPXPXPXPXPXPXPXPXPXPXPXPXPXPXPXPXPXPXPXPXPXPXPXPXPXPXPXPXPXPXPXPXPXPXPXPXPXPXPXPXPXPXPXPXPXPXPXPXPX",
"PXPXPXPXPXPXPXPXPXPXPXPXPXPXPXPXPXPXPXPXPXPXPXPXPXPXPXPXPXPXPXPXPXPXPXPXPXPXPXPXPXPXPXPXPXPXPXPXPXPXPXPXPXPXPXPXPXPXPXPXPXPXPXPX",
"PXPXPXPXPXPXPXPXPXPXPXPXPXPXPXPXPXPXPXPXPXPXPXPXPXPXPXPXPXPXPXPXPXPXPXPXPXPXPXPXPXPXPXPXPXPXPXPXPXPXPXPXPXPXPXPXPXPXPXPXPXPXPXPX"
};
