/* XPM */
static char *_3f0bf2805384ee7823f5a0713fa0f38awgKcXUBfSo8zndm[] = {
/* columns rows colors chars-per-pixel */
"64 64 241 2 ",
"   c None",
".  c #18181B",
"X  c #11090A",
"o  c #2A191A",
"O  c #301C14",
"+  c #3A281C",
"@  c #2B2217",
"#  c #1D1D23",
"$  c #261C23",
"%  c #361F25",
"&  c #1E2432",
"*  c #282629",
"=  c #372727",
"-  c #3A362A",
";  c #2C2C33",
":  c #282B39",
">  c #362D35",
",  c #2C3139",
"<  c #33333B",
"1  c #3B353D",
"2  c #383535",
"3  c #54331B",
"4  c #633C1D",
"5  c #653B18",
"6  c #703E19",
"7  c #462B25",
"8  c #45332A",
"9  c #493629",
"0  c #583A29",
"q  c #483835",
"w  c #553D35",
"e  c #422831",
"r  c #633E22",
"t  c #683D26",
"y  c #643F33",
"u  c #67431A",
"i  c #5B4228",
"p  c #484338",
"a  c #584536",
"s  c #50462E",
"d  c #654123",
"f  c #6B4224",
"g  c #65422B",
"h  c #69472B",
"j  c #76492B",
"k  c #7B5329",
"l  c #624432",
"z  c #684B38",
"x  c #7A4D34",
"c  c #6C5338",
"v  c #765234",
"b  c #7A5334",
"n  c #74543C",
"m  c #7B553C",
"M  c #7D5A3C",
"N  c #775A38",
"B  c #272D43",
"V  c #2D3344",
"C  c #2D3549",
"Z  c #333944",
"A  c #343B4B",
"S  c #373B48",
"D  c #383D54",
"F  c #443E46",
"G  c #513C41",
"H  c #3C424C",
"J  c #3C4354",
"K  c #3E455B",
"L  c #3F4957",
"P  c #3E4863",
"I  c #45454C",
"U  c #564B45",
"Y  c #595349",
"T  c #434953",
"R  c #41465B",
"E  c #434A5B",
"W  c #494D5B",
"Q  c #4B4B53",
"!  c #4A525D",
"~  c #55535A",
"^  c #544F55",
"/  c #664D45",
"(  c #6B5648",
")  c #735B43",
"_  c #795C46",
"`  c #675D54",
"'  c #755C53",
"]  c #7A644A",
"[  c #6A655B",
"{  c #7C6353",
"}  c #78685A",
"|  c #6F725F",
" . c #454C62",
".. c #494E64",
"X. c #444B66",
"o. c #4B5365",
"O. c #4D546A",
"+. c #4B5569",
"@. c #525564",
"#. c #545A65",
"$. c #5A5C64",
"%. c #51566E",
"&. c #545B6C",
"*. c #5A5C6B",
"=. c #4E5672",
"-. c #565C72",
";. c #5A5D73",
":. c #545976",
">. c #514F67",
",. c #635E77",
"<. c #5C636D",
"1. c #5B6266",
"2. c #5B6374",
"3. c #5D637B",
"4. c #5A6678",
"5. c #63656D",
"6. c #65686B",
"7. c #796B63",
"8. c #626475",
"9. c #62667C",
"0. c #636A7C",
"q. c #6A6E7D",
"w. c #686B74",
"e. c #6C717B",
"r. c #73757B",
"t. c #707069",
"y. c #82552C",
"u. c #865A35",
"i. c #835D3C",
"p. c #8C5D3B",
"a. c #855636",
"s. c #895734",
"d. c #84623D",
"f. c #8A623D",
"g. c #876437",
"h. c #93643C",
"j. c #835E42",
"k. c #8A5D43",
"l. c #8A5B49",
"z. c #915C45",
"x. c #895A50",
"c. c #856243",
"v. c #8B6343",
"b. c #8B6A45",
"n. c #85634A",
"m. c #8A644A",
"M. c #8C6A4B",
"N. c #866B4A",
"B. c #936647",
"V. c #866854",
"C. c #916F55",
"Z. c #887366",
"A. c #857068",
"S. c #5E6982",
"D. c #656B83",
"F. c #696D84",
"G. c #696E89",
"H. c #636784",
"J. c #6B7285",
"K. c #6D738B",
"L. c #68748A",
"P. c #717384",
"I. c #72768B",
"U. c #737B8D",
"Y. c #7B7C8B",
"T. c #767C84",
"R. c #6C7591",
"E. c #727693",
"W. c #757C93",
"Q. c #7A7D93",
"!. c #767C99",
"~. c #797E9B",
"^. c #74779A",
"/. c #7E7EA0",
"(. c #807E94",
"). c #7C828C",
"_. c #788189",
"`. c #7B8394",
"'. c #7C839B",
"]. c #7A8699",
"[. c #7E84A1",
"{. c #7C89A5",
"}. c #7E92AA",
"|. c #83878B",
" X c #828494",
".X c #83859C",
"XX c #848A9D",
"oX c #8A8D9C",
"OX c #878996",
"+X c #8B929B",
"@X c #93959E",
"#X c #8286A3",
"$X c #858CA4",
"%X c #8A8EA5",
"&X c #858CAA",
"*X c #8A8EAB",
"=X c #8386A8",
"-X c #8B92A5",
";X c #8C93AC",
":X c #8894AB",
">X c #9294A5",
",X c #9195AB",
"<X c #9399AC",
"1X c #9A9CAC",
"2X c #9599A5",
"3X c #898EB2",
"4X c #8D93B2",
"5X c #8A94B7",
"6X c #9196B3",
"7X c #949BB3",
"8X c #9A9DB4",
"9X c #959BBA",
"0X c #999EBA",
"qX c #9197B9",
"wX c #9BA2B5",
"eX c #9DA3BB",
"rX c #99A5BA",
"tX c #9DA1AD",
"yX c #A2A5AB",
"uX c #A3A5BC",
"iX c #A3A9BC",
"pX c #A9ADBB",
"aX c #A5A9B4",
"sX c #ADB1BE",
"dX c #B5B8BE",
"fX c #9B9EC0",
"gX c #9DA2C1",
"hX c #A2A5C2",
"jX c #A5ABC3",
"kX c #AAAEC4",
"lX c #A9ACCA",
"zX c #ACB2C4",
"xX c #ACB2CC",
"cX c #AAB4C6",
"vX c #B1B4C4",
"bX c #B4B9CD",
"nX c #B5B9CA",
"mX c #B7BBD3",
"MX c #AEB5D0",
"NX c #BBC2D1",
"BX c #C7C7D6",
/* pixels */
"                                                                                                                                ",
"                                                                                                                                ",
"                                                                                                                                ",
"                                                              5.1.5.w.w.w.              1.w.5.5.w.1.w.          w.$.5.w.6.      ",
"              pXbX<X      NXxXeXnXvXzXpXpXsXsXtXtX<.#.nXnXiXvXbXzXzXpXpXzXwX+Xq.@.sXnXsXzXzXzXzXiXzXpXaX2Xe.~ nXnXpXvXsXdX      ",
"            %X%X#X-X<Xq.U.jXeX4X;X-X%X$XXX-X-X$X%XI.J.MX;X;X6X&X$X$X$X$X;X-X-XJ.I.cX-X-X8X$X#X$X-X#X$X;X;XQ.3.kX,X<X,XoX2X:     ",
"            8X*X4XqX#XW.K.hX&X4X3X4X4X4X6X;X;X;X,X!.D.rX;X5X4X4X5X4XqX4X;X$X8X!.3.eX4X:X;X4X5X4X4X4X7X&X;X[.H.hX;X*X#X<X1X:     ",
"          OX0X*X~.!.;X3.D.;XqX3X4X4X;X4X9X-X`.W.$X9.3.0X;X4XqX5XqXqX9X4X{.W.$XD.3.<X:X;X:X;X4X4X0X&X[.W.&XK.:.qX;X;X;X,X>X:     ",
"          OX.X#X~.9XJ.E 2.wX7X6X0X4X6X-X$X`.`.1XI.E 2.wX-X*X#XE.!.W.K.D.J.<XU.E &.wX;X;X7X7X;X-X'.$XW.eXE...;.7X,X7X,X2X2X      ",
"           X>X3.#X9.J T V ! O.9.D.H.K.U.-X8.`.8.T @.Z o.J.I..X,X-X;X8XXXU.U.J o.A &.o.9.J.3.`.K.0X-.U.J.J X.B ..%.9.P.w.Y.      ",
"            I.H.H.K.U.J.q.q.K.K.G.=.A %.J.F.K.q.o.A R -XzXbXuX8XeX2X2XwXwXiXiX&.B ..'.J.D.3.C K D.K.W.3.Q.G.G.K.G.I.2.8.<       ",
"          *.uXlXxXhXjX;XwXwXbXeX;X0X=.O.uXkXeX0.-.wXD.XXbXQ.'.&XXXXXXX`.I.#XW...%X0.].rXrX0X-...7XjXjXkXhXhX0X0XmXuX7XaXw.      ",
"           XlX[.=X&X!.W.-X-X;X*X0X*XE.~.hXG.X.#XMXhX'...eXeX*X'.-X,XQ.%XK.9.D H.mXhXW.:.G.9XK.G.MX'.4X~.~.~.&X3X3X4X6XXX>X$     ",
"          J.0XqXqX4XrXeX,X-X9X[.G.D.G.E.H.=.mXmXeX$X~.;.D.Q.,X8XXXP.U.J.O. .%.jXMX4X0X0XG.+.-.%.0X4X;X4XgX9XqX4X3X&X!.D.P.;     ",
"            '.W.:X:X:X<XjX-X#XR.'.W.J.C 4.NX8X;X-X7X'.U.L E 2.W Z T T T &.J `.MXrX-X-X%XiXK.& 2..XW.-X%X;X6XhX7X;XG.U.U.e.#     ",
"            `.J.].rX].].XX-X~.W.`.J.R 4.cX<X$X].-XXXY.! , ; * * * * * * * * $.pX1X;X].XXXXXX#.J K.K.I.wXXX'.;X%X!.R.`.P.#.*     ",
"            W J  .%.2.e.<.W O.E o.E 0.xX`.$X9X:XU.J.F * = a ( a a { / ' w 9 - p +XXX{.}.:XS.9.&.L R L <.&.q.q.&.R &.o.T H .     ",
"            2.3.9.-.: H S &.2.J.q.J 2.$X].].'.W.#.* o 8 / { V.h i N.l.x.g V.] - I Y.3.].L.o.E @.V o.J.&.Z Z A o.0.0.0.0.w.#     ",
"          pXvXxXlXrX-Xo.o.bXmXjX;.I.<Xo...3.&.@.; o a a n c.b.v u i.l.x.r _ M.) 9 U *.q.2.A W .X.X+.jXjX$X9.E uXmXjXcXmXnX<     ",
"           X*X=X=X4X6XD.'.iX0X%.;.BXmXjXD.V *.* o a C.r b f.g.k u f.k.l.t a.c.n.w 9 U I , U.mXmX0XD.C #X7XK.W.jX4X7X;XXX-X<     ",
"          ).8XqX4X4X7XK.K.eX;X..uXuX.X,X-X0.< $ 8 _ m.5 y.h.g.k u M.k.j.h k.c.j.t ' q F @XzXxX[.&X0XD W.<X.X3.hX4X6X;X,X<X<     ",
"          @X8X*X#X!.-X9.0.eXK.3.pX X$X-X#XQ.< = a V.v.f k u.u.k u c.j.k.r b d.v.r _ ( Y dXeX;X5XeX;X+.%.,XJ.O.eX&X;X;X%X>X<     ",
"          OXoX'.E.eXI.L J.iXJ.F.wX>X:X}.].4.* e a j.v.f b v.b.v d c.j.c.d d.b.N 5 b.] 9 r.NX&X3X4XW.2.J I.&.2.2X8X;X<X<X1X;     ",
"          |.oXJ..XK.E R V 2.o.J.2X].{.].L.o.$ w a n.m.d x c.c.v f v.i.i.u N g.g.u i.N.a Y yX*X{.&XXX-.A W T A &.3.D.Q.q.).*     ",
"          $.P.-.3.9.2.2.&.0.R K.2X-X:XR.D.A * U l n.m.f v m.v.b u h.p.p.4 v b.g.u f.b.c p r.*X6X'.2.3.A W 2.&.2.-.9.;.@.S .     ",
"            1XbXlXxXiXiX8XiX7XJ -.%.+.P 4.: > / z m.m.g v M M.b 6 h.h.p.f N N._ d M N.( q Q ,.H.-.o.9.V o.zXwXiXNXeXwX1X<.X     ",
"          OXuX&X4X~.!.`.#X-XR.X.Q.W.K.G.R * e / g m C.g v c.B.j 6 h.p.p.0 ( Z.A.w Z.{ 7.F F XXI.E.9.B C %.U.-X#X;X$X*X,XoX#     ",
"          P.uX;X4XqXgX;X;X0X=.*XmXuXlX0XP.1 = z g n._ i n n.u.y.f u.B.k.0 7.A.G w w ' ` 1 pXmXhX0X6XW.B 3.wX$X6X4X4X~.9. X*     ",
"          w.%XE.4X5X&XrXuX7X=.gX;X*X#X#X.X1 = Z.l ( Z.' 9 C.v.j r m.v.m z / = > o q = ; Z nX%X&X&X].7XD R 8XxX7X[.R.~.K.P.*     ",
"            Q.E.[.9X#XXX-X-X3.7X6XgX[.&XI.> = ' w 8 [ t.@ ( m.j z v j.c.0 0 o = % @ = 2 Z <X-X*X0X$XI.J o..X-X-X#XW.XXU.*.#     ",
"            W o.%.D.q.K.q.#.E wX;X$X&X[.I.> q 9 o = . Z * X 0 n g c.p.u.f j.z 7 a 0 s p 1 T. XXXXX$X2.V J J.P.2.o.&.&.@.Q .     ",
"            @...O.o.: L H J  .U.XXK.[.'.2.; q / o > Q * * w a z t M.p.y.5 b M.n.i M ] z 2 $.q.P.0.2.<.Z Z H Z R +.2.#.&.$.#     ",
"          pXkXkXxX6X`.o.R zX0.A o.E X.K A * 2 ' 8 / } s i m k.j g v.p.u.4 f.v.i.r M N.] - < E E R R S , 8.0.A uXmXeXjXnXvX<     ",
"          OX-X9X;X4X7X9.`.zX-.J.uX<X4XK.@.; q ( i ) M.d v v.B.x f v.p.u.4 c.v.i.4 M b.] - 1.kX8X8XeX;.V 2.K.F.kXwX7X7X-X+X<     ",
"           X,X;X;XqX-XD.U.iX .jXkX,X0X9X`.2 p _ g j.M.d v v.k.x f v.p.u.4 c.v.f.f N b.c Y NXuX,X7X-X2XD ...X0.iX;X-X;X,X+X;     ",
"          +X8X9X[.'.8XK.9.<X-..X;X$X&X$X).2 s c d v.M.d v v.c.b d v.p.u.4 i.v.f.4 i.v.c A.yX X6X,X$X;XD o.Q.4.<X-X;X;X-X>X<     ",
"          OXXX'.^.*XW.o.0.wX-.I.;X7X:X].).2 s M f k.v.4 b C.M.v d v.p.p.4 i.f.f.4 M.i.c [ aX%X*X*XwX;XJ o.-.%.wX<X;X;X,XtX;     ",
"          OX%X~.*X~.+.E A J.O.].;X-X!.L.e.* 9 M r k.k.r j b.M.v f v.p.p.d i.f.i.4 b.b.n [ |.8X&X&X'.%XD J o.A 3.K.!.Q.`.OX;     ",
"          1.I.O.:.=.;.%.O.O.R G.;X$XR.=.W - a c g v.m.h j c.b.b f v.p.p.d i.f.i.4 c.C.c U T.Q.[.~.!.W.D R %. .%...3.;...S #     ",
"          Q wXjXlXhXxXwXwXeX;.C %. .X...A $ s ) l ) n h v b.M.b f f.p.p.4 i.f.i.d M b.] U 1 &.3.:.D.D & '.zX<XeXMXeX;X2X#..     ",
"          ).uX%X*X~.].`.<XU. .!.8X8X7XwX X; q ( z { i c v b.B.j f v.p.f.4 c.v.i.r j.b.) p r.7X9X;X-XK.V &.`.%X#X0X<X;X2XOX.     ",
"          r.pX%X6X0X7X;X%X-X%.iXjX<XrX7X1X1 q ' [ A.O 7 M i.B.y.f f.p.p.4 i.v.i.4 m.M.i Y BXmX9X;X;X8XR R -X;X;X#X<X'.q.).;     ",
"          5.>X'.6X&X8X8XiX-Xo.-X-X-X-X%XY.1 2 7.q U s O c b.B.j f p.p.p.4 M v.f.r j.M.l ` dX,X*X-X7X'.J D .XiX-X-XW.K.J.e.;     ",
"          $.Q.G.#XeX$X].wX.XK %X2X<X;X.Xq.1 q Y q [ 7.a i j.p.s.f p.h.p.d M v.f.r j.b.i [ yX%X&X7X$XJ.L R 0.wX8X'.J.XXoX#..     ",
"            *.:.3.~.J.U.K.2.o.U.$XXXW.*X$.q a s + ' } 9 0 m.p.j f k.B.p.d M v.v.4 c.M.i [ yX$X'.#XI.XXJ R U.9.D.4.3.4.&.T *     ",
"            E K P D C ! L A J W.;X7X~.U. X2 9 ' + O a 7 _ M v.x f k.p.p.r N v.v.r j.b.h U @X$X0X$XU.&.H : J E A L O...! ! .     ",
"          yXzXhXxX0XJ.E A iXU.o.'.3.=.4.~ = a c i n l g v m C.j g k.p.p.4 M v.v.3 j.M.) p r.9.3.O.+.J V 2.&.: <XbXiXiXvXpX<     ",
"          OX<X;X4X$X8XD.Q.zX&. .D.H.S.O.S * s n g m.V.t m v.j.b f k.p.k.r _ c.n.g c.c.] - H 8.G.D.4.o.: <.Y.q.zX0X<X8X,X1X;     ",
"          oX>X,X;X-X;XD.!.0XR %XbXjXlX;XY.2 w n d k.m.y x k.B.y.t B.p.i.t _ Z.{ a V.{ ' - pXmXlXxXjX,XL E ).0.iX;X4X;X*X<X<     ",
"          oX<X;X7X!.0XK.D.9X..eX-X;X*X!.P.I q n d f.m.t x k.B.y.f a.B.k.0 { ' = 7 q / U 2 vX8X4X4X&X%XA @.XX2.8X;X4X4X;X>X,     ",
"          >X.X$X3.$X~.+.G.8X .wX8X#X*XE.(.Q 9 _ d f.b.d b p.h.y.u p.k.m l w o > o e = * S ;X5X3X&XMXW.B @.*.&.8X;X7X;X;X<X,     ",
"          Y.>XW.<X;XO.K ..I.W `.%XJ.;.#X*.> a z u d.b.d b f.f.k u i.v.m l / = o = $ > > < '.3X[.:X!.L L J o.J U.!.[.;XQ.1X;     ",
"          r.P.W -.E E o.A ! W #.@.A L E W 2 9 ] d c.n.r b f.p.k f u.v.j.0 { ' 9 a a Y p ; 4.-.X...R T V J T J R E O.%.o.I .     ",
"            <XuXiXiXkXwX<XT.+X_.).+XU.XXOXt.+ n i b.m.r m c.p.b f k.k.k.d n ] V.i ) V.9 t.+XJ.].`.`.>X)., `.wXwXcXwX-X-XT .     ",
"            iX;X7X].W.XX2X&._.&.<.! <.1.1.6.- ) i m.m.r m v.p.a.t k.z.p.4 b v.d.u M N.s | 1.w.@.&.2.&.`.A 8.,X-XeX&X8X-X|..     ",
"          Y.uX%X4X4X0X&X$X3.J.q.! J.<.! @.6.+ a g M.m.r m m.p.a.t z.z.s.6 u.g.g.u N N.s [ r.@.8.0.o.E F.A U.6X;X;X4X$XK.oX*     ",
"            ,X#X9X3X4XfXgX:.!.;.3.<X#X4.o.$.o a l n.m.d m v.p.y.t z.z.z.5 v.f.d.5 c.V.q ~ w.>.#X#X!.R 3.D ^.lX3X3X^.H.F.J.:     ",
"            Q.E.#XfX&X*XhXS.3.H.:.O.=.4.O.~ > 8 w V.V.0 v v.v.x r l.x.l.4 c.m._ 0 ) Z.w ^ P.,.;.-.-...G.D F.hX6X/.!.&XXX8.#     ",
"              8.9.%XQ.K.U.2.2.;.G.%. .E R 8.$ q U { V.l n n.m.n l V.V.x.y { V.] z ' A.U ~ *.5.#.W T W q.S 8..XP.F.0.8.*.W       ",
"                  S H ~ W W 5.w.P. X XU.T.Y.. = = 8 9 + 7 7 9 7 7 8 9 9 7 9 9 9 + 9 2 * w.w.w.OX|.|.e.OX1 ~ T I S T Q I I       ",
"                                                                                                                                ",
"                                                                                                                                ",
"                                                                                                                                ",
"                                                                                                                                "
};
