/* XPM */
static char *e536c5d39f594dfa9772c106a765ad09K7dLZfl58MlUt9F7[] = {
/* columns rows colors chars-per-pixel */
"64 64 27 1 ",
"  c None",
". c #121B2E",
"X c #1F283C",
"o c #262E44",
"O c #272E44",
"+ c #2B354A",
"@ c #38435C",
"# c #3C475E",
"$ c #45516A",
"% c #45516B",
"& c #4A5670",
"* c #565F78",
"= c #566078",
"- c #636F87",
"; c #758099",
": c #808DA7",
"> c #8B98B2",
", c #95A2BB",
"< c #99A5BE",
"1 c #98A7C0",
"2 c #9CA9C3",
"3 c #A5B3CC",
"4 c #B2BED8",
"5 c #BDC9E0",
"6 c #C2D0E9",
"7 c #CAD6F0",
"8 c #CEDBF3",
/* pixels */
"                                                                ",
"                                                                ",
"                                                                ",
"                                                                ",
"    .XXX##############################################o.X       ",
"    o#$=2454555555555555555555555555555555555555555554-@@o      ",
"    o$$-4888788888888888888888888888888888888888888776;##+      ",
"    +=-;3666666666666666666666666666666666666666666686;@#+      ",
"    $<333433333333333333333333333333333333333333333686;@#+      ",
"    =5863<,,1,11,,1,,,1,,,1,,,1,,,1,,,1,,,1,,11,,,3685;##+      ",
"    =586311,111111111111111111111111111111111111223575;##+      ",
"    =5863111111111111111111111111111111111111113454443-##+      ",
"    =586311,111111111111111111111111111111,1111378632,-##+      ",
"    =5863<<,<,1,1,1,11,1,11,1,11,1,11,1,11,<1<147863,,-##+      ",
"    =5853<<,<1<11111,1111,1111,1111,1111,1<1<<<34542,,-##+      ",
"    =5853<,<<<<<<<,<<<,<<<<,<<<<,<<<<,<<<<<,<<<<22221<-@#+      ",
"    =5853<<<<<<<<<<<<<<<<<<<<<<<<<<<<<<<<<<<<<1<,<111,-##+      ",
"    =586311<2<1<<<<<<11111111111111111111111111111111,-##+      ",
"    =5863111211<111111<11<11<111<11<111<111<11111<112,-##+      ",
"    =5863111111<1<<<111111,111,11,111,111,1111,111<11,-##+      ",
"    =5863111111<111<1,1<111111111111111,111,1111<1112,-##+      ",
"    =586311111<1<<1<1111,1<1<<1<1<1,1<111<111<1<11<11,-##+      ",
"    =586311<111<11<1<1<111<1<1<1<111<1<1<1<1<1<1<1112,-##+      ",
"    =47531<<1<1<1<1<1<1<<<1<111<1<<<1<1<1<1<1<1<111,<>-##+      ",
"    @:>:,1,,<111<1<1<<<<1<<1<<<<<<<<<<<<<<<<<<<<<2,;;-&##+      ",
"    X##=:111,,,,,,,,<<<<<<<<<<<<,,,<<<<<<<<<<<<<<2:=#####+      ",
"    X@@&>222<1222222222222222222222222222222222222>=###@#+      ",
"    X@#$;:::::::::::::::::::::::::::::::::::::::::;&#@@##+      ",
"    X@#@$$$&&&&&&&&$&&&&&&$&$$&$&&&$&&&&&&&&&&&&&&$######+      ",
"    X@#@#@#@@@@@@@@@@@@@@@@@####@##@@@@@@@@@@@@@@@#@#@#@@+      ",
"    o&&&&$&&&&&&&&&&&&&&&&&$###&&&&&&&&&&&&&&&&&&&&&&&$#@+      ",
"    $2333333333333333333333>&@$>3333333333333333333342-##+      ",
"    =58778887788888878777783&@&37788888888878777877886;##+      ",
"    =58767788767767778777773&@&38877777777777777777776;##+      ",
"    =58644444444444444445773&@&37754444444444444434686;##+      ",
"    =5863,<111211111<<<24683&#&387522<222<<222<,,,3586;##+      ",
"    =5863,1112111111<<<24683&#&38742<<<<<<<<2<,<2<3586;##+      ",
"    =5863,11111111112343455,&#&38742<<<<<<<<<<<2344454;##+      ",
"    =5853,<,<11,1,212566522:&@&38741<<1<<<<<<,<3685321-##+      ",
"    =5853,<,121,212125875<,:$#&3874111111<,<<,146853<,-@#+      ",
"    &343,>>>>>::>>>:>3443,>;$#&3784111111<,<1<2356431,-@#+      ",
"    +=*=&&&&$&&&&&&&&=====&$##&2884111111<<11<123321<,-@#+      ",
"    X@@#@@#@@@#@@#@@###@@#@##@&38841111111,111<<<<<<<,-@#+      ",
"    o$$&$$&$$$$&$&@@#$&$$$$$#@&387411111111111,1<,,<1,-@#+      ",
"    #><1,,<,<<,<<:&@$;22<<<:&#&3774111111,,111,11<<<1,-##+      ",
"    =5888887787884=@$,788883=@&38741<11<111<<<<<1<<<2,-##+      ",
"    =5877876777773=@$1887773=@$38741<<11<<<<<1<<<<<,2,-@#+      ",
"    *5865544445783=@$<88655<&@$38741<<11<<<11<11<<,12,-@#+      ",
"    =575322<1<4783=@$177411:&@$38741<1111<1<1<11121,,>-##+      ",
"    =58631,<1,3783=@&16851<:$@&3874111111,11111111111,-@@+      ",
"    =5863,,3334553=@$<684::;$#&3874111111111111111,:::=@@+      ",
"    =5763,1466432>&@&278>&$$#@&3874111111111111112>=$$###+      ",
"    =587312588521>&@$,88>$@##@&3884222222122222222>&@#@@#+      ",
"    $3541>,3453,>;&@$>44:$@##@&,553>>>>>>>>>>>>>>,;&@#$##o      ",
"    +---===----===$@#=--=###$##=---================$#####+      ",
"    X@@@@@@@@@@@@@#@@#@@#@@#@####@@##############@@##@@##+      ",
"    X@@@@@@@@####@@@###@#@@@@##@@##@@@@@@@#@#@#@#@@@@@@@@o      ",
"    .XoXoXooXoXoooooXXXXooooooooooXooooooooooooooooooooXXX      ",
"                                                                ",
"                                                                ",
"                                                                ",
"                                                                ",
"                                                                ",
"                                                                "
};
