/* XPM */
static char *aec131ea7a8d4fc29ffb8d0c7e3aa1e5g4Oj6HtxFiZKxYOE[] = {
/* columns rows colors chars-per-pixel */
"64 64 181 2 ",
"   c None",
".  c #030206",
"X  c #05050B",
"o  c #09070D",
"O  c #0B090B",
"+  c #0F0F14",
"@  c #100F13",
"#  c #121215",
"$  c #171917",
"%  c #14151A",
"&  c #191719",
"*  c #17181B",
"=  c #191A1A",
"-  c #191721",
";  c #1D1E21",
":  c #1E2025",
">  c #1E2128",
",  c #212124",
"<  c #23252B",
"1  c #27292E",
"2  c #292A2E",
"3  c #212730",
"4  c #272832",
"5  c #2A2C34",
"6  c #262E3C",
"7  c #2B2F39",
"8  c #2E3136",
"9  c #2D343D",
"0  c #323437",
"q  c #32363D",
"w  c #38373D",
"e  c #33393F",
"r  c #393A3F",
"t  c #272F42",
"y  c #2D3443",
"u  c #2E364A",
"i  c #313742",
"p  c #333942",
"a  c #3A3D46",
"s  c #30374A",
"d  c #343B4B",
"f  c #383E4B",
"g  c #323751",
"h  c #363D52",
"j  c #383F52",
"k  c #3B424D",
"l  c #3C4354",
"z  c #3D445A",
"x  c #42444D",
"c  c #434653",
"v  c #434955",
"b  c #4A4C55",
"n  c #41475B",
"m  c #444B5C",
"M  c #4A4E5C",
"N  c #4C5052",
"B  c #4C515B",
"V  c #52545E",
"C  c #57585D",
"Z  c #454C62",
"A  c #494F64",
"S  c #484F68",
"D  c #4C5364",
"F  c #4D546A",
"G  c #515664",
"H  c #545966",
"J  c #5B5D65",
"K  c #50576C",
"L  c #545B6C",
"P  c #595E6A",
"I  c #525672",
"U  c #565C72",
"Y  c #595E74",
"T  c #565D7A",
"R  c #5D616C",
"E  c #5B6374",
"W  c #5D657A",
"Q  c #63646C",
"!  c #626573",
"~  c #646976",
"^  c #6A6B75",
"/  c #61667D",
"(  c #636A7D",
")  c #6C6E7B",
"_  c #6E7076",
"`  c #6E717D",
"'  c #72747D",
"]  c #5E6580",
"[  c #606681",
"{  c #656D82",
"}  c #6A6E84",
"|  c #696F89",
" . c #6B7285",
".. c #6C738A",
"X. c #6F7989",
"o. c #727584",
"O. c #747885",
"+. c #7A7D85",
"@. c #71778C",
"#. c #737A8D",
"$. c #7A7D8D",
"%. c #727791",
"&. c #747B92",
"*. c #787F95",
"=. c #767D9A",
"-. c #797F99",
";. c #7E8087",
":. c #7E8189",
">. c #768092",
",. c #7B8294",
"<. c #7D849B",
"1. c #7F899E",
"2. c #82858D",
"3. c #818693",
"4. c #838897",
"5. c #898C94",
"6. c #81879C",
"7. c #83899D",
"8. c #8A8D9D",
"9. c #88909F",
"0. c #8187A2",
"q. c #858CA3",
"w. c #898EA5",
"e. c #868CA9",
"r. c #898FAA",
"t. c #8B91A5",
"y. c #8D93AB",
"u. c #8F98AB",
"i. c #9195A5",
"p. c #9599A6",
"a. c #9197AD",
"s. c #939AAC",
"d. c #999CAE",
"f. c #898DB2",
"g. c #8D94B2",
"h. c #8F95B8",
"j. c #9096B2",
"k. c #949BB3",
"l. c #999EB4",
"z. c #9196B9",
"x. c #959CB9",
"c. c #999FB9",
"v. c #9BA2B5",
"b. c #9DA3BA",
"n. c #A1A5B6",
"m. c #A4A9B7",
"M. c #A1A6BA",
"N. c #A6A9BA",
"B. c #A7AABD",
"V. c #A3AABD",
"C. c #A8ABBE",
"Z. c #A9ADBD",
"A. c #A9AEBC",
"S. c #ACB0BE",
"D. c #9A9FC3",
"F. c #9EA5C1",
"G. c #A0A6C0",
"H. c #A4ABC2",
"J. c #A9ABC1",
"K. c #ABADC1",
"L. c #AAAEC4",
"P. c #A7ADC8",
"I. c #A9AFC9",
"U. c #AEB1C5",
"Y. c #ABB1C5",
"T. c #ACB2CA",
"R. c #B3B6C2",
"E. c #B2B4C6",
"W. c #B4B8C6",
"Q. c #B1B7CB",
"!. c #B6B9C9",
"~. c #B3BACC",
"^. c #BABDCF",
"/. c #B8BCCD",
"(. c #AFB5D0",
"). c #B0B5D1",
"_. c #B5BBD3",
"`. c #B9BED2",
"'. c #BBC1D3",
"]. c #BAC1DB",
"[. c #C3C9DC",
/* pixels */
"                                                                                                                                ",
"                                                                                                                                ",
"      O o X . o o o O O . O . . . .                                                           . . . o O O O O . . X .           ",
"      a ' ) ^ ` c 7 , 5 ^ ^ ^ ) ) ^ ) ' ' ^ C w < : J ' ^ ^ ' Q ) ^ ' ' Q r 1 < x ) ) ) ) ! ^ ) ' ) ` x 4 < 5 ^ ` ^ ` ' C       ",
"      J R.S.U.Z.p.p.c 8.^.Q.n._.T.K.J.J.C.Z.n.p.P ~ !.W.m.E.!.B.J.L.K.n.N.p.O.c Z.^.B.K.`.E.U.C.n.U.N.p.i.v p.'.K.N.!.R.2.      ",
"      b p.4.t.q.y.7.Y l.v.w.k.r.e.r.y.y.q.q.t.y.( #.Y.y.a.a.0.y.r.e.q.r.t.q.,.( P.k.a.y.w.q.q.r.y.q.t.w.t.U a.b.y.t.t.p.'       ",
"      b d.y.a.y.t.x.W 1.c.k.e.g.h.g.r.j.j.y.y.k.%...b.t.y.y.g.g.f.z.j.g.y.k.0.E b.e.y.j.g.j.r.y.y.g.t.a.w./ j.k.k.y.q.d.'       ",
"      b n.a.6.*.<.q.F <.k.t.g.g.g.g.j.k.r.-.*.q.Y | c.y.j.g.x.z.z.D.z.0.&.1.&.F a.k.y.r.y.g.g.k.g.q.%.<.q.D 0.g.e.g.y.s.`       ",
"      M t.<.<.1.k.W Z *.b.k.k.k.y.k.t.6.,.,.a.X.Z ( k.t.y.0.&.=.=.=.{ ..y.#.L D y.k.y.a.k.y.y.q.1.*.w.t.W Z 0.x.j.k.y.l.O.      ",
"      b p.*.{ q.F n j l U U ....@.{ 6.t.( 6.{ n Z h U ....-.g.y.r.q.6.@.,.D v f L L W ,.{ @.X.t.>.{ 6.F z d z W T &.{ #.J       ",
"      4 ) } / / { { E E / W ( W Z u W ( E ( W A d z w.T.T.P.F.b.b.b.v.v.A.v.E y l }  .E E f l  .( { ( /  .( W ] { [ / M 5       ",
"      < 4.n.H.T.H.Y.v.b.H.~.b.y.y.h E b.T.b.{ K y.{ 0.T.e.0.1.q.1.<.,.<.6.4.D ,.( ,.v.v.d.@.d 4.H.H.V.Y.V.b.x.T.T.k.k.8.i       ",
"      7 N.t.y.0.-.&.<.6.y.w.t.k.t.{ t.b...n <.T.P.%.F P.y.q.<.q.a.<.6.{ / m D H.T.%.W { 0.t.D H.y.q.w.@.*.0.0.t.j.k.y.i.!       ",
"      5 v.a.y.y.x.c.x.t.y.k.<...%...<.{ W P._.b.r.<.F %.q.a.y.k.@.@.*.L m Z t._.k.x.a.%.U ..n k.y.k.t.x.b.t.y.k.q.0. .#.R       ",
"      8 8.,.0.y.y.y.c.G.q.0...*. .U n U T.T.y.y.y.<.X.m D / E v m D D L m ( Q.H.y.r.k.v.@.y l q.-.e.y.y.y.P.c.1.q.{ *.o.G       ",
"      < o.@...k.x.1.y.k.q.*...0...n Y T.x.6.6.t.6.,.L s i f 9 i y i l v i E Q.l.w.q.6.q.w.W s X.%...k.k.0.w.k.r.*.%.7.o.x       ",
"      ; c D D E ..{ X.{ L U U K S { V.q.y.u.u.4. .G s y a d i i i a i i s s L y.y.*.q.k.*.W E l U F E  . ...{ U K W K M 0       ",
"      5 M l m D l s n j m M K I h 6.k.*.,.8.,.D d i i i i i i a i p i i p 9 i A #.*.,.,.E Z L d y D D f s n l n F K K P x       ",
"      V ^.T.L.T.1. .s W Q.B.T.F | { D W ( W H k 9 i a p p p i i q i i i a p y i D L W ( z m F 6.D a.Q.<.( d { Q.T.M.U.E.2.      ",
"      B d.w.t.y.a.y.U b.l.n.S | ].`.1.D l D l i a d i q q p p q p p i q q p a s y m L l Z t.~.V.X.d ,.d.y.F b.b.x.a.l.d.'       ",
"      b s.y.k.q.q.k.Y w.H.6.z P.b.x.b.,.D f f y i i i i q q p p p i p p 9 q p i f y d L k.'.b.t.v.n E y.y.E t.b.x.r.r.d.'       ",
"      B n.y.y.0.1.y.U 6.l.( { (.0.<.q.6. .d s a d p p a p q q p i i i a a i p i i f f A./.a.q.y.v.{ z t.y.Y q.y.q.y.a.d.)       ",
"      B p.4.<.@.y...m 6.l.E 6.l.t.q.q.q.( i f 9 i q 9 q e e i p a i q e i q 9 q i i 9 ) ~.y.q.x.q. .d X. .z 0.k.k.g.w.k.O.      ",
"      x p.8.#.k.*.D A L w.L <.k.q.w.*. .D y y a e p p e e e i i i p i i a p i p 9 a 9 m V.y.1.e.q.X.f D K Z W 6.<.q.r.t.)       ",
"      e 3.E F K z S l s m n <.a.q.0.@.W l i p i e e e e e e i i i i i i p e e e e a 9 f #.t.j.0.@.{ m l D l u Z Z U F G i       ",
"      > ) s.k.b.b.H.j.b.M.( U *.@.{ E E k 9 i i e e e e e e i i i i i i p i e e p 9 a f m { 0.&.K / m y t.b.l.b.H.w.y.} 5       ",
"      7 l.a.c.y.0.1.q.w.l...g I S F Z l d s i e e e e e e e i i i i p p p i e e a 9 e i l F I I U n y l @.1.t.a.v.k.w.p.C       ",
"      9 n.k.t.r.y.t.y.k.q.Z q.).G.H.q.L d s i i e e e e e e i i i i i p p p p e e e a 9 o.L.I.b.t.( y z 6.k.q.a.t.a.7.8.Q       ",
"      5 w.0.t.k.y.k.k.k.6.W ).y.j.t.y.*.l y a i e e e e e p p p e e p p s i i e e a e 9 V.T.e.y.q.y.U t 1.b.k.q.w.{ / o.J       ",
"      4 4.@.*.y.y.w.G.M.*./ G.j.g.0.0.@.l y s e e e e e i i p p e e p p s s i i e 9 k 9 t.k.r.q.q.0.E u <.b.H.q.,.@.s.@.c       ",
"      : P @.W 6.t.*.@.6.} / b.q.y.q.<.W j f i a e p i i i i p i e e i i s s i i a q i i #.6.0.k.y.*.n d { <.*.&.| ../ U x       ",
"      : y y d f m m E D i L k.q.y.q.q.{ f i i i p p p i i i i i e e i i s s i i 9 p i y E *.-.<.%.{ l u Z E S d l Z z n 7       ",
"      b p.t.t.y.W l y m <.L E { Z W E l f i i p i p i i i i i i i p p p p p p i e i i y l A F D Z D f f Z y Z t.t.t.y.p.'       ",
"      B Z.n.b.b.t.a.Z a.A.m Z { / Y m d i d d q p p i i i i i i i i p p p p i e e p q i y L  .W { D 6 m a.n k.~.H.b.H.B.2.      ",
"      M s.q.w.y.y.y.Y y.y.D T.Q.T.b.q./ f 9 i p p p i i i i e e p p p p i p e e e q a y O.[.Y.H.B.d.v d ,.U k.a.a.a.y.p.'       ",
"      M s.y.k.0.q.a.E y.y.E H.0.0.w.t.@.k i p 9 p p i i p p e e p p p p p p e e e k 3 D !.y.0.t.q.k.E y 6./ y.k.q.t.y.a.'       ",
"      M n.a.0.@.<.0.Z 6.6.S y.y.k.t.8.o.s i p q p p i i p p e e p i i i i p e e 9 a i M n.q.y.k.y.k.E y <.Z <.a.y.t.s.s.`       ",
"      c l.<.%.y.a.Y Z *.a.D 0.t.w.,.#. .k i p p p p i i i p e e e i e i i i e e a q i D s.y.y.0.y.x.U y U D ,.k.y.a.w.l.'       ",
"      x y.@.W *.n z h u D D 6.y.y.@.E L f p i q p p p p i i e e e e i i i p e e i q 9 m ,.q.t.q.<.6.E u n y h F K { Y o.B       ",
"      < ~ @.#. .*.<. .X.@.l { ,...Y D m i i p i p p p p i i e e e e i i i p e e q p d d F  .%.| %...z h <.%...%.%.X. .D <       ",
"      < 8.b.U.b.b.v.s.b.8.v n K F K L l i 9 p p p p p i i i e e e e i i p p e e e q d d y I [ [ { F t D V.a.l.V.T.b.a.i.a       ",
"      8 A.t.q.q.#.6.<.a.( D H.Y.T.H.K.9.f i a q p p p i i p e e e e i i p p e e p a 9 y 6.T.T.b.k.b.F u @.q.q.t.y.y.w.p.Q       ",
"      1 d.y.t.y.l.k.a.y.6.U H.k.w.a.a.,.l i 8 a p p i i i i e e e e i i i i p p a i 9 v ~.~.j.r.q.k.W 6 @.k.w.y.t.*.| o.Q       ",
"      5 8.&.6.y.q.y.H.H.{ U k.r.k.y.6.( k i q e p p i i i i e e e e i p p p p p q p y M V.b.q.j.k.6.L y E V.H.6.<.X.<.#.C       ",
"      <  .@.| k.x.<.6.k.W F y.j.q.6.<.R f i a i p p p p i p e e e p p p i i p p i i 9 M d.y.1.y.0.,.L f W @.a.4.@.@.<.) a       ",
"      * f n Z D W ( ..( n D 6.1.0.<.,.( l i 9 i p p i i i i e e e p i i i i p p p i 9 m v.y.<.1.*.,.E 6 E  ./ D D K S m q       ",
"      e P U K U z y l f L l 6.k.y.X.@. .f i p i p p p p i e i i i i i i i i p p q a s d 4.t.a.t.<.W l d f h h F E / Y ~ b       ",
"      J !.Y.Y.Q.t.,.d @.`.E U { S F D m s d i p p p p i i e i i i i i i i i p e p i y s L F K D Z n y l ,.d *.'.T.b.).`.3.      ",
"      b s.q.q.y.t.a.K b.t.l W %.<.( K m i i q i i i i i i i i p i i p p p i i i i p i i M @.@.*.@...s f 6.K v.b.y.g.y.s.O.      ",
"      M s.j.y.q.y.a.W w.7.Z H.T.H.H.6.@.k f d i i i i i p i i p i i p p p i i i a 9 a i p.[.H.H.H.H.( y ,.E u.v.k.k.y.a.`       ",
"      b n.y.y.1.1.t.Y q.#.L L.q.y.q.<. .f 9 9 d p e e e i i i i i p p p i i i i q i e 8 p.V.w.y.t.y.L d 4.L 6.t.t.q.y.s.`       ",
"      b p.<.<.%.q. .n <.,.L V.y.q.q. .@.k d d i e e e e e p p p p p p p p i i i q a 9 i <.s.w.w.b.q.m y ( m 6.v.y.j.y.b.O.      ",
"      x d.w...x.X.Z z F  .m q.,.W E #.D d y p p e e e e e e p e e e e p p p e e q e a i ) w.,.,.<.U f d G l D @...q.&.8.^       ",
"      0 #.Y K I Z Z Z n m D E D z z m m k i a q p e e e e e i e e e e i i i i i a a 9 d E L A K l m f f m D n D S Y K A 0       ",
"      < o.b.I.H.I.T.c.l.@.s.#.,.q.<.y.,.) 6 9 a i i i i i i i i e e i i i i i i 9 i 6 P y.#.<.6.q.q.a.D m A.k.H.T.k.a. .q       ",
"      4 N.y.y.r.-.=.q.%.(  .L E K L L E E 6 a i i i i i i i i i i e i i s s s s s s y D  .U U F U K ( L l 6.y.y.b.e.a.n.V       ",
"      8 m.y.y.t.k.g.k.<.W X.E L ( R G D E 9 9 a i i i i i i i i i i i s s s i i a i y B  .E U ( U D L L m k.y.y.e.y.<.,.^       ",
"      < t.4.q.a.t.x.c.1.W #.D  .t.,.E m H y a 9 i i i s s s p i i i p p s s s a i p i B ` L @.q.<.K F K n V.l.q.q...|  .H       ",
"      < $. .@.k.s.<.l.w.L ( L L B R P G G 6 a p p e e i i i i i e e i i i i i i e a 8 v ) H E D L D L G c n.l.w.<.@.q.#.c       ",
"      ; J ! E O.,.#.$.@.P P ~ P B B k V J 8 q w e e e e p p p e e e e p p p p e e e e B P ) H B m v P H c $.}  .E ) ! H x       ",
"      ; r p q x c c G M b ' R 2.2.:.O.;._ w q r q q q q q q q q 0 0 0 0 e e q 0 0 0 8 N ' J 5.+.2.' 2.R a J V f x V x x w       ",
"        # = = # # * * - # ; < 2 2 4 < < , @ & & = = & & & & & = = = * * * = = * = $ # , < 2 2 2 5 , 2 ; + @ # % # % % &         ",
"                                                                                                                                ",
"                                                                                                                                "
};
