/* XPM */
static char *_1862_15a9a6751989fc3dd0583af0aee12e9675655e903f82340fbcd35faeed39992a[] = {
/* columns rows colors chars-per-pixel */
"64 64 248 2 ",
"   c #03090B",
".  c #0A0D15",
"X  c #091818",
"o  c #15141B",
"O  c #19151C",
"+  c #141B1D",
"@  c #18171B",
"#  c #02100D",
"$  c #14221E",
"%  c #0E231D",
"&  c #151D25",
"*  c #1C1D24",
"=  c #181925",
"-  c #0F1821",
";  c #211D28",
":  c #0A2828",
">  c #142224",
",  c #1A2224",
"<  c #1D232B",
"1  c #1C2A2C",
"2  c #14292A",
"3  c #1D2434",
"4  c #1A2835",
"5  c #1D3A3B",
"6  c #1D3436",
"7  c #11342D",
"8  c #232326",
"9  c #23232B",
"0  c #232B2D",
"q  c #2B2B2E",
"w  c #242633",
"e  c #232C33",
"r  c #2B2C34",
"t  c #252A3D",
"y  c #2B2D3D",
"u  c #25263A",
"i  c #243535",
"p  c #2A3334",
"a  c #2A333A",
"s  c #233B3B",
"d  c #26353A",
"f  c #323235",
"g  c #32333C",
"h  c #343A3D",
"j  c #3A3A3E",
"k  c #293133",
"l  c #20191B",
"z  c #2D413E",
"x  c #17403C",
"c  c #252B41",
"v  c #2A2E43",
"b  c #2C3244",
"n  c #283A43",
"m  c #333542",
"M  c #333C44",
"N  c #3B3C44",
"B  c #31364B",
"V  c #343A4B",
"C  c #3C3D4C",
"Z  c #3B3E52",
"A  c #3A3F56",
"S  c #403D46",
"D  c #184744",
"F  c #1B5650",
"G  c #2C4345",
"H  c #2B4B4B",
"J  c #2A4647",
"K  c #334244",
"L  c #3A4245",
"P  c #33434B",
"I  c #3C434B",
"U  c #3D4B4C",
"Y  c #364B4A",
"T  c #3C4255",
"R  c #3C425B",
"E  c #3B4B53",
"W  c #295454",
"Q  c #3C5C5D",
"!  c #385456",
"~  c #26534E",
"^  c #3A6966",
"/  c #38726A",
"(  c #43444D",
")  c #434A4E",
"_  c #454549",
"`  c #43514C",
"'  c #424454",
"]  c #434B54",
"[  c #4B4C55",
"{  c #41465B",
"}  c #444B5C",
"|  c #4A4D5C",
" . c #494752",
".. c #435354",
"X. c #4C5255",
"o. c #4C525D",
"O. c #435B5C",
"+. c #47565A",
"@. c #525355",
"#. c #54545C",
"$. c #56595C",
"%. c #524E55",
"&. c #464D62",
"*. c #4A4E61",
"=. c #465162",
"-. c #4C5364",
";. c #4F5669",
":. c #4A5B64",
">. c #525565",
",. c #525A64",
"<. c #5B5C64",
"1. c #52566A",
"2. c #545A6C",
"3. c #5A5D6D",
"4. c #565D72",
"5. c #595E72",
"6. c #446365",
"7. c #4C6464",
"8. c #4A686B",
"9. c #5C6264",
"0. c #5C636B",
"q. c #566869",
"w. c #5B6275",
"e. c #5E647A",
"r. c #5B6876",
"t. c #4B7674",
"y. c #5A7477",
"u. c #4E726E",
"i. c #63646D",
"p. c #66686B",
"a. c #646673",
"s. c #646B74",
"d. c #6B6C74",
"f. c #62667B",
"g. c #646B7C",
"h. c #6A6C7C",
"j. c #6C7375",
"k. c #6C747B",
"l. c #6B7B7D",
"z. c #647578",
"x. c #73747B",
"c. c #74797B",
"v. c #747376",
"b. c #6E706F",
"n. c #4C655F",
"m. c #656D83",
"M. c #696E83",
"N. c #676D88",
"B. c #6B7285",
"V. c #6D738B",
"C. c #6A7B85",
"Z. c #727484",
"A. c #757B83",
"S. c #7B7C84",
"D. c #71768C",
"F. c #73798D",
"G. c #7B7D8C",
"H. c #717791",
"J. c #747A92",
"K. c #797E93",
"L. c #787F98",
"P. c #6F7691",
"I. c #817F8C",
"U. c #678688",
"Y. c #7C8486",
"T. c #7C838B",
"R. c #79888C",
"E. c #7C8294",
"W. c #7C839A",
"Q. c #7C8994",
"!. c #679694",
"~. c #7B9397",
"^. c #70908D",
"/. c #79AAA8",
"(. c #538882",
"). c #82848A",
"_. c #858B8C",
"`. c #848587",
"'. c #838494",
"]. c #858C94",
"[. c #8A8D93",
"{. c #82869C",
"}. c #848B9C",
"|. c #8A8B9B",
" X c #888795",
".X c #8B9294",
"XX c #8B949D",
"oX c #869798",
"OX c #94979B",
"+X c #858BA3",
"@X c #898DA3",
"#X c #888DA8",
"$X c #8C94A3",
"%X c #8998A5",
"&X c #9294A3",
"*X c #949CA2",
"=X c #959CAB",
"-X c #999DA7",
";X c #979CB4",
":X c #8EA4A7",
">X c #9CA2A6",
",X c #9BA4AC",
"<X c #96A5A9",
"1X c #9AA3B3",
"2X c #9DA9B3",
"3X c #9DA3BB",
"4X c #96ADB3",
"5X c #9BB1B9",
"6X c #A5A8AC",
"7X c #A3ABB3",
"8X c #A5A9B6",
"9X c #ACB4BB",
"0X c #A8B5B7",
"qX c #B4BBBB",
"wX c #B5B7B9",
"eX c #A7B0AF",
"rX c #BCC0BF",
"tX c #A9B7C2",
"yX c #B5BBC3",
"uX c #B7BBC6",
"iX c #A4AAC1",
"pX c #ACC8CA",
"aX c #BCC2C4",
"sX c #BAC6CC",
"dX c #B7C7CB",
"fX c #BBC9D2",
"gX c #BAD4D9",
"hX c #C1C3C7",
"jX c #C3CAD5",
"kX c #C7CBD8",
"lX c #C6D6DB",
"zX c #D3D6D9",
"xX c #CAD7E1",
"cX c #D5DBE6",
"vX c #DBE4EC",
"bX c #D4E4E8",
"nX c #D9E9F2",
"mX c #D0E9EA",
"MX c #E2E5EE",
"NX c #E7EBF7",
"BX c #ECF4FD",
"VX c #ECFBFE",
"CX c #E4F5FC",
"ZX c #F4FEFF",
"AX c #FBFCFF",
"SX c #F4F7FE",
"DX c #F0EFF5",
"FX c None",
/* pixels */
"FXFXFXFXFXFXFXFXFXFXFXFXFXFXFXFXFXFXFXFXFXFXFXFXFXFXFXFXFXFXFXFXFXFXFXFXFXFXFXFXFXFXFXFXFXFXFXFXFXFXFXFXFXFXFXFXFXFXFXFXFXFXFXFX",
"FXFXFXFXFXFXFXFXFXFXFXFXFXFXFXFXFXFXFXFXFXFXFXFXFXFXFXFXFXFXFXFXFXFXFXFXFXFXFXFXFXFXFXFXFXFXFXFXFXFXFXFXFXFXFXFXFXFXFXFXFXFXFXFX",
"FXFXFXFXFXFXFXFXFXFXFXFXFXFXFXFXFXFXFXFXFXFXFXFXFXFXFXFXFXFXFXFXFXFXFXFXFXFXFXFXFXFXFXFXFXFXFXFXFXFXFXFXFXFXFXFXFXFXFXFXFXFXFXFX",
"FXFXFXFXFXFXFXFXFXFXFXFXFXFXFXFXFXFXFXFXFXFXFXFXFXFXFXFXFXFXFXFXFXFXFXFXFXFXFXFXFXFXFXFXFXFXFXFXFXFXFXFXFXFXFXFXFXFXFXFXFXFXFXFX",
"FXFXFXFXFXFXFXFXFXFXFXFXFXFXFXFXFXFXFXFXFXFXFXFXFXFXFXFXFXFXFXFXFXFXFXFXFXFXFXFXFXFXFXFXFXFXFXFXFXFXFXFXFXFXFXFXFXFXFXFXFXFXFXFX",
"FXFXFXFXFXFXFXFXFXFXFXFXFXFXFXFXFXFXFXFXFXFXFXFXFXFXFXFXFXFXFXFXFXFXFXFXFXFXFXFXFXFXFXFXFXFXFXFXFXFXFXFXFXFXFXFXFXFXFXFXFXFXFXFX",
"FXFXFXFXFXFXFXS  .( ( ( ( ( ' ( S #.f ; C g g S f g N f 9 r q * S 3.%.S #.[ | [ [ S  .( w m N N N N N N N h h j 8 o FXFXFXFXFXFX",
"FXFXFXFXFXFX@ OX*X|.].].|.|.|.|.i.%.Z. Xf.Z.a.a.h.d.d.3.$.<.[ 9 I.kX8X;XuX8X1X&X&X'.|.{.C d.a.Z.h.h.d.d.a.p.a.d._ ; FXFXFXFXFXFX",
"FXFXFXFXFXFXFX X|.h.h.Z.M.M.M.D.h.$.p.$.j.A.1.{ 2.=.| o.o.o.o.< I.;XI.L.4.4.H.M.B.M.B.e.c w.} 5.2.} 2.3.[ | #.| S ; FXFXFXFXFXFX",
"FXFXFXFXFXFXFX|.|.D.D.D.D.D.J.f.A G.X.`.Y.) c.z.} 2.-.} -.;.E t P.3XP.H.m.w.4.J.P.g.w.w.B m.-.;.-.-.o.k.f.1.*.*.S ; FXFXFXFXFXFX",
"FXFXFXFXFXFXFX|.@XM.V.J.N.P.m.A J.#Xk.k..X<X*XY A.k.>.-.-.:.} e e.3XN.H.P.C.w.m.V.m.e.w.v r.;.=.0.e.g.:.*.| >.1.S ; FXFXFXFXFXFX",
"FXFXFXFXFXFX. M.f.m.D.N.H.N.R H.;XJ.H.z.+.<XdXrXl.E l.2.-.o.+.3 N.;XV.V.P.J.m.w.e.C.F.e.n e.m.e.w.=.4.-.2.-.>.>.C ; FXFXFXFXFXFX",
"FXFXFXFXFXFX= Z.I.N.4.m.1.R H.;XW.W.N.P.l.1 z u.fXxX:Xy.l.+.b.4 K.1XH.V.B.B.P.B.r.B.D.r.v r.m.r.B.r.=.=.} =.1.-.Z ; FXFXFXFXFXFX",
"FXFXFXFXFXFX= @XL.L.L.L.*.L.#XH.;XW.N.P.l.x :X^ ! CXmXl.z +.oXw N.;XV.J.P.V.V.H.V.V.P.e.b r.2.-.r.2.=.;.0.-.*.1.S ; FXFXFXFXFXFX",
"FXFXFXFXFXFXFXI.P.H.m.&.#X#XH.L.+XN.J.V.j.% ^.pXy.7.gXlXq.! ].d J.3XV.V.V.P.B.V.V.V.D.f.b e.-.-.-.=.:.E 5.f.2.*.S ; FXFXFXFXFXFX",
"FXFXFXFXFXFXFXI.D.m.&.N.#XI.H.P.V.P.V.H.~.q.X H y.(.6.mX:X> i L W.3XV.H.V.P.H.V.V.F.D.f.v m.*.;.=.-.=.e.1.5.5.1.S ; FXFXFXFXFXFX",
"FXFXFXFXFXFX=  XM.S +XiXI.L.H.P.D.K.D.I.&XQ...K 2 n 2 fXVXR.> c.h.+X{.D.D.D.J.1.u D.H.5.B f.1.*.1.*.1.f.5.&.>.>.C ; FXFXFXFXFXFX",
"FXFXFXFXFXFXO d.S H.iX#XP.P.N.P.v.; I.>XhX|.U T.g.C.1XjXvXMXlXzXd.K.N.m.V.V.N.R u 5.H.L.v 1.-.&.&.&.} | *.*.&.*.S ; FXFXFXFXFXFX",
"FXFXFXFXFXFXFX .#X;XK.V.P.P.N.P. XI.[.eX0XeXT.] P s.fXcXvXAXzX9.%.<.b V B c c 3 B u S 1.3 u u u u c u 3 c u 3 t y o FXFXFXFXFXFX",
"FXFXFXFXFXFXFXS I.8XD.V.H.P.P.L.8XzXwXeXeXqXY.U XXh.2.uX7X7XDXqXhX6X@.5.1.3.2.0.m.1.1.2.m D.M.K.|.L.B.M.M.V.M.M.d.r FXFXFXFXFXFX",
"FXFXFXFXFXFXFX>.v e.K.B.B.V.V.Z.%.f b.hXeXeX>X.XsXT.] 9XG.kXDXMXSXDXrXx.h.3.2.2.*.5.3.*.B 1XW.K.+X+XK.J.E.W.E.d.<.; FXFXFXFXFXFX",
"FXFXFXFXFXFXFXd.C B 4.J.V.B.J.Z.j wX`.b.rX6XrXeXqX|.3 ).MXcX&Xx.#.#.<.I.`.j.} -.*.*.1.{ c W.P.P.M.V.M.D.V.B.D.e.| 9 FXFXFXFXFXFX",
"FXFXFXFXFXFXFXa.3.&.b 2.H.F.N.K.p._..X` wXrX.X.X-X0.I.;XcX>.y ; ; q q r x.).x.&.} 1.*.{ c 3XJ.N.H.V.N.P.V.m.D.F.>.9 FXFXFXFXFXFX",
"FXFXFXFXFXFXFXd.-.;.=.B 4.V.H.V.'.p.q $.0XrXY.h d.<.|.uXG.= = 2.hXhX>Xr L A.c.v.*.m.P.S c ;XJ.P.V.D.V.B.P.P.g.g.3.; FXFXFXFXFXFX",
"FXFXFXFXFXFXFXa.1.&.2.} B 1.H.V.M.@Xv.&X>XqX`.0 X.a.&XlXm o w S.AXAXzX .. X.qXX.r.1.3.R c W.H.P.P.P.4.r.J.m.f.B.>.9 FXFXFXFXFXFX",
"FXFXFXFXFXFXFXa.>.-.&.;.&.A 4.H.D.D.H.B.}.eX_.a ,.k.cXd.w w * T.AXSXbXL + p .Xj.j.3.} Z c E.H.V.P.N.m.W.m.V.B.G.>.; FXFXFXFXFXFX",
"FXFXFXFXFXFXFXd.1.-.-.-.*.S Z 3.J.M.B.J.J.9X).L k.8XkXC * , l ` -X6X`.0 + + ..qX$.T.V.4.c W.H.N.P.C.C.V.m.w.D.B.>.; FXFXFXFXFXFX",
"FXFXFXFXFXFXFXi.>.-.&.-.1.1.{ B 5.F.H.B.7X-XX.>.=XuX9X& @ * $ $ * 9 & . 0 X d .Xc.j.g.=.4 W.W.P.V.m.w.P.C.m.D.D.>.9 FXFXFXFXFXFX",
"FXFXFXFXFXFXFX>.| >.1.1.| -.1.*.B 1.D.G.9XI.a A.yXkXg.< I e f $ , + 8 , 2 K 2 9.9X9.g.{ v J.D.B.2.2.J.w.;.m.V.D.>.< FXFXFXFXFXFX",
"FXFXFXFXFXFXFXi.>.*.1.*.>.1.*.3.| h.6X6XqXS.V =XjXxXb u z.*Xz z $ , $ $ h q.<X9..Xj.c.} v {.K.J.J.r.B.w.B.g.f.h.>.9 FXFXFXFXFXFX",
"FXFXFXFXFXFXFXi.' } C Z { S { C OXb.[.wXhXv.| uXxXuX3 & R.ZX.X` f $ $ ` p.lXCXp +.aX$.>.Z    .4.4.f.;.8.r.w.&.o. .9 FXFXFXFXFXFX",
"FXFXFXFXFXFXFXC m v B B t t c B I.@.v.OX-X$.=.uXNX8X. 4 A.ZXMXOXz + 0 n.dXZXfXK d >Xj.T.B.9.# o v b b b t b m b m * FXFXFXFXFXFX",
"FXFXFXFXFXFXFX6X&X&X;X;XW.{ J.$Xc.c.S.+.a.e A.7XkXtXb < ).ZXSXvXj l , k.ZXZXvXL < +.0Xn.aX0Xz.Y.w.g.g.g.o.} =.} N * FXFXFXFXFXFX",
"FXFXFXFXFXFXFX6XV.D.D.J.{ 5.#X&X.Xk.,X,.n I $X7X9XyXV & o.yX9X.XS l 0 9.0X0XXXd > q.lX! y.q.l._.2.=.&.o.2.o.-.,.N < FXFXFXFXFXFX",
"FXFXFXFXFXFXFX;XK.M.D.D.e.J.E.oX) I }.2X| L B.Q.sXkXz.< & 9 , a f @ . 4 > 4 w - n Q.oX6.z z # % l.>.-.-.=.2.} o.N * FXFXFXFXFXFX",
"FXFXFXFXFXFXFX).m.+XV.B 4.+X>XL i s +.dXR.4 V 2.$XvXNXs.h & + # 8  .l.Y.C.a 1 n 1XdXJ 8.u.6.z.z 0 j.2.=.g.3.5.w.V < FXFXFXFXFXFX",
"FXFXFXFXFXFXFX= A W.L.m.A.*Xz i r.E E ~.~.R P M { B.-XcX,XXXj.A.XXdXNXnXCX2X}.7XkXy.P ! x z U.y.i 1 j.>.>.2.;.w.C * FXFXFXFXFXFX",
"FXFXFXFXFXFXFXu D.}.V.V.OXz i n.O.7 E R.4XoXE.] T M V ].VXvXcXjX&X].:.w.w.:XvXcX>.:.:.! ~ Q z ^.y.0 $ r.=.2.M.-.I < FXFXFXFXFXFX",
"FXFXFXFXFXFXFXB #XH.D.V.q.# q.q.5 Q %XtX2X7XtX1XT.&XA.I s.9.9.:.d M P P a B m.-.:.$X:XG z n.x z oX1 $ 9.w.5.r.*.C * FXFXFXFXFXFX",
"FXFXFXFXFXFX= Z.D.V.V.V.b.X ! n.G 8.~.C.tXVXcXuXkXuX6XZ.-.k.s.T.2XQ.oX|.tX=XC 2.T.sXVX! z 5 H z n.7 $ l.=.f.2.-.C * FXFXFXFXFXFX",
"FXFXFXFXFXFX= '.Z.V.V.B.s.  n.O.G ! Y n k.fXkXBXAXNX6X&XxXAXVXZXBXfX8XcXBXvXkXlXtX&X,XU d U X % l.2 X H.m.R r.a.I * FXFXFXFXFXFX",
"FXFXFXFXFXFXo T.D.K.J.J.oX, Y n.n ..a n d y M.MXNXMXI.f.cXjXVXVXvXdXCXZXzX}.NXVXcXV h L h $ +.` z $ ` D.N.5.*.w.T * FXFXFXFXFXFX",
"FXFXFXFXFXFX; G.3.2.1.3.Y.R.U z > 2 < a m f I.MXMXG.w A.lXnXCXnXoXI zXBXlXE %XnXlX..$.h 0 $.=X2X` ` J.L.{.K.J.2.V * FXFXFXFXFXFX",
"FXFXFXFXFXFX. m V { `.[.w.*XR.L d + a 0 ; q I.kX).r a a.fXlXgX~.6 C.$XcXcXP 6./.0XO.E i 8 8XW.+XQ.}.B.D.K.J.K.r.| * FXFXFXFXFXFX",
"FXFXFXFXFXFX@ d.s.E.q _ >X.XrXhX_.* @ l r S p.v.r r 4 C.xXU.W W 2 y.=.4XpXQ / W U.~ 7.> , @XV.H.H.V.P.E.@X}.} { k.w FXFXFXFXFXFX",
"FXFXFXFXFXFX* a.>.-..Xf @ p.Y..XaX[.N f ; f %.S g a P y.U.H W y.n %Xr.8.C.8.m.D ^ t.l.> 0 @ A.$XP.J.N.@X@X{ A E.w.9 FXFXFXFXFXFX",
"FXFXFXFXFXFXo a.1.} <.[.@.$.L c.aX6XhX`.  S S m r 3 6 P W ^ ^ !.^ CXU.y.Q ^ /.F / D 7 1 $ 9.$X+XV.B.B.V.} ' }.F.| * FXFXFXFXFXFX",
"FXFXFXFXFXFXFXa.| >.a.c.S.v.rX6XOXaXrXv.O ; q S u & 6 5 D W / !.Q VXfX~.8.F /.F ^ 7 : : 8 W.;XP.V.J.J.} R E.B.D.3.* FXFXFXFXFXFX",
"FXFXFXFXFXFXFXi.,.a.3.h.wXqXwXb.) OX*Xp.o q p 9 > i Y H ^ (./ !.6.CXxXgX6.W /.W !.x : : e V.P.V.H.H.&.R E.F.V.D.1.9 FXFXFXFXFXFX",
"FXFXFXFXFXFXFXp.a.0.:.g.OXOXzXv., 0 p X 1 + 8 d 1 i J Q F 7 / t.! CXxXpX8.6.U.W W Q O.6 1 #XP.H.P.=.T Q.V.B.B.D.1.* FXFXFXFXFXFX",
"FXFXFXFXFXFXo d.a.1.o.w.`.@.OXb.h <.0.M , U d > 2 7 J t.~.t.t.: U.SXtX:XtX8.: t.Q :.r.:.X N K.V.&.R L.F.W.K.B.H.>.9 FXFXFXFXFXFX",
"FXFXFXFXFXFXo d.>.+.=.;.S.`.f S L X._.( 1 s...P P Q H 6.^ ^ D 8.ZXvX4XfXmXC.! D 5 J 2 6 e h N 1.R W.J.N.J.+X+XB.1.; FXFXFXFXFXFX",
"FXFXFXFXFXFXO p.+.-.-.-.=.-.;.OXN ( <.+.4 > J y.Q 8.! 6 2 n D z.BXSXVXVXCXVXnXxX5X:X4XE.A.T.x.g <.#XV.B.V.H.L.D.1.; FXFXFXFXFXFX",
"FXFXFXFXFXFXo p.>.>.=.1.-.-.&.;.8X).N ].s.~.oX2 5 2 8.pX4XtXlXjXuXyX7X0X9XtX4XQ.%X<X2X<Xa.i.i.d.N * @.&XW.J.B.F.>.< FXFXFXFXFXFX",
"FXFXFXFXFXFXFXi.$.| | -.1.1.-.>.6Xk.M Y.l.C.y.^.:XoX^.^.%X4X1X].#.I N L ( N M M I h.,X].w (  .N @.@.f i.%X@XC.B.>.9 FXFXFXFXFXFX",
"FXFXFXFXFXFXFXi.%.@.o.[ | *.| | 6Xj.N Y.j.q.:.K G n K M E 9X|.$.$.a.' 1.B 3 C 5.| S i.*XN I.D.M.D.h.B.k.h.D.h.Z.>.; FXFXFXFXFXFX",
"FXFXFXFXFXFXFXq f g g g g g g y c.f 9.$.) h g A.' C S )._ >X@.<.y y m g u w w f g m N [ f N C S S C I I I I Z S S 8 FXFXFXFXFXFX",
"FXFXFXFXFXFXFXl O O O @ O O O O j.8 X.f j., o o O - = 9 ) #.<.O o O o @ o o O = o O o g _ O o o O o o o o o O O l FXFXFXFXFXFXFX",
"FXFXFXFXFXFXFXFXFXFXFXFXFXFXFXFX_.k FXFXFXFXFXFXFXFXFXFXFX`.FXFXFXFXFXFXFXFXFXFXFXFXFXFXFXFXFXFXFXFXFXFXFXFXFXFXFXFXFXFXFXFXFXFX",
"FXFXFXFXFXFXFXFXFXFXFXFXFXFXFXFXFXFXFXFXFXFXFXFXFXFXFXFXFXFXFXFXFXFXFXFXFXFXFXFXFXFXFXFXFXFXFXFXFXFXFXFXFXFXFXFXFXFXFXFXFXFXFXFX",
"FXFXFXFXFXFXFXFXFXFXFXFXFXFXFXFXFXFXFXFXFXFXFXFXFXFXFXFXFXFXFXFXFXFXFXFXFXFXFXFXFXFXFXFXFXFXFXFXFXFXFXFXFXFXFXFXFXFXFXFXFXFXFXFX",
"FXFXFXFXFXFXFXFXFXFXFXFXFXFXFXFXFXFXFXFXFXFXFXFXFXFXFXFXFXFXFXFXFXFXFXFXFXFXFXFXFXFXFXFXFXFXFXFXFXFXFXFXFXFXFXFXFXFXFXFXFXFXFXFX",
"FXFXFXFXFXFXFXFXFXFXFXFXFXFXFXFXFXFXFXFXFXFXFXFXFXFXFXFXFXFXFXFXFXFXFXFXFXFXFXFXFXFXFXFXFXFXFXFXFXFXFXFXFXFXFXFXFXFXFXFXFXFXFXFX",
"FXFXFXFXFXFXFXFXFXFXFXFXFXFXFXFXFXFXFXFXFXFXFXFXFXFXFXFXFXFXFXFXFXFXFXFXFXFXFXFXFXFXFXFXFXFXFXFXFXFXFXFXFXFXFXFXFXFXFXFXFXFXFXFX"
};
