/* XPM */
static char *_4191_8603a5973ca35f95e9e58c9c617d183c4e40b9e9f66bba6550cc213105656140[] = {
/* columns rows colors chars-per-pixel */
"64 64 246 2 ",
"   c #000D0B",
".  c #090E14",
"X  c #031C1C",
"o  c #091717",
"O  c #15141B",
"+  c #19151C",
"@  c #17191C",
"#  c #01120E",
"$  c #14221E",
"%  c #0A1C22",
"&  c #1C1D24",
"*  c #161C24",
"=  c #211D28",
"-  c #0B2225",
";  c #0C2C2B",
":  c #062728",
">  c #132324",
",  c #1C2225",
"<  c #13262B",
"1  c #1D222B",
"2  c #142C2B",
"3  c #1B2A2B",
"4  c #0B2E30",
"5  c #142C31",
"6  c #1E2535",
"7  c #123231",
"8  c #1C3334",
"9  c #173A39",
"0  c #0C342F",
"q  c #232326",
"w  c #23232B",
"e  c #232B2E",
"r  c #2B2C2E",
"t  c #2B2C33",
"y  c #24263B",
"u  c #262A3E",
"i  c #2B2D3E",
"p  c #242933",
"a  c #302E3B",
"s  c #243235",
"d  c #2D353B",
"f  c #253C3C",
"g  c #293537",
"h  c #32333C",
"j  c #343B3D",
"k  c #3A3B3E",
"l  c #333337",
"z  c #20191B",
"x  c #16423D",
"c  c #26433E",
"v  c #282C42",
"b  c #2C3144",
"n  c #2B3845",
"m  c #343442",
"M  c #353B43",
"N  c #3A3C43",
"B  c #32364B",
"V  c #34394C",
"C  c #3C3D4C",
"Z  c #3B3D52",
"A  c #383D55",
"S  c #302F44",
"D  c #413E46",
"F  c #1A4746",
"G  c #19514C",
"H  c #184E50",
"J  c #234444",
"K  c #244C4C",
"L  c #2B4848",
"P  c #3B4346",
"I  c #3D434B",
"U  c #354747",
"Y  c #2A524D",
"T  c #35524F",
"R  c #3D4154",
"E  c #344D50",
"W  c #3C425C",
"Q  c #3B4D52",
"!  c #2D5454",
"~  c #265656",
"^  c #355454",
"/  c #3B5959",
"(  c #284F50",
")  c #34645F",
"_  c #3B5C61",
"`  c #3B6365",
"'  c #36746E",
"]  c #43444D",
"[  c #44494D",
"{  c #444548",
"}  c #414254",
"|  c #434C53",
" . c #4C4D55",
".. c #42465B",
"X. c #454B5C",
"o. c #4A4D5C",
"O. c #494752",
"+. c #425253",
"@. c #4C5155",
"#. c #4C535C",
"$. c #45595A",
"%. c #52565B",
"&. c #535A5C",
"*. c #56575A",
"=. c #544F55",
"-. c #474D62",
";. c #4A4E61",
":. c #404760",
">. c #4C5364",
",. c #4D5963",
"<. c #4E546A",
"1. c #465161",
"2. c #535565",
"3. c #535B64",
"4. c #5A5D63",
"5. c #52566A",
"6. c #545A6D",
"7. c #5A5C6D",
"8. c #565C72",
"9. c #595E72",
"0. c #635F65",
"q. c #446363",
"w. c #486768",
"e. c #5B6365",
"r. c #5C636B",
"t. c #5B6C6D",
"y. c #536868",
"u. c #49736D",
"i. c #5B6274",
"p. c #5E657A",
"a. c #5A6975",
"s. c #4B7673",
"d. c #567877",
"f. c #526F70",
"g. c #62656C",
"h. c #636A6D",
"j. c #666669",
"k. c #636573",
"l. c #646B74",
"z. c #696C74",
"x. c #62667B",
"c. c #636A7C",
"v. c #6A6C7C",
"b. c #6B7275",
"n. c #6B747B",
"m. c #667779",
"M. c #75797D",
"N. c #57817D",
"B. c #4B877F",
"V. c #74837E",
"C. c #656C83",
"Z. c #6A6E83",
"A. c #696F89",
"S. c #656B86",
"D. c #6C7285",
"F. c #6C738B",
"G. c #6C7A87",
"H. c #727584",
"J. c #71768C",
"K. c #73798E",
"L. c #7B7C8D",
"P. c #767C83",
"I. c #6E7690",
"U. c #6F7891",
"Y. c #717691",
"T. c #747A92",
"R. c #797D94",
"E. c #797E98",
"W. c #5E6680",
"Q. c #568B88",
"!. c #57918C",
"~. c #658686",
"^. c #7C8285",
"/. c #7B8289",
"(. c #7C8A8C",
"). c #748587",
"_. c #7C8296",
"`. c #7C839A",
"'. c #798B92",
"]. c #6A9895",
"[. c #6F9692",
"{. c #73B1AF",
"}. c #858A8C",
"|. c #84868A",
" X c #848593",
".X c #838B93",
"XX c #82859B",
"oX c #8A8B9B",
"OX c #868C98",
"+X c #8B949C",
"@X c #8B9499",
"#X c #919A9D",
"$X c #93969B",
"%X c #858BA3",
"&X c #898EA5",
"*X c #8B94A7",
"=X c #949CA3",
"-X c #9598A7",
";X c #989DB4",
":X c #89AAA8",
">X c #9BA4AC",
",X c #97A5A8",
"<X c #9DABB2",
"1X c #9DA5B5",
"2X c #96B7B7",
"3X c #87B2B0",
"4X c #A4A7AC",
"5X c #A5AAB5",
"6X c #ABB2B4",
"7X c #ABB3BA",
"8X c #A8B7B9",
"9X c #B4B7BB",
"0X c #B2ADB4",
"qX c #BAC5BF",
"wX c #9EC3BC",
"eX c #AEB6C4",
"rX c #B3BDC2",
"tX c #B5BAC3",
"yX c #A6ABC1",
"uX c #9EC7C5",
"iX c #BAC3C5",
"pX c #B9C7C9",
"aX c #BED7D7",
"sX c #B3CACE",
"dX c #BCD2E0",
"fX c #C3CCCC",
"gX c #C3C6C9",
"hX c #C3CCD3",
"jX c #C7CBD2",
"kX c #CDDBDC",
"lX c #C8D4D5",
"zX c #D3D7DD",
"xX c #CAD0CE",
"cX c #CCDCE4",
"vX c #D4DEE4",
"bX c #DCE5E5",
"nX c #D8E5EA",
"mX c #D0E8F1",
"MX c #E8F1EC",
"NX c #E7EDF4",
"BX c #E8F7F8",
"VX c #F5FEFE",
"CX c #F6FCFA",
"ZX c #E1E9E9",
"AX c #D6E0D7",
"SX c None",
/* pixels */
"SXSXSXSXSXSXSXSXSXSXSXSXSXSXSXSXSXSXSXSXSXSXSXSXSXSXSXSXSXSXSXSXSXSXSXSXSXSXSXSXSXSXSXSXSXSXSXSXSXSXSXSXSXSXSXSXSXSXSXSXSXSXSXSX",
"SXSXSXSXSXSXSXSXSXSXSXSXSXSXSXSXSXSXSXSXSXSXSXSXSXSXSXSXSXSXSXSXSXSXSXSXSXSXSXSXSXSXSXSXSXSXSXSXSXSXSXSXSXSXSXSXSXSXSXSXSXSXSXSX",
"SXSXSXSXSXSXSXSXSXSXSXSXSXSXSXSXSXSXSXSXSXSXSXSXSXSXSXSXSXSXSXSXSXSXSXSXSXSXSXSXSXSXSXSXSXSXSXSXSXSXSXSXSXSXSXSXSXSXSXSXSXSXSXSX",
"SXSXSXSXSXSXSXSXSXSXSXSXSXSXSXSXSXSXSXSXSXSXSXSXSXSXSXSXSXSXSXSXSXSXSXSXSXSXSXSXSXSXSXSXSXSXSXSXSXSXSXSXSXSXSXSXSXSXSXSXSXSXSXSX",
"SXSXSXSXSXSXSXSXSXSXSXSXSXSXSXSXSXSXSXSXSXSXSXSXSXSXSXSXSXSXSXSXSXSXSXSXSXSXSXSXSXSXSXSXSXSXSXSXSXSXSXSXSXSXSXSXSXSXSXSXSXSXSXSX",
"SXSXSXSXSXSXSXSXSXSXSXSXSXSXSXSXSXSXSXSXSXSXSXSXSXSXSXSXSXSXSXSXSXSXSXSXSXSXSXSXSXSXSXSXSXSXSXSXSXSXSXSXSXSXSXSXSXSXSXSXSXSXSXSX",
"SXSXSXSXSXSXSXD O.] ] ] ] O.] O.D D a = D m m D m h D a r t r & D 7.O.o.*.o.o. . .D O.] w N N N N N N N N k M N q O SXSXSXSXSXSX",
"SXSXSXSXSXSX+ $X-XoX.X.XOXOXoXXXoXL.;.L.v.H.x.x.v.v.z.0.%.4. .w  XgX0X;XeX4X;X-X-X XoX XV v.k.D.z.v.v.z.h.g.g.z.{ = SXSXSXSXSXSX",
"SXSXSXSXSXSXSX XoXv.Z.D.D.Z.Z.K.9.A E.&X<.5.8.D 6.>.o.o.o.#.#.1 R.;XXXY.i.9.K.Z.D.Z.D.i.u i.o.i.6...3.r. .o.;.o.D = SXSXSXSXSXSX",
"SXSXSXSXSXSXSXoXoXH.H.J.J.H.T.x.W E.&XY.Y.5.5.8.X.<.<.#.2.,...k.gXgXtX0X9X-X9.T.K.x.i.i.B C.>.<.>.<.#.G.x.2.2.2.D = SXSXSXSXSXSX",
"SXSXSXSXSXSXSXoX&XZ.A.T.A.Y.S.A E.&XA.I.A.Y.5.9.6.-.<.>.#.,.M.|.k { 2.4.&.}.>XC.F.c.p.i.v a.<.1.r.a.a.<.#.o.;.2.C = SXSXSXSXSXSX",
"SXSXSXSXSXSX. v.x.C.K.A.Y.A.W Y.;XY.Y.A.Y.Y.A.5.8.8.X.>.,.l.^.P |.4X4XgX4X4.^.i.C.G.T.p.n c.C.p.i.-.6.>.6.>.5.2.D = SXSXSXSXSXSX",
"SXSXSXSXSXSX* H.%XS.W.9.5.W Y.;XE.E.A.Y.J.Y.Y.A.8.<.7.>.#./.{ ^.xXzX9X6X@Xk g.Z.a.Z.F.i.b a.C.a.F.a.1.1.o.-.5.;.Z = SXSXSXSXSXSX",
"SXSXSXSXSXSX= oXJ.E.%XE.-.E.&XY.;XE.I.A.Y.F.C.Y.F.>.i.6.b.j t.6X0X}.j.*.V.}.|.T.D.F.J.p.n p.6.>.a.6.1.<.7.,.;.6.D = SXSXSXSXSXSX",
"SXSXSXSXSXSXSXL.J.Y.W.<.*X&XY.E.%XA.Y.I.A.E.Y.I.Y.I.<.8.%.e.pX7XiX@Xh.>X9X6X4XF.F.F.K.x.b p.>.>.<.1.,.Q i.x.5.;.Z = SXSXSXSXSXSX",
"SXSXSXSXSXSXSX XJ.p.:.Y.E.E.Y.I.A.I.I.Y.Y.A.A.I.A.K.K.c.[ g 8XMXVX#Xd t.|.6XT.F.F.K.K.p.v Z.-.<.-.>.>.a.2.7.9.5.D = SXSXSXSXSXSX",
"SXSXSXSXSXSXz  Xv.D XXyXE.E.Y.I.I.I.I.A.Y.A.A.I.F.J.K.&.o P m.9XVX=Xs [ j iXT.2.y J.Y.5.B x.5.;.5.;.2.x.9.-.2.>.D = SXSXSXSXSXSX",
"SXSXSXSXSXSXz v.} J.yX&XI.I.A.Y.I.A.I.I.I.I.E.A.F.J.A.+.j (.* w.VX}.> m.t.#X-X| y 9.L.E.S 7.;.;.-.-.X.;.;.-.-.;.D = SXSXSXSXSXSX",
"SXSXSXSXSXSXSXO.&X;XT.A.I.Y.A.I.A.I.A.Y.A.A.Y.A.F.A..X[ (.n.,.(.bXfX&.^.6Xh.#X6X9.y D 8.= v y u u u y 6 u y 6 u S O SXSXSXSXSXSX",
"SXSXSXSXSXSXSXD XX5XJ.F.Y.A.I.Y.I.I.Y.A.T.p.F.Y.F.D.P M $X6XrXvXaXMXCXMXxXM.@.V. X&X<.6.S A.Z.R.XXR.J.C.A.Z.Z.H.z.t SXSXSXSXSXSX",
"SXSXSXSXSXSXSX2.b x.R.F.D.F.F.A.A.U.A.U.Y.A.A.T.F.*X .h.,X,X<X.X#XAXCXMXAX4X6X}.j.^.6.;.V ;X`.E.%X%XT.T._._.XXx.4.& SXSXSXSXSXSX",
"SXSXSXSXSXSXSXz.V B 6.R.F.F.T.Y.I.U.A.U.I.Y.I.I.8.] h #X>X=X=X#XfXCXqXqXqXqXqXxX0Xe./...v `.U.I.Z.Z.A.K.F.D.H.i.;.w SXSXSXSXSXSX",
"SXSXSXSXSXSXSXk.7.-.b 6.J.K.Z.A.U.S.`.U.U.A.U.W...%.3.+X'.l.a.rXZXV.P $   # o +.iX6X[ D.y ;XT.A.Y.F.A.F.G.C.F.K.2.= SXSXSXSXSXSX",
"SXSXSXSXSXSXSXz.>.<.-.B 8.G.Y.F.I.W.%X;XA.U.I.W.T.| %.).M.X.'.pX|.$ $ 3 3 7 ; > +.4Xh.|.v ;XT.I.J.J.F.D.U.J.Z.c.7.w SXSXSXSXSXSX",
"SXSXSXSXSXSXSXk.2.-.5.-.B 5.T.J.A.U.A.`.F.F.A.W.*XP 3.P.D.3.<X8Xk z > - Y f.q.9 < #.4X=.X.`.Y.I.A.U.8.a.T.C.c.D.2.= SXSXSXSXSXSX",
"SXSXSXSXSXSXSXz.2.>.-.<...V 7.Y.U.G.I.A.I.Y.F.<.N P l./.>.).kXOX3 $ 2 4 d.uX:X^ % d 9X0.H.E.T.F.U.A.A._.C.F.F.L.2.w SXSXSXSXSXSX",
"SXSXSXSXSXSXSXz.5.>.>.>.>...Z 7.K.Z.C.U.F.T.<.W @.3..X/.| 7XnXQ $ > - 4 s.3X].J 8 1  .0X=.&XT.A.U.F.F.F.p.a.G.D.2.w SXSXSXSXSXSX",
"SXSXSXSXSXSXSXg.2.>.-.>.<.<...B 8.T.K.G.Y.-.A *XI &.iX>X@XkX5XU $ $ - : x ( K 9 % % h 6Xj.oXE.K.).p.a.F.G.A.J.J.2.q SXSXSXSXSXSX",
"SXSXSXSXSXSXSX2.o.2.2.<.>.>.5.o.V 5.Y.Y.;.D K.4Xj (.kX|.pXCXV.s $ 7 ; ; 4 : : : 2 8 2 Q >X%.J.Z.8.6.U.a.<.Z.F.J.2., SXSXSXSXSXSX",
"SXSXSXSXSXSXSXg.2.;.5.>.2.5.>.7.X.C 9.<.W E.XX] P @XlX6XbXiXg X c f.V.N.F : : F ) / 9 8 kXe.-XT.U.p.D.i.D.c.p.v.2.w SXSXSXSXSXSX",
"SXSXSXSXSXSXSXg.} ..C R } Z } Z D A B D Y.x.A.] &.#XiXkXBX#X3 $ c 4XBXsX/ % 4 u.uX3XY ; ,.#Xj.9.6.p.<.r.p.r.>.o. .w SXSXSXSXSXSX",
"SXSXSXSXSXSXSXC m b B b i v u b S S v B D v Z D e.=X>XiXVXV.o @ c :XBXsXQ % 5 w.2X3X! : / lX#.b b n n v u b b b m & SXSXSXSXSXSX",
"SXSXSXSXSXSXSX4X-X-X;X;X`...K.&XXX XZ.B H.D.K.I g.n.#XiXVX(.# * c y.V.f.L - ; 9 _ / 8 5 $.pXj.Z.9.c.v.x.>.o.1.X.P * SXSXSXSXSXSX",
"SXSXSXSXSXSXSX4XA.F.K.Y...9.&XF.J.R.C R v.F.7XI P #..XiXCX+Xw 3 $ $ $ 8 > - < 5 5 5 6 Q pXv.=Xp.8.>.1.o.,.#.>.2.M , SXSXSXSXSXSX",
"SXSXSXSXSXSXSX;XR.C.Y.J.9.E.Y.F.Z.Z.y R >Xa.e. .M d  ..XjXvX=X#.c # s $.).cXBXdXa.E 1.aX>X+.%.4Xx.<.>.>.>.6.o.>.C * SXSXSXSXSXSX",
"SXSXSXSXSXSXSXR.D.XXF.B 8.%XY.Y.R.>.R e.3.r.l.D.n.I 1 k N 7.jXNXAXqXfXfXaX5X<XiXhXsXnX8X3.| *Xe.[ l g q t 6.7.r.N , SXSXSXSXSXSX",
"SXSXSXSXSXSXSX* Z `.E.C.F.J.A.Y.J.k N #..X<X5X=X,X,Xn.7.n.M 2.eXtX4Xl.[ #.#.2.#.n.rXeX,.t.c.=X,X$.e P [ l l <.i.P = SXSXSXSXSXSX",
"SXSXSXSXSXSXSXp K.XXA.F.F.F.Y.A.J.T. Xg e.k.*XsXhX7X=X>X>X'.R d N t N 0.3.P.b.t.r.&.2.l.<XcXf.f.P +.d p r l z.>.C 1 SXSXSXSXSXSX",
"SXSXSXSXSXSXSXC &XT.Y.F.T.Y.A.I.Y.T.>.=XP G.tXBXVXNXZXNXrX,X'.>XzXgXlXtX#X$X=XxXkX(.@X+X<XBX^ q.E +.e @ @ P k ;.C , SXSXSXSXSXSX",
"SXSXSXSXSXSX* H.K.F.A.J.Z.Y.F.I.A.J.2.&.6 tXvX<X+XhXNXVXNX*X<XnXCXCXVXBXbXxXNXbX,XNXnXmXkXmXsXQ.L #.3 * $ [ q >.C * SXSXSXSXSXSX",
"SXSXSXSXSXSX*  XD.F.F.F.T.J.F.F.K.J.n.+.).vX(.$.[ 8XNXNX4Xr.<XvXvXCXCXlX,XbXCXfX$.aXVXBXV.s.N.N.E Q s @ @ @.q i.I * SXSXSXSXSXSX",
"SXSXSXSXSXSX+ L.K.R.T.K.F.K.F.Y.J.XXh.$.t.t.f s j 6XMX4Xj N =XgXZXCX8X/ V.xXbXbXT y.aXaXc d.Y ].E $.8 * , [ t i.R & SXSXSXSXSXSX",
"SXSXSXSXSXSX= L.9.6.5.9.6.6.5.8.OX+.$.c q.7 X n P 4X$XD w t D =XMXsXf./ f m.cXkXY w.N.wX) 8 x 2XE s s s > P t 7.C & SXSXSXSXSXSX",
"SXSXSXSXSXSX. M n b B b B B B B U ; u.x Y 9 J c P j.D r N t p OX2XY Y ) ; f.~.eX) B.0 u./ N.x N.f E e o * l @ i.X., SXSXSXSXSXSX",
"SXSXSXSXSXSX+ z.x.c.G.x.p.a.v.p.$ 7 [.0 0 !.Y L +.U h l t p M f.N.x ' B.9 V.8.` Y !.G u.` u.x u.2 s 3 e w k q X.v.p SXSXSXSXSXSX",
"SXSXSXSXSXSX& k.>.>.5.x.7.>.1.,.- ; d.[.x N.^ T / j g 3 < i L 9 F G B.Q.! 2XW._ ~ 3XG G 9 X : Y q.U @ 3 . k z `.g.w SXSXSXSXSXSX",
"SXSXSXSXSXSXO l.,.o.5.D.a.2.X.2.  8 7 s.].G ! ~.,.9 8 < 2 L ! : ) ' ' !.` mX*Xf.G {.G !.c ; 0 # 8 s s e { q *XK.o.& SXSXSXSXSXSX",
"SXSXSXSXSXSXSXg.>.>.l.p.r.>.,.l.t.; 7 J ~.].! s.! % X X / d.s.u.!.].Q.B._ mXdX` G {.' ' K : X ; 3.> @ s . |.H.F.7.1 SXSXSXSXSXSX",
"SXSXSXSXSXSXSXg.4.x.7.c.#.,.6Xb.m.8 % n ( N.w.q.7 J q./ ^ ! J ( F K ( 7 Q mXsXd.4 G ~ ` ` / ; < 8X@XM.b.&XK.G.J.2.1 SXSXSXSXSXSX",
"SXSXSXSXSXSXSXh.g.r.,.l.7Xh.z.p +.y.M X - 2 ^ _ 4 J ^ ^ J c L ^ q.w.f.d.,XmXcX=Xq.J J J E ^ / X &.>.R `.J.F.D.K.5.= SXSXSXSXSXSX",
"SXSXSXSXSXSX+ z.k.2.>XM.0.p P h.m.^.@X&.t.2 2 # f c L f q.m.y.m.(.).).'.,XoX=X~.'.[.[.q./ E Q , 3 W `.J._.T.A.K.2.& SXSXSXSXSXSX",
"SXSXSXSXSXSXO h.l.^.j.r P j.}.P.b.b.l.P.P.3 # @ +.t.m.t.t.l.m.t.t.f.h.l.z.r.r.h.y.t.'.(.(.8X[ j @ &XU.A.R.&XXXZ.2.w SXSXSXSXSXSX",
"SXSXSXSXSXSX+ |.j.r l =.k j =.@.t N =. .=.4.3.4.&.t.h.b.>X`.K.A >.i.V >.x.:.5.<.X.n.m.t.%.g.z.*.k .XF.F.A.T.R.K.5.1 SXSXSXSXSXSX",
"SXSXSXSXSXSXk 0.$ { { { %.%.%.@.4.0.;.5.5XR.T.A.F.F.F.K.F.F.Z.B <.x.X.V 6.7.;.<.>...V x.Y.n.{ *.j.q F.T._.T.F.K.2.w SXSXSXSXSXSX",
"SXSXSXSXSXSX|.k *.=.] j.r.5.o.2.2.;.B <.yXR.Y.J.F.K.R.E.T.K.Z.B >.6.2...V p.k.5.>.5.Z Z D :.XXR.j.b.J.D.*X&XD.Z.2.= SXSXSXSXSXSX",
"SXSXSXSXSXSXSXj.@.*.#.o.o.#.o.o.o.5.m } XXZ.D.A.D.D.T.K.D.Z.Z.C X.r.} 6.C 6 C 7.-.o.2.} m L.J.C.H.Z.D.n.Z.G.n.H.2.w SXSXSXSXSXSX",
"SXSXSXSXSXSXSXt l l h h h h a h a a a m D D D Z D C C Z D D C m i i m h p p y a h m m a m N C D I C I I I C D D D w SXSXSXSXSXSX",
"SXSXSXSXSXSXSXz + + + + O + O + * + O O O O O * * * O O * O O O O O O + O O + + O O O O O + + O O O O O O O * O z SXSXSXSXSXSXSX",
"SXSXSXSXSXSXSXSXSXSXSXSXSXSXSXSXSXSXSXSXSXSXSXSXSXSXSXSXSXSXSXSXSXSXSXSXSXSXSXSXSXSXSXSXSXSXSXSXSXSXSXSXSXSXSXSXSXSXSXSXSXSXSXSX",
"SXSXSXSXSXSXSXSXSXSXSXSXSXSXSXSXSXSXSXSXSXSXSXSXSXSXSXSXSXSXSXSXSXSXSXSXSXSXSXSXSXSXSXSXSXSXSXSXSXSXSXSXSXSXSXSXSXSXSXSXSXSXSXSX",
"SXSXSXSXSXSXSXSXSXSXSXSXSXSXSXSXSXSXSXSXSXSXSXSXSXSXSXSXSXSXSXSXSXSXSXSXSXSXSXSXSXSXSXSXSXSXSXSXSXSXSXSXSXSXSXSXSXSXSXSXSXSXSXSX",
"SXSXSXSXSXSXSXSXSXSXSXSXSXSXSXSXSXSXSXSXSXSXSXSXSXSXSXSXSXSXSXSXSXSXSXSXSXSXSXSXSXSXSXSXSXSXSXSXSXSXSXSXSXSXSXSXSXSXSXSXSXSXSXSX",
"SXSXSXSXSXSXSXSXSXSXSXSXSXSXSXSXSXSXSXSXSXSXSXSXSXSXSXSXSXSXSXSXSXSXSXSXSXSXSXSXSXSXSXSXSXSXSXSXSXSXSXSXSXSXSXSXSXSXSXSXSXSXSXSX",
"SXSXSXSXSXSXSXSXSXSXSXSXSXSXSXSXSXSXSXSXSXSXSXSXSXSXSXSXSXSXSXSXSXSXSXSXSXSXSXSXSXSXSXSXSXSXSXSXSXSXSXSXSXSXSXSXSXSXSXSXSXSXSXSX"
};
