/* XPM */
static char *_0871_4f7e8350cc938bba07acd10954357ec5677056716e2702a24977834405b8b4b4[] = {
/* columns rows colors chars-per-pixel */
"64 64 242 2 ",
"   c #050E14",
".  c #031314",
"X  c #0B1A1D",
"o  c #07181A",
"O  c #15141B",
"+  c #19151C",
"@  c #1B1B1E",
"#  c #141518",
"$  c #0B0F0E",
"%  c #172419",
"&  c #05221F",
"*  c #0B1C21",
"=  c #151D24",
"-  c #1C1D24",
";  c #1A1C26",
":  c #211D27",
">  c #0D2425",
",  c #0C2C2B",
"<  c #062626",
"1  c #122326",
"2  c #14242A",
"3  c #1D222B",
"4  c #142C2D",
"5  c #1B2A2E",
"6  c #1C2425",
"7  c #1D2D32",
"8  c #1B2734",
"9  c #0B3733",
"0  c #113433",
"q  c #1C3234",
"w  c #1A3B3A",
"e  c #10322D",
"r  c #222226",
"t  c #23232B",
"y  c #292A2C",
"u  c #322B2D",
"i  c #28322B",
"p  c #232D33",
"a  c #2B2C35",
"s  c #27293A",
"d  c #322E39",
"f  c #243335",
"g  c #2B343A",
"h  c #243A3D",
"j  c #2B3B3D",
"k  c #283635",
"l  c #32323C",
"z  c #393A3D",
"x  c #343838",
"c  c #30322F",
"v  c #20191B",
"b  c #423A3F",
"n  c #16423C",
"m  c #34453C",
"M  c #26453F",
"N  c #262C41",
"B  c #2C3244",
"V  c #2C3A43",
"C  c #343442",
"Z  c #343C44",
"A  c #3A3B43",
"S  c #32364B",
"D  c #333A4C",
"F  c #3C3D4C",
"G  c #3A3E53",
"H  c #373C53",
"J  c #423C43",
"K  c #1D4242",
"L  c #234442",
"P  c #2B4344",
"I  c #294A4A",
"U  c #324445",
"Y  c #33444A",
"T  c #3C424C",
"R  c #354A4C",
"E  c #3A4747",
"W  c #3A5248",
"Q  c #3C4453",
"!  c #3D4B52",
"~  c #3D435B",
"^  c #304F51",
"/  c #2E5653",
"(  c #345453",
")  c #3A5858",
"_  c #2B504E",
"`  c #36615B",
"'  c #3D6965",
"]  c #3D5F60",
"[  c #43444D",
"{  c #43494C",
"}  c #424354",
"|  c #444D55",
" . c #4C4D56",
".. c #42465B",
"X. c #444B5B",
"o. c #4A4D5C",
"O. c #494752",
"+. c #455255",
"@. c #4B525D",
"#. c #4B5C5D",
"$. c #485459",
"%. c #54585A",
"&. c #4A514F",
"*. c #5B635D",
"=. c #456656",
"-. c #464C61",
";. c #4A4E62",
":. c #4C5364",
">. c #4D5A62",
",. c #4E5569",
"<. c #485764",
"1. c #525565",
"2. c #525B64",
"3. c #52566A",
"4. c #545A6C",
"5. c #5A5D6C",
"6. c #5A5B64",
"7. c #555C71",
"8. c #595E73",
"9. c #4D6B6B",
"0. c #486465",
"q. c #55626A",
"w. c #5B636C",
"e. c #546C6D",
"r. c #5C6B6C",
"t. c #586663",
"y. c #5B6274",
"u. c #5D6B74",
"i. c #5E647A",
"p. c #5A6576",
"a. c #4D7672",
"s. c #5A7778",
"d. c #50746C",
"f. c #63656E",
"g. c #62686C",
"h. c #636674",
"j. c #646B73",
"k. c #696A74",
"l. c #62667B",
"z. c #636A7C",
"x. c #6A6D7C",
"c. c #65737A",
"v. c #6B737C",
"b. c #6C7C7C",
"n. c #687675",
"m. c #727A7B",
"M. c #657869",
"N. c #718A7B",
"B. c #646C83",
"V. c #6A6E83",
"C. c #696F8A",
"Z. c #656B86",
"A. c #6B7285",
"S. c #6C738C",
"D. c #6A7786",
"F. c #727584",
"G. c #747B85",
"H. c #71768C",
"J. c #73798E",
"K. c #7A7B89",
"L. c #6E7690",
"P. c #6F7891",
"I. c #717791",
"U. c #737A92",
"Y. c #797E94",
"T. c #787E99",
"R. c #5D8885",
"E. c #6A8B8B",
"W. c #7B848C",
"Q. c #768789",
"!. c #7B8295",
"~. c #7C829B",
"^. c #7A8993",
"/. c #6B9591",
"(. c #679690",
"). c #7D9395",
"_. c #779495",
"`. c #6F928C",
"'. c #7BA19F",
"]. c #82898D",
"[. c #83928E",
"{. c #848494",
"}. c #848C95",
"|. c #82859B",
" X c #838A9D",
".X c #8A8B9B",
"XX c #898B93",
"oX c #8A939D",
"OX c #869698",
"+X c #93969D",
"@X c #8BA19C",
"#X c #94AA9A",
"$X c #858CA3",
"%X c #898DA5",
"&X c #8B96A4",
"*X c #9498A5",
"=X c #989CB4",
"-X c #8AA9A8",
";X c #9BA4AC",
":X c #96A5A7",
">X c #9BA5B6",
",X c #9BB6B5",
"<X c #96B3A9",
"1X c #A2AAAC",
"2X c #A5B7AD",
"3X c #A2ABB4",
"4X c #A6A9B8",
"5X c #ABB3BB",
"6X c #A7B7B6",
"7X c #B1BDBA",
"8X c #B2B5BA",
"9X c #ACC4B8",
"0X c #B5C1BC",
"qX c #A9C2AE",
"wX c #A5AAC1",
"eX c #ADB8C3",
"rX c #B4BBC5",
"tX c #BBC3CC",
"yX c #B6C3C9",
"uX c #BDCAD2",
"iX c #BACBD1",
"pX c #B1D2D0",
"aX c #9CC0C0",
"sX c #C2CBD4",
"dX c #C6CBD7",
"fX c #CCD2DB",
"gX c #C6D3DA",
"hX c #D6DBDF",
"jX c #CED9E3",
"kX c #D3DBE5",
"lX c #D8DFEA",
"zX c #C6E5E6",
"xX c #D9E5EC",
"cX c #DDE8F2",
"vX c #D6F8F7",
"bX c #E1E4EE",
"nX c #E2EBF4",
"mX c #E7ECF8",
"MX c #EAF6FC",
"NX c #F3FDFF",
"BX c #F2F6FF",
"VX c None",
/* pixels */
"VXVXVXVXVXVXVXVXVXVXVXVXVXVXVXVXVXVXVXVXVXVXVXVXVXVXVXVXVXVXVXVXVXVXVXVXVXVXVXVXVXVXVXVXVXVXVXVXVXVXVXVXVXVXVXVXVXVXVXVXVXVXVXVX",
"VXVXVXVXVXVXVXVXVXVXVXVXVXVXVXVXVXVXVXVXVXVXVXVXVXVXVXVXVXVXVXVXVXVXVXVXVXVXVXVXVXVXVXVXVXVXVXVXVXVXVXVXVXVXVXVXVXVXVXVXVXVXVXVX",
"VXVXVXVXVXVXVXVXVXVXVXVXVXVXVXVXVXVXVXVXVXVXVXVXVXVXVXVXVXVXVXVXVXVXVXVXVXVXVXVXVXVXVXVXVXVXVXVXVXVXVXVXVXVXVXVXVXVXVXVXVXVXVXVX",
"VXVXVXVXVXVXVXVXVXVXVXVXVXVXVXVXVXVXVXVXVXVXVXVXVXVXVXVXVXVXVXVXVXVXVXVXVXVXVXVXVXVXVXVXVXVXVXVXVXVXVXVXVXVXVXVXVXVXVXVXVXVXVXVX",
"VXVXVXVXVXVXVXVXVXVXVXVXVXVXVXVXVXVXVXVXVXVXVXVXVXVXVXVXVXVXVXVXVXVXVXVXVXVXVXVXVXVXVXVXVXVXVXVXVXVXVXVXVXVXVXVXVXVXVXVXVXVXVXVX",
"VXVXVXVXVXVXVXVXVXVXVXVXVXVXVXVXVXVXVXVXVXVXVXVXVXVXVXVXVXVXVXVXVXVXVXVXVXVXVXVXVXVXVXVXVXVXVXVXVXVXVXVXVXVXVXVXVXVXVXVXVXVXVXVX",
"VXVXVXVXVXVXVXJ O.[ [ [ [ [ } [ J J d t F C J J C d J d y u a - J 6.O. .1.O. . . .J O.[ t A A A A A A z A z A A r # VXVXVXVXVXVX",
"VXVXVXVXVXVX+ +X*X.XXX}.}..X.X.X%XK.;.K.h.F.h.h.V.x.k.5.%.6. .t {.dX4X=XrX4X=X*X*X{..X{.D x.h.F.x.x.k.v.f.g.g.h.O.: VXVXVXVXVXVX",
"VXVXVXVXVXVXVX{..Xx.V.F.V.V.V.H.8.H T.%X3.3.3...4.:.o.X.o.@.@.3 K.=X|.I.p.8.H.B.V.A.A.y.N 8.X.8.2...2.w. . .1.o.J : VXVXVXVXVXVX",
"VXVXVXVXVXVXVX.X.XF.F.H.H.H.U.l.~ T.%XL.I.3.3.7.X.3.,.@.2.,.! s H.>XH.I.i.y.8.T.J.l.i.p.S B.,.,.,.,.@.A.h.1.;.;.J : VXVXVXVXVXVX",
"VXVXVXVXVXVXVX.X%XV.C.U.C.L.Z.G T.%XC.L.C.S.7.8.3.:.3.:.;.>.X.s l.=XZ.I.L.S.7.B.S.z.i.7.B p.:.-.w.i.z.>.;.;.1.1.F : VXVXVXVXVXVX",
"VXVXVXVXVXVXO x.l.B.J.C.I.C.~ I.=XI.L.C.I.I.C.1.7.7.X.@.,.$.@.8 A.=XH.S.L.U.A.p.B.D.U.l.V z.B.u.y.;.4.:.3.,.,.1.F : VXVXVXVXVXVX",
"VXVXVXVXVXVXO F.T.Z.7.Z.3.~ I.=X~.T.C.T.H.I.I.C.7.,.7.:.;.>.:.8 Y.=XJ.S.S.A.J.A.p.A.H.p.B i.z.p.C.i.<.<.X.;.3.;.G : VXVXVXVXVXVX",
"VXVXVXVXVXVX; .XU.T.$XT.-.T.%XI.=XT.C.C.I.S.Z.I.A.,.p.3.X.>.@.8 A.=Xz.n.c.c.A.F.A.D.c.r.E e.*.#.e.4.<.:.w.:.;.5.J : VXVXVXVXVXVX",
"VXVXVXVXVXVXVX{.H.U.8.3.%X%XT.T.$XZ.I.L.C.T.I.I.I.I.,.7.w.$.*.x t.2X7X6X0X0X0X6X7X7X7X7X0X0X7X7XqX=.<.! 8.l.4.;.G : VXVXVXVXVXVX",
"VXVXVXVXVXVXVX{.J.i.-.C.$XT.I.C.L.L.C.I.I.C.C.H.C.I.H.9XqX2X9X7X7XrX].k.v.w.f.G.G.v.g.g.f.v.n.n.N.#X$.p.3.5.8.3.J : VXVXVXVXVXVX",
"VXVXVXVXVXVX+ {.V.J $XwXT.T.I.L.L.L.L.C.I.C.C.L.H.H.6X0X].g.m.k.k.%.v.K.c.>XeXY 1 3 W.;XG.].i m.N.N.,.u.8.;.,.1.A : VXVXVXVXVXVX",
"VXVXVXVXVXVX+ x.J H.wX%XI.L.C.I.L.C.L.L.L.L.I.L.OX9Xm.*.k.m.m.k.1X5XkXfXsXcXMXY r.}.Q.7X6Xt.b.OX&.| X.;.;.;.;.;.J : VXVXVXVXVXVX",
"VXVXVXVXVXVXVXO.%X=XT.A.L.L.C.C.C.L.C.I.C.A.I.*XQ.*.1XtXhXMXbXmX5XbXmXjXuX5XeXW.>.2.. E k | b.s s s s 8 s s 8 s B O VXVXVXVXVXVX",
"VXVXVXVXVXVXVXJ ~.4XH.S.I.L.L.I.L.L.I.C.U.p.:Xb.].M.t.b.m.W.1XkXfX.X5XtX:X>XoX).$.$.{ o +.*XV.T.$XY.C.V.C.V.V.A.h.d VXVXVXVXVXVX",
"VXVXVXVXVXVXVX3.B i.Y.A.A.S.S.C.C.P.C.S.U.+XN.[.<XU .   . 1 f u.kX4Xh.G.}.}.W.2.Q.g.j n.Q.=X~.T.$X$XU.J.!.~.|.l.6.: VXVXVXVXVXVX",
"VXVXVXVXVXVXVXk.F S 3.!.S.A.U.P.C.P.S.L.U.Q.M.[.j q +.R R 5 * % v.dXw.w.Q.:.q.| 2.j M.[.N ~.L.H.V.V.C.H.S.A.H.y.o.t VXVXVXVXVXVX",
"VXVXVXVXVXVXVXh.7.-.B 4.J.J.A.C.P.B.$XP.1X*.1Xg.. ) 6XzX).q . 1 R rX3Xy.c.z.T $.+.6 #X$.N =XI.C.I.S.C.H.S.B.H.K.1.t VXVXVXVXVXVX",
"VXVXVXVXVXVXVXk.:.,.-.D 4.S.J.S.C.B.%X Xb.m.XXj o ) zXvX-X0 < > 2 +XcXy.w.G.v. .E m.<X! N =XU.L.S.H.H.C.J.L.z.z.5.: VXVXVXVXVXVX",
"VXVXVXVXVXVXVXk.1.o.3.-.S 3.J.S.D.U.B.2X*.1Xk.o 2 ^ /.-XN.< < < 2 2.jX>Xu.5X!.2.y :X2X| N ~.L.L.S.P.7.p.U.C.l.A.1.t VXVXVXVXVXVX",
"VXVXVXVXVXVXVXh.:.,.-.,...D 4.U.L.C.&XN.N.].f o > 0 w 9 9 , & & 2 ! eXcX&XtX5X .x [.2X! N ~.L.L.P.S.B.!.B.S.A.K.1.: VXVXVXVXVXVX",
"VXVXVXVXVXVXVXk.2.:.,.:.,...Q 8.J.u.2X9.9Xn.q $.) ^ , < n / ) / 2 = J.xX3XrXrXG.g [.2Xq.N ~.U.A.L.L.L.D.i.p.H.A.1.t VXVXVXVXVXVX",
"VXVXVXVXVXVXVXm E { W E :.n.Q.T 2.<XN.b.^.j U 6XjX_.9 < ` <XgX`.q 2 Q jXkXlX3XW.c @X2X#.8 T.T.L.P.i.p.D.L.A.H.J.1.t VXVXVXVXVXVX",
"VXVXVXVXVXVXi c z z Z f E M `.qX9X6Xr.,XQ.1 ! zXMX-X0 * ' pXMX_.2 = = uXnXyX4XW.p :X7X&.B Y.H.A.4.4.J.p.3.z.S.H.1.r VXVXVXVXVXVX",
"VXVXVXVXVXi z b y z A +.W =.) M #.j.+.,XQ.1 R ).-X0., * ^ Q.@Xc.k 6 o rXnX*X&XG.Z ;X2Xg.Z |.U.Y.U.u.D.y.D.l.z.z.1.t VXVXVXVXVXVX",
"VXVXVXVXVXc b y - ; ; | g 9.( 4 Y F.q.q.,Xd.> q q * . * 4 f 0 q 2 X p gXnXeXy.2.l $.r.1X<Xn.z.4.4.z.,.4.z.y.:.o. .t VXVXVXVXVXVX",
"VXVXVXVXg.y b # : - = a ( 0./ I Z ;XG.h &XiX0.q R :XiX6Xr.P 2   p | 3XkXuXD.$.C %.g.t.t.*.@X[.S B B B B s N B B C - VXVXVXVXVXVX",
"VXVXVXVX%.u d + - r X U I R.' ' U ! c.$.T &XjXyXyXsXiXrXuXuX5X>XtXxX5X>.Y s f A.1X+X1XXX+X%.{ [.y.l.z.z.;.@.-.X.Z - VXVXVXVXVXVX",
"VXVXVXVX*.u b O r 6 X P K (.a.K P h oXgX6Xj.^.>XW.w.<.w.2.:.W.tXrXrXZ c.^.W.W.tXfX1Xo. .z K.XX8X2.:.:.@.2.@.:.2.A - VXVXVXVXVXVX",
"VXVXVXVX%.u b v @ 6 6 U K (.N.9 P R ,XNXyXoX:.T 3.q.w.h.o.2.A t  .: F.;XkXmXbXMXBXdXXXt K.8X8X2X9.3.:.:.,.4.X.@.T - VXVXVXVXVXVX",
"VXVXVXVX*.u b v : : # P L (.a.n V R >.eXxXkXcXgX3XsXlXsXgXfXdXsX4X5X{.tXnXMXMX+X1XbXbX1X%.1X8X7X2XOX3.-.z.4.5.y.F - VXVXVXVXVXVX",
"VXVXVXVX*.u J $ v r - U M (.a.` #.h 5 >.e.5XNXjX).jXNXcX:XtXNXNXbXmXk.w.sXNXgXtXv.g.w. .6 j j x k q w.:.,.3.1.y.F - VXVXVXVXVXVX",
"VXVXVXVX&.u J v y @ X Y M (.a.n L 7 7 q B eXeXe.! tXMXyXp.<.yXMXlXrXj.2 q.j.sXxXw.T %.Z @.x . o U k $ y.:.3.B.:.T 6 VXVXVXVXVXVX",
"VXVXVXVX%.c A + - = = U K a.' 9 0 2 7 q 2 ) ).c.I wXiX-X9.p.0.-XsX5Xu.p 5 p | 6Xw. .@.+.j U s.f d.j $ 3.y.8.p.;.F ; VXVXVXVXVXVX",
"VXVXVXVXVXi z O = p O P _ ` / < 4 f 2 7 q I <.s.^ ( &X/., 9._ _ e.>Xq.V V p a  .@.{ j +.U 4 0 e 0.M . c.:.i.4.,.T - VXVXVXVXVXVX",
"VXVXVXVXVXy c - = 6 = q w 9.I s.#.4 0 q q h L E.) K ] a.w ' ` 9 I ' 0.w 7 g Y s a C Z U n /.n 9 9.M o Y.l.~ l.y.F ; VXVXVXVXVXVX",
"VXVXVXVXVX+ c - - - 6 p 4 ' ( w j = X > & E.' _.] / 9.pX/ R.' ' _ < ( w . 5 p g 3 5 V V 9 I n (.] R . W.V.i.-.y.Q ; VXVXVXVXVXVX",
"VXVXVXVXVXv z + r # r p 5 >.^ 1 X g.R o w ( _ '.' ] aXvX` (.' 9 9 _ #.L q 8   X t p f h 0.n K -X_ , Q.oX|.T.U.4.Z - VXVXVXVXVXVX",
"VXVXVXVXVXc c r % r r E 5 #.V . 2.sX! & K w <.E.I ) aXzX/ (.(.B.a.s.9.d.s.k 7 p 3 p 2 j ) 9 '.( L * :X}.T.K.!.p.o.- VXVXVXVXVXVX",
"VXVXVXVXVXVXi m 6 m c y t.m r.oX8X2.! e.e.s.K , , b.pXzX0., , , , e 0 h < #.c.0.q.7 * 1 4 e.( w P 7 E .X.X X-...x.a VXVXVXVXVXVX",
"VXVXVXVXVXVX@ E i % % % $ t.6XyXyXU E +.4 , <.e.Q.>X:XjX-XOX).).).).OXQ.&XP X f f $.c.1 . T f q * Q a *X%X~ Q !.y.t VXVXVXVXVXVX",
"VXVXVXVXVXVX# k.1.$.0.j.t.9X7X2X%.# X s.OX`.E.D.u.$.4.6.5.%.2.w.w.w.>.q.Q.s.^._.).^.c.j.u.5 ; = X O. .[ ! Q |.J.| t VXVXVXVXVXVX",
"VXVXVXVXVXVXVXf.@.:.h.i.w.>.#Xt.5 j $.E.Q.u.u.p.J.!.&X&X~.oX^.4.A.F.z.2.Q p.D.B.C.Z.A.L.S.T.h.{ { &.{ z &.r.A.H.5.; VXVXVXVXVXVX",
"VXVXVXVXVXVXVXf.6.j.4.c.X.#.,.W k m M E ).t.A.B.D.A.S.S.A.S.A.H 3.y.;.4.Z S p.D.A.S.S.U.L.C.L.C.I.A...~ u.W m A.5.t VXVXVXVXVXVX",
"VXVXVXVXVXVXVXf.g.w.,.u.3.<.@.#.5 h.a *.OXW.T.S.S.S.S.S.C.H.H.G F H ;.-.-.,.H l.I.S.S.S.Z.%XI.L.H.;.Q ~.A.B.z.c.@.n.VXVXVXVXVXVX",
"VXVXVXVXVXVX+ k.h.:.:.y.q.@.2.,.;.1.F ;.>XS.I.A.S.S.S.L.A.S.C.D F 3.S 8 3.l.~ D i.U.L.A.7.wXU.L.-.~ !.P.!.U.A.F.2.t VXVXVXVXVXVX",
"VXVXVXVXVXVX+ f.2.@.@.,.,.:.,.,.1.;.C ,.>XZ.S.I.L.S.L.U.I.H.V.S 7.V.h.~ ,.7.3.~ S B.S.J.S.C.U.-.~ ~.U.A.U.$X$XA.1.: VXVXVXVXVXVX",
"VXVXVXVXVXVX+ f.@.@.:.:.<.-.<.:.;.3.C ,.=XH.I.I.L.C.S.S.S.S.A.H ;.y.D :.h.-.3.,.~ S u.S.I.H.;.H T.T.A.S.C.U.T.H.3.3 VXVXVXVXVXVX",
"VXVXVXVXVXVX+ f.1.:.:.1.,.,.:.,.3.1.N 3.4XY.I.S.S.D.S.I.S.S.C.S 3.l...D 3.7.;.;.,...D z.I.-.H $XT.C.S.U.~.U.A.H.1.t VXVXVXVXVXVX",
"VXVXVXVXVXVXVXf.%.1.@.,.,.3.;.,.3.;.S 3.wXY.I.C.S.J.Y.T.U.H.V.S ,.4.3...H i.h.3.;.3.G G J -.|.I.Z.I.S.A.&X$XH.A.1.: VXVXVXVXVXVX",
"VXVXVXVXVXVXVXf. . .@. .o.o.o.o.o.3.S J |.V.C.L.A.S.U.K.V.F.V.F o.5.} 4.F 8 F 5.;.o.1.} S K.H.V.L.Z.A.A.B.G.v.F.1.r VXVXVXVXVXVX",
"VXVXVXVXVXVXVXa d l l l l g l l d d d C A J J G J F F F G J F C a d C B a t a d B C l C C A F J J F T T T T G J J t VXVXVXVXVXVX",
"VXVXVXVXVXVXVXv v + + + + + + + ; + O = O O O = = = O O ; O O O O O O + O O O = O + O + O O + O + O O # # + + + v VXVXVXVXVXVXVX",
"VXVXVXVXVXVXVXVXVXVXVXVXVXVXVXVXVXVXVXVXVXVXVXVXVXVXVXVXVXVXVXVXVXVXVXVXVXVXVXVXVXVXVXVXVXVXVXVXVXVXVXVXVXVXVXVXVXVXVXVXVXVXVXVX",
"VXVXVXVXVXVXVXVXVXVXVXVXVXVXVXVXVXVXVXVXVXVXVXVXVXVXVXVXVXVXVXVXVXVXVXVXVXVXVXVXVXVXVXVXVXVXVXVXVXVXVXVXVXVXVXVXVXVXVXVXVXVXVXVX",
"VXVXVXVXVXVXVXVXVXVXVXVXVXVXVXVXVXVXVXVXVXVXVXVXVXVXVXVXVXVXVXVXVXVXVXVXVXVXVXVXVXVXVXVXVXVXVXVXVXVXVXVXVXVXVXVXVXVXVXVXVXVXVXVX",
"VXVXVXVXVXVXVXVXVXVXVXVXVXVXVXVXVXVXVXVXVXVXVXVXVXVXVXVXVXVXVXVXVXVXVXVXVXVXVXVXVXVXVXVXVXVXVXVXVXVXVXVXVXVXVXVXVXVXVXVXVXVXVXVX",
"VXVXVXVXVXVXVXVXVXVXVXVXVXVXVXVXVXVXVXVXVXVXVXVXVXVXVXVXVXVXVXVXVXVXVXVXVXVXVXVXVXVXVXVXVXVXVXVXVXVXVXVXVXVXVXVXVXVXVXVXVXVXVXVX",
"VXVXVXVXVXVXVXVXVXVXVXVXVXVXVXVXVXVXVXVXVXVXVXVXVXVXVXVXVXVXVXVXVXVXVXVXVXVXVXVXVXVXVXVXVXVXVXVXVXVXVXVXVXVXVXVXVXVXVXVXVXVXVXVX"
};
