/* XPM */
static char *_3526_40dcfbf3e7aaec14fef559b543c9952270bb5119c0c21e074caea375351ab831[] = {
/* columns rows colors chars-per-pixel */
"64 64 240 2 ",
"   c #050C0D",
".  c #041B1D",
"X  c #0C1C1D",
"o  c #061517",
"O  c #15141B",
"+  c #19151C",
"@  c #131B1D",
"#  c #1A1A1E",
"$  c #141214",
"%  c #070F13",
"&  c #05211E",
"*  c #0D1E20",
"=  c #121C21",
"-  c #1C1C23",
";  c #1A1B25",
":  c #211D28",
">  c #042424",
",  c #0C2C2B",
"<  c #0A2726",
"1  c #142225",
"2  c #1B2325",
"3  c #16242A",
"4  c #1D242B",
"5  c #152A2C",
"6  c #1C2B2C",
"7  c #0B322D",
"8  c #15322F",
"9  c #1D2434",
"0  c #1C2C32",
"q  c #1C2637",
"w  c #0D3735",
"e  c #1C3234",
"r  c #183738",
"t  c #222125",
"y  c #23242B",
"u  c #23292D",
"i  c #2B2A2E",
"p  c #242C35",
"a  c #2B2D33",
"s  c #25293D",
"d  c #2B2D3D",
"f  c #242638",
"g  c #312F39",
"h  c #233234",
"j  c #24353A",
"k  c #2C333B",
"l  c #243B3B",
"z  c #2B3C3C",
"x  c #293636",
"c  c #333235",
"v  c #32323B",
"b  c #343A3D",
"n  c #3C3B3E",
"m  c #20191B",
"M  c #19413D",
"N  c #20403F",
"B  c #1E3E41",
"V  c #2C2E44",
"C  c #252A41",
"Z  c #2C3145",
"A  c #2C3E43",
"S  c #2A3545",
"D  c #343443",
"F  c #343B43",
"G  c #3B3B43",
"H  c #32364B",
"J  c #33394D",
"K  c #3C3C4C",
"L  c #3A3E52",
"P  c #373C53",
"I  c #302F44",
"U  c #403F4A",
"Y  c #1B4342",
"T  c #244343",
"R  c #2D4343",
"E  c #294A49",
"W  c #334446",
"Q  c #3C4144",
"!  c #35444B",
"~  c #3B434B",
"^  c #3B4C4C",
"/  c #34494A",
"(  c #36524E",
")  c #3D4255",
"_  c #3D435B",
"`  c #394C53",
"'  c #3C5E5C",
"]  c #375656",
"[  c #2D4F53",
"{  c #3C6564",
"}  c #3B5F60",
"|  c #424345",
" . c #43444D",
".. c #444A4D",
"X. c #494A4C",
"o. c #48474B",
"O. c #424254",
"+. c #434C53",
"@. c #4B4C55",
"#. c #42465B",
"$. c #454B5C",
"%. c #4A4D5C",
"&. c #494752",
"*. c #4C535D",
"=. c #475759",
"-. c #54565D",
";. c #5C5C5C",
":. c #545659",
">. c #504E59",
",. c #46615E",
"<. c #57605F",
"1. c #464C61",
"2. c #4A4E62",
"3. c #4D5364",
"4. c #4D5A63",
"5. c #4E5469",
"6. c #495664",
"7. c #525565",
"8. c #535B64",
"9. c #5B5D64",
"0. c #52566A",
"q. c #555A6C",
"w. c #5A5C6D",
"e. c #565C72",
"r. c #595D73",
"t. c #625F6A",
"y. c #486566",
"u. c #5C6266",
"i. c #55646B",
"p. c #5B626C",
"a. c #55686A",
"s. c #5B6374",
"d. c #5E647A",
"f. c #5B6874",
"g. c #497673",
"h. c #5B7778",
"j. c #516E6F",
"k. c #63646E",
"l. c #646A6E",
"z. c #636566",
"x. c #636673",
"c. c #646B74",
"v. c #696C74",
"b. c #62667B",
"n. c #636B7C",
"m. c #6A6D7C",
"M. c #686570",
"N. c #6A7174",
"B. c #6C747B",
"V. c #66767A",
"C. c #72767A",
"Z. c #727B7E",
"A. c #77787A",
"S. c #706E79",
"D. c #50807A",
"F. c #656C83",
"G. c #6A6E84",
"H. c #676D88",
"J. c #6B7285",
"K. c #6D738B",
"L. c #6E7B8A",
"P. c #727584",
"I. c #737C84",
"U. c #71768C",
"Y. c #73798D",
"T. c #7A7C8C",
"R. c #7A7B84",
"E. c #6E7790",
"W. c #717791",
"Q. c #747A92",
"!. c #797D94",
"~. c #797E99",
"^. c #688787",
"/. c #7C838B",
"(. c #748B8E",
"). c #768489",
"_. c #69938F",
"`. c #7B8295",
"'. c #7D839A",
"]. c #7B8B93",
"[. c #6C9693",
"{. c #799696",
"}. c #6E8D91",
"|. c #5D8B8B",
" X c #84878B",
".X c #838494",
"XX c #82859B",
"oX c #8A8C9C",
"OX c #858B96",
"+X c #839293",
"@X c #8C949D",
"#X c #87979B",
"$X c #94979D",
"%X c #858BA2",
"&X c #898EA5",
"*X c #8B92A4",
"=X c #8B94A8",
"-X c #9599A8",
";X c #989DB4",
":X c #89A6A7",
">X c #9BA4AD",
",X c #97A7AB",
"<X c #9CA4B5",
"1X c #9DA3BA",
"2X c #9CABB4",
"3X c #99B8B7",
"4X c #8EB5B2",
"5X c #A1A6AE",
"6X c #A2A9AC",
"7X c #A6AAB7",
"8X c #ACB4BC",
"9X c #A7B4B9",
"0X c #B6BABD",
"qX c #B4B7BC",
"wX c #A5AAC1",
"eX c #ADB8C4",
"rX c #B4BAC4",
"tX c #A9C8CD",
"yX c #B5C3CA",
"uX c #BAC2CC",
"iX c #BACACB",
"pX c #BBC9D3",
"aX c #B9DCD7",
"sX c #C2CBD5",
"dX c #C8CBD7",
"fX c #C7D3DC",
"gX c #C7C8D1",
"hX c #C7E3DF",
"jX c #CDD8E2",
"kX c #D3DDE8",
"lX c #D5DBE6",
"zX c #DCE4ED",
"xX c #D7E1EA",
"cX c #DEE7F3",
"vX c #CCEDED",
"bX c #E0E5EE",
"nX c #E5EBF7",
"mX c #EAF7FD",
"MX c #F6FEFF",
"NX c None",
/* pixels */
"NXNXNXNXNXNXNXNXNXNXNXNXNXNXNXNXNXNXNXNXNXNXNXNXNXNXNXNXNXNXNXNXNXNXNXNXNXNXNXNXNXNXNXNXNXNXNXNXNXNXNXNXNXNXNXNXNXNXNXNXNXNXNXNX",
"NXNXNXNXNXNXNXNXNXNXNXNXNXNXNXNXNXNXNXNXNXNXNXNXNXNXNXNXNXNXNXNXNXNXNXNXNXNXNXNXNXNXNXNXNXNXNXNXNXNXNXNXNXNXNXNXNXNXNXNXNXNXNXNX",
"NXNXNXNXNXNXNXNXNXNXNXNXNXNXNXNXNXNXNXNXNXNXNXNXNXNXNXNXNXNXNXNXNXNXNXNXNXNXNXNXNXNXNXNXNXNXNXNXNXNXNXNXNXNXNXNXNXNXNXNXNXNXNXNX",
"NXNXNXNXNXNXNXNXNXNXNXNXNXNXNXNXNXNXNXNXNXNXNXNXNXNXNXNXNXNXNXNXNXNXNXNXNXNXNXNXNXNXNXNXNXNXNXNXNXNXNXNXNXNXNXNXNXNXNXNXNXNXNXNX",
"NXNXNXNXNXNXNXNXNXNXNXNXNXNXNXNXNXNXNXNXNXNXNXNXNXNXNXNXNXNXNXNXNXNXNXNXNXNXNXNXNXNXNXNXNXNXNXNXNXNXNXNXNXNXNXNXNXNXNXNXNXNXNXNX",
"NXNXNXNXNXNXNXNXNXNXNXNXNXNXNXNXNXNXNXNXNXNXNXNXNXNXNXNXNXNXNXNXNXNXNXNXNXNXNXNXNXNXNXNXNXNXNXNXNXNXNXNXNXNXNXNXNXNXNXNXNXNXNXNX",
"NXNXNXNXNXNXNXG &... . . . .&.O.U U g : U D D U D g G g i i a - U t.>.U -.>.%.@.>.U &. .y G G G G G G Q G b G n t $ NXNXNXNXNXNX",
"NXNXNXNXNXNX+ $X-XoXOX.XoXoXoXOXoXT.7.T.M.P.x.M.S.m.v.t.-.9.@.4 .XgX7X;XrX1X5X*X*X.XoX.XJ m.x.P.m.v.m.v.l.k.k.v.o.t NXNXNXNXNXNX",
"NXNXNXNXNXNXNXoXoXm.m.J.G.m.J.U.r.P ~.&X0.0.0.#.q.1.$.*.%.*.*.4 T.;XXXU.r.r.W.H.J.J.J.s.C s.$.r.q.$.q.p.@.%.2.>.U : NXNXNXNXNXNX",
"NXNXNXNXNXNXNXoXXXP.Y.U.U.U.Q.b.P ~.=XW.K.0.0.e.$.8.5.$.8.4.$.q U.1XK.W.F.r.r.Q.K.n.d.s.H n.3.0.6.6.*.B.x.7.7.2.U : NXNXNXNXNXNX",
"NXNXNXNXNXNXNXXX&XG.G.W.H.K.F._ ~.&XK.K.K.K.r.r.q.2.0.5.*.6.$.p b.;XH.W.L.L.s.F.K.n.d.s.S s.6.1.w.d.f.0.3.$.7.7.K : NXNXNXNXNXNX",
"NXNXNXNXNXNX$ m.b.G.Y.K.W.H._ W.;XW.K.K.W.W.H.0.e.r.$.*.5.=.=.9 J.;XK.K.E.E.H.s.n.L.E.d.S n.F.F.s.2.q.6.q.5.0.7.K : NXNXNXNXNXNX",
"NXNXNXNXNXNX; P.%XH.r.r.0._ W.;X'.~.H.E.K.W.!.U.e.5.e.3.%.4.*.q !.<XW.K.J.J.K.J.d.J.Y.s.S d.F.f.L.f.6.1.$.2.0.2.K : NXNXNXNXNXNX",
"NXNXNXNXNXNX- oXW.~.&X~.2.~.&XW.;X'.K.H.W.K.F.T.J.5.e.w.$.-.1.f H.;XK.Q.E.E.K.W.J.K.K.d.S s.0.6.s.q.6.6.p.3.1.q.U : NXNXNXNXNXNX",
"NXNXNXNXNXNXNXT.U.W.r.0.&X&X~.=XqXqX0X0XqXqX0X0X0X0X0XrX7X5X0.f Q.7XH.K.K.E.K.K.K.K.K.b.S d.3.3.3.6.6.` s.b.0.2.U : NXNXNXNXNXNX",
"NXNXNXNXNXNXNX.XU.d.1.H.%X~.&Xm.A.C.v.l.M.v.A.D.B.N.l.N.v. XqXrXqX0X7X~.K.K.W.K.K.Y.Y.b.V F.2.5.1.3.3.f.7.w.r.0.U : NXNXNXNXNXNX",
"NXNXNXNXNXNX+ .XG.U XXwX'.W.W..XS.g  X/.,X+X2 1 ! eX7XV.I.B.t.t.N.Z.l. X5X`.!.8.s K.W.w.I b.w.2.0.2.0.b.r.1.7.7.K : NXNXNXNXNXNX",
"NXNXNXNXNXNX+ S.U U.wX&XW.W.K.W.qX/.u.>X9XN.+Xl.R mXcXpXjXkX7X7Xf.Z.).l.u.C..X..f r.T.!.I 0.2.1.$.1.$.%.2.2.1.2.U : NXNXNXNXNXNX",
"NXNXNXNXNXNXNX&.&X;XQ.J.W.K.K.E.K.;XM.b +.o ,.y.].8XwXsXlXmXbXqXnXbXxXbXrX6Xl.N.I f P 0.9 C f s s C s 9 C f 9 s g O NXNXNXNXNXNX",
"NXNXNXNXNXNXNXU XX7XW.K.W.K.K.W.W.K.&Xv.1 ..=.:.*X].2X2XrX7X&XdXlX6X/.C.).u.N.+XP.0.7.w.I U.G.!.XX!.J.G.G.G.G.P.x.a NXNXNXNXNXNX",
"NXNXNXNXNXNXNX7.V d.!.J.J.K.K.K.K.E.K.%XA.z C.).4.].XXXXT.x.7XkXv.4 y     o z 9X$XC.0.2.J ;X'.~.&X%X!.!.!.'.'.b.9.: NXNXNXNXNXNX",
"NXNXNXNXNXNXNXM.K H e.!.K.J.W.E.H.E.K.E.*XN.h <.+.i.5.).s.s.dXB.O 6 2 W =.=.x x OXA.v.#.C '.E.K.G.K.G.K.K.J.Y.s.>.y NXNXNXNXNXNX",
"NXNXNXNXNXNXNXv.q.1.S q.Y.W.G.H.E.F.%XE.Q.6X6 =.4.~ V.J.q.5XrX! 2 @ h {.hX9X( o a.,Xu.I.C 1XW.H.K.K.K.Y.K.F.K.T.0.: NXNXNXNXNXNX",
"NXNXNXNXNXNXNXv.3.5.1.H e.L.W.K.H.F.=X=XH.'.Z.Q $.B.K.s.f.cX@Xq 6 & l :XvXhX,.& R +XZ.R.C ;XQ.E.K.U.K.G.E.E.n.n.q.: NXNXNXNXNXNX",
"NXNXNXNXNXNXNXv.0.1.0.1.H 0.Q.U.H.E.K.'.K.K.6Xu 8.`.7Xn.<XkXq.= < & 7 D.:X{.E < . j.6X<.9X.XQ.E.E.E.e.f.Q.F.b.J.7.y NXNXNXNXNXNX",
"NXNXNXNXNXNXNXx.3.3.1.5.#.J e.W.E.E.E.H.K.W.@XF $.8XpX*XnX7X^ 2 & & 7 7 7 M 7 & . l ).).A.XXQ.K.E.K.F.`.H.L.J.T.7.y NXNXNXNXNXNX",
"NXNXNXNXNXNXNXv.7.3.5.3.5.#.L r.W.J.H.E.K.Q.oXa T.eXrX<XcXP.3 1 ( ' ' M & 7 E ' ' 0 Z.8Xu.gXY.J.K.K.L.J.F.f.I.J.7.: NXNXNXNXNXNX",
"NXNXNXNXNXNXNXz.7.5.$.3.7.7.#.H e.Y.Y.K.Q.3.$Xb T.<XkXkXjX^ 2 h ^.aX3X' 7 M [.hX3X/ j +XZ.Z.'.K.Y.L.#Xb Q +.X.| o.:.NXNXNXNXNXNX",
"NXNXNXNXNXNXNX7.*.7.3.0.1.7.w.#.J q.Y.Y.1.7.-Xk T.7XrXnXpX3 @ 5 {.mXaXy.& M :XmXjX] q ].,XN.8X].iX].W ..u Q x | i c A.NXNXNXNXNX",
"NXNXNXNXNXNXNXx.7.2.0.3.7.0.2.w.$.K w.2.U eX-XG T.*X,XcXpX% 1 h D.#X(.[ & 7 ' :X}.` 5 ).eX( c.<.R ( ,.=.,.Q b u | n c C.NXNXNXNX",
"NXNXNXNXNXNXNXk.O.$.K L O.L O.L U L I 2.8X9.-.k 8.w.eXcXfX6 @ 6 x 6 e 5 * o & 8 e q j.8X4.a.(.l e ,.,.x / 2 1 @ - X.i ;.NXNXNXNX",
"NXNXNXNXNXNXNXG k V H H C d d V I I x.9.9.t.B.%.D =.J.sXjX7X..p   1 ! j.3XpX,X( e i.pX*Xj ^.#XW M ' y.] l 1 2 2 $ n a z.NXNXNXNX",
"NXNXNXNXNXNXNX5X=X-X;X;X'.#.Y.%X.Xo.:.$X+X>X-X>XJ.e j ! 8.8XlXdX,X9XpXiXyXfXiXyXrXxX*X^ 4.h.! [ ' y.|.T R & t # + n c ;.NXNXNXNX",
"NXNXNXNXNXNXNX5XU.J.Y.W.#.r.=XJ.P. X Xn @.:.>XsXyX).).].n.! qXuXyX X:.a.y.=.f.I.>X].f.7XjX#Xj W Y g.[.E W @ 2 t + n c ;.NXNXNXNX",
"NXNXNXNXNXNXNX;X!.F.W.U.r.!.Y.K.K..XqXR.i +XdXMXmXzXnXkX,XC.y O.y n -.-.p.i.c.4.) 4.oXuXMX2X/ E w D._.T W 1 2 # $ n c ;.NXNXNXNX",
"NXNXNXNXNXNXNX`.G.%XK.H e.%XY.Y.&X$X5X:.5XfXbX5X-XnXmXnXuX.X7X8XsXdXfXsXsXzXpX7XfXzXkXkXeX4.` l M g.{.E z o 2 t # n c ;.NXNXNXNX",
"NXNXNXNXNXNXNX; L XX~.F.U...~ h b x h u @.v.k.S.gXdXMXdXi.v.nXxXmXMXpX;XnXMXfXOXjXMX8Xf.q.3 A =.' g.[.T ( 1 - # m n c ;.NXNXNXNX",
"NXNXNXNXNXNXNXf U.XXK.K.J.o l ^ o 1 h ....o.U M.bXgXm.q.3 c.eXxXmXuX3.d.yXcXpX` s.eXeXz p 5 0 A M D.[.M W X @ u + n c ;.NXNXNXNX",
"NXNXNXNXNXNXNXK &XQ.K.K.T.X z h.R j.^ R *.t.>.k.7X@.p y s c.9XfX,Xi.5.j.,XpXyXA d.{.] 3 e h 3 0 w { D.T W * 2 - + n c ;.NXNXNXNX",
"NXNXNXNXNXNX; P.U.K.K.K.J.& z j.8 r 8 R =.k  .-.>.d p F A y.,Xj.[ [ g., }.=X[ [ h.} ! r 5 3 l 6 > ] ' E R o u # + n c ;.NXNXNXNX",
"NXNXNXNXNXNX+ .XJ.K.K.J.Q.1 R j.7 M [.R z W c x p F j h j y.y.E w [ { Y g.g.B } }.T A w e 0 6 =.D.T y.x x 6 @ t O c i z.NXNXNXNX",
"NXNXNXNXNXNX; /.Y.!.Q.Q.K.% ( ,._.M ( 8 l R 6 4 k 3 3 . r ` 7 [ { { |.{ tXg.[ { {.{ |.* > X > z R ( ,.8 e @ t # y a m ;.NXNXNXNX",
"NXNXNXNXNXNX- T.w.q.0.r.w.J.. ( 4XM M ,.R e h 3 o * e 8 ] 6.T w Y g.[.{ vX4X{ { {.E [ B . ( N.& & ( ,.6 x t @ t : a i z.NXNXNXNX",
"NXNXNXNXNXNX$ D J Z S Z H 4.3 R ' {.8 ] z 1 6 1 5 5 j V.j.y.F.g.{ |.|.} vXtX{ T |.y.B Y . ( iX<.  ^ ,.6 b u @ t i c i ;.NXNXNXNX",
"NXNXNXNXNXNXO m.c.n.J.b.x.+.0 h r ` j.5 X * 5 a.a.V.y.> e e r > B w < 6.vXtXJ.> 7 B ^.j.j.^ <.9X,X<.z u.a n Q i | c X.NXNXNXNXNX",
"NXNXNXNXNXNX# x.3.5.q.n.J.p ^ 0 j e ! o X N.=.h p > W #X(.#X{.*X}.[.#X,XfX2X,X(.i.} , 5 =.^ Q uXI.9XN.  $ y t t   | NXNXNXNXNXNX",
"NXNXNXNXNXNXO c.3.$.B.n ..&.~ X 3 = 4 p.N.B. X].+X(.V.).d.f.n.p.f.c.8.p.p.8.8.f.^.(.(.{.f.X o ;.-XJ.Z.L.$.) XXY.*.2 NXNXNXNXNXNX",
"NXNXNXNXNXNXNXx.q.n o.o...>.@.+.+.F a Q b b W ..=.f.i.f.K.E.K.J 0.r.3._ L F.'.*Xq.i.a.N.Z.u.b u Z.Y.Y.$.) `.K.P.w.: NXNXNXNXNXNX",
"NXNXNXNXNXNXNXC.| o.o.:.Q v c Q g t.V 0.;XF.K.K.K.K.K.W.K.K.G.H 0.d.2.e.V Z n.W.K.K.E.*XQ c | v :.Y.1.) `.L.K.Y.7.; NXNXNXNXNXNX",
"NXNXNXNXNXNXNX| n c c ..0.6.*.6.2.e.d 7.;X!.~.K.W.K.K.K.K.W.U.L H P 2.1.1.5.J n.W.E.J.K.F.&XOX# l.3.) '.K.J.J.Y.0.y NXNXNXNXNXNX",
"NXNXNXNXNXNX+ v.c.7.*.f.i.6.5.6.2.7.V 2.;XK.W.K.K.K.W.K.K.J.K.J P 0.H 9 0.F._ J d.W.Y.J.r.wXQ.K.1._ `.E.'.!.K.Y.0.: NXNXNXNXNXNX",
"NXNXNXNXNXNXO c.8.*.$.5.q.2.5.7.7.7.I 5.7XF.U.K.E.E.W.W.U.U.H.J r.G.d.#.5.0.5._ H F.K.Q.J.K.E.5._ '.E.H.Q.%XXXG.0.: NXNXNXNXNXNX",
"NXNXNXNXNXNXO l.*.3.6.5.1.3.5.6.7.0.V 5.;XY.U.W.E.H.K.K.K.U.U.J 2.r.L 1.b.$.0.3._ J s.L.Y.U.2.P ~.~.K.H.K.E.`.Y.0.: NXNXNXNXNXNX",
"NXNXNXNXNXNX+ M.-.3.*.7.6.6.1.5.0.7.V 5.7X~.W.K.E.H.U.U.K.K.G.H 0.b.#.K 0.e.2.5.5.#.J b.U.1.L XX~.H.J.Q.`.`.J.U.0.4 NXNXNXNXNXNX",
"NXNXNXNXNXNXNXk.-.-.*.3.5.0.3.7.0.2.H 5.wXQ.W.U.E.W.Q.~.W.U.G.H 7.q.0.#.J b.x.0.3.7.) L #.#.XXW.H.E.K.J.&X%XL.J.7.y NXNXNXNXNXNX",
"NXNXNXNXNXNXNXz.@.%.*.%.%.%.%.%.>.0.I U XXG.J.J.G.K.W.!.G.J.G.K $.w.O.q.K 9 K w.2.$.7.O.D T.U.m.E.H.J.J.J.L.m.P.7.: NXNXNXNXNXNX",
"NXNXNXNXNXNXNXi c g v v v v g v v g g D K U L K L K K K K K K G a g D d f y f g v D D g D K K U | K ~ ~ ~ K U U U t NXNXNXNXNXNX",
"NXNXNXNXNXNXNXm m + + + O + O ; + + ; O O O O + O = + + O O O O O + O ; + O O - O O O O O O O O + O O O O + + O m NXNXNXNXNXNXNX",
"NXNXNXNXNXNXNXNXNXNXNXNXNXNXNXNXNXNXNXNXNXNXNXNXNXNXNXNXNXNXNXNXNXNXNXNXNXNXNXNXNXNXNXNXNXNXNXNXNXNXNXNXNXNXNXNXNXNXNXNXNXNXNXNX",
"NXNXNXNXNXNXNXNXNXNXNXNXNXNXNXNXNXNXNXNXNXNXNXNXNXNXNXNXNXNXNXNXNXNXNXNXNXNXNXNXNXNXNXNXNXNXNXNXNXNXNXNXNXNXNXNXNXNXNXNXNXNXNXNX",
"NXNXNXNXNXNXNXNXNXNXNXNXNXNXNXNXNXNXNXNXNXNXNXNXNXNXNXNXNXNXNXNXNXNXNXNXNXNXNXNXNXNXNXNXNXNXNXNXNXNXNXNXNXNXNXNXNXNXNXNXNXNXNXNX",
"NXNXNXNXNXNXNXNXNXNXNXNXNXNXNXNXNXNXNXNXNXNXNXNXNXNXNXNXNXNXNXNXNXNXNXNXNXNXNXNXNXNXNXNXNXNXNXNXNXNXNXNXNXNXNXNXNXNXNXNXNXNXNXNX",
"NXNXNXNXNXNXNXNXNXNXNXNXNXNXNXNXNXNXNXNXNXNXNXNXNXNXNXNXNXNXNXNXNXNXNXNXNXNXNXNXNXNXNXNXNXNXNXNXNXNXNXNXNXNXNXNXNXNXNXNXNXNXNXNX",
"NXNXNXNXNXNXNXNXNXNXNXNXNXNXNXNXNXNXNXNXNXNXNXNXNXNXNXNXNXNXNXNXNXNXNXNXNXNXNXNXNXNXNXNXNXNXNXNXNXNXNXNXNXNXNXNXNXNXNXNXNXNXNXNX"
};
