/* XPM */
static char *_bc84dd799a54fd2f03779a108beadaaohBIZsjo6rvFS6TY[] = {
/* columns rows colors chars-per-pixel */
"64 64 178 2 ",
"   c None",
".  c #0E0E15",
"X  c #0F0D1A",
"o  c #161113",
"O  c #15141B",
"+  c #19151C",
"@  c #16181C",
"#  c #1D191F",
"$  c #20191B",
"%  c #171720",
"&  c #191720",
"*  c #1D1D25",
"=  c #161928",
"-  c #1E1F29",
";  c #211D26",
":  c #211D29",
">  c #1F202C",
",  c #1D2235",
"<  c #1F2937",
"1  c #1E2339",
"2  c #232127",
"3  c #22222B",
"4  c #2C2B2F",
"5  c #232534",
"6  c #282735",
"7  c #2C2A35",
"8  c #23263B",
"9  c #25293D",
"0  c #2B2C3E",
"q  c #302E3B",
"w  c #333237",
"e  c #32313C",
"r  c #37393E",
"t  c #38393F",
"y  c #252B41",
"u  c #2B2D43",
"i  c #302F44",
"p  c #273043",
"a  c #2C3145",
"s  c #2E3449",
"d  c #343442",
"f  c #373B47",
"g  c #3A3B44",
"h  c #32364B",
"j  c #34394D",
"k  c #3C3D4C",
"l  c #363B51",
"z  c #3A3D53",
"x  c #3C3F5A",
"c  c #403F4B",
"v  c #3E414B",
"b  c #3D4155",
"n  c #3D425A",
"m  c #43444D",
"M  c #48454D",
"N  c #414254",
"B  c #494752",
"V  c #454B57",
"C  c #4D4C57",
"Z  c #42465B",
"A  c #444B5D",
"S  c #4A4D5C",
"D  c #47505D",
"F  c #4B515E",
"G  c #53555F",
"H  c #404760",
"J  c #464C62",
"K  c #4A4E62",
"L  c #465161",
"P  c #4C5364",
"I  c #4E5866",
"U  c #4E546A",
"Y  c #4F596A",
"T  c #525565",
"R  c #515966",
"E  c #5A5A66",
"W  c #52566A",
"Q  c #545A6C",
"!  c #5A5C6D",
"~  c #565C71",
"^  c #595E73",
"/  c #585F78",
"(  c #5B616E",
")  c #576073",
"_  c #5B6275",
"`  c #5D647A",
"'  c #5F687B",
"]  c #636067",
"[  c #63646D",
"{  c #66686E",
"}  c #646673",
"|  c #646975",
" . c #686A75",
".. c #62667B",
"X. c #636A7C",
"o. c #6A6C7C",
"O. c #6A727F",
"+. c #5E6680",
"@. c #626681",
"#. c #656B83",
"$. c #6A6E84",
"%. c #666D88",
"&. c #696F8A",
"*. c #6C7185",
"=. c #6C738C",
"-. c #6F788D",
";. c #727484",
":. c #71768C",
">. c #787689",
",. c #73798E",
"<. c #7B7C8D",
"1. c #6D7591",
"2. c #6F7892",
"3. c #717791",
"4. c #747A92",
"5. c #797D94",
"6. c #767C99",
"7. c #797F98",
"8. c #7D808D",
"9. c #778296",
"0. c #7B8196",
"q. c #7C829A",
"w. c #848494",
"e. c #888795",
"r. c #868A96",
"t. c #80839A",
"y. c #86879B",
"u. c #82859C",
"i. c #83889E",
"p. c #888B9B",
"a. c #8A8B9B",
"s. c #88889A",
"d. c #888C98",
"f. c #8E8E9B",
"g. c #8D8C9E",
"h. c #8A8A9C",
"j. c #96949E",
"k. c #8087A1",
"l. c #858BA3",
"z. c #898CA1",
"x. c #888DA7",
"c. c #8D8EA6",
"v. c #888DA2",
"b. c #878EA8",
"n. c #888EA9",
"m. c #8B91A6",
"M. c #8E92AC",
"N. c #8C92AB",
"B. c #9192A3",
"V. c #9594A1",
"C. c #9093A5",
"Z. c #9197AD",
"A. c #9499AF",
"S. c #9C9FAD",
"D. c #9097B1",
"F. c #949BB4",
"G. c #9F9FB2",
"H. c #9B9FB5",
"J. c #9A9DB4",
"K. c #989EB9",
"L. c #9FA1AF",
"P. c #99A1B7",
"I. c #9BA0B6",
"U. c #9AA3B9",
"Y. c #9EA4BB",
"T. c #9DA2BA",
"R. c #A0A3AF",
"E. c #A0A0B2",
"W. c #A2A2B4",
"Q. c #A6A6B9",
"!. c #A2A5BE",
"~. c #A6A9BE",
"^. c #A3AAC1",
"/. c #A9ADC3",
"(. c #ACB0C8",
"). c #B1B1C3",
"_. c #B0B2C9",
"`. c #C1C1D3",
/* pixels */
"                                                                                                                                ",
"                                                                                                                                ",
"                                                                                                                                ",
"                                                                                                                                ",
"                                                                                                                                ",
"                                                                                                                                ",
"              g B m m m m m m N m B 7 3 g e d m 7 e g w 3 4 4 * g E C C T C C C C m B m 3 d g f g g g g g r t g 2 o             ",
"            + j.V.f.r.r.d.s.h.y.g.<.T >.} ;.} }  . . .! G E C 3 w.`.Q.G.).W.E.B.B.w.s.w.k o.} ;. .o.o. .| [ [  .M 2             ",
"              e.s.o.o.*.*.$.$.:./ z 5.c.P W Q Z Q K S S S F F > 5.J.t.,._ _ ,.$.*.$.*._ 0 _ S ^ Q Z E ( S S F C g ;             ",
"              g.y.:.,.=.:.,.4.` x 5.M.=.=.W Q ~ A W P S R I V 8 :.Y.=.3.` / / 4.-..._ _ h X.P W P P F O.| R P T k ;             ",
"              s.z.$.=.4.*.=.@.n 4.x.*.=.=.=.~ / Q K W P F I D < _ P.#.4.=.=.) #.=.X.' ) a _ P J ) ` X.I P K P R k :             ",
"            X o.X.#.,.*.4.%.n 4.K.4.4.*.4.=.=.U ~ ~ A P P D F , *.U.=.*.=.4.*._ X.*.,.' a X.#..._ L Q P W P R T k :             ",
"            O ;.u.#._ / Y n 3.F.q.7.%.4.=.4.4.=.~ W Q P A R F , 4.P.4.=.=.*.,.*.` *.=._ p X.X.` *.' L L A K W K k :             ",
"            * h.,.5.v.0.J q.n.1.K.q.*.&.3.=.#.4.*.U ^ Q A R F , *.F.=.4.,.=.=.,.=.=.=.` a ` Q P _ Q L P _ P K Q k :             ",
"              <.:.4._ W m.v.4.q.l.%.4.=.=.6.3.=.3.3.W Q _ S P 5 4.Y.*.=.*.4.*.*.=.=.,...a ` P P P P I V _ X.Q K k :             ",
"              w.,.` Z *.q.q.3.=.=.=.=.3.1.=.=.=.&.3.,.Q W _ S 8 q.T.=.3.*.=.3.=.=.,.,...u X.P U P P P _ I Q ! R k ;             ",
"            + w.X.x t.^.q.3.3.=.1.=.1.=.4.=.=.=.=.=.,.*.W _ W 5 #.i.q.,.=.=.4.W y :.:.Q d X.W P W P P ..^ S T T k *             ",
"            + o.N :.(.v.,.=.*.4.=.=.1.=.=.=.4.=.=.4.#.,.*.N ^ 8 X.0.*.#.=.=.$.Z 1 ^ 5.5.u Q K K S K A K K K K K m 2             ",
"              B B.J.4.=.=.=.=.=.=.3.=.1.&.*.1.=.*.*.4.#.z s a 8 b Z a j j u 9 , h 1 b W , 9 8 9 9 9 8 1 9 8 , 9 0 O             ",
"              k w.~.,.=.4.=.=.4.1.=.4.*.4.` =.=.=.*.,.~ a a W ..j ~ U Q W Q Q ^ X.Q T Q a :.$.5.u.5.*.$.*.$.$.*. .7             ",
"              T a ` 5.*.*.=.=.&.=.1.*.=.4.*.*.4.*.0.,.` z P ~.;.A ..~ ~ W Q W Q W ^ Q P h J.u.5.l.l.5.4.5.q.q.X.E *             ",
"              } k h ~ 5.=.*.4.4.=.1.*.=.*.4.=.=.~ F.i.b ,.~.,.j W ~ Z P P D Z P P K P Z 9 u.=.=.$.*.#.,.=.*.,.} S 2             ",
"              } ! J s Q ,.,.#.#.1.#.l.2.4.&.4.+.H l.W z 4.*.$.h P _ P P P I P P S P P Z y T.4.&.,.=.*.-.=.#.:.,.T 2             ",
"               .P P J h Q :.,.=.=.#.m.D.&.1.1.#.` Z z q.,.:.*.h U ~ P P P I F P P X.*.n y D.4.=.=.=.=.*.-.=.#.X.Q 2             ",
"              } R J Q A h W ,.=.*.4.*.7.=.=.*.` U n 0.4.*.,.=.h P _ P P P I P P P P ~ Z y 0.4.=.=.=.~ ` 4.#.` *.R 3             ",
"              } P P J U Z j Q 4.,.=.,.*.=.4.*.Y n 0.5.#.,.$.=.l U ~ J P P P P P P Q Z l y 0.4.=.3.*.#.9.#.=.*.<.T 2             ",
"               .Q P P P P Z z ~ ,.$.*.4.=.4.U z 4.0.*.,.4.*.=.h W _ P P P P P P P _ =.~ y q.4.*.=.,.=.=.' _ ,.*.R 2             ",
"              ] P P K P P P A h ~ ,.,.=.4.J z 0.5.*.=.=.=.,.*.j K _ P P P P U P P Z #.J 1 0.5.,.,..._ -.-.*.,.,.T 2             ",
"              T P T P W K P W S j W ,.,.J n ,.5.#.,.,.$.=.=.*.s P ..K W W K Q P ~ U K Z a 4.,.*.Q Q ,._ Y #.=.:.T *             ",
"              } T P W P P W K ! S j ! K b 5.0.$.4.,.,.,.4.=.=.h P _ K ^ _ Q ,.i.*...P Z y t.5.4.,.` *._ *.....X.T 3             ",
"              ] N A j z Z z N z N z d Z :...` ^ ~ _ ` ~ _ _ ^ b z A b b x j K ..J z n z u 4.X.Q Q X.W Q X._ K K V 3             ",
"              g d a h s 0 0 0 a u i 0 h z y y s s a y s a a h 9 8 u a u s s y u u u u y y j u a a a s a 9 a a a d *             ",
"              R.C.Z.T.A.q.Z ,.l.t.t.*.h :.$.#.` / =.*.` X..._ , 5.A.0.t.u.q.k.u.q.l...J x.~ / #._ ..X.X.P F F A f *             ",
"              L.*.=.,.4.Z ~ m.=.:.5.j b X.*.4.~ ` ` ` W K T K 9 ,.u.,.4.=.,.,.*.4._ J N.T.q.Y _ Q P K S R P I R f *             ",
"              S.5.#.,.,._ 4.4.=.:.$.8 z ..W ` #.X.Y P P P Q K 9 ` i.$.=.*.=.*.5.` J M.D.u.=.#.Y / U P P P Q A P f *             ",
"              0.*.l.=.h ~ l.=.3.5.K , l ..A Z P Y P P U W K P 8 ..5.=.=.=.*.4._ l J N.5.0.=.3.*.U _ Y P X.Q Q _ f *             ",
"              = b u.5.%.=.=.=.3.,.*.8 j ,.` L P L P P P P P P 9 ..u.#.4.4.=./ Y ~ 4.q.v.4.=.=.=.*.U ` P R Q U _ f *             ",
"              5 ,.l.&.=.=.=.3.*.=.4.l l ..Q W I Y P P P W *.P 9 ..q.=.q.4.#.n k.K.4.k.F.0.=.3.1.=.#.U _ K W $.P k *             ",
"              k z.4.,.=.4.,.&.3.,.4.J l *.Q A P P D P P ^ $.K 9 ..q.,.l...n 7.b.7.N.F.q.=.1.%.3.=.0.#.W _ ^ _ P f *             ",
"            % ;.:.=.=.=.$.,.*.=.=.,.J z ` A P I I P P A X.^ K 8 X.4.5.3.n 7.D.q.1.K.7.=.1.1.1.1.1.#.5.$.P ..Q P f *             ",
"            + w.*.=.=.=.4.=.=.*.,.:.K l $.A P P S P P S W W K 9 ..u.` n 4.K.k.=.1.6.=.1.=.1.1.1.1.1.=.,...n ` ` v *             ",
"            + 8.,.4.,.4.=.,.=.4.=.5.A z X.P Q P _ P N Z K Q T 9 ..$.n 5.M.v.%.4.1.=.=.4.3.3.1.1.1.=.=.=.$._ K _ b *             ",
"            * <.^ Q W ^ ~ ~ W ~ Q / Z u b j h j b j h j h z x 8 o...q.Z.l.*.=.1.1.=.1.1.&.=.=.=.1.1.=.5.i.5.,.Q f *             ",
"            . d h a a a h s h a h u u 9 z z x l l z z z j j b u 0 t./.q.=.4.1.=.1.1.1.=.=.3.3.4.1.1.=.=.0.,.0._ S *             ",
"            +  .| X.*...` ` X.` X.$.a K _.T.!.Y.H.!.Y.T./.T.i.W h S t.,.*.2.=.=.1.1.1.=.4.3.*.*.=.*.,.5.z.i.J Z o.5             ",
"            * } I P Q ..Q P P P S P a W J.@.=.%.=.&.%.#.q.q.$.h Q K s ..=.=.&.2.1.1.=.=.=.%.*.4.=.4.$.m.z.Z z 0.( 3             ",
"            O | R A W *.| R A P Q P s P T.&.3.3.=.=.3.3.3.4.$.h T _ Z z ` 4.4.=.=.1.=.1.1.=.b.l.=.*.$.:.A b i.,.A -             ",
"              } P P ` X.( F I P P W u U T.#.4.1.3.&.4.q.*.,.=.j P / K Z l ` 4.=.1.1.=.=.=.9.F.4.*.4.,.A b 0.=.:.! -             ",
"              [ R | Q X.A P I I P P u P T.#.=.=.=.=.1.3.=.=.*.h W ..K ~ u u ..4.*.=.3.3.=.&.=.*.4.4.J n 4.,.:.:.R >             ",
"              { [ ( P X.W P P P P Q u P J.4.5.=.=.=.=.=.*.,.:.z j j K J J U l ..3.=.=.=.#.b.4.3.=.K b q.=.=.*.:.R 3             ",
"            @  .} T P _ ) P P I P T a P T.:.,.*.=.=.=.=.*.=.$.j z Q h , W ..n j ..,.,.*./ ^.4.=.J n 0.,.0.5.*.,.R >             ",
"            O | R F P Y Y P Y P P P h P Y.#.=.,.=.=.=.4.=.,.*.j Q *.` Z P Q W n h #.=.4.=.=.4.K n q.4.*.5.l.i.*.R >             ",
"            O [ F P P P L P P P P W u P A.,.,.1.=.*.*.=.=.,.=.l P _ z K X.Z W P n h ` :.,.:.P z 7.4.=.*.*.4.5.,.R >             ",
"            + [ T I P U P P P R W P u U ~.0.4.*.=.*.=.,.=.=.$.j W X.Z j Q ~ K P P Z j ..=.J z u.7.&.*.4.0.4.=.,.R >             ",
"              [ G F S P P R P R W K h P /.4.4.=.=.3.5.7.,.,.$.h P Q W Z z ....P P W z z Z Z t.,.$.3.=.*.m.l.:.*.T 2             ",
"              ] C F F S S F S S S W d N y.$.*.*.$.=.,.,.*.$.$.j S ! N Q j 5 k ! S S T N h <.>.o.:.$.*.*.*.;.o.;.T 2             ",
"              4 w e e e e e e e q q q d k k N k b k k k k k k g 7 0 d e 7 5 6 0 e d d e d g k k k k v v v v k c g 3             ",
"              $ + + + + + + + + + + + + + + O O + + O O + O O O O O O + O O + & O + O O O O O O O O O O O O + O #               ",
"                                                                                                                                ",
"                                                                                                                                ",
"                                                                                                                                ",
"                                                                                                                                ",
"                                                                                                                                ",
"                                                                                                                                "
};
