/* XPM */
static char *_34e4e984ad446388c8c7718756e3ae9[] = {
/* columns rows colors chars-per-pixel */
"64 64 62 1 ",
"  c #5F3A1D",
". c #62371C",
"X c #63391B",
"o c #6B3D1C",
"O c #7F3E16",
"+ c #7F3F19",
"@ c #6F401D",
"# c #74431E",
"$ c #7A461E",
"% c #77481F",
"& c #7A481F",
"* c #754521",
"= c #7B4720",
"- c #7B4821",
"; c #803E18",
": c #804019",
"> c #8A451F",
", c #814C26",
"< c #844E29",
"1 c #8B4E29",
"2 c #86512B",
"3 c #8A532D",
"4 c #92542F",
"5 c #9A532D",
"6 c #8E5631",
"7 c #8F5833",
"8 c #915731",
"9 c #915833",
"0 c #955B36",
"q c #975B37",
"w c #975C37",
"e c #9D5B37",
"r c #965C38",
"t c #995E39",
"y c #9B5F3C",
"u c #A95D37",
"i c #9C603B",
"p c #9E613C",
"a c #9E643F",
"s c #A0633E",
"d c #A1633F",
"f c #A3643F",
"g c #BB643F",
"h c #A16340",
"j c #A06540",
"k c #A46742",
"l c #A76744",
"z c #A36843",
"x c #A66843",
"c c #A66A45",
"v c #AA6B47",
"b c #AE6A47",
"n c #AB6C47",
"m c #AC6C47",
"M c #AD6B48",
"N c #AA6D48",
"B c #AC6C48",
"V c #B76642",
"C c #B06A45",
"Z c #B16C46",
"A c #B86842",
"S c #B06E4A",
/* pixels */
"gVVVVVVVVVVAu555555555555>OO++;;;;;;;;;;;;;;;;;;;;;;;;;;;;;;;;;O",
"bNNNNNNNNNNBz77777779q996-$====================================$",
"bNNBNNNNNNNBvq7qja77639q3==,3<=================================$",
"bnNMBMMBBjtvBp6qcj9q32q92$-6q6-$===============================$",
"bnNMBMMBBjtvBvq6qq799997,$=393=$===============================$",
"bnNMNBBBBBvBBBlq66799999<$=-,-$================================$",
"bnNMNBBBBBBBBBBp699999993==$$$=================================$",
"bnNMBBBBBBBMBBBp6999999q7,$====================================$",
"bmNMBBvBBBBBBBkq79699999q3-$$====$==-==========================$",
"bmNBBjqsNBBxjt6799q799qqq92$===================================$",
"bmBMBt3wvBp86tiq9999q9336q9<=$=================================$",
"bmNMBktjBk97qvBt79999<==,6q6-==-===============================$",
"bnNMNBBBBp89qjvt799q6-$$=3q9,$,3-$=============================$",
"CmnmBBBBBs979qq9999q6,$$-6q6-$<3-$=================$$==========$",
"CBBbbBBBBvq797798799q3,,39q2===-===========================$===$",
"bMNMBBBBMBy69999997999869q3-======$==================-=====$===$",
"bnNBBBBBBBc979799766999qq6-$==$===$=$=============$$$$$========$",
"bmNMNvnBBBBp699977rr8qq93-$========-=============$=**=%$=======$",
"bmBMhqpvBMSs398879tt996<=$========================oXXo=&=======$",
"bmBvq6qxBBBt69999q8qq3-=$=======================-#XXXX#========$",
"CnNMpqtvBBp69999q9972,,=$=======================-#XXXX@==$$=$==$",
"ZNNBBvvNcp899999q993-39<$=======================-#X..X#========$",
"ssjkkkjtq6999999977<-69<$=======================-$#oo*=========$",
"87q978qq779999qq997,$-,-$=========================-============$",
"89q99pvvp967866q799<$$$======$#$================$$=============$",
"eq76tBBBvw692-,69992=========$#$===============================$",
"vi66tBMBNt76-$$<q993===========================================$",
"eq78qcBBlq98-$$29996-=======--=================================$",
"49999wppq69q6<289997<====-<<-==============$==$$====$==========$",
"89q633896999q7q9999q3=$==2qq<$================$$====$==========$",
"896,=-<797999999999q6-===3qq2$=================================$",
"892$$$-699999999999q7,===-33-$============-===$$*==============$",
"892$%$-3q999799977997<$========================oX#==$==========$",
"896,==<7999q99qq97qqq<==$======================oX#==$==========$",
"8976339799q9q62377qq8,==$=-==$=======================-=========$",
"8979qq97999996=-6q9q3-==========================-==============$",
"8qqqq977997996337qq6,==========================================$",
"13366qqq9997999q9q7<===========================================$",
"+==-,<33899qqqq996,============================================$",
"$===$$==-,<23322,-=====2,$========================$$=$$========$",
"$==$====$$$====$$$=====2,$=========================$=$$========$",
"$==$=$===============-===================================$=====$",
":==$%$$$$============================================---=====$$$",
"$==$=<<-===============$===========================--**==$$====$",
"$==$39q6-$==========================================*oXX#=-$===$",
":=*,79q9<$=========================================#XXXXXo=$===$",
"+$$,7qq7,$==================================$=====$XXXXXXX#====$",
";==$<792-===================================$====-*XXXXXXX#-===$",
"$==$=-,===========================-=##===========$*XXXXXXX#$$==$",
"$==$=$$=$=========================$oXoo#==========$oXXXXXo$====$",
"$=================================oXXXXo=-========-=oXXXo#=====$",
"$===============================-#XXXXXX#-===========##*====$==$",
"$==$===========================$=#XXXXXX#-=========$$---$===$==$",
"$================================#XXXXXX#-=====================$",
"$=======$=========================@XX.X#=======================$",
":==$===*===========================#oo#========================$",
":====#oXo#============================-==-=====================$",
"$==-#XXXXX#$=$=================================================$",
"$==$XXXXXXX=$==================================================$",
"$==# XXXXXX#-==================================================$",
"$==#XXXXXXX#-===$$=============================================$",
";==$oXXXXXo$==$=$$=============================================$",
"$===*XXXXX#$===================================================$",
"+==$=#ooo#$$==$$$$$$$$$$$$$$$$$$$$$$$$$$$$$$$$$$$$$$$$$$$$$$$$$$"
};
