/* XPM */
static char *a7e774352157450b9d3ef7cd50023123[] = {
/* columns rows colors chars-per-pixel */
"64 64 61 1 ",
"  c #5F3A1D",
". c #62371C",
"X c #63391B",
"o c #6B3D1C",
"O c #7F3E16",
"+ c #7F3F19",
"@ c #6F401D",
"# c #74431E",
"$ c #7A461E",
"% c #77481F",
"& c #7A481F",
"* c #754521",
"= c #784621",
"- c #7B4720",
"; c #7C4620",
": c #7A4820",
"> c #7C4820",
", c #7E4A23",
"< c #803E18",
"1 c #813F19",
"2 c #80401B",
"3 c #8A451F",
"4 c #804922",
"5 c #814A24",
"6 c #814C26",
"7 c #844D28",
"8 c #844F28",
"9 c #8B4E29",
"0 c #87512B",
"q c #87522C",
"w c #88522B",
"e c #89522C",
"r c #8B542E",
"t c #8A542F",
"y c #92542F",
"u c #9A532D",
"i c #8A5630",
"p c #8C5530",
"a c #8F5832",
"s c #8F5833",
"d c #8F5934",
"f c #915731",
"g c #935630",
"h c #905833",
"j c #925934",
"k c #925A35",
"l c #9D5B37",
"z c #975C38",
"x c #9A5E3A",
"c c #A95D37",
"v c #9D613D",
"b c #A1633E",
"n c #BB643F",
"m c #A36642",
"M c #A56944",
"N c #AC6B46",
"B c #AC6C48",
"V c #B66742",
"C c #B06B46",
"Z c #B86842",
"A c #B06E4A",
/* pixels */
"$$$$$$$$$$$$$$$$$$$$$$$$$$$$$$$$$$$$$$$$$$$$$$$$$$--$$#ooo#-&--+",
"$:::::::::::::::::::::::::::::::::::::::::::::---;-:$#XXXXX*;:-$",
"$;;;;;;;;;;;;;;;;;;;;;;;;;;;;;;;;;;;;;;;;;;--;&&;&;-$oXXXXXX$:;1",
"$---------------------------------------------$$--->#XXXXXXX#:-$",
"$---------------------------------------------;;--->#XXXXXX #--$",
"$---------------------------------------------;;---&-XXXXXXX$:-$",
"$-------------------------------------------------$-&#XXXXX#>:-$",
"$--------------------->-->--;;------------------------#oXo#-;-;1",
"$------------------------#oo#-;-----------------------:---:-&-;1",
"$-----------------------#X.XX@-------------------------$:;--&--+",
"$--------------------->#XXXXXX#;-----------------------::---;-:$",
"$--$---&>>>&$--------->#XXXXXX#:$------------------------;--&--$",
"$--$----*##:---------->#XXXXXX#>------------------------:;--;--$",
"$-----#oXXXo->-:------>-oXXXXo-;-------------------------;--;--$",
"$---;$oXXXXXo&;---------#ooXo$;;----------------------;&-$$:&::$",
"$--$&#XXXXXXX-&-----------##->;;------------------------;4>-&:-$",
"$--:>#XXXXXXX->----$------;;--------------------------->qha8&-;2",
"$--:;#XXXXXXX$;----$----------------------------------$6ajja4$&+",
"$---&-oX XXX#;------------------------------;---------$8hjha5--2",
"$---&>-#XXo*:;------------------------------;---------$>ijhe&--1",
"$--:-&&;--->>---------------------------$--------------:>88:&:-O",
"$&&----->>>--------------------------------------------$$&$&&:-1",
"$-----$---:------------------------------->---------------$:&--$",
"$--------$$-&;------------------------$60-----$$$----$$$---:&-:$",
"$--------$$-&&------------------------$60----->60wee085>:;$$;:-$",
"$--------------------------------------------6phhjjjjhhfee86>--+",
"$-------------------------------------------8ajhjhhhhhhhjjjppte9",
"$------------------------------------------6pjjaeephhhhhhhhjjjjf",
"$---;---------->-------------------------->ejhjp>;phhhhhhhjjhhhf",
"$--------->-----------------------$-->-$--4fjjhhe0pjhjhhdhtephhf",
"$----------$-;#Xo----------------------$--8jjjhhjjhhjhhha8;-6phf",
"$----------&;;#Xo--------------------;---$8hhhhhhhhhhhhjt>$%$whf",
"$---------------$$--->------------$>ee>---6ajhhhhhhhhhhhi>$$&whf",
"$---------------------------------$0jje--->pjhhhhhhhhhhha8>-5phf",
"$----------&----&&----------------$8jj0--$;ejhhhhjjjhhhpafeepjhf",
"$----------&----&&--$-------------->88>----8ahhhfw8ijhpjvvzhhhhy",
"$--------------------------------->>------->phhhw$$>fhjMBBMjfhjl",
"$------------------:------------------:;;---ehhj8$$>paxBBBBxppvM",
"$------------------:------------$#$-----;---0hhhp5>0hpzMBBBxphjl",
"$-------------$$----------------$#$------$$$8hhajppfhphvMMvhhjhf",
"$----------;;>----:--------------------$>6>$6hhhjjhhhhdajjfahjdf",
"$-------;-*oo#&>----------------------:$8hi>8hhhhhhhhhpjxmmmmmbb",
"$-------;#X..X#>----------------------:$8ht>ehhjhhhhhfvMBMMBBBBC",
"$--$-&&-;@XXXX#>;----------------------$-550ahhjhhhhpvBBMxjvBBNC",
"$----;;--#XXXX#>-----------------------$->ejjfjhhhhpxBBBMjpjMBBC",
"$-------&-oXXo-;-------------------;--$;8phhxxhaffhtbABBMvjmBBBN",
"$------:&&----&------------->------;;$>ehjjfzzhahhhpvBBBBBMBBBBN",
"$--------&&&&&-------------$-$---$--$>ijjhhhpfhhhahahMBBBBBBBBNN",
"$---$----:>------------------$------>tjhpfhhhahhhhhhpxBBBBBBBBBN",
"$---$--------------------------->;-:0jhe66tjhhafhaahajMBBBBNNBBC",
"$----------$$-----------------$>t8$>pjp>$$5pjhhhhjjhahbBBBBBBNBC",
"$-----------------------------$>t6$6hjt;$$>pjhhaxMmjhfvBBBBBBBNN",
"$------------------------------->;->pjp6-;8hhhhaxBMjahmBmxmBBBBN",
"$---------------------------------$-8hjpethjhhhhjvxpfvBMztxBBBBN",
"$-----------------------------------$0hjjjhhhjhhapxmMBBBbjmBBBBN",
"$-------------------------->--$----$$>tjhhhhhphhjmBBBBBBBMBBBBBN",
"$------------------------------------$6ajhhhhhhpvBBBBBBBBBBBBBNN",
"$---------------------------------$$$--ehhhhhhhpvBBBBBBBBBBBBBNN",
"$--------------------------------$>6>:$8hhhhhappjMBBBMBBBBBBBBNN",
"$-------------------------------$-ehe:$6ahhhhajjfjMBMxmBBBBBBBNN",
"$-------------------------------$>pjp>$0hjwejhmMjpvBMxmBBBBBBBNN",
"$---------------------------------8e6-;ejhtpadvmjajMBBBBBBBBBBBN",
"$----------------------------------::$>phhjhaaaaaaaMBBBBBBBBBBBN",
"O111111111111111111111111111111111++OO3uuuuuuuuuuuucZVVVVVVVVVVn"
};
