/* XPM */
static char *cae9b5a2bef6412496809a8d498c97c4[] = {
/* columns rows colors chars-per-pixel */
"64 64 62 1 ",
"  c #5F3A1D",
". c #62371C",
"X c #63391B",
"o c #6B3D1C",
"O c #7F3E16",
"+ c #7F3F19",
"@ c #6F401D",
"# c #74431E",
"$ c #7A461E",
"% c #77481F",
"& c #7A481F",
"* c #754521",
"= c #7B4720",
"- c #7B4821",
"; c #803E18",
": c #804019",
"> c #8A451F",
", c #814C26",
"< c #844E29",
"1 c #8B4E29",
"2 c #86512B",
"3 c #8A532D",
"4 c #92542F",
"5 c #9A532D",
"6 c #8E5631",
"7 c #8F5833",
"8 c #915731",
"9 c #915833",
"0 c #955B36",
"q c #975C37",
"w c #9D5B37",
"e c #975C38",
"r c #9B5F3B",
"t c #9B5F3C",
"y c #A95D37",
"u c #9C603B",
"i c #9D623E",
"p c #9E643F",
"a c #A0633D",
"s c #A0633E",
"d c #A3643F",
"f c #BB643F",
"g c #A16340",
"h c #A26541",
"j c #A56642",
"k c #A76744",
"l c #A36843",
"z c #A66843",
"x c #A66A45",
"c c #A86945",
"v c #AF6A45",
"b c #AB6C47",
"n c #AC6C47",
"m c #AC6B48",
"M c #AD6B48",
"N c #AB6C49",
"B c #AF6E4A",
"V c #B66742",
"C c #B06B46",
"Z c #B16C46",
"A c #B86842",
"S c #B06E4A",
/* pixels */
"O;;;;;;;;;;;;;;;;;;;;;;;;;;;;;;;;;++OO>555555555555yAVVVVVVVVVVf",
"$----------------------------------==$-699997777777lBNNNNNNNNNNv",
"$---------------------------------<3,-=3993677ph979cBNNNNNcbBNNv",
"$-------------------------------$-696-$2992399hx96iBcrhBcvvbMNbv",
"$-------------------------------$-393=$,7999970060xBcrhBBMMbMNbv",
"$--------------$-----------------$-,-=$<999997669jBcBcBBBBNbMNbv",
"$---------------------------------$$$--399999996iBNcBBBBBBBNMNbv",
"$-------$----------------------------$,799999996iBBBMBBBBBBBMNbv",
"$--$--------------$----$---=--$----$$-39999996979jBBBBBBBcBBMNnv",
"$-$--------$------------------------$2999999999976rhzBBNs0hBBNnv",
"$---------------------------------$-<996339999999ur68iBcq3rBMBnv",
"$--------------------------$-----=--696,-=<99997rBc979jBhrhBMNnv",
"$-----------------------------$-3,$,993=$$-69997rch998iBBBNbvcbv",
"$----------$$-----$-----------$-3<$-696-$$,69999909979sBBBBNncnC",
"$-$-$----------------------------=-=2993,,399978977979cBNBBvvNNC",
"$-$-$-----=------------------$-------3996899979999996tBMBBBBvNMv",
"$--------$$$$$-------------$-$---$--$-699999689997979xBBBBBBBNbv",
"$------=$&-**-$-------------=------==$-39998ee979996iBBBBbcNMNnv",
"$-------&-oXXo-=-------------------=--$=<699rr978873sSMBci0gMBnv",
"$----==--#XXXX#------$--$--------------$--3998999976rBBBz960cBnv",
"$--$-$$-=@XXXX#-=----------------------$-,,2799999996iBBcr9iMNbC",
"$-------=#X..X%------------$-----------$<93-3999999998ixNccBBNNZ",
"$--$----=-*oo#$=-----------------------$<96-<99999999969rhjjjhsd",
"$--$-------===-------------------------$-,-$,9999999997799879978",
"$-------------$$$---------------$%$------$$$<9979668969icci99998",
"$--$---------------------------$$%$-----=---29996,-296qcBBBr670w",
"$--$-----------------------------------==---3999<$$-67rNBMBr66uc",
"$-----------------------$-------------------69992$$-899kBBx9870w",
"$----------$----$$--$---------------<<-----<799982<69960iiq99994",
"$----------$----$$-------$----$---$<992--$=399999999999678336998",
"$----$----------------------------$2003----69999999999997<--,698",
"$$-------------*$$---=------------$-33----,79999999999996-$$$298",
"$----------$-=#Xo------------$-------=---$<99999999999993-$%$298",
"$----------$-=#Xo----------------------$--<99999999999997<=-,698",
"$--------$=-----------------------$----$--,899993269999979336798",
"$---=----$--------------------------------=39996-=69999999999798",
"$------------==----------------------------,69973369999899999998",
"$------------=---------------------$--------<7999999999899966331",
"$----------------------$---------------------,699999998833<,---+",
"$--------$$-$$---$--------$----$------$,2------,22332<,-==$$==-$",
"$--------$$-$=------------------------$,2-----$$$----$$$----$--$",
"$-----$---=----------$------------------------------------$=$--+",
"$$$-----==--------------$-------------$----------------$$$$&$=-:",
"$--=-$$=-**-----------------------------$----------------<<$$=-$",
"$---$--#XXo*==------------------------------=---------$-6993$$-+",
"$---$-oXXXXX#=--------------------$---------=---------$<9997,%-;",
"$--==%XXXXXXX$=----$-$-----------------$--------------$,7997,$$+",
"$--=-#XXXXXXX*-----$------==----------------------------297<$-=:",
"$-$$$#XXXXXXX*$-----------%%--==-------------$-------$--=,--$--$",
"$---=$oXXXXXo$=---------%ooXo$==-----------------$----=$-$$-$-=$",
"$-----%oXXXo---=------=-oXXXXo-=--$----$-----------------=--=--$",
"$--$----*#%-----------=#XXXXXX#=-----------$------------==--=--$",
"$--$---$-==$$---------=#XXXXXX#=$------------------------=--$--$",
"$----------------------%XXXXXX%=-----------------------==---=-=$",
"$-----------------------#X.XXo-------------------------$==$-=--$",
"$------------------------#oo#-=--------$----------------*---$-=;",
"$---------------------=-----==------------------------#oXo#==-=;",
"$-$$----------------------------------------------$-$#XXXXX#=--$",
"$-$-------------------------------------------==---$-XXXXXXX$=-$",
"$---------------$-----------------$-----------==---=#XXXXXX #--$",
"$---------------------------------------------$$----%XXXXXXX#=-$",
"$==========================================--=$$=$=-$oXXXXXo$==;",
"$=======----====----====----====---=====----==---=--$#XXXXX*==-$",
"$$$$$$$$$$$$$$$$$$$$$$$$$$$$$$$$$$$$$$$$$$$$$$$$$$--$$#ooo%-$--+"
};
