/* XPM */
static char *a40bc270c25246798dd4bfc200bb4016[] = {
/* columns rows colors chars-per-pixel */
"64 64 61 1 ",
"  c #5F3A1D",
". c #62371C",
"X c #63391B",
"o c #6B3D1C",
"O c #7F3E16",
"+ c #7F3F19",
"@ c #6F401D",
"# c #74431E",
"$ c #7A461E",
"% c #77481F",
"& c #7A481F",
"* c #754521",
"= c #794620",
"- c #784621",
"; c #7C4721",
": c #7A4822",
"> c #7D4820",
", c #7E4A23",
"< c #813F19",
"1 c #804018",
"2 c #8A451F",
"3 c #804922",
"4 c #804A22",
"5 c #814B25",
"6 c #824E27",
"7 c #844D28",
"8 c #844F28",
"9 c #8B4E29",
"0 c #85512A",
"q c #87522C",
"w c #88522B",
"e c #89532D",
"r c #8B542E",
"t c #8A542F",
"y c #92542F",
"u c #9A532D",
"i c #8A5630",
"p c #8E5731",
"a c #8F5832",
"s c #8F5833",
"d c #8F5934",
"f c #915631",
"g c #935732",
"h c #905933",
"j c #915934",
"k c #935934",
"l c #9D5B37",
"z c #975C38",
"x c #9A5E3A",
"c c #A95D37",
"v c #9D613D",
"b c #A1633E",
"n c #BB643F",
"m c #A36642",
"M c #A56944",
"N c #AC6B46",
"B c #AC6C48",
"V c #B66742",
"C c #B06B46",
"Z c #B86842",
"A c #B06E4A",
/* pixels */
"+==$=#oo@#$$==$$$$$$$$$$$$$$$$$$$$$$$$$$$$$$$$$$$$$$$$$$$$$$$$$$",
"$=:;*X...o#$:=;===:::::::::::::::::::::::::::::::::::::::::::::$",
"<;:$o.XXXXo$=;$;$$;==;;;;;;;;;;;;;;;;;;;;;;;;;;;;;;;;;;;;;;;;;;$",
"$=:#X.X....#>===$$=====;====================;;;=========;;;;===$",
"$=:# .X....#>;;=;;====;;===;====;;========;;;;=====;====;;;;;;;$",
"$=:$......X=$;;=;;==;=;;===;====;;=====:===;;;=====;====;=;;=;;$",
"$=:>#X....#$;$===;;=;==;==;;;==;;;;;===:===;======;;;==;=======$",
"1;:;:#ooo#=;;;====;;;=;;==;;;;;;;;;;;=>==>;;======;;;;;;=======$",
"1;=$=:===:;=========;;;;==;;=====;=#oo#=====;;;;==;;======;;===$",
"$=:;==;:$;;=====;===;;;;==;;======@...X#====;;;;===;====;=;;===$",
"$:=$===::===;;;;;;==;=;;;;;;;===;#oX..X.#>==;;==;;;;:====;;;==;$",
"$==$==;=====;;;;;;====;=;;;;;==$:#....X.#>==;;==;;;$$>>>$;;;$=;$",
"$;=$=;;:===;;=;;;;;;====;;==;;;;>#X.X.X.#>;;========:##*====$=;$",
"$==$=;;=;==;==;;;;=;====;;;=;;;;;=o.X.Xo=>;;====:=>=oX.Xo#====;$",
"$::$:$$;$;;;==========;;;;====;=;;$oooo#======;;=;$oX....o$;==;$",
"1=:$=>4;;;;;===========;;;======;;>=#$======;;;;=$=XX..XXX#$$=;$",
"1;=$8ahq>;===;;;===;===;;;=======;;;;;====;;$;;;=>=o....XX#>:=;$",
"+$$4ajja6$===;;;==;;==;;;;====;=;=;;;;====;;$=;;=;$o....XX#;:=;$",
"1==5ahjh8$====;;;;;;====;;;=;;;;====;===;;;;======;#..XX.o=$==;$",
"$==$ehji>$====;;;;;;====;;==;;;;====;===;;;;======;:*oXX#=>$==;$",
"$=:$>88>:=;====;;;===;=$;;;;;===;=======;==;;;=====:>===;$$=:==$",
"1=:$%$$$$;=====;====;;;;;;;;;;==;;==========;;======;>>>==;==$$$",
"$==$:$;=============;>;;;=;;====;;;;========;;;=;;===>;;=$=====$",
"$>=$:;;=$$$====$$$===;;06$;=====;;;;;==;====;;;;;=;$=$$;=======$",
"$=>$$$;:>580eew06>;;===06$==;;;;======;;;;====;;;;$$=$$;=====;=$",
"+==468eefhhjjjjhhp6;========;;;;======;;;;;==;;;;;====;;====;;=$",
"9etppjjjhhhhhhhjhjh8==========;;;=;;=;;;;;====;;;====;;;===;;;;$",
"fjjjjhhhhhhhhpeeajjp6;=======;;;;;;;;;;;;;====;;;;===;;;;==;;;;$",
"fhahjjhhhhhhhp;>pjhje>;;==;;=====;;;;;;;;====;==>=;;====;;;;;;;$",
"fhapethdhhjhjp0ehhjjf4;;$=>;=$====;;;;;;;;=======;;;=>==;=;;=;;$",
"fhp6=;8ahhhjhhjjhhjjj8==$=;;;;======;=;;=======oX#;;$;=========$",
"fh0$%$>tjhhhhhhhhhhhh8$===;;;;;=======;========oo#;;$;=========$",
"fh0$$$>ihhhhhhhhhhhja6===>ee>$;;;=========>;;=$$=;;===;;;;;;===$",
"fhp5=>8ahhhjhhhhhhhjp>===ejj0$;;;=========;;====;;;===;;;;;;===$",
"fhjfeefaphhhjhjhhhhje;$=;0jj8$========;;;;;;==$$;;;=$=======;=;$",
"yhhfhzvvjphji8wfhhha8===;>88>=======;;;;;;;$==$$;;;=$=======;;;$",
"ljafjMBBMjhf>$$whhhp>=======>>==;;====;;====;;========;;==;;;;=$",
"NvppxBBBBxap>$$8jhhe===;;:;=;;==;;====;;====:;;;====;=;===;;===$",
"ljapxBBBNzph0>5phhh0===;====;$#$;;;;===;;;==:=;;==;;;;===;;;===$",
"fhjhhvNNvhphfppjhhh8$$$=====;$#$;;;;===;;;===;;;$$=;;;===;;;===$",
"fdjhafjjadhhhhjjhhh6$>6>$=;;====;;;;====;;===:====>;;===;;===;;$",
"bbmMMMmxjphhhhhhhhh8>ih8$:;;===;;;;;====;;====;;>$#oo*=;;;===;;$",
"CBBBBNNBMvfhhhhhjhhe>th8$:;;====;;;;==;;;;==;;;;>#X..X#;;;====;$",
"CNBBvjxNBBvphhhhjhha055=$=;;==;;======;;;;==;;;;>#.X..@;;$$=$=;$",
"NNBNjpjMBBBxphhhhjfjje>=$====;;;====;;;;;;;;;===>#.X.X#;;;;====$",
"NNBBmjvNBBAbthffahxxhhp8;$==;=;;====;=;;=;;;====;=ooXo=&;;====;$",
"NNBBBNNBBBBvphhhahzzfjjhe>$;;===;;=>======;;=====$====&$:======$",
"NNBBBBBBBBMhahahhhfphhhjji>$==$=;;$=$=====;;;=====$$$$$========$",
"NBBBBBBBBBxphhhhhhahhhfphjt>====;;$===;;===;;;====;;;>>====$===$",
"CBBNNBBBBNjahaahfahhjt66ehj0:=;>;;====;;====;;====;;;;=====$;;=$",
"CNNNBBBBBbhahjjhhhhjp5$$>pjp>$8t>$===;;;====;;;====$$=====;;;;;$",
"NNBBBBBBBvfhjmNxahhjp>$$;tjh6$6t>$==;;;;===;;;;;==;;======;;;;;$",
"NNBBBMxmBMhajNBxahhhh8;=6pjp>;;>==;;====;;;;==;;=======;;;;;==;$",
"NNBBBxtzNBvfpxvjhhhhjhtepjh8;$===;;;====;;;;===;======;;;;;;=;;$",
"NNBBBmjbBBBMmxpahhjhhhjjjhw$;;====;;;;==;;====;;====;;;;=;====;$",
"NNBBBBNBBBBBBBMjahphhhhhjt>$$;===$;;>===;=====;;;==;;;;;======;$",
"NNBBBBBBBBBBBBBvphhhhhhja6$==========;;;;;;;;;;;;;;;;;;;;;;;===$",
"NNBBBBBBBBBBBBBvphhhhhhhe==$$$====;=====;;;;==;;;;;;==;;;;=;==;$",
"NNBBBBBBBBNBBBMjppahhhhh8$:>6>$=;;;;======;====;==;;===========$",
"NNBBBBBBBmxNBNjpjjahhhha6$:ehe=$;;;;===;===========;===;=======$",
"NNBBBBBBBmxNBvpjMmhjewjh0$>pjp>$;;====;;==;;;=====;;======;;;;=$",
"NBBBBBBBBBBBNjajmvdapthje;=6e8=================================$",
"NBBBBBBBBBBBmaaaaaaahjhhp>$::==================================$",
"nVVVVVVVVVVZcuuuuuuuuuuuu2OO++<<<<<<<<<<<<<<<<<<<<<<<<<<<<<<<<<O"
};
