/* XPM */
static char *f4b4a23a37054b25af802a199d25a722[] = {
/* columns rows colors chars-per-pixel */
"64 64 70 1 ",
"  c #4D4E4F",
". c #4E4F51",
"X c #4F5052",
"o c #535456",
"O c #565659",
"+ c #58575C",
"@ c #57585A",
"# c #5A5B5D",
"$ c #5D5E61",
"% c #605F64",
"& c #5F6062",
"* c #626264",
"= c #656669",
"- c #67686A",
"; c #6A6B6D",
": c #6E6E71",
"> c #706F73",
", c #6F7072",
"< c #727375",
"1 c #767679",
"2 c #77787A",
"3 c #7A7B7D",
"4 c #7D7E81",
"5 c #807F84",
"6 c #7F8082",
"7 c #828385",
"8 c #858689",
"9 c #88878C",
"0 c #87888A",
"q c #8A8A8C",
"w c #8E8E91",
"e c #8F9092",
"r c #909193",
"t c #939297",
"y c #939494",
"u c #949597",
"i c #959698",
"p c #98979C",
"a c #97989A",
"s c #98999B",
"d c #999A9C",
"f c #9B9C9E",
"g c #9D9EA0",
"h c #A09FA4",
"j c #9FA0A2",
"k c #A0A1A3",
"l c #A1A2A4",
"z c #A3A4A6",
"x c #A3A4A7",
"c c #A4A5A7",
"v c #A5A6A8",
"b c #A8A7AC",
"n c #A7A8AA",
"m c #A8A9AB",
"M c #AAABAD",
"N c #ABACAE",
"B c #ACADAF",
"V c #ACABB0",
"C c #AEAFB1",
"Z c #AFAEB3",
"A c #B0AFB4",
"S c #AFB0B2",
"D c #AFB0B3",
"F c #B0B1B3",
"G c #B1B2B4",
"H c #B3B4B6",
"J c #B4B5B7",
"K c #B5B6B8",
"L c #B7B8BA",
"P c #BABBBF",
/* pixels */
"o##o#o#BBC444o#$####o#oO477OO$##@O#tKF<@O#o*777771O####@#=vCC457",
"#*##&OOvnS344o##OO##o###760###OOOOoqCG;o##@#77877<OO#Oo#O$vNM788",
"o<87*##dsu777o##O#,63*oo2<3oo*3<23<wgg;O####84731,O#-<,$@#tgt774",
"oyCK:@o733777oO&OoqGK:O#ooo#O,KGCBSi37*@O$@#782oo#O#qKB:@O@o$774",
"oqCS;oO077774###oOrCN;X@#$##o;CCMBNi67*##$#$7q3o##oowFC;###O*893",
"o7ye*##777;-;Oo<w0wes3<<####@*848uuq68*#@@O#;:;#o;07ryi;#O#o#<<;",
"o<77=@@776@o##O6HCi37470*#O##@Oo=76778*#@##O#oO#@7GNa64*OO####+#",
"#<86*o@777####O4SMi77880$##@O#$#;07844=#o#X#o##Oo7JHd77*####OoO$",
"#***$#o*&=o#$#O*,;377;$-###$#$O##-*487-o#wsr##&#$-2<,-;$##$#=tw9",
"##OO#####O@#$oO$oo<80&O#@O##o$O#o#O<77*O#MmMOO##o#oOOO@@@##O;ACh",
"o&##*#*ooo*###O*#@<78*O#$####$o####<80;o#vCnO#O&#OooOOO#@##O=VGp",
"#*@odMM*##Mnf@#####@$##@#O&vllzl8#o$*####88qo$;gdvgkr36*###@*wtq",
"#O@ognC*OoKcm.@#oO###O@o##@GvCmBeo#*O##o#364@#;GMBvFa38*@##@$777",
"#;;;rCB#@#NMs##*$&$Oo#$O-#-vMMCMyoO#@o*#*174##:SnSMNi68*o@#O$788",
"oqSBe38###44887777:###o#cCm774643o####iNmw68O##07677776*o######$",
"owNne30#o$08768878<oO##ocBv747462O#$oXdMn887o#*q8876788*o&O###O#",
"1qlkw78$#$12386877,O#=;-gMc87037<Oo*;-yBmq37oO*71707834-@X=$####",
"Ci37688##OoO*77777<OOiGS037473ooOO#wFCr23877##O#O-73,o@O#*MCC#*#",
"Bk68674#O#oO*77887:OXgNJ647887oo#@oqFBt77888OO#o@;08:o#oO@gBNoo#",
"q378<<1=#$##*<<21<;#oedd777777O$$##3arq7811<#O*##-34:#O:<1dgd<>1",
"o<78*Oo#O#O##OO#oO##o174777847O##O@#Xo177#OO######ooO##iGB830CAv",
"#:70*@O$##o@O#O$oO$@o177647088oO$OO#@o368#O@####O####o@iNS877CVl",
"#*=;#O*#####*rw7@#2qw777878;;:#O###$##38q*###@#&@######0dd878dit",
"o#OO###o#O#O;LBaooqFGq76878OO###OO####277#O#@#@##$o###O176740775",
"###@$#o*##Oo-cNioowBmw88747#####O#$#O#187*#OO#O##&O#O@#247048784",
"##@###osfd333<;:Oo=;<376=*;@@#O#;uy1oO*=-@OO##*tw6o#1qq777777;;;",
"####&#onMM674 o#O#$#o270$o@##*o#1GF8O#&oo####@;LFi.OqKFw76748+##",
"o****$*zMn877##$O#$@o380##$###Oo<CN8oo*###Oooo;CMdo#0SMe77q87+#O",
"o7mvMMj07037834876:@@##*#$onglo#;qq833743*#*vca0q3O@&;-287*#*$$$",
"o0CnzvC06837747867<@#ooO###CCvOO=74877777$o@MNB463oo##O<77*#O+#$",
"#3nkzBn44736787q44,O$&*o**;MnS.O=87q47778*#*MCk672##*O#1q8$O$OOo",
"##o@@oO#Oo##*871oO$O#oo#vMC667o###o<87778$Oo#o*07878<o####&#+%*<",
"+#@o##O#O#o##872oO$O+$O@lSC770.@##o<87777*##O##84787<o#@#o#o#+o:",
"+:33=####$O#*441$#*$$$OOdzz877$*$##<43764*O###&q7033<###-*=*==%<",
"owKH<o#OoO#@#oO$##$+O+$X447787881###oo@oO##O#O#q73o@#OosCFCSFAKv",
"o4nS<o@#$##o##$+Oo++Oo+O8q7q8407<o$$#$##O#oO###084o###@aCFMBmVbv",
"8tdg,OO777##$#o-97747=$#:<,76622;###@#@Oo<22o##<2:O##OO8yilckgll",
"Ci47-OoMSJO###O3CCGCJ1o##O@877.Oo####O*@@zFC##O#O##O$##ooo344734",
"Gi78;ooMmGO###O3CCMvG-++#O#877O@$#O#oO$OolNG@o$$O$#@#oO@#O788878",
"t3*=*#oqtto@##+=429uiwwe$#O,-;Oo#oO<q8808iuu###@@#@O<88*#o<::858",
"7:o@#Oo764###OO##o:84gMP*#O#o##@$oO7HSGFG847@O###$#o0GC1@o#@o758",
"8<@#*#@487#O#$#$o+:63gSC=O$O#*#o#@O6NcMcB887$O$#O#Oo8BC<o#O##987",
"8<@o<43878o@-ddq##===4wqdds#O###:saiwwttt77622<##*##3ry4<<$##;;:",
"7<@O386868##$JCdoO*+o<84bMF#O#OO<GMa30374877787O@##o:74787*O#+O%",
"7<O#166777#o*Cvio@##O177zCM####o2Hmf47777878476#O$#o<88706*o#+$%",
"###O*$#$#$O#$q07o#$#O27687qknjOO#=*268777777=&=@####$*$$$*$@#$#$",
"###O#O#&##$O$647#O#@o278877GnB.#O#O;07777767#o###*o####o#O#O$$##",
"o###$OO##X<;<783-;*#o133766ccno###O-87774077###@o#$*#oO##.*@###%",
"##O##O####MBv74tMG8o@#OO777767X#o##*#o$OO378O#O#@1mM0@##O#jmvMvv",
"o##O#@###oNNn44yNB8O#O#O867878o#o$O*OO*@o778o#O#o<JmqoO#OOlNBCMv",
"#;47=@O331gld770fg3#O$O#144331$O$<,-**#@#166#o#;=3MN7###O#sMmbvl",
"#7SG3oOkCC734772oo&#@#O##oOoo#@@<SFg77:#o#OO##*JCl44877=#o476748",
" qBS1#OlNB488783oO$o##@O#O$####O:HMd38=O#$#@OO*HNv3q87q=oo337877",
"q0ug,#oust877782##:80-##$####$O#;cfi40;#####133dlg38323-##770333",
"Ff38;oo744738073oo7JK1O#$@##@##O$77777-#O###NGn73768;oo#OO378#o#",
"mu77,##377778384o@7CC2#O#O######=78777;OO$@#MMG38888<o#o#O377###",
"u7=*=O#--;878874o#2iu6<<qwy##*o#$:;387;#####070;<108<##-<:770###",
"7;oo####oo877873Oo:77878cCS####@o#o;88;oO#O##O#Oo*78<oO207878##@",
"7<######*O777771OO<76847kCM$######O:87;##$##oO##o-78<oO<78870##o",
"7333-###o#777***#O$$#277qqqsdaoO##@*=**#O###tirO#$==*O#*=--=-#o*",
"8880;#####777oo##O&#o177877CMmX#$Oo#####O$##MMMO#$#O#O##O#####o-",
"7427-#####474O@#$O**$277764MMv##&O#$O#$#o*##vBMoO##O$###o###O#o-",
"02######o##$##O#OO3zzq47076q80lgiX##@###oilk800OO############fsk",
"7:o+##########o$oo8JCt4377463qCHjoO$O#*#.gCB848+##O#####O####MBM"
};
