/* XPM */
static char * ground_xpm[] = {
"64 64 208 2",
"  	c #764923",
". 	c #7C4620",
"+ 	c #7B4720",
"@ 	c #794820",
"# 	c #7C4720",
"$ 	c #7B4820",
"% 	c #7B4620",
"& 	c #764922",
"* 	c #7B471F",
"= 	c #73421E",
"- 	c #6B3B1C",
"; 	c #6F3F1B",
"> 	c #623618",
", 	c #764520",
"' 	c #6F401D",
") 	c #7B4821",
"! 	c #7C4821",
"~ 	c #7D4720",
"{ 	c #7C471F",
"] 	c #7A4820",
"^ 	c #7A4720",
"/ 	c #74441F",
"( 	c #6D401F",
"_ 	c #75431E",
": 	c #7B481F",
"< 	c #7A4721",
"[ 	c #6F411E",
"} 	c #633B1B",
"| 	c #61381A",
"1 	c #623819",
"2 	c #653A19",
"3 	c #72411D",
"4 	c #7C4820",
"5 	c #76441F",
"6 	c #653A1B",
"7 	c #60381B",
"8 	c #61391C",
"9 	c #61391B",
"0 	c #60381A",
"a 	c #673A1A",
"b 	c #774420",
"c 	c #63391A",
"d 	c #62391B",
"e 	c #62381B",
"f 	c #63381A",
"g 	c #724220",
"h 	c #7D4821",
"i 	c #7B4721",
"j 	c #75431C",
"k 	c #61381B",
"l 	c #633A1B",
"m 	c #7D4820",
"n 	c #794520",
"o 	c #6A3D1B",
"p 	c #60391C",
"q 	c #61391A",
"r 	c #6B3E1B",
"s 	c #784721",
"t 	c #6A3D1C",
"u 	c #653B1D",
"v 	c #653C1D",
"w 	c #6B3E1D",
"x 	c #764620",
"y 	c #7A461F",
"z 	c #794720",
"A 	c #794621",
"B 	c #764420",
"C 	c #774520",
"D 	c #7A4620",
"E 	c #7B4722",
"F 	c #7A4722",
"G 	c #7A4822",
"H 	c #794822",
"I 	c #7C4721",
"J 	c #784520",
"K 	c #71401E",
"L 	c #6C3E1D",
"M 	c #6B3E1C",
"N 	c #72411E",
"O 	c #7B4621",
"P 	c #693D1C",
"Q 	c #64381B",
"R 	c #6E3F1D",
"S 	c #6E3F1C",
"T 	c #63391C",
"U 	c #623919",
"V 	c #72431E",
"W 	c #7C461F",
"X 	c #683C1B",
"Y 	c #5F381A",
"Z 	c #62391A",
"` 	c #6C401D",
" .	c #683C1E",
"..	c #5F371C",
"+.	c #623A1B",
"@.	c #643819",
"#.	c #62371A",
"$.	c #6E401C",
"%.	c #7C481F",
"&.	c #7B4822",
"*.	c #6E3E1F",
"=.	c #63391B",
"-.	c #74421E",
";.	c #7E4821",
">.	c #7C4722",
",.	c #774421",
"'.	c #693C1A",
").	c #63381B",
"!.	c #6E3F1E",
"~.	c #7A4621",
"{.	c #78451F",
"].	c #6E401D",
"^.	c #6B3D1D",
"/.	c #6B3E1E",
"(.	c #72421E",
"_.	c #7B461F",
":.	c #794721",
"<.	c #794722",
"[.	c #7A4520",
"}.	c #77461D",
"|.	c #6D401C",
"1.	c #73411E",
"2.	c #77451F",
"3.	c #683C1A",
"4.	c #643818",
"5.	c #71421D",
"6.	c #73411D",
"7.	c #61371B",
"8.	c #60391D",
"9.	c #613A1E",
"0.	c #693C1B",
"a.	c #7A471F",
"b.	c #63371A",
"c.	c #62381A",
"d.	c #613719",
"e.	c #6A3D1A",
"f.	c #784723",
"g.	c #794620",
"h.	c #6B3D1C",
"i.	c #5F371A",
"j.	c #74431E",
"k.	c #774621",
"l.	c #71421F",
"m.	c #74431F",
"n.	c #7D4620",
"o.	c #754923",
"p.	c #744420",
"q.	c #70401E",
"r.	c #784621",
"s.	c #744924",
"t.	c #79461F",
"u.	c #6E3F1B",
"v.	c #64391A",
"w.	c #613819",
"x.	c #633819",
"y.	c #693A1B",
"z.	c #75421D",
"A.	c #744922",
"B.	c #613A1B",
"C.	c #603A1B",
"D.	c #643A1B",
"E.	c #75441E",
"F.	c #623A1C",
"G.	c #613A1C",
"H.	c #744923",
"I.	c #6D3E1C",
"J.	c #633A1A",
"K.	c #653A1A",
"L.	c #774521",
"M.	c #744925",
"N.	c #7C4621",
"O.	c #653919",
"P.	c #5F3A1E",
"Q.	c #633919",
"R.	c #643919",
"S.	c #673B1B",
"T.	c #784620",
"U.	c #7D471F",
"V.	c #7C4822",
"W.	c #794821",
"X.	c #7D4721",
"Y.	c #71401C",
"Z.	c #673C1C",
"`.	c #7C461E",
" +	c #683D1B",
".+	c #653B1B",
"++	c #663B1A",
"@+	c #784521",
"#+	c #75431F",
"$+	c #6A401D",
"%+	c #6B3F1C",
"&+	c #724320",
"*+	c #774620",
"=+	c #78441F",
"-+	c #683B1A",
";+	c #5E391C",
">+	c #60371A",
",+	c #754421",
"'+	c #74421F",
")+	c #5F391D",
"!+	c #7D481F",
"~+	c #784320",
"{+	c #683A1A",
"]+	c #7C4520",
"^+	c #673D1B",
"/+	c #71411E",
"(+	c #7D451E",
"_+	c #774720",
"  . + @ # + + + + + + + + + + + + + + + + + + + + + + + + + + + + + + + + + + + + + + + + + + + + + + + + + + + + + + + + $ + % ",
"& . * @ . + + + + + + + + . + + + + + + + + + + + + + + + + + + + + + + + + + + + + + + + + + + + + + + + + + + + + + + + + = - ",
"& . * @ . + + + + + + + + + + + + + + + + + + + + + + + + + + + + + + + + + + + + + + + + + + + + + + + + + + + + + + + + + ; > ",
"& . * @ . + + + + + + + + + + + + + + + + + + + + + + + + + + + + + + + + + + + + + + + + + + + + + + + + + + + + + + + + + , ' ",
"& . * @ . + + + + + + + + ) + + ! + + + + + + + + + + + + + + + + + + + + + + + + + + + + + + + + + + + + + + + + + + + + + + ~ ",
"& . * @ . + + + + + + + # { { + ! + + + + + + + + + + + + + + + + + + + + + + + + + + + + + + + + + + + + + + + + + + + + + + # ",
"& . * @ . + + + + + + + ! ) ) ! # ! + + + + + + + + + + + + + + + + + + + + + + + + + + + + + + + + + + + + + + + + + + + + + # ",
"& . * @ . + + + @ ] + ^ / ( ( _ + + + + + + + + + + + + + + + + + + + + + + + + + + + + + + + + + + + + + + + + + + + + + + + # ",
"& . * @ . + + + : $ < [ } | 1 2 3 # + + + + + + + + + + + + + + + + + + + + + + + + + + + + + + + + + + + + + + + + + + + + + # ",
"& . * @ . + + + + 4 5 6 7 8 9 0 a b ! + < + + + + + + + + + + + + + + + + + + + + + + + + + + + + + + + + . + + + + + + + + + # ",
"& . * @ . + + + + + 3 c 9 d d e f g h ^ < * + + + + + + + + + + + + + + + + + + + + + + + + + + + + + + * . . + + + + + i i + # ",
"& . * @ . + + + + 4 j c k d d 7 l / m i i + + + + + + + + + + + + + + + + + + + + + + + + + + + + + + + + + + + + + + + i i + # ",
"& . * @ . + + + ! # n o 1 9 p q r s * + i + + + + + + + + + + + + + + + + + + + + + + + + + + + + + + + + + + + ^ + + + i i + # ",
"& . * @ . + + + + + i , t u v w x $ * + y + + + + + + + + + + + + + + + + + + + + + + + + + + + + + + + + + + + z ^ + + + + + # ",
"& . * @ . + + + y + + ) A B C D + + + + + + + + + + + + + + + + + + + + + + + + + + + + + + + + + + + + + + + E F < + { + + + # ",
"& . * @ . + + + + + + + + ) + ^ ] # + + + + + + + + + + + + + + + + + + + + + + + + + + + + + + + + + + + + + i + + + * + + + # ",
"& . * @ . + + + + + + + i i + ^ ^ + + + + + + + + + + + + + + + + + + + + + + + + + + + + + + + + + + + + + # E G H i I + + + # ",
"& . * @ . + + + + + + + i i + * * + + + + + + + + + + + + + + + + + + + + + + + + + + + + + + + + + + + + i J K L M N O # * + # ",
"& . * @ . + + + + + + + + + + + + + + + + + + + + + + + + + + + + + + + + + + + + + + + + + + + + + + + # C P 8 Q f c R # { + # ",
"& . * @ . + + + + + + + + + + + + ] + + + + + + + + + + + + + + + + + + + + + + + + + + + + + + + + . . ~ S 0 9 T d q U V ! + # ",
"& . * @ . + + + + + + + + + + + + ] + + + + + + + + + + + + + + + + + + + + + + + + + + + + + + + + . I W X Y Z d d d 0 ` ! + # ",
"& . * @ . + + + + + + + + + + + + + + + + + + + + + + + + + + + + + + + + + + + + + + + + + + + + + y $ z  ...d +.c @.#.$.%.# # ",
"& . * @ . + + + + + + + + + + + + + + + + + + + + + + + + + + + + + + + + + + + + + + + + + + + + + + $ &.*.| 8 T =.d Q -.;.+ # ",
"& . * @ . + + + + + + + + + + + + + + + + + + + + + + . + + + + + + + + + + + + + + + + + + + + + + + + >.,.'.q ).=.=.!.~.~ + # ",
"& . * @ . + + + + + + + + + + + + ^ < % . + i + { + + + + + + + + + + + + + + + + + + + + + + + + + + + $ I {.].^./.(._.i + + # ",
"& . * @ . + + + + + + + + + + + + :.<.< + + E i + + + + + + + + + + + + + + + + + + + + + + + + + + + + + + ! + [.D i # < < + # ",
"& . * @ . + + + + + + + + + + + + ^ i + . + i i + + + + + + + + + + + + + + + + + + + + + + + + + + + + + + + # . i < + < < + # ",
"& . * @ . + + + + + + + + + + + + ! $ + I + + + + + + + + + + + + + + + + + + + + + + + + + + + + + + + + + + + + < <.+ + + + # ",
"& . * @ . + + + + + + + + + + + $ }.|.w 1._.# + @ + + + + + + + + + + + + + + + + + + + + + + + + + + + + + + + + + + + + + + # ",
"& . * @ . + + + + + + + + + + # 2.3.| | 4.5.) + ] + + + + + + + + + + + + + + + + + + + + + + + + + + + + + + + + + + + + + + # ",
"& . * @ . + + + + + + + + + + I 6.7.8.9.7 0.a.~ < + + + + + + + + + + + + + + + + + + + + + + + + + + + + + + + + + + + + + + # ",
"& . * @ . + + + + + + + + + + 4 -.b.c.d d.e.* I f.< + + + + + + + + + + + + + + + + + + + + + + + + * * + + + + + + + + + + + # ",
"& . * @ . + + + + + + + + + + + g.h.0 i.2 j.! + < + + + + + + + + + + + + + + + + + + + + + + + + + + + + + + + + + + + + + + # ",
"& . * @ . + + + + + + + + + + + + k.l.].m.+ # + + . + + + + + + + + + + + + + + + + + + + + + + + + + + + + + + + + + + + + + # ",
"& . * @ . + + + + + + + + + + + + + 4 h n.W + + + . + + + + + + + + + + + + + + + + + + + + + + + + + + + + + + + + + + + + + # ",
"& . * @ . + + + + + + + + + + + + y + + _.y + + + + + + + + + + + + + + + + + + + + + + + + + + + + + + + + + + + + + + + + + # ",
"& . * @ . + + + + + + + + + + + + + + + + + + + + + + + + + + + + + + + + + + + + + + + + + + + + + + + + + + + + + + + + + + # ",
"& . * @ . + + + + + + + + + + + + i + + + + + + + + + + + + + + + + + + + + + + + + + + + + + + + + + + + + + + + + + + + + + # ",
"& . * @ . + + + + + + + + + + + + <.< + + + + + + + + + + + + + + + + + + + + + + + + + + + + + + + + + + + + + + + + + + + + # ",
"& . * @ . + + + + + + + + + + + + < + + + + + + + + + + + + + + + + + + + + + + + + + + + + + + + + + + + + + + + + + + + + + # ",
"& . * @ . + + + + + + + + + + + + + + + + + + + + + + + + + + + + + + + + + + + + + + + + + + + + + + + + + + + + + + + + + + # ",
"& . * @ . + + + + + + + + + + + + + + + + + + + + + + + + + + + + + + + + + + + + + + + + + + + + + + + + + + + + + + + + + + # ",
"& . * @ . + + + + + + + + + + + + + + + + + + + + + + + + + + + + + + + + + + + + + + + + + # m m h m # + + + + + + + + + + + # ",
"o.. * @ . + + + + + + + + + + + + + + + + + + + + + + + + + + + + + + + + + + + + + + + + + :.p.q.' (.r.i y + ! + + + + + + + # ",
"s.. * @ . . . + + + + + + + + + + + + + + + + + + + + + + + + + + + + + + + + + + + + + 4 t.u.v.w.w.x.y.z.i + + + + + + + + + # ",
"A.. * @ . + + + + + + + + + + + + + + + + + + + + + + + + + + + + + + + + + + + + + + ~ + M q 8 d B.C.7 D.E.4 + + + + + ] @ + # ",
"A.. * @ + + + + + + + + + + + + + + + + + + + + + + + + + + + + + + + + + + + { * + + 4 j.=.c c d d F.G.| h.F # + + * + ^ ^ + # ",
"H.. % @ + + + + + + + + + + + + + + + + + + + + + + + + + + + + + + + + + + + * + < % + I.e J.J.d d d d d K.L.4 * + + + + + + # ",
"M.N.% @ + + + + + + + + + + + + + + + + + + + + + + + + + + + + + + + + + + + + < <.. D h.e B.+.d | d d 9 O., 4 * + + + + + + # ",
"M.# W + { { { + + ! + + + + + + + + + + + + + + + + + + + + + + + + + + + + + + + + + + ].P.c Q.d Z R.R.k S.T.! + + + + + + + # ",
"M.# W ^ U.{ { + + + + + + + + + + + + + + + + + + + + + + + + + + + + + + + + + + * + ! B K.=.d | Z =.l d.S V.&.+ + + + < < + # ",
"s.W * W.X.# * + + y y + + + + + + + + + + + + + + + + + + + + + + + + + + + + + + * + # i Y.=.p c.c.9 8 Z.{.! < + + + + < < + # ",
"& `.+ s + G < + * * + + + + + + + + + + + + + + + + + + + + + + + + + + + + + + + + + + ! + 3  +.+K.++I.@+) + + + + + @ ^ + + # ",
"& { #+$+%+&+<.A + * + + + + + + + + + + + + + + + + + + + + + + + + + + + + + + + + + + + # ) *+/ m., F X.i + + + + + ^ ^ + + # ",
"  =+-+;+>+a ,+< ] + # % + + + + + + + + + + + + + + + + + + + + + + + + + + + + + y + + + + + # 4 4 4 # # + + + + + + + + + + # ",
"o.'+@.)+).f l.!+@ ] + + + + + + + + + + + + + + + + + + + + + + + + + + + + + + + + + + + + + + + + + + + + + + + + + + + + + # ",
"  ~+{+;+>+v.p.# @ ] + + + + + + + + + + + + + + + + + + + + + + + + + + + + + + + + + + + + + + + + + + + + + + + + + + + + + # ",
"o.]+-.^+'./+< + ] $ { + + + + + + + + + + + + + + + + + + + + + + + + + + + + + + + + + + + + + + + + + + + + + + + + + + + + # ",
"M.(+U._+{.+ + ! + + * + + + + + + + + + + + + + + + + + + + + + + + + + + + + + + + + + + + + + + + + + + + + + + + + + + + + # ",
"M.. { ] I { { + y + y + + + + + + + + + + + + + + + + + + + + + + + + + + + + + + + + + + + + + + + + + + + + + + + + + + + + # ",
"o.. * @ + # { + + + + + + + + + + + + + + + + + + + + + + + + + + + + + + + + + + + + + + + + + + + + + + + + + + + + + + + + # ",
"& W + :.+ ^ ^ + + + + + + + + + + + + + + + + + + + + + + + + + + + + + + + + + + + + + + + + + + + + + + + + + + + + + + + + # ",
"& { O <.+ @ ] + + + + + + + + + + + + + + + + + + + + + + + + + + + + + + + + + + + + + + + + + + + + + + + + + + + + + + + + # ",
"A.. + z * + + + + + + + + + + + + + + + + + + + + + + + + + + + + + + + + + + + + + + + + + + + + + + + + + + + + + + + + + + # "};
