/* XPM */
static char *_25a048fc0a7475bb2ca4b15438cf434[] = {
/* columns rows colors chars-per-pixel */
"64 64 119 2 ",
"   c #424345",
".  c #46474B",
"X  c #47484A",
"o  c #4A4B4D",
"O  c #4D4E51",
"+  c #4E5153",
"@  c #525355",
"#  c #555659",
"$  c #56585B",
"%  c #5A5B5D",
"&  c #5D5E61",
"*  c #5E6062",
"=  c #626365",
"-  c #656669",
";  c #67696B",
":  c #6A6B6E",
">  c #6D6E71",
",  c #6E7073",
"<  c #727375",
"1  c #767877",
"2  c #757679",
"3  c #78777C",
"4  c #77797B",
"5  c #7A7B7E",
"6  c #7D7E81",
"7  c #807F84",
"8  c #7E8183",
"9  c #828385",
"0  c #848689",
"q  c #86888B",
"w  c #88898B",
"e  c #88898D",
"r  c #898A8C",
"t  c #8A8B8D",
"y  c #88898E",
"u  c #898A8E",
"i  c #8A8B8F",
"p  c #888C8D",
"a  c #8B8C8E",
"s  c #8C8D8F",
"d  c #898A8C",
"f  c #8A8B90",
"g  c #8B8C90",
"h  c #8B8C91",
"j  c #8C8D91",
"k  c #8D8E90",
"l  c #8C8D92",
"z  c #8D8E92",
"x  c #8D8E91",
"c  c #8F9092",
"v  c #8F9094",
"b  c #8E9193",
"n  c #909195",
"m  c #929395",
"M  c #919296",
"N  c #929397",
"B  c #949597",
"V  c #929395",
"C  c #939498",
"Z  c #949599",
"A  c #95969A",
"S  c #96979B",
"D  c #959699",
"F  c #97989C",
"G  c #97999B",
"H  c #98999D",
"J  c #999A9E",
"K  c #9A9B9F",
"L  c #9A9B9D",
"P  c #9B9CA0",
"I  c #9C9DA1",
"U  c #9D9EA2",
"Y  c #9E9FA3",
"T  c #9C9EA1",
"R  c #9FA0A2",
"E  c #9FA0A4",
"W  c #9FA1A4",
"Q  c #A0A1A5",
"!  c #A1A2A4",
"~  c #A2A3A5",
"^  c #A1A2A6",
"/  c #A2A3A7",
"(  c #A2A3A5",
")  c #A2A3A8",
"_  c #A3A4A8",
"`  c #A4A5A9",
"'  c #A5A6AA",
"]  c #A6A7AB",
"[  c #A6A7AC",
"{  c #A5A6A9",
"}  c #A7A8AA",
"|  c #A7A8AC",
" . c #A7A8AD",
".. c #A7A9AC",
"X. c #A8A9AD",
"o. c #A8A9AE",
"O. c #A9AAAE",
"+. c #AAABAF",
"@. c #AAABAD",
"#. c #ABACB0",
"$. c #ACADB1",
"%. c #ADAEB2",
"&. c #AEAFB3",
"*. c #ADAEB1",
"=. c #AFB0B4",
"-. c #AEB1B3",
";. c #B0B1B5",
":. c #B1B2B6",
">. c #B2B3B7",
",. c #B4B5B7",
"<. c #B1B2B5",
"1. c #B4B5B9",
"2. c #B5B6BA",
"3. c #B6B7BB",
"4. c #B5B6B9",
"5. c #B8B7BC",
"6. c #B7B8BC",
"7. c #B6B8BA",
"8. c #B9BBBD",
/* pixels */
"5 6 5 5 2 8 4 4 5 4 4 4 5 4 5 1 5 6 2 + O @ X O < 5 6 ^ ` _ ) | v < 6 # X @ @ . - 8 < 3 6 6 < 9 3 9 6 % O O 5 5 < 8 2 5 5 4 @   ",
"6 9 9 0 9 0 9 9 w q 9 5 9 8 9 q 9 8 9 & % # # @ < 8 u | $.$.[ +.F u u = # % # @ , 0 9 0 9 0 6 6 0 9 0 * + # 6 y a 9 w 0 0 9 = # ",
"9 8 0 9 0 9 9 0 , ; 2 9 u 0 9 w < : : # % = 5 > n U H C v A n P 2 : > % # = < < 6 9 9 9 5 u U U v 6 l 5 < 2 8 9 6 = : ; : : < < ",
"9 8 0 6 q 9 0 q &   * 6 9 0 9 0 $ # % # % > l 6 ^ =.+.0 5 9 6 0 ; + @ % # = 0 9 9 6 0 0 6 u ` ;.U 6 y 9 0 u 0 9 5 # @ # @ @ 6 9 ",
"9 0 u 5 0 9 9 9 : # > 9 9 0 9 0 = # # % @ = 0 9 E =.$.0 6 y 9 0 ; % # * $ & 0 6 9 6 6 6 8 h E ;.H 9 9 0 6 6 9 0 6 # + = $ % 5 5 ",
"8 9 5 % = & & & 3 6 9 9 9 0 6 w = # & 9 9 6 0 8 6 0 0 & % = & % < 0 6 6 6 0 | ` _ +.+.` ` ^ u 0 h 9 9 u 9 6 0 0 6 # $ 2 4 9 0 9 ",
"u y 3 # # $ $ $ 6 l 9 5 6 0 6 u & O $ 8 s 0 9 9 6 9 8 % # # # O : u 9 8 9 l #.+.$.;.#.+.#.` 9 5 y 0 6 0 9 0 0 0 < # # < 9 0 9 9 ",
"6 6 < $ & & & & 6 0 6 u h 0 5 5 : = : 5 9 5 8 9 0 0 9 & # $ = * 2 y 9 9 6 u +.^ ` ` ^ +.+.^ 0 0 9 9 8 0 9 0 5 6 < - $ 4 u 9 0 9 ",
"$ @ & & $ 2 h 0 9 6 l +.3.9 @ @ 6 0 9 0 q 6 9 0 6 0 0 = O > u 0 6 8 0 6 9 8 8 < A =.+.| [ ) 0 9 0 9 0 0 0 6 $ + * q u 0 9 6 0 6 ",
"$ @ & # @ > 0 6 9 5 u $.3.9 @ @ 4 9 9 9 9 8 9 0 y 0 9 = O : 9 9 0 0 0 u 9 9 9 6 A ;.` $.;.$.6 6 9 0 6 5 0 8 # @ - 9 0 9 9 9 q u ",
"> > < < > 6 q q n C C A F 0 - = 9 0 q 0 9 9 9 0 4 : < , : 2 9 9 9 6 6 9 6 0 n n F U n A H H 8 0 0 u 0 8 0 0 > , < 9 9 0 0 9 < > ",
"f 0 h l q 9 6 9 $.3.^ 6 2 0 0 u 0 5 9 9 9 9 5 9 = X & 6 0 9 9 0 0 9 u 6 9 v ;.6.n 5 6 5 5 6 0 9 0 0 0 0 6 0 0 0 q 0 6 9 9 9 * @ ",
"6 6 8 9 9 9 9 0 Y +.U 0 6 9 6 9 9 5 0 0 8 0 9 9 : + * 8 y 0 9 9 8 6 0 9 8 u _ $.H 6 0 9 8 9 y 9 8 9 8 8 6 0 y 8 8 8 q y 0 9 = @ ",
"q u u 6 9 A U U $.$.U 9 0 9 9 u 9 9 u 9 5 c ^ R q < 5 9 6 9 0 9 0 9 9 E U U u u l 8 8 9 9 9 - = > 0 8 8 0 0 8 8 9 8 q < * ; < 5 ",
"3 6 9 5 8 U ;.;.$.#.R 5 9 9 9 9 6 5 9 8 5 B ,.,.n 0 w w 8 9 0 8 9 9 6 $.=.#.8 5 6 6 9 0 0 8 @ O * 0 8 9 0 8 8 0 0 6 q > + @ 5 q ",
"0 0 h y 0 C ^ ` ^ ^ R 8 w 6 9 9 l 9 9 a 0 c } ^ l 5 9 q 9 0 9 5 8 0 9 ^ _ E 9 0 0 6 0 6 6 6 = & , q 8 0 0 8 y 0 a 5 q , # # 8 q ",
"+.+.` +.#.A 6 0 6 y 0 5 0 9 9 6 R ` $.` +.A 5 9 0 0 6 9 0 2 $ $ < 0 6 0 0 9 9 0 0 9 0 - @ & 8 8 p 0 8 8 8 0 | ] R 8 0 < # $ 9 q ",
"` #.+.+.+.F 6 9 9 0 8 9 5 9 0 6 _ ` -.+.;.U 6 9 0 u 9 0 l 5 @ o : 9 6 5 8 0 0 u 8 0 0 = + & 8 0 y 8 8 8 8 6 _ 7.} 9 0 > @ # 4 5 ",
"` +.+.` +.A 6 9 9 9 8 0 6 0 0 6 ` } +.A U n 6 9 2 : < 2 < < < = 6 H G 9 9 0 > , , 2 2 : = , 8 6 8 8 8 h C v v P l : < < - : u V ",
"` ` +.+.$.C 6 0 0 y 0 9 u 9 8 6 R } ` 5 5 9 5 9 : O $ $ o = u 6 K $.$.9 6 5 # $ # # $ 2 0 q 0 8 0 8 6 E =.=.0 0 4 + @ < 9 0 } ;.",
"| +.+.` #.C 8 0 9 8 9 9 0 6 9 6 } ;.;.9 9 0 0 u , % $ # @ = 9 5 H ` 3.a u 9 $ # & % # 6 y 8 6 8 0 8 3 P | | 3 0 5 $ X , 6 6 ( +.",
"+.$.` h n u 9 9 > = > 0 6 l ^ H l a a = - = = - % O & < < 8 ^ L B w B - = : # & % $ @ 2 9 8 0 0 b E P R #.| 0 q 0 5 < 0 9 6 ` +.",
"+.$.U 5 8 9 9 9 & O * 0 6 F 3.$.w 6 5 # $ @ @ $ % @ ; w 6 a <.$.n 5 q $ @ & # # & % # < 9 8 0 3 v =.=.W =.| y 3 5 9 0 u 6 8 ! $.",
"| #.^ 6 0 0 9 9 = @ - 6 0 n $.| a 9 9 $ % $ $ % % % & 8 0 s ` ;.n 2 u % @ & % @ % % % 5 0 8 y 3 C ..[ ..,._ 0 9 u 9 0 0 9 u K +.",
"9 9 u 6 0 , @ % 8 w 6 9 9 9 0 9 q 9 6 # % % % % < w 9 +.+.} +.+.n 5 w = & = 0 9 0 0 9 0 8 h _ | #.....W ....8 0 0 9 5 G -.` +.+.",
"9 5 9 8 0 ; X & 5 w 9 9 6 6 0 q 9 0 q # @ @ # + 4 w 8 ^ ` +.+.7.B 0 w # O & 0 6 9 5 6 9 5 8 ] | | -.#.=.| =.0 8 0 0 9 H +.` $.<.",
"9 9 w 9 q , @ = 6 w 9 9 9 9 0 9 6 8 9 $ % & : - 2 9 0 } $.$.V R 0 4 4 - = : 0 9 u l v v h h | ..] W P _ F W 0 8 8 < 4 B $.} ` R ",
"6 9 q 9 9 > @ % 6 0 6 9 9 9 9 8 w 0 9 @ $ : q 9 u 9 0 $.$.l X O @ O % 9 u 0 0 6 C ;.#.+.#...-.>.J 8 6 8 6 6 8 8 6 O o 0 3._ 0 2 ",
"0 9 q u 9 : # % 4 9 6 9 8 9 9 9 9 9 8 @ o - 0 6 9 < 6 +.7.G # * $ % @ 6 6 9 6 5 A $.+.$.#.=...=.P 8 8 8 0 8 y 0 6 @ o u 3.} 0 5 ",
": ; : : ; : : , 9 9 6 9 9 0 9 0 < : < < < 2 0 6 A U A 9 5 5 : 2 - < : B n U A F A l l A y v v C b 8 y 0 8 8 , - > 0 0 a a n u 9 ",
"+ @ @ @ @ 2 u 0 q 0 8 9 9 q 9 0 % X % 0 w 9 9 6 K 8.( %   = 0 l q w 0 +.=.=.$.3.H 5 9 9 3 6 6 8 8 8 q 0 8 8 % O , 8.3.G < 9 9 5 ",
"& $ % % # < 9 5 9 9 9 9 9 9 8 q = # * 0 9 9 0 9 s ;._ ; # - 0 6 6 6 9 K $.+.` | H 5 u 6 y p 8 8 0 8 0 8 8 8 % @ : $.( K 8 0 8 6 ",
"% # - 8 4 9 9 9 9 0 q 6 0 G U } 9 5 5 9 9 0 6 0 2 = - 4 2 9 0 5 G _ ^ #.+.#.&.` H 5 9 - % & = % = & & = = & 4 4 9 q 9 u 9 6 = * ",
"@ + - 0 0 0 9 9 9 6 9 6 2 V ,.-.u 9 9 0 0 0 9 u = o % 9 0 0 9 6 K <.$.$.` ` | $.U 9 0 = O @ $ # & @ @ # @ @ u q 0 5 0 w q q % + ",
"= = < 9 0 9 6 9 0 8 0 n 0 n +.L 0 9 0 9 9 6 6 0 ; O = 0 9 9 9 5 G -.+.+.#.&.U | l < 5 > = = % $ = % $ = - % 0 5 w 5 0 5 < 2 ; = ",
"9 9 0 9 9 0 9 0 8 6 w ` +.V 0 9 6 6 9 6 9 8 8 0 < # - 9 6 w 0 9 A +.` ` +.| 6 0 < + & < 0 6 * % & * % < a 6 0 5 0 9 9 > # % 5 9 ",
"9 0 0 6 6 9 5 5 9 6 u ` 3.A 2 9 9 9 0 5 0 0 9 0 : X $ 5 8 9 6 4 U -.;.$.$.` 6 q > O @ , y 0 % # # # O : 0 0 5 9 9 9 9 , # # 6 9 ",
"9 9 0 0 0 0 6 9 G n L } +.A 5 w 9 0 0 6 0 6 > : 2 : 2 0 9 a A B n V A n A n 6 f 6 > , 5 9 9 $ # : , , 9 8 0 6 w 0 5 q > # * 5 0 ",
"9 9 8 0 6 9 5 9 +.} +.$.} B 9 9 9 9 8 9 9 < @ @ 2 0 0 9 5 n ;.;.l 6 6 6 9 6 6 8 9 0 0 0 0 9 $ # > 0 0 a 9 0 8 0 0 8 q > @ & 5 w ",
"9 9 9 9 5 0 6 6 ` +.( +.$.A 0 9 0 9 5 0 0 > O @ < 0 9 9 5 c $.$.V 5 9 0 0 6 0 9 6 8 9 9 9 9 @ @ ; c 8 5 9 9 8 0 8 0 0 2 @ # 5 8 ",
"9 8 q +.L ^ U K +.+.! u s u 9 9 9 9 0 0 8 8 9 5 9 9 5 0 8 9 w q 6 9 9 9 6 y 9 0 v #.^ < # - 5 5 2 9 9 9 8 0 9 9 5 = % , 4 5 9 9 ",
"9 9 l <.+.$.+.$.+.$.! 8 6 0 9 6 9 9 9 6 9 8 5 9 8 8 8 0 9 9 0 6 0 9 9 0 8 9 6 5 n &.;.> @ % 9 0 8 9 0 9 6 6 5 8 5 O O 2 w 0 9 0 ",
"9 9 l ` +._ ! } ^ } U 9 9 q 0 9 0 9 q 9 9 q 0 w u 9 0 9 9 9 0 9 9 5 9 0 0 0 h 0 U ) +.> & = 6 8 s 9 0 9 0 6 u w 6 # % 2 8 0 0 0 ",
"+.` +.$.+.n 8 9 9 9 9 5 9 9 8 9 9 6 0 9 5 B $.` a 6 q 8 9 9 9 8 9 9 y 0 9 l #.[ S 9 0 3 6 0 w 9 0 5 6 9 0 9 +.+.^ 9 9 0 5 0 q 9 ",
"` ` $.} $.V 6 9 9 8 9 9 9 9 9 q 9 0 5 5 4 s ;.$.V 8 q 9 9 0 9 0 9 9 9 6 6 y &.=.U 6 8 0 9 0 6 5 9 9 9 8 6 5 +.$.^ 8 8 q 9 9 0 8 ",
"+.+.+.G U l 9 9 0 9 9 9 8 0 8 9 0 A u l G n H ^ 9 > 4 8 0 8 < 2 5 9 6 l C n +.+.S 6 0 9 8 0 n n s n l V B n K G H 9 8 u 9 9 s c ",
"+.` U 6 9 9 5 8 8 9 9 9 9 u 0 9 ` 3.<.$.,.G 5 9 = O & 6 0 2 # o < 0 9 ^ ;.| $.#.H 8 0 8 9 u +.+.,.;.+.$.$.+.9 5 5 5 5 9 5 0 } ;.",
"$.+.^ 8 9 w 9 0 w 9 8 8 4 9 6 5 ^ ` +._ +.! 8 0 : @ % 9 u 5 % @ : q 9 U ;.+.$.#.P 8 9 8 6 0 } ` +.` } } +.,.6 u 9 q 9 q 5 5 ! +.",
"s n n 9 w 2 & : 5 0 0 K ^ G ! K B w u K l 9 = - - % % > = ; 5 < g ^ A n l n l l l 9 6 7 9 0 ` $.^ s B c s u w 0 0 0 6 n ^ ! m w ",
"9 6 0 0 0 - X $ 5 9 l +.;.+.<.<.0 5 4 9 6 < @ # # $ $ # O - u 9 U 5.$.0 3 6 9 6 6 9 6 0 5 9 ;.$.H 4 4 4 6 9 4 5 0 9 5 K ;.} t 2 ",
"0 5 8 9 5 : # & 6 5 w } +._ ! ` 0 9 q 0 0 2 @ # % & & # % ; 9 4 A ` | u 0 0 0 8 0 u 8 0 9 u ` ` B 0 u w 9 9 5 u 8 9 9 H } ` l 8 ",
"$ & & % $ 2 5 8 s 9 s +.+.K 0 u 9 6 q 6 9 < @ $ > 6 w 9 6 5 0 9 0 0 0 8 6 0 9 0 8 9 9 F $.^ 9 0 6 9 0 9 5 0 9 9 s ` ( B 9 0 6 5 ",
"# % $ # o 2 0 0 9 4 u } +.A 4 6 a 9 w 9 w 2 $ @ 4 0 0 9 9 u 0 5 0 0 0 0 6 y 9 0 0 8 8 P 8.$.8 0 9 u 8 9 8 9 w 9 s -.-.G 5 0 0 u ",
"% # & < - 2 9 9 l a H +.$.A 5 q 4 : 2 < 2 : - = 5 0 9 9 5 9 9 u < > 5 0 0 0 9 6 0 8 9 G E F q 8 9 5 , 9 9 5 9 9 s U H n 9 q 4 2 ",
"* $ ; a 9 8 9 9 } ..+...-.h 3 9 * @ $ $ @ = 8 q 0 8 8 9 9 8 6 q ; @ $ 8 0 0 9 0 y 8 8 8 6 8 0 0 < @ + , q 9 8 8 6 8 4 8 5 8 & $ ",
"@ + = 0 0 0 0 8 ( | +.} 8.G 9 a * $ $ $ + = 0 8 8 8 a 9 0 9 q q ; @ O 9 8 0 5 8 9 3 h 8 y h 8 y < o $ < q 9 8 q 9 0 8 a 0 9 % + ",
", , 3 9 q y 6 9 ( -.E c V 5 ; : % % * 4 , 5 9 9 0 8 9 ; ; : : = > 4 < 6 9 q L F V 8 9 , = = , ; ; 5 : 5 q 8 3 q 9 9 4 8 = : , < ",
"q q 0 8 6 q 9 8 } +.L 8 9 ; $ $ % @ % q q 9 8 0 9 8 8 $ @ @ $ + , 0 c 8 8 q -.4.L 5 8 * @ $ @ @ ; a q 0 9 8 6 9 9 9 8 , + * 5 q ",
"8 8 6 q 8 0 0 9 ^ } ^ 6 0 , % # $ $ & 6 9 9 9 9 0 q 9 = # $ % O < 9 0 5 5 n +.;.G 8 w ; $ % @ + - 9 0 6 5 0 0 9 q 6 w , @ $ 5 8 ",
"w 0 6 u 9 B } } c 8 9 9 w : @ * 5 q 9 9 6 0 0 9 5 9 8 % # : 9 9 6 8 5 ( } H = & * * & # @ % 9 0 9 0 0 8 9 0 9 9 4 @ = % # % 9 0 ",
"8 0 9 w 6 K <.` 9 9 q 0 0 2 @ o 5 9 0 9 8 9 9 0 5 0 9 = O = 9 9 9 0 9 +.;.R @ # @ % @ $ # $ 9 9 0 8 9 8 9 9 6 0 6 + @ # $ # 5 8 ",
"8 6 5 w 6 G ` ` u 9 5 5 2 > % * 8 9 0 9 9 9 5 5 q 5 4 : $ : s 0 0 8 0 V +.V @ $ & % @ % * - 6 9 9 8 0 9 9 w 4 5 4 - & % % = 9 w ",
"$ @ & 9 5 9 5 9 0 w < # # < 0 w 9 6 9 6 9 0 9 0 - O & 5 7 n <.` ` ,.,.# X % % % % # & 4 0 0 0 0 0 0 0 6 5 9 % @ = 9 0 l 0 9 9 6 ",
"# @ = 0 9 0 4 9 9 9 < # @ - 9 9 0 5 6 6 5 5 5 0 : X % 9 5 0 ` _ +.^ <.= @ # # @ # @ # 2 0 6 6 5 5 6 9 9 6 0 $ @ % u 5 9 5 9 5 5 "
};
