/* XPM */
static char *_0d3d39ae82e42cb89fbfbaee9cf2900[] = {
/* columns rows colors chars-per-pixel */
"64 64 136 2 ",
"   c #3D3F3E",
".  c #3E403F",
"X  c #3D3E40",
"o  c #434545",
"O  c #464847",
"+  c #484A47",
"@  c #46474A",
"#  c #474949",
"$  c #4A4C4D",
"%  c #4E504F",
"&  c #4D4E51",
"*  c #504F53",
"=  c #4F5052",
"-  c #525356",
";  c #565857",
":  c #555659",
">  c #58575C",
",  c #57585A",
"<  c #5A5B5D",
"1  c #5E605F",
"2  c #5D5E61",
"3  c #605F64",
"4  c #5F6062",
"5  c #626264",
"6  c #666867",
"7  c #656669",
"8  c #68676C",
"9  c #67696A",
"0  c #6A6B6D",
"q  c #6D6E71",
"w  c #706F74",
"e  c #6E7072",
"r  c #727375",
"t  c #757679",
"y  c #78777B",
"u  c #77787A",
"i  c #7A7B7D",
"p  c #807F7D",
"a  c #81807E",
"s  c #7D7E81",
"d  c #807F83",
"f  c #7F8082",
"g  c #828385",
"h  c #868887",
"j  c #858689",
"k  c #88878C",
"l  c #87888A",
"z  c #8A8B8D",
"x  c #8D8E91",
"c  c #8F9093",
"v  c #929395",
"b  c #969897",
"n  c #9A9997",
"m  c #959699",
"M  c #98979C",
"N  c #97989A",
"B  c #9B9D9C",
"V  c #9B9C9E",
"C  c #9C9E9D",
"Z  c #9C9D9F",
"A  c #9A9B9C",
"S  c #A09E9F",
"D  c #9EA09F",
"F  c #9EA09F",
"G  c #9D9EA0",
"H  c #9D9EA2",
"J  c #9F9EA3",
"K  c #9E9EA1",
"L  c #9FA0A2",
"P  c #9FA0A2",
"I  c #A0A2A1",
"U  c #A0A1A3",
"Y  c #A1A3A2",
"T  c #A1A2A4",
"R  c #A2A1A6",
"E  c #A1A2A6",
"W  c #A3A4A6",
"Q  c #A2A3A5",
"!  c #A6A8A7",
"~  c #A6A8A7",
"^  c #A4A3A8",
"/  c #A5A6A8",
"(  c #A5A6AA",
")  c #A5A6A9",
"_  c #A9A7AB",
"`  c #A7A8AB",
"'  c #A8A9AB",
"]  c #A8A9AD",
"[  c #A9AAAC",
"{  c #AAABAD",
"}  c #ABACAE",
"|  c #ACADAF",
" . c #AAABAD",
".. c #ACABB0",
"X. c #ADAEB0",
"o. c #AEAFB1",
"O. c #AEADB2",
"+. c #ADAEB2",
"@. c #ADAEB1",
"#. c #B0AFB4",
"$. c #B1AFB1",
"%. c #AFB0B2",
"&. c #AFB0B3",
"*. c #B0B2B1",
"=. c #B0B1B3",
"-. c #B2B4B3",
";. c #B1B0B5",
":. c #B1B2B4",
">. c #B2B3B5",
",. c #B2B1B6",
"<. c #B2B3B7",
"1. c #B4B5B7",
"2. c #B2B3B5",
"3. c #B5B5B9",
"4. c #B5B6B8",
"5. c #B6B7B9",
"6. c #B5B6BA",
"7. c #B5B6B9",
"8. c #B9B7BA",
"9. c #B7B8BA",
"0. c #BABBBD",
"q. c #BCBDBF",
"w. c #B9BABC",
"e. c #BDBCC1",
"r. c #BDBEC0",
"t. c #BDBEC2",
"y. c #BDBEC0",
"u. c #C0BFC4",
"i. c #BFC0C2",
"p. c #BFC0C2",
"a. c #C2C3C5",
"s. c #C4C6C5",
"d. c #C6C8C7",
"f. c #C4C3C8",
"g. c #CACBCB",
"h. c #D0D2D3",
/* pixels */
"*.u h 6 < < 4 > 4 2 - Q *.] < < > < 2 < > 5 h h g l l l f z 2 < < 4 < 2 < 2 < < < l g l l z l f l 5 < < < > , < < 5 & 0 o.<.A s ",
"*.i h 4 : : , , : - $ M <.' , > > : > > - : s l g f g l h z < < : > , > & - < < < h g g s s g h g < , : > 2 , = < - $ 2 <...H i ",
"-.0 u 5 2 2 2 2 5 t 0 m W H < < < - > 2 5 5 u r f g g s t i < : < < : 9 r r 5 : 2 u t s l g l l g < 2 < , > 4 < < q q t ^ Q M y ",
"A O < < - , > @ x t.] c f g , > 5 < < , , - < $ 2 g l 6 # < 4 5 , 2 - g 3.<.t - - > - 7 g g f f z < < < > : , , < ' 3.| s s s s ",
"B # < < - < 2 & t 3.o.x i f < < < : : : : - : : 0 l z r , > > @ & : $ i <.1.e $ < < - 8 l l g h h < - - < , : : - Q ] | i z g l ",
"D $ < i z i > > i H v l g g > < 5 < > i c s < - 5 0 6 5 = : f x l l g x x v 6 - < < - 9 l l r 0 0 > > 5 g l e < : i i g d d y 0 ",
"b O < ! a.Z : - 0 g t s g g : : < - - m i.| 8 - > - & , : 5 Q q.3.<.<.H i g 5 , : < = 8 g g 5 = > - : r 3.t.f = : : # : l g r & ",
"B # < Z o.A : & r c g f s g > : 2 < - x <.W 4 : : < < 2 - : m ] Q ( ] m s z < : > 4 : 0 g z 8 : 2 > : 0 ] %.u , : 2 - 5 k l t : ",
"b # < h z i 2 - r f f q > 8 < : r L A x l z s i r < : , > , 9 6 0 l l z s l 6 = < > < 2 5 5 < : , L I B g l e - < : > < 7 2 8 > ",
"Y # < g l t : - e z z 8 $ < < - g <.q.v i l s z s - < 4 : < : & - z l g f h 7 > : : : - : - < > : o.3.' i l 6 $ > 2 2 - & & - * ",
"b O < r i u > - q u i 4 2 4 5 - r B m l g g g i t < : > , < > > 5 s u g g g 8 : > q q 7 , < 2 : 5 b B b u s 0 < : < < > w w 8 > ",
"A % 5 < - , , 5 2 2 , 2 , 5 > : < < , r h g > = > 5 : > > 5 < 4 , > - r h g 8 # 7 ] *.v - < 2 < > > : < , > , , < < , 0 ..#.l & ",
"I # < 1 > > - & : : > - - - : : 5 - - i z l > - 2 : , < $ : @ $ - < - q z z 0 - 7 o.<.x $ : : $ < = = - = : , , : > , 5 3.t.x $ ",
"Z $ 5 5 - 7 g l t - > t l i < : < 2 - 0 e 0 5 : 2 > - t l l f z i < , 8 q 0 5 - < m Q g - : t g g s g h 9 r 4 < < < : < A A l q ",
"B $ < < & r <.3.x : @ ( <.<.> , > : < - - > - - > 8 & z 0.] ' *.I : - 2 : : 2 : 5 s g 0 : < v 1.1.| o.} g h 6 , 2 < : 4 l g d l ",
"A # < 1 # 5 } 3.l & - H <.Q - : , - : : 2 - 2 , : = @ g %.%.<.3.A < < < : , < & : i h u : - z 9.] ( <.Q f l e - - 2 : 5 g x g g ",
"H $ > m L v h m r : > u z x s s i t s 8 , > : , q L B m g z l l l < < : > : z W m h l 0 2 : r v l z z l i f 0 - , > : : 2 5 8 2 ",
"H $ > ` 1.} s g e : - i s g s l g g l 6 : < > $ 0 0.3.v u s i i s - : < : , Z | o.i z u : & i g h g i f g z e = : : - 2 > - - - ",
"A = < B ( I i z r , : i g l k l z h g 0 - - 7 > r ] ] m g g g l i < : 2 , < A ] ( s l r & & i l i g g l f g 0 < : 8 > 5 - > 2 3 ",
"h.( | z s g g l q < > - , : s s g f s e , 5 H ] L l i g g i 4 & : = - g 1.( v i f g h t < < : - < i g i , , - , , L *.I 2 2 2 : ",
"g.L 1.z g s g z 8 : 5 - 2 > z z h z l 0 $ > ( 9.H f g g g g 4 - 2 > : s 9.%.z s h l z t - < : - : g z i : - - - - H 3.H : - > : ",
"d.l v s g h t r t < > : 2 2 r q t t r 0 : < b Z v h g i l x 2 , < - < r v v l h i q i 0 , : 5 5 > r r r 2 , 0 i r v B A i i 0 > ",
"m   : u l u - = : = > 2 , : : - 2 - - 2 , : s s s h g g g g > > < : > < & $ r g i : - - > , : - < < - : : - g 9.<.l r z o.u.x * ",
"L O 5 f z i > , 4 > 2 : : < < : < : : > - : g g s g i l g l 8 - 2 : : < > : f g g > : < : > < < : 2 > , : - g <.} l g z ( 3.l * ",
"D # < 6 0 5 > , 8 > > > > 2 x v g : 2 u x v f g g z g r 6 0 < < < > > > > , u l g 5 , 2 < < 5 2 > > > > 5 , i m x z i z x v y : ",
"B $ < ; - < 2 > : : > 2 - 8 3.9.m & - m i.o.l g f f l r $ , > , : - - > 2 2 u l s > - < , : : - 2 < < : > - 0 g u g i l g z t - ",
"B + < < , < 2 : > 5 2 > - 5 I ! v : - l ] H l h g i g q - 2 < < $ 5 7 2 = , t l i 2 : < < > < < 5 > 2 : 2 4 r f g z g l t g w > ",
"Z + < 5 < 4 2 = g ` Q z g s 5 1 6 , : 2 4 8 i h t , 5 < < < : : 9 L W g : > 5 < > : > > > < z ( / 2 & e / L k g g g i s 2 5 > > ",
"B $ < < $ - - @ g e.<.z s g % $ - : > < - 2 f v s & : - = - > : 5 o.9.z - : < & , 2 < - & o v q.o.5 - r 3.t.A f l l l g > : : 2 ",
"B O ; r r r r q k ( G c g h 6 6 8 7 7 5 : > q t r < < 8 r e 2 - 7 L Q h 2 8 0 0 6 < = > i 0 v b W < & 0 v c g j l i t r > 2 > > ",
"B o < D <.o.] <.v s i s i g f l z l g 9 - - > : : 2 < z 9.o.0 - 2 s s g g z l f g 2 & t 3.] A i g 4 < : - = 9 g g 4 : > : 3 2 : ",
"B # 5 I 3.<.&.0.L s v g l x f g g h l r > < < : : - X z 3.3.0 $ 8 g h z g i s l g > $ u 3.3.m f l , & - < : e z z < : < > : - * ",
"H $ < u u i i u e 0 0 8 8 e z f s 8 8 7 - 2 , > 0 v l c v v 5 - < r 9 t l g s l i < , 5 i r i z l t u r : : 8 0 9 5 : 2 2 > t m ",
"m $ < , - $ : - < - - - : : i x e - > 2 : 2 : = r <.q.b t l < > = > & 0 h h g s s 2 - - - = q z f l z i < : , - - 2 - : > & i f.",
"L : < = : 2 2 , : 2 2 - > 8 g g y : 2 2 > 4 > - r ] <.m u z < - 2 > - r h h z l g 2 : < 2 > u i g h g u 2 : , < $ < , : : - t 3.",
"m @ > I } z : 2 > : > < , - > 5 8 : > 2 : : > - 5 v z l s h s g t < : 5 2 < 4 2 7 : < > > $ s z g 5 : 2 , : i ^ ' H L W ( _ m d ",
"A $ : Q 3.Q - - > - - < : 2 2 , - : - : : - 2 2 < l i g l h z l s : : < : , : - : : : - 2 , t s z > : 2 < - l w.*.| <.| ( <.Q t ",
"L : 8 b *.m : : 6 5 5 < - > , : > r 7 8 0 8 > - 9 f s g g i u f t : < < > 2 > : = e 0 5 = < 0 s i > < < : , f B m Q ` Q ^ ] A i ",
"h./ | h s r : - h 3.3.q - 2 2 - g <.o.o.<.E 8 : < : - r l h < : : - < < > > 5 > 8 ] *.m : < - < > : < 4 > < , - , u s i s s s s ",
"g./ <.z l g 2 $ l 0.3.4 : 2 2 : i <.<.o.<.( : $ > < - t l z 5 : , 2 > : : & > & : ' t.v # < < < , 2 : , & : = , > s h l k g g g ",
"t.z b t 9 9 < : s H m 5 : > 2 - q z f v m m g l r : 2 8 0 q 2 - > > - 7 g i g f h b v i : 2 5 : < - : 5 g g 6 - - r 0 r s g s s ",
"3.i s 2 - > , & 7 z g 8 : 2 : = : > $ r g g ] <.B , < > , - < > 2 - : h 0.o.<.9.' l g u - - < : > < - r 9.<.s , < < - : l l k l ",
"*.u s 5 - < 2 - r l i 5 - > 2 2 2 : 2 t x g ( 3.m - : : < > 2 - > - = i <.| ] ] Q f l u : : 2 : < > & 0 } <.g $ < : < > x d g g ",
"9.f h 7 - 5 g i f l l 5 > 5 m M g > 4 2 8 5 f x v b H u : 2 2 > 8 A B x z l z v z h l i i g 0 = > 2 , 6 l z l r u 5 > > 8 2 q z ",
"*.i g 8 - 5 l l l g z 5 & 2 <.0.m $ - 5 - : g y z <.0.i O : : - 5 <.9.A i f g s u l f h l l 9 - 2 5 = 5 l s i l l 4 - 2 : & 8 z ",
"9.t i 7 : 7 s i g i g 8 - 4 ( ( c & 2 2 & 2 g g v W ] g > 8 2 : 6 Q Q m g g g g l z s g i g q = < < - 5 g g f s s 4 : < - : w d ",
"A & 4 < , < 2 > : : < < : 2 z g s : 0 > , 5 i g i i g H ] %.q $ : 5 : 0 g l h g s g l t - < 4 - < 2 5 < , : 2 - : > > 2 2 > 5 2 ",
"H # , < < , : < < < : = - - s l t & & - 2 : l g l z u L | 1.5 , : < : 0 l f l l h s z r : : > < < - = - 2 : - 2 : > $ , : & * > ",
"Z o 5 < : < , : > 4 = r u i l g g u u 8 , > e e i g i x m Q 2 , : 5 , 6 g 0 r r r g g r : > > - < r s t : > < , - s t t y s w - ",
"Z $ 5 < > < 2 - 4 2 2 ^ 9./ l s z 9.9.u : , < $ < z h i i l , : < < - > & : > = > i z t : 2 , 4 5 ] 3.B : : - : > ( <.<.<.3.x $ ",
"B % < - $ & > 2 > = $ v *.} g i Z <.o.u < - : : e x l z x l 5 : - - - < $ < < : < l z r : : - - # / 9.v & < > < - I <.&...<.x - ",
"I . 1 l B z : & i m x m x v s g t 0 t 8 - < 5 , < 4 5 8 5 6 4 - 0 x v l t t 5 < - q 8 5 < < l B v x x z i t 5 - - l c v x v i * ",
"W O 5 I 9.I , = z 0.<.g q i g z u $ - 4 : < : = 5 , 2 > & : < , 5 1.9.A h g 8 : < < & > > # z 0.| s g s g l e : < s i i i l t - ",
"A O < Y 0.m : = g ] ] z g h g g t 4 < < - > , 5 > - : > 2 2 - < 8 o.' b f l 9 - < < < < 4 - h <.3.f g z f g 0 < - i h z g h r < ",
"s.I Y l s s 4 & q z l f s s g z r & : z 3.Q 5 , > 5 5 > : < > : 2 l g h i l 8 > , > , r ] | v s f i g i - 5 < - < i g i 2 < < > ",
"h./ <.l l f , & r l s g g l g h i - : z 0.' 4 - > - = 2 : - 4 : 4 g z s g g 4 < , 5 $ t 3.3.v s l l g u : : > - : i h t - : < < ",
"g.v I i r r 8 - 0 i t s g g h l u : < z / m 0 7 8 r e 0 - 4 > > 5 t r t z g 6 > < < : t v Z l r s l g i < : 5 0 7 g h s < 5 < < ",
"*.u h < - : > - : > , i l f g g r - : t h g i l m *.9.s - , 5 - : < : 9 g f 7 $ > , : < < - : : > i l i : : r z g g h h : < < < ",
"*.u g < : < > 2 3 > * i h s h z i , : u l l h i z } 0.u @ $ < 5 : : - r l l 0 = 4 2 : - - : 2 < > u z i < : r l l h h i ; : ; : ",
"1.t h 0 t q > : > > : s h g 9 9 6 : , 9 8 6 g f l v v v z v 4 - < < - 7 0 0 2 - < < > 0 z z 0 $ 5 8 0 8 < - 5 9 7 0 0 9 < < r v ",
"1.r z g z g 2 - 2 2 - t g l : : < < : < - , s h i h t H | 9.8 & < , : > , > > 4 < : $ u t.8.u $ 5 : : : < > < - < - - < < % i 1.",
"q.t z i g u 2 > > 2 2 i g h * - < < : 5 , 2 i l g l u Z o.' 8 - 5 - , > < > : < : 8 : r _ $.y - < > < < > < < - 5 < < < < $ p $.",
"9.r h 5 < 5 > > > > : 5 5 5 : < 2 : - l Q I l i g l g z z h c Q m > 2 < , < > < > Z Q v l x 0 - : < < > < : 1 < < ; : 9 S Z n a ",
"*.r l < - < > > > > > : > : 5 * < : - m 3.%.l g g g g i i g o.9.` = < > : 2 5 : 2 ' 3.H i h 0 * 2 < : < > : < ; : 5 - 5 1.-.B p "
};
