/* XPM */
static char *_b099775e64840adb84fdfbb17552dd8[] = {
/* columns rows colors chars-per-pixel */
"64 64 161 2 ",
"   c #5F361A",
".  c #5F3B1D",
"X  c #61371A",
"o  c #63391A",
"O  c #6C3D1C",
"+  c #773E17",
"@  c #7A3D16",
"#  c #773E18",
"$  c #6D411E",
"%  c #74431E",
"&  c #7C461F",
"*  c #7B481F",
"=  c #6B4322",
"-  c #744421",
";  c #7B4720",
":  c #744923",
">  c #7B4821",
",  c #7F512B",
"<  c #75642B",
"1  c #7F6C2F",
"2  c #747227",
"3  c #7D732F",
"4  c #777C2B",
"5  c #7B7D2E",
"6  c #7C6C33",
"7  c #7E7231",
"8  c #81441D",
"9  c #814B25",
"0  c #884D26",
"q  c #854E29",
"w  c #8D4F29",
"e  c #805A25",
"r  c #86502B",
"t  c #8B532D",
"y  c #95552F",
"u  c #875332",
"i  c #8E5631",
"p  c #865C36",
"a  c #8D5934",
"s  c #8F563C",
"d  c #8D5B3A",
"f  c #915732",
"g  c #995733",
"h  c #915833",
"j  c #995934",
"k  c #93563C",
"l  c #98573E",
"z  c #945B3B",
"x  c #9A5D3A",
"c  c #81632F",
"v  c #866334",
"b  c #886033",
"n  c #826B33",
"m  c #97603F",
"M  c #9D613D",
"N  c #817231",
"B  c #857934",
"V  c #A1623E",
"C  c #AB653F",
"Z  c #965C40",
"A  c #9C5E41",
"S  c #9D6241",
"D  c #A36542",
"F  c #AB6641",
"G  c #A66844",
"H  c #AB6B46",
"J  c #A8664B",
"K  c #A56E4A",
"L  c #AC6C49",
"P  c #B26944",
"I  c #B26C48",
"U  c #A5704C",
"Y  c #6A9D19",
"T  c #66A61B",
"R  c #69A51E",
"E  c #64AA1E",
"W  c #68A91E",
"Q  c #74A41E",
"!  c #78A41D",
"~  c #70AF1B",
"^  c #7AAA1E",
"/  c #7C8226",
"(  c #74842C",
")  c #7A862D",
"_  c #778D2B",
"`  c #798B2D",
"'  c #6B9625",
"]  c #6D9D22",
"[  c #6F9F2D",
"{  c #749427",
"}  c #719F25",
"|  c #759429",
" . c #7A932D",
".. c #739D2A",
"X. c #799C2C",
"o. c #7E8232",
"O. c #7D8A31",
"+. c #6EA324",
"@. c #6EA129",
"#. c #71A224",
"$. c #79A624",
"%. c #7CA923",
"&. c #73A22A",
"*. c #7CA22A",
"=. c #84AC1C",
"-. c #82842A",
";. c #808131",
":. c #82AC22",
">. c #83A728",
",. c #85B124",
"<. c #8BB324",
"1. c #87B921",
"2. c #8BB428",
"3. c #91B725",
"4. c #94BB25",
"5. c #9CBF27",
"6. c #91B32B",
"7. c #93BA29",
"8. c #99BD29",
"9. c #9CC126",
"0. c #9DC12A",
"q. c #A3C425",
"w. c #A2C62A",
"e. c #A7C82B",
"r. c #ABCB2C",
"t. c #B4CE23",
"y. c #B3CF2B",
"u. c #B8CF28",
"i. c #AFD12C",
"p. c #B4D127",
"a. c #B3D02A",
"s. c #B1D12E",
"d. c #B5D22E",
"f. c #B9D32A",
"g. c #BAD428",
"h. c #B8D32C",
"j. c #AFCF32",
"k. c #B2CF33",
"l. c #AED034",
"z. c #B0D033",
"x. c #B5D530",
"c. c #B8D332",
"v. c #B8D430",
"b. c #C2D93E",
"n. c #BFDA45",
"m. c #BBDA4C",
"M. c #C0D943",
"N. c #C0D945",
"B. c #C7D951",
"V. c #C7DA56",
"C. c #C8DA50",
"Z. c #CBDE55",
"A. c #C4DB59",
"S. c #C7DF5B",
"D. c #C1DB5E",
"F. c #C7DF5F",
"G. c #C9DE59",
"H. c #C8DE5B",
"J. c #C5DF61",
"K. c #C2DF66",
"L. c #C8DE61",
/* pixels */
"C.D.V.V.A.V.V.V.V.V.V.V.V.V.V.V.V.V.V.V.V.V.V.V.V.V.V.V.V.V.V.V.V.V.V.V.V.V.V.V.V.V.V.V.V.V.V.V.V.V.V.V.V.V.V.V.V.V.V.V.V.V.V.B.",
"Z.J.G.G.F.S.S.S.S.S.S.S.S.S.S.S.S.S.S.S.S.S.S.S.S.S.S.S.S.S.S.S.S.S.S.S.S.S.S.S.S.S.S.S.S.S.S.S.S.S.S.S.S.S.S.S.S.S.S.S.G.G.G.Z.",
"G.K.G.F.J.F.F.F.F.F.F.F.F.F.F.F.F.F.F.F.F.F.F.F.F.F.F.F.F.F.F.F.F.F.F.F.F.F.F.F.F.F.F.F.F.F.F.F.F.F.F.F.F.F.F.F.F.F.F.F.G.L.F.G.",
"b.m.M.n.n.n.N.N.N.N.N.N.N.N.N.N.N.N.N.N.N.N.N.N.N.N.N.N.N.N.N.N.N.N.N.N.N.N.N.N.N.N.N.N.N.N.N.N.N.N.N.N.N.N.N.N.N.N.N.N.N.N.M.b.",
"t.k.y.y.s.a.y.y.y.y.y.y.y.y.y.y.y.y.y.y.y.y.y.y.y.y.y.y.y.y.y.y.y.y.y.y.y.y.y.y.y.y.y.y.y.y.y.y.y.y.y.y.y.y.y.y.y.y.y.y.y.y.y.t.",
"t.j.t.y.y.y.y.y.y.y.a.a.y.a.a.y.y.a.y.y.y.a.y.y.y.y.y.y.y.y.y.y.y.y.y.y.y.y.a.a.a.y.a.y.y.y.y.y.y.a.a.y.a.y.y.y.y.y.y.y.a.a.p.t.",
"t.z.p.a.s.y.a.a.a.a.a.a.a.a.p.a.a.p.a.a.a.s.a.a.a.a.a.a.a.a.a.a.a.a.a.a.a.a.a.y.a.a.a.a.a.a.a.a.a.a.p.a.a.a.a.a.a.a.p.a.a.y.a.t.",
"t.z.y.a.s.a.y.y.a.a.y.y.a.a.a.a.y.y.y.y.y.y.a.a.y.y.p.a.a.a.a.y.p.y.y.a.p.y.y.a.a.s.y.y.a.a.a.y.y.a.p.a.a.p.a.a.y.y.y.a.a.a.p.t.",
"t.z.y.a.a.a.y.y.a.a.y.p.a.p.p.a.y.y.y.y.y.a.a.a.y.y.y.a.y.y.a.a.y.y.a.a.y.y.y.a.a.a.y.y.a.a.a.y.y.a.a.y.a.a.a.a.y.y.y.a.a.a.a.t.",
"t.l.p.a.s.a.a.a.a.a.a.a.a.a.y.y.a.a.a.a.a.a.y.y.s.a.a.a.a.y.y.a.a.a.a.a.s.a.p.y.y.y.a.p.a.y.y.a.a.a.y.a.y.y.a.a.a.a.a.y.y.y.y.t.",
"p.k.u.y.a.p.y.y.p.y.a.y.p.r.r.d.y.y.s.a.p.p.a.p.p.y.y.p.y.p.p.y.p.y.y.a.p.y.r.y.a.s.s.y.p.p.p.a.p.p.e.r.d.p.p.p.p.y.y.s.a.s.p.t.",
"q.0.q.s.d.d.0.4.z.g.p.d.s.2.4.d.p.p.p.d.r.r.d.p.s.0.4.r.p.d.r.4.e.h.p.p.h.w.,.r.f.p.a.p.s.r.s.p.d.e.:.7.s.p.d.r.r.p.p.y.y.p.f.q.",
"! +.^ 4.0.4.$.Q 7.r.r.e.3.#.$.0.i.x.d.r.,.=.8.0.3.#.#.<.5.5.,.+.:.w.r.r.0.%.+.2.r.d.x.i.8.:.3.9.4.:.] #.<.0.8.:.,.w.s.v.c.d.e.=.",
"} [ ....+.+.....+.$.:.$...} ' &.2.6.2.%.[ @.+.R &.......+.+.+.+...X.>.%.+.+.} +.%.2.3.,...' +.#.} ] #...@.+.+.+...*.6.8.4.1.~ Y ",
"#.E R R +...+.+.#.+.} R W ` 2  .R R ] +.W +.` O.+.R R W +.o.;.#.+.T T +.} +.+.+.+.] ] T  .3  .W R +.+.R +._ ) &.W +.T #. ._  ./ ",
"-.@.X.X.` 5 X.#.+.+.+.+...1 p B ..&.&.+.&._ n v _ ..&.X.` v b ) X.&...O.4  .#.+.+.@.@...B d N X.#.#.#.#. .1 c O...X...( < 6 1 e ",
"i 6 N n d k n | +.X.} | 7 z J z n ) | { 5 v A A p n 7 n p D D d n 7 n a s n { ......{ 3 z J Z n ) | | ) v Z A p n N 1 r l Z l l ",
"V d a u m J z p n 7 n p d G L G z p p p d S L L M d d d S L L D k d d S G z p n 3 6 p d D L G z p p p p z H L S d d z M L L H F ",
"P K x i x H H S z d k A H L L L H D S A J H L L L H H H L L L L H H H L L H S z z z A J L L L H D A A J L L L L H G H L L L L F ",
"P K V t z H L L H L L L L L L L L L L H L L L L L L L L L L L L H H H L L L L H H H L L L H D H L L L H H L L L L L L L L L L F ",
"P U H S D L L H H H H L H L L L L L L H L L G V G L L L L L L L M h G L L L L H H H L L D j i j D L L G x H L L L L L L L L L C ",
"P L I L L L H L L L L L L L H G H L L L L D h i h D L L L L L L G V H L L L L L L L L D f i h i h G L H D H L H L G x x H L H F ",
"F K L L L L L L L L L L H M j h j D L L H x i i i x L L L L L L L L L L G G H L L L D f i h h i i x H L L L L H L V i h H L L F ",
"g d j V L L L L L L L H x i i h i j D L L x i i i x L L L L L L L L L D h h x H L H j i h h h h h f V L L L L H L H M D L H D g ",
"y p f f M H L L L L D j i h h f x M j D L H x h x G L L L L H L L L H x i i f D L x i h j x h h h i h H L L L L L L L L H x f t ",
"y p h f i z D G D M h i h h h h h z f h D L H G H L L L L L L L L L H j i a f D D h a i x D j h h h i z G L L L L L L L M i h t ",
"g p h h i h f f f h f i h h h h h h h i h V L L L L L L L D M M H L L D h f M D j f a h h j h h h h h i h M G L L L L D h i f t ",
"g p f h h h h h h f h h h h h h i i i h h i x H L L L G x f i i j D L L H G G j i i h h h i h h h h h h i i h x M D M h h D x w ",
"y p f h i h h M x h h h h i h i r > 9 f h f i h M D M z x x h h i h M D H D z i h h h i i h h h h h h h h h i i i h i i j M x w ",
"y p f h i i j H D h h h h h h i 9 % > i h h i i f i i x L H h h h i f j z h i h h i q > 9 t h h h h h h h h h h h i i h h i h t ",
"y p h h i i h x z h h h i h h h t q t h h h h h i i h x D D h h h h h h i h h h h t ; & & 9 h h h i h h h h h h h h h h h h h t ",
"g p q t i h h i f h h h h h h h h h h h h h i h h h h h h h h h h h h h h h h h h t & ; % 9 h i 9 9 t h h h h i h i t i h h h t ",
"g , & > i h h h h h h h h h h h h h h h h h h h h h h h f i i i h h t 9 t h h h h i 9 & > t h t & & q h h h h h h t > t h h h t ",
"g r > 9 i h h h h h h h h h h h h h h i h h h h h h h h h i i i h h r ; r h h h h h i t t h h i 9 > t h h h h h h i t i h h h t ",
"y p t i i h i i i h h h h h h h f i h h h h h h h h h h h h h h h h i t i h h i h h h h h h h h i i h h h h h h h h h h h h h t ",
"y a j h h i q > 9 r i h h h h t 9 9 r f h h h h i t t i h h h i h h h h h h h h h h h h h i i h h h h h h h f q q t f h h i h t ",
"y p h h i q ; & & ; r h h h t > & ; > q i h h i 9 ; ; q i h h h h h h h i i i h h h h h h h h h f h h h h h t ; & 9 f h i h h t ",
"g a h h i > & ; & & 9 h h i > & ; ; ; & r h h q & & & > i h h h h f h i q > > q i h h h h h t 9 9 q i h h h t & & 9 f f h h h t ",
"w p h h i > & > ; % 9 h h q > q 9 > ; ; > t h q ; ; & > i h h h h h h r & & & ; t h h h h t > % & & > t h h f q 9 t h h h i t 9 ",
"& > t h i q ; & & ; t h i > q h f > ; ; & > f i > & > q h h h h h h h q & ; ; & q h h h t > & ; ; & & > t h j h h h h i q > > # ",
"& : 9 t h i r > 9 t h i 9 & 9 f i > ; ; ; & q h i t t f h h h h h h h t ; & & > t h h t > & ; ; ; > > & ; q i i i i r > & ; > # ",
"& : & q h h h h i i r > & & > 9 > ; ; ; ; ; ; r h h h h h h h f t t h h r > > t h h r > & ; ; & 9 t i q ; & > 9 9 > & & & ; > # ",
"& : & > r i i t q > ; & ; ; > & ; ; ; ; ; ; & > t h h h h h t 9 > > 9 i h i i h i q ; & ; ; & & t h h i > & & & & ; & > > ; > # ",
"0 p q & ; > > ; ; & ; ; ; % % ; ; ; > ; > ; ; & > t h h i q > ; ; & ; > r t t r 9 > > ; ; > ; & r h h i > ; ; ; ; & > i f > > # ",
"t a t & ; ; ; ; ; > ; ; > & % ; ; ; ; & ; ; ; ; ; ; 9 9 > & & ; 9 r > & & > > & ; ; > > > > ; & > r t 9 ; ; ; ; ; & > t i > > # ",
"8 , 9 & ; ; ; ; & & ; ; ; > ; ; ; ; ; ; ; ; ; ; ; ; & & & ; ; ; > q > ; ; & ; ; ; ; ; 9 i q ; ; & & > & ; ; ; ; ; ; & > > & > # ",
"& : & ; ; ; ; ; ; > ; ; ; ; ; ; ; ; ; ; ; ; ; ; & & ; ; & > > ; ; ; > > ; ; ; ; ; ; ; > t q & ; ; & & ; ; ; ; ; ; ; ; & & ; > # ",
"& : > & & ; ; ; q t q > ; ; ; ; ; ; ; ; ; ; ; > q 9 & ; & ; ; ; ; ; % $ % > > ; ; ; & ; > > ; ; ; ; ; ; ; ; ; ; ; ; ; & ; ; > # ",
"& : & * * & ; ; t z t > ; ; ; ; ; ; ; ; ; ; & > t q & ; ; ; ; > ; % o o % > ; ; ; ; ; & ; ; ; ; ; ; ; ; ; ; ; ; ; ; ; ; ; ; > # ",
"& : & & ; & ; ; 9 t 9 ; ; ; ; ; ; ; ; ; ; ; ; ; > > ; ; ; ; ; ; ; % o o % > ; ; ; & ; ; ; ; ; ; ; ; ; ; ; ; & > ; ; ; ; ; ; > # ",
"& : > & ; ; ; ; & & ; ; ; ; ; ; ; ; > ; ; ; ; ; ; ; & ; ; ; ; ; ; ; % = ; > & ; ; ; ; ; ; ; ; ; ; ; ; ; ; ; & & ; ; ; ; ; ; > # ",
"& : > & ; ; ; ; ; ; ; ; ; ; ; ; ; > ; - O O % ; ; ; ; ; ; ; ; ; ; ; > > ; ; ; ; ; ; ; ; ; ; & ; ; ; ; ; ; ; ; ; ; ; ; ; ; ; > # ",
"& : > > ; ; ; ; ; ; ; ; ; ; ; ; > ; $ o o o o $ ; ; ; ; ; ; ; ; ; ; ; ; ; ; ; ; ; ; ; ; ; & & & ; & & & ; ; ; ; ; ; ; ; ; ; > # ",
"& : & ; ; ; ; ; ; ; ; ; ; ; ; ; > % o o o o o o % > ; ; ; ; ; ; ; ; ; ; ; ; ; ; ; ; ; ; ; & ; ; ; ; ; ; ; ; ; ; ; ; ; ; ; ; > # ",
"& $ o o - > ; ; ; ; ; ; ; ; ; > ; O o o o o o o O > & ; ; ; ; ; ; ; ; ; > ; ; ; ; ; ; ; ; ; ; ; ; % O % ; ; ; > ; ; & > > ; > # ",
"% . X X O ; ; ; ; ; ; ; ; ; ; ; ; O o o o o o   O > ; ; ; ; ; ; ; ; > ; ; ; ; ; ; ; & ; ; ; ; > ; o   o ; > ; ; ; ; ; ; - ; > # ",
"% . X X O > ; ; ; ; ; ; ; ; ; ; > % o o o o o o % > > ; ; ; ; ; ; ; ; ; ; ; ; ; ; > * ; ; ; ; & ; O X O ; > ; ; ; ; ; O O ; > # ",
"& = O O - > ; ; ; ; ; ; ; ; ; ; ; ; $ o o o o O & ; ; ; ; ; ; ; ; ; ; > ; ; ; > > ; ; ; ; ; ; ; ; % % % ; ; ; ; ; ; ; - % ; > # ",
"& : & & ; ; ; ; ; ; ; ; ; ; ; ; ; > ; - O O % ; ; ; ; ; ; ; ; ; ; ; ; ; ; > ; % & ; ; ; ; ; ; ; ; ; > > ; ; ; ; ; ; ; > ; ; > # ",
"& : & & * > ; ; ; ; ; ; ; ; ; ; ; ; ; ; ; ; ; > ; ; ; ; ; > > ; ; ; ; ; > ; $ o O ; > ; ; ; ; ; ; > ; ; ; ; ; ; ; ; ; ; > ; > # ",
"& : & & ; & ; ; ; ; ; ; ; ; ; ; ; ; ; ; & & ; ; ; ; ; ; ; > > ; ; ; ; ; ; % o o X O & ; ; ; ; & & ; ; ; ; ; ; ; ; ; ; ; ; ; > + ",
"& : & > ; > ; ; ; ; ; ; ; ; ; ; ; ; ; ; ; ; ; ; ; ; ; ; ; ; ; ; & & & ; > % o o X O & ; ; ; ; > > ; ; ; ; ; ; ; ; ; ; ; ; ; > @ ",
"& : > ; ; ; ; ; ; ; ; ; ; ; ; ; ; ; ; ; ; ; ; ; ; ; ; ; ; ; ; ; ; ; ; ; ; % O o o - ; ; ; ; ; ; ; ; ; ; ; ; ; ; ; ; ; ; ; ; ; + ",
"8 ; 8 & & & & & & & & & & & & & & & & & & & & & & & & & & & & & & & & & & & & % & > & > & & & & & & & & & & & & & & & & & & 8 @ "
};
