/* XPM */
static char *_e386e51d0e14fe79e7517fe0b60720f[] = {
/* columns rows colors chars-per-pixel */
"64 64 187 2 ",
"   c #010101",
".  c #293A10",
"X  c #353C25",
"o  c #2E4511",
"O  c #34451A",
"+  c #3C461C",
"@  c #364A1B",
"#  c #3A4B1E",
"$  c #3B521E",
"%  c #3C4523",
"&  c #3D4C23",
"*  c #3D452D",
"=  c #3F4B2A",
"-  c #374220",
";  c #3E5223",
":  c #3F5129",
">  c #3F423B",
",  c #424C25",
"<  c #40452D",
"1  c #444D2B",
"2  c #494E2E",
"3  c #415325",
"4  c #425925",
"5  c #44522B",
"6  c #4A532E",
"7  c #45592B",
"8  c #4A5A2D",
"9  c #485027",
"0  c #434533",
"q  c #464B32",
"w  c #494D33",
"e  c #43453C",
"r  c #46493A",
"t  c #4A4D3B",
"y  c #504F3A",
"u  c #475131",
"i  c #4B5334",
"p  c #4B5C32",
"a  c #4D533B",
"s  c #50553D",
"d  c #525A3C",
"f  c #525F32",
"g  c #4C622D",
"h  c #4E6133",
"j  c #516534",
"k  c #536538",
"l  c #556A3C",
"z  c #5C693D",
"x  c #5B733D",
"c  c #434444",
"v  c #4B4D44",
"b  c #454648",
"n  c #474849",
"m  c #4B4C4D",
"M  c #474842",
"N  c #4E5243",
"B  c #4E514D",
"V  c #535544",
"C  c #555A44",
"Z  c #5A5C47",
"A  c #53544C",
"S  c #575A4C",
"D  c #5A5C4D",
"F  c #4D4E51",
"G  c #4F5153",
"H  c #535455",
"J  c #565954",
"K  c #5A5C54",
"L  c #555659",
"P  c #57595B",
"I  c #5A5B5C",
"U  c #615F53",
"Y  c #596344",
"T  c #5E6D42",
"R  c #5D624B",
"E  c #5F7442",
"W  c #5E7A40",
"Q  c #5D6054",
"!  c #5E615D",
"~  c #61654F",
"^  c #626F43",
"/  c #637545",
"(  c #637B45",
")  c #687C47",
"_  c #65764A",
"`  c #68744A",
"'  c #657D4A",
"]  c #6A7C4B",
"[  c #616254",
"{  c #61625E",
"}  c #6A7F50",
"|  c #707D51",
" . c #5D5E61",
".. c #5E6163",
"X. c #626364",
"o. c #666866",
"O. c #656669",
"+. c #66696B",
"@. c #6A6B6D",
"#. c #6D706F",
"$. c #71726E",
"%. c #6D6E71",
"&. c #706F74",
"*. c #6F7173",
"=. c #727375",
"-. c #767877",
";. c #757679",
":. c #76797B",
">. c #7B7C7D",
",. c #678149",
"<. c #6B824D",
"1. c #6A854B",
"2. c #70844F",
"3. c #6D8351",
"4. c #728453",
"5. c #748C55",
"6. c #758C5A",
"7. c #7A8D5D",
"8. c #748558",
"9. c #7C935D",
"0. c #78955B",
"q. c #7E9562",
"w. c #7F9B61",
"e. c #7F817E",
"r. c #829465",
"t. c #849A66",
"y. c #869C6A",
"u. c #899D6A",
"i. c #889F67",
"p. c #8F9F78",
"a. c #939F7B",
"s. c #86A26A",
"d. c #8BA26D",
"f. c #83A066",
"g. c #90A46F",
"h. c #8CA372",
"j. c #8BA275",
"k. c #91A374",
"l. c #93AA76",
"z. c #95A67B",
"x. c #95AB7B",
"c. c #99AD7A",
"v. c #9AAC7D",
"b. c #9AAF77",
"n. c #94B278",
"m. c #9DB27E",
"M. c #9BB27C",
"N. c #A0B37F",
"B. c #7D7E81",
"V. c #807F84",
"C. c #7E8183",
"Z. c #828385",
"A. c #868887",
"S. c #848689",
"D. c #86888B",
"F. c #8A8B8C",
"G. c #8D8E91",
"H. c #8F9092",
"J. c #929395",
"K. c #959699",
"L. c #96999B",
"P. c #9A9B9D",
"I. c #96989A",
"U. c #97AA81",
"Y. c #9AAA82",
"T. c #9CA985",
"R. c #9BAD83",
"E. c #9BA583",
"W. c #9CB283",
"Q. c #A2B486",
"!. c #9D9EA1",
"~. c #9FA0A2",
"^. c #A2A3A5",
"/. c #A5A6A8",
"(. c #A7A8AA",
"). c #ABABAD",
"_. c #A6A8A7",
"`. c #AEB0AF",
"'. c #ADAEB1",
"]. c #AFB1B3",
"[. c #B2B3B5",
"{. c #B5B6B9",
"}. c #B7B8BA",
"|. c #BABABC",
" X c #BCBDC0",
".X c #BDC1C2",
"XX c #C0C1C3",
/* pixels */
"z ] r.W.x.v.l.x.M.m.u./ ( d.m.M.l.c.k.] ] r.c.m.M.b.N.c.z.Q.Y.T.E.E.E.a.Y.T.p.U.Y.z.W.x.x.n.n.n.w.( ' l.Q.c.m.v.v.l.c.m.M.x.<.<.",
"` | 7.u.y.x.M.x.y.u.9.) ' q.i.t.c.v.k.] ] 7.u.d.u.t.u.d.u.h.k.z.T.T.T.Y.Y.Y.Y.W.z.k.x.j.h.s.f.s.0.1.<.q.y.t.u.u.k.b.c.d.y.t.3.' ",
"^ _ ] <.<.s.l.d.,.' 1.' 1.<.( ( g.l.u.( ' ] ] ' ( ) ' ' ( r.v.v.x.k.k.x.z.z.R.x.U.W.x.3.' ( ( ,.1.<.' <.} ' ' / q.b.x.5.' <.' ' ",
"] 8.<.' ( d.W.M.' ( 1.<.<.1.( ,.c.N.l.3.6.4.} ] 3.5.2.<.( r.Q.x.R.R.W.W.W.W.W.x.l.W.v.' <.3.<.5.' 3.3.3.} } 3.( 9.M.m.5.( 3.3.3.",
"& h E 3.' 6.0.5.1.1.E g g ( 1.1.5.9.<.7 j h p h h 8 j <.( <.q.4.h.l.l.6.6.7.7.9.y.l.k.] 4.' g g k h k l h l ' ( 4.0.9.2.( 3.k k ",
". # k 4.' ' W ( 1.4.x o o x 3.1.( 1.x @ ; & & & & # 8 4.<.( ' E l.M.x.' ( <.( ( t.M.v.3.' / # # 3 & & : @ 7 ' 3.,.x W 1.<.3.& O ",
"O 3 l 3.' <.1.,.<.3.E ; ; E <.1.( <.( ; 3 3 1 1 5 & p ] ] 3.3.( d.x.x.<.1.<.<.( y.M.l.4.] _ , 3 1 6 i 5 & p ' <.1.1.<.<.] ] 8 3 ",
"- 5 5 3 $ x <.( 3 3 5 & & 3 3 4 ( <./ & 1 i d C i 1 & p 3 5 4 @ ( <.1.4 $ g <.1.1.' ' ' 3./ + 6 d R Y i = : 5 & k <.4.h 3 5 3 & ",
"X q 1 & & ( 4.] 7 % 5 , 5 & 3 # <.4._ 5 2 d C R s < 1 5 & & 7 # / 4.] 3 @ j <.' <.' ( <.4._ & 1 a R R a q 6 1 # l } 8.k % 6 2 1 ",
"X t u 1 3 T / T 6 & 2 1 u = 5 , ] ] T 1 < a C R t 0 w i i 6 5 & z ] ^ 7 # h _ ( / <.<./ / T 3 = V [ D w < q i u Y _ ` p & 6 i q ",
"N D C 2 1 5 , % 2 < s ~ ~ a 2 , + , 6 w q V D K t t a D Y d 2 2 , , , , % 5 & O x ] ] 3 @ 5 1 * V U S r 0 t C Y i & 1 6 u 0 Z ~ ",
"v S V 0 u 1 1 2 w 0 r D C t * q 6 2 2 w 0 N D U 0 e t D D C 0 w 1 1 2 i 1 2 & & ] 4.4.8 & 5 i * V K K v e N R R s q q q w 0 D C ",
"m K K a C u 1 w C S A Q K S N C 2 1 w Z A K K K J A S [ K D V V t 0 a a s a u 6 f f z 5 1 u C t S K K v e v S D V s V t t r [ D ",
"m P K S R a q a V K K K K Q S C w 2 t D S A K J P J K K S K J [ t < a C ~ Y u % 5 + , + 1 i ~ Q J K J v e v J J Q S D V r 0 S D ",
"F  .! Q R a 0 r K K J J J K J [ w q t D Q J K K P K { J K K A K v 0 V S D C q q 6 , 9 , 2 w D S K J J B c m K K J K K v r V K S ",
"F I I K J N r t J K o.>.C.o.J K t t V S { J I I J.P.P.>.e.$.K K A e v K K Q N C 2 6 6 1 2 y U K ! ! ! P H J I K { K K S A J J Q ",
"b L P J ! v e v K A @.Z.F.X.J K r M v J K K H H ^.|.'.S.A.-.I J B e v J J K K R i 2 1 w 0 t K P P H J H I I L P K A J I I K ! K ",
"I +.@.H P H c B J J X.Z.Z.=.H P v M A K P X.@.O.P.~.~.S.S.#.G I v e B I P I K A C * w a 0 N I P O.@.&. .P I I P @.@.@.I P P H I ",
"^._.A.m P I P P o.P X.Z.S.o.G { K A K P J Z.[.'.G.C.S.>.S.*.G ! K A I ! P I J V C % a R C K K H S.'.'.%.J I I m >.).`.;.P X.P I ",
"^.}.F.B P G I H P n o.F.F.X.L I I J { K H Z.}.'.F.B.S.S.F.-.G H K J J H L J J Q a < 0 V S K K G V. X{.O.H P P m >.{.{.@.c H H B ",
"S.P.Z.O.:.I I I @.%.@.*.@.o.L I I J I P L >.!.J.D.Z.S.C.S.@.L H { @.@.@.:.+.J Q N t r V D { =.@.V.P.L.O.L X.>.B.G.P.J.F.>.C.S.Z.",
":.C.D.B.F.+.H ..F.H.=.m L I L L P P X.I H %.Z.:.Z.B.C.C.S.*.P J e.F.Z.e.D.$.A Q r 0 r D A { F.Z.S.B.S.X.F @.[.|.J.>.;.).{.`.[.].",
"=.Z.J.D.D.O.F ..S.D.B.L I I L H P H L L H @.F.F.S.Z.D.S.S.=.L B =.Z.A.A.G.:.K J V r t D A X.D.Z.J.Z.F.@.F o.).'.P.D.>.^.).).).).",
"B.Z.%.I O.O.I L X.X.X.I F Z.!.^.+.H %.!.!.G.D.B.S.C.C.......G ! X.o.X.I X.X.J K N r r S K K o. .o.I o.I I I D.A.Z.Z.>.D.Z.F.A.Z.",
"=.F.=.I  .I P ..F I m  .m !.[.{. .H %.[. XG.B.F.Z.D.B.L H I I G J A P I P P J K B r e K K J H F I H H I m I Z.B.Z.Z.Z.S.>.S.Z.Z.",
">.D.@.L L ..I L @.O.O. .L D.).^.I L %.^.^.K.S.B.B.Z.>.X.J I I P I I +.P X.P I { J e v Q J P @.@.I L P +.X.+.Z.Z.Z.Z.Z.Z.:.Z.>.>.",
"c P  ...I X.P O.'.{.).B.G.X.F H X.H L  .m %.B.D.X.L L J I ..I L K..X).L P I I J K A K ! H @.'.'.Z.P I !.}.).F.V.D.Z.Z.O.J P I P ",
"m P L H F L m  .'.'.!.B.G.X.H X.H L  . .F ;.D.F...P I H L H J L J.[.^.X.L I I H K I I J n X.|.{.D.m J ^.|.^.B.B.D.Z.F.@.H P I L ",
"n L %.:.B.B.:.;.P.^.J.>.Z.=.X.+.O.@.O.L L +.=.%. .L ..:.>.=.P H S.(.I.+.X.+.+.@.! H J >.;.Z.!.!.>.m P Z.F.F.Z.Z.Z.=.=.O.L I I I ",
"n m F.{.[.'.{.{.B.B.B.B.Z.Z.D.Z.D.F.B.L P J P H J H @.|.{.F.m L B.=.>.C.G.S.G.Z.#.G X.).[.).>.Z.;.L I J c L >.F.=.H m I I I I P ",
"m G >.[.[.).'.'.Z.F.Z.Z.G.Z.>.S.C.Z.B.I I J J P I H  .).[.F.F L :.S.F.S.C.>.Z.D.@.F X.^.'.).B.F.%.J P J P O.D.F.=.P L X.I H I L ",
"n ! X.:.=.=.%.=.+.X.X.O.X.:.Z.Z.+.I +.H I P H ! A.J.J.J.F.:.L H X.X...S.S.S.Z.S.+.P I +.;.=.Z.Z.B.;.:.O.I J O.+.o.I ..I P ..H.J.",
"b  .P H m F H H I H I L m =.G.>.L L I L I I P L /. X/.>.S.=.m I L F P Z.Z.D.C.S.@.H J L G P F.Z.D.D.D.o.H I F m J J H L H P {.[.",
"F I L X.+.X.P I P I  .I  .;.D.S.X.L P L P I I L P.).P.Z.Z.:.I ..P J X.>.>.Z.>.Z.o.I I P I X.F.Z.>.Z.Z.X.H  .+.X.@.X...O.X.O.P.).",
"m P B.[.(.*.H  . .X. .I I P P I L  .X.P I I P I >.D.S.Z.C.D.Z.Z.+.L P I P I P X. .P I I I X.Z.S.:.H X.X.L +.^././.(./.)./.!.S.S.",
"m m >.|.'.*.F L G G J P I P P I m H H m L P H G Z.D.Z.Z.:.Z.S.F...P  .P P  .P H P F H P L X.D.G.=.n I I F o.{.{.).[.'.'.[.[.D.:.",
"%.=.D.P.P.=.L I >.B.*.L I  .I P C.:.>.>.:.@.I P @.%.=.G.D.C.=.:.X.P I P P I I I =.B.:.I L X.=.:.@.I X.P I X.F.Z.J.P.K.I.P.P.F.D.",
"(.{.~.Z.Z.X.F @.).|.G.F P ..I L /.'.'.{.'.B.G  . .L I C.Z.@.H P I I I ..P I I P F.XX'.o.P P L L P L I I  .L I F O.>.Z.D.B.>.Z.Z.",
"/.].P.B.D.@.G X.).|.G.F I  .I I '.{.'.[.[.Z.m H I H O.S.G.:.L L L X.L H n H L b S.{.).o.P P I P I I J H m H P P =.S.F.F.Z.C.D.C.",
"Z.D.B.X.o.X.P I F.H.>.L  .I I I @.@.>.G.Z.G.J.J.X.L  .X.X.X.L P I P I G.I.J.J.J.J.G.S. .I L  .J I P L Z.P.D.P I  .X...:.Z.Z.Z.Z.",
":.C.:.L L P H I B.F.=.H L I I I I m ..D.>.K.].).+.J P I H P P P I J I ).).{.{.).J.:.Z.I L L  .P I L P P.XX/.P P P I H >.S.S.B.B.",
":.Z.:.L P ..I  .F.D.@.P P I I P I P +.C.Z.P.).'.@.L L I  .I L I P L  ./.'./.^.'.G.Z.Z.I I I J P L I P J.'.P...L  .P H :.S.Z.D.Z.",
":.D.=.H I >.B.Z.:.F.:.L H G.'.).X.H I I J @.D.B.^.'.!.P F L I H P.{.^.Z.B.S.Z.C.Z.D.Z.B.Z.>.J I  .X.L B.D.Z.>.S.=.I J  .I I >.Z.",
":.D.=.J I Z.D.S.D.D.;. .H J.[.).X.H I I H @.S.B.^.].~.F P P I H P.{.).D.Z.Z.>.Z.D.D.C.S.D.B.F P I P L >.Z.Z.D.S.=.P P I J L S.F.",
"%.B.@.L P %.=.:.:.>.%.P n G.(.!.X... .I  .=.Z.D.!.(.P.+.:.O.J H Z.P.J.D.Z.S.Z.Z.C.C.B.:.>.;.I  .X.J I :.B.:.;.:.=.P P I I I >.=.",
"c J L I I P H J F H I X.H :.B.Z.I P L L L %.Z.Z.>.>.S.'.{.D.H X.m F J >.Z.D.C.Z.D.D.Z.I G J P P I I  .G m P P F I L P  .I L I H ",
"F I P L P L I ..o.I L m n :.Z.D.J H I P P =.F.Z.D.Z.S.'.[.J.L L X.I  .S.D.D.S.Z.>.Z.D. .L P  .L P H J I X.L I  .J I L H H J J I ",
"b I X.P I I X.P L L =.J.G.G.>.Z.F.F.C.P P X.=.@.S.>.Z.P.P.;.H X. .I P =.@.X.*.@.>.B.B...I I I H >.J.F.o.P J X.H =.F.D.H.F.Z. .P ",
"J J J P J P P J P n ;.{.{.J.Z.Z.`.|.P.H I J H H >.Z.Z.>.Z.@.H X.J H J J H P P H ;.Z.Z.I J P P H Z.|.[.+.m I J H Z.}.[.}.}.).P J ",
"c I I P I X.J I I P ;.)./.F.:.>.^._.J.P I P I J Z.>.Z.Z.D.;.J H P I I J X.X.J P =.Z.>.X.P P X.P Z.).).+.J U P H :.).^./.)./.P J ",
"m ..:.^.P.*.m X.^.^.K.F.Z.Z.Z.D.X.X.@.L I L  .J I X.X.I I I P H D.(.^.>.>.*.I I I X.I I I @.^.^.G.Z.S.>.Z.=.P I %.F.Z.S.D.F.P L ",
"c n :. X{.=.m o.).[./.>.C.Z.D.Z. .m J J L H I I  .L L I L L I J P.}.).Z.F.>.I L I L L H m O.[.}.P.>.B.Z.F.Z.P H %.C.B.S.S.Z.I L ",
"X.%.D.!.!.*.L I !.~.K.>.D.C.S.D...P X.@.@.+. .L I P I ..I I  .H F.~.P.D.Z.@.L I I P  .=.@.>.!.^.G.Z.D.:.%.;. .L =.Z.S.>.=.=.I J ",
").].P.>.Z. .F ..C.Z.B.B.Z.S.C.S.X.m @.{.}.>.m ..I I  .I L L L H >.Z.B.>.Z.:.I P I J P ~.'.^.>.Z.D.:.S.X.I L P P @.C.S.X.H I I J ",
"~.'.P.S.G.+.G ..S.D.C.S.B.S.C.C. .L =.].'.C.F L I F G L .. .L  .:.D.S.S.S.:.P P ..L P (..X'.C.S.D.S.D. .L L P F %.C.D.O.L  ...P ",
"S.K.S.+.@.O.P  .*.%.;.C.S.C.S.S...L +.P.K.S.%.;.S.J.D. .G ..P L O.*.%.C.S.:.L  . .P  .:.:.;.*.O.:.C.S.O.P ..*.;.B.C.S.O.P  ... .",
";.S.+.L G  .I P I G +.S.C.S.C.S...G ..S.>.:.D.G.).]./...L  .L ..L  .L S.S.>.P P  .P  .L F L ..G ;.S.D...L ..C.S.S.C.S.+.I G  .P ",
":.S.*.L P I P P P L +.C.C.S.C.S...L %.S.S.C.G.C.!.{.~.G P P P L  .L ..S.B.B.I P L P P P L P G P =.D.G.O.L O.S.D.S.D.D.O.L P  .G ",
":.D.D.>.C.@.P I  .F O.D.D.@.L X.I L ..I X.%.D.;.F.B.F.^.].Z.I L ..G P X.I X.L P X.H P P.'.P.L I I P I I P P I P L I P X.I X.^.^.",
">.S.F.D.S.@.F I  .L @.C.S.o.H P L P I F J @.F.C.Z.S.G.^.{.D.c  .L I I P P I P L I F I ^.{.!.F H I  .I I P .. .P J  .I I m L [.).",
"=.Z.S.B.>.@.H I I F X.Z.F.X.H  . .L I O.+.%.Z.D.D.:.F.P.[.S. .+.L P I L I I P H +.O.+.J.).K.H X.I  .I P F P I I  .L L X...;.~.^.",
">.Z.*.L F I P ..P I I J I P I P L H %.[.{.J.>.Z.D.B.D.D.>.G.}.}.=.G  .P L  .P P F.|.).S.Z.>.F P I P L ..I I L L ..H H ^.|.).Z.D.",
";.>.@.J H J P J J H H H J H J J H H +./.).J.:.>.>.Z.:.>.:.J.).).+.n P J H P H m J.).^.D.Z.:.J J H J J H m J J H J J n F.).^.Z.Z.",
"                                                                                                                                "
};
