/* XPM */
static char *_382e095b255416bbb4d23ad6b95a229[] = {
/* columns rows colors chars-per-pixel */
"64 64 158 2 ",
"   c #5F361A",
".  c #5F3B1D",
"X  c #61371A",
"o  c #63391A",
"O  c #6C3D1C",
"+  c #773E17",
"@  c #773E18",
"#  c #6D411E",
"$  c #74431E",
"%  c #7C461F",
"&  c #7B481F",
"*  c #6B4322",
"=  c #744421",
"-  c #7B4720",
";  c #744923",
":  c #7B4821",
">  c #7F512B",
",  c #75642B",
"<  c #7F6C2F",
"1  c #747227",
"2  c #7D732F",
"3  c #777C2B",
"4  c #7B7D2E",
"5  c #7C6C33",
"6  c #7E7231",
"7  c #81441D",
"8  c #814B25",
"9  c #884D26",
"0  c #854E29",
"q  c #8D4F29",
"w  c #805A25",
"e  c #86502B",
"r  c #8B532D",
"t  c #95552F",
"y  c #875332",
"u  c #8E5631",
"i  c #865C36",
"p  c #8D5934",
"a  c #8F563C",
"s  c #8D5B3A",
"d  c #915732",
"f  c #995733",
"g  c #915833",
"h  c #995934",
"j  c #93563C",
"k  c #98573E",
"l  c #945B3B",
"z  c #9A5D3A",
"x  c #81632F",
"c  c #866334",
"v  c #886033",
"b  c #826B33",
"n  c #97603F",
"m  c #9D613D",
"M  c #817231",
"N  c #857934",
"B  c #A1623E",
"V  c #AB653F",
"C  c #965C40",
"Z  c #9C5E41",
"A  c #9D6241",
"S  c #A36542",
"D  c #AB6641",
"F  c #A66844",
"G  c #AB6B46",
"H  c #A8664B",
"J  c #A56E4A",
"K  c #AC6C49",
"L  c #B26944",
"P  c #B26C48",
"I  c #A5704C",
"U  c #6A9D19",
"Y  c #66A61B",
"T  c #69A51E",
"R  c #64AA1E",
"E  c #68A91E",
"W  c #74A41E",
"Q  c #78A41D",
"!  c #70AF1B",
"~  c #7AAA1E",
"^  c #7C8226",
"/  c #74842C",
"(  c #7A862D",
")  c #778D2B",
"_  c #798B2D",
"`  c #6B9625",
"'  c #6D9D22",
"]  c #6F9F2D",
"[  c #749427",
"{  c #719F25",
"}  c #759429",
"|  c #7A932D",
" . c #739D2A",
".. c #799C2C",
"X. c #7E8232",
"o. c #7D8A31",
"O. c #6EA324",
"+. c #6EA129",
"@. c #71A224",
"#. c #79A624",
"$. c #7CA923",
"%. c #73A22A",
"&. c #7CA22A",
"*. c #84AC1C",
"=. c #82842A",
"-. c #808131",
";. c #82AC22",
":. c #83A728",
">. c #85B124",
",. c #8BB324",
"<. c #87B921",
"1. c #8BB428",
"2. c #91B725",
"3. c #94BB25",
"4. c #9CBF27",
"5. c #91B32B",
"6. c #93BA29",
"7. c #99BD29",
"8. c #9CC126",
"9. c #9DC12A",
"0. c #A3C425",
"q. c #A2C62A",
"w. c #A7C82B",
"e. c #ABCB2C",
"r. c #B4CE23",
"t. c #B4CF29",
"y. c #B4CF2A",
"u. c #B3CF2C",
"i. c #B4CF2D",
"p. c #B8CF28",
"a. c #AFD12C",
"s. c #B3D027",
"d. c #B3D028",
"f. c #B3D02A",
"g. c #B2D12C",
"h. c #B9D32A",
"j. c #BAD32A",
"k. c #AFCF32",
"l. c #B2CF33",
"z. c #AED034",
"x. c #B2D232",
"c. c #B8D332",
"v. c #B8D430",
"b. c #C2D93E",
"n. c #BFDA45",
"m. c #BBDA4C",
"M. c #C0D943",
"N. c #C0D945",
"B. c #C7D951",
"V. c #C5DB57",
"C. c #C7DA56",
"Z. c #CADC53",
"A. c #C7DF5B",
"S. c #C7DE5F",
"D. c #C8DE5A",
"F. c #C8DE5F",
"G. c #C4DF63",
"H. c #C8DE61",
/* pixels */
"B.Z.D.b.r.r.r.r.r.r.r.0.*.U ^ w k D D D V D D f r r r q q r r r r r r r r r 8 @ @ @ @ @ @ @ @ @ @ @ @ @ @ @ @ @ @ @ @ @ + + + + ",
"C.D.S.M.t.s.d.s.d.t.s.j.w.! | < k G K K K G K S d g d z z g g g g g g g g g r - - - - - - - - - - - - - - - - - - - - - - - - 7 ",
"C.D.H.N.u.d.t.d.d.t.g.d.g.<.) 5 C K K K K K K G z u u S m g u g u g g u g g u : - - - : : % - - - - - - - - - - - - - - - - - % ",
"C.D.F.N.u.d.d.d.d.t.d.t.c.3.| , k K K K K G G K G m g g g u g g g g g g u g g 0 % % : d u : % - - - - - - - : = O $ : : - - : % ",
"C.A.S.N.u.t.d.d.d.t.g.t.v.7.@./ e m K G K z g S K K S g u g g u r u g g g d g u : % : u r : % % - - - - - - : = O = : - - - : % ",
"C.A.S.N.u.t.d.t.t.d.i.d.g.5.Y  .< l G K K l u m K K K m u u g r : r g u d d g g e % % : - % - - - - - - - - % : - - - - - - : % ",
"C.A.S.N.u.t.d.i.t.d.u.d.q.&.O...M s F K K F B G K K K S g u g u r u g r 8 8 r g u : - % % - - - - - - - - - - - : - - - - - : % ",
"C.A.S.N.u.t.d.t.t.d.d.e.>. .R  .b s G K K K K K K K K m u g g g g g g 9 % % 8 g u 8 % - - - - - - - - - - - - - - - - - : - : % ",
"C.A.S.N.u.t.d.d.d.d.d.e.;.O.%.o.s A K K K G G G K K K z u g g u g g g 0 - % 0 g u 8 % - - - - - - : % - - - : - - - - - - - : % ",
"C.A.S.N.u.t.d.d.d.d.s.g.7.O.( x Z K K K K K K K K K F g u g g g g g g d r r d g u : % - - - - - - % % - - - - - - - - - - - : % ",
"C.A.S.N.u.t.d.d.g.u.d.d.9.O.) < C G K K G G K K K K m u g g g g g g g g g g g g 0 % % - - - - - - - - - - - - - - - - - - - : % ",
"C.A.S.N.u.d.d.d.g.u.g.g.,.+.O.| c z K G z S K K K F g u g g g g g g g g g g g r - - : - - - - - - - - - - - - - - - - - - - : % ",
"C.A.S.N.u.t.d.d.t.d.e.6.@. .T @.( i S G F G K K G l u g g g g g g g g g g g r : % 0 u u 8 % - - - - - - % : $ o O $ : - - - : % ",
"C.A.S.N.u.d.d.d.d.t.w.;.' @.O.@.} i Z K K K G B g u g g g g g r 0 r g g g u : % : u g g r - % - - - - - % : O   X $ : - - - : % ",
"C.A.S.N.u.d.d.d.d.d.d.w.;.' O.@.} i Z K K F z d u g g g g g u 8 % : u g g 0 % % : r g g e % % - - - - - % : $ o O $ : - - - : % ",
"C.A.S.N.u.t.d.t.t.d.d.g.3.{ T @.( i S K S g u g g g g g g g g 8 % 8 u g d 8 % - - 8 r e : % - - - - - - - - : - - - - - % - : % ",
"C.A.S.N.u.t.d.t.t.d.d.d.8.@.E ..b l G G g u u g g g g g g g g u r u g g g 8 $ - - % % % % - - - - - - - % - - : % - - - % - : % ",
"C.A.S.N.u.t.d.d.d.u.d.g.2.O.| M C F K S u g g g g g g g g g g g g g g u g r : % - - % - : - % - - - - % % - - - - - - - - - : % ",
"C.A.H.N.u.t.d.d.d.u.d.e.;.` 2 s H K K G g u g g l S g u g r 8 8 r g g u g g r : % - - - - 0 0 - - - - - % % - - - - - - - - : % ",
"C.A.H.N.u.t.d.g.d.d.d.g.7. .| N l S K K S d u g g z g g u 8 % $ - r g g g g g r : % - - - u r - - - - - - - - - - - - - - - : % ",
"C.A.S.N.u.t.d.u.t.s.t.d.a.>.Y  .2 s S K K S d u g d g g u : % : % r g g g g g g r - % - - 8 : - % - - - - - - - - - - - : - : - ",
"C.A.S.N.u.d.d.u.t.d.g.d.v.2.' +.[ i Z K K K S g u p p g g 0 - % 8 u g g g g g g g e : : - - : % - - - - - - - % & - - - % % : % ",
"C.A.S.N.u.t.d.g.d.t.g.d.g.1.' +. .5 l G G K K G z g d u g u r r u g g g g g g g g g 0 - - - - - - % - - - - - - : - - = O O = - ",
"C.A.S.N.u.d.d.d.d.t.d.j.e.$.O.O. .2 l G G K K K K S g u g g g g g g g g g u r 0 r g u 8 - - - - - - - - - - - - - - % O X X o % ",
"C.A.S.N.u.d.t.d.d.u.t.e.1.O.O.O. .b l G G K K G S S S g u g g g g g g g g 0 - % - e g e % - - - - - - - - - - - - - $ o o o o $ ",
"C.A.S.N.u.d.d.t.t.d.e.,.O.{ O.@.[ i A K K K G z d d m F l u g g g g g g u : % - % : u r - - - - - - % - - - - - - : - # o o O % ",
"C.A.S.N.u.t.d.t.t.d.u.q.$.+.O.| b z G K K K F g u p d F S g g g g g g g u - % - % : u r - % - - - : - - - - - - - - - - $ $ $ % ",
"C.A.S.N.u.t.d.d.t.g.d.j.9.O.{ 3 a F K K K K F g u u g G G l u g r e u g u 0 % % - e g e % - - $ $ $ - - - : - - - - - : : - : % ",
"C.A.S.N.u.t.d.g.d.d.d.d.e.$.O.o.i A K K K K K S l g S K S g g g 8 - r g g u e 0 r g u : % - - # o o = : - - - - - : - - - - : % ",
"C.A.S.N.u.t.d.t.d.d.t.d.e.:.Y  .b s G G G G K K G G K K m d g g r e u g g g g g g g 8 - : : - $ o o $ : - : - : - - - - - % : % ",
"C.A.S.N.u.t.d.t.t.d.t.j.q...Y %.6 s G G g B K K K K K S g u g g g g g g g d g g g r : % e 0 - = $ $ - - - : - - - - - - - % : % ",
"C.A.S.N.u.t.d.d.t.d.t.w.;. .O...b l G G m F K K K K G g u g g g g g g g g g g g g r : - 8 : - - - : - - - - - - - - - - - % : % ",
"C.A.S.N.u.t.d.t.d.d.u.6.O.O.@.( s S K K K K K K K K m u g g g g u u g u g g g g g d 8 - - - - - : - - - - - - - - - - - - - - % ",
"C.A.S.N.u.t.d.d.d.t.d.k.,.O.-.v S K K K K K K K G K m u g g g g u u g g g g g g g g r : % - - - - - - - - - - - - - - - - - : % ",
"C.A.S.N.u.t.d.d.t.u.d.g.4.O.X.c S K K K K K K K K K S d z G S g u u g g g g g g g g g 0 % - - - - - - - - - - - - - - - - - : % ",
"C.A.S.N.u.t.d.d.t.d.t.g.4.O.O._ s A K K G K K K K K K z z K S g d g g g u u u g g g g u : % % % - - - - - - - - - - - - - - - % ",
"C.A.S.N.u.t.d.d.d.d.d.e.,. .E ..b s G K K K K K K K K F l z z g g g g u 0 : : 0 d g g g 8 % - - - - - - - - - - - - - - - - : % ",
"C.A.S.N.u.t.d.d.t.d.t.3.@. .T %.6 s G K K K K K K K K K m u g g g g g r : % % - r g g g 8 % - % % - % - : - % : : - - - - - : % ",
"C.A.S.N.u.t.d.t.t.d.u.9.@. .T  .b s G K K S z z F K K K S u u g g g g r : % - % r g g e - - % 8 0 : - : - : : : : - - - - - : % ",
"C.A.S.N.u.t.d.t.t.g.d.g.2.%.O.) i n K K F g u u z G K K m d u g g g g u 8 % - : u g r : - - % 0 r : - - - $ O O $ % : - - - : % ",
"C.A.H.N.u.t.d.d.d.u.s.g.9.O.o.c Z K K K B u u u g F K G g u g g g g g g u 0 0 u g e : % - - - - - - - - # o o   o O - - - - : % ",
"C.A.S.N.u.t.d.d.d.u.d.g.7.O._ b Z K K K F g u u l G K z u u g u g g g g g g g d 0 - % - - - - - % - - $ o o o o o o $ - - - : % ",
"C.A.S.N.u.d.g.t.d.d.d.e.*.+.O.) c A G K K S z z G K B u d g g g g g g g g g r : % - - - - - - - - - - O o o o o o o O : % - : % ",
"C.A.H.N.u.t.d.t.t.d.d.e.,.] R %.4 s S K K K G K K S g g g g g g g g g g u e : % - - - : - - - - - - : O o o o o o o O : % - : % ",
"C.A.S.N.u.t.d.u.t.d.d.g.e.$.O.O.[ i Z G G K K K S g u g d u g g g u g d 0 % - - - - - - % - - - - - - = o o o o o o = : - - : % ",
"C.A.S.N.u.t.d.u.t.d.g.d.g.1.' %.} i A K K K K S g d g u 8 - r g g g g e - - - - - - - : - - - - - - - - # o o o o # - - - - : % ",
"C.A.S.N.u.d.d.t.t.d.u.d.v.5.T %.( i S K K K S g m l g u - $ 0 g g g u 8 - - : : : - : - - - - - - - - - - $ O O $ : - - - - : % ",
"C.A.S.N.u.t.d.t.t.d.i.d.a.1.T  .b l G K K G g u l g g u e 8 r g g g d 8 % - 8 d u : - - - - - - - - - - - : : : : : - - - - : % ",
"C.A.S.N.u.t.d.d.d.u.g.j.9.%.| N l F K K K F g g d g g g u u g g g g g r : % 0 g d 8 % - - - - - - - - - - - - - - - - - - - : % ",
"C.A.S.N.u.d.d.d.d.t.e.6.#.` 1 i H K K K K G g u g g g g g g g g g g g g r : - 0 8 - : $ $ - - - - - - - - - - - - - - - - - : % ",
"C.A.S.N.u.d.d.d.d.d.e.1.@.{ _ < z F K K K K m u g g g g u g g g g g g g g u 0 : % % - $ % : - - - - - - - - - - - - - - - - : % ",
"C.A.S.N.u.t.d.d.d.d.d.g.2. .E  .6 s G K G K G l u g g g g g u g g g g g g g g u 8 % : - : - - - - - - - - - - - - - - - - - : % ",
"C.A.S.N.u.d.d.t.d.d.t.g.w.#.T O.} i Z K K K K G g u u g g g g g g g g g g g g g u : % - - - - - - - - - - - - - - - - - - - : % ",
"C.S.H.N.u.d.d.t.t.d.d.d.e.;.' O.{ b l H G K K K S g d g g g g g g g g u e 8 8 r g e : - - - - 9 r 8 - - - - - - - - - - - - : % ",
"C.A.H.N.u.t.d.d.d.d.t.j.e.#.O.O...6 s H G K K K K m g d g g g g g g g e - % $ - r u : % - % : r l r % - - - - - - - - - - - : % ",
"C.A.S.N.u.t.d.d.d.d.d.x.6.O.@.O.O.b l G G K K K K S d g z S l d g g u 8 % % - % 8 u 0 - - % - 0 r 8 % - - - - - - - - - - - : % ",
"C.A.S.N.u.t.d.t.t.d.t.3.W  .O.@.} i A K G K K K K F d g m G z u g g u : % - - % : g r : - - - - - - - - - - - - - - - - - - : % ",
"C.A.S.N.u.t.d.t.t.d.t.9.#. .O...b l G K K G K K K S d g g g g g g g u 0 - % % - e g u - - - - - - - - - - - - - - - - - - - : % ",
"C.A.S.n.d.t.t.d.d.d.d.g.3.O. .4 j S G G K K K K G l g g g u u g g g g u 0 : : 0 u g u - - - % - - - - - - - : - - - : - % - : % ",
"C.S.H.n.g.t.g.g.d.g.d.g.9.O.O._ s n l l S K K K n u u g u u u u u u u g u r r u g g e : % : : % : : - - - - = O O = : & - - : % ",
"C.D.S.n.t.t.d.d.d.d.t.g.3. .T ..b y u r A K K B d d g g g g g e - 8 u g g g g g r 0 : % % % - % & % % % - - o X X O % % - - - % ",
"C.D.F.M.t.r.s.t.t.s.p.q.~  .T ..M p z B G P G h d g g d d d g 9 % - r g g d d r 8 % % 0 e 8 % - % - - - - % o X X O % % % % - 7 ",
"S.H.G.m.l.k.x.x.x.z.l.9.O.] R +.5 s J J I K J s s s s s s s s i > e s i s i s : ; ; ; s i > ; ; ; ; ; ; ; ; # . . * ; ; ; ; ; : ",
"B.Z.D.b.r.r.r.r.r.r.d.0.Q { @.=.u B L L L L D f t t f f t t t t f f t t t f q % % % % 9 r 7 % % % % % % % % % $ $ % % % % % % 7 "
};
