/* XPM */
static char *_e311e8737854f8bb88d0fe266068718[] = {
/* columns rows colors chars-per-pixel */
"64 64 184 2 ",
"   c #010101",
".  c #293A10",
"X  c #303F18",
"o  c #353C23",
"O  c #2D4410",
"+  c #3A451C",
"@  c #364A1C",
"#  c #394B1D",
"$  c #35461A",
"%  c #39501C",
"&  c #3C4622",
"*  c #3D4B23",
"=  c #3D442D",
"-  c #3E4C2A",
";  c #374220",
":  c #3E5223",
">  c #3F5129",
",  c #3E413A",
"<  c #424D25",
"1  c #41452C",
"2  c #444C2C",
"3  c #494F2E",
"4  c #415326",
"5  c #44532C",
"6  c #49522D",
"7  c #45592B",
"8  c #495C2D",
"9  c #445625",
"0  c #434633",
"q  c #464B33",
"w  c #494D33",
"e  c #43453C",
"r  c #45493A",
"t  c #4A4D3A",
"y  c #504F3B",
"u  c #475132",
"i  c #4B5334",
"p  c #4C5C32",
"a  c #4D523B",
"s  c #51573C",
"d  c #535A3C",
"f  c #515E32",
"g  c #4C622D",
"h  c #4E6234",
"j  c #516335",
"k  c #54693B",
"l  c #59673B",
"z  c #5B723D",
"x  c #5C783E",
"c  c #3F4042",
"v  c #434445",
"b  c #4B4D44",
"n  c #454649",
"m  c #4B4C4D",
"M  c #474849",
"N  c #4E5143",
"B  c #4F504C",
"V  c #525544",
"C  c #555A43",
"Z  c #585E44",
"A  c #53554D",
"S  c #56594C",
"D  c #5A5C4D",
"F  c #4D4E51",
"G  c #4E5153",
"H  c #535454",
"J  c #565954",
"K  c #5A5C54",
"L  c #555659",
"P  c #57595B",
"I  c #5A5B5C",
"U  c #585657",
"Y  c #605F4D",
"T  c #615F52",
"R  c #5B6245",
"E  c #5C6D43",
"W  c #5D624C",
"Q  c #5F7442",
"!  c #5F7A41",
"~  c #5E6154",
"^  c #5E615C",
"/  c #606D42",
"(  c #60654E",
")  c #637644",
"_  c #647B45",
"`  c #687C47",
"'  c #66764A",
"]  c #657C4A",
"[  c #6A7D4C",
"{  c #6A7749",
"}  c #626353",
"|  c #61625C",
" . c #6C7E51",
".. c #717E52",
"X. c #5D5E61",
"o. c #5E6063",
"O. c #626364",
"+. c #666866",
"@. c #656669",
"#. c #67696B",
"$. c #6A6B6D",
"%. c #6D706E",
"&. c #70726E",
"*. c #6D6E71",
"=. c #6F7174",
"-. c #727375",
";. c #757679",
":. c #76797B",
">. c #7A7B7D",
",. c #767877",
"<. c #678049",
"1. c #6B824C",
"2. c #658147",
"3. c #6D8451",
"4. c #6D8851",
"5. c #728454",
"6. c #748B56",
"7. c #748C5B",
"8. c #798C5D",
"9. c #758558",
"0. c #759157",
"q. c #76925A",
"w. c #7C955D",
"e. c #7D9461",
"r. c #7F9B61",
"t. c #829465",
"y. c #849B66",
"u. c #869C6B",
"i. c #8A9E6B",
"p. c #899B67",
"a. c #81827E",
"s. c #8F9F75",
"d. c #84A168",
"f. c #8BA36D",
"g. c #8DA374",
"h. c #8FA777",
"j. c #92A472",
"k. c #94AA76",
"l. c #99AE77",
"z. c #94A47D",
"x. c #95AA7B",
"c. c #9AAD7C",
"v. c #96B27A",
"b. c #9AB17C",
"n. c #9FB87F",
"m. c #A0B37F",
"M. c #7D7E81",
"N. c #7F8183",
"B. c #828385",
"V. c #868887",
"C. c #848689",
"Z. c #86898B",
"A. c #8A8B8D",
"S. c #8E908F",
"D. c #8D8E91",
"F. c #8E9092",
"G. c #929394",
"H. c #959897",
"J. c #959699",
"K. c #97989B",
"L. c #9A9B9D",
"P. c #9AA682",
"I. c #9AAB82",
"U. c #9CB283",
"Y. c #A0AF88",
"T. c #A1B484",
"R. c #A3B389",
"E. c #9D9EA1",
"W. c #9FA0A2",
"Q. c #A3A4A5",
"!. c #A5A6A9",
"~. c #A7A8AB",
"^. c #ADADAD",
"/. c #ABACAD",
"(. c #ADAEB1",
"). c #AFB0B2",
"_. c #B0B1B2",
"`. c #B2B3B5",
"'. c #B5B6B9",
"]. c #B7B8BA",
"[. c #BABABC",
"{. c #BEBFC2",
"}. c #BEC0C2",
"|. c #C1C1C3",
/* pixels */
"1.] _ 3.h @ 5 * 2 2 } C D D K ^ K I I B N._.^.V.B.>.P I I P H G.).~.B.>.V.B.N.B.N.B.B.A.-.G I L U U L L H U P X.I G W.^.Q.V.>.  ",
"[ 3.1.3.h @ 8 5 3 i D D } D K A ^ H K H B._./.V.e.>.I I I I I G.[.E.Z.Z.V.V.Z.B.M.V.>.B.>.I L o.P P P I I I o.X.X.o.Q.`.W.N.B.  ",
"c.y.] 3.3.3. .5 5 3 q 1 0 0 V K K J | H N._.^.S.A.B.P I I I H X.U @.E.'.J.>.B.B.B.B.I U I L H B._.!.A.B.-.I X.P G X.O.H -.^.W.  ",
"c.y.] _ _ [ [ 4 & & i t t t r V I I K v >.`.~.B.>.:.L U U P I I H @.Q._.K.N.B.B.A.V.I H I I H D.].!.V.B.-.H L P P H I F X.[.^.  ",
"T.f.6.6.4.1.1.h j p 6 q t N b D K ^ ,.%.A./.Q.A.A.B.@.$.#.I O.P H #.^.`.L.V.A.>.>.;.X.I I X.H F.].~.V.V.>.@.@.o.*.@.O.I o.!.A.  ",
"l.c.b.n.w.x 3.3.9.' 2 w V D K K U $.).`.G.,.>.>.M.B.V.A.-.m P O.L X.!.(.J.V.A.X.H H H P P P U A.^.Q.B.M.V.V.Z.C.Z.Z.L I L G M   ",
"j.k.l.b.q.x 1.1. .' & 2 a D K K A $.!.`.L.a.A.B.V.B.B.B.-.H P I H O.!._.K.>.Z.O.I P I P P U I A.].^.A.N.B.N.N.N.N.Z.I o.L H U   ",
"c.j.e.w.6.<.1.j k E i d V ~ K | U $.>.>.A.G.L.V.B.B.V.V.B.-.-.@.H *.!./.G.@.-.o.L X.-.-.,.I H -.B.>.$.*.-.$.*.M.C.C.L H X.o.P   ",
"b.u.) _ ] 3.1.@ * u R W D K K K P U m m >.[.(.V.N.B.B.B.B.A.A.@.m O.!.].V.m P I P H A.V.;.F o.H H H I H L L F -.C.Z.I P X.L m   ",
"c.u.] 3.] _ _ 5 * u C D D J K I U P I I >._.^.A.B.B.A.>.V.>.V.$.H @.W.`.A.I P L L O.>.V.,.I P O.U P P L X.I P =.N.C.I I I L U   ",
"c.y.]  .k 7 p > 5 u a N b b m U I I I P X.$.O.I P $.~.Q.F.L @.H P O.@.O.O.P H A.Q.L.B.B.>.I L L I O.-.B.;.L G o.X.o.P O.I X.P   ",
"T.u.[ [ h @ * - q 0 0 e e e v H I I U H P H G I m O.].].A.v I X.H L P H I I m L.|.^.A.B.M.m O.L M U B.A.*.X.L P L P I P m I m   ",
"k.e.[ 3.k > 5 i a t r t B b B I U I $.@.@.O.@.I I $.Q.!.B.H U O.O.O.O.X.P X.H V.L.G.B.>.>.H I @.$.$.>.Z.;.O.P @.I @.I I I o.H   ",
"] 1.] 3.j * i R W D D K K J J ^ U *.(.].K.V.A.@.H L I L U I P >.A.V.O.I X.I U U P I L P I O.H A.^.^.Z.M.A.Z.A.C.Z.F.I P I L U   ",
"_ <.1.3.h * u R W } T K K K J ^ H $._.[.L.>.V.P U L L F m P H -.V.M.H M X.P I P L I X.I H X.H J.[._.B.>.B.>.B.N.B.Z.P X.o.I U   ",
"r.0.<.[ j 4 5 d i C V V S K K ^ P $.V.M.B.V.G.$.I I B.Z.>.,.$.B.A.>.>.*.$.L I I I U X.I O.I I >.B.V.D.L.D.V.Z.:.;.=.I I P I H   ",
"v.d.2.6.g # 4 6 2 - = = t K D K I P H H $.B.V.X.F $.).'.E.B.A.C.B.B.V.G.;.U P L P P I L X.P L H H P W.'.Q.B.C.@.G P I H O.I H   ",
"v.y._ 3.g # * $ * - 5 a C ( Y T I I P K -.A.A.@.H $.^.[.W.:.M.N.A.A.B.B.-.P I X.X.L U F I P X.I U O.W.`.E.>.N.=.X.G L m H F P   ",
"v.d.! 1._ ) ' ' ] E 5 2 3 w w y t B K K | | +.I H I $.O.B././.;.U @.o.O.O.P L H L X.M.>.-.H P I I I $.@.>.Q.).=.L P E.L.K.;.>.  ",
"x.h.] 3.9.[ )  .9.Q @ & 5 3 3 w 0 0 S D D S S K I H A m :.(.(.-.H X.I L L L P X.L I B.Z.M.H L I U U P F $.^.}.M.G G ^.`.(.B.V.  ",
"x.d.[ _ [ 3.9.1.3.) 4 7 4 + < 2 w a W V V D D S S ^ ^ J >.).!.#.H P I P I @.@.I P X.N.B.;.L X.O.I @.I H -.!.(.;.H P L.Q.G.V.A.  ",
"U.x.x.c.k.c.x._ ) 1.[ 5.l < 5 i 2 w a q 0 0 t r r B K I U o.o.P P I I H ;.).^.A.V.B.B.N.N.B.V.M.V.>.I H X.I L o.X.P P I $.^.Q.  ",
"x.h.U.U.x.b.b.[ [ 1.[ 5.f + < 6 2 1 = = t 0 r r e e A I H G H I G P P F B.}.`.D.:.B.B.V.M.A.B.M.V.A.@.L P U G P P P H G @.].^.  ",
"I.x.I.h.g.y.y.1.1.) z ' j 6 6 3 i C C a N r V V V A K ^ I =.$.@.$.#.o.U -.D.V.G.F.G.N.Z.M.A.>.>.,.-.P X.P I o.I X.G O.I @.D.G.  ",
"P.Y.x.x.e._ _ 1.[ _ $ & 5 & 3 Z D S V ~ ~ ~ K K I I J B %.B.A.B.V.B.@.G I P v J.(.(.M.N.B.B.B.$.H P I H I I P X.L P L U H P m   ",
"s.I.I.U.8._ 3.1.1.) * * i u q a ~ K K J A A J H H I ^ I #.D.V.B.M.>.I P I I L G.`.W.Z.>.B.>.Z.-.P P I X.H I L G P X.L I P P m   ",
"U.I.z.U.8.[ 3.8 j j 6 3 a Z C ~ K I I J +.&.>.O.P P L I @.Z.:.A.V.B.I X.I I H G.[.!.Z.B.A.V.V.@.P | $.>.$.>.:.:.>.M.O.P I X.P   ",
"P.I.x.U.7.] 3.: # # & 2 V } D K H P P H ,.A.F.@.P O.P H @.F.N.N.B.M.I P P I M J.!.(.>.V.B.V.V.$.H O.>.A.V.V.N.N.N.M.I P I L m   ",
"z.I.x.I.7.] 3.9 : 7 2 i a V S K J I ^ H %.B.V.I I U H O.#.N.B.Z.B.M.X.L P o.H G._./.B.A.B.>.B.-.H P >.N.V.>.C.N.C.C.O.P L P U   ",
"P.I.z.I.k.v.v.<.[ / < 3 a a V b b B I U $.V.Z.O.P #.^.!.J.>.A.o.P O.P X.I I L P P I Q.^.F.H X.I P I Q.(.E.>.C.#.L o.I I I I P   ",
"P.I.z.I.k.v.v.1.5.{ 6 2 q 1 0 e , e H K $.A.B.+.B I [.`.Q.;.Z.@.H U P L P P O.P P H `.'.L.F X.I H I !.'.E.B.Z.=.I H H I L H m   ",
"P.P.x.U.g.k.f._ ) l < 2 t t b V B m K I | a.-.^ J ^ H.J.B.M.:.@.L P $.X.@.P L I I P J.L.B.F o.X.U P A.L.A.>.:.#.L X.o.L L -.$.  ",
"I.z.I.x.7.z _ @ # * 3 t V } K I H ^ ^ H H J G o.G P H H H P P G X.o.B.A.;.P L P P I H H H @.L O.O.H H H H H o.L o.G L X.@.].^.  ",
"I.g.I.T.e.] 3.4 7 5 u q V D A K I G G G H P H G ^ I ^ J P m m L m P M.Z.-.H P L P U X.I L m H H H U P P o.U L P L P I v o.`.!.  ",
"R.s.t.t.1._ 3.5 & 5 d C D K K &.:.$.-.:.$.%.-.o.I P @.H -.A.D.;.-.:.A.V.B.$.;.o.L I P L #.A.G.-.$.,.X.H I L X.@.X.L B.B.A.D.G.  ",
"j.u.] ) ] 3.[ 4 < i R D K D K a.V.B.B.A.B.Z.Z.@.H G I H >.`.`.A.V.V.N.;.V.B.D.O.L O.F I ,.'.).L.B.V.I L I L o.G L P ).'._.>.>.  ",
"c.j.[ 1.1.9.[ 8 2 i W D } K H >.Z.C.>.N.N.N.B.o.I @.U H ;.{.^.A.>.B.B.V.G.B.Z.o.L I U F #.`.(.K.B.B.I I o.I L X.o.G Q.~.K.V.>.  ",
"m.p.[ 5.j 7 p & 3 w a r A K | L.(.W.Z.B.C.N.Z.B.>.>.L I o.$.I J.!.L.B.N.-.I @.X.I L W.Q.L.B.V.V.V.B.O.U I I G A.~.!.D.D.D.Z.>.  ",
"l.y.` 9.8 # < < 1 1 t 0 A H I L.[.W.M.M.B.M.B.B.V.B.L L P H H J.[./.Z.A.*.H H H H U (.(.!.>.B.>.B.>.o.L P P F J.).'.N.M.>.N.V.  ",
"b.u.) 1.j 4 6 i s t t e H K I H.Q.L.D.D.V.B.C.B.B.M.O.O.X.H I V.!.L.>.V.$.X.I @.$.$.Q.!.E.>.B.V.N.B.I o.I I X.B.^.E.A.B.Z.B.>.  ",
"b.f.[ [ j * 2 C W W T | K H P P H @.).(.G.;.A.M.A.M.A.A.*.G I ^ H U I H P X.H G.(.(.M.M.V.V.B.$.U U L I L O.L ;.D.N.-.M.V.B.B.  ",
"c.i.[ 1.p * 5 d Z C D D K K I I H #._.'.E.B.A.V.B.V.M.B.,.I U H P X.P H I H m G.(.^.V.A.B.N.A.-.H I X.P O.m F $.Z.D.A.D.B.>.>.  ",
"t.8.[ 3.h * 5 i s a V V K A K A K O.B.B.>.$.$.D.A.J.=.;.$.H H P P I I I $.N.B.G.L.L.$.$.-.*.-.X.H P L G $.>.N.C.:.N.$.$.$.G.G.  ",
"[ [ [ 6.j : 5 5 5 1 0 1 V S ~ | I I U G L H G E.{.Q.M m L P P I I P I L :.(.).V.:.B.L H I L I I I I I P $.].).J.:.C.O.P $.'.~.  ",
"' { _ 1.7 @ : * < < w w W D K D H K U K P I L E.(.Q.X.X.P P P H L H L m >.'.`.A.A.N.I I X.L P L H U U U $.].'.K.Z.C.L m @.`.!.  ",
"j.j.i.k.1.z _ ) ' / 6 3 w t a V b V K O.P O.L *.*.=.L I @.>.N.#.I I @.H >.^.^.>.X.#.I I I L X.B.L.G.$.H @.$.-.#.o.*.O.O.I *.$.  ",
"l.c.k.m.w.<.1.1.5.{ < 6 2 w 1 t b b A K H P H H G L L L *.A.B.X.H H X.H >.(.'.$.m P H H o.P H A.].!.O.m I m L L G L H P L H H   ",
"k.l.j.l.6._ _ _ 1.{ + i 2 i t t e m K I o.P P $.X.X.o.H $.V.N.$.P O.L m N.~.(.$.I I O.O.O.P L A._.W.O.o.X.@.X.X.o.o.I L o.U H   ",
"c.y._ <.<.<.<.9 # < 2 q C Z ~ K K K | O.P L H Q.'.Q.G O.@.V.Z.B.>.B.I I P L I I P I /.(.E.B.V.V.B.B.V.N.V.V.N.C.Z.C.O.P I P P   ",
"n.p._ _ <.3.1.4 4 6 2 = N S K J J H m H L L I E.).(.F H O.A.>.V.A.V.P I I I I I I P (.).!.M.B.>.B.>.B.A.B.N.N.B.M.N.L U G I U   ",
"f.e.1.1._ z Q 4 + * a t D ^ K +.O.-.+.@.@.I P B.E.A.o.O.-.B.B.;.-.,.P P X.X.X.P P I D.G.F.;.:.D.G.G.B.B.>.V.C.N.Z.Z.$.@.X.I H   ",
") [ <.1.g O 4 : 5 i ( V K J U N.A.e.B.A.$.U I F F P A.A.B.V.G.X.m I I X.X.P I O.L I H H M G M A.`.!.M.B.A.V.>.C.M.M.Z.B.A.I U   ",
") ` <.1.g O : : * 2 ( D } I U >.V.B.Z.A.*.m L I O.X.N.M.>.>.B.#.L I I P U m m H G I U o.I @.F G.`.^.A.>.>.N.C.N.Z.B.A.N.N.H H   ",
"u.w.<.<._ z ) 5 5 q a r S K H +.%.O.O.@.*.;.M.O.M @.~.L.G.B.C.O.P I X.H -.D.F.>.-.*.;.-.$.I U -.,.,.J.~.J.M.N.;.@.#.@.$.@.X.H   ",
"U.u.] _ <.5.3.4 * * 2 0 S K K K B J P M *.A.V.@.X.#.'.(.Q.M.V.O.H I o.F N.].].D.A.V.A.A.>.H X.L M P Q.`.E.V.D.*.G L m U m I H   ",
"b.u.<.<.<.1.<.4 7 6 3 t C V K K I H @.P *.A.V.O.F $.(.(.K.M.C.#.I I o.F >./.^.A.M.A.;.A.;.H O.L P I !.~.W.M.C.=.P I I I I P U   ",
"l.b.f.b.0._ <._ [ / & 3 w a 0 N b m J H P X.O.L O.L @.X.-.'.).=.L I X.I P #.O.I I X.B.V.>.L X.P U I O.#.I X.o.X.P P I I I X.U   ",
"k.b.h.U.q.! <.1.1.) < 2 2 q = r e v P I X.H F I P I P m :.'.(.*.H P G F L H G L H I M.V.-.H I O.P P M m L G G P I P I F H L P   ",
"c.l.f.f.q.] 3.Q _ E 6 2 3 a a N B H I m I $.@.@.P O.O.H B.(.~.-.G @.=.*.-.@.$.O.L o.>.B.*.P H I P O.-.-.=.I @.@.X.P $.$.*.I P   ",
"x.u.1._ ] ] ] % # < < u C W W K ^ I P I :.D.C.@.X.L I F M.'.'.=.m #.~.).L.N.V.#.P I I I L X.P X.P P L.].E.B.F.$.G P B.Z.>.m H   ",
"U.i.1.] 3.9.3.4 4 5 3 0 t S K K J H m m O.>.V.I I L O.L ;.`.`.;.U O.`.[.L.B.M.X.H L H L P I U L P P !.}.L.>.C.#.L L >.B.B.L U   ",
"t.8.{ [ Q j k 5 2 q Z V K ^ ^ I I $.V.A.B.A.G.*.-.$.I L $.A.>.O.P L >.>.V.Q.L.N.;.;.-.-.$.L P O.U P ,.,.A.L.L.B.#.=.Z.A.V.*.$.  ",
"[ ..[ 9.j # 5 5 u t W S I L X.X.U $.!.].L.N.B.B.A.Z.I P H H G O.X.X.P m ;.`.^.A.M.B.V.A.M.L I I U I o.m *.).^.J.Z.Z.V.B.B.B.>.  ",
"l ' / [ * . X ; o o N b H M F F n ^ Q.!.Z.,.-.>.-.>.c m M m M M v G M M *.~.Q.B.;.>.>.;.*.v F v U v m v X.^.!.C.;.>.>.>.-.>.,.  "
};
