/* XPM */
static char *_f4f638c06f243d7b16ddfd7adc99668[] = {
/* columns rows colors chars-per-pixel */
"64 64 158 2 ",
"   c #5F361A",
".  c #5F3B1D",
"X  c #61371A",
"o  c #63391A",
"O  c #6C3D1C",
"+  c #773E17",
"@  c #7A3D16",
"#  c #773E18",
"$  c #6D411E",
"%  c #74431E",
"&  c #7C461F",
"*  c #7B481F",
"=  c #6B4322",
"-  c #744421",
";  c #7B4720",
":  c #744923",
">  c #7B4821",
",  c #7F512B",
"<  c #75642B",
"1  c #7F6C2F",
"2  c #747227",
"3  c #7D732F",
"4  c #777C2B",
"5  c #7B7D2E",
"6  c #7C6C33",
"7  c #7E7231",
"8  c #81441D",
"9  c #814B25",
"0  c #884D26",
"q  c #854E29",
"w  c #8D4F29",
"e  c #805A25",
"r  c #86502B",
"t  c #8B532D",
"y  c #95552F",
"u  c #875332",
"i  c #8E5631",
"p  c #865C36",
"a  c #8D5934",
"s  c #8F563C",
"d  c #8D5B3A",
"f  c #915732",
"g  c #995733",
"h  c #915833",
"j  c #995934",
"k  c #93563C",
"l  c #98573E",
"z  c #945B3B",
"x  c #9A5D3A",
"c  c #81632F",
"v  c #866334",
"b  c #886033",
"n  c #826B33",
"m  c #97603F",
"M  c #9D613D",
"N  c #817231",
"B  c #857934",
"V  c #A1623E",
"C  c #AB653F",
"Z  c #965C40",
"A  c #9C5E41",
"S  c #9D6241",
"D  c #A36542",
"F  c #AB6641",
"G  c #A66844",
"H  c #AB6B46",
"J  c #A8664B",
"K  c #A56E4A",
"L  c #AC6C49",
"P  c #B26944",
"I  c #B26C48",
"U  c #A5704C",
"Y  c #6A9D19",
"T  c #66A61B",
"R  c #69A51E",
"E  c #64AA1E",
"W  c #68A91E",
"Q  c #74A41E",
"!  c #78A41D",
"~  c #70AF1B",
"^  c #7AAA1E",
"/  c #7C8226",
"(  c #74842C",
")  c #7A862D",
"_  c #778D2B",
"`  c #798B2D",
"'  c #6B9625",
"]  c #6D9D22",
"[  c #6F9F2D",
"{  c #749427",
"}  c #719F25",
"|  c #759429",
" . c #7A932D",
".. c #739D2A",
"X. c #799C2C",
"o. c #7E8232",
"O. c #7D8A31",
"+. c #6EA324",
"@. c #6EA129",
"#. c #71A224",
"$. c #79A624",
"%. c #7CA923",
"&. c #73A22A",
"*. c #7CA22A",
"=. c #84AC1C",
"-. c #82842A",
";. c #808131",
":. c #82AC22",
">. c #83A728",
",. c #85B124",
"<. c #8BB324",
"1. c #87B921",
"2. c #8BB428",
"3. c #91B725",
"4. c #94BB25",
"5. c #9CBF27",
"6. c #91B32B",
"7. c #93BA29",
"8. c #99BD29",
"9. c #9CC126",
"0. c #9DC12A",
"q. c #A3C425",
"w. c #A2C62A",
"e. c #A7C82B",
"r. c #ABCB2C",
"t. c #B4CE23",
"y. c #B3CF2B",
"u. c #B8CF28",
"i. c #AFD12C",
"p. c #B4D127",
"a. c #B2D029",
"s. c #B5D128",
"d. c #B1D02C",
"f. c #B5D22E",
"g. c #B9D32A",
"h. c #AFCF32",
"j. c #B2CF33",
"k. c #AED034",
"l. c #B0D033",
"z. c #B4D430",
"x. c #B8D431",
"c. c #C0D93E",
"v. c #BFDA46",
"b. c #BBDA4C",
"n. c #C0D942",
"m. c #C0D945",
"M. c #C7DB56",
"N. c #C8DA50",
"B. c #CADD55",
"V. c #C4DB59",
"C. c #C7DF5B",
"Z. c #C1DB5E",
"A. c #C7DF5F",
"S. c #C9DE5A",
"D. c #C8DF5C",
"F. c #C5DF61",
"G. c #C2DF66",
"H. c #C8DE61",
/* pixels */
"8 & & & & & & & & & & & & & & & & & 8 t 0 & & & & w f y y y g f f y y y f f y y g F P P P P V i -.$.} ! q.p.t.t.t.t.t.t.c.S.B.N.",
"> : : : : : = . . $ : : : : : : : : , a a : : : > a a a a a r r p a a a a a a a d K L U K K d 6 @.E [ +.0.j.k.l.l.l.h.j.b.G.F.Z.",
"8 ; & & & & O X X o & ; ; ; ; & & & 9 r q & & 9 t h h h j t ; & q h f f f h h f j H I H V x a N X.R X.^ w.u.p.u.u.p.t.y.n.D.S.M.",
"& ; ; ; & & O X X o ; ; & & & & & & & & & > q t h h h h h i 9 ; r h h h h h f f V L L M t i u n X.R ..4.d.y.a.a.a.a.y.y.v.A.S.M.",
"& > ; ; * ; - O O - ; ; ; ; > > & > > ; > r h h a i i a h a i i a a a a h a a M L L L D z z m d ` +.+.0.f.a.d.a.d.d.y.d.v.F.A.V.",
"& > ; & ; > ; ; ; > ; ; ; ; ; ; ; ; ; ; ; i h i q > > q i h h h h i i h h h z H L L L L H H D k 5 ..+.4.f.s.a.a.a.y.y.a.v.A.C.M.",
"& > ; ; ; ; ; ; ; ; ; ; ; ; ; ; ; ; ; ; ; i h r ; & & ; q a h h h h j h h f D L L L H L L J z n X.+...$.0.y.a.y.y.a.y.y.m.A.C.M.",
"& > ; ; ; ; ; ; ; ; ; ; ; ; ; ; ; ; ; ; > t h > & ; ; & > i h h i x H M h f G L L L L H L S p | #.+...Q 4.y.a.y.y.a.y.y.m.A.C.M.",
"& > ; ; ; ; ; ; ; ; ; ; ; & 9 t q ; & ; ; q a 9 & ; & & 9 i h h f z G x h f D L H L L H J z n +.+.#.+.7.l.s.a.a.a.a.y.y.m.A.C.M.",
"& > ; ; ; ; ; ; ; ; ; ; ; & t z t > & ; & > i t ; % & ; r h h h h h h h f h M L L L L H L d 7 X.+.+.$.r.g.y.a.a.a.a.y.y.m.A.C.M.",
"& > ; ; ; ; ; ; ; ; ; ; ; ; 9 t q ; ; ; ; > r h t 9 9 r i h h h h h h h h f h D H L L H L z n } +.} :.r.s.a.s.y.y.a.a.y.m.A.C.M.",
"& > ; ; ; ; ; ; ; ; ; ; ; ; ; ; ; ; ; ; ; & > i h h h h h h h h h h h h h i i j H L L H L A p | +.R $.e.f.y.a.s.y.a.a.y.m.A.C.M.",
"& > ; ; ; ; ; ; ; ; ; ; ; ; ; ; ; ; ; > ; > & 9 i h h h h h h h h i h h h h h i z H L J L J d 7 ..W ..3.d.s.a.a.a.a.y.y.m.A.C.M.",
"& > ; ; ; ; ; ; ; ; ; ; ; ; ; ; ; ; > & % ; & & > q i h h h h h h h h i h h h h i M L L L L G z 1 ` } #.2.e.a.a.a.a.a.y.m.A.C.M.",
"& > ; ; ; ; ; ; ; ; ; ; ; ; ; ; ; ; ; % % > ; 9 q ; > t h h h h h h h h h h h h i j H L L L L J p 2 ' $.4.r.y.a.a.s.a.y.m.A.C.M.",
"& > ; ; ; ; ; ; ; ; ; ; ; ; ; ; ; ; ; ; ; & 9 f h q & > t h h h h h a a h h h f h h G L L L G z B  .&.0.f.f.y.a.a.a.y.y.m.A.C.M.",
"& > ; ; ; ; > > > > > ; ; ; ; ; ; ; ; ; ; ; > i f 9 ; & 9 f h h h t 9 r a h h z i j H L H H z n ..R 2.i.p.y.a.y.y.a.y.y.m.A.C.M.",
"& > ; ; ; ; > % O O % ; ; ; ; ; ; ; ; ; ; > ; > > > ; ; 9 i h h h q % ; i h z M j D H L L D p ) &.R 6.z.p.y.a.y.y.s.a.y.m.A.C.M.",
"& > ; ; ; ; $ o o o o $ ; ; ; ; ; ; ; ; > ; ; ; ; ; ; ; r h h h h t ; 9 i h f j G L H L L S p | &.] 2.f.p.d.a.y.y.a.y.y.m.A.C.M.",
"& > ; ; > - o o o o o o - ; ; ; ; ; ; & ; ; ; ; ; ; & q f h i h h h i f h a h G L L L H J A p | +.+.%.e.f.a.a.y.y.a.y.y.m.A.C.M.",
"& > ; & > O o o o o o o O > ; ; ; ; ; ; > ; ; ; & > r a h h h h h h h h h h D L L H L L L D d 5 &.E [ <.r.s.a.y.y.a.y.y.m.A.C.M.",
"& > ; & > O o o o o o o O ; ; ; ; ; ; ; ; ; ; & > t h h h h h h h h h f i V L H x x D L L J S v _ +.@.=.r.s.a.a.y.d.a.y.m.A.C.M.",
"& > ; ; ; % o o o o o o % ; ; & ; ; ; ; ; & ; q f h h h h h h h i h a i x L H z i i h G L L L A n ` +.8.f.a.y.a.a.a.y.y.m.A.C.M.",
"& > ; ; ; ; O o   o o $ ; ; ; ; ; ; ; ; & > r h i q q i h h h h h h i h H L G h a i i V L L L A v O.R 0.s.p.y.a.a.a.y.y.m.A.C.M.",
"& > ; ; ; > & % O O % ; ; ; > t q & ; ; > t h i > ; & 9 i h h h h i f M L L H x i i h G L L M p _ +.&.3.d.s.d.y.y.a.y.y.m.A.C.M.",
"& > ; ; ; ; ; > > > > ; > ; > q 9 & ; ; r h h t & ; & > t h h h h a i D L L L G x x D L H J d n X.R X.#.0.y.a.y.y.a.y.y.m.A.C.M.",
"& > ; ; ; ; ; > > & ; > ; & ; & & ; & 9 h h h t ; & & > t h h h h h i M L L L L L L L L L J d 7 &.R ..#.4.r.a.y.s.a.y.y.m.A.C.M.",
"& > ; ; ; ; ; ; ; ; ; ; ; ; ; ; ; ; & 9 h h h f q > > q i h h h h x x z G L L L L L L L L J d n X.W ..<.r.s.a.a.a.a.y.y.m.A.C.M.",
"& ; ; ; ; ; ; ; ; ; ; ; ; ; ; ; & & & > i h h h h i i i h h h f h G L x x L L L L H H H L L S a ` +.+.5.s.y.a.y.a.a.y.y.m.A.C.M.",
"& > ; ; ; ; ; ; ; ; ; ; ; ; ; ; ; ; ; & q h h h h h h h h h a a h D H x f D L L L L L L L L L D v o.+.5.f.s.y.y.a.a.y.y.m.A.C.M.",
"& > ; ; ; ; ; ; ; ; ; ; ; ; ; ; ; ; ; & > t h h h h h h h h a a h h h h i M L H L L L L H H L D b ;.+.<.r.s.y.a.a.a.y.y.m.A.C.M.",
"& ; ; ; ; ; ; ; ; ; ; ; ; ; ; > ; ; ; ; ; 9 f h h h h h a h a a h h h h i M L L L L H L H L D d ) #.+.+.4.y.s.a.y.a.y.y.m.A.C.M.",
"& > & ; ; ; ; ; ; ; ; ; ; ; > ; ; ; > 9 ; > t h h h h h h h h h h h h i j H L L L L G M H J z n X.+...:.e.y.a.y.s.a.y.y.m.A.C.M.",
"& > & ; ; ; ; ; ; ; > ; ; ; % % - ; q r & > t h h h f h h h h h h h i h G L L L L L V h H J d 7 &.T X.w.g.y.a.y.y.a.y.y.m.A.C.M.",
"& > & ; ; ; ; ; > ; > ; > % o o % ; > > ; 9 h h h h h h h i r t h h f M L L H H L L H G H J d n X.T >.r.s.y.a.a.y.a.y.y.m.A.C.M.",
"& > ; ; ; ; > ; ; ; ; ; > - o o $ ; ; & > i h t q r a h h t ; 9 h h j G L D j z D L L L H L S a O.+.%.e.s.a.a.a.a.a.y.y.m.A.C.M.",
"& > ; > > ; ; ; ; ; > ; ; ; % % % ; ; & r h r ; & & q a h i r t h a z H H h i i h G L L H L G s 4 } +.0.g.s.d.y.s.a.y.y.m.A.C.M.",
"& % % % ; ; ; ; ; ; ; ; ; ; > ; ; ; & ; t i > & ; & ; i h h h h h h h D G f a i h G L L L J z n  .+.+.%.w.y.a.y.y.a.y.y.m.A.C.M.",
"& O o o $ ; > ; ; ; ; ; ; & ; ; ; ; ; ; t i > & ; & > i h h h h h h i z G M f f x H L L L S p { #.+.} +.<.e.s.y.y.a.a.y.m.A.C.M.",
"% o o o o % ; ; ; ; ; ; ; ; ; ; ; ; ; & r h r ; & ; q h h h h h h h h i j G G D H L L H J z n ..+.+.+.2.r.y.y.a.a.y.a.y.m.A.C.M.",
"& o X X O & ; ; ; ; ; ; ; ; ; ; ; ; ; ; 9 i h t q t i h h h h h h h h h i j D L L L L H J k 3 ..+.+.%.r.g.a.y.a.a.a.a.y.m.A.C.M.",
"; - O O - ; ; > ; ; ; ; ; ; & ; ; ; ; ; ; q h h h h h h h h h i t t a h a f h x H L L H J k 6 ..@.] 2.f.p.d.y.a.d.a.y.y.m.A.C.M.",
"& > & & ; ; ; * & ; ; ; ; ; ; ; & > ; ; > > r h h h h h h h i 9 & ; q h h a a i j G L H L A p { @.] 3.z.a.d.a.y.y.a.a.y.m.A.C.M.",
"; > ; > ; ; ; ; ; ; ; ; ; ; ; & ; > 9 ; ; & ; t h h h h h h t & > & > i h h i h i f D L L G d 3 ..T ,.i.s.y.p.y.y.a.y.y.m.A.C.M.",
"& > ; ; ; ; ; ; ; ; ; ; ; ; ; ; ; t i ; ; ; & > t h h h h h t ; % & 9 i h h x j h i f D L L D z B  ...8.d.s.a.a.a.a.y.y.m.A.C.M.",
"& > ; ; ; ; ; ; ; ; & & ; ; ; ; ; q q ; ; ; ; & > t h h a h h t 9 9 t h i j D z h h i j H L L J d 3 ' :.r.p.y.a.a.a.y.y.m.A.C.M.",
"& > ; ; ; ; ; ; ; ; ; & & ; ; ; ; & ; > ; & ; ; & > t h a h h h h h h h h h j h h h h i D L G Z N  .+.3.d.s.y.a.a.a.y.y.m.A.C.M.",
"& > ; & ; ; ; & > ; ; & ; ; ; ; ; ; ; & & & & ; ; % 9 h h h i t i h h h h h h h h a i j H J z n X.W #.9.s.a.a.y.y.a.y.y.m.A.C.M.",
"& > ; & ; ; ; ; ; > ; ; ; ; ; ; ; ; & > r t 9 ; ; & 9 f h i 9 & 9 h h h h h h h h i h G L D p ) #.R } 4.f.s.a.y.y.a.y.y.m.A.C.M.",
"& > ; ; ; > % O o % > & ; ; ; ; ; & & r h h t > & & q h h i > & 9 a h h h h h i f x G L L A p | #.+.] :.e.s.a.a.a.a.a.y.m.A.C.M.",
"& > ; ; ; > % X   O > & ; ; ; ; ; & ; t h h i > & > i h h h t q t h h h h h a h V H L H L A p | #.+.#.] :.e.y.a.s.s.a.y.m.A.C.M.",
"& > ; ; ; > % O o % > & ; ; ; ; ; ; & 9 i i q & > t h h h h h h h h h h h i z H L L H G H D p ) #.R ..#.7.r.a.y.a.a.y.y.m.A.C.M.",
"& > ; ; ; ; ; ; ; ; ; ; ; ; ; ; ; ; ; ; ; > ; ; t h h h h h h h h h h h i h G L L L G x H L z v  .+.@.<.d.f.y.a.a.a.a.y.m.A.C.M.",
"& > ; ; ; ; ; ; ; ; ; ; ; ; ; ; ; ; ; ; ; & & q h h h h h h h h h h h h i M L L L L H H L L J Z 1 _ +.0.s.p.y.a.s.a.y.y.m.A.C.M.",
"& > ; ; ; ; ; ; ; ; ; ; ; & & ; ; ; ; ; ; & > i j f t t f h h h h h h i h G L H L L L H L L L A c ) +.8.f.p.a.a.a.a.y.y.m.A.C.M.",
"& > ; ; ; ; ; ; ; > ; ; ; & > ; ; ; ; ; ; & 9 i h q & ; q h h h i h h i x L L H J H H H L L S a O.&.+.:.r.s.a.a.a.a.y.y.m.A.C.M.",
"& > ; > ; ; ; ; ; ; ; ; ; ; ; ; ; ; ; ; ; & 9 i h 9 & & q h h h h h h i M L L L L H H L H H d n ..E ..,.r.s.a.y.y.a.y.y.m.A.C.M.",
"& > ; ; ; ; ; > ; ; ; ; ; ; ; ; ; ; ; & & ; > i h t 9 9 t h i t i h a h G L L L H V G L L G d N X.+.*.w.s.y.a.y.y.a.y.y.m.A.C.M.",
"& > ; ; ; ; ; ; > & ; ; ; ; ; ; ; ; & ; > & & r h h f f f h t > t h i i M L L L M i z L H H k 1 ..T 6.d.s.y.a.y.y.a.y.y.m.A.C.M.",
"& > ; ; ; > - O - > ; ; ; ; ; ; & & > t i > & > i h f h h h i t i h h i h G L L D h x L H L M r ( #.8.x.u.d.y.a.a.a.y.y.m.A.C.M.",
"& > ; ; > > % O - > ; ; ; ; ; ; ; & > i f > & & q h h a h h h h h h a h h h M H L H H L L L L k <  .4.x.y.a.y.a.a.a.a.y.m.D.S.M.",
"& ; ; ; ; ; ; ; ; ; ; ; ; ; ; ; ; ; & > > ; ; ; > i h h a h h a h a a M D i i x J L H L L L L Z 6 _ 1.f.s.d.y.a.a.y.a.y.m.H.S.M.",
"8 ; ; ; ; ; ; ; ; ; ; ; ; ; ; ; ; ; ; ; ; ; ; ; ; t h h h h h h h h h x x f h f D L H H L L H l 1  .~ e.g.p.y.a.p.a.p.y.n.A.S.M.",
"@ + @ + # # # # # # # # # # # # # # # # # # # # # 9 t t t t t t t t t w w t t t g F F C F F F l e / Y =.q.t.t.t.t.t.t.t.c.S.B.N."
};
