/* XPM */
static char *_a1240df96a045ad96a003292c95ae5b[] = {
/* columns rows colors chars-per-pixel */
"64 64 188 2 ",
"   c #010101",
".  c #293A10",
"X  c #303F18",
"o  c #353C24",
"O  c #2D4410",
"+  c #3A451C",
"@  c #364A1C",
"#  c #394B1D",
"$  c #35451A",
"%  c #39501C",
"&  c #3B4523",
"*  c #3D4B23",
"=  c #3D452D",
"-  c #3E4C2A",
";  c #374220",
":  c #3E5222",
">  c #3E413A",
",  c #414D24",
"<  c #41452D",
"1  c #444C2C",
"2  c #494F2E",
"3  c #415326",
"4  c #435825",
"5  c #44522B",
"6  c #49522C",
"7  c #45592B",
"8  c #495C2D",
"9  c #485027",
"0  c #434633",
"q  c #464C33",
"w  c #494D33",
"e  c #43453C",
"r  c #454A3A",
"t  c #4A4D3A",
"y  c #504F3B",
"u  c #475033",
"i  c #4B5334",
"p  c #4B5B31",
"a  c #4D533B",
"s  c #4F583B",
"d  c #535A3D",
"f  c #515A37",
"g  c #4C622D",
"h  c #4E6234",
"j  c #516335",
"k  c #54693B",
"l  c #59673B",
"z  c #5B723D",
"x  c #5C783E",
"c  c #3F4042",
"v  c #434445",
"b  c #4B4D44",
"n  c #464749",
"m  c #4B4C4D",
"M  c #474849",
"N  c #4E5142",
"B  c #4E514C",
"V  c #535544",
"C  c #555A43",
"Z  c #595E45",
"A  c #53544D",
"S  c #565A4C",
"D  c #5A5C4D",
"F  c #4D4E51",
"G  c #4E5153",
"H  c #535455",
"J  c #565954",
"K  c #5A5C54",
"L  c #555659",
"P  c #57595B",
"I  c #5A5B5C",
"U  c #585657",
"Y  c #605F4D",
"T  c #615F52",
"R  c #5B6245",
"E  c #5D6C43",
"W  c #5D624C",
"Q  c #5F7442",
"!  c #5F7A41",
"~  c #5E6154",
"^  c #5E615C",
"/  c #606D42",
"(  c #60654E",
")  c #637644",
"_  c #637B45",
"`  c #687C47",
"'  c #667649",
"]  c #657C4A",
"[  c #6A7D4C",
"{  c #6A754C",
"}  c #626453",
"|  c #62625C",
" . c #6B7F51",
".. c #717E52",
"X. c #5D5E61",
"o. c #5E6063",
"O. c #626364",
"+. c #666866",
"@. c #656669",
"#. c #67696B",
"$. c #6A6B6D",
"%. c #68676C",
"&. c #6D706E",
"*. c #70716F",
"=. c #6D6E71",
"-. c #6F7174",
";. c #727375",
":. c #777977",
">. c #757679",
",. c #76797B",
"<. c #7A7B7D",
"1. c #678049",
"2. c #6B824D",
"3. c #69854B",
"4. c #6D8451",
"5. c #728454",
"6. c #748B56",
"7. c #748C5A",
"8. c #798C5D",
"9. c #758558",
"0. c #759157",
"q. c #769259",
"w. c #7D955D",
"e. c #7D9362",
"r. c #7F9B61",
"t. c #829464",
"y. c #849B65",
"u. c #869C6A",
"i. c #8A9E6B",
"p. c #899B67",
"a. c #80807E",
"s. c #8D9F71",
"d. c #8F9F78",
"f. c #909F76",
"g. c #8BA36D",
"h. c #85A268",
"j. c #8CA472",
"k. c #8FA776",
"l. c #92A472",
"z. c #93AA76",
"x. c #99AE77",
"c. c #94A37D",
"v. c #95AA7B",
"b. c #9AAD7C",
"n. c #96B27A",
"m. c #9AB17C",
"M. c #9FB87F",
"N. c #A0B37F",
"B. c #7D7E81",
"V. c #7F8183",
"C. c #828385",
"Z. c #868887",
"A. c #848689",
"S. c #86898B",
"D. c #8A8B8D",
"F. c #8E908F",
"G. c #8D8E91",
"H. c #8E9092",
"J. c #929394",
"K. c #959897",
"L. c #959699",
"P. c #97989B",
"I. c #9A9B9D",
"U. c #98979C",
"Y. c #9AA682",
"T. c #9AAB82",
"R. c #96AB82",
"E. c #9DB383",
"W. c #A0AF88",
"Q. c #A2B584",
"!. c #A3B38A",
"~. c #9D9EA1",
"^. c #9FA0A2",
"/. c #A3A3A5",
"(. c #A5A6A9",
"). c #A7A8AB",
"_. c #ABACAD",
"`. c #ADAEB1",
"'. c #B0AFB4",
"]. c #AFB0B2",
"[. c #B2B3B4",
"{. c #B5B6B9",
"}. c #B7B8BA",
"|. c #BABABC",
" X c #B8B7BC",
".X c #BEBFC2",
"XX c #BEC0C2",
"oX c #C1C1C3",
/* pixels */
"  :.<.;.<.,.<.;.A.(._.X.v m v U v F v =.>.,.,.>.C./.).=.M M G v M M m M m c <.;.B.;.>.S.(./.^ v F F M H b N o o ; X . * [ / ' l ",
"  <.A.C.C.A.S.S.L._.].=.m o.I U I I L B.D.A.C.B.D._.[.>.m P X.X.O.G H H P P S.S.C.C.V.I.}.(.#.U I I L I S W t u 6 3 # j 9.[ ..[ ",
"  $.=.A.D.S.-.#.C.I.I.D.>.>.P U O.P L #.;.;.>.>.V.I./.A.<.<.L P O.<.S.=.L I $.;.=.J.S.C.F.Z.$.I I ^ ^ K V Z q 1 4 k j Q [ ` 8.t.",
"  U L C.C.<.H H #.A.,.I.XX(.P P L U I P L H L H X.B.C.I.|.[.O.U >.[.[.>.L O.L I I A.<.O.m m H J K K S t 0 2 6 3 3 4.9.4.] 4.s.E.",
"  H m B.S.C.P G $.H.C.~.}.I.P P X.P X.L I I I P #.A.V.I.].).#.m =.{.{.B.F I H X.@.A.G.,.I P I I K W W C u , , # % ] ] ] _ 2.u.x.",
"  P I =.#.$.P X.@.@.I ;.;.;.O.P I H P =.C.,.o.L O.#.O.;.=.-.@.G ;.).`.V.L O.O.P @.@.#.I m I H b N a s 2 1 9 E ] Q 4.1.q.j.g.x.b.",
"  P L H F P P X.P G H L m M P P O.I H ;.A.B.I H L G H L F G P H =.`.}.,.F P I P I F H X.I P v e r = q 1 1 , ) 2.2.1.! q.E.k.m.z.",
"  U X.I I I P P X.o.X.I #.O.I U P X.L ,.A.C.X.I I O.#.P I X.I H -.].}.;.X.%.L O.L O.X.P H P m b N r a w 2 & E [ ] 1._ 0.m.g.m.x.",
"  U P I X.X.X.P -.A.B.^.).(.I P L O.H >.S.>.D.B.D._._.<.F o.I I #.A.V.I.`.`.#.F O.A.D.=.J +.H I K K V C t 2 6 7 4 2.2.1.1.1.u.m.",
"  H I m L m H G =.G.A.~.[./.U M L X.H <.D.D.A.D.G.}.}.V.F o.I H O.A.B./.`.{.%.X.@.A.D.-.M P J B U K K S 0 1 * * 3 4.5.1._ ] u.E.",
"  H X.O.$.@.#.@.;.V.B.L.).L.:.:.;.U I $.;.>.=.;.<.H.G.;.H X.I P O.A.C.J.I.).@.M O.<.>.=.@.O.O.&.@.H U S r a q 6 4 ) z ) 1.1.w.u.",
"  H H V.V.D.C.S.V.A.V.<.<.D._.{.J.F @.I o.U I G H m m U P I I L #.C.<.<.B.V.X.O.I L m -.D.S.C.Z.<.U I } D ( 1 * * : O g 2.1.` ) ",
"  U I D.C.S.<.<.A.<.A.S.C.B.(.{.D.n G n H H I L O.I P I X.I I m X.J.A.C.D.D.L m F I U $.D.C.V.D.V.U J D V ( i 5 * : O g 2.1.[ ) ",
"  H P X.@.$.S.S.V.A.A.B.C.C.J.J.G.,.>.H.J.G.I P P X.X.I P P :.;.>.C.C.;.O.O.D.~.C.P I O.+.+.;.O.+.U ^ D t s * @ 4 Q z _ 2.2.t.g.",
"  U I G U L V.B.C.V.V.C.D.C.<.C.<.C.B.(.].`.I I I I I I I P A.D.A.<.D.O.H F _.].~.I L L H m H J J K D N = 1 9 3 4 2.4.3._ _ p.M.",
"  P P I P O.A.S.A.V.A.A.V.A.C.C.A.A.C.~.`._.I P I I L P I I C.<.C.S.A.+.O.G /.}./.H L P O.| U U K ~ Z C q 1 , # 4 1.1.1.1._ y.b.",
"  H U o.L I o.o.X.X.@.I o.O./.[.D.L P O.O.O.I I $.`.).V.m L O.P #.V.A.$.H o.X.X.#.P P O.I U b e t t w 1 i $ ` 2._ _ _ 6.x.l.b.z.",
"  H H L P H H G H H m I m O.(.}.D.H P o.H H P m $.}.`.,.H X.H H X.C.D.=.L L L G H H P H U A b b r < q 1 6 , ` 5.2.2.1.w.N.z.b.b.",
"  #.=.I o.O.=.o.#.;.$.@.H $.L.I.C.X.L I I I #.X.<._._.<.H O.I I #.V.<.@.I H -.=.=.P O.P O.K B b V a t w 2 6 / ' ) _ z 2.z.g.l.l.",
"  (.}.@.m L A.S.P.{.}.#.U U U H L P L X.I I V.S.D.{.}.<.m L H L H P P P X.X./.`.~.L I P P U P H K D D W t w , , * : @ 7 2.] ` ' ",
"  ).}.#.P O.A.,.L.].}.$.P I I I I I L I H L C.,.A.].`.,.L I P I I P P L m n /..X~.G H U G H I I | } S V < r < 6 3 3 : j 9.[ [ [ ",
"  J.L.=.$.$.V.,.A.V.,.$.G L P H X.;.=.;.$.$.I.I.J.C.V.$.I I I P P H H $.;.-.L.D.G.$.$.<.C.C.O.U A K A K V V a s i 3 * h 4.[ 8.t.",
"  ,.<.C.G.D.G.S.$.F F o.P I I H ;.D.V.C.S.A._.`.J.m H I H P X.P H U I :.C.B.A.C.A.D.A.~.}.[.#.H I ^ U K D S C Z d 5 * p  .[ i.b.",
"  C.C.A.B.;.V.G.;.H o.L I L U U $.C.A.A.B.B.`.`.L.H X.P H I U H ^ I G =.D.D.B.D.B.D.>.J.`.].@.H P P H K | ~ W W C 1 * j [ [ g.m.",
"  <.C.S.C.D.~._.C.X.I I o.I C.C.A.C.<.~.(./.$.#.O.I o.$.A.,.I.(.Z.I H X.O.O.B.C.C.A.C.A.G.G.U./.K.I P H 0 r t s i 3 , h 2.) u.m.",
"  A.V.<.B.V.{.].L.F P P L o.<.C.<.C.<.(.`.`.U H H H H =.D.S._.|.L.H H P L L C.A.C.C.B.C.B.V.^.|.I.I H A e r 0 < , , # 8 9.` t.x.",
"  ,.S.G.G.G.(.).G.G I I H O.C.A.A.A.C.I./.^.L I X.@.I ;.V.C.I.(.L.I $.o.I L <.<.C.S.V.C.C.S.^.`.I.| U S r a w 2 * p 7 j 5.[ p.N.",
"  <.A.P.)./.G o.X.P I O.I I C.C.P.`.{.#.F U I L o.S.C.J.A.C.C.<.D._..X>.H U O.I o.C.V.V.V.<.S.S.<.H K } D W i 1 p [ 9.2.2.[ l.b.",
"  ,.<.[.}.[.P H G o.L I L I S.C.I.].}.:.I F O.L O.G.C.A.>.V.A.A.D.[.[.<.U I G H O.S.S.C.D.C.C.Z.a.U D K D R i , 3 [ 4.] ) ] u.l.",
"  L.G.D.C.C.L X.O.X.L I H X.:.$.;.J.S.#.L P I L o.>.$.C.A.S.,.;.>.G.D.;.H O.P ^ o.;.&.$.,.;.$.:.*.K K D C d 6 * 4 4._ 2.t.t.s.!.",
"  (.}.o.v I P H P H U o.P P U H H H m L I X.U P L P H ;.S.B.P m L m m P J I I ^ G H P H H H G I P A D V q q 5 7 4 4.] e.!.T.f.T.",
"  _.}.@.X.L G o.H o.H H H H H O.O.L @.H H H I P P L P >.D.C.o.X.G P P H H H P G o.B J H H ^ ^ H I K } V t 2 * # # _ z 7.v.Y.c.T.",
"  #.;.L L o.X.H #.,.<.D.I.D.I U X.o.F C.I.L.P I I L P O.X.$.P L O.,.B.C.L.K.^ J | ;.C.| I K b B N b t t 1 , l ) _ g.z.j.E.v.Y.Y.",
"  m H L X.H G X.-.S.C.~.}.(.I H I X.F U.}.{.H P P O.P P L P U H O.S.;./.[.|.I A +.C.D.$.U A e > e 0 < q 1 9 ' 5.2.n.m.z.T.c.T.Y.",
"  P I I I I o.H #.A.<.~._./.I P I X.H H._./.I P P L I I X.P O.P o.D.<.L.)._.#.P O.Z.A.$.J I B b b V a a 2 , / [ 1.n.n.z.T.c.Y.Y.",
"  U P L P O.A.A.V.A.<.A.V.<.P H ;.C.<.C.D.C._.[.J.H o.P L X.B.C.S.C.V.#.O.U J I P Z.C.$.H ^ I J K S V a i 1 6 : 4 2.] 7.T.v.T.c.",
"  m L I P I B.V.V.V.A.A.D.<.O.H $.A.A.C.A.<.`.(.L.n I P P I B.C.V.V.H.@.H P O.P O.G.S.,.H P P H K D } d 2 & # # : 4.] 7.E.v.Y.Y.",
"  P X.I P O.B.<.,.,.,.#.<.$.O.P O.A.A.S.C.S.(.|.J.H I I X.I C.A.D.<.S.@.I L P P O.,.*.$.J I I K ~ C Z s 2 9 j j 8 4.[ 8.E.x.Y.W.",
"  m P P I L X.P G H I H o.I P P ;.S.<.C.<.S.^.[.J.L I I P I <.B.C.A.G.@.I I I H H J A J J K K ~ a q u i * * ' 4.2.4.] 8.E.T.Y.d.",
"  m P H U L P H X.P I I H I P H $.C.C.C.V.B.].`.L.v P I G O.C.A.C.S.V.$.m J I I K K ~ ~ ~ V S D Z 2 & 6 # $ ] [ 2._ ] e.x.v.!.c.",
"  J.G.@.I O.H X.I o.I P X.I ;.>.<.<.D.B.S.V.J.H.J.A.G.;.U o.#.$.@.$.-.I ^ U A V V V r N a C C i 2 6 9 j ' z ' 2.2.y.u.j.k.T.R.R.",
"  _.}.O.G H P P P G L P L O.S.A.B.C.S.B.A.C.C.,.G.[.XXC.F P P G I H G A I A e e r r r t = & < 2 6 , + f 5.[ 2.[ ] m.m.v.E.E.k.v.",
"  /._.#.I P P X.o.H I X.H I <.A.B.A.C.V.V.C.C.A.S._.].>.H I I P P o.o.U I K N r r t r r q a w 1 i 9 , l 5.[ 2.) ] x.b.z.b.b.v.E.",
"  S.A.J./.I.P H ;._.(.;.H I @.I O.X.L >.C.V.X.P I O.@.I P I P H #.(.].,.J ^ ^ S S D D V V W a w 1 , + 3 7 3 ) 4.2.9.4.[ ] [ h.v.",
"  A.C.`.[._.G G B.XX_.#.F P H U I L H B.S.C.I L X.P L L L I X.H ;._.`.,.m A H I K S S D D S 0 0 w 2 2 6 * @ Q 9. .' [ 9.4.] k.v.",
"  <.>.P.I.~.P H -.].(.<.@.$.I I I P H ;.<.B.X.L H L P O.O.o.O.U ;._._.C.O.$.I H I +.| | K K N t y w w 2 1 5 E ] ' ' ) ] 2.! u.n.",
"  P F H m L G X.-.V.<.~.[.^.O.U I X.P I F U L X.X.I P ;.C.C.D.D.V.B.,.^.|.`.$.H +.S.D.;.U P I I T Y W C s 5 - * $ * # g 4._ y.n.",
"  H I O.H I P G @.A.C./.}./.P H H L P X.L I P P L P U >.J.A.C.C.A.D.C.~.{.].$.F I A.C.#.H H P I K K K t = = - 1 6 3 # g 6.1.h.n.",
"  H I P I I -.;.,.S.A.G.I.G.A.C.,.I I O.I X.U I I I L $.=.,.<.S.C.$.:.,.S.C.I I #.J.A.C.B.A.%.P ^ K K S V V C i d 6 3 j [ 2.0.r.",
"  U I o.X.P S.C.V.C.<.C.<.V.[.|.L.H I H I X.I L P I P X.M H B.A.;.H P m F L L U P A.B.I.|.'.=.H I J U K K T } W R u * h 4.2.1._ ",
"  U L I P I H.S.A.G.S.D.B.S.`._.S.H O.I P L I P U U I X.I O.A.D.<.P I U L I L H @.D.A.U. X`.=.H O.J K K K D D W R i * j 4.] 2.] ",
"  H o.I I I @.I @.P O.>.S.<.#.$.@.I H ,.<.C.J.I.A.H X.P X.O.O.O.O.U H C.(./.#.I I @.O.@.@.=.X.H P m b B b r t a i 5 : k 4.[ e.k.",
"  m I F P I P H P H X.=.D.C.U M L O.m B.C.D._.oXI.m I I H P L H X.I v D.}.}.O.m I H H P H U I I H v e e e 0 0 q - * @ h [ [ u.E.",
"  P X.I O.P o.X.o.G L >.C.;.O.I L L I <.C.C.U./.S.H P O.@.@.O.P H @.L J./.).$.P I O.$.X.P I I I U m b b N a q 5 - p 7 k  .] y.b.",
"  U L I I I A.V.-.P I X.L P P U O.P I :.A.<.O.P L P I D.[.^.#.H #.A.<.A.<.D.C.C.D._.[.<.I I I U I K J D D C u * 5 ] ] ] 4.] u.b.",
"  m L X.P I S.A.;.F L U H I H H H o.F ,.A.S.H P I P m A.}.(.O.m @.D.D.C.C.B.C.C.A.`.|.<.m m L P U U K D W R 6 # # 2.4.] _ ) u.m.",
"  P o.X.H L A.A.B.=.$.;.$.$.,.C.;.H I :.;.;.X.L o.;.@.L._.(.=.H @.;.;.C.A.A.A.C.A.U.L.G.<.<.=.J | K ~ V d i E k j 2.1.6.w.e.l.b.",
"  U H L o.I S.V.V.V.V.C.V.D._.}.D.I U P P I P I O.S.<.P.[.(.O.H I P H ;.C.C.C.A.C.S.C.I.{.(.$.A U K D a 1 & '  .2.2.x q.m.x.x.l.",
"  M G L I L S.S.A.S.A.A.B.C./._.D.U P P P H H H X.D.A.L.`.(.o.L O.P m ;.D.A.C.B.,.<.:.J.{.].$.H K K D C w 1 { 9.5.4.x w.M.n.b.x.",
"  D.(.o.I O.@.=.o.@.O.<.A.A.).}.H.H X.I I X.>.,.<.D.A.U.[._.#.H P O.I #.$.@.C.D.D./._.D.&.:.^ U K b N t q u p l h 2.2.4.6.6.g.Q.",
"  _.|.X.F I H P P H H ;.C.A.(.}.G.H I I H I A.S.C.C.V.P.[./.@.H I I P U U L ,.<.C.).{.<.v P I I A r r t t i * * 3 [ ] _ _ ] y.b.",
"  /._.;.H O.X.G P X.X.;.C.D.(.[.C.H L I U I C.C.C.C.<.L.}.~.@.U X.H I I I P C.D.F._.[.V.H O.J K K V 0 r < q 2 6 5  .4.4.4.] y.b.",
"  C.C.^.[./.o.X.X.o.I I I P P P o.L I <.C.<.A.B.C.S.A.A.S.S.~.|.J.I P P I I <.V.A._.].C.H P H ^ A K S } Z Z i 2 6 8 # h 4.2.4.[ ",
"  <.A./._.^.G I X.P L H L L U U L I G ;.D.C.C.V.C.V.C.A.,.C.).].J.H P P P P <.C.Z._.[.e.G I P U ^ K D D C ( 1 1 * 3 @ h 4.] ] 2."
};
