/* XPM */
static char *a0707c366bd94e1d8db0ea6990668d93[] = {
/* columns rows colors chars-per-pixel */
"64 64 191 2 ",
"   c #010101",
".  c #293A10",
"X  c #353C24",
"o  c #2E4511",
"O  c #34451B",
"+  c #364A1B",
"@  c #3A4B1E",
"#  c #3A451B",
"$  c #3B521E",
"%  c #3C4621",
"&  c #3D4C23",
"*  c #3D442C",
"=  c #3F4C2A",
"-  c #374220",
";  c #3E5223",
":  c #3F423B",
">  c #424C25",
",  c #41452D",
"<  c #444D2B",
"1  c #494E2D",
"2  c #415325",
"3  c #44522B",
"4  c #4A522E",
"5  c #45592B",
"6  c #495A2D",
"7  c #445627",
"8  c #434533",
"9  c #464B32",
"0  c #494D33",
"q  c #43453C",
"w  c #46493A",
"e  c #4A4D3A",
"r  c #504F3B",
"t  c #475031",
"y  c #4B5434",
"u  c #4B5B32",
"i  c #4D523B",
"p  c #50553D",
"a  c #535A3C",
"s  c #525F33",
"d  c #4C622E",
"f  c #4E6133",
"g  c #516534",
"h  c #526638",
"j  c #556A3C",
"k  c #5C693D",
"l  c #5B733D",
"z  c #434444",
"x  c #4B4D44",
"c  c #464648",
"v  c #474849",
"b  c #4B4C4D",
"n  c #474842",
"m  c #4E5243",
"M  c #4E504D",
"N  c #535544",
"B  c #555A44",
"V  c #595C46",
"C  c #53544C",
"Z  c #575A4C",
"A  c #5A5C4C",
"S  c #4D4E51",
"D  c #4F5153",
"F  c #535455",
"G  c #565954",
"H  c #5A5C54",
"J  c #555659",
"K  c #57595B",
"L  c #5A5B5C",
"P  c #615F53",
"I  c #596343",
"U  c #5E6C43",
"Y  c #5C624B",
"T  c #5F7442",
"R  c #5E7A40",
"E  c #5D6054",
"W  c #5E615C",
"Q  c #61644F",
"!  c #626F43",
"~  c #627545",
"^  c #637B45",
"/  c #687C47",
"(  c #65754A",
")  c #6A754A",
"_  c #657D4A",
"`  c #697C4B",
"'  c #616353",
"]  c #61625E",
"[  c #6B7F51",
"{  c #707D51",
"}  c #5D5E61",
"|  c #5E6163",
" . c #626364",
".. c #666866",
"X. c #656669",
"o. c #66696B",
"O. c #6A6B6D",
"+. c #6D706F",
"@. c #71726F",
"#. c #6D6E71",
"$. c #6F7173",
"%. c #727375",
"&. c #757877",
"*. c #757679",
"=. c #76797B",
"-. c #7B7C7D",
";. c #678149",
":. c #6B824D",
">. c #678047",
",. c #70844F",
"<. c #6D8351",
"1. c #6D8851",
"2. c #728454",
"3. c #738C55",
"4. c #758D59",
"5. c #78895B",
"6. c #769359",
"7. c #7C945D",
"8. c #7D995F",
"9. c #798F60",
"0. c #7D9462",
"q. c #7F9B61",
"w. c #7F817C",
"e. c #829464",
"r. c #849A66",
"t. c #869C6A",
"y. c #899D6A",
"u. c #889F67",
"i. c #8D9F74",
"p. c #939F7B",
"a. c #86A26A",
"s. c #8CA26D",
"d. c #83A066",
"f. c #90A46F",
"g. c #8BA373",
"h. c #91A374",
"j. c #93AA76",
"k. c #94A57C",
"l. c #95AB7B",
"z. c #9AAD7B",
"x. c #9AAF77",
"c. c #94B278",
"v. c #9BB27D",
"b. c #A0B37F",
"n. c #7D7E81",
"m. c #7E8183",
"M. c #828385",
"N. c #868887",
"B. c #848689",
"V. c #86888B",
"C. c #8A8B8C",
"Z. c #8D8E91",
"A. c #8F9092",
"S. c #929395",
"D. c #959699",
"F. c #97999B",
"G. c #9A9B9D",
"H. c #949897",
"J. c #9AA682",
"K. c #9BAB83",
"L. c #97AA82",
"P. c #9DB283",
"I. c #9BB185",
"U. c #A3B488",
"Y. c #9E9FA1",
"T. c #9D9EA1",
"R. c #9FA0A2",
"E. c #9FA1A3",
"W. c #A1A2A3",
"Q. c #A1A2A4",
"!. c #A2A4A6",
"~. c #A5A6A6",
"^. c #A2A3A5",
"/. c #A5A6A8",
"(. c #A7A8AA",
"). c #AAAAAA",
"_. c #AEAEAE",
"`. c #AAABAD",
"'. c #A6A8A7",
"]. c #AEB0AF",
"[. c #ADAEB1",
"{. c #AFB1B3",
"}. c #B2B3B5",
"|. c #B6B7B9",
" X c #B5B6B9",
".X c #B7B8BA",
"XX c #B9B9BA",
"oX c #BBBBBD",
"OX c #BCBDC0",
"+X c #BDC1C2",
"@X c #C0C1C3",
/* pixels */
"                                                                                                                                ",
"M.M.W._.C.v J J F J J b F J J F J K -.B.V.W._.S.F F K F J K v O._.).S.-.-.-.M.-.n.-.S.).^.O.F F J J F J F F F J J K J F J O.-.*.",
"B.M.).oXW.F F | J J L L | J K L K S -.M.M.`.oXC.K K } J K } F %.|.XXZ.-.V.V.-.B.M.-.D.|.}.#.F J K L K L J L L K | K L S J $.B.-.",
"!.R.*.}  .J J } L L K S K L } L  .F D.`.S.o. .o.F K L L J L K J o.} V.}.G.C.=.V.B.M.#.O.X.L J } } F  .C.M. .S L L D O.-.n.M.M.%.",
"`.}.F b L K } F L } | K L L } L D b Y.}.Q.L S L J K L K K L L J } c B.|.!.Z.M.M.m.C.O.J S L K J K D  .M.M.O.J L L S O.V.B.C.M.-.",
"E.Q. .}  .K L J L L K L L L K L L J F.[.G.K F  .K J  .L  .K F | J L M.{.!.C.n.C.*.B.#. .L | F L  .J O.B.V.X.S L L K O.m.-.V.B.-.",
"D } L F X.V.V.B.V.M.X.F X.Z.V.%.K D L F L L L F L L n.n.B.| D } F L L L D E. XT.m.Z.m.B.B.#.F | V.m.V.m.m.o.F L L L L L K $.V.=.",
"L | F L O.V.m.B.B.m.| F | V.B.%.D | F S F } K } L L -.B.B.F } F | F } D | !.{.[.Z.V.=.-.B.| D | V.m.V.m.V.o.D L K L } D F o.V.%.",
"} | L L  .B.m.n.%.$.| L X.B.m.=.X.$.%.=.=.} L } } D =.B.m.#.$.o.F L | D } V.D.B.%.#.B.D.F.o.F | B.M.m.B.M.%.#.$.} L X.O.o.M.D.B.",
"L | } F X.V.m.#.S L F F } V.B.V.M.m.[.+X(.L F | L L =.m.B.B.V.=.} F } | F D S } F S m.[.{.%.F } m.m.B.n.B.M.V.B.| D o.Z.B.F.[.!.",
"F L L F  .B.m.O.K K J L  .B.-.B.M.-.!.[.W.K J L K L =.M.-.n.M.-.F J J J L } L L | b -.oX|.O.b  .M.m.B.M.n.n.B.M.| S } m.-.F.}.`.",
"F L %.%.-.V.M.%.J } %.#.=.V.M.Z.Q.Y.-.O.%.} K K L F O.M.B.G.R.C.F L L L  .L L L J } O.O.O. .K | B.M.m.B.-.D.W.Y.L J $.Y.Y.V.#. .",
"J L M.M.M.n.m.#.D K M.C.B.n.-.G..X}.X.b F J J L F L -.C.M.`.XXG.F K J J L J J } L L F J J J b } M.C.M.m.-./.}.`. .b %.|.OX=.v z ",
"J K C.B.B.M.C.#.L L %.M.-.V.M.Z.R.R.O.L L L  .L L L %.-.-.R.(.V.F K L L L  . .L F } J L J O.|  .B.M.M.M.C.D.Q.!.| b $.G.Q.=.| b ",
"J K ^.).^.W.).-.F K L J O.]._.M.K  .K K  .-.B.%.K J  . .J L L K F J *.V.M.M.-.M.J L K L K D.^.W.-.-.C.^.`.*.K L L J  .L K L L c ",
"F K _.XXXX}.XXB.D J L b O.}.oXB.F K K J L B.B.*.F K K F J J F J  .F O.M.-.B.M.-.F F J L F G.oX_.B.M.S. X X*.v K J K K J K J J J ",
"K } M.C.A.V.C.%.F  .J K  .C.D.-.F L L L | n.n.-.O.$. .O.%.K L }  .F *.G.F.B.-.M.O.%. .K K m.C.C.B.-.Z.Z.S.%.J J K  .L L K  .L c ",
"L J J F F F L J } L J  .L J F K J } K J } B.M.-.M.V.B.B.M.} L  .J F S.}.[.V.M.B.M.C.%.K K L F J B.M.*.v b F L  .| L F K J K L S ",
"F L J L } K J L S K K b F } L L K K J D L M.B.V.M.m.B.M.-.J S b  .F V..X[.V.-.-.B.M.#.J J J K L M.n.*.F  .L F S J F K L L K J z ",
"%.-.L L L K K %.*.*.-.n.-.L J  .} K *.-.-.n.m.m.M.M.V.M.B.S.G.B.F J o.*.O.G.(.Y.B.M.%.} L } |  .Y.(.Z.v K #.-.-.*.%.#.K J O.n.#.",
"C.M.J J L K K %.V.B.M.M.-.K K L K S n.V.M.m.B.B.M.-.M.M.V.).|.G.F L K K S R.{.!.n.V.O.F L L F  ._.}.S.F } *.V.B.V.V.M.L J %.V.*.",
"M.-.L L } J L %.V.-.M.V.m.K  .| L J -.M.n.B.B.M.m.B.V.n.M.W. XF.F L J D K Y.[.!.n.B.O.J L L F  .`.[.Z.F J *.C.-.M.n.-.L F %.B.=.",
"M.B.M.M.*.F K } F | F.[.S.K L J K J L L L M.M.A.[.Q./.[./.} F K L J L } L J J O.[._.G.B.m.O.K L K L L K K O.B.C.} L | K J *.M.-.",
"n.n.M.V.-.F L K K K ^.@XG.K K L K } J J L B.*.S._.|.|.`._.L J L K K K F L K J o._.{.D.-.B.| b L L L L J F %.C.n.L F K J F *.m.*.",
"M.M.B.M.*.|  .} L K B.G.B.J K L J } J L } V.Z.S.D.S.S.F.Z.L K L K J  . . .} F  .S.S.Z.B.Z.-.O.O.L L L } F -.A.C.L K  . . .n.V.M.",
"m.B.m.M.C.C.V.%.K K F b F J L L K L K K  .`. XV.c J F v F J  .J J J *.Z.V.X.F L F b M.}.}.[.|.[.L L } L S Z.oX`. .D O.B.n.G.{.^.",
"M.B.-.n.B.B.-.X.S L J } L L J K J J K K  .[.@XC.K L L K | L L L K F O.M.m.L F } } D n.[. X[.[./.J L | K S Z.oX`.O.S  .M.M.R. X(.",
"B.C.F.G.F.D.F.D.B.C. .L K  .L O.*.%. .J L *.n.%.L L L K K L K  .*.%.m.V.Z.%.#.O.K L O.=.-.-.-.m.K L } L J $.n.-.L J %.F.G.B.%.#.",
"*.B.}.}.[.[.}.`.|.|. .S L L c %.Z.B. .J K F S K F K } K K } K | C.V.M.=.B.M.V.B.D F K F b F F b L K K L K J D D J D $.[.oX-.b b ",
"M.V.Y.^.`./.(./.^.W.O.J  . .F -.M.M. .L L L K }  .K L K L K J O.M.M.B.m.M.M.B.-.L K L L K  .} J L K K L L }  .} } F $.(.}.n.K b ",
").G.X. .o.|  .O. .o.} F  .B.M.-.M.C. .L K L L  .M.-.M.-.-. .J K | L -.B.B.G.).F.J L L K F K J  .M.B.*.} L } L K L K  .O. .J L S ",
"}.|.K F J F J J b S L F  .B.V.V.M.C.K D F J F O.V.m.B.B.M.K S J L b %.M.-./.OX/.F K L L J L J J -.Z.%.b J L F L F F S b F K } c ",
"D.A.| K L | L  .o.X.J L X.-.*.n.M.M.%.%.O.L K o.M.M.V.M.M.|  . .F J -.C.S.S.S.N.W F K L F o.L O.B.B.*. .X. . .o.%.#.%.%.%. .W v ",
"F L F L  .J K %.C.B.X.J J K J #.C.m.`.[.Q. .S O.B.B.-.m.M.C.V.=.K S C.}.`.} F L K J J L K n.M.m.V.-.B.Z.M.M.C.M.[.[.`.}.}.-.D b ",
"K L L L L b F %.C.-.J z J L J *.M.-.`.}.[. .D +.M.Z.V.Z.M.-.%.n.J b C.|.oXO.F J F K J K J n.C.B.B.V.B.M.n.n.n.n. X X[.}.|.V.D x ",
"L L L J X.%.%.M.B.B.C.C.M.K b -.Y.Y.M.&.-.J F W O.O.o. .o.F.(.M.F K %.-.*.| J } #.%.O.J J X.O.X.O. .%.M.-.S.Q.G.%.=.n.n.-.O.F v ",
"J L K F O.C.M.B.n.n.W.oXW.F b B.|.oX .v G H H L F H L F  .Q.}.S.F G F F F L K | C.B.%.S } } J F  .F  .C.n.G.[.[.} S J S F J L b ",
"K L K J X.M.M.B.m.C.).XXG.L K M.{.[.O.F W L C H G K L K J ).+XH.F L | L J K J  .V.n.#.b } J F  .F S  .Z.n.`.|.[.X.K  .L } } L z ",
"-.-.M.-.M.B.M.B.B.M.O. .O.K J L O.O.H F E x q F ] L K  .K o.L L K L H J  .-.M.n.n.B.D.Q.Q.$.J L Q._.V.J } X.X.O.K } | J J O.B.-.",
"M.M.V.-.V.M.M.M.n.M.L b L F J L S F J H H w w M H F K K H K C G D L L F J n.B.M.C.n.Z.OX}.#.F } |.}.T.S | S L S | K L } L %.C.%.",
"N.N.C.B.V.-.M.B.B.V.} L L  .L  .}  .L H Z w w m H G  . .L  ... .| D | |  .m.m.B.n.V.Z.Y.T.#.F O.Q.R.M.S L  . . .J L X.X.L #.M.n.",
"`.`._.).W.-.B.G.[.`. .S O.C.B.S.B.C. .C A e w N G G -.C.N.N.M.%.D F %.V.M.V.M.M.C.C.O.F J J F K F K L L J n.B.B.| S X.B.B.S.M.%.",
"].}.]. X).*.-.D.oX}.O.S  .B.n.B.M.C.] Z A 9 8 e E C @.V.m.N.C.w.G K $.V.M.m.n.M.=.M.#.F L  .K K J F L J b %.Z.C.| F O.C.n.B.m.*.",
"M.M.M.-.C.S.F.C.n.-. .J  .F.G.M.O.%.] A N 9 e N E F ..=.+.+.O.] F J O.M.m.M.M.V.S.Y.-.J K K F L H J  .O.$.O.#.O.L L L *.X.M.G.V.",
"M C F z O. X X-.b K K F X.|.oXM.S G H A N 9 , i E G G F F J G H F D &.C.M.M.n.C.[.XXB.F K ] J L W F  .C.C...v K F H D K D C..X!.",
"H G  .H *.{.).-.b L L J O.[.[.B.S L H B Y i * B N G H G W H F H W D $.M.-.V.m.Z.[.}.M.F K L C G ] D ..M.B. .K  .K K L K b N.'.W.",
"H F G G L O.O.O.J L L K L %.O.X.K L m 8 i 0 * B Z H H K H M q x W D +.M.B.R.R.F.X.O. .K L C n x H F %.M.M. .G F M z F K F O.O.L ",
"G W H H H F C G K J L L F J F K K H e 8 0 < < y E E H G F x : M G H =.N.N.[.oXQ.F F G H F x n w H G  .C.B.O.C L x q x W G K F c ",
"W G H Z Z H G ] G L J F K W L W H P r 0 < 4 4 1 B m E H H x w N W G @.-.-.F.G.D.H L F ] H N e e H G ..m.-. .H G e w m Z H L L S ",
"G H N w e H H G G H b z M G G H A A 0 1 > 1 > 4 9 9 B Z Z m 8 x H C H G F ] L H K L G E A i 0 0 ' H G J J J H H w 8 i Y E W L S ",
"H Z 8 w N A Z E G G x q x G G G E Q y < % > # 3 % t Y ' N i , e ' G H A H H F G F G C A A e 0 0 B Z E G H G H N i 9 i Y Z W K b ",
"A ' w e e N p N A A x q x H H A e B t < 3 k s s 3 y i p i i 9 e N N A H ' A N F H H G N A 0 < < B m Z H P Z Z V 0 < t B i H L b ",
"V A 8 0 0 0 9 p Y Y m w x H H N * y 3 & 6 2.2./ & & < < y 4 < < 0 9 B A A e w 8 P A m , 0 < 1 4 9 * e B A e 8 0 < < < t 8 N A x ",
"Q V 9 y 4 < & y I B e 8 w A P N * < 3 @ 2 / ` l O & 3 & > > > > < < a I A p e e P A N w 0 4 > # > < i Q Q p < < % > 3 < < B A m ",
"9 y 0 & u ( ( I y y 9 , 0 A ' N = 3 U ~ ~ :.:.~ ^ ( f @ 7 ! ) k = 5 3 y y 0 9 e Q B i , < U / / > 3 = t < < & 4 U ~ U 2 < t e X ",
"< < 3 & h 2.[ j @ = 3 9 i Y Y i < & ( 2.:.^ ` :.` <.g + 2 / 2.~ @ 6 & & 3 < , p Y B a < 3 ( 2.:.@ 2 & 5 < 3 & 5 ` 2.^ & = < 9 X ",
"& 3 5 2 f <.:.g & 5 3 = y I Y a 3 O ( <.` ` _ ;.;.:.d $ 7 ;.<.^ + 7 5 2 u & > y B a y < & ~ :.^ 7 7 7 & & 5 2 7 _ :.l $ 2 3 3 - ",
"3 6 ` ` ;.:.:.:.:._ u & 3 y 3 < 2 & ( / 2.l.v.u.^ <.<.:.<.l.l.s.^ <.<.` ` 6 = 3 < < 3 3 & ^ :.^ ;.:.T ; ; T <.:.;.;.:._ <.j 3 O ",
"O & <.:.;.R l ;.<._ 5 + 3 = & 3 @ @ ~ ` <.z.I.r./ ^ :.^ _ l.v.j.l ` ^ :.2.6 @ & & & = ; + l ;.^ ;.<.l o o l 2.:.^ ^ _ _ 2.h @ . ",
"h h <.^ 1.8.6.3.^ _ j f j h f h d d / 2.` h.k.t.0.4.9.4.4.j.j.g.3.0.:.^ :.g 6 f f u f g 5 :.7.4.;.;.^ d d T ;.;.3.6.4._ <.T f & ",
"<.<.<.^ 4.v.v.8.^ <.[ [ <.<.<.` 3.:.<.:._ z.P.k.l.P.P.P.I.I.K.K.l.U.e.( :.2.3.<.:.[ 2.4.<.j.b.x.>.^ :.:.:.;.^ _ v.P.s.^ / :.2.` ",
"_ ` ;._ 3.x.x.0.~ _ _ ` :._ :.;.;.^ ^ _ <.l.I.z.l.K.k.k.k.h.h.l.z.z.e.^ ` ` / ^ ` ` ` / ^ y.j.f.^ ^ :.;.` ;.` ;.s.j.a.:.:./ ) ! ",
"_ <.r.t.s.x.l.h.t.t.r.t.0.:.;.6.a.d.a.g.a.l.h.k.I.K.K.K.K.K.K.K.k.h.h.t.s.y.r.y.s.y.5.` / h.z.x.r.u.e.` / 8.y.t.c.v.l.t.i.5.{ ) ",
":.:.l.v.v.x.h.z.z.v.l.P.j._ ^ q.c.c.c.l.l.I.k.L.L.i.K.K.p.J.J.J.K.K.U.k.x.b.x.v.v.x.e.` / h.z.j.v.v.s.^ ~ y.v.v.l.j.z.l.P.e.` k "
};
