/* XPM */
static char *_e8d7faca714418b91db3d99f03b1917[] = {
/* columns rows colors chars-per-pixel */
"64 64 162 2 ",
"   c #5F361A",
".  c #5F3B1D",
"X  c #61371A",
"o  c #63391A",
"O  c #6C3D1C",
"+  c #773E17",
"@  c #7A3D16",
"#  c #773E18",
"$  c #6D411E",
"%  c #74431E",
"&  c #7C461F",
"*  c #7B481F",
"=  c #6B4322",
"-  c #744421",
";  c #7B4720",
":  c #7C4720",
">  c #734923",
",  c #744922",
"<  c #764A25",
"1  c #794820",
"2  c #7C4821",
"3  c #7E4A23",
"4  c #7F4A24",
"5  c #7F512B",
"6  c #75642B",
"7  c #7F6C2F",
"8  c #747227",
"9  c #7D732F",
"0  c #777C2B",
"q  c #7B7D2E",
"w  c #7C6C33",
"e  c #7E7231",
"r  c #83411B",
"t  c #80451E",
"y  c #814A25",
"u  c #814B25",
"i  c #824D27",
"p  c #884D26",
"a  c #854D29",
"s  c #8D4F29",
"d  c #805A25",
"f  c #85502A",
"g  c #87512A",
"h  c #86502B",
"j  c #89512B",
"k  c #8B532D",
"l  c #8B542F",
"z  c #95552F",
"x  c #875332",
"c  c #8C5530",
"v  c #865C36",
"b  c #8D5934",
"n  c #8F563C",
"m  c #8D5B3A",
"M  c #915732",
"N  c #995733",
"B  c #915833",
"V  c #915834",
"C  c #925A35",
"Z  c #995934",
"A  c #93563C",
"S  c #98573E",
"D  c #945B3B",
"F  c #9A5D3A",
"G  c #81632F",
"H  c #866334",
"J  c #886033",
"K  c #826B33",
"L  c #97603F",
"P  c #9D613D",
"I  c #817231",
"U  c #857934",
"Y  c #A1623E",
"T  c #AB653F",
"R  c #965C40",
"E  c #9C5E41",
"W  c #9D6241",
"Q  c #A36542",
"!  c #AB6641",
"~  c #A66844",
"^  c #AB6B46",
"/  c #A8664B",
"(  c #A56E4A",
")  c #AC6C49",
"_  c #B26944",
"`  c #B26C48",
"'  c #A5704C",
"]  c #6A9D19",
"[  c #66A61B",
"{  c #69A51E",
"}  c #64AA1E",
"|  c #68A91E",
" . c #74A41E",
".. c #78A41D",
"X. c #70AF1B",
"o. c #7AAA1E",
"O. c #7C8226",
"+. c #74842C",
"@. c #7A862D",
"#. c #778D2B",
"$. c #798B2D",
"%. c #6B9625",
"&. c #6D9D22",
"*. c #6F9F2D",
"=. c #749427",
"-. c #719F25",
";. c #759429",
":. c #7A932D",
">. c #739D2A",
",. c #799C2C",
"<. c #7E8232",
"1. c #7D8A31",
"2. c #6EA324",
"3. c #6EA129",
"4. c #71A224",
"5. c #79A624",
"6. c #7CA923",
"7. c #73A22A",
"8. c #7CA22A",
"9. c #84AC1C",
"0. c #82842A",
"q. c #808131",
"w. c #82AC22",
"e. c #83A728",
"r. c #85B124",
"t. c #8BB324",
"y. c #87B921",
"u. c #8BB428",
"i. c #91B725",
"p. c #94BB25",
"a. c #9CBF27",
"s. c #91B32B",
"d. c #93BA29",
"f. c #99BD29",
"g. c #9CC126",
"h. c #9DC12A",
"j. c #A3C425",
"k. c #A2C62A",
"l. c #A7C82B",
"z. c #ABCB2C",
"x. c #B4CE23",
"c. c #B3CF2B",
"v. c #B8CF28",
"b. c #AFD12C",
"n. c #B4D127",
"m. c #B3D02A",
"M. c #B9D32A",
"N. c #AFCF32",
"B. c #B2CF33",
"V. c #AED034",
"C. c #B2D232",
"Z. c #B8D431",
"A. c #C2D93E",
"S. c #BFDA45",
"D. c #BBDA4C",
"F. c #C0D945",
"G. c #C5DB57",
"H. c #CADC53",
"J. c #C7DF5D",
"K. c #C8DE5B",
"L. c #C4DF63",
"P. c #C8DE61",
/* pixels */
"@ t & & & & & & & & & & & & & & & & & & : & : * % * & & & & & & & & & & & & & t & & & & & & & & & & t t & & & & & & & & & t 1 r ",
"+ ; ; 1 1 1 1 1 1 1 1 1 1 1 1 1 1 1 1 1 1 1 - o o O % 1 1 1 1 1 ; 1 1 ; 1 1 1 1 1 1 1 1 1 1 1 1 1 1 1 1 1 1 1 1 1 1 1 1 ; : > & ",
"@ : ; ; : ; ; ; ; ; ; ; ; ; : : : ; ; ; ; & O X o o % : : & & & ; ; ; ; ; ; ; : : : ; ; ; ; ; ; ; : : : ; ; ; ; ; ; : ; : & , & ",
"+ : ; ; : ; ; 1 ; ; ; ; ; ; : & * ; ; ; 1 & O X o o % 1 ; : ; : ; : : ; ; ; ; : ; ; & & ; ; ; ; ; ; : : ; ; ; ; ; ; & ; ; & , & ",
"# : ; 2 : : ; ; ; ; ; ; ; ; : ; ; ; ; ; ; : - O o $ ; 2 ; ; ; ; ; : : ; ; ; ; ; : ; 1 1 1 ; ; ; ; ; ; ; : : ; ; ; ; : * * & , & ",
"# : ; 1 2 ; ; ; ; ; ; ; 2 2 1 ; ; ; ; ; ; ; ; * % ; : ; ; ; ; ; ; ; ; ; ; ; ; 1 ; % O O - ; : : ; ; ; ; ; ; ; ; ; ; 1 1 * & < & ",
"# : ; % - ; ; ; ; ; ; ; % % % ; ; ; ; ; ; ; ; : : 1 ; ; 2 ; ; ; ; ; ; ; ; ; ; * O o o o o $ 1 1 ; ; ; ; ; ; ; ; ; ; : - O O = & ",
"# : ; O O ; 1 ; ; ; : ; O X O ; & ; ; ; ; * 2 ; ; ; ; ; ; ; ; ; ; ; ; ; ; 2 2 % o o o o o o % 2 ; ; ; ; ; ; ; ; ; ; : O X X . & ",
"# : ; - - 1 ; ; ; ; : ; o   o ; 2 ; ; ; ; * ; ; ; ; ; ; ; 2 ; ; ; ; ; ; ; 1 2 O   o o o o o O 1 ; ; ; ; ; ; ; ; ; ; ; O X X . & ",
"# : ; 2 2 & ; ; 2 ; ; ; % O % 1 ; ; ; ; ; ; ; ; ; ; ; : ; ; ; ; ; ; ; ; ; * 2 O o o o o o o O 1 : ; ; ; ; ; ; ; ; ; 2 - o o $ & ",
"# : ; ; ; ; ; ; ; ; ; ; 1 1 1 ; ; ; * ; ; ; ; ; ; ; ; 1 ; 1 1 ; ; ; ; ; ; ; 2 % o o o o o o % 2 ; ; ; ; ; ; ; ; ; ; ; ; ; * > & ",
"# : ; ; ; ; ; ; ; ; ; ; * & * ; * * * ; ; ; ; ; ; ; : : ; ; ; ; ; ; ; ; ; 1 ; ; $ o o o o $ ; : ; ; ; ; ; ; ; ; ; ; ; ; : : , & ",
"# : ; ; ; ; ; ; ; ; ; ; ; ; ; ; ; * ; ; ; ; ; ; ; ; ; ; 2 2 ; ; ; ; ; ; ; ; 1 ; ; % O O - ; : ; ; ; ; ; ; ; ; ; ; ; ; ; * : , & ",
"# : ; ; ; ; ; ; * * ; ; ; ; ; ; ; ; ; ; ; ; ; ; ; * : ; - % ; ; ; ; ; ; ; * ; ; ; ; ; 1 ; : ; ; ; ; ; ; ; ; * * ; ; ; ; * : , & ",
"# : ; ; ; ; ; ; 2 * ; ; ; ; ; ; ; ; ; ; ; ; * ; ; ; 2 % o o % 1 ; ; ; ; ; ; 2 2 ; ; ; ; ; ; ; ; ; ; ; ; ; i k i ; ; : 1 * : , & ",
"# : ; ; ; ; ; ; ; ; ; ; ; ; ; ; ; ; ; ; * ; ; ; ; ; : % o o % ; 2 ; ; ; ; * a l : * ; ; ; ; ; ; ; ; ; ; : k V l ; ; : 1 * & , & ",
"# : ; ; * ; ; ; ; ; ; ; ; ; ; ; ; ; : : ; * ; ; ; : : % $ % - ; ; ; ; * ; * y a : ; ; ; ; ; ; ; ; ; ; ; : a l a ; ; ; * & : , & ",
"# : ; * * ; ; ; ; ; ; ; ; * * ; ; * a k 4 1 ; ; ; ; ; ; : : ; ; ; : : * ; ; * * ; ; ; ; ; ; ; ; ; ; ; ; ; ; 2 ; ; ; ; 1 : & , & ",
"# : * 2 2 & ; ; ; ; ; ; * : * * ; ; a c y ; ; ; ; ; * ; ; 2 a 4 ; ; ; * * * ; ; ; ; ; ; ; ; ; ; ; ; 2 ; ; ; * * ; ; ; 1 & y 5 t ",
"# : 2 c l : * ; ; ; ; ; y k g 2 * 1 : : : : ; ; * : : * * 2 g y ; * * 4 i y ; ; ; ; ; ; * ; ; ; ; % * 2 ; ; : ; ; ; : * * j v k ",
"# : 2 M c 2 * ; ; ; ; : c V V g * ; : ; ; 2 : y g l l g 2 ; * ; ; 2 a c V V j 2 * ; ; 2 ; 2 ; ; ; % % ; ; ; * ; 1 : : 1 * p v p ",
"# : ; 2 2 * ; * * * * 2 c V V k * * ; ; * ; a c V c c V c i 2 2 y k V V B V V k 2 * ; ; ; ; 1 ; * 2 ; 1 * 1 4 a k c c g 2 & < & ",
"# : ; * * * 2 y y 2 * ; a c l y * ; ; * : g B V j 2 2 g B B l l M V V V V V V V g ; ; ; ; ; ; 4 y : * * 2 g c b B V V B a * > & ",
"# : ; * 2 g c c c c a ; * 2 2 ; ; ; * 2 k B V k : * * ; k V V V B B V V M k k c B a * ; ; ; 2 c M i * y c B k y 4 g c V l y , & ",
"# : 2 a c V V V V V V k 2 * * ; ; * 2 l V B B a * ; ; * a V B B B B V V a : * 4 c M 4 * ; ; 4 M V a 2 c V k ; * * ; a b B k 2 & ",
"y k c V V B k y a M V V l 2 * * % 2 l V B B B k ; * * * g V B B B B B c 2 * ; ; a V l 2 ; ; 2 i a : a V V y % ; : * 2 c B M v s ",
"k B V B M M y * * k V B V c a i i k V B B B B c a 2 : a b B M B B B B c 2 * * * a V V g * ; ; ; * 4 c V B y * * ; * 2 c V M v N ",
"k B V b B M y * ; l V V B B V M B V B B B V B B B c c b V B B B B B B c a 1 1 y c V B b a : ; * 2 l V B B g ; * * ; a b B B v z ",
"k B b B B M k a a M B B B B V V V b b B B B B B V V V V V B B B b B B B c l k c V B B V M g y i k B B B B c g y 4 a c V B V v z ",
"k B B B B V V B B B V B B V c c B B B V V V B B B B B c l c B B B B B B V B B B B B B B B B c M B B B B B V B c c B B b c l v z ",
"k B B B c k c B B B B B B k 2 y c V B l k c V B B B V g ; g V B b b b B V B B B B B B B c B B B B B V B B B B V B V B c y : g N ",
"k B b V k 2 k V B B B V B a * * k V k : * y c V B B V l i k V B b b b M B B B B B B B B B B B B B B B B B B B B B B V c : * g N ",
"k B B B c l c B c B B B B l y i c V y % 1 * k V B B B B B B B B B B V V B B B B B c B B B B V V B B B B B B B M c B B b j a v N ",
"k B B B B B B B B B B B B B b B V B i * * ; k V B V B b B B B B B V Q Q F B b c B B B B B k a l B B B c B B B D F B c b B M b z ",
"k B B B B c b B B B B V B B B V V B l i 4 a b V B c B V V M c B B V ^ ) F c c M c b B V c : % i b B B B B B B Q ^ V c b B N v z ",
"s F P V c c B c c c V B B B B B B B B c c B B B c V Q ^ Q P B c B V F F V P Q P V c M V M i : g b B c B B B B F P V B b B M v z ",
"s F Q V B P Q P F V c c B B B B B B c B B B b c V ~ ~ ^ ) ) Q V c c M F ~ ) ) ) ^ F c B B c c b B B B B B B M B B B B B B M v N ",
"k M M B Q ) ) ) ) ~ P B c B B B B B V V B b M V Q P M V Q ) ) ^ P P Q ) ) ) ) ) ) ) Y B b B B B B B B B c M B M M M B b B B v N ",
"k B c P ) ) ) ) ) ) ) ~ V b B B B V Q F M b V Q Q M b c V ^ ) ) ) ) ) ) ) ) ) ^ ~ ^ ) Q V M V V B B B B c B P Q ~ Q V b M B v z ",
"k M F ^ ) ) ) ) ^ ^ ) ) ^ V c V B B D V B c F ) Q M c c D ^ ) ) ) ^ ) ) ) ) ~ F V D ^ ) Q V P D M B B c V Q ) ) ) ) ^ P M M v z ",
"N Q ) ) Q P ^ ) ) ) ) ) ) Y M B B B B B c V ^ ) ^ F V V Q ) ) ) ) ) ) ) ) ) F c b c F ) ) Q V c B c c D ^ ^ ^ ^ ) ) ) ) Y Z m N ",
"! ) ) ^ V c Y ^ ^ ) ) ) ) ^ F c b B V c M Q ) ) ) ^ ~ ~ ) ) ) ) ) ) ) ^ ) ) F c c c F ^ ) ) Q V B V P ^ ) ) ) ) ) ) ) ) ) ^ ( ! ",
"! ^ ^ ^ F D ~ ^ ^ ) ^ Q ^ ) ~ V c B c M Q ) ) ) ) ) ) ) ) ^ Y ~ ^ ) ) ^ ) ) Q V c V Q ) ) ^ ^ ^ ~ ^ ) ) ) ) ) ) ) ^ ) ) ) ` ( _ ",
"T ^ ) ) ) ) ) ) ^ ^ ^ F ~ ^ ) Q V c V Q ) ^ ^ ^ ^ ) ) ) ) ~ V P ) ) ) ^ ) ) ) ~ Y ~ ) ) ^ ) ) ) ) ) ) ) ^ ^ ^ ^ ^ ) ) Q P ^ ' _ ",
"! ) ) ) ^ ^ ) ^ ) ) ) ^ ^ ) ) ) ^ Q ^ ) ) ) ) ) ) ) ) ^ ^ ^ ^ ^ ^ ^ ) ) ) ^ ^ ) ) ) ) ) ) ) ) ^ ) ) ) ) ) / / ) ) ) ^ V l Y ( _ ",
"! ) ) ) ) ^ ~ ^ ) ) ) ) Q E E Q ) ) ) ) Q E D D D W ) ) ) ) ) ) ) ^ ) ) ) ^ ) ) ) ) ) Q E W Q ^ ) ) ) ) E D m D W ) ^ D c F ( _ ",
"! ^ ) ) P D m m W ) ) F v v v v D ~ ) Q m v w 9 K v F ~ W m m D Q ) ) W m m m P ) ) W m v v v D ~ ) ~ m v K e K v D Q L x b m Y ",
"S S E S g 7 I K v E E H @.;.;.@.K R / D 9 =.>.>.>.=.K n v K e K m Q Q v K e K v E E H q ;.;.@.K D / F e ;.-.,.2.;.K A m K I w c ",
"d 7 w 6 +.>.,.>.1.G 7 :.4.4.4.4.,.I m U >.3.3.2.2.4.:.0 1.,.7.,.@.J H $.,.7.,.#.H K #.7.2.7.7.>.U v 7 >.2.2.2.2.4.,.q $.,.,.3.0.",
"O.:.#.:.4.[ 2.} 7.@.#.2.| 2.2.| | :.9 :.[ &.&.2.2.2.2.-.2.[ [ 2.4.q.<.2.| | | 2.1.$.2.} 2.&.{ | :.8 $.| { -.2.4.2.2.>.2.| | } 4.",
"] X.y.p.f.s.8.>.3.2.2.3.>.4.&.-.4.2.%.>.r.i.t.6.2.-.3.2.6.e.,.>.2.2.2.&.>.>.,.7.2.2.3.*.6.u.s.u.7.%.-.>.5.w.5.2.>.>.2.2.>.,.*.-.",
"9.l.m.Z.Z.m.k.r.w.f.h.t.4.&.w.p.g.i.w.f.b.Z.m.z.t.2.6.h.l.z.k.w.2.r.a.a.t.4.4.i.h.f.9.r.l.m.Z.b.h.5.4.i.l.z.z.d. .5.p.h.p.o.2...",
"j.M.n.c.v.n.n.z.z.C.m.m.d.w.l.m.m.m.z.m.n.n.n.M.z.r.k.M.m.n.M.l.d.z.m.m.z.p.h.m.m.m.z.z.m.n.n.n.Z.d.u.m.m.n.M.C.p.h.C.m.m.k.h.j.",
"x.n.m.n.m.c.c.n.n.n.n.m.z.l.n.n.n.n.n.n.c.m.m.n.c.l.c.n.n.c.c.c.c.n.n.c.n.c.c.n.n.n.n.m.m.m.c.c.m.z.l.n.c.n.c.n.c.c.n.m.c.v.B.n.",
"x.c.c.c.c.n.n.n.n.n.c.c.n.c.n.n.n.c.c.n.n.n.c.c.c.n.m.m.n.n.n.n.n.c.c.n.n.n.n.m.c.c.m.n.n.n.n.n.c.c.n.n.n.n.n.n.n.n.n.m.n.n.V.x.",
"x.n.n.n.n.c.c.c.n.n.m.m.c.n.n.c.c.n.n.n.c.c.n.n.n.c.c.c.n.n.c.c.n.m.c.c.n.c.c.c.n.n.n.c.c.c.c.c.m.n.n.n.n.c.n.n.c.c.n.n.n.v.C.x.",
"x.n.n.n.n.c.c.c.n.n.n.n.n.n.n.c.c.n.n.m.c.c.m.n.n.c.c.n.n.c.c.n.c.n.n.n.n.n.c.c.n.n.c.c.c.c.c.c.n.n.n.n.c.c.n.n.c.c.n.m.n.v.C.x.",
"x.n.c.n.n.n.n.n.n.n.n.n.n.n.n.n.n.n.n.n.n.n.n.n.c.n.n.n.n.n.n.n.n.n.n.n.n.n.n.n.n.n.m.n.n.n.n.n.n.n.n.n.n.n.n.n.n.n.c.m.n.n.C.x.",
"x.n.n.n.c.c.c.c.c.c.c.n.c.n.n.c.c.c.c.c.c.n.c.n.n.n.c.c.c.c.c.c.c.c.c.c.c.c.c.c.c.c.n.c.c.c.n.c.c.n.n.c.n.n.c.c.c.c.c.c.c.x.N.x.",
"x.c.c.c.c.c.c.c.c.c.c.c.c.c.c.c.c.c.c.c.c.c.c.c.c.c.c.c.c.c.c.c.c.c.c.c.c.c.c.c.c.c.c.c.c.c.c.c.c.c.c.c.c.c.c.c.c.c.n.m.c.c.B.x.",
"A.F.F.F.F.F.F.F.F.F.F.F.F.F.F.F.F.F.F.F.F.F.F.F.F.F.F.F.F.F.F.F.F.F.F.F.F.F.F.F.F.F.F.F.F.F.F.F.F.F.F.F.F.F.F.F.F.F.S.S.S.F.D.A.",
"K.P.P.J.J.J.J.J.P.P.J.J.J.J.J.J.P.P.J.J.J.J.J.J.P.P.P.P.J.J.J.J.P.P.J.J.J.J.J.J.P.P.J.J.J.J.J.J.P.P.J.J.J.J.J.J.P.P.J.P.J.J.L.K.",
"H.K.K.K.K.K.K.K.J.J.K.K.K.K.K.K.J.K.K.K.K.K.K.K.J.J.K.J.K.K.K.K.J.K.K.K.K.K.K.K.K.J.J.K.K.K.K.K.J.J.K.J.K.K.K.K.J.K.K.J.K.K.P.H.",
"H.G.G.G.G.G.G.G.G.G.G.G.G.G.G.G.G.G.G.G.G.G.G.G.G.G.G.G.G.G.G.G.G.G.G.G.G.G.G.G.G.G.G.G.G.G.G.G.G.G.G.G.G.G.G.G.G.G.G.G.G.G.J.H."
};
