/* XPM */
static char *_874a5a0b5f940fba570f375393668bd[] = {
/* columns rows colors chars-per-pixel */
"64 64 237 2 ",
"   c #1A171A",
".  c #271A1A",
"X  c #2C190D",
"o  c #29241A",
"O  c #35241A",
"+  c #36210E",
"@  c #191926",
"#  c #251E24",
"$  c #1E2027",
"%  c #2A2524",
"&  c #2A242B",
"*  c #2D2B2C",
"=  c #262727",
"-  c #352A27",
";  c #3B332C",
":  c #35332E",
">  c #252C3C",
",  c #2A2E3D",
"<  c #2B2932",
"1  c #342B35",
"2  c #2A323D",
"3  c #333234",
"4  c #383539",
"5  c #5C3B1C",
"6  c #59381A",
"7  c #4B301A",
"8  c #653916",
"9  c #633B1C",
"0  c #64371A",
"q  c #46372B",
"w  c #5C3D23",
"e  c #5B3D2B",
"r  c #533A28",
"t  c #453B33",
"y  c #4B3D34",
"u  c #423939",
"i  c #553B34",
"p  c #402F28",
"a  c #643D24",
"s  c #693F25",
"d  c #643E2B",
"f  c #6B3E2A",
"g  c #603620",
"h  c #6A3B31",
"j  c #6A461F",
"k  c #5B4228",
"l  c #4B4338",
"z  c #534233",
"x  c #58463A",
"c  c #5D553E",
"v  c #654124",
"b  c #6A4224",
"n  c #65422A",
"m  c #69432B",
"M  c #6E4C29",
"N  c #724C26",
"B  c #734B2B",
"V  c #7D4C2C",
"C  c #774829",
"Z  c #7A522D",
"A  c #694837",
"S  c #734B33",
"D  c #7A4E34",
"F  c #744A37",
"G  c #6C5539",
"H  c #7C5433",
"J  c #7D5C3C",
"K  c #775639",
"L  c #7A613C",
"P  c #292F44",
"I  c #262D41",
"U  c #2C3344",
"Y  c #2D3649",
"T  c #323945",
"R  c #343B4C",
"E  c #373A48",
"W  c #393F51",
"Q  c #373D51",
"!  c #2E3851",
"~  c #443E44",
"^  c #493F4D",
"/  c #3B424D",
"(  c #3C4354",
")  c #3D435A",
"_  c #3F4B5D",
"`  c #474349",
"'  c #594B46",
"]  c #434A55",
"[  c #41465B",
"{  c #444B5C",
"}  c #494D5D",
"|  c #454854",
" . c #49515E",
".. c #55555A",
"X. c #565051",
"o. c #695748",
"O. c #7B5B42",
"+. c #765C47",
"@. c #755E50",
"#. c #675147",
"$. c #75614B",
"%. c #7A634B",
"&. c #7B6346",
"*. c #7A6656",
"=. c #6D604D",
"-. c #454C62",
";. c #494E63",
":. c #494E6B",
">. c #4C5364",
",. c #4E546A",
"<. c #495464",
"1. c #515565",
"2. c #51566B",
"3. c #535A6C",
"4. c #585E6F",
"5. c #555865",
"6. c #555B71",
"7. c #595E73",
"8. c #515571",
"9. c #5A616E",
"0. c #5C6274",
"q. c #5E647A",
"w. c #5B6575",
"e. c #7A6B64",
"r. c #616576",
"t. c #61667B",
"y. c #636A7C",
"u. c #6A6C7C",
"i. c #656B76",
"p. c #6A727D",
"a. c #74757C",
"s. c #635E64",
"d. c #865C36",
"f. c #8A5C35",
"g. c #855C3A",
"h. c #8C5D3B",
"j. c #865636",
"k. c #915D3D",
"l. c #915C36",
"z. c #84532F",
"x. c #84643D",
"c. c #8C633C",
"v. c #8B693E",
"b. c #91633D",
"n. c #926A3E",
"m. c #845D43",
"M. c #8D5D43",
"N. c #895C49",
"B. c #8E5F4B",
"V. c #856343",
"C. c #8C6343",
"Z. c #8D6944",
"A. c #8C634A",
"S. c #8D6A4A",
"D. c #836748",
"F. c #926342",
"G. c #926A42",
"H. c #91644B",
"J. c #946949",
"K. c #846855",
"L. c #8D714F",
"P. c #837168",
"I. c #928171",
"U. c #606680",
"Y. c #656C82",
"T. c #686E84",
"R. c #696F89",
"E. c #676C89",
"W. c #6C7285",
"Q. c #6D748B",
"!. c #6A7588",
"~. c #727586",
"^. c #71768C",
"/. c #747A8D",
"(. c #7B7D8C",
"). c #747A85",
"_. c #6E7890",
"`. c #757C93",
"'. c #797E94",
"]. c #797E99",
"[. c #747A97",
"{. c #7A808D",
"}. c #7B8294",
"|. c #7C839B",
" X c #768195",
".X c #7E83A1",
"XX c #81869D",
"oX c #838A9D",
"OX c #878998",
"+X c #8D8C8E",
"@X c #8286A3",
"#X c #858BA4",
"$X c #898EA5",
"%X c #868CA9",
"&X c #898EAB",
"*X c #8B92A6",
"=X c #8C92AC",
"-X c #8692A4",
";X c #9196AC",
":X c #939AAD",
">X c #979BAB",
",X c #8E93B1",
"<X c #9196B3",
"1X c #949AB3",
"2X c #999EB5",
"3X c #969CBA",
"4X c #9A9EBB",
"5X c #898FB1",
"6X c #9BA2B5",
"7X c #9DA3BB",
"8X c #95A1B1",
"9X c #9FA3AF",
"0X c #A1A6BD",
"qX c #A3AABD",
"wX c #A5A7B8",
"eX c #A3A3AC",
"rX c #A09FB1",
"tX c #9EA3C1",
"yX c #9EAAC4",
"uX c #A1A6C2",
"iX c #A4AAC3",
"pX c #A9AFC4",
"aX c #AAAECB",
"sX c #A7ACCA",
"dX c #ABB2C5",
"fX c #ACB3CA",
"gX c #AAB4CB",
"hX c #B0B6CB",
"jX c #B3BACC",
"kX c #B3B7C5",
"lX c #B5BBD1",
"zX c #BABED8",
"xX c #ADB2D1",
"cX c #BAC0D3",
"vX c #BAC1D9",
"bX c #C6C6D4",
"nX c #CBD0E3",
/* pixels */
"4X4X7X7X=X=X|.Q 6XqXiX1XuXyXtX7X4X7X2X6X2XoX1X) ].aXaX3X4XfX7X7X2X2X4X2X7X$X1X7.6.gXpX6X;XaX4X0XtX1X7X2X6X$X*X'.) 2XpXiX=X0XsX2X",
",X=X=X=X$X$XXX6.iX2X2X=X1X<X%X<X&X=X,X=X*X=X=X,.,XuX,X4X<X%X$X=X=X&X&X<X#X=X1XU.!.dX*X2X<X<X<X&X=X=X=X=X#X=X=X'.6.pX2X2X<X=X=X=X",
",X,X&X&X3X=X=X<.1X7X=X=X&X,X,X,X5X,X&X,X$X=X1XU.].fX,X&X<X=X=X<X&X,X<X<X%X%X=XQ.q.sX=X=X,X&X,X,X&X<X&X&X,X=X<X@X,.7X1X=X<X1X=X=X",
",XtX,X@X|.=X#X,.=X=X=X<X,X&X,X,X3X3X,X&X@X$X*X8.[.4X%X&X&X,X;X#X,X1X,X&X@X=X<XR.0.7X=X,X,X,X,X,X,X1X3X=X@X|.%X@X6.<X,X=X,X&X=X,X",
"3X.X.XQ.|.|.Y.) ;X=X=X$X=X=X,X,X,X%X@XQ.^.|.Q.{ '.<X,X1X<X<X;X1X1X,X#X|.!.#X^.,.0.:X=X1X#X=X,X5X,X=X@X|.!.#X].q.-.=X<X=X=X=X1X=X",
"%X@X.X=XiXY.2.{ ^.;X=X:X1X=X2X@X@X=X|.oX0X}.,.[ 0.;X'.].[.Y.R.T.E.q.t.Y.oX$X2.;.{ *X*X*X2X1X,X=X#X@X$X|.=X7Xq.,.-.'.1XXX=X1X$X1X",
"=X_.<.Q.;.R { I U { ( 3.0.>.w.0.*X`.3.y.0./ { ( Y { Q.|.#XsX7XsXsXiX0X'.oXr.| { 2 ] [ { 0.3.3.0.W.:XY.7.T.[ { ( I U { { 6.0.>.y.",
"U.Q.`.W.'.`./.Q././././.W.W.R R >.'.W.~.}.r./ ( 3.qXfXlXiX1X4X,X#X,X2X2XpXdX>X1.E ( oX}.).W.9.U ( y.Q.~.~.}././.Q.}./././.T.y.R ",
"=XiXfXiXiXdXqX6X2XqXjX6X6X:X}.U /.wXkXqX/.>.y.6X<.-XgX$X@X|.=X@X%X|..X`.}.oX0.4.oXw./.6XwX:X:X4.( 6XwXpXfXqXqXiX1X6XqXlX7X*X2X'.",
"gX=X$X=X|.Q.^.XX*X*X;X-X:X|.*X6.wX:X/.( 0.6XjXqXT.;.iX1X$X|.|.=X,X].|.|.w.y.Y y.fXfX^.6.3.*X;XW.3.pX#X#X#X X`.Q.$X#X*X*X#X6XXX:X",
"yX=X=X,X,XyX1X<X=X=X=X$X#X`.|.7.;X^.,.$XvXlX,X$X'.-.|.:X*X2X1X1X'.`.$X0.;._ q.1XvX=X3X4X_.<.^.y.2.sX<X<X&X<X4X7X<X,X<X&X=X@X!.|.",
",X%X%X=X=X,X=X4X3X&X&XQ.Y.U.R.q.7.) 4XzX4X<X,X&X`.T.[ r.W.OX~.1.1.y.5.>.5.{ oXhXsX5X,X=XyX|._ ! ,.,X|.&X3X=X%X<X4XtX@X#XQ.E.Y.U.",
"'.!.Q.1X3X&X<XiXyX#X#XQ.&X$XT.) ) iXxX=X&X%X<X=X}.W.` 4 E 4 < < 1 3 * ` 3 } 9XcX=X,X,X,X@X2X XP ;.$X!.Q.1X1X<X,XsXyX%X|._.=X#XT.",
"y. XY.^.1X@X^.'.|.XXY.Q.^.t.,.-.7XiX&X%X.X#X#X'.u.E & % ; ; - p q - ; O - * ..9X:X<X].|.=X|.`.w.( 6.Q.Y.'.;X|.`.].|.|.Q.Q.W.q.,.",
"U U R [ <.<.y.y.3.( ( ;.{ >.{ wX8XQ.=X2X2X#XT...1 % - ' o.+.x G K.+.K.e i ' ; ~ OX#X@X#X=X#X4.9.u.U ( ( Q 2.>.y.Y.3.( [ { { [ [ ",
"q.w.y.w.9.T U R R w.y.y.W.R 5.{.oX|.^.}.^.7.T # % y x %.D.O.6 K A.m.m.m A K.@.q ^ (.t.`.|.t.} ]  .( ( r.y.>.Y Y T R 0.y.W.y.y.y.",
"lXfXlXjX6XoXW.U }.cXcXdX/.,.*Xw.{ 6.y.w.6.` . O #.r G Z.g.F.f S C.h.A.f S Z.&.o.; ` 5.7.!.<.] / W.*X{ oXcX:XOXy.T #XcXcX0XhXlXfX",
",X&X&X,X&X1XoX>.dX:X:Xy.( qXvXlXXX;.R 1.W @ o A @.n Z n.f.k.f F C.g.A.f C F.x.L z ; ` 5.) ! p.dXvX2XQ.Y y.-X;X}.>.dX2X=X<X1X1X#X",
",X<X&X,X$X$X$X,.6X2X2X) #XvX3X4X4X X<.E = % z K.%.n Z b.f.b.f F C.d.C.b C k.c.x.5 G q ; { !.jXkX=X,X2X0.) ;X;X}.6.iX2X4X,X=X<X=X",
"=X3X1X&X=X=X=X,.1X1X|.-.uX<X=X.X,X#XW.T   ; o.%.+.w B c.f.F.m S F.g.C.b C c.c.x.5 L $.t OXnX6X6X&X&XsXQ.U  X*X$X2.1X=X,X,X,X&X<X",
"2X=X@XQ.`.oXT.{ $X2XY.q.fX=X@X@X,X@X).2 * y +.A.m.9 Z b.f.c.n S Z.d.C.b C C.C.x.5 L D.z ..hXdXoX<X&X1X`.) t.XXY.-.=X,X=X,X,X,X&X",
"|.oX X`.qXW.6.{ XX7XU.T.7X=X=X<X.X].9.  t i G S.V.9 V k.f.c.n S C.d.C.v B C.A.x.5 x.x.G u :XsX.X%X1X@X^.) { W.3.-.|.7X1X<X,X=X1X",
":X}.y.*Xy.{ <.Y W y.[ ^.;X#XXX|.[.U.] = y r J G.c.8 V l.f.c.m S C.d.C.v B A.C.x.8 x.v.L - a.4X&X|.oX$X^.<.R { } U { 7.,.^.`.Y. X",
"y.0.3.,.3.0.3.>.3.2.{ ^.;XoX*X@XQ.t.2 o x w H b.c.8 V k.c.c.m F C.g.Z.v B C.c.g.9 g.c.x.z X.'.&X1XoX0.y.<.T >.3.,.>.6.3.0.3.2.R ",
"|.qXfXfXfXhXfX7X7XkX|.) W.Y.0.3.8.t.= % #.w H G.g.8 z.k.d.Z.v F F.h.V.b B d.G.d.8 h.n.x.x ` 3.R.Q.T.7.w.4.> 9.fX6X0XhXcX6X:X:Xw.",
"uX1X=X&X|.`.^.XX#X;X`.Y ;.,.2.,.,.[ = - #.w H C.Z.9 D M.c.G.g D M.h.Z.v B g.S.S.6 C.c.D.o.1 ^ 8.6.2.,.( U R 2./.$XoX$X6X$X;XoX6X",
"aX&X,X<X&X4X<X,X,X&X8.R.jXfXiXuXXX1.= * #.e O.V.D.5 F J.H G.m S F.h.C.m n K.P.o.z *.%.*.X.| eXzXsX7X2XW.R Q 0.*X=X;X1X=X$X1X|.oX",
",X,X<X,X&X3X&X4X1X@X,.sXiX=X&X<X;X'.2 * o.x A K.K.A A m.c.C.a D F.l.Z.w +.P.' * 1 ; z *.# 5.nX>X=X&X#X$XY.Y ,.2X1X=X&X=X'.U.q.U.",
".X[.[.,X<X=X<XsXsX|.:.sX,X4X&X#X#X~., 3 P.e.- P.P.P.O K.V.g.d F k.k.H.k ' . 4 <   * - o T 0.kXoX@X&X&X=X'.P 2.2XsXsX@X.XQ.#X$XQ.",
"^.`.Y.|.7X#X'.#X$X|.q.7X$X=X=X$X}.u., 2 X.X.# ' ' t ; r J V.n S l.z.H.w #.y   % * % o ; $ >.>X}.=X=X=X`.y.U ,.`.|.$X|.'.^.'.W.6.",
"( { >.4.Y.q.W.W.t.2.>.6X=X$X2X|.}.T., @ @ < <       . X K A.w F b.z.V.m A K.e r i z k x 3 ] |.|.$X*X#X^.>.U <.~.Q.w.7.;.0.3.,.{ ",
"( ( ( ( ( U ( [ ( R { oX#X}.'.-X/.7., < E = & u u o o q J V.d F c.f.m.d F B.H.J w K L G l 4 Y.Q.Q.Q.3.y.>.U 2 ( [ R ( { >.;.{ { ",
"gXfXfXfX;XY.1.> y.qX2.( 0.( ( } | E = * e.y q #.*.r 7 G V.c.s C b.h.N.m B Z.c.H 5 J Z.V.l 3 / ( [ ( ( [ R 2 9.5., y.lXhXwXdXdXdX",
"1X<X=X=X2X:XoX{ wX6X<.<.}.'./.y.1.` $ * *.k G D.D.w G V.c.c.9 C F.h.N.m N Z.c.g.5 g.v.V.=.: | OX|.^. Xy.R , {.OX;.dX2X7X=X2X7X=X",
"=X,X=X=XoX=X'.3.qX2X;.iXlXiXgX2XoXu.3 t $.w K C.S.5 J C.d.F.9 D F.h.M.s B G.c.c.9 K c.L #.` kXjXsXgXiX6Xq.U 2.}.2.pX1X<X1X<X=X&X",
",X=X=X=X2X$X1X6.1X=X<.7X=X&X%X&X*X(.3 t %.w d.C.S.6 Z c.d.G.a S M.h.M.a B G.g.C.v K v.A.t eXwX$X%X&X%X*XXXI 3.;X6.1X<X=X<X@X,X,X",
"2X=X=X|.`.oX|.) =X=X-.#X,X,X,X%X@X(.< t %.6 z.f.v.8 Z n.c.C.a B F.h.M.a N G.d.C.a H g.A.x +X>X&X<X,X,X1X'.> 7.'.;.&X<X=X%X<X<X=X",
"#XoX`.Y.1X}.6.-.*X1X-.@X<X,X<X%X'.~.< y *.9 j.b.c.8 V G.b.C.v S F.f.C.s N G.d.c.9 C.b.V.y +XwX#X@X=X&XqXW.Y >.0.{ ;X<X1X3X<X<X&X",
";X#X/.6XoX,.2.Q 3.^.,.'.|.=X'.R.!.y.1 y %.5 z.g.c.9 N c.b.F.m F F.f.H.v N G.f.g.6 Z.g.A.x a.OX7X=X#X#X#X~.U [ 1.W 7.`.Q.oX#X|.*X",
"`.0.;.<.( [ ( R R { ( `.:X*X#Xy.7.>.* y $.k g.C.V.v Z c.c.F.a S k.j.H.v N G.f.d.8 m.b.V.' s.(.XX|.`. X}.W.T W { R W ( ( >.;.{ [ ",
"W.2X7X6XqXqX6X;X6X6X{ ( 0.3.>.>.{ W & t %.w O.K K.w H v.b.c.s S F.j.A.a B n.f.d.8 g.c.x.o.u ..r.T.y.W.w.R U }.qX:X6X7XqX:XoXoX{ ",
"7X<X2X6X*X#XoX#X*XW.;.2.y.y.y.Y.T.} = t @.e K.r A A K c.b.c.s S F.f.A.s B v.f.d.5 g.n.J o.` ..W.Q.Y.Q.Y.Q R ~.*X$X$X2XqX*X:X*X*X",
"xX,X=X&X@X&XXX=X;X|.[ 7XcXhXfXfXhX>X* t @.e I.z x z G V.c.b.m S F.h.H.s N v.f.d.5 x.n.x.q X.bXcXfXuX2X6X'.I ,.oX$X=X2X=X;X2X|.*X",
"3X,X<X<X<X7X=X1X1X|.[ iX2X=X@X=X$X{.3 t *.o.*.x X p +.J c.F.g F k.h.H.v N c.c.g.5 g.G.x.q +XbX6X#X=X&X=X|.P -.$X2X=X%X$X|.Q.y.!.",
"&X.X.X=X&X=X1XiXiXQ.<.7X$X,X4X&X$X~.3 t *.z y ' l + k Z.c.F.s S h.h.H.v N c.c.g.6 V.G.K t +XpX1X,X%X=X=X!.! ) |.fX7X#X=XR.'.'.W.",
"Q.Q.Q.=X7X#XoX;X2X!.) %X1X4X=X=XW.u.4 ; o.p o.e.e.x w V.d.c.s K h.h.H.v N c.v.c.a J v.K t (.iX.X.X1X<X'.Y.U ;.y.;X1X$X`.Q.#X`.0.",
"6.y.0.y.XXW.W./.W.0.-.|..X$XR.<X#X2.4 l c + x e.e.q w Z.c.g.n S h.h.H.v N c.Z.h.6 J J.K l OX6X=X[.$X|.`./.I >.W.T.Q.W.q.W.y.2.1.",
"> I Y Y ( R >.2.{ Y R |.@X$X4XY._.(.* q *.7 + z x 7 K g.c.d.n S h.h.C.a N c.G.h.5 A.c.J t u.1X@X1X#X`.}.>.R T >.2.( Y W R ( [ R ",
":X:X:X6X}.<.( > { ;X>.w.:XoXy.Q.T.r.% t $.w w 7 e r K g.h.C.a F M.M.C.s b Z.c.h.a m.b.C.z ..;X].|.^.Q.>.{ 2 { / 2 <.:X2X1X*X2X;X",
"7XsX7X6X6X;X#XQ 6XkXq.) 2.{ -.{ ( W * l G 5 J J O.e K h.h.C.v S M.j.F.b M V.C.h.g N.c.x.o.4 } ) ;.) W [ 2 2 {.}.( wXfXiX<XgXsXtX",
",X%X=X$X=X=X X3.iX#XQ 6.=X=X=X[.q.;.& t *.w K A.K.a D h.h.C.m S j.k.C.9 M V.S.D.7 D.Z.D.c * }.1X1X1X$XoX3.> >.}.3.dX1X1X,X3X&X&X",
",X<X<X=X=X1X$X,.2X|.-.7XfXiXuX7X$X/.~ t G 6 J V.A.w D h.h.M.n S h.l.F.v n L.K.o.x *.O.%.l ..nXaX7XuXuX6XXXY <.*X3.2X1X,X,X&X,X,X",
"3X,X=X@X.X#X@X,.:X|.-.gX&X#X=X@X[.~.4 y %.5 K A.N.s H h.k.C.s S k.l.A.d @.e.^ 1 1 u q *.% ..hX<X=X&X=X*X~.> w.|.;.;X<X,X%X,X<X,X",
"<X@X|.R.$X|.t.( *XoX-.0X1X$X=X|.Y.}.` t $.w H H.C.s H h.b.F.d F h.F.N.A x . u < @ 4 ; . 3 5.6X<X&X=X6X*X7.> 5.y.-.=X=X=X<X,X,X=X",
"$X$X'.1X7X0.>.{ ^.}.[ oX2XXX^.`.#Xt.4 t +.k j.F.C.0 V h.h.C.m F l.j.A.d A y . & & # % t   >.;X&X$X;X2XW.{ T ] 3.( /.*X|.;X=X=X;X",
"$XY.>.q.[ ( ( U > { R 0.3.R U [ -.T < ; %.k V J.M.8 z.F.d.h.m F h.F.B.d A *.q p u l y x 4 T Y.6.;.>.{ Y T 2 ] ] U U { ( 2.0.-.w.",
"y.}. X}.XXoXoX`.XXy./.}.W.}.W.T./.(...% $.v H F.F.8 V F.f.c.v D l.l.M.s M &.&.+.z o.&.k 4 p.'.^./.~.y.}.).9.2 i.}.}.oXoX}./.W.R ",
"#X6XdXsXqXqX2X6X$Xy.:X3.W.y.~./.`./.a.% $.w H F.h.8 Z C.d.c.v S f.l.M.s B x.c.x.r %.L.G : >Xt.Y.W.W.~.(.OX}.2 }.6X:X7XlX1X:X*XoX",
"fX=X$X#X^.'.`.#X`.q.T.0.Y.6.,.3.>.5.a.% o.k H F.g.8 H C.g.C.m S l.l.M.f C g.c.c.w +.L.G u ).0.W.6.,.0.3.{ ~.U 0.*X$X=X=X=X2X$X*X",
"7X=X=X<X1XuX1X7X'.2.`.t.) !.q.q.>. .i.% x e D F.C.8 Z C.g.V.v F h.h.N.f C h.f.d.a V.x.G ` u.t.[ Y.Y.7.>.-.Q.I  X1X=X=X&X$X|.T.'.",
"=X@X#X=X$X=X1X7X|.q.'.t.q.=X$XoX3.{ 9.  l r O.J.Z.9 K A.g.C.s S h.M.N.f C b.b.f.v J x.K 4 u.Y.7.=X#X*XY.) ^.I ^.sX1X%X=XR.Q.Y.T.",
"`.Q.Q.=X7X$X1XiXXX,.y.0.-.,.<.6.2.} 3.$ l r O.A.C.5 D A.g.C.s S h.M.N.h C b.b.g.5 K L.G 4 r.t.;.6.;.,.3.[ W.I /.iX7X&X|.Q.#XoXy.",
"0./.y.Y.;X XW.}.T.q.0.0.~.2.>.[ ;.>.0.$ ; z O.A.A.d J A.m.A.m D c.C.B.F S C.B.N.k +.D.$.u 9.r.^.2.2.{ } { )., 0.}.`.Q.Y.^.T.w.<.",
"R R ) -.>.<.y.y.7.2.y.>.3.p.w.W.4.0./.@ * - e m m 7 a m 5 B 7 9 N N F e g S A F r A G k 4 u.>.>.W.0.u.w.5.}.> 9.y.>.[ >.>.>. .{ "
};
