/* XPM */
static char *_97e6dab874743b3a21bcff951016876[] = {
/* columns rows colors chars-per-pixel */
"64 64 229 2 ",
"   c #2B1912",
".  c #341F1A",
"X  c #322719",
"o  c #1C1E28",
"O  c #2E1F22",
"+  c #1F2735",
"@  c #1D212C",
"#  c #2D2D2B",
"$  c #292726",
"%  c #322D2B",
"&  c #392A2A",
"*  c #35342D",
"=  c #3B342B",
"-  c #2C2E32",
";  c #242C3C",
":  c #292E3D",
">  c #242737",
",  c #322C37",
"<  c #2D343D",
"1  c #2A3234",
"2  c #313433",
"3  c #31373D",
"4  c #32393E",
"5  c #3A3B3B",
"6  c #3B3636",
"7  c #2F3028",
"8  c #4B331B",
"9  c #553C19",
"0  c #4C3D2C",
"q  c #493724",
"w  c #563B29",
"e  c #453A35",
"r  c #4F3628",
"t  c #643C22",
"y  c #3F412A",
"u  c #55491D",
"i  c #4E4C1E",
"p  c #4D4A2B",
"a  c #4B4627",
"s  c #544B23",
"d  c #5C4C25",
"f  c #54492B",
"g  c #58452C",
"h  c #555229",
"j  c #4B4433",
"k  c #4B463C",
"l  c #484636",
"z  c #5C4C32",
"x  c #544C3C",
"c  c #564836",
"v  c #545134",
"b  c #5A5139",
"n  c #644B25",
"m  c #634629",
"M  c #654D2C",
"N  c #694A2A",
"B  c #724D2B",
"V  c #734B27",
"C  c #6C522C",
"Z  c #665228",
"A  c #74532D",
"S  c #7A552C",
"D  c #7B592E",
"F  c #765527",
"G  c #6D4534",
"H  c #634B33",
"J  c #674B37",
"K  c #764E36",
"L  c #6B5333",
"P  c #675537",
"I  c #745333",
"U  c #7A5532",
"Y  c #755A34",
"T  c #7B5B33",
"R  c #74533A",
"E  c #7A543B",
"W  c #755B3D",
"Q  c #7C5B3B",
"!  c #7C643A",
"~  c #7C6232",
"^  c #272E41",
"/  c #292E43",
"(  c #2D3443",
")  c #2E3549",
"_  c #2F3841",
"`  c #313742",
"'  c #333942",
"]  c #393B44",
"[  c #343B4B",
"{  c #393E4B",
"}  c #343748",
"|  c #373E52",
" . c #393F52",
".. c #453F41",
"X. c #3B424D",
"o. c #3A4148",
"O. c #3C4354",
"+. c #3E4559",
"@. c #3B4959",
"#. c #4D4442",
"$. c #564C46",
"%. c #5A5446",
"&. c #414956",
"*. c #40475B",
"=. c #444A5C",
"-. c #464A58",
";. c #49515D",
":. c #595858",
">. c #645442",
",. c #685948",
"<. c #745B45",
"1. c #765A45",
"2. c #665B54",
"3. c #6F4F40",
"4. c #7A6346",
"5. c #696355",
"6. c #796655",
"7. c #464C62",
"8. c #494F63",
"9. c #4A4F68",
"0. c #4C5364",
"q. c #4D5469",
"w. c #4B5461",
"e. c #535A65",
"r. c #50576B",
"t. c #535A6D",
"y. c #5A5C64",
"u. c #565C72",
"i. c #595E74",
"p. c #585E78",
"a. c #535772",
"s. c #5A606F",
"d. c #5B6374",
"f. c #5D637A",
"g. c #5B6878",
"h. c #68676C",
"j. c #776B66",
"k. c #626575",
"l. c #61677B",
"z. c #636A7C",
"x. c #6A6D7C",
"c. c #696A74",
"v. c #736E76",
"b. c #72737A",
"n. c #825C3B",
"m. c #835D36",
"M. c #826334",
"N. c #84623C",
"B. c #8B6A3B",
"V. c #865F40",
"C. c #866646",
"Z. c #817164",
"A. c #5F6680",
"S. c #656C82",
"D. c #696E85",
"F. c #696F8A",
"G. c #616782",
"H. c #6B7285",
"J. c #6D748A",
"K. c #71778C",
"L. c #737A8D",
"P. c #757987",
"I. c #6E7691",
"U. c #717791",
"Y. c #757C93",
"T. c #797F94",
"R. c #767D99",
"E. c #797E9A",
"W. c #857E86",
"Q. c #7B8295",
"!. c #7D839B",
"~. c #7A849A",
"^. c #778089",
"/. c #7E87A3",
"(. c #878485",
"). c #928B8A",
"_. c #81879C",
"`. c #838A9D",
"'. c #878D9B",
"]. c #91939B",
"[. c #A49E9E",
"{. c #8186A3",
"}. c #858BA3",
"|. c #888EA5",
" X c #868CA9",
".X c #898EAA",
"XX c #8B92A5",
"oX c #8C92AC",
"OX c #8B95AA",
"+X c #9196AC",
"@X c #939AAD",
"#X c #989FAF",
"$X c #9295A4",
"%X c #8E93B1",
"&X c #8795B2",
"*X c #9196B2",
"=X c #959BB4",
"-X c #989EB5",
";X c #969BB9",
":X c #999EBA",
">X c #9BA1B5",
",X c #9BA2B5",
"<X c #9FA5BA",
"1X c #9DA3BB",
"2X c #9DA8BC",
"3X c #A1A7BE",
"4X c #A0A7BC",
"5X c #A3AABD",
"6X c #A8AFBF",
"7X c #ADB1BD",
"8X c #9EA3C0",
"9X c #A1A6C3",
"0X c #A5ABC2",
"qX c #A8AEC4",
"wX c #A8AEC9",
"eX c #A6ACC9",
"rX c #ABB2C5",
"tX c #ACB2CB",
"yX c #B1B6CC",
"uX c #B4BACC",
"iX c #BDB9C8",
"pX c #B1B7D3",
"aX c #B5BAD3",
"sX c #B9BED7",
"dX c #C1BED3",
"fX c #BBC3D7",
"gX c #B8C0CD",
"hX c #C3C5D6",
"jX c #CCCEE5",
/* pixels */
"=X>X@X-X,Xl.O.( ; Q.>X>X+X,X-X+X=X=X=X>X>Xz.;.( ; H.<X-X+X-X:X*X-X=X>X+X>XH.0.( ; S.5X=X=X@X#X@X@X>X+X-X,XH.=.{ > d.4X@X@X@X,X+X",
"0X=X4X<X>XOX,X0.H.rXqX-X=XqXeX1X4X-X1X>X<XOX=Xr.l.rXrX<X-XtX9X8X1X1X1X4X<XOX+Xl.i.tX0X4X+XyX<X,X<X-X4X<X>XOX>Xl.0.rX5X4X=XrX4X1X",
"oX.X.XoX}.XX}.z.Q.qX*X-X=X%X XoX.XoXoXoX{.oXXXS.J.rX*X=X=X.X{.%X.X.X.XoXoX XoXD.F.tX=X=X=XoXoX.X.X.X.X.X}.OXXXJ.f.uX+X=X+X+X}.*X",
"%X%X*XoX|.=X-XS.J.9X.XoX.X%X%X%X%X%X%XoX%X*X*XY.S.4XoXoX%X.X;X*X%XoX=XoXoXoX+XT.G.9X X*X X.X*X%X%X%X*X%XoXoXoX!.f.1X+XoXoXoXoX*X",
"=X;X*X%X!.!.|.f.S.1X.XoX%X*X%X.X%X:X;XoXE.!..XG.l.1X.XoXoXoX*X.X%X;X*XoXT.!.OXl.p.=XoX*X%X%X%X X.X1XoX X!.}.|.U.p.:XoXoX.X*X%XoX",
"oX.XE.I.J.oXJ.8.D.-XoX*X%X.X%X*X*X{.!.E.J..XT.q.f.=XoX*X:X X X%X.X.XE.!.T.XXL.i.i.-X.X*XoX=X X;X*XoX!.!.S. XJ.u.q.=XoX=X=XoXoX*X",
"_.oX}.!.0XQ.=.7.8.T.}.}.oXoXoX_.T.*X.XY.0X_.=.7.=.Y.!.J.J.D.J.F.J.D.z.f.T.Q.=.=.+.Q.|.T.+XXXoX X!.oX X!.1XXXu.7.+.Q._.!.oX}.oXXX",
"Q.Q.7.r.r.} =.| (  .O.=.q.0.q.0.K.Q.0.q.t.O.0.O.( r.H.+XoXrXqXtXwXtXrXXX+XL.e.*.( O.O.*.r.7.0.8.S.}.r.8.i. .+.O.( }  .+.r.q.=.r.",
"*.Q.XX+XXX=X+XXX`.=XOXXX`.`.d.( O.Q.`.@XOXL. .8.r.-XsXtX1X+XoXoX!.}.oXXX4X6X,Xt.*.O.,X#X`.Q.H.) O.H.OXOXXX>X@XOX}.OX+X+X`.!.H.) ",
"J.>X,X4X1X=XoX=X+XXXrXqX=XXX-X7.l.@X4X@Xz.q.Y.5XY.i.tX X}.E.}..X*X.XY.Q.H.Q.=.0.+XQ.d.Q.@X@X@Xs.7.1X=X0X<X+X=X*X+X+X1XrXoX+XoXY.",
"OX<X}.XX|.!.!.!.oXoXoXoXoXoXoXJ.Y.uXJ.0.z.0XyX4X!.+.-X1XoX{.{..X.XY.{.!.i.i.+.J.aXtXoXz.8.!.XXJ.f.aX X|..X{.E.!. XoXoX.XoX%XoX|.",
"T.-XoX+X|.-X8X;X*XoX*X X!.Y.S.S.K.K.+.oXsXpX=X|.!.p.f.|.}.1X=X*XU.Y.E.u.q.+.G.9XpX%XoX1XoX7.S.0.t.-X.X-XoX*X1X*X%X%XoX}.{.I.G.Y.",
"J.}.!.XX*XoX%X:XeX%X XR.S.Y.J.G.7.8.-XfX*XoXoXoXQ.Y.=.8.d.z.t.+.=.t.r.q.q.9.|.pX9X*X%X%X-XoX7.( u.OXT.}.*X.X*X*XwX;X{.{.G.T.J.J.",
"d.K.H.J.1XOX{.oX-X=X!.T.Q.OXH.q.| -XtX+X{. X+XoXQ.z.*.( { { ( ' ` ( [ 0.} =.|.fX%XoX.X/.{.oX}.[ 0.L.J.H.+X-X{.oX*X*X{.!.J.oXY.i.",
"X.z.H.d.Q.!.K.K.Y.S.H.f.z.s.w.0.=X0XoX}.|.XX`.L.l.O.' ' ' ' 1 ' < 3 ' ' > + O.T.1X%XR./.oX`.H.d.=.&.H.H.H.}.K.J.Q.Y.H.G.H.f.t.0.",
"< ; ; } [ +.+.i.q.[ ) O.=.*.O.OX0XK.!.OX>XQ.d.&.{ _ < ' 3 4 4 4 4 4 3 ' $ @ o : L.Q.Q.`. XY.t.t.d.{ < ) ` O.O.t.q.O.) | +.O.O.[ ",
"OXOXXXOXOXd.=.( ; K.#XXX+Xt.+.i.J.T.T.H.z.e.O.< ' ' ' ' 3 3 3 3 3 3 { > o - - $ , b.y.x.!.r.@.O.+.q.7.XX@Xx.O.{ ; d.=XOX|.+X$X'.",
"qX<X9X1X5XXX+X0.J.rXrX6XK.7.0X1Xp.*.7.f.s.&.] < ' ' ' ' ' ' 3 3 < 3 < # * k k #.$ % y.w.i.8.@.z.=X1X7.z.<X#X@Xl.q.rXtX5X1XrX5X5X",
"{.oXoXoX X*X|.z.Y.5X=XL.) 1XsXpXtXY.*. .O.X.` ' ' ' ' ' ' ' 3 3 ' 4 # * p h p x #.$ 4 e. . .$XfXtX=X{.) f.XXXXK.f.yX*X-XoX+X_.+X",
"%X.X%X%X X%X*XS.K.5X+Xz.f.aX*X}.oXoXH.=.( ' < ' ' ' ' ' ' ' 3 3 ' 4 $ y h i i p c k $ $ k.,XuX5X.X.X:Xi.7.oX-XT.f.1XoXoX.X*X.XoX",
"oX:X*XoX!.{.oXf.S.+XOX=.{.wX}.{.oXXXQ.r.< ] ] 3 ' ' ' ' ' ' 3 3 ' 3 $ p s i s s g b l $ ].dX9X%X*X*X8XJ.) Y.oXJ.p.-X%XoXoXoX*XoX",
"=X}.!.T.I. XK.8.S.,X`.r.1X=X}..X}._.K.0.( ' ' ] ' ' ' ' ' ' 3 ' ' 4 * v s i s u P f p j e iX9X{.oXoXoXS.+.l.Q.q.q.*XoX*X*X XoXOX",
"`.}.}.`.<X!.r.7.0.XXT.8.@XXXoXoX!.Y.f.{ ' ] < ' ' ' ' ' ' ' 3 ' ` 3 = x f u s u M L p v e W.tX!.{.+X}.L.{ *.d.0.=._.`.`.OX+XOXXX",
"!.!.0.t.d.[ +.[ ; { O.r.@X}._._.!.f.q.[ ( ' ' 3 ' ' ' ' ' ' 3 ' [ 5 = v s u u d L d s v x v.XX|.}.!.L.H.O.{ =.{ ^ ) +.O.t.r.0.t.",
"*.L.!.}.`.OXXX_.Q.XXQ.0.Q.OX`.`.l.S.=.< ` ' ' ' ' ' ' ' ' ' 3 3 ' 2 j p s u Z n ! u s h b #.x.}.+X!.i.d.t.> d.XX!.`.XXXX!.Q.z.( ",
"H.>XqX5X5X-X=X=X=X@X5X=.[ 0.8.| *.0.O.' ' ' 3 ' ' ' ' ' ' ' 3 3 4 7 j f d d Z n I C d a %.k &.0.q.0.q.0.*.[ f.,XOX=X5XtX+X>XOXH.",
"OX>X|.}.|.R.!.!.oXoX_.+.D.XX{.{.J.0.( ( X.' 3 ' 4 4 ' ' ' ' 3 3 5 7 a f s Z M n W M 0 %.j...k.}. X!.J.+.; O.i.Y.oXoXoXoX*XoX XoX",
"!.>XoX*XoX=X1X*X*X-Xf.f.aXwX;XeX+XY.7.( ' ' ' < 4 4 ' ' ' ' 3 3 5 7 j v z P M m R 1.>.x 2.c.hXpX9X=X;X}.+.) K.1XoXoX%X.X.XY.S.T.",
"H.|.!..XoXoX%X=X1X-Xa._.wX X%X{.oX`.t.( ( ' 3 3 4 4 ' ' ' ' 3 3 ' # l v P L M M 1.J & 6 6 h.aXoX{.oX/.oXK./ p.1X9X=X{.{.G.Y.F.J.",
"z.Q.J.Y.;X*X}.*X4X-Xi.{.-X.X=X!.|.L.*.< ] ' < ] 4 4 ' ' ' ' 3 3 ' 2 e x ,.H M M 1.q   $ # b.,X|.}.oXoX`.f.( f.OX1X*X{.{.Y. XT.f.",
"O.z.S.l.!.`.K.K.K.Y.r.!.>XOXoX XQ.K.0.( ' ] 3 3 4 4 ' ' ' ' 3 3 2 2 6 ,.Z.J J n I 1.= = 6 :.+XI.OXoXXXY.r.) r.Q.K.L.J.z.J.z.d.8.",
"; ( ( } [ +.=.f.t.{ ) Q.OX_.XX}.}.H.=.( ( ' ' ' 4 4 ' ' ' ' 3 3 4 2 7 k j.w J Z T C 4.b x $.P.~.Q.Q.K.z.=.< O.t.t.*.) O.*.O.O.{ ",
"}.!.`.`.}.t. .( < H.k.w.K.H.i.f.z.8.} ' ` < ' 3 ' ' ' ' ' ' 3 3 ' 1 * X = X L n T A ~ C <.e ;.i.t.0.8.r.X.3 O.) ; r.`.|.}.`.`.`.",
"qX5XqX<X<XXX+X0.l.gXQ.} =.t.*.q.+.[ ( ' ' ' ' 3 ' ' ' ' ' ' 3 3 ( 1 l =   q L N I T B.Z 6.e ] 8.0.8.t.*.< < XXz.=.rXuXqX1XyXrX5X",
"|.*X X.X.X=X Xf.L.tXd.t.aXqXtX1XY.l.O.< ' ] ' < ' ' ' ' ' ' 3 3 ' 1 k x 0 H L Y n.A M.A 6.e $XsXrX0XqX X&.( z.L.i.yXoX+X%X;X|.oX",
"oX.XoX*X.X.X=XJ.J.rXd.Q.tX.X*XoX+X`.r.' ( ' 3 ' ' ' ' ' ' ' 3 3 ' # l b <.L n T Q A B.Y P ).iX=XoX*X*X-XH.; d.!.f.9XoX=X%X%X X%X",
"*X1X%XoX{.{.oXf.D.1Xd.H.=XoX.X.X_.Q.0.( ' ' 3 3 ' ' ' ' ' ' 3 4 4 * j f W M N T Q U N.W >.[.,X{.*X X.XoXK.> J.T.a.=XoXoX X.X%XoX",
"oX X!.T.J.}.Y.q.S.>Xl.d.*XoX%XoX`.T.0.< ' ] 3 3 ' ' ' ' ' ' 3 4 5 * j z L Z T T n.U n.L ,.).@X}.{.*X.X4XH.; l.i.u.-X XoX*X.X*XoX",
"`.}. X!.<X}.t.=.r.+Xd.d.`.}.|.Y.J.H.w.' ' 3 < ' ' ' ' ' ' ' 3 4 5 % 0 z L C T D N.K C.1.%.).'.1XoXXXoXXXz.< =.t.*.`.XXXX*XoXOXOX",
"`._.r.d.d. .O.{ ; O.&.d.@XXX XK.d.d.O.< ' ' 3 ' ' ' ' ' ' ' 3 4 4 * j s L C D D n.U N.W ,.j.Q.}.!.!.Y._.z.< +.| ^ [ *.*.u.u.q.d.",
"=.J.Q.Q.!.`._.Q.L.`.d.{ Q.J.J.f.0.0.{ < { ' ' 3 ' ' ' ' ' ' 3 4 4 # j f L n D D n.n.m.W <.#.c.J.Y.S.T.J.=.( H._.Y.Q._.!.Y.Y.l.( ",
"S.>XqX0X0X4X<X1X=X@Xz.} O.q.7.0.0.{ ) ' ( 3 ' ' ' ' ' ' ' ' 3 3 ' 2 j q H I F T n.V C.I 6.#.] i.p.A.f.q.( } +X<X=X-XqXrX:X;XOXS.",
"oX1XoX|.{.E.Y.U.oX}.q.S.pXwXtXtXrX5X0.( ' 3 ' < ' ' ' ' ' ' 3 ' ' - k q H L T A n.T m.n.>.$.7XrXeX1X*X1Xi.( i.!.{.oXOX=XoXoX`.|.",
"T.-XoX=XoX;X8X=XoXoXq.T.pX=X%X*XOXXXr.< ` ' < ' ' ' ' ' ' ' 3 ' ( - $.c 8 W Y A n.S m.T ,.).hX9X;X.X%X*XK.; f.oX*XoXoX{..X!.J.!.",
"K.oX{.oX%XoX%X:X9XoXq.T.;X{.*X%XOXT.t.< ] ] < 3 ' ' ' ' ' ' 3 ' ] - %.0 X 1.Z I U U M.Q ,.).rX=XoX.X;X XS.} =. X1X=XXX}.S.I.S.S.",
"S.Y.J.U.1X%X}.=XeX|.7.J.1X*X;XoXT.H.0.< ' < ' 3 ' ' ' ' ' ' 3 3 ' - %.,.6.<.L A N.B M.Y ,.(.rX~..X*X%X!.l.) O.Q.0X-X!._.I.oXY.d.",
"+.S.H.S.}.|.Y.Y.Y.K.0.z.Q.OXT.!.+Xd.0.( ` ' ' 3 ' ' ' ' ' ' 3 3 4 2 = >.,.H I U N.A M.Y ,.(.2X/.Y.oX!.Y.J.+ d.l.K.L.L.l.K.z.d.w.",
"; ( ( { [ 8.8.l.t.*.( l.|._.+X!.J.T.0.< { ' 3 3 ' ' ' ' ' ' ' 4 ] % k 0 r R R B Q F M.! >.(.oX&XoX{.Y.Q.e.< O.l.d.=.' O.=.+.O.[ ",
"Q.Y.Q.Y.T.8.| ( : z.z.O.+X+X!.D.K.H.;.( ' ' 3 ' ' ' ' ' ' ' ' ' ' % b w 8 3.R I n.S M.~ b :.+X{.XX!.K.t.O.< O.` : 0.Q.Q.Q.Q.Q.Q.",
"tXqXtXtX0X+XoX8.i.fX@XO.i.r.7.0.=.O.{ ' < ' ] 3 ' ' ' ' ' ' ' ' ' % P L H 1.I I n.V M.! P 6 ;.9.q.O.=.X.[ < '.k.O.qXuXrX4XaXtXrX",
".XoX}.{.oX*X.Xf.!.5Xq.O.J.!.E.J.t.0.{ ` ' ' 3 3 ' ' ' ' ' ' ' ' ' $ z L H 1.L I V.I C.W 2.5 D.R.R.}.K.J.*.( k.L.d.yXoX*XoX:X{. X",
"%XoXoX;X X.X*XD.J.qXq.H.pX0XeXwXXXQ.0.< ` ' < ' ' ' ' ' ' ' ' ' { # z M m E R I Q L 4.6.5.h.jXpXeX0X9X0XH.^ d._.f.0X;X=X.XoX X;X",
"oX:X%X%X{. X*Xf.G.5X8.Q.tX{. X|.Q.L.0.< ' X.' < ' ' ' ' ' ' ' ' ` - z M m E I I Q C.c & k h.yXoX X{.|.OXK.> H.T.t.*XoX.XoX*X*XoX",
"-XoX{.J.J.{.Y.8.H.@X=.Q.<X}.oX}.D.L.t.' ( < 3 ] ' ' ' ' ' ' 3 ' ( # c C m I A C C.8   e 6 h.,X%XoXoX-XOX0.; l.t.r.-XoX*X%X XoXoX",
"Q.`.`._.1XoXt.=.t.OXt.H.>XOXQ.K.`.L.*.< ] ] < 3 ' ' ' ' ' ' 3 ' ' # z C N U U A N.g . O $ y.@X.X{.+X>XH.;.} 0.t.=.`.XXoX=X*XOX+X",
"`.`.i.l.S.| +. .; *.O.=.z.*.[ | t.O.) ' ' < ' 3 ' ' ' ' ' ' 3 3 ' # g C N E T F N.W 0 & 5 o.H.i.t.t.0.{ ) < =.&./ [ 7.7.i.i.t.z.",
"=.J.H.Y.J.T.L.K.L.z.d.L.H.H.H.l.z.H.l.' ' ' ' 3 ' ' ' ' ' ' 3 3 ' $ z I G E D F N.L <.%.$.c.P.D.z.z.d.H.k.;.( H.K.L.K.Q.J.J.t.( ",
"l.<XqXqXqX0XqX<X>XK.XXQ.z.K.L.K.`.K.'.' ' < 3 ' ' ' ' ' ' ' 3 3 o.# z I G E D F T A C.P 5.[.x.H.T.L.L.Q.XXL.; +X4X-XtXqX-X=X*Xf.",
"oX1X|..X XY.Y.Y.oXt.H.d.S.t.r.i.r.=.L.X.( < ] 3 ' ' ' ' ' ' 3 3 4 % z W G K U S N.U ! P 5.v.y.x.t.8.d.t.0.H.( z.}.oXoX*XoX*X{.{.",
"!.1X%X*X.X;X9X*X%Xu.T.H.q.u.S.p.r.=.z.O.` < ' < ' ' ' ' ' ' 3 4 ' % c R G K U U T U ~ C 5.h.c.=.S.f.i.0.0.H.^  X:X.X%X*X}.!.Y.!.",
"J.oX{.oXoX.X%X;X:Xf.J.H.r. XoXoXS.*.d.< ' ] ' ' ' ' ' ' ' ' 3 4 ] # q J G R I I n.B M.Y 2.h.x.i.XXXX Xi.=.H.; {.1X=X.X{.F.F.f.J.",
"S.Y.S.Y.8XoX X1X1Xi.S.l.t.q.q.t.i.=.d.{ ' ' 3 3 ' ' ' ' ' 3 3 4 ] # q R R W E R n.B M.Z 2.h.s.0.t.q.t.0.0.H.( }.qX-X!.!.I.+XQ.f.",
"*.H.J.z.{.|.T.K.T.d.f.r.K.d.0.0.=.=.k.X.< < ' ] ' ' ' ' 3 3 4 3 ] , e <.L I R 3.C.I N.R 6.y.l.J.t.=.=.0.w.z.; l.L.Q.K.z.J.S.d.8.",
"} { O.=.8.q.t.S.l.0.x.d.=.H.d.z.l.0._.{ ` ' < < ' ' ' ' 3 3 4 3 { - & g 9 9 w w G t B m $.h.r.t.H.d.z.t.e.^.; z.z.8.=.q.0.0.0.O."
};
