/* XPM */
static char *c54010b32e9d459a8c559490b8e56113[] = {
/* columns rows colors chars-per-pixel */
"64 64 175 2 ",
"   c #222A35",
".  c #252C3B",
"X  c #292F3C",
"o  c #2B3336",
"O  c #2C333D",
"+  c #2F383F",
"@  c #31363E",
"#  c #32393F",
"$  c #272E40",
"%  c #282F43",
"&  c #2D3443",
"*  c #2F3841",
"=  c #2E3449",
"-  c #2F3849",
";  c #313742",
":  c #333942",
">  c #383D45",
",  c #30364A",
"<  c #343B4B",
"1  c #383E4B",
"2  c #363C51",
"3  c #383F53",
"4  c #383E58",
"5  c #3A4046",
"6  c #37404F",
"7  c #3A414D",
"8  c #3C4354",
"9  c #3E445A",
"0  c #404756",
"q  c #414955",
"w  c #41475B",
"e  c #444B5C",
"r  c #484F5E",
"t  c #4A525D",
"y  c #404660",
"u  c #464C61",
"i  c #494F64",
"p  c #484E68",
"a  c #4B5264",
"s  c #4D5469",
"d  c #4F5869",
"f  c #505766",
"g  c #525966",
"h  c #51566C",
"j  c #545B6C",
"k  c #585F6E",
"l  c #525770",
"z  c #555C72",
"x  c #585E73",
"c  c #5A616E",
"v  c #5C6374",
"b  c #5E647A",
"n  c #606675",
"m  c #626A77",
"M  c #60677D",
"N  c #636A7C",
"B  c #686F7F",
"V  c #6A727E",
"C  c #5F6481",
"Z  c #616782",
"A  c #656B82",
"S  c #686F84",
"D  c #676C89",
"F  c #696F89",
"G  c #6C7285",
"H  c #6D738A",
"J  c #707787",
"K  c #747C87",
"L  c #70778C",
"P  c #747B8D",
"I  c #787F8F",
"U  c #717791",
"Y  c #757B93",
"T  c #787E94",
"R  c #767B98",
"E  c #797E9A",
"W  c #79818E",
"Q  c #7B8295",
"!  c #7D839B",
"~  c #7E83A1",
"^  c #818796",
"/  c #818A93",
"(  c #81879C",
")  c #838A9C",
"_  c #898F9F",
"`  c #89919E",
"'  c #8186A3",
"]  c #858BA3",
"[  c #898FA5",
"{  c #868BA9",
"}  c #898EAA",
"|  c #8B92A5",
" . c #8D92AC",
".. c #9196AD",
"X. c #9399AD",
"o. c #8E93B1",
"O. c #9196B2",
"+. c #949AB3",
"@. c #989EB5",
"#. c #959AB9",
"$. c #999EBA",
"%. c #9BA1B5",
"&. c #9EA3B9",
"*. c #9DA3BB",
"=. c #9DA3B9",
"-. c #9FA5BD",
";. c #9DA3BA",
":. c #A1A7B7",
">. c #A0A8B5",
",. c #A0A6BE",
"<. c #A1A6BC",
"1. c #A2A8BE",
"2. c #A3AABD",
"3. c #9FA4C1",
"4. c #A1A5C0",
"5. c #A3A7C0",
"6. c #A0A6C1",
"7. c #A0A6C1",
"8. c #A3A9C3",
"9. c #A7AEC1",
"0. c #A7ADC7",
"q. c #A5ABC3",
"w. c #A8AEC4",
"e. c #A8AEC4",
"r. c #A6ABC9",
"t. c #ABAFC8",
"y. c #A9AECA",
"u. c #ABB2C5",
"i. c #ABB1C5",
"p. c #ABB1C9",
"a. c #ACB0CB",
"s. c #ADB3CB",
"d. c #AEB5C8",
"f. c #AFB6C9",
"g. c #AFB5CB",
"h. c #ADB3CB",
"j. c #B0B7C7",
"k. c #B2B7CB",
"l. c #B1B6CA",
"z. c #B1B7CF",
"x. c #B0B7C9",
"c. c #B3B9CC",
"v. c #B7BCCF",
"b. c #B4BBCE",
"n. c #AEB3D0",
"m. c #AFB4D1",
"M. c #AEB3D1",
"N. c #B1B7D1",
"B. c #B0B5D2",
"V. c #B1B7D2",
"C. c #B2B8D0",
"Z. c #B2B8D2",
"A. c #B4BAD0",
"S. c #B5BBD1",
"D. c #B5BBD3",
"F. c #B4BAD2",
"G. c #B6BDD0",
"H. c #B7BDD3",
"J. c #B5B9D4",
"K. c #B4B9D7",
"L. c #B4BAD4",
"P. c #B7BDD5",
"I. c #B4BAD2",
"U. c #B9BED4",
"Y. c #B8BED5",
"T. c #B9BFD9",
"R. c #B9BFD9",
"E. c #BBC1D7",
"W. c #BCC1D7",
"Q. c #BCC3D6",
"!. c #BBC2D4",
"~. c #BEC2DB",
"^. c #BDC4DA",
"/. c #C0C4DD",
"(. c #C4C9DE",
/* pixels */
"D.C.g.G.g.Q H 3 < %.Q.g.s.P.L.p.t.U.l.l.G.[ G e < [ Q.U.5.~.L.s.n.m.C.z.D. .J a & Q !.D.q.T.L.N.n.C.z.C.D.=.G v & G G.D.s.D.N.N.",
" .O.| [  .| +.x P i.+.+. .*.O.+.+. .....[ [ @.N b c.=. .O.5. .$.#.O. . .|  .X.P s c.+.+. .5.o.o.o. .O.| +.| ..( u 2.%.=.[ @.$. .",
"} O. . .O. .| M H w.@.@.O.O.}  .}  . . .| O. .U b p.O.$.| o. .} } } o. .|  .[ T x 9.+.%.|  .o.O.o. .o.O.[  .| ] z -.=.+.o.#. . .",
"o.o.}  .] [ +.U S <.| [ o. .o.o.o.$.} o.]  .| ! b 8.[ O. . .O. .o.O. .}  . .X.] x %... .O.[ |  .O.o.o.O.| }  .} l  . . .O.' #. .",
" .*. .} L Q | s Z @.' O. .O.} o.o.#.#. .R R  .b z O.|  . .| O.o.O.5.O. .Y T [ S a @.] | |  ...| } $.o. .Q E ( T p |  . .} O.O. .",
" .T Q H ( +.M i b @.X.+. . . .#.o.~ E R Y *.M s x @.+. ...] E ' E Y H Y T +.H j a | +.+. .X. .O.O.] Q E H +.T j w  .O.O.O.O.|  .",
") X.Q ) X.N i u 8 N G G ( ! ) T T @.! Y +.G j e 2 j M G A U Q U ! R Q S S Y 9 u 8 v H N ) ) L ] G  .X.H X.] a a < a P A T ( P  .",
"G G a e a 9 a 9 2 e 9 a j u 9 8 b P a a d e e 6 - M ) 2.&.i.i.i.t.q.p.@.&.X.P a $ 2 u u a a s 2 x L x u s 9 u w 8 8 9 w s a i 8 ",
"e ] <.i.2.i.g.2.+.9.9.<.@. .Y , 8 ) %.i.2.Q 9 j M Q ^.2.X.[ ]  .Q ! | ! | &.%.x v 3  .i.&.| ] w = G %.2.q.q.w.i.+.2.2.s.@. . .s ",
"Q =..... .! ! !  .' q.@. .[ @.M c 2.%.Q a j | b.) 9 g... .! ! !  .] H ) H Y e e @.&.M N P X...( 9 <.O.@...[ ! T [ [ ..8.[ O. ...",
"] q.]  .{ O.} ' o.O.} } #. .' L P l.N a P !.i.+.| u U w.' } ' O.| P ^ Q s j 9 P d.2.+.] j N | Y s q.O.[ ] }  .{ o.o. .}  .$.! } ",
"Y O. .o.o.} $.#.o. .#.' R D D S M A 9 <.^.=.+.| T H z U '  .@.Q S V P j a w b 2.!.+.[ X.&.b j h y O.O.} O.O.#.#.o.#.o.} E H Z F ",
"H ! L } O. .} *.n.o.{ ! C ] Y A 9 s q.c. . . ...( Y w 9 h j w 8 6 t e j a 9 ! b.=.|  .[ +.<.b % w [ U ! O.} ] $.y.*.' ] F Q ! H ",
"v P H S =...! '  .} ! L ! Q S w y p.8.| ' ] | ] P v a = , 7 , * > + * e & 1 Q k.@.| ..! ' Q | h < S P S ! -.| Q } O.] T P ( P j ",
"O g c j B P A L G G j b b k a j <.O.' +. . .) J v 1 & > : + # # # + > & , < < v  . .U ' [ | G M v 7 j j v P S G J G b j N j a a ",
"7 & , < , < < a e = 3 0 0 e < | <.E Q ( X.P k 1 ; : + : # # # # # : : : , , = & j ( T ! ( Q h e b 1 O 8 & 8 , 9 u 8 , 9 q 9 t 7 ",
"9.2.<.2.w.H h < = ) i.=.9.j s z z A P G M j 8 O : : : : : # # # # # : : : , , , O k c k P v 9 9 e N 0 | u.) n e . x 2.<.%.<.2.:.",
"*...8. .o. .5.z G g.2.<.x s s.N.H i w a j q : : : : : : : : # # # # : : : : : : : o t g j w i H 2.u.M 8 | %.| _ 8 9.2.9...<.2...",
" .[ | ..[  .[ b P 2.=.H < 9.C.q.C.Q a 8 7 : + : : : : : : : # # # # : : : : : : > : O 0 9 = X.(.t.O.+.i 3 | | ( h <.@.#.O.+.] O.",
" .+. .[  .O.O.H A 2...A M c. .[ ' ] P f O : + > : : : : : : # # # # : : : : : : + : : X M 9.g.8.[ } @.T 2 ]  .[ x +.+. .O.}  . .",
" .+. . .T T [ x S %.) e ] 9.' ! | ..Q j & 1 : : : : : : : : # # # # : : : : : : > + : O v b.i. .O.[ 5.Q , b ) Q p | #. .{ O.#. .",
"X.] ! H Y *.M u v @.| a &. .} O.' ) P a ; + : : : : : : : : # # # # : : : : : : : : > & = X.b.! [ ..] L a e Q v p  . .#.#.] O.| ",
"! X.T [ 5.H s i 9 Q P w .. .[ ' ! J v < ; : : + : : : : : : : : # # : : : : : : : @ ; 7 . N 2.| ) | | P a 1 j a 3 v Q U [  .( | ",
"Q P u s p 4 y 4 , , 3 j  .| ' | T N a < & : # : : : : : : : : : # # : : : : : : : : : : & j ! | | ^ G G a : e w < , 9 9 i s w a ",
"8 ) +.*.+.-.<.O. .&. .u S [ Q T b G e & : > O # : : : : : : : : # # : : : : : : : # # , , < j ^ | ) j v v & e >. .%.@.=.X.( ( e ",
"P =.+.=.$.} [  . .[ &.f 2 w 9 4 w w w = + + : : : : : : : : : : # # : : : : : : + : > & , , 8 e u u f a 8 = a ) | | @.p...@.X.] ",
"| 2.] ] ] ' ' T | +.Q 8 Y &.@.+.! x & , : : : O # # : : : : : : : : : : : : : : : # # , 1 , A X.@. .Q b . < v ( | | O.| } +.' | ",
"P +. .+.} +.*.+... .b G U.%...%.X.Q j O > @ + : # # : : : : : : : : : : : : : : # O 5 ,   f Q.g.*.+.} O.M = s +. .O. . .] H Z U ",
"G ! Y ]  .}  .=.q.&.v L i.[ ..! ] | a & : > : @ # # : : : : : : : : : : : : : : : O + > & t j...] {  .' ! = s  .8.*.' } F U Y H ",
"M Y H G $.O.' } ..X.b Y &.)  .[ [ J j O 1 O @ > # # : : : : : : : : : : : : : : # # : > o q 2.Q  .'  .Q P = u ] ..O.[ ! L [ Q x ",
"< x A x Q ! H U Y H h ( %.|  .) Q L a : : : > o # # : : : : : : : : : : : : : : @ > + + , q ^ T ] ....T j < w P P H S b A b x f ",
"& & & , = 9 4 z u 9 $ H X.( [ ] [ L a O 1 + : # # # : : : : : : : : : : : : : : : O : > & 1 G Y Y Y A S j O = a j w & 3 8 8 0 < ",
"X.+.X.X.X.M u = = P G e M A s j v e = ; : @ # > : : : : : : # # : : : : : : : : : O @ : , = e i s a w a e . e 7 O 0 X.+.X.X.+.X.",
"2.X.<.<.=. .%.s b Q.Q < a v h z u 8 & : 7 : @ O : : : : : : # # : : : : : : : : @ 5 1 ; O , < x x z v j . O K ` 9 <.i.w.+.q.s.@.",
"]  .| | ] o.[ Z Y g.b x ~.g.n.8.( G e O ; ; : : : : : : : : # # : : : : : : : : O # + ; < , ( /.N.s.s.%.b $ a Q a 9.@.@.O.o.}  .",
"O. . . .} o.O.H S p.b L p.} } } X.) j , > : @ @ : : : : : : # # : : : : : : : : 5 @ > > . Q b...} } }  .( = a X.z O.+.} #.o. .o.",
" .+.O. .! ' o.b Z q.x Z @. .o.{ ] Q j O ; : : : : : : : : : # # : : : : : : : : O > + ; X ^ <.] o.o. .+.( & f ^ i O. . .} } #.} ",
"@.[ Q T H [ H p N =.A x @.| o.| Q T j & > : # @ : : : : : : # # : : : : : : : : @ : : 1 & P 2.] '  . .&.Q = a S 9 |  .+.O.}  .o.",
"! | ] Q 2.( a a a ) M v ) ] ] T L G a O : @ > : : : : : : : # # : : : : : : : : : @ : : . P [ %. .| ) | Y = 9 j 8 G [ ! | O.[ ..",
"Q ^ a j j < w < . 8 9 j %.| O.L x x e O > # : @ : : : : : : # # : : : : : : : : # # : & , v Y ] ' Y ! Q P , 7 8 = & 8 9 u x u z ",
"9 I ^ [ ) X...) ^ ..V , N P M x a e 1 ; : : > # : : : : : : # # : : : : : : : : O > & ; < , x S H S P G e = M X.! | [ [ ] Q P 8 ",
"G =.2.9.2.+.X.+...| N 8 u x p z x w < , O @ @ : : : : : : : # # : : : : : : : : > o > & , & < x M b M b < . L 2.X...%.C.@.X...] ",
" .-.' [ ' Q Q T ..[ s A T.8.K.Z.s.d.j O > > : @ : : : : : : # # : : : : : : : : O > , 1 X w <.D.t.3.$.+.Q & s T ] [  . . .+.} | ",
"T *.| +.} $.5.O. ...z S s.o.o.} } | v & : : O > : : : : : : # # : : : : : : : : : # + : & J (.w.o.}  . .( = 9  .O. .o.} ' T S U ",
"H [ ! | o.{  .+.8...h U *.] #.O.O.T v ; : : @ # : : : : : : # # : : : : : : : : : # : ; O P g.=.} o.O...L 2 8 U t.@.]  .F U H A ",
"N T H L *. .[ X.2. .9 S *.} $.{ ( N f ; : @ > # : : : : : : # # : : : : : : : : @ : O 1 & G 9.] ' O.] Q L < w N @.*.] Q H ' ] M ",
"3 N G b ( ] Y J L P a M Q  .Q T +.v a ; : > # O : : : : : : # # : : : : : : : : : # ; 1 . J 2.[ Y [ ) Y Q , w G G T J N G N b a ",
"$ $ . < 2 9 e b j 8 = x | ) ..! S Q j X : : @ > : : : : : : : # : : : : : : : : + > ; : & G  .| | ) P W v 1 , j v r , 8 9 w 8 8 ",
"] Q ( ) ) j 8 & . V G < X. .Q S J S f & : ; : : : : : : : : : : : : : : : : : : # : : , & e | Q [ Q P c q & 7 1 O 9 ^ ] ( ! ] ( ",
"9.w.i.&.9. .| a v !.%.9 x j p u i 8 < , 1 ; @ : : : : : : : : : : : : : : : : : : + : , & < e w u u 0 8 1 o V Q , X.b.s.-.s.g.q.",
"] [ ] } ' O. .b Y 9.x 8 L ! ! R z f w , ; : : @ : : : : : : : # # # : : : : : : @ @ 1 , & < N ! ( [ Q Q j & t Q j 9.O.@.O.#. .} ",
"+.O.o.O.} { O.H S w.h Z P.t.r.s.+.Q a ; : : : : : : : : : : # # # # : : : : : : > @ : + , a G.U.8.8.8.&.] , e | h @.@.O.} { o.o.",
"| $. .} ] ]  .b A &.a T p.' } ' Q I j O : : @ : : : : : : : # # # # : : : : : : : : ; : = e b.+.} } ] ..Q & j | a  .O.} o.O.$.{ ",
"+.[ ' ! F ] T i A +.s Q &.]  .[ G P b O : @ : : : : : : : : # # # # : : : : : : + > , 1 o w %. .[  .+.@.v = a G w | O.O.o.}  . .",
"Q [ ) T <.] j a a | j b 2.X.Y H | G r ; > @ @ : : : : : : : # # # # : : : : : : : : + : O r | |  .[ <.P a = w j 8 T | | ..@. .+.",
") ^ j M b 8 9 < . q 9 q M 0 < < f 8 , , : : # @ : : : : : : # # # # : : : : : : @ @ : 1 O , G x a j s < , O 9 e = & e w h b a N ",
"w J L T P Q Q P P G v I G G P S N G M 1 : : @ : : : : : : : # # # # : : : : : : : # : > O b Y G G G b G G j = v P P Q T P J S , ",
"M %.2.i.w.2.<.&.=.H _ Q M L G L ) G _ 7 O : > @ : : : : : : # # # # : : : : : : O # : : & ) P N H T P Q ^ ) & G &.@.=.U.=...+.! ",
"| 2.[ [ ' E Y L  .j G v N x s z f e L 8 ; : > @ : : : : : : # # # # : : : : : : : : + : O G v A x i l j a G = z ] [ } O.] $.' ..",
"Q %.| +.} #.3.+.O.x P S h j H x j r n q : @ @ : : : : : : : # # # # : : : : : : : + @ 5 + N G e z H x h w P = H *.} O.' o.' H Q ",
"H | ! | o.} o.+.5.b S H j Q  . .G 9 v 1 ; @ # : : : : : : : # # # # : : : : : : @ 5 + : , j N j  .]  .M w N = S -.#.{ o.H Z F D ",
"N T H U 5.o. .$.5.v A N a a a j x r v 7 : : @ # : : : : : : # # # # : : : : : : + : : & & m m a f i f j w G = A q.5.~ ' H  .' Z ",
"q G G N ] ' Y P Y b N j G m a a w a n 7 O @ @ > : : : : : : # # # # : : : : : : : # : : & c j J b f r r t V = j ! T T M G S v s ",
": 7 8 e u h j N N a b v t m v M B r ^ 8 @ : # @ : : : : : : # # # # : : : : : : : o > : & v j a G v V c t / & j N j w a a s s u "
};
