/* XPM */
static char *e9a460bc2c234bc6e15b3de38870d3f4zZxKXc9Bw8WhrzAO[] = {
/* columns rows colors chars-per-pixel */
"64 64 215 2 ",
"   c #040404",
".  c #0A0403",
"X  c #060808",
"o  c #0C0C0A",
"O  c #130C09",
"+  c #10110B",
"@  c #0A0A14",
"#  c #130E16",
"$  c #0D1212",
"%  c #131413",
"&  c #191414",
"*  c #16171A",
"=  c #1B1C1C",
"-  c #2F1409",
";  c #241C18",
":  c #2B271A",
">  c #35271D",
",  c #241E22",
"<  c #1E2220",
"1  c gray14",
"2  c #282527",
"3  c #2D2D2D",
"4  c #372B25",
"5  c #332E2A",
"6  c #37332C",
"7  c #2D2C39",
"8  c #2E3135",
"9  c #343634",
"0  c #3A3435",
"q  c #3D3935",
"w  c #393A3D",
"e  c #6C3A1E",
"r  c #45332D",
"t  c #4F322B",
"y  c #443B33",
"u  c #4A3F3C",
"i  c #6D401B",
"p  c #5B412D",
"a  c #4B4539",
"s  c #55453C",
"d  c #61402F",
"f  c #67473A",
"g  c #714C33",
"h  c #2F3745",
"j  c #393D48",
"k  c #413E45",
"l  c #3B4144",
"z  c #424343",
"x  c #474947",
"c  c #4A4C4D",
"v  c #524D4C",
"b  c #575348",
"n  c #4D4E51",
"m  c #4C4A59",
"M  c #534F5A",
"N  c #4E5153",
"B  c #525355",
"V  c #5C5957",
"C  c #555659",
"Z  c #56595B",
"A  c #5A5B5D",
"S  c #614C41",
"D  c #655448",
"F  c #745649",
"G  c #655D5B",
"H  c #6F5F58",
"J  c #616047",
"K  c #636459",
"L  c #6D6959",
"P  c #76685B",
"I  c #474965",
"U  c #504C62",
"Y  c #4F5268",
"T  c #5D5E61",
"R  c #595868",
"E  c #495678",
"W  c #555D78",
"Q  c #615F72",
"!  c #5E6162",
"~  c #5F667F",
"^  c #626365",
"/  c #6A6463",
"(  c #6A6B67",
")  c #646669",
"_  c #66696B",
"`  c #6A6B6D",
"'  c #736964",
"]  c #68736C",
"[  c #777468",
"{  c #646476",
"}  c #6D6E71",
"|  c #746A7D",
" . c #6E7173",
".. c #6C747D",
"X. c #727375",
"o. c #787974",
"O. c #757679",
"+. c #77797B",
"@. c #7A7B7D",
"#. c #84563A",
"$. c #9F693E",
"%. c #8B5D40",
"&. c #865F4D",
"*. c #8A6345",
"=. c #976E4C",
"-. c #846759",
";. c #A47753",
":. c #8F6C63",
">. c #807865",
",. c #847F6F",
"<. c #977F68",
"1. c #887976",
"2. c #837E7B",
"3. c #BB885C",
"4. c #8A876E",
"5. c #92806D",
"6. c #898478",
"7. c #938E71",
"8. c #9A9472",
"9. c #AC8263",
"0. c #B2886A",
"q. c #BB9A7C",
"w. c #C39C7A",
"e. c #596585",
"r. c #646A88",
"t. c #6A7181",
"y. c #707585",
"u. c #7D7E81",
"i. c #697799",
"p. c #777B98",
"a. c #807F87",
"s. c #7E8183",
"d. c #828385",
"f. c #8A8681",
"g. c #848689",
"h. c #86888B",
"j. c #88898B",
"k. c #88898D",
"l. c #8A8B8C",
"z. c #898A8E",
"x. c #9B9889",
"c. c #878494",
"v. c #8B8C90",
"b. c #8D8E91",
"n. c #978F90",
"m. c #8E9193",
"M. c #8F9094",
"N. c #929395",
"B. c #919296",
"V. c #999491",
"C. c #949699",
"Z. c #95969A",
"A. c #97989B",
"S. c #9A9B9D",
"D. c #999A9E",
"F. c #AF9E87",
"G. c #A29F92",
"H. c #B3A78A",
"J. c #A9A495",
"K. c #BAAC93",
"L. c #B3AD98",
"P. c #BBB896",
"I. c #959CA4",
"U. c #9C9EA1",
"Y. c #9D9EA2",
"T. c #9398BC",
"R. c #9FA1A3",
"E. c #9FA0A4",
"W. c #9DA0B4",
"Q. c #A2A3A5",
"!. c #A1A2A6",
"~. c #A8A6A7",
"^. c #A5A6A9",
"/. c #A5A6AA",
"(. c #A7A9AC",
"). c #AAABAD",
"_. c #A9AAAE",
"`. c #B9ACA2",
"'. c #AFB0AA",
"]. c #ABACB0",
"[. c #ADAEB2",
"{. c #A7A7B8",
"}. c #ADB1B4",
"|. c #AFB0B4",
" X c #B2B3B5",
".X c #B1B2B6",
"XX c #B8B8B6",
"oX c #B5B6B9",
"OX c #B6B8BB",
"+X c #B9BBBD",
"@X c #CFAD8F",
"#X c #C3BEA9",
"$X c #D0CDAB",
"%X c #D5C8B3",
"&X c #EAD5BB",
"*X c #F0DDBD",
"=X c #EBE2BA",
"-X c #98A2C8",
";X c #9FA7D1",
":X c #A2AAC8",
">X c #B8C2C3",
",X c #D1CEC6",
"<X c #CFCCD0",
"1X c #D1D2D3",
"2X c #D4D8D7",
"3X c #DCD9DB",
"4X c #EADEC3",
"5X c #E0D0CB",
"6X c #EBE7CA",
"7X c #F6E9C8",
"8X c #F8F5CD",
"9X c #F2EDD5",
"0X c #F5F3D7",
"qX c #ECEEF3",
"wX c #F8F7F5",
/* pixels */
"@.u.@.@.O.s.+.+.@.+.+.+.@.+.@.o.@.u.O.N n B c n X.@.u.!./.!.!.(.M.X.u.C c B B x ) s.X.+.u.u.X.d.+.d.u.A n n @.@.X.s.O.@.@.+.B z ",
"u.d.d.g.d.g.d.d.j.h.d.@.d.s.d.h.d.s.d.T A C C B X.s.z.(.].].(._.A.z.z.^ C A C B  .g.d.g.d.g.u.u.g.d.g.! N C u.z.z.d.j.g.g.d.^ C ",
"d.s.g.d.g.d.d.g. ._ O.d.z.g.d.h.X.` } C A ^ @.} N.Y.D.N.M.Z.N.Y.O.` } A C ^ X.X.u.d.d.d.@.z.Y.Y.M.u.b.@.X.O.s.d.u.^ ` _ ` ` X.X.",
"d.s.g.u.j.d.g.h.T z ! u.d.g.d.g.Z C T C A } b.u.!.|._.g.@.d.u.g._ B B A C ^ g.d.d.u.g.g.u.z./..XY.u.z.d.d.z.g.d.@.C B C B B u.d.",
"d.g.z.@.g.d.d.d.` C } d.d.g.d.g.^ C C A B ^ g.d.E.|.].g.u.z.d.g._ A C ! Z T g.u.d.u.u.u.s.v.E..XD.d.d.g.u.u.d.g.u.C N ^ Z A @.@.",
"s.d.@.A ^ T T T +.u.d.d.d.g.u.j.^ C T d.d.u.g.s.u.g.g.T A ^ T A X.g.u.u.u.g.(././._._././.!.z.g.v.d.d.z.d.u.g.g.u.C Z O.+.d.g.d.",
"z.z.+.C C Z Z Z u.v.d.@.u.g.u.z.T n Z s.z.g.g.d.u.d.u.A C C C n ` z.d.s.d.b.].].]..X_._.]./.d.@.z.g.u.g.d.g.g.g.X.C C X.d.g.d.d.",
"u.u.X.Z T T T T u.g.u.z.v.g.@.@.` ^ ` @.d.@.s.g.g.g.d.T C Z ) ! O.z.d.d.u.z._.!././.!.]._.!.g.g.d.d.s.g.d.g.@.u.X.^ Z +.z.d.g.d.",
"Z B T T Z O.v.g.d.u.b._.OXd.B B u.g.d.g.h.u.d.g.u.g.g.^ n } z.g.u.s.g.u.d.s.s.O.Z.|._.(.(.!.g.d.g.d.g.g.g.u.Z N ! h.z.g.d.u.g.u.",
"Z B T C B } g.u.d.@.z.].OXd.B B +.d.d.d.d.s.d.g.z.g.d.^ n ` d.d.g.g.g.z.d.d.d.u.Z..X/.]..X].u.u.d.g.u.@.g.s.C B ^ d.g.d.d.d.h.z.",
"} } X.X.} u.h.h.N.Z.Z.Z.A.g.) ^ d.g.h.g.d.d.d.g.+.` X. .` O.d.d.d.u.u.d.u.g.N.N.A.Y.N.Z.D.D.s.g.g.z.g.s.g.g.}  .X.d.d.g.g.d.X.} ",
"v.g.v.b.h.d.u.d.].OX!.u.O.g.g.z.g.@.d.d.d.d.@.d.^ c T u.g.d.d.g.g.d.z.u.d.M..XOXN.@.u.@.@.u.g.d.g.g.g.g.u.g.g.g.h.g.u.d.d.d.! B ",
"u.u.s.d.d.d.d.g.Y._.Y.g.u.d.u.d.d.@.g.g.s.g.d.d.` N ! s.z.g.d.d.s.u.g.d.s.z./.].D.u.g.d.s.d.z.d.s.d.s.s.u.g.z.s.s.s.h.z.g.d.^ B ",
"h.z.z.u.d.Z.Y.Y.].].Y.d.g.d.d.z.d.d.z.d.@.m.!.E.h.X.@.d.u.d.g.d.g.d.d.E.Y.Y.z.z.b.s.s.d.d.d.) ^ } g.s.s.g.g.s.g.d.s.h.X.! _ O.@.",
"+.u.d.@.s.Y..X.X].].E.@.d.d.d.d.u.@.d.s.@.Z.oXoXN.g.j.j.s.d.g.s.d.d.u.].|.].s.@.u.u.d.g.g.s.B n ! g.s.d.g.s.s.g.g.u.h.} N B @.h.",
"g.g.v.z.g.N.!./.!.!.E.s.j.u.d.d.b.d.d.z.g.m./.!.b.@.d.h.d.g.g.u.d.g.d.!./.E.d.g.g.u.g.u.u.u.) T  .h.s.g.s.s.z.g.z.@.h. .C C s.h.",
"_._./._.].Z.u.g.u.z.g.@.g.d.d.u.E./.]./._.Z.@.d.g.g.u.d.g.O.Z / 2.j.u.g.g.d.d.g.g.d.g.) B T s.s.z.g.s.s.s.g.(./.E.s.g.X.C Z d.h.",
"/.]._._._.A.u.d.d.g.s.d.@.d.g.u././.|._..XY.u.d.g.z.d.g.b.@.D g 0.*.L @.s.g.g.z.s.g.g.) N T s.g.z.s.s.s.s.u./.OX(.d.g.} B C +.@.",
"/._._./._.Z.u.d.d.d.s.g.u.g.g.u././._.Z.Y.N.u.d.O.` X.O.2.f 0.e $.3.;.p d.g.} X. .O.O.` )  .s.u.s.s.s.v.Z.M.M.Y.b.` X.X.) ` z.N.",
"/./._._.].Z.u.g.g.z.g.d.z.s.s.u.E././.@.@.d.@.d.` n Z ^ P q.=.;.i #.*.9.P @.C A C C Z O.g.g.g.s.g.s.u.E.|.|.g.g.+.N B X.d.g./..X",
"(._._./.].Z.s.g.d.s.d.d.g.u.d.u.(..X.Xd.d.g.@.g.` A ^ ` f ;.w.0.q.%.9.*.<.@.Z C T A C u.z.s.u.s.g.s.+.Y.(.(.+.g.@.Z c  .u.u.!._.",
"_.]./.v.N.z.d.d.} ^ } g.u.b.!.D.b.z.z.^ ^ ^ ^ A ) ^ O.n.F F.#.@X*.#.9.w.r X.C T A Z B O.d.s.g.g.m.E.Y.R.].(.g.h.g.@.X.g.d.u./._.",
"_.].Y.@.s.d.d.d.T n ! g.u.A.OX].j.u.@.C Z B B ! z C +.2.S d g #.%.%.g D D A C C A A C O.g.s.g.+.M.|.|.R.|.(.z.+.@.d.g.z.@.s.E.].",
"(.].!.u.g.g.d.d.^ B ) u.g.N.].(.z.d.d.Z A Z Z ^ +.` o.D 1.F t f -.&.f S y n A B A A A @.g.s.h.+.Z.(.(.(..X/.g.s.z.d.g.g.d.z.D._.",
"d.d.z.u.g. .B A s.j.u.d.d.d.g.d.h.d.u.C A A A ^ Z A L.9X5.- G 0 o.v 0 # / +.g.d.g.g.d.g.s.v./.(.].(.(.R.(.(.s.g.g.d.@.A.|./._._.",
"d.@.d.s.g.` c T @.j.d.d.u.u.g.h.d.g.h.C B B C V Z z x.7X*XP 0 8 7 7 k , 6.J.x.u.d.@.u.d.@.s./.(.(.}.].|.(.|.g.s.g.g.d.D._./.]..X",
"d.d.j.d.h. .B ^ u.j.d.d.d.d.g.d.u.s.d.Z A A ` ` @.z.J.K.7X4Xb x ^ x ( b P.8X%Xf.z.b.M.N.v.v.(.(./.R.Y./.A.R.g.s.s.X.+.Z.].(./.E.",
"u.d.h.d.d.} B A u.g.u.d.d.d.d.s.j.g.d.B Z ` h.g.Z.6.0XL.K.%Xy K o.( '.[ P.8X6XL XX.X]._.].(.|..XA.s.u.s.u.u.s.s.u.n c g.OX/.g.O.",
"g.d.h.z.d.` C A +.d.u.d.s.d.d.d.d.d.s.B c ^ g.s.z.J 0X9XG.4 L x.L q E.v 6X8X7Xb 3X1X_.].].|.(.|.Y.u.s.s.g.s.z.g.s.B c z.OX(.g.@.",
"` ` ` ` _ ` `  .d.d.u.d.d.g.d.g.X.` X.X.X.O.g.d.[ J.x.5Xx V 4 `.7.5 T N a $X8.#Xf.3Xb.Z.z.M.M.Z.m.s.z.g.s.s. .) } g.g.z.z.N.z.d.",
"N B B B B O.z.g.h.g.s.d.d.h.d.d.A c A g.j.d.d.s.m.K [ K o + & [ 7.x.B @ + L [ V XX2Xd.d.+.u.u.s.s.s.h.g.s.s.A n  .+XOXA.X.d.d.@.",
"T Z A A C X.d.@.d.d.d.d.d.d.s.h.^ C ! g.d.d.g.d.Z.m Q 7 c 2 : > ,.K 9 % X # R Y >X2Xz.u.z.z.s.s.g.u.g.s.s.s.T B ` ].!.D.s.g.s.u.",
"A C ^ s.+.d.d.d.d.g.h.u.g.A.Y./.d.@.@.d.d.g.u.g.R {.I R !.o x K $ o : >.,.* { {.d.2Xd.) A T ^ A ^ T T ^ ^ T +.+.d.h.d.z.d.u.^ ! ",
"B B ) g.g.g.d.d.d.u.d.u.O.N..X|.z.d.d.g.g.g.d.z.w l I.2 x 1 j h j j ' %X4X4.w w o.3Xg.^ n B Z C T B B C B B z.h.g.u.g.j.h.j.A N ",
"^ ^ X.d.g.d.u.d.g.s.g.N.g.N._.D.g.d.g.d.d.u.u.g.Z ] ]     U p.E E I | 1.4X=X4.4 n.<X@.} ) ^ A Z ^ A Z ^ ^ A g.@.j.@.g.@.X.O._ ^ ",
"d.d.g.d.d.g.d.g.s.u.j./._.N.g.d.u.u.d.u.d.s.s.g.x 8 c 3   Y I r.i.e.I M L =X=XH.2.].T X.g.u.! A T ! A X.z.u.g.@.g.d.d.} C A @.d.",
"d.g.g.u.u.d.@.@.d.u.z./.OXZ.O.d.d.d.g.@.g.g.d.g.! l G J.@ W e.i.i.i.r.R 5 K.@X&X( g.B  .z.g.A C C C n ` g.g.@.d.d.d.d. .C C u.g.",
"d.d.g.g.g.g.u.d.A.N.D.(._.Z.u.j.d.g.g.u.g.u.} ` X.3 ' ' A ~ i.-X;XT.p.y.N H -.-.} d. .@.d.d.Z C `  . .d.s.g.u.j.g.@.h.} C ! @.g.",
"d.d.s.g.u.d.@.d._.(._.].(.Z.d.d.d.d.s.d.d.X.B B O.j.6.q D.{ r.:X-X:Xt...I.2 5X,Xg.g.g.g.g.d.Z C } g.g.z.d.g.s.g.g.s.h.} B T @.j.",
"d.d.d.d.@.g.u.u./._.!._.].Z.g.d.g.d.@.g.g.} n B X.D.wXG / oX_.c.W.a.~._._ u.wXN.u.s.d.d.d.d.B B _ m.s.@.d.d.s.g.s.g.g.O.B C @.s.",
"d.s.h._.D.!.Y.D._._.!.z.b.z.d.d.d.d.g.g.s.s.d.@.d.d.OXY.; u y 1.X.f.6 s ; |.<Xg.M.].!.O.C ) @.@.O.d.d.d.s.g.d.d.@.^ A  .+.@.d.d.",
"d.d.b..X_.]._.]._.].!.s.u.g.d.u.d.d.d.u.d.s.@.d.s.s.d.qXV.D F 4 . - F :.u 1Xu.@.N.]..X} B A d.g.s.d.g.d.u.u.@.s.@.n n O.j.g.d.g.",
"d.d.b./._./.!./.!./.Y.d.d.h.g.d.g.d.h.d.d.h.g.j.z.d.g.+XV.s P a . r f f 5 z.v.g.Y.!._.} T ^ u.s.z.d.g.g.g.u.z.j.u.C A O.s.g.g.g.",
"_./._.]._.N.s.d.d.d.d.@.d.d.s.d.d.u.g.d.@.Z.]./.z.u.j.z.6 y 6 %   O > r k b.].(.Z.d.g.+.u.g.j.d.g.@.u.d.g.d._._.!.d.d.g.@.g.h.d.",
"/./.].(.].N.u.d.d.s.d.d.d.d.d.h.d.g.@.@.+.z..X].N.s.h.^ z 5 3 w * ; 2 q ` d.[.|.Y.u.s.g.d.g.u.@.d.d.d.d.u.@._.].!.s.s.h.d.d.g.s.",
"_._._.A.Y.b.d.d.g.d.d.d.s.g.s.d.g.Z.z.b.Z.N.D.!.d.} +.^ @.! ! d.X c Z x s.u._._.A.u.g.d.s.g.N.N.z.N.b.N.Z.N.D.A.D.d.s.z.d.d.z.m.",
"_./.Y.u.d.d.@.s.s.d.d.d.d.z.g.d./.OX.X]..XA.@.d.^ n T d.^ % * < o 8 ! w } /.].].D.s.g.s.d.z._._.oX.X_.].]._.d.@.@.@.@.d.@.g.(..X",
"]._.!.s.d.j.d.g.j.g.s.s.+.d.@.@.!./._./._.!.s.g.` B A d.X.% = % X 8   = z _.].].Y.s.d.s.u.g.(./._././._._.oX@.z.d.h.d.h.@.@.!._.",
"z.N.N.d.j.O.T ` u.g.g.D.!.A.!.D.Z.z.z.D.b.d.^ ^ ^ A A ` B = o       % = A v.b.b.b.d.u.a.d.g./.].!.z.Z.m.z.z.j.g.g.g.u.N.!.Y.N.j.",
"d.u.g.g.g.) c Z @.d.b._..X_..X.Xg.@.+.d.u.X.B C C Z Z C 1 = *         o x ` g.u.u.d.u.g.@.d..X].D.+.+.+.u.d.+.@.g.d.@.D..X(.z.O.",
"g.u.d.d.@.` C T u.@.j.(._./.E./.g.d.h.g.g.O.B C A T T x 2 C = o   o $ 3 c X.g.s.g.z.s.h.d.z././.Z.g.z.j.d.g.@.z.s.d.d.D.(./.b.s.",
"Z T T A Z O.@.s.z.d.z._._.D.g.z.d.u.h.@.d.X.B Z } u.j.g.c C c c ` x   z z 3 d.g.s.d.d.A.].!.d.g.u.d.g.d.@.g.d.d.z./.!.Z.d.g.u.@.",
"C A Z C c X.g.g.d.+.z./._.Z.+.u.z.d.j.d.z.O.Z B +.g.g.d.d.z.g.@.g.g.d.+.+.d.d.g.g.s.s.Y.+X].s.g.d.z.s.d.d.d.j.d.z.|.|.A.@.g.g.z.",
"A C T X.) O.d.d.b.z.D._.].Z.@.h.+.` O.X.O.} ^ ^ @.g.d.d.@.d.d.z.X.} @.g.g.g.d.u.g.s.d.Z.E.A.g.u.d.@. .d.d.@.d.d.z.Y.D.N.d.h.+.O.",
"! Z _ z.d.s.d.d./.(._.(.|.v.+.d.! B Z Z B ^ s.h.g.s.s.d.d.s.u.h._ B Z u.g.g.d.g.z.s.s.s.u.s.g.g.O.B N  .h.d.s.s.u.s.+.s.@.s.T Z ",
"B N ^ g.g.g.g.s.!.(._./.+XA.d.z.! Z Z Z N ^ g.s.s.s.z.d.g.d.h.h._ B n d.s.g.@.s.d.+.v.d.z.v.s.z.O.c Z X.h.d.s.h.d.g.s.z.g.d.A N ",
" . .+.d.h.z.u.d.!.|.E.m.N.@._ ` A A ! +. .@.d.d.g.s.d._ _ ` ` ^ } +.X.u.d.h.D.A.N.s.d. .) ^  ._ _ @.` @.h.s.+.h.d.d.+.s.^ `  .X.",
"h.h.g.s.@.h.d.s./._.Y.s.d._ Z Z A B A h.h.d.s.g.d.s.u.Z B B Z N  .h.m.s.s.z.|.oXD.@.s.! B Z B B _ z.h.g.d.s.@.d.d.d.s. .N ! @.h.",
"s.s.u.h.s.g.g.d.!./.!.u.d. .A C Z Z T u.d.d.d.d.g.h.d.^ C Z A n X.d.g.@.u.N._..XA.u.j.` Z A B N ^ d.g.u.u.g.g.d.h.u.j. .B Z @.s.",
"j.g.u.z.d.Z.(.(.m.s.d.d.z.` B ! @.g.d.d.u.g.g.d.@.d.s.A B ` d.d.u.s.@.!.(.D.^ T ! ! T C B A d.g.d.g.d.s.d.g.d.d.+.B ^ A C A d.g.",
"s.g.d.j.u.D..X/.d.d.h.g.g.O.B c @.d.g.d.s.d.d.g.@.g.d.^ n ^ d.d.d.g.d._..XE.B C B A B Z C Z d.d.g.s.d.s.d.d.u.g.u.n B C Z C @.s.",
"s.u.@.j.u.A././.z.d.@.@.O.} A ! s.d.g.d.d.d.@.@.h.@.+.` Z ` z.g.g.s.g.N._.N.B Z T A B A ! ^ u.d.d.s.g.d.d.j.@.@.+.^ T A A ^ d.j.",
"C B T d.@.d.@.d.g.j.X.C C X.g.j.d.u.d.u.d.g.d.g.^ n T @.a.N..X/./.oXoXC x Z Z A A C T +.g.g.g.g.g.g.g.u.@.d.A B ^ d.g.b.g.d.d.u.",
"C B ^ g.d.g.+.d.d.d.X.C B ^ d.d.g.@.u.u.@.@.@.g.` c A d.@.g././._.!..X^ B C C B C B C O.g.u.u.@.@.u.d.d.u.g.Z B A z.@.d.@.d.@.@."
};
