/* XPM */
static char *_59a7cc82b3f40eea88f95eead01f572[] = {
/* columns rows colors chars-per-pixel */
"64 64 218 2 ",
"   c #030101",
".  c #0B0100",
"X  c #030B01",
"o  c #080909",
"O  c #130101",
"+  c #160705",
"@  c #101313",
"#  c #220D00",
"$  c #2B2529",
"%  c #3C292F",
"&  c #362A31",
"*  c #36373A",
"=  c #4C332E",
"-  c #493536",
";  c #44353B",
":  c #4A3339",
">  c #573A39",
",  c #6B3B35",
"<  c #5F493B",
"1  c #6D433E",
"2  c #523C40",
"3  c #4D4E4F",
"4  c #5D4544",
"5  c #59474A",
"6  c #595C4D",
"7  c #4E4F51",
"8  c #5E4950",
"9  c #4F5052",
"0  c #535456",
"q  c #565659",
"w  c #58575C",
"e  c #57585A",
"r  c #5A5B5D",
"t  c #684946",
"y  c #724C45",
"u  c #64574A",
"i  c #735149",
"p  c #624D54",
"a  c #645455",
"s  c #735C5C",
"d  c #566749",
"f  c #556A4D",
"g  c #5A744B",
"h  c #5D6452",
"j  c #5D6C53",
"k  c #616856",
"l  c #656D5A",
"z  c #63735A",
"x  c #647558",
"c  c #5D5E60",
"v  c #605F64",
"b  c #755D62",
"n  c #5F6062",
"m  c #626364",
"M  c #666669",
"N  c #67686A",
"B  c #6A6B6D",
"V  c #7C6365",
"C  c #786C66",
"Z  c #6F7467",
"A  c #747568",
"S  c #7C756C",
"D  c #7C7A6E",
"F  c #6E6E71",
"G  c #706F73",
"H  c #6F7072",
"J  c #727375",
"K  c #7D7D73",
"L  c #767779",
"P  c #77787A",
"I  c #7A7B7D",
"U  c #82656A",
"Y  c #82766C",
"T  c #837D6E",
"R  c #866D70",
"E  c #897375",
"W  c #837C72",
"Q  c #7F8074",
"!  c #848176",
"~  c #858079",
"^  c #8A8778",
"/  c #91837A",
"(  c #948A7D",
")  c #998C7D",
"_  c #8C907F",
"`  c #98927F",
"'  c #A68C76",
"]  c #A28F7C",
"[  c #7E7E81",
"{  c #807F84",
"}  c #7F8082",
"|  c #828385",
" . c #8D8A84",
".. c #858689",
"X. c #88878C",
"o. c #87888A",
"O. c #8A8A8C",
"+. c #918786",
"@. c #958D83",
"#. c #9A8D83",
"$. c #958E8A",
"%. c #9A8F89",
"&. c #8E9680",
"*. c #949384",
"=. c #9C9185",
"-. c #95938B",
";. c #9C938A",
":. c #98998A",
">. c #8E8E91",
",. c #8F9092",
"<. c #929395",
"1. c #9B9591",
"2. c #9D9995",
"3. c #969699",
"4. c #98979C",
"5. c #97989A",
"6. c #9A9A9C",
"7. c #A29484",
"8. c #A2948B",
"9. c #A2998C",
"0. c #A89B8B",
"q. c #B29B8B",
"w. c #A59D93",
"e. c #8DA78C",
"r. c #9CAA93",
"t. c #B9A18C",
"y. c #A5A797",
"u. c #B9A797",
"i. c #BCAD9C",
"p. c #9E9FA1",
"a. c #A09FA4",
"s. c #9FA0A2",
"d. c #A2A2A5",
"f. c #A6A6A9",
"g. c #A7A8AA",
"h. c #A9A8A8",
"j. c #AAABAD",
"k. c #BBAFA1",
"l. c #BCB2A4",
"z. c #B4B2A8",
"x. c #BCB5AC",
"c. c #BEBBAC",
"v. c #AEAEB1",
"b. c #B1AEB3",
"n. c #AFB0B2",
"m. c #B2B3B5",
"M. c #BCBAB3",
"N. c #B5B6B8",
"B. c #C0A18C",
"V. c #C6A895",
"C. c #C7B29B",
"Z. c #C3B5A4",
"A. c #C3B9A6",
"S. c #C4B6AB",
"D. c #C3BBAC",
"F. c #CAB8AB",
"G. c #CABCAC",
"H. c #D1BBA6",
"J. c #C4BCB2",
"K. c #CABBB2",
"L. c #C3BEB8",
"P. c #BDDBB4",
"I. c #BAE2BD",
"U. c #CFC6AF",
"Y. c #C5C1B6",
"T. c #CCC3B4",
"R. c #CEC4BA",
"E. c #CEC9BA",
"W. c #D3C5B5",
"Q. c #D5C8B7",
"!. c #D5CBBC",
"~. c #DBCDBC",
"^. c #C6DBBE",
"/. c #DCD2BE",
"(. c #D3D8BA",
"). c #E7C9BD",
"_. c #F9CDBB",
"`. c #E1D0BE",
"'. c #D5E2BF",
"]. c #BFE4C2",
"[. c #D5CDC2",
"{. c #D8CEC2",
"}. c #D2CFCB",
"|. c #C8D7C5",
" X c #C6DEC2",
".X c #CBDBC3",
"XX c #DCD2C3",
"oX c #D8DBC6",
"OX c #DDD4C9",
"+X c #ECC8C3",
"@X c #F3CCC3",
"#X c #F8CCC1",
"$X c #E8D7C7",
"%X c #E3DCCD",
"&X c #F9D4C8",
"*X c #FBDAD5",
"=X c #C5E4C2",
"-X c #CCE6C5",
";X c #CCE5CA",
":X c #CCE9CA",
">X c #D7E6C9",
",X c #D3E3CC",
"<X c #C9F0CB",
"1X c #D4F1CC",
"2X c #D8E9D3",
"3X c #D2F0D4",
"4X c #EBEACE",
"5X c #F5E6D4",
"6X c #F3E7DB",
"7X c #F9E6D8",
"8X c #F5E9DB",
"9X c #FBEDDC",
"0X c #FEF1DE",
"qX c #FBEEE2",
"wX c #F8E7ED",
"eX c #FEF2E3",
"rX c #F2F1EB",
"tX c #FFF5E9",
/* pixels */
"0 r r 0 r 0 r j.j.v.[ [ [ 0 r c r r r r 0 r 0 q [ | | q q c r r e q r <.N.m.J e q r 0 m | | | | | L q r r r r e r M f.v.v.[ { | ",
"r m r r n q q f.g.n.I [ [ 0 r r q q r r 0 r r r | } o.r r r q q q q 0 O.v.m.B 0 r r e r | | ..| | J q q r q 0 r q c f.j.j.| ....",
"0 J ..| m r r 6.5.<.| | | 0 r r q r H } I m 0 0 P J I 0 0 m I J P I J >.p.p.B q r r r r ..[ | I L H q r N J H c e r <.p.<.| | [ ",
"0 <.v.N.F e 0 | I I | | | 0 q n q 0 O.m.N.F q r 0 0 0 r q H N.m.v.j.n.3.I | m e q c e r | ..P 0 0 r q r O.N.j.F e q e 0 c | | [ ",
"0 O.v.n.B 0 q o.| | | | [ r r r 0 q <.v.j.B 9 e r c r r 0 B v.v.j.j.j.3.} | m r r c r c | O.I 0 r r 0 0 >.m.v.B r r r q m ..X.I ",
"0 | <.,.m r r | | | B N B q 0 J >.o.>.,.5.I J J r r r r e m ..[ ..<.<.O.} j.m r e e q r B F B r 0 B o.| <.<.3.B r q r 0 r J J B ",
"0 J | | M e e | | } e 0 r r q } m.v.3.I | [ | o.m r q r r e q 0 M | } | | ..m r e r r q r 0 q r e | m.j.5.} [ m q q r r r r w r ",
"r J ..} m 0 e | | | r r r r q [ n.j.3.| | ....o.c r r e q r c r B o.| ..[ [ M r 0 r 9 r 0 r r q 0 | N.m.6.| | m r r r r q 0 0 c ",
"r m m m c r 0 m n M 0 r c r q m H B I | | B c N r I r c r c q r r N m [ ..| N 0 r >.5.<.r r n r c N P J H N B c r r c r M <.>.X.",
"r r q q r r r r r q e r c 0 q c 0 0 J ..o.n q r e w.$.W S ;.*.;.@.%.$.~ C | m q r j.g.j.q q r r 0 r 0 q q q e e e r r q B b.v.a.",
"0 n r r m r m 0 0 0 m r r r q m r e J | ..m q r c 1.!  .S @.@.;.=.;.( W W z.B 0 r f.v.g.q r q n r q 0 0 q q q r e r r q M v.m.4.",
"r m e 0 6.j.j.m r r j.g.6.e r r r r r 2.<. .-.-.w.W W {.[.OXXX{.{.!.OXXX[.S S S ~ ....O.0 c B p.6.f.p.d.<.I } m r r r e m >.<.O.",
"r q e 0 p.g.v.m q 0 N.f.g.7 e r 0 q r  .-.-.1.$.;.W C XX!.!.[.[.[.!.XX!.!.W W S S I } [ e r B m.j.j.f.m.5.I ..m e r r e c | | | ",
"r B B B <.v.j.r e r j.j.5.r r m c n c q 0 .   ;.=.#.9.Y C %X!.c.c.XXQ.eXeXT.{.D.K.  . [ r r F n.g.n.j.j.3.} ..m 0 e r q c | ....",
"0 O.n.j.,.I ..r r r [ [ ....| | | | F r r   . ( #.7.=.Y T E.E.Y.c.!.Q.9XeX$X$XK.S.+   ..q r r o.| } | | | | } m 0 r r r r r r c ",
"0 >.j.g.,.I o.r 0 c o...| } ....| ..J   . x.D.eXtXeX9XXXE.E.c.c.l.D.G.Q.XX%X5XqXqXl.x..   r m O.....| } | ....m 0 n q r r r q r ",
"L O.d.d.>.| ..c r c L P I ..} ..| | H X   L.R.6X8X6XqXXX~.D.D.D.T.A.U.W.~.tXeXtXeXR.x..   q m | L | o.| ..I [ N e 9 M c r r r r ",
"v.3.I | } ....r r q 0 q m | | | | | J  .2.Y.[.qXtXtXtXQ.Q.!.!.l.l.Q.~.Q.~.tXqXeX8XR.{.$.1.r q r q N | I H 0 e q r m j.v.j.r m r ",
"j.d.} ..} | [ r q r 0 q m | | ....| F -. .%XOX6XtX6X9XQ.~.XX/.D.G.~.~.~.~.9XeX9XeX%X[.$. .q r 0 e B o...F 0 r 0 q e p.j.j.0 0 r ",
"O.I | ..J J L M r c r r m J J P L     M.L.[.[.OXE.eXtX0X9XXXW.!.Q.Q.`.5X9XeXeX~.!.D.OXJ.M.o   r r N I [ F r q F J L 6.p.6.J G L ",
"0 J | ..m q 0 r q r q r r q q r 0   . M.J.[.{.!.OXeX8X0XeX~.W.$XQ.~.`.7XeX7XeXQ.~.XX[.J.x..   r r r 0 0 q r r 3.m.j...I o.v.b.f.",
"r F | o.m e q c r r 0 e q r q c 0 .   l.J.l.J.XX!.E.OX5XeXeX0X0X0X9X0X0X5X$XQ.Q.~.S.D.x.x.  . r q r r r r 0 e 3.j.n...| | v.v.d.",
"r m M B r q m r r r r r m <.>.| e   . Q.T.D.D.E.[.XX%X8X0X9X9X9X9X9X9X9X5X$X$X~.~.A.G.Q.J.    n e r r r r r r o.6.6...| ..6.3.<.",
"0 r q q r r r 0 r q r q B N.j.5.P O . Z.i.G.T.D.D.E.!.!.~.~.~.~./././.~.~.Q.W.G.Z.G.l.l.l..   r r c 0 r r r q L | } | [ o.| | { ",
"r r r e c r 0 m r r q 0 N f.j.3.0 . # C.G.G.l.l.D.XX{.!.!.~.~.~.~.~.!.!.~.~.Q.W.G.A.T.Z.W..   r r n q r q e r P [ | o.[ ..| ..[ ",
"r r e r r r 0 5.6.6.I I I J B o   i.t.H.H.G.G.T.D.J.D.D.D.D.A.A.A.D.D.D.D.A.Z.Z.Z.G.i.G.Z.i.k..   } 0 r L O.O.| | | | | | B B B ",
"r r r r n r 0 g.j.j.} | [ 3 0   + q.C.V.H.Z.k.D.D.D.D.D.D.D.D.D.A.D.D.D.D.A.Z.A.G.Z.U.Z.Z.u.u.. O 3.7 q O.N.m.>.| } | [ ..w r r ",
"0 m m m m c m d.j.g...| | r r   . V.V.' ] C.G.A.l.c.c.J.D.D.D.A.D.D.c.D.D.D.A.A.G.A.Z.] 7.i.Z.. . 6.0 r o.n.j.,.| | O...| w r q ",
"0 | g.f.j.j.s.o.| o.I | ..I [ o   u.t.] ] A.D.A.D.c.D.K.J.D.D.D.D.J.c.D.D.A.D.A.A.G.A.7.) i.u.. . I q e n B N P ..| m r M c c c ",
"0 o.v.g.d.f.v.o.} ..I | | [ | ..} . . @.=.*.^ Y.z.D.D.K.K.K.K.S.S.J.c.D.D.A.D.D.Z.=.9.*.@.K ! h.} I 0 0 r r q J | | m r q r c c ",
"r I g.d.d.j.g.[ [ | I } | ..| O.[   . -.:.*.:.M.E.l.S.F.F.S.S.K.K.x.x.D.D.S.A.G.K.( *.@.:.K Z } | P r r m q r L O...c q c q q 0 ",
"r r 0 e e 0 q r q 0 r r m ..| L 0 -.+.    :.*.*.^ #.w.Z.G.G.S.D.J.Y.D.J.l.9.( ) ( 9.@..   -.2.o.| ..| ..J 0 r r r r c r w v m J ",
"w r e 0 r r q r q r 0 r r ..| P 0 1.$..   :.:.*.y.( 0.l.G.D.D.c.c.D.D.D.l.w.=.8.=./ #.. . 1.+...[ | ..| J 0 r e r 0 r 0 r w 0 B ",
"w F I I M r r r r c q r m [ [ L c $.%.+   1.*.( ( ( ) ` ` ` ` *.:.*.@.;.;.@.#.8.=.8.8.. O r m O.wXo.I I J r r r N m M m m M v J ",
"0 >.N.m.J 0 r q 0 q r e r 0 q c r $.1.  . *.@.w.=.7.7.=.` *.*.&.*.:.#.=.;.#.#.;.#.%.;.. . q r O.| I 0 e r q 0 5.v.m.v.n.m.b.N.f.",
"0 [ g.n.J 0 e r c r r 0 r r c w e 0 w q q K D ^ =.( ) ) =.;.*.&._ ;.#.=.;.=.;.9.;.W W $.1.r r o...[ 0 r r r e 5.v.m.j.j.g.v.g.f.",
"..<.6.p.H q q | | | r r c r 0 N X.| | [ | Z Q *.;.;.=.#.#.@.*.*.:.=.#.=.;.@.$.;.*.! Z 1.<.r r J P F q r r q q ..<.3.d.f.d.p.d.d.",
"v.3.[ | N q 0 j.n.N.q r r r q I v.v.n.v.N.    K ~ S Y ;.#.;.@.*.*.#.9.#.=.S S D K     v.r r q r q r r q c r r 0 0 0 I [ [ | I [ ",
"m.3.| ..B 0 0 j.g.m.q r r r q I v.v.j.g.m.X   Z A ~ C ;.@.;.%.:. .;.#.9.( W D Z A   o m.e 0 c c q c r e r 0 q e r q | ......| ..",
"<.I m M m r 0 O.<.<.0 e r r w M [ I O.    2X|.rXoXk 6 ! S S S ~ W S C T ! h k 2X,X,X|.X X r r e e r e q J ....m r 0 J F F ..{ ..",
"| F 0 e r q 0 | } [ r r r q q r r 0 F X   oX.X|.,Xl A A D ! D K S ^ Q A A l h >X^.,X,X    rXr r r c r 0 o.m.v.L e q r q 0 | | ..",
"..J e r m r e [ ..| r q r c r | 0 4 u E.oX>X-Xx d ^..Xd h l l k h 6 h z z ,X^.x j .XoX>X%Xu t r q r q 0 ..j.v.J 0 r q r r X...| ",
"..J e 0 J [ I ..| ..0 e N 6.6.b.r t y &X/.4X'.d g >X1Xf f k j j z z z f f  X-Xd x >X(.!./.< i eX2.m r r I <.<.[ J J c r r B B F ",
"| J e q I ..} ..} ..r r c N.wXa 4 #X_.B.C.U.'.g g P.1XP.-X1X-X X=X X3X X:X1X^.x d >XoXA.u.@X&X, i r r 0 F | [ | ..| m q r w q v ",
"| J q r L } } | | | r 0 m v.f.p t #X_.V.t.4X(.x d -XP.1X=X=X=X:X:X;X;X=X-X X1Xd x oX/.u.V._.&X, t c r 0 J ....| o.} m 0 r w r v ",
"r r r q m c r c r c q r c O.o.p t &X&X).$X. .     r.e.3X=X].<XI.<X;X;X X,Xr.y.  . O . &X@X@X&X1 t r r r c m c c c m c e r c r c ",
"r r r q r q r n r r c q c } wXa 4 ).&X).+X+ .     h.y.,X;X:X:X=X^.;X.X,X2Xr.y.. . . O 7X*X+X+Xy t m 0 r r r r 0 r q r q c c r r ",
"0 r r r c q q r r 9 J B J | ..h.N y 1 y 1 O O s C             X X           . u C . + = t t i e 0 r c m r 0 q r r 7 m e r r r v ",
"r r q r r q r r r r j.j.f.| [ f.j.t , i t O O R C O . . . . . . . . . . . O . Y V . O t t 4 4 r e L g.j.o.e r r q r s.g.f.j.f.f.",
"0 r r q r e r r r 0 j.j.g.[ [ <.j.j...I r O O 2 : : 2 b V U V > > s s V E - 4 - - . . ..0 r q r 0 J N.g.O.0 q r q q d.j.j.v.j.f.",
"r B [ | M e q I I L p.d.6.| | o.6.p.I r q . . 5 5 5 8 b V b V > > U U U V : 5 : 8 . . } r 0 r B M I j.j.| r r r q r 5.j.g.g.f.d.",
"r | n.m.I 0 q d.v.v.| I [ | | P 0 0 n r e     * $ & $ + . . O . O O O O O : % ; $ . . q r r m m.v.d.} [ ..| | M r 0 [ | } | [ ..",
"3 O.j.n.L r q d.j.j.[ ....| ..I 0 q c 0 r   o $ * * *           . O . + . % ; $ ;   @ e q q m m.j.f.I O...| O.M 0 0 I I | ..| | ",
"O.o.<.p.H r 0 <.5.<...| | | ..P r r F ..o.N r   o o   r r c q r B f.6.3.[   o     r r r L I I 6.d.p.I ..I P I N r r | | o.I I I ",
"m.6.I ..B 0 0 | [ [ | I ..o.| I 0 0 } N.N.L q @     @ r e r r q c | | | | @     o r r r j.m.g.| I | } ..B 0 0 r q q I | ..r 0 r ",
"g.<.| | H r r I | | | | ..I ..[ 0 e | v.v.P r j.r q 3.r r r r r M | ..| | | B q q c e r j.j.m.I ........J 0 r 0 r q I | | r r r ",
"<.| M m M q r N N B ..| ....| [ 0 r P 3.<.} J J O.>.<.r r m 0 r c F B I ..| B r r r r r o.| o.B J L o...J r r N J F | | o.r r r ",
"| B 0 0 r r r r 0 0 ..| | ..| I q 0 F | | ..| ..m.}.n.r r r r e 0 r 0 B ....B 0 q r q r r q r q 0 m | ..J 0 q P o.| ..| ..r r e ",
"| J r r r r r r m q | | | | | L q q J | } ..[ | s.j.j.c r r r r r r q F ..| B r r c r r 0 q r r 0 N | ..J 0 q J | ....| o.r r 0 ",
"| I I I N r r r 0 r | | | m m m r q c c r P | | O.o.O.5.6.5.0 q r r e m M m m r q r r r <.3.<.q r c M M m q r m M N N M N r 0 m ",
"......o.B r r r r r | | | 0 0 r r q n r 0 L | | ..| | v.j.g.9 r c q 0 r r r r r q c r r j.j.j.q r c r q r q r r q r r r r r 0 N ",
"| ~ I | N r r r r r [ | [ q e r c q m m c P | | | [ [ j.j.f.r r n q r c q r c r 0 m r r f.j.j.0 q r r q c r r r 0 r r r q r 0 N ",
"o.P r r r r r r 0 r r c r r q r q q I d.d.O.[ | o.| } O...o.d.p.3.9 r r e r r r 0 3.d.d...o.o.q q r r r r r r r r r r r r 6.5.d.",
"| B 0 w r r r r r r r r r r 0 c 0 0 ..N.v.<.[ I | | [ } I O.v.m.s.0 q c q r m r 7 p.v.j...[ ..q r r q r r r r r q r r r r j.j.j."
};
