/* XPM */
static char *feed61d95db64335890ad45b2f8d0cf6LYAcHAnP3PbgYlLt[] = {
/* columns rows colors chars-per-pixel */
"64 64 203 2 ",
"   c #020202",
".  c #0A0305",
"X  c #0A0806",
"o  c #04040B",
"O  c #0B0C0C",
"+  c #120D0D",
"@  c #0F130A",
"#  c #070717",
"$  c #1C1315",
"%  c #191816",
"&  c #16141A",
"*  c #1A1A1C",
"=  c #211E0C",
"-  c #221819",
";  c #2C1B1A",
":  c #26221A",
">  c #161B21",
",  c #1D1930",
"<  c #2F1C20",
"1  c #272522",
"2  c #282627",
"3  c #2A2823",
"4  c #2B2C2E",
"5  c #352227",
"6  c #3A352B",
"7  c #272737",
"8  c #353433",
"9  c #393532",
"0  c #34373C",
"q  c #3B3D3C",
"w  c #4C291D",
"e  c #50291E",
"r  c #693D19",
"t  c #442E29",
"y  c #45352A",
"u  c #573527",
"i  c #433938",
"p  c #513730",
"a  c #5B412D",
"s  c #4C4435",
"d  c #4B473A",
"f  c #49433D",
"g  c #55423A",
"h  c #5F4B3C",
"j  c #59533D",
"k  c #66462E",
"l  c #754526",
"z  c #664737",
"x  c #7B5034",
"c  c #2A2F45",
"v  c #322E44",
"b  c #3D3C48",
"n  c #343A53",
"m  c #423F40",
"M  c #3F4441",
"N  c #3D4361",
"B  c #434344",
"V  c #484947",
"C  c #474748",
"Z  c #4B4B4C",
"A  c #574F4E",
"S  c #4B504C",
"D  c #58534B",
"F  c #4C4E51",
"G  c #4E5153",
"H  c #525355",
"J  c #555659",
"K  c #595658",
"L  c #56595B",
"P  c #5A5B5D",
"I  c #7C594C",
"U  c #655B55",
"Y  c #6F5B50",
"T  c #58625A",
"R  c #6D664D",
"E  c #696559",
"W  c #756B58",
"Q  c #484C67",
"!  c #45516F",
"~  c #5D5E61",
"^  c #535469",
"/  c #5E6062",
"(  c #5F646E",
")  c #5A627B",
"_  c #626365",
"`  c #606B64",
"'  c #646669",
"]  c #66696B",
"[  c #6A6B6D",
"{  c #7A6A65",
"}  c #757265",
"|  c #787469",
" . c #6D6E71",
".. c #66697B",
"X. c #746F70",
"o. c #6E7173",
"O. c #727375",
"+. c #767976",
"@. c #757679",
"#. c #7A7679",
"$. c #77797B",
"%. c #7A7B7E",
"&. c #844F33",
"*. c #875B38",
"=. c #8E653D",
"-. c #8B6447",
";. c #93634C",
":. c #886250",
">. c #9D785C",
",. c #B27B54",
"<. c #877165",
"1. c #9C7E64",
"2. c #877B70",
"3. c #7F807F",
"4. c #AB8156",
"5. c #B38358",
"6. c #8D866C",
"7. c #938B6B",
"8. c #878377",
"9. c #958D79",
"0. c #9C917E",
"q. c #AF8D76",
"w. c #C38F5D",
"e. c #5D6987",
"r. c #6C7189",
"t. c #707685",
"y. c #7D7E81",
"u. c #666E96",
"i. c #697395",
"p. c #747D9E",
"a. c #807F84",
"s. c #7E8183",
"d. c #828385",
"f. c #898985",
"g. c #848689",
"h. c #86888B",
"j. c #898A8D",
"k. c #968D89",
"l. c #979281",
"z. c #9E9581",
"x. c #8C8D91",
"c. c #85899A",
"v. c #918E9B",
"b. c #8E9093",
"n. c #929395",
"m. c #949699",
"M. c #95969A",
"N. c #9A969E",
"B. c #97999C",
"V. c #9A9B9D",
"C. c #999A9E",
"Z. c #A69986",
"A. c #B39483",
"S. c #A29E9E",
"D. c #ADA386",
"F. c #B1B08F",
"G. c #A7A497",
"H. c #B8A996",
"J. c #B3A79E",
"K. c #BBB49A",
"L. c #8B95AC",
"P. c #9C9EA1",
"I. c #9D9EA2",
"U. c #9FA1A3",
"Y. c #9EA3B6",
"T. c #A2A3A5",
"R. c #A1A2A6",
"E. c #ABABA2",
"W. c #A5A6A9",
"Q. c #A5A6AA",
"!. c #A7A8AC",
"~. c #A7AAAC",
"^. c #AAABAD",
"/. c #A9AAAE",
"(. c #B0ABAC",
"). c #B2B1A0",
"_. c #B9B5A6",
"`. c #ABACB0",
"'. c #ADAEB1",
"]. c #ADAEB2",
"[. c #AEB1B4",
"{. c #B2B2B5",
"}. c #B1B2B6",
"|. c #B5B6B9",
" X c #B7B7BA",
".X c #B8BABD",
"XX c #CBA281",
"oX c #C4B89C",
"OX c #C6B8AB",
"+X c #D1BFAA",
"@X c #CCC2A5",
"#X c #D5CCB1",
"$X c #E9DABA",
"%X c #AFB2C2",
"&X c #BABDC1",
"*X c #BCC1C6",
"=X c #C2C4CB",
"-X c #D4DAD4",
";X c #E7DEC3",
":X c #F0DFC4",
">X c #E8E5C4",
",X c #F5E9C9",
"<X c #EAECD0",
/* pixels */
"%.y.%.%.@.s.$.$.%.$.$.$.%.$.%.+.%.y.@.G F H Z F O.%.y.R.Q.R.R.!.b.O.y.J Z H H C ' s.O.$.y.y.O.d.$.d.y.P F F %.%.O.s.@.%.%.$.H B ",
"y.d.d.g.d.g.d.d.h.h.d.%.d.s.d.h.d.s.d.~ P J J H O.s.j.!.'.'.!./.B.j.j._ J P L H o.g.d.g.d.g.y.y.g.d.g./ G J y.h.j.d.h.g.g.d._ J ",
"d.s.g.d.g.d.d.g.o.] @.d.j.g.d.h.O.[  .J P _ %. .n.I.C.n.b.M.n.I.@.[  .P J _ O.O.y.d.d.d.%.j.I.I.b.y.x.%.O.@.s.d.y._ [ ] [ [ O.O.",
"d.s.g.y.h.d.g.h.~ B / y.d.g.d.g.L J ~ J P  .x.y.R.[./.g.%.d.y.g.] H H P J _ g.d.d.y.d.g.y.j.Q.}.I.y.h.d.g.j.g.d.%.J H J H H y.d.",
"d.g.j.%.g.d.d.d.[ J  .d.d.d.d.g._ J J P H _ g.d.U.[.'.g.y.h.d.g.] P J / L ~ g.y.d.y.y.y.s.x.U.}.C.d.d.g.y.y.d.g.y.J G _ L P %.%.",
"s.d.%.P _ ~ ~ ~ $.y.d.d.d.g.y.h._ J ~ d.d.y.g.s.y.g.g.~ P _ ~ P O.g.y.y.y.g.!.Q.Q././.Q.Q.R.j.g.x.d.d.j.d.y.g.g.y.J L @.$.d.g.d.",
"j.h.$.J J L L L y.x.d.%.y.g.y.j.~ F L s.j.g.g.d.y.d.y.P J J J F [ j.d.s.d.x.`.`.'.}././.`.Q.d.%.h.g.y.g.d.g.g.g.O.J J O.d.g.d.d.",
"y.y.O.L ~ ~ ~ ~ y.g.y.j.x.g.%.%.[ _ [ %.d.%.s.g.g.g.d.~ J L ' / @.h.d.d.y.j./.R.Q.Q.R.`./.R.g.g.d.d.s.g.d.g.%.y.O.' L $.j.d.g.d.",
"L H ~ ~ L @.x.g.d.y.x./. Xd.H H y.g.d.g.h.y.d.g.y.g.g._ F  .j.g.y.s.h.y.d.s.s.O.M.[./.!.!.R.g.d.g.d.g.g.g.y.L G / h.j.g.d.y.g.y.",
"L H ~ J H  .g.y.d.%.j.'. Xd.H H $.d.d.d.d.s.d.g.h.g.d._ F [ s.s.g.g.g.j.d.d.d.y.M.}.Q.'.}.'.y.y.d.g.y.%.g.s.J H ' d.g.d.d.d.h.j.",
" . .O.O. .y.h.h.n.M.M.M.B.g.' _ d.g.h.g.d.d.d.g.$.[ O.o.[ @.%.T ` T %.s.y.g.n.n.B.I.n.M.C.C.s.g.g.j.g.s.g.g. .o.O.d.d.g.g.d.O. .",
"x.g.x.x.h.d.y.d.'. XR.y.@.g.g.j.g.%.d.d.d.d.%.d._ Z ~ y.g.[ h <.A.>.k <.d.b.}. Xn.%.y.%.%.y.g.d.g.g.g.g.y.g.g.g.h.g.y.d.d.d./ H ",
"y.y.s.d.d.d.d.g.I./.I.g.y.d.y.d.d.%.g.g.s.g.d.d.[ G / s.g.a q.l &.,.5.:.{ j.Q.'.C.y.g.d.s.d.h.d.s.d.s.s.y.g.h.s.s.s.h.h.g.d._ H ",
"h.j.j.y.d.M.I.I.'.`.I.d.g.d.d.j.d.d.j.d.%.b.R.U.h.O.%.d.Z u 4.5.w.*.*.>.1.J.j.j.x.s.s.d.d.d.' _  .g.s.s.g.g.s.g.d.s.h.O./ ] O.%.",
"$.y.d.%.y.I.}.}.'.`.U.%.d.d.d.d.y.%.d.s.%.M. X Xn.O.h.j.f q.XX5.4.=.XX1.a Y d.%.y.y.d.g.g.s.H F / g.s.d.g.s.s.g.g.y.h. .G H %.h.",
"g.g.x.h.d.n.R.Q.R.R.U.s.h.y.d.d.x.d.d.j.g.b.!.R._ @.O.f.g u ;.l -.r x 4.h S.d.g.g.y.g.y.y.%.' ~ o.h.s.g.s.s.h.g.j.%.h.o.J J s.h.",
"/./.Q./.`.M.y.g.y.h.g.%.g.d.d.y.U.Q.'.Q./.M.%.d.d.C ' A { u e w z u :.z U U g.g.g.s.g.' H ~ s.s.j.g.s.s.s.g.!.!.U.s.g.O.J L d.h.",
"Q.`./././.B.y.d.d.g.s.d.%.d.g.y.Q.Q.[./.}.I.y.d.g.C J _ E ; ; < 5 5 t g ; } G.j.s.g.g.' G ~ s.g.h.s.s.s.s.y.Q. X!.d.g. .H J $.%.",
"Q././.Q./.M.y.d.d.d.s.g.y.g.g.y.Q.!./.M.I.n.y.d.@.V V : l.D 3  . ...F * k.#XK.O.o.@.O.[ ' o.s.y.s.s.s.x.M.b.b.I.x.[ O.O.' [ j.n.",
"Q.Q././.'.M.y.g.g.h.g.d.j.s.s.y.U.!.Q.%.%.d.%.d.B H 1 } ,X$Xs & > > * + ).<XF.} J J L @.g.h.g.g.g.s.y.U.[.[.g.g.$.G H O.d.g.!.}.",
"!././.Q.`.M.s.g.d.s.d.d.g.y.d.y.!.}.}.g.d.g.g.j.[ 8.).6.oX,X@Xi v.J R.k.j >X#XE ~ P J y.h.s.y.s.g.s.$.I.!.!.$.g.%.L Z o.y.y.R./.",
"/.'.Q.x.n.j.d.d. ._  .g.y.x.R.C.x.j.j._ ' _ _ ' P 9 K.7.j z.;XD - n.d.q G.@X7.Z P L H @.d.s.g.g.b.U.I.U.`.!.g.h.g.%.O.g.d.y.Q./.",
"/.'.I.%.s.d.d.d.~ F / g.y.B. X'.h.%.%.J L H H L P U D.7.W E 6 z.H.% n.A 9.R s E P ~ L O.d.s.g.$.b.[.[.U.[.!.h.$.%.d.g.j.%.s.U.'.",
"!.`.R.y.g.g.d.d.' H ' y.g.n.'.!.j.d.d.L P L L P L P | } | _ % 6.D.W f 9   _.E.o.P P P %.g.s.h.$.M.!.!.!.}.Q.g.s.j.d.g.g.d.j.C./.",
"d.d.j.y.g.o.H P s.h.y.d.d.d.g.d.h.d.y.J P P P P  .0 v v o % @   W K.l.= X X 0 t.g.g.d.g.s.x.Q.!.`.!.!.U.!.!.s.g.g.d.%.B.[.Q././.",
"d.%.d.s.g.] Z ~ %.h.d.d.y.y.g.h.d.g.h.J H H J H $.P c.Y.#   V +.3 s y R d % ^ r.d.$.y.d.%.s.Q.!.!.[.`.[.!.[.g.s.g.g.d.C./.Q.'.}.",
"d.d.h.d.h.o.H _ y.h.d.d.d.d.g.d.y.s.d.L P ~ [ ' @.P c.^ 7 o 4 F c 7 U oXZ.3 g.7 j.x.b.b.x.x.!./.Q.U.I.Q.B.U.g.s.s.O.$.M.'.!.Q.U.",
"y.d.h.d.d. .H P y.g.y.d.d.d.d.s.h.g.d.H L [ h.d.j.C > * & , ^ Q n N %.+X:X0.  ~ M.}.`./.`.!.[.}.B.s.y.s.y.y.s.s.y.F Z g. XQ.g.@.",
"g.d.h.j.d.[ J P $.d.y.d.s.d.d.d.d.d.s.H Z ' g.y.%.2 #.* # c ! e.u.u...E ;X$X9.M M.'./.'.`.[.!.[.I.y.s.s.g.s.h.g.s.H Z j. X!.g.%.",
"[ ] [ [ ] [ [ o.d.d.y.d.d.g.d.g.O.[ O.O.O.@.g.y.n.m i - # n ) u.p.i.e.) 6 @X$XZ.R.x.x.M.h.b.b.M.b.s.h.g.s.s.o.'  .g.g.j.j.n.j.d.",
"G H H H H @.j.g.h.g.s.d.d.h.d.d.P Z P g.h.d.d.y.C.h.t k.m n ) L.!.Y.L.e.b - Z.OXf.}.d.d.$.y.y.s.s.s.h.g.s.s.~ F o..X XB.O.d.d.%.",
"~ L P P J O.d.%.d.d.d.d.d.d.s.h._ J / g.d.d.g.d.j.O.2.J.9 b c.%X=X=X*Xc.( & K #.3.-Xj.y.h.j.s.s.g.y.g.s.s.s.~ H [ '.R.C.s.g.s.y.",
"P J ' s.$.d.d.d.d.g.h.y.g.B.I.!.d.%.%.d.d.g.y.g.@._ U U - N.g.b Z G _ *X&XH &X&X`.x.d.' P ~ _ P _ ~ ~ _ _ ~ $.$.d.h.d.j.d.y._ / ",
"H H ' g.g.g.d.d.d.y.d.y.@.n.}.[.j.d.d.g.g.g.d.j._ Z P @.1     o o         H [.'.I.d.g._ F H L J ~ H H J H H j.h.g.y.g.h.h.h.P G ",
"_ _ O.d.g.d.y.d.g.s.g.n.g.n./.C.g.d.g.d.d.y.y.g.] G _ d.G.  X o o . t I p  XI.!.x.O.%. .' _ P L _ P L _ ' P g.%.h.%.g.%.O.@.] ' ",
"d.d.g.d.d.g.d.g.s.y.h.Q./.n.g.d.y.y.d.y.d.s.s.g.O.J ' d.8 .   X . ; I I w (.y.g.O.G ~ O.g.y./ P ~ / P O.j.y.g.%.g.d.d. .J P %.d.",
"d.g.g.y.y.d.%.%.d.y.j.Q. XM.@.d.d.d.g.%.g.g.d.g.[ Z L %.C . C %   : y p 5 R.y.h. .F H o.h.g.P J J J F [ g.g.%.d.d.d.d.o.J J y.g.",
"d.d.g.g.g.g.y.d.B.n.C.!./.M.y.h.d.g.g.y.g.y. .[ @.[ @.g.d.X   .   3 f B 2 b.y.x.y. .o.%.d.d.L J [ o.o.d.s.g.y.h.g.%.h. .J / %.g.",
"d.d.s.g.y.d.%.d./.!./.'.!.M.d.d.d.d.s.d.d.O.H H @.g.g.d.%.] * .   8 H _ [ B y.s.d.g.g.g.g.d.L J  .g.g.j.d.g.s.g.g.s.h. .H ~ %.h.",
"d.d.d.d.%.g.y.y.Q./.R./.'.M.g.d.g.d.%.g.g. .F H O.g.d.d.%.b.h.O X & O 2 H B g.d.y.s.d.d.d.d.H H ] b.s.%.d.d.s.g.s.g.g.@.H J %.s.",
"d.s.h./.C.R.I.C././.R.j.j.j.d.d.d.d.g.g.s.s.d.%.d.d.%.g.s.d.h.' O 4 q B   [ d.g.b.`.R.O.L ' %.%.@.d.d.d.s.g.d.d.%._ P o.$.%.d.d.",
"d.d.x.}./.'./.'./.'.R.s.y.g.d.y.d.d.d.y.d.s.%.d.s.s.s.g.d.d.g.y.J * S V 9 #.y.%.n.'.}. .H P d.g.s.d.g.d.y.y.y.s.%.F F @.h.g.d.g.",
"d.d.x.Q./.Q.R.!.R.!.I.d.d.h.g.d.g.d.h.d.d.h.g.h.j.d.g.d.d.d.g.d.y.* O X A A x.g.I.R./. .~ _ y.s.j.d.g.d.g.y.j.h.y.J P @.s.g.g.g.",
"/.Q./.'./.n.s.d.d.d.d.%.d.d.s.d.d.y.g.d.y.M.'.Q.j.y.h.s.d.d.d.s.d.q 1 V $ X./.!.M.d.g.$.y.g.h.d.g.%.y.d.g.d././.R.d.d.g.%.g.h.d.",
"Q.Q.'.!.'.n.y.d.d.s.d.d.d.d.d.h.d.g.%.%.$.j.}.'.n.s.h.d.d.g.d.g.d. .8 Z - $ N.[.I.y.s.g.d.g.y.%.d.d.d.s.y.%./.'.R.s.s.h.d.d.g.d.",
"/././.B.I.x.d.d.g.d.d.d.s.g.s.d.g.M.j.x.M.n.C.R.d. .$.s.g.s.O.@.%.s.q 4 4 C Q./.M.y.g.d.s.g.n.n.j.n.x.n.M.n.C.B.C.d.s.j.d.d.j.n.",
"/.Q.I.y.d.d.%.s.s.d.d.d.d.j.g.d.Q. X}.'.}.B.%.d._ F ~ y.g.@.J Z O.g.d.R.}.Q.'.`.I.s.g.s.d.j././. X}./.'.'./.d.%.%.%.%.d.%.g.!.}.",
"'./.R.s.d.h.d.g.h.g.s.s.$.d.y.%.R.Q./.Q./.R.s.g.[ H P d.j.%.P H [ h.d.I.}./.'.`.I.s.d.s.y.g.!.Q./.Q.!././. X%.j.d.h.d.h.%.%.R./.",
"j.n.n.d.h.@.~ [ y.g.g.C.R.B.R.C.M.j.j.C.x.d._ ' ' P P  ._ ] %.O.x.R.M.n.x.n.x.x.x.d.y.a.d.g.Q.'.R.j.M.b.j.j.h.g.g.g.y.n.R.I.n.h.",
"d.y.g.g.g.' Z L %.d.x./.}./.}.}.g.%.$.d.y.O.H J J L L J F ' j.d.I. X'.g.$.y.g.y.y.d.y.g.%.d.}.'.C.$.$.$.y.d.$.%.g.d.%.C.}.!.j.@.",
"g.y.d.d.%.[ J ~ y.%.h.!./.Q.U.Q.g.d.h.g.g.@.H J P ~ ~ J P ] d.$.M.Q.!.j.d.g.g.y.g.j.s.h.d.j.Q.Q.M.g.j.h.d.g.%.j.s.d.d.C.!.Q.x.s.",
"L ~ ~ P L @.%.s.j.d.j././.C.g.h.d.y.h.y.d.O.H L  .y.h.d.y.%.g.d.g.g.g.s.y.g.d.g.s.d.d.B.'.R.d.g.y.d.d.d.%.g.d.d.j.Q.R.M.d.g.y.%.",
"J P L J Z O.g.g.d.$.j.!./.M.$.y.j.d.h.d.h.@.L H $.g.g.d.d.j.g.%.g.g.g.g.y.h.d.g.g.s.s.I..X'.s.g.d.j.s.d.d.d.h.d.j.[.}.B.%.g.g.j.",
"P J ~ O.' @.d.d.x.j.C./.'.M.%.h.$.[ @.O.@.[ ' _ %.g.d.d.%.d.d.j.O. .%.g.g.g.d.y.g.s.d.M.U.B.g.y.d.%.o.d.d.%.d.d.j.I.C.n.d.h.$.@.",
"/ L ] j.d.s.d.d.!.!./.!.[.x.$.d./ H L L H _ s.h.g.s.s.d.d.s.y.h.] H L y.g.g.d.g.h.s.s.s.y.s.g.g.O.H G o.h.d.s.s.y.s.$.s.%.s.~ L ",
"H G _ g.g.g.g.s.R.!./.!..XB.d.j./ L L L G _ g.s.s.s.j.d.g.d.h.h.] H F d.s.g.%.s.d.$.x.d.h.x.s.h.O.Z L O.h.d.s.h.d.g.s.j.g.d.P G ",
"o.o.$.d.h.h.y.d.R.[.U.b.n.%.] [ P P / $.o.%.d.d.g.s.d.] ] [ [ _  .$.O.y.d.h.C.B.n.s.d.o.' _ o.] ] %.[ %.h.s.$.h.d.d.$.s._ [ o.O.",
"h.h.g.s.%.h.d.s.!./.I.s.d.] L L P H P h.h.d.s.g.d.s.y.L H H L G o.g.b.s.s.h.[. XC.%.s./ H L H H ] j.h.g.d.s.%.d.d.d.s.o.G / %.h.",
"s.s.y.h.s.g.g.d.R.!.R.y.d.o.P J L L ~ y.d.d.d.d.g.h.d._ J L P F O.d.g.%.y.n./.}.B.y.h.] L P H G ' d.g.y.y.g.g.d.h.y.h.o.H L %.s.",
"h.g.y.j.d.M.!.!.b.s.d.d.h.[ H / %.h.d.d.y.g.g.d.%.d.s.P H [ d.d.y.s.%.R.!.C._ ~ / / ~ J H P d.g.d.g.g.s.d.g.d.d.$.H _ P J P d.g.",
"s.g.d.h.y.C.}.Q.d.d.h.g.g.@.H Z %.d.g.d.s.d.d.g.%.g.d._ F _ d.d.d.g.d./.}.U.H J H P H L J L d.d.g.s.d.s.d.d.y.g.y.F H J L J %.s.",
"s.y.%.h.y.B.Q.Q.j.d.%.%.@. .P / s.d.g.d.d.d.%.%.h.%.$.[ L [ j.g.g.s.g.n./.n.H L ~ P H P / ' y.d.d.s.g.d.d.h.%.%.$.' ~ P P _ d.h.",
"J H ~ d.%.d.%.d.g.h.O.J J O.g.h.d.y.d.y.d.g.d.g.' F ~ %.y.n.}.Q.Q. X XJ C L L P P J ~ $.g.g.g.g.g.g.g.y.%.d.P H _ d.g.x.g.d.d.y.",
"J H _ g.d.g.$.d.d.d.O.J H ' d.d.g.%.y.y.%.%.%.g.[ Z P d.%.g.Q.Q./.R.}._ H J J H J H J @.g.y.y.%.%.y.d.d.y.g.L H P j.%.d.%.d.%.%."
};
