/* XPM */
static char *e82c62fdf4094681ea0371c0c94225feZIOsiJ7ChUGAWQHN[] = {
/* columns rows colors chars-per-pixel */
"64 64 211 2 ",
"   c #040304",
".  c #0C0401",
"X  c #03020A",
"o  c #080709",
"O  c #0C0B0A",
"+  c #110A0F",
"@  c #1A120A",
"#  c #070815",
"$  c #141313",
"%  c #161917",
"&  c #151519",
"*  c #19161A",
"=  c #1C1B1E",
"-  c #21110C",
";  c #2A1F1B",
":  c #3E1F12",
">  c #29271F",
",  c #352818",
"<  c #141424",
"1  c #1A1921",
"2  c #211D26",
"3  c #1B212A",
"4  c #232324",
"5  c #272B28",
"6  c #2B2A2B",
"7  c #332E28",
"8  c #363126",
"9  c #2C2A31",
"0  c #282A39",
"q  c #322E34",
"w  c #2C323B",
"e  c #343536",
"r  c #393739",
"t  c #39393D",
"y  c #512912",
"u  c #673A11",
"i  c #412E24",
"p  c #4A372A",
"a  c #523727",
"s  c #453C31",
"d  c #7E4616",
"f  c #43423D",
"g  c #4D443F",
"h  c #4F513F",
"j  c #734728",
"k  c #6C4D35",
"l  c #262E43",
"z  c #2E354E",
"x  c #393A45",
"c  c #323A57",
"v  c #3C4350",
"b  c #3E4B69",
"n  c #424343",
"m  c #474845",
"M  c #4B4B4D",
"N  c #4D5349",
"B  c #54534D",
"V  c #4D4E51",
"C  c #494959",
"Z  c #534E50",
"A  c #4E5053",
"S  c #47555A",
"D  c #525355",
"F  c #595757",
"G  c #575857",
"H  c #555659",
"J  c #56595B",
"K  c #595B5D",
"L  c #6A534A",
"P  c #705C44",
"I  c #705D50",
"U  c #596B5F",
"Y  c #696547",
"T  c #7E664D",
"R  c #64655F",
"E  c #746C57",
"W  c #75695B",
"Q  c #484D67",
"!  c #49506D",
"~  c #5D5E61",
"^  c #5B5C6D",
"/  c #5B5E77",
"(  c #5E6062",
")  c #5D7163",
"_  c #5B6277",
"`  c #626365",
"'  c #676864",
"]  c #646669",
"[  c #67696B",
"{  c #6A6B6E",
"}  c #7C6C65",
"|  c #6D7166",
" . c #747163",
".. c #797767",
"X. c #676774",
"o. c #6C6E71",
"O. c #706E7F",
"+. c #6E7173",
"@. c #727375",
"#. c #7A7674",
"$. c #757679",
"%. c #79757A",
"&. c #77797B",
"*. c #7A7B7E",
"=. c #845630",
"-. c #905F3C",
";. c #9B6B49",
":. c #996B55",
">. c #807B5F",
",. c #A57654",
"<. c #8C6E63",
"1. c #817665",
"2. c #8C7565",
"3. c #97796B",
"4. c #817A75",
"5. c #A17661",
"6. c #738078",
"7. c #8D856A",
"8. c #9C8268",
"9. c #97946F",
"0. c #88877A",
"q. c #968C7A",
"w. c #8D9077",
"e. c #98967D",
"r. c #B18C6F",
"t. c #B09172",
"y. c #A9A27F",
"u. c #CC9D7E",
"i. c #D19E70",
"p. c #D4A37C",
"a. c #5E6884",
"s. c #666B88",
"d. c #7D7E81",
"f. c #7D7C8A",
"g. c #646E90",
"h. c #687196",
"j. c #737B92",
"k. c #827D85",
"l. c #7E8183",
"z. c #7F88A5",
"x. c #828385",
"c. c #848689",
"v. c #89878F",
"b. c #86888B",
"n. c #88898B",
"m. c #88898D",
"M. c #898A8D",
"N. c #898A8E",
"B. c #8A9287",
"V. c #8B8C90",
"C. c #8D8E91",
"Z. c #8C8F9C",
"A. c #8E9193",
"S. c #8F9094",
"D. c #929395",
"F. c #919296",
"G. c #999996",
"H. c #949699",
"J. c #95969A",
"K. c #97999C",
"L. c #9A9B9D",
"P. c #999A9E",
"I. c #A99A8F",
"U. c #9EA189",
"Y. c #A6A18D",
"T. c #A6A998",
"R. c #ABAC9B",
"E. c #B8AE95",
"W. c #B5B598",
"Q. c #9C9EA1",
"!. c #9D9EA2",
"~. c #989FB0",
"^. c #9FA1A3",
"/. c #9FA0A4",
"(. c #9EA1B2",
"). c #A2A3A5",
"_. c #A1A2A6",
"`. c #A5A6A9",
"'. c #A5A6AA",
"]. c #A5A9A8",
"[. c #A7A8AC",
"{. c #A7A9AC",
"}. c #AAABAD",
"|. c #A9AAAE",
" X c #ADB1AE",
".X c #B5B5AF",
"XX c #ABACB0",
"oX c #ADAEB1",
"OX c #ADAEB2",
"+X c #AFB0B4",
"@X c #AEB1B4",
"#X c #B2B3B5",
"$X c #B1B2B6",
"%X c #B5B6B9",
"&X c #B6B8BB",
"*X c #B8BABD",
"=X c #D0A989",
"-X c #DEAE97",
";X c #DED6B0",
":X c #EADABA",
">X c #BABFC6",
",X c #BDC3CD",
"<X c #C6C9C6",
"1X c #D8D5C8",
"2X c #D4D4DA",
"3X c #EAE2C4",
"4X c #F5E7C9",
"5X c #F3EDD0",
"6X c #CFD4E1",
"7X c #D4DCEA",
"8X c #DFE1E1",
/* pixels */
"*.d.*.*.$.l.&.&.*.&.&.&.*.&.*.$.*.d.$.A V D M V @.*.d._.'._._.[.S.@.d.H M D D M ] l.@.&.d.d.@.x.&.x.d.K V V *.*.@.l.$.*.*.&.D n ",
"d.x.x.c.x.c.x.x.n.b.x.*.x.l.x.b.x.l.x.~ K H H D @.l.N.[.oXoX[.|.K.N.N.` H K H D +.c.x.c.x.c.d.d.c.x.c.( A H d.N.N.x.n.c.c.x.` H ",
"x.l.c.x.c.x.x.c.+.[ $.x.N.c.x.b.@.{ o.H K ` *.o.D.!.P.D.S.J.D.!.$.{ o.K H ` @.@.d.x.x.x.*.N.!.!.S.d.C.*.@.$.l.x.d.` { [ { { @.@.",
"x.l.c.d.n.x.c.b.~ n ( d.x.c.x.c.J H ~ H K o.C.d._.+X|.c.*.x.d.c.[ D D K H ` c.x.x.d.c.c.d.N.'.$X!.d.N.x.c.N.c.x.*.H D H D D d.x.",
"x.c.N.*.c.x.x.x.{ H o.x.x.c.x.c.` H H K D ` c.x./.+XoXc.d.N.x.c.[ K H ( J ~ c.d.x.d.d.d.l.V./.$XP.x.x.c.d.d.x.c.d.H A ` J K *.*.",
"l.x.*.K ` ~ ~ ~ &.d.x.x.x.c.d.n.` H ~ x.x.d.c.l.d.c.c.~ K ` ~ K @.c.d.d.d.c.[.'.'.|.|.'.'._.N.c.V.x.x.N.x.d.c.c.d.H J $.&.x.c.x.",
"N.N.&.H H J J J d.V.x.*.d.c.d.N.~ V J l.N.c.c.x.d.x.d.K H H H V { N.x.l.x.C.XXXXoX$X|.|.XX'.x.*.N.c.d.c.x.c.c.c.@.H H @.x.c.x.x.",
"d.d.@.J ~ ~ ~ ~ d.c.d.N.V.c.*.*.{ ` { *.x.*.l.c.c.c.x.~ H J ` ( $.N.x.x.d.N.|._.'.'._.XX|._.c.c.x.x.l.c.x.c.*.d.@.] J &.N.x.c.x.",
"J D ~ ~ J $.V.c.x.d.C.|.&Xx.D D d.c.x.c.b.d.x.c.d.c.c.` V o.N.c.d.l.c.d.x.l.l.$.J.+X|.[.'._.c.x.c.x.c.c.c.d.J A ( b.N.c.x.d.c.d.",
"J D ~ H D o.c.d.x.*.N.oX&Xx.D D &.x.x.x.x.l.x.c.N.c.x.` V { x.x.c.c.c.N.x.x.x.d.J.$X'.oX$XoXd.d.x.c.d.*.c.l.H D ] x.c.x.x.x.b.N.",
"o.o.@.@.o.d.b.b.D.J.J.J.K.c.] ` x.c.b.c.x.x.x.c.&.{ @.+.{ $.x.x.x.d.d.x.d.c.D.D.K.!.D.J.P.P.l.c.c.N.c.l.c.c.o.+.@.x.x.c.c.x.@.o.",
"V.c.V.C.b.x.d.x.oX&X_.d.$.c.c.N.c.*.x.x.x.x.*.x.` M ~ d.c.x.x.c.c.x.N.d.x.S.$X&XD.*.d.*.*.d.c.x.c.c.c.c.d.c.c.c.b.c.d.x.x.x.( D ",
"d.d.l.x.x.x.x.c.!.|.!.c.d.x.d.x.x.*.c.c.l.c.x.x.{ A ( l.N.c.x.x.l.d.c.x.l.N.'.oXP.d.c.x.x.x.N.x.l.x.l.l.d.c.N.l.l.l.b.N.c.x.` D ",
"b.N.N.d.x.J.!.!.oXXX!.x.c.x.x.N.x.x.N.x.*.A._.^.b.@.*.x.d.x.c.x.c.x.x./.!.!.N.N.C.l.l.x.x.x.] ` o.b.l.l.c.c.l.c.x.l.b.@.( [ $.*.",
"&.d.x.*.l.!.$X$XoXXX^.*.x.x.x.x.d.*.x.l.*.J.%X%XD.c.n.n.l.x.c.l.x.x.d.oX+XXXl.*.d.d.x.c.c.l.D V ( c.l.x.c.l.l.c.c.d.b.o.A D *.b.",
"c.c.V.N.c.D._.'._._.^.l.n.d.x.x.C.x.x.N.c.A.[._.C.*.x.b.x.c.c.d.l.c.x._.'./.x.c.c.d.c.d.d.d.` ~ +.b.l.c.l.l.N.c.N.*.b.+.H H l.b.",
"|.|.'.|.XXJ.d.c.d.N.c.*.c.x.x.d.^.'.oX'.|.J.*.x.c.c.d.x.c.$.J J @.c.d.c.c.x.x.c.c.x.c.] D ~ l.l.N.c.l.l.l.c.[.[.^.l.c.@.H J x.b.",
"'.XX|.|.|.K.d.x.x.c.l.x.*.x.c.d.'.'.+X|.$X!.d.x.c.N.x.c.C.*.D M { x.d.*.l.c.c.N.l.c.c.` A ~ l.c.N.l.l.l.l.d.'.&X[.x.c.o.D H &.*.",
"'.|.|.'.|.J.d.x.x.x.l.c.d.c.c.d.'.[.|.J.!.D.d.x.$.{ @.$.@.@.@.` d.P.K.x.x.c.o.+.+.$.$.{ ` +.l.d.l.l.l.V.J.S.S.!.C.{ @.@.] { N.D.",
"'.'.|.|.oXJ.d.c.c.N.c.x.N.l.l.d.^.[.'.*.*.x.*.x.{ V J J M ` N.d.P.oXoXx.d.*.H J H H J $.c.c.c.l.c.l.d./.+X+Xc.c.&.A D @.x.c.[.$X",
"[.|.|.'.XXJ.l.c.x.l.x.x.c.d.x.d.[.$X$Xx.x.c.c.N.+.K J H D ` x.*.P.'.&XN.N.x.J H ~ K H d.N.l.d.l.c.l.&.!.[.[.&.c.*.J M +.d.d._.|.",
"|.oX'.V.D.N.x.x.o.` o.c.d.C._.P.C.N.N.` ] ` ` ] K V ~ @.@.l._.P.J.n.D.] ` { H ~ K J D $.x.l.c.c.A./.!.^.XX[.c.b.c.*.@.c.x.d.'.|.",
"|.oX!.*.l.x.x.x.~ V ( c.d.K.&XoXn.*.*.H J D D J K D [ n.d.N.$XoXD.*.b.J D ~ H H K K H $.c.l.c.&.S.+X+X^.+X[.N.&.*.x.c.N.*.l.^.oX",
"[.XX_.d.c.c.x.x.` D ] d.c.D.oX[.N.x.x.J K J J K K K ~ l.c.N.'.$XD.$.N.K D ~ K D K K K *.c.l.b.&.J.[.[.[.$X'.c.l.N.x.c.c.x.N.P.|.",
"x.x.N.d.c.+.D K l.n.d.x.x.x.c.x.b.x.d.H K K K K @.n.x.|.|.[.|.|.D.*.n.` ~ ` c.x.c.c.x.c.l.V.'.[.XX[.[.^.[.[.l.c.c.x.*.K.+X'.|.|.",
"x.*.x.l.c.[ M ~ *.n.x.x.d.d.c.b.x.c.b.H D D H D &.n.l._.'.|.|.&XJ.c.n.H V ~ c.d.x.*.d.x.*.l.'.[.[.+XXX+X[.+Xc.l.c.c.x.P.|.'.oX$X",
"x.x.n.x.b.+.D ` d.n.x.x.x.x.c.x.d.l.x.J K ~ { ] $.x.x.P.P.P.D.^.c.&.&.] ` { c.x.N.C.S.S.V.V.[.[.'.^.!.'.K.^.c.l.l.@.&.J.oX[.'.^.",
"d.x.b.x.x.o.D K d.c.d.x.x.x.x.l.n.c.x.D J { b.x.N.x.F W 3.T s M D V K x.N.c.c.d.J.$XXX|.XX[.+X$XK.l.d.l.d.d.l.l.d.V M c.&X'.c.$.",
"c.x.b.N.x.{ H K &.x.d.x.l.x.x.x.x.x.l.D M ] c.d.x.g 8.u -.i.=XP D K D d.d.x.d.*.J.oX|.oXXX+X[.+X!.d.l.l.c.l.N.c.l.D M N.&X[.c.*.",
"{ [ { { [ { { +.x.x.d.x.x.c.x.c.@.{ @.@.@.$.c.d.x.<.j ,.=.d =.t.1.@.{ J.D.!.J.J.J.C.C.J.N.S.S.J.A.l.N.c.l.l.+.` o.c.c.N.N.D.N.x.",
"A D D D D $.N.c.b.c.l.x.x.b.x.x.K M K c.n.x.x.d.R <.-X,.p.;.r.k t.*.c.|.+X+XoX&XP.*.x.x.&.d.d.l.l.l.b.c.l.l.K V +.*X&XK.@.x.x.*.",
"~ J K K H @.x.*.x.x.x.x.x.x.l.b.` H ( c.@.H d.x. .<.5.u.j p.;.-X8.@.x.P.oX|.'.[.P.*.N.d.N.N.l.l.c.l.c.l.l.l.~ D { oX_.P.l.c.l.d.",
"K H ] l.&.x.x.x.x.c.b.d.c.K.!.[.x.*.*.x.{ $.n T.0.p y =Xy :.r.a L N._.|.|.XXoX'.P.*.x.] K ~ ` K ` ~ ~ ` ` ~ &.&.x.b.x.N.x.d.` ( ",
"D D ] c.c.c.x.x.x.d.x.d.$.D.$X+XN.x.x.c.l.t ' 0.B , , a 3.: <.I 8 c.oXoX'.'.[.oX!.x.c.` V D J H ~ D D H D D N.b.c.d.c.n.b.n.K A ",
"` ` @.x.c.x.d.x.c.l.c.D.c.D.|.P.c.x.c.x.x.*.B 4.g   M H ^ ^ x = ' .X|.|.XXoX!.[.C.@.*.o.` ` K J ` K J ` ] K c.*.n.*.c.*.@.$.[ ] ",
"x.x.c.x.x.c.x.c.l.d.n.'.|.D.c.x.d.d.x.d.l.N  .I.5X .t 1 < < 0 = w.W.|.'.|.[.d.c.@.A ~ @.c.d.( K ~ ( K @.N.d.c.*.c.x.x.o.H K *.x.",
"x.c.c.d.d.x.*.*.x.d.N.'.&XJ.$.x.x.x.c.*.) U % 1.5X3X .q *.B c.' ..5X1XoXoX'.d.b.o.V D +.N.c.K H H H V { c.c.*.x.x.x.x.+.H H d.c.",
"x.x.c.c.c.c.d.x.K.D.P.[.|.J.d.n.x.c.c.l.].5 N 7.y.5XR.m Z G.v.` 7.;Xe.D.J.D.d.V.d.o.+.*.x.x.J H { +.+.x.l.c.d.n.c.*.b.o.H ( *.c.",
"x.x.l.c.d.x.*.x.|.[.|.oX[.J.x.x.x.x.l.x.<XB.0.Y Y q.6 7 8 { k.k.>.9...d.x.d.d.l.x.c.c.c.c.x.J H o.c.c.N.x.c.l.c.c.l.b.o.D ~ *.n.",
"x.x.x.x.*.c.d.d.'.|._.|.oXJ.c.x.c.x.*.c.<XR R.T...B * 4.Y. .q 9 T.U.R.| c.d.c.x.d.l.x.x.x.x.D D [ A.l.*.x.x.l.c.l.c.c.$.D H *.l.",
"x.l.b.|.P._.!.P.|.|._.N.C.N.x.x.x.x.c.c.8Xc.t & $ = o s E.E 8 O o 3 5 ' c.N.x.c.S.XX_.$.H ] *.*.$.x.x.x.l.c.x.x.*.` K +.&.*.x.x.",
"x.x.C.$X|.oX|.oX|.|._.l.d.c.x.d.x.x.x.d.2XX.C < X 6 F M h e.W.f 6 ~._ >Xc.x.d.*.D.oX$Xo.D K x.c.l.x.c.x.d.d.*.l.*.V V $.n.c.x.c.",
"x.x.C.'.|.'._.[._.[.!.x.x.b.c.x.c.x.b.x.<Xx s.C   & t x w | 5 . @ x.(.,XN.c.V.c.!._.|.o.~ ` d.l.N.x.c.x.c.d.N.n.d.H K $.l.c.c.c.",
"|.'.|.oX|.D.l.x.x.x.x.*.x.x.l.x.x.d.c.x. Xe ` M   w Q ! c z X E E.2.& >XN.C.XX[.J.x.c.&.d.c.n.x.c.*.d.x.c.x.|.|._.x.x.c.*.c.b.x.",
"'.'.oX[.oXD.d.x.x.l.x.x.x.x.x.b.x.c.*.*.J.> ; + < c ! s.h.b _ W :X3X .n x.N.oX+X!.d.l.c.x.c.d.*.x.x.x.l.d.*.|.oX_.l.l.b.x.x.c.l.",
"|.|.|.K.!.C.x.x.c.x.x.x.l.c.l.x.c.J.N.C.P.r #.M l b a.g.h.g./ q W 3X:XE P.D.|.|.J.d.c.x.l.c.D.D.N.D.C.D.J.D.P.K.P.x.l.N.x.x.N.A.",
"|.'.!.d.x.x.*.l.l.x.x.x.x.N.c.x.'.%X$XoX$XD.' 6 0 Q j.j.z.s._ c & 1.4X3X0.[.oXXXP.l.c.l.x.N.|.|.%X$X|.oXoX|.x.*.*.*.*.x.*.c.[.$X",
"oX|._.l.x.n.x.c.n.c.l.l.&.x.*.*._.'.|.'.|._.<XP.v ^ Z.6X7X2X,XS = M q.I.|.P.oXXX!.l.x.l.d.c.[.'.|.'.[.|.|.%X*.N.x.b.x.b.*.*._.|.",
"N.D.D.x.n.$.K { *.c.c.P._.K._.P.J.N.N.P.C.x.] +.V.&X[.1 3 2 4 6.J Z %.%.C.K.C.C.C.x.d.k.x.c.'.oX_.N.J.A.N.N.n.c.c.c.d.D._.!.D.n.",
"x.d.c.c.c.] M J *.x.C.|.$X|.$X$Xc.*.&.x.*.@.D D.4 @ - .     o   n x.oXc.%.d.c.d.d.x.d.c.*.x.$XoXP.&.&.&.d.x.&.*.c.x.*.P.$X[.N.$.",
"c.d.x.x.*.{ H ~ d.*.n.[.|.'._.'.c.x.b.c.c.$.H H J.} L -       o M '.|.N.c.c.c.l.c.N.l.c.x.N.'.'.J.c.N.n.x.c.*.N.l.x.x.P.[.'.C.l.",
"J ~ ~ K J $.*.l.N.x.N.|.|.P.c.N.x.d.b.*.x.@.D J N.L k i   o   o   l.c.l.d.c.x.c.l.x.x.K.oX_.x.c.d.x.x.x.*.c.x.x.N.'._.J.x.c.d.*.",
"H K J H M $.c.c.x.&.N.[.|.J.&.d.N.x.n.x.N.$.J D +.p p s .   t = x l.c.c.d.N.x.c.c.l.l.!.*XoXl.c.x.N.l.x.x.x.n.x.N.+X$XK.*.c.c.N.",
"K H ~ @.] $.x.x.C.N.P.|.oXJ.*.b.&.{ $.@.$.{ ] ` K M n 7 $     # ~ o.*.c.c.c.x.d.c.l.x.J./.K.b.l.x.*.+.x.x.*.x.x.N.!.P.D.x.b.&.$.",
"( J [ N.x.l.x.x.[.[.|.[.+XV.&.x.( D J J D ` l.b.o.~ ` n $ O & 1 ( D J d.c.c.x.c.N.l.l.l.d.l.c.c.$.D A +.b.x.l.l.d.l.&.l.*.l.~ J ",
"D A ` c.c.c.c.l._.[.|.[.*XK.x.N.( J J J A ` c.l.t & $   * r H J ` D V x.l.c.*.l.x.&.V.l.N.V.l.N.$.M J @.b.x.l.b.x.c.l.N.c.x.K A ",
"+.+.&.x.b.N.d.x._.+X^.A.D.*.[ { K K ( &.+.*.x.x.D e K 4 * O.@.` o.&.@.d.x.b.P.K.D.l.x.+.` ` +.[ [ *.{ *.b.l.&.b.x.x.&.l.` { +.@.",
"b.b.c.l.*.b.x.l.[.|.!.l.x.[ J J K D K b.b.x.l.c.G f e f 4 f.~ V +.b.A.l.l.N.+X%XP.*.l.( D J D D [ N.b.c.x.l.*.x.x.x.l.+.A ( *.b.",
"l.l.d.b.l.c.c.x._.[._.d.x.+.K H J J ~ d.x.x.x.x.D $ $ O @.o.X = @.x.c.*.d.D.|.$XK.l.n.[ J K D A ` x.c.d.d.c.c.x.b.d.n.+.D J *.l.",
"n.c.d.N.x.J.[.[.A.l.x.x.n.{ D ( *.b.x.x.d.c.c.d.% n K # 9 x t &.l.l.d._.[.P.` ~ ( ( ~ H D K x.c.x.c.x.l.x.c.x.x.&.D ` K H K x.c.",
"l.c.x.n.d.P.$X'.x.x.b.c.c.$.D M *.x.c.x.l.x.x.H & & 3 # C ( x.x.x.c.x.|.$X^.D H D K D J H J x.x.c.l.x.l.x.x.d.c.d.V D H J H *.l.",
"l.d.*.n.d.K.'.'.N.x.*.*.$.o.K ( l.x.c.x.x.x.*.*.{ ` ~ J J { N.c.c.l.c.D.|.D.D J ~ K D K ( ] d.x.x.l.c.x.x.n.*.*.&.] ~ K K ` x.n.",
"H D ~ x.*.x.*.x.c.n.@.H H @.c.n.x.d.x.d.x.c.x.c.] V ~ *.d.D.$X'.'.%X%XH m J J K K H ~ &.c.c.c.c.c.c.c.d.*.x.K D ` x.c.C.c.x.x.d.",
"H D ` c.x.c.&.x.x.x.@.H D ] x.x.c.*.d.d.*.*.*.c.{ M K x.*.c.'.'.|._.$X` D H H D H D H $.c.d.d.*.*.d.x.x.d.c.J D K N.*.x.*.x.*.*."
};
