/* XPM */
static char *_7624201501b4b0d86e52f5de926873dl9y5jq581Vz98oAs[] = {
/* columns rows colors chars-per-pixel */
"64 64 217 2 ",
"   c None",
".  c #050405",
"X  c #0C0C0B",
"o  c #0A0705",
"O  c #1C1208",
"+  c #0F1110",
"@  c #131414",
"#  c #141318",
"$  c #161918",
"%  c #1A1B1C",
"&  c #141816",
"*  c #100B0A",
"=  c #291E1B",
"-  c #240E08",
";  c #25231D",
":  c #2E271E",
">  c #37241A",
",  c #1C1C27",
"<  c #1F2221",
"1  c #232424",
"2  c #2E2C22",
"3  c #2A2B2A",
"4  c #292728",
"5  c #372A24",
"6  c #39362E",
"7  c #252433",
"8  c #2A2A34",
"9  c #2B3233",
"0  c #2F3A39",
"q  c #333433",
"w  c #373A3B",
"e  c #383638",
"r  c #422922",
"t  c #48352D",
"y  c #56362A",
"u  c #4A3B35",
"i  c #5B3D37",
"p  c #623523",
"a  c #3F4039",
"s  c #50463D",
"d  c #544235",
"f  c #754829",
"g  c #7C5335",
"h  c #6A4639",
"j  c #332F40",
"k  c #3B3944",
"l  c #333F5A",
"z  c #413E53",
"x  c #3E4143",
"c  c #434344",
"v  c #4E4442",
"b  c #464A49",
"n  c #4A4B4D",
"m  c #4A4947",
"M  c #534945",
"N  c #544946",
"B  c #57534E",
"V  c #4D4E51",
"C  c #47485E",
"Z  c #554952",
"A  c #4E5153",
"S  c #4C5359",
"D  c #525355",
"F  c #555659",
"G  c #56595A",
"H  c #5A5B5D",
"J  c #5B5C53",
"K  c #674D43",
"L  c #6A574B",
"P  c #735C4C",
"I  c #785748",
"U  c #655A56",
"Y  c #714E44",
"T  c #5D605B",
"R  c #6A6A5C",
"E  c #686556",
"W  c #7C6658",
"Q  c #7D765C",
"!  c #5D5E61",
"~  c #535875",
"^  c #4A506D",
"/  c #6A5F6B",
"(  c #5E6062",
")  c #626365",
"_  c #646669",
"`  c #66696B",
"'  c #6A6B6D",
"]  c #6C6D63",
"[  c #756D66",
"{  c #7C736B",
"}  c #777567",
"|  c #6C6E71",
" . c #656677",
".. c #6E7173",
"X. c #727375",
"o. c #7A7476",
"O. c #757679",
"+. c #77797B",
"@. c #7A7B7D",
"#. c #77777A",
"$. c #737172",
"%. c #825237",
"&. c #845025",
"*. c #845844",
"=. c #946B4E",
"-. c #966442",
";. c #876858",
":. c #9A7656",
">. c #8C654A",
",. c #A37957",
"<. c #A16C4E",
"1. c #867A68",
"2. c #967D62",
"3. c #857C79",
"4. c #AF7E66",
"5. c #7E827A",
"6. c #AF8056",
"7. c #B38259",
"8. c #938C6F",
"9. c #898674",
"0. c #8A817C",
"q. c #9A8C79",
"w. c #959178",
"e. c #88876B",
"r. c #B69475",
"t. c #C49570",
"y. c #5C6889",
"u. c #6B6C84",
"i. c #636A8A",
"p. c #666A85",
"a. c #687288",
"s. c #7D7E81",
"d. c #727686",
"f. c #6B789E",
"g. c #6F7EA2",
"h. c #757CA0",
"j. c #807F84",
"k. c #7E8183",
"l. c #7B809A",
"z. c #7C87AD",
"x. c #828385",
"c. c #848689",
"v. c #86888B",
"b. c #898A8D",
"n. c #8D8483",
"m. c #928D8B",
"M. c #9B8E85",
"N. c #96958B",
"B. c #989782",
"V. c #8C8D91",
"C. c #8A8997",
"Z. c #8E9193",
"A. c #929396",
"S. c #959699",
"D. c #97999C",
"F. c #9A9B9D",
"G. c #989595",
"H. c #A08E83",
"J. c #BD9F82",
"K. c #A19E94",
"L. c #A8A28C",
"P. c #AEA793",
"I. c #BBB89C",
"U. c #B1AA83",
"Y. c #9D9EA1",
"T. c #A29EAA",
"R. c #9FA1A4",
"E. c #9EA5AC",
"W. c #9BA0B2",
"Q. c #A1A2A6",
"!. c #A2A3A5",
"~. c #A5A6AA",
"^. c #A5A6A9",
"/. c #A7A9AC",
"(. c #A9AAAE",
"). c #AAABAD",
"_. c #A9A7A6",
"`. c #ADAEB2",
"'. c #ACAEB1",
"]. c #A1A3B7",
"[. c #AEB1B4",
"{. c #B1B2B6",
"}. c #B2B2B5",
"|. c #B5B6B9",
" X c #BBB4BA",
".X c #B8BABD",
"XX c #B7B9BA",
"oX c #B6ACA9",
"OX c #C59F85",
"+X c #D1AF93",
"@X c #C3BAA7",
"#X c #C5C1AC",
"$X c #C3C3B7",
"%X c #D8CCB1",
"&X c #DDD4BB",
"*X c #DFD7B7",
"=X c #E7DAB4",
"-X c #E6E3BF",
";X c #989EC2",
":X c #9AA4CA",
">X c #A4ABC8",
",X c #A3AAD5",
"<X c #C1C4C4",
"1X c #CEC6CA",
"2X c #D2CFCE",
"3X c #D9D9D8",
"4X c #C8D0C9",
"5X c #F0DFC3",
"6X c #E0DDC6",
"7X c #ECE6C6",
"8X c #F6EAC6",
"9X c #F5F4D7",
"0X c #FCF7D2",
"qX c #F6EED5",
"wX c #DDE2E2",
"eX c #E8E8EA",
"rX c #F1F5F1",
/* pixels */
"s.@.@.O.k.+.+.@.+.+.+.@.+.@.O.s.s.O.A V D n V X.@.s.Q.~.Q.Q./.Z.X.s.G n D D b _ k.X.#.s.s.X.x.+.x.s.H V V @.@.X.k.O.@.@.#.D c   ",
"x.x.c.x.c.x.x.v.v.x.@.x.k.x.v.x.k.x.! H F F D X.k.b./.'.'./.(.D.b.b.) F H F D | c.x.c.x.c.s.s.c.x.c.( A F s.v.b.x.v.c.c.x.) F   ",
"k.c.x.c.x.x.c..._ O.x.b.c.x.v.X.' | F H ) @.| A.Y.D.A.V.S.A.Y.O.' | H F ) X.X.s.x.x.x.@.b.Y.Y.Z.s.V.@.X.O.k.x.s.) ' ` ' ' X.X.  ",
"k.c.s.v.x.c.v.! c ( s.x.c.x.c.G F ! F H | V.s.Q.`.(.c.@.x.s.c.` D D H F ) c.x.x.s.c.c.s.b.~.}.Y.s.v.x.c.b.c.x.@.F D F D D s.x.  ",
"c.b.@.c.x.x.x.' F | x.x.c.x.c.) F F H D ) c.x.R.[.'.c.s.v.x.c.` H F ( G ! c.s.x.s.s.s.k.V.R.}.D.x.x.c.s.s.x.c.s.F A ) G H @.@.  ",
"x.@.H ) ! ! ! +.s.x.x.x.c.s.v.) F ! x.x.s.c.k.s.c.c.! H ) ! H X.c.s.s.s.c./.~.Q.(.(.~.~.Q.b.c.V.x.x.b.x.s.c.c.s.F G O.#.x.c.x.  ",
"v.+.F F G G G s.V.x.@.s.c.s.b.! V G k.b.c.c.x.s.x.s.H F F F V ' b.x.k.x.V.'.'.'.}.(.(.'.~.x.@.v.c.s.c.x.c.c.c.X.F F X.x.c.x.x.  ",
"s.X.G ! ! ! ! s.c.s.b.V.c.@.@.' ) ' @.x.@.k.c.c.c.x.! F G _ ( @.b.v.x.s.b.(.Q.~.~.Q.'.(.Q.c.c.x.x.k.c.x.c.@.s.X._ G #.b.x.c.x.  ",
"D ! ! G O.V.c.x.@.V.'.|.x.D D s.c.x.c.v.s.x.c.s.c.c.) V | v.n.P ;.W 0.x.k.k.X.S.[.(./.~.Q.c.x.c.x.c.c.c.s.G A ( v.b.c.x.s.c.s.  ",
"D ! F D | c.k.x.@.b.'.|.x.D D #.x.x.x.x.k.x.c.v.c.x.) V o.L *.f t.6.g L @.x.s.S.}.~.'.}.'.s.s.x.c.s.@.c.k.F D _ x.c.x.x.x.v.b.  ",
"| X.X.| s.v.v.A.A.A.S.D.c._ ) x.c.v.c.x.x.x.c.+.' X.....L J.,.-.&.6.7.=.[ A.A.D.Y.A.S.D.D.k.c.c.b.c.s.c.c.| ..X.x.x.c.c.x.X.|   ",
"c.V.V.v.x.s.x.'.|.Q.s.O.c.c.b.c.@.x.x.x.x.@.x._ n ! c.3.2.:.r.<.>.f g :.2.!..XA.s.s.@.@.s.c.x.c.c.c.c.s.c.c.c.v.c.s.x.x.x.( D   ",
"s.s.x.x.c.x.c.R.(.Y.c.s.x.s.x.x.@.c.c.k.c.s.O.F G ) v.o.d r.,.+XOX=.t.:.;.m.'.D.s.c.x.x.c.v.c.k.x.k.k.s.c.v.k.k.k.v.v.c.x.) D   ",
"b.b.s.x.S.Y.Y.'.'.Y.x.c.x.x.b.x.x.b.x.@.Z.Q.S.F c.k.G.U r.P =.4.g -.%.r.P m.b.V.k.k.x.x.x._ ) | v.k.k.c.c.k.c.c.k.v.X.( ` X.@.  ",
"s.x.@.k.Y.}.}.'.'.R.@.x.x.x.x.s.@.x.k.@.S.|.|.c.) ..X.3.t i p *.%.<.%.y P U @.s.s.x.c.c.x.F V ( c.k.x.c.k.k.c.c.s.v.| A D @.v.  ",
"c.V.v.c.A.Q.~.Q.Q.R.k.v.s.x.x.V.x.x.b.c.Z.^.^.A.( 5.J 1.1.K i y ;.;.K K 5 q c.c.s.c.s.s.s._ ! ..v.k.c.k.k.v.c.b.@.v...G G k.v.  ",
"(.~.(.'.S.s.c.s.v.c.@.c.x.x.s.R.~.'.~.(.S.@.x.X.+.E 7X&X1.- U c o.Z k 1 N K.v.c.k.c._ D ! k.k.v.c.k.k.k.c./.^.R.k.c.X.F G x.v.  ",
"'.(.(.(.D.s.x.x.c.k.x.@.x.c.s.^.~.[.(.}.Y.s.@.H ` 6 %X8X=XE 3 8 8 7 e 3 E I.L.x.c.c._ A ! k.c.v.k.k.k.k.s.Q.|.).x.c.| D F #.@.  ",
"(.(.~.(.S.s.x.x.x.k.c.s.c.c.s.~.^.).S.Y.A.s.x.@.b.N.Q %X8X&X6 b ) x ` J 8.0X7XP.+.O.' _ ..k.k.k.k.k.V.S.Z.A.Y.V.' X.X._ ' b.A.  ",
"~.(.(.'.A.s.c.c.v.c.x.b.k.k.s.R.^.~.@.@.x.@.x.O.B #X9X1.&X@X2 R 5.] _.B.1.0X7X&X[ D.O.c.v.c.c.c.c.s.R.[.[.c.c.#.A D X.x.c.^.}.  ",
"(.(.~.'.S.k.c.x.s.x.x.c.s.x.s.).}.}.c.x.c.c.b.+.a I.9X6X} 5 { 9.E m v.c #X-X0X#X{ eXV.v.k.s.k.c.k.+.Y.(./.+.c.@.G n ..s.s.!.(.  ",
"'.~.V.A.b.x.x.| ) | c.s.V.Q.D.V.b.b.) _ ) ) _ $.9.e.B.#XR M 6 oXw.2 k.S J I.U.8.1.2XS.x.k.c.c.Z.R.Y.R.'./.c.v.c.@.X.c.x.s.~.).  ",
"'.Y.@.k.x.x.x.! V ( c.s.D.|.'.v.s.@.F G D D G ` ] B.B.} X ; 5 M.8.9.A 7 . R w.L.R 4XS.x.k.c.+.Z.[.[.R.[./.v.+.@.x.c.b.s.k.R.'.  ",
"'.Q.s.c.c.x.x._ D _ s.c.A.'./.b.x.x.G H G G H ' F 8 k 3 @ ; O O w.K.+.% X . k 7 Z.rXS.c.k.c.+.S./.~./.{.Q.c.k.b.x.c.c.x.b.F.).  ",
"x.b.s.c...D H k.v.s.x.x.x.c.x.v.x.s.F H H H H X.C.u.k /.D ; T R 6 2 . : 6 # z p.d.<XR.k.V.Q./.'.(./.R.(./.k.c.c.x.@.D.[.~.(.(.  ",
"@.x.k.c.` n ! @.v.x.x.s.s.c.v.x.c.v.F D D F D X. .W. .S.n % 3 w 9 1 s L.%X} 8 A.! $XR.+.k.~././.[.'.[./.[.c.k.c.c.x.D.).~.'.}.  ",
"x.v.x.v...D ) s.v.x.x.x.x.c.x.s.k.x.G H ! ' _ ` 0 +.9 % # j u.l l C / H.7X*X} 3 4  X~.V.V./.(.~.R.Y.Q.D.R.c.k.k.X.#.S.'.).~.R.  ",
"x.v.x.x.| D H s.c.s.x.x.x.x.k.v.c.x.D G ' v.x.x.b ..q . , C i.y.y.^  .Z P.8X=XQ t 1X.X'./.[.|.F.k.s.k.s.s.k.k.s.V n c.|.^.c.O.  ",
"x.v.b.x.' F H +.x.s.x.k.x.x.x.x.x.k.D n _ c.s.O.0 w N c , ~ ^ i.a.i.~  .# L.8X=X1.^.|.'.[.(.[.Y.s.k.k.c.k.v.v.k.D n b.|.).c.@.  ",
"` ' ' ` ' ' ..x.x.@.x.x.c.x.c.X.' X.X.X.O.c.s.S.) H v m.7 y.y.f.z.h.a.u., M.q.+Xq.D.D.v.Z.Z.S.Z.k.v.c.x.k..._ | c.c.b.b.A.b.x.  ",
"D D D D O.b.c.v.c.k.x.x.v.x.x.H n H c.v.x.x.s.F.X.M { N _ p.g.:X,X:Xl.u. .v 1.;.u c.c.+.s.s.k.k.k.c.c.s.k.! V ...X|.D.X.x.x.@.  ",
"G H H F X.x.@.x.x.x.x.x.x.k.v.) F ( c.x.x.c.x.b.'.G.m.B `. .a.>X;X>Xd. .E.c oXqX_.b.s.v.b.k.k.c.s.c.c.c.k.H D ' '.!.F.k.c.k.s.  ",
"F _ k.+.x.x.x.x.c.v.s.c.D.Y.^.x.@.@.x.x.c.s.c.O.) <XrX= o. XT.C.].v.D.XXX.k wX2X@.x._ H ! ) H ) ! ! ) ) ! +.#.x.v.x.b.x.s.) (   ",
"D _ c.c.c.x.x.x.s.x.s.O.A.}.[.b.x.x.c.c.c.x.b.) n ) eX_ 4 v v 3.#.n.t M : ) wXY.x.c.) V D G F ! D D F D D b.v.c.s.c.v.v.v.H A   ",
") X.x.c.x.s.x.c.k.c.A.c.A.(.F.c.x.c.x.x.s.s.c.` A ) R.eXU L L > o - h ;.N _.<XV.X.@.| _ ) H G ) H G ) _ H c.@.v.@.c.@.X.O.` _   ",
"x.c.x.x.c.x.c.k.s.v.~.(.A.c.x.s.s.x.s.x.k.k.c.X.F _ c.3XB L W s o r Y Y 5 m.c.X.D ! X.c.s.( H ! ( H X.b.s.c.@.c.x.x.| F H @.x.  ",
"c.c.s.s.x.@.@.x.s.v.~.|.S.O.x.x.x.c.@.c.c.x.c.' n G s.m.2 u t * . O r t 5 @.v.| V D ..v.c.H F F F V ' c.c.@.x.x.x.x...F F s.c.  ",
"x.c.c.c.c.s.x.D.A.F.).(.S.s.v.x.c.c.s.c.s.| ' O.' O.c.) 6 2 6 3 # * = u ) | V.s.| ..@.x.x.G F ' ....x.k.c.s.v.c.@.v.| F ( @.c.  ",
"x.k.c.s.x.@.x.(.).(.'.).S.x.x.x.x.k.x.x.X.D D O.c.c.x.D +.T ` k.$ c 4 3 F X.+.c.c.c.c.c.x.G F | c.c.b.x.c.k.c.c.k.v.| D ! @.v.  ",
"x.x.x.@.c.s.s.~.).!.).'.S.c.x.c.x.@.c.c.| V D X.c.x.x.v.H w 9 c o e Z.T | c.x.s.k.x.x.x.x.D D ` Z.k.@.x.x.k.c.k.c.c.O.D F @.k.  ",
"k.v.(.F.Q.Y.Y.(.(.Q.b.V.b.x.x.x.x.c.c.k.k.x.@.x.x.@.c.x.b @ & < + 3 3 $ 1 @.c.Z.'.Q.X.F _ @.@.O.x.x.x.k.c.x.x.@.) H ..@.@.x.x.  ",
"x.V.}.(.'.).'.(.).!.k.s.c.x.s.x.x.x.s.x.k.@.x.k.k.k.c.@._ $ @ . . 4 @ 1 , #.@.A.'.}.| D H x.c.k.x.c.x.s.s.s.k.@.V V O.b.c.x.c.  ",
"x.b.~.).^.!.^.Q.^.Y.x.x.v.c.x.c.x.v.x.x.v.c.v.b.x.c.x.' b @ . . . . o @ D _ c.Y.Q.(.| ! ) s.k.b.x.c.x.c.s.v.v.s.F H O.k.c.c.c.  ",
"~.(.'.).A.k.x.x.x.x.s.x.x.k.x.x.s.c.x.s.S.'.^.b.s.v.k.' $ 1 @ . . . . @ w D /.S.x.c.+.s.c.v.x.c.@.s.x.c.x.).).Q.x.x.c.@.c.v.x.  ",
"~.'.(.'.A.s.x.x.k.x.x.x.x.x.v.x.c.@.@.#.b.}.'.A.k.v.s.q c ) @ o % X X % F F '.Y.s.k.c.x.c.s.@.x.x.x.k.s.@.(.'.Q.k.k.v.k.x.x.k.  ",
"(.).D.Y.V.x.x.c.x.x.x.k.c.k.x.c.S.b.V.S.A.D.Q.x.| #.k.@._ ) ) ) O.) . 1 c w V.S.s.c.x.k.c.A.A.b.A.V.A.S.A.F.D.D.x.k.b.x.k.b.Z.  ",
"~.Y.s.x.x.@.k.k.x.x.x.x.b.c.x.~.|.}.'.}.D.@.x.) V ! s.c.O.F n X.c.x.F.D.A.Q.'.D.k.c.k.x.b.).(.|.}.).'.'.(.x.@.@.@.@.x.@.c.).}.  ",
").Q.k.x.v.x.c.v.c.k.k.@.x.s.@.Q.~.).^.).!.k.c.' D H x.b.@.H D ' v.x.Y.}.(.'.'.Y.k.x.k.s.c.).~.).~.^.(.(.|.s.b.x.v.x.v.@.@.!.).  ",
"A.A.x.v.O.! ' s.c.c.F.Q.D.!.F.S.v.b.F.V.x.) _ _ H H | ) ` @.X.V.Q.S.A.V.A.V.V.V.x.s.j.x.c.~.'.Q.b.S.Z.b.b.v.c.c.c.s.A.Q.Y.A.v.  ",
"s.c.c.c._ n G @.x.V.).}.(.}.}.c.@.@.x.s.X.D F F G G F V _ b.x.Y..X'.c.#.s.c.s.s.x.s.c.@.x.}.'.D.+.+.+.s.x.+.@.c.x.@.F.}.).b.O.  ",
"@.x.x.@.' F ! s.@.v.).).^.R.~.c.x.v.c.c.O.D F H ! ! G H ` x.+.S.~./.b.c.c.c.k.c.b.k.c.x.b.~.~.S.c.b.v.x.c.@.b.x.x.x.F.).~.V.k.  ",
"! ! H G O.@.k.b.x.b.).(.F.c.b.x.s.v.s.x.X.D G | s.v.x.s.@.c.x.c.c.c.k.s.c.x.c.s.x.x.D.'.Q.x.c.s.x.x.x.@.c.x.x.b.~.!.S.x.c.s.@.  ",
"H G F n O.c.c.x.+.b.~.).D.+.s.b.x.v.x.b.O.G D +.c.c.x.x.b.c.@.c.c.v.c.s.v.x.c.c.k.k.Y..X'.k.c.x.b.k.x.k.x.v.x.b.}.}.D.@.c.c.b.  ",
"F ! X._ O.x.x.V.b.D.(.[.S.@.v.O.' O.X.O.' _ ) @.c.x.x.@.x.x.b.X.| @.c.c.c.x.s.c.k.x.S.R.D.v.k.x.@...x.x.@.c.x.b.Y.D.A.x.v.#.O.  ",
"G ` b.x.k.x.x.^./.)./.[.Z.+.x.( D H G D ) k.v.c.k.k.x.x.k.s.v.` D G s.c.c.x.c.v.k.k.k.s.k.c.c.X.D A ..v.x.k.k.s.k.#.k.@.k.! G   ",
"A ) c.x.c.c.k.!./.).^..XD.x.b.( G G G A ) c.k.k.k.b.x.c.x.v.v.` D V x.k.c.@.k.x.+.V.x.v.V.k.v.X.n G X.v.x.k.v.x.c.k.b.c.x.H A   ",
"..+.x.v.v.s.x.!.[.R.Z.A.@.` ' H H ( #...@.x.x.c.k.x.` ` ' ' ) | #.X.s.x.v.F.D.A.k.x..._ ) ..` ` @.' @.v.k.+.v.x.x.#.k.) ' ..X.  ",
"v.c.k.s.v.x.k.^.).F.k.x.` G G H D H v.v.x.k.c.x.k.s.G D D G A ..c.Z.k.k.v.[.|.F.@.k.( D G D D ` b.v.c.x.k.s.x.x.x.k...A ( @.v.  ",
"k.s.v.k.c.c.x.Q.^.!.s.x...H F G G ! s.x.x.x.x.c.v.x.) G G H V X.x.c.@.s.A.(.}.S.k.v.` G H D A _ x.c.s.s.c.c.x.v.s.v...D G @.k.  ",
"c.s.b.x.S.).).Z.k.x.x.b.' D ( @.c.x.x.s.c.c.x.@.x.k.H D ' x.x.s.k.@.!.(.D.) ! ( ( ( F D ! x.c.x.c.x.k.x.c.x.x.#.D ) H F H x.c.  ",
"c.x.v.s.F.}.~.x.x.v.c.c.O.D V +.x.c.x.k.x.x.c.@.c.x.) V ) x.x.x.c.x.(.}.R.D F D H D G F G x.x.c.k.x.k.x.x.s.c.@.A D F G F @.k.  ",
"s.@.v.s.D.~.~.b.x.@.@.O.| H ( k.x.c.x.x.x.@.@.c.@.#.' G ' b.c.c.k.c.A.(.A.D G ! H D H ( _ s.x.x.k.c.x.x.v.+.@.#._ ! H H ) x.v.  ",
"D ! x.@.x.@.x.c.v.X.F F X.c.v.x.s.x.s.x.c.x.c._ V ! @.s.A.}.~.~.|.|.F b G H H H F ! +.c.c.c.c.c.c.c.s.@.x.H D ) x.c.V.c.x.x.s.  ",
"D ) c.x.c.+.x.x.x.X.F D _ x.x.c.@.s.s.@.@.@.c.' n H x.@.c.~.^.).Q.}.) D F F D F D F O.c.s.s.@.@.s.x.x.s.c.G D H b.@.x.@.x.@.@.  "
};
