/* XPM */
static char *_d35745fa67b49ceee85404ba5969450GS9ImQQSKj1mesmS[] = {
/* columns rows colors chars-per-pixel */
"64 64 212 2 ",
"   c None",
".  c #020202",
"X  c #0B0202",
"o  c #04040A",
"O  c #0B0A0C",
"+  c gray3",
"@  c #130806",
"#  c #1D0F11",
"$  c #141314",
"%  c #1D1D1C",
"&  c #161718",
"*  c #060916",
"=  c #361F0F",
"-  c #271C18",
";  c #23110C",
":  c #1F201D",
">  c #24221B",
",  c #38261C",
"<  c #171925",
"1  c #0F1821",
"2  c #201F20",
"3  c #1E252A",
"4  c #2B2A2B",
"5  c #272626",
"6  c #322424",
"7  c #362927",
"8  c #2E312F",
"9  c #37342F",
"0  c #3D372B",
"q  c #2A2D34",
"w  c #2B2C39",
"e  c #2C313B",
"r  c #333434",
"t  c #3B3B3D",
"y  c #37353A",
"u  c #4B2C1A",
"i  c #763E10",
"p  c #422F25",
"a  c #4B3223",
"s  c #573A29",
"d  c #4A3C3A",
"f  c #503E32",
"g  c #5F442F",
"h  c #5C453B",
"j  c #554D34",
"k  c #634735",
"l  c #6A583F",
"z  c #7D5638",
"x  c #2F3344",
"c  c #363441",
"v  c #383849",
"b  c #393B55",
"n  c #364150",
"m  c #424346",
"M  c #4A4B4D",
"N  c #47474A",
"B  c #554C45",
"V  c #4E544F",
"C  c #555248",
"Z  c #4D4E51",
"A  c #4A4A56",
"S  c #514D50",
"D  c #4E5152",
"F  c #525355",
"G  c #555659",
"H  c #56595A",
"J  c #5A5B5D",
"K  c #5A5656",
"L  c #7C5C44",
"P  c #695A52",
"I  c #615D5A",
"U  c #685348",
"Y  c #6A6258",
"T  c #726859",
"R  c #7A624B",
"E  c #5D5E61",
"W  c #5C5E72",
"Q  c #605B6F",
"!  c #5E6063",
"~  c #596069",
"^  c #5E6172",
"/  c #626365",
"(  c #676865",
")  c #656669",
"_  c #67696B",
"`  c #6A6B6E",
"'  c #6B6669",
"]  c #746C64",
"[  c #786A63",
"{  c #78776A",
"}  c #6D6E71",
"|  c #686F7C",
" . c #6E7172",
".. c #6D747B",
"X. c #727375",
"o. c #757679",
"O. c #77797B",
"+. c #7A7B7E",
"@. c #77787A",
"#. c #814C27",
"$. c #865D42",
"%. c #8A6A56",
"&. c #8B785D",
"*. c #946A4D",
"=. c #AB754F",
"-. c #867765",
";. c #857D75",
":. c #997B63",
">. c #7C8278",
",. c #84827B",
"<. c #8A887F",
"1. c #9D8374",
"2. c #AD8C72",
"3. c #BE9474",
"4. c #AA8568",
"5. c #C8946E",
"6. c #CFA07B",
"7. c #DEA57C",
"8. c #7D7E81",
"9. c #787B88",
"0. c #747A90",
"q. c #7E8183",
"w. c #7F8893",
"e. c #828385",
"r. c #8C8B85",
"t. c #848689",
"y. c #86888B",
"u. c #88898B",
"i. c #88898D",
"p. c #898A8E",
"a. c #898B8D",
"s. c #8A8687",
"d. c #928B86",
"f. c #969287",
"g. c #8B8C90",
"h. c #8D8E91",
"j. c #8D8E91",
"k. c #848A96",
"l. c #918F90",
"z. c #8F9094",
"x. c #8E9193",
"c. c #919296",
"v. c #929395",
"b. c #95969A",
"n. c #959699",
"m. c #97989B",
"M. c #999A9E",
"N. c #9A9B9D",
"B. c #9C9996",
"V. c #A08E81",
"C. c #A89B88",
"Z. c #B0A18E",
"A. c #AFA79F",
"S. c #B7A799",
"D. c #B7B09C",
"F. c #9D9EA2",
"G. c #9C9EA1",
"H. c #8B91A6",
"J. c #9FA0A4",
"K. c #9FA1A3",
"L. c #9BA4B4",
"P. c #A1A2A6",
"I. c #A2A3A5",
"U. c #A5A6AA",
"Y. c #A5A6A9",
"T. c #A7A9AC",
"R. c #A9AAAE",
"E. c #AAABAD",
"W. c #ACA6A2",
"Q. c #BAAFA0",
"!. c #B8B2AB",
"~. c #B9B1A5",
"^. c #ABACB0",
"/. c #ADAEB2",
"(. c #ADAEB1",
"). c #A7ACB7",
"_. c #AEB1B3",
"`. c #AAB1BA",
"'. c #B1B2B6",
"]. c #B2B3B5",
"[. c #B5B6B9",
"{. c #B6B8BB",
"}. c #BABBBC",
"|. c #BAB7B6",
" X c #C1A190",
".X c #C7BC95",
"XX c #D0A689",
"oX c #E0B59A",
"OX c #C5BCB3",
"+X c #CBB9A4",
"@X c #BEC0BD",
"#X c #D8C9B6",
"$X c #D7CAAD",
"%X c #EDDEBE",
"&X c #E1D2B7",
"*X c #EEE0BA",
"=X c #B2B5C4",
"-X c #BCC0C1",
";X c #C4C5C5",
":X c #CCCCCD",
">X c #C7CBCF",
",X c #D2C9C2",
"<X c #C6C9D6",
"1X c #D7D9D6",
"2X c #E7D9C8",
"3X c #E1DEDC",
"4X c #E7E5DF",
"5X c #F1EACF",
"6X c #E1E1E3",
"7X c #EDEAE3",
"8X c #E9EBEA",
"9X c #F2F1EB",
/* pixels */
"8.+.+.o.q.O.O.+.O.O.O.+.O.+.@.+.8.o.D Z F M Z X.+.8.P.U.P.P.T.z.X.8.H M F F N ) q.X.O.8.8.X.e.O.e.8.J Z Z +.+.X.q.o.+.+.@.F m   ",
"e.e.t.e.t.e.e.u.y.e.+.e.q.e.y.e.q.e.E J G G F X.q.p.T.^.^.T.R.m.p.p./ G J G F } t.e.t.e.t.8.8.t.e.t.! D G 8.i.a.e.u.t.t.e./ G   ",
"q.t.e.t.e.e.t. ._ o.e.p.t.e.y.X.` } G J / +.} c.F.M.c.h.b.c.G.o.` } J G / X.X.8.e.e.e.+.p.F.F.z.8.h.+.X.o.q.e.8./ ` _ ` ` X.X.  ",
"q.t.8.u.e.t.y.E m ! 8.e.t.e.t.H G E G J } h.8.P./.R.t.+.e.8.t._ F F J G / t.e.e.8.t.t.8.p.U.'.F.8.i.e.t.p.t.e.+.G F G F F 8.e.  ",
"t.p.+.t.e.e.e.` G } e.e.t.e.t./ G G J F / t.e.J._.^.t.8.i.e.t._ J G ! H E t.8.e.8.8.8.q.g.J.'.M.e.e.t.8.8.e.t.8.G D / H J +.+.  ",
"e.+.J / E E E O.8.e.e.e.t.8.u./ G E e.e.8.t.q.8.t.t.E J / E J X.t.8.8.8.t.T.U.U.R.R.U.U.P.p.t.g.e.e.p.e.8.t.t.8.G H o.@.e.t.e.  ",
"i.O.G G H H H 8.g.e.+.8.t.8.p.E Z H q.p.t.t.e.8.e.8.J G G G Z ` p.e.q.e.h.^.^.^.'.R.R.^.U.e.+.i.t.8.t.e.t.t.t.X.G G X.e.t.e.e.  ",
"8.X.H E E E E 8.t.8.p.g.t.+.+.` / ` +.e.+.q.t.t.t.e.E G H ) ! o.i.e.e.8.p.R.P.U.U.P.^.R.P.t.t.e.e.q.t.e.t.+.8.X.) H @.p.e.t.e.  ",
"F E E H o.g.t.e.+.h.^.[.e.F F 8.t.e.t.y.8.e.t.8.t.t./ Z } p.t.8.q.t.8.e.q.q.X.b._.R.T.U.P.t.e.t.e.t.t.t.8.H D ! y.p.t.e.8.t.8.  ",
"F E G F } t.q.e.+.p.^.[.e.F F @.e.e.e.e.q.e.t.y.t.e./ Z ` e.e.t.t.t.p.e.e.e.8.b.'.U.^.'.^.8.8.e.t.8.+.t.q.G F ) e.t.e.e.e.y.p.  ",
"} X.X.} 8.y.y.c.n.n.b.m.t.) / e.t.y.t.e.e.e.t.O.` X. .` o.e.e.e.8.8.e.8.t.c.c.m.F.c.b.M.G.q.t.t.p.t.8.t.t.}  .X.e.e.t.t.e.X.}   ",
"t.g.h.y.e.8.e.^.[.P.8.O.t.t.p.t.+.e.e.e.e.+.e./ M E 8.t.t.e.e.t.e.p.8.e.z.'.{.c.+.8.+.+.8.t.e.t.t.t.t.8.t.t.t.y.t.8.e.e.e.! F   ",
"8.8.e.e.t.e.t.J.R.F.t.8.e.8.e.e.+.t.t.q.t.e.e.` D ! q.i.t.e.e.q.8.t.e.q.p.U.^.M.8.t.e.e.e.i.e.q.e.q.q.8.t.i.q.q.q.y.i.t.q./ F   ",
"p.i.8.e.b.F.F.^.^.F.e.t.e.e.p.e.e.p.e.+.x.P.K.y.X.+.e.8.e.t.e.t.e.e.J.F.F.p.p.h.q.q.e.e.e.) / } y.q.q.t.t.q.q.t.q.y.X.! _ X.+.  ",
"8.e.+.q.F._.'.^.^.K.+.e.e.e.e.8.+.e.q.+.n.[.[.c.t.u.u.q.e.t.q.e.e.8.^._.^.q.+.8.8.e.t.t.q.F Z ! t.q.e.t.q.q.t.t.8.y.} D F +.y.  ",
"t.g.i.t.v.P.U.P.P.K.q.u.8.e.e.h.e.e.a.t.x.T.P.h.+.e.y.e.t.e.8.q.t.e.P.U.J.e.t.t.8.t.8.8.+.) E  .y.q.t.q.q.i.t.p.+.y. .H G q.y.  ",
"R.U.R.^.b.8.t.8.i.t.+.t.e.e.8.K.U.^.U.R.b.+.e.t.t.8.e.t.o.H H X.t.8.t.t.e.l.Y P P B._ F E q.q.i.t.q.q.q.t.T.T.K.q.t.X.G H e.y.  ",
"^.R.R.R.m.8.e.e.t.q.e.+.e.t.8.Y.U._.R.'.F.8.e.t.p.e.t.h.+.F M ` e.8.+.p.d.R 2.2.%.g [ r.! e.t.i.q.q.q.q.8.U.{.T.e.t.} F G @.+.  ",
"R.R.U.R.b.8.e.e.e.q.t.8.t.t.8.U.T.E.b.F.c.8.e.o.` X.o.X.X.X./ 8.M.N.}.OXk z z #.6.3.L T |.t.8.e.q.q.g.n.z.v.G.h.` X.X.) ` p.n.  ",
"U.R.R.^.v.8.t.t.i.t.e.p.q.q.8.K.T.U.+.+.e.+.e.` Z H H M / p.8.N.;X].4XV.%.*.=.#.i i 4.-.,X|.t.t.t.8.J._._.t.t.@.D F X.e.t.T.'.  ",
"R.R.U.^.n.q.t.e.8.e.e.t.8.e.8.E.'.'.e.e.t.t.p. .J H G F / e.8.:X1X9X7Xa L XX=.7.=.5.$.l C.,.p.t.q.O.G.R.T.O.t.+.H M  .8.8.I.R.  ",
"^.U.g.c.p.e.e.} / } t.8.h.P.M.h.p.a./ ) / / ) J Z E X.X.q.P.E.1Xa.N.7X=  X%.oX*.3.$. X1.A.;Xt.x.J.G.K.^.T.t.y.t.+.X.t.e.8.U.E.  ",
"^.F.+.q.e.e.e.E Z ! t.8.m.[.^.u.8.+.G H F F H J F _ u.8.a.].^.1X( v.;.[ h h C.a :.s u a ,X}.O.z._._.J._.T.i.O.+.e.t.a.8.q.K.^.  ",
"^.P.8.t.t.e.e.) F ) 8.t.c.^.T.a.e.e.H J H H J J J E q.t.h.U.'.4X1XK ,.0 ; 7 6 4 7 7 [ , |.7XI.n.T.U.T.'.U.t.q.p.e.t.t.e.p.N.E.  ",
"e.p.8.t. .F J q.u.8.e.e.e.t.e.y.e.8.G J J J J X.u.e.E.E.E.R.;X7X>.{ f.2XC.X J W Q c % $ $ V 1X-XR.T.J.R.T.q.t.t.e.+.N._.U.R.R.  ",
"+.e.q.t._ M E +.u.e.e.8.8.t.y.e.t.y.G F F G F O.u.q.P.U.E.R.:XM.+.% d.2X2XC.> e x v A 5 > 9 r.+._.^._.T._.t.q.t.t.e.M.E.U.^.].  ",
"e.u.e.y. .F / 8.u.e.e.e.e.t.e.8.q.e.H J E ` ) o.e.t.T.^.^.c.;X;XD X . -.5X2Xf.% w < q % Y !.~.,.T.G.U.m.J.t.q.q.X.@.n.^.E.U.K.  ",
"e.y.e.e.} F J 8.t.8.e.e.e.e.q.u.t.e.F H ` y.e.p.e.t.^.^.h.N N.1X<.D.2XC C.#X> . 5 e 3 ` v.W.OX!.E.8.q.8.8.q.q.8.Z M t.[.Y.t.o.  ",
"e.y.p.e.` G J O.e.8.e.q.e.e.e.e.e.q.F M ) t.8.e.X.8.E.{.N.G K.+.B &..XC.6 I K W.9 8 1 U.5 $ & s.J K.q.t.q.i.y.q.F M p.[.E.t.+.  ",
"_ ` ` _ ` `  .e.e.8.e.e.t.e.t.X.` X.X.X.o.t.8.b.F.b.e.+.+.` K.o.f.l j 0 ( r X ;.~.B . ..x k.k.8.H U.t.e.q...) } t.t.a.a.c.p.e.  ",
"F F F F o.p.t.y.t.q.e.e.y.e.e.J M J t.u.e.e.8.N.}.I.J m / t.N.p.s.,XA.. > . B.;.Q.{ 4 O A L.L.~ >Xm.t.8.q.J Z  .}.[.m.X.e.e.+.  ",
"H J J G X.e.+.e.e.e.e.e.e.q.y./ G ! t.e.e.t.e.p.'.Y._ G ) t.q.a.+.A < + + . E.r.J ] X @ S 9.| T.;Xt.e.e.q.J F ` ^.I.N.q.t.q.8.  ",
"G ) q.O.e.e.e.e.t.y.8.t.m.F.T.e.+.+.e.e.t.8.t.o./ ) O.o.e.t.+.N._.X.o o < < * 3 1 o h %.f d m q c.E / / E O.@.e.y.e.p.e.8./ !   ",
"F ) t.t.t.e.e.e.8.e.8.o.v.]._.p.e.e.t.t.t.e.p./ M J e.t.t.e.8.N.:X}.. w b b b n n c B 1.#XS.y v 8.F G F F p.y.t.8.t.u.y.u.J D   ",
"/ X.e.t.e.8.e.t.q.t.c.t.c.R.N.t.e.t.e.e.8.8.t._ D / t.e.e.e.+.N.'.].. y ^ 0.H.k.w.9.w Y &X%XC.s.+.H / ) J t.+.u.+.t.+.X.o._ )   ",
"e.t.e.e.t.e.t.q.8.u.U.R.v.t.e.8.8.e.8.e.q.q.t.X.G ) e.8.u.t.e.b.R.U.4 v.<X<X`.=X`.9.E 4 T %X%XC.] J X.a.8.t.+.t.e.e.} G J +.e.  ",
"t.t.8.8.e.+.+.e.8.u.U.[.b.o.e.e.e.t.+.t.t.e.t.` M H +.q.e.8.O.F._.T.+.` . . 4 t.h.8.e.u.. -.*X*XZ.M ` t.t.+.e.e.e.e. .G G 8.t.  ",
"e.t.t.t.t.8.e.m.c.N.E.R.b.8.u.e.t.t.8.t.8.} ` o.` o.t.e.a.b.n.c.v.h.8.- - X X o o . + N ' j *X.X+XH e.q.t.8.u.t.+.y.} G ! +.t.  ",
"e.q.t.8.e.+.e.R.E.R.^.E.n.e.e.e.e.q.e.e.X.F F o.t.t.e.+.c.'.'.h.8.X.@ f f @ X o X X . 2 ].!.Y $XD.o.a.e.t.q.t.t.q.y.} F E +.u.  ",
"e.e.e.+.t.8.8.U.E.I.E.^.b.t.e.t.e.+.t.t.} Z F X.t.e.e.+.x.^.^.v.+.o.p s s , X o # 6 . W.1X:X|.d./ X.+.e.e.q.t.q.t.t.o.F G +.q.  ",
"q.y.R.N.P.F.F.R.R.P.p.h.p.e.e.e.e.t.t.q.q.e.+.e.e.+.t.q.e.p.t.8.e.@.P &.k , X o 6 d . 7Xn.8.u.8.e.e.e.q.t.e.e.+./ J  .+.+.e.e.  ",
"e.h.].R.^.E.^.R.E.P.q.8.t.e.8.e.e.e.8.e.q.+.e.q.q.q.t.e.e.t.8.t.e.o.P U p - X o - d . 3X+.e.t.q.e.t.e.8.8.8.q.+.Z Z o.p.t.e.t.  ",
"e.h.U.R.Y.P.T.P.T.F.e.e.y.t.e.t.e.y.e.e.y.t.u.p.e.t.e.e.e.t.e.e.+.O.9 I 5 & O X 7 d . 6Xe.8.q.p.e.t.e.t.8.p.u.8.G J o.q.t.t.t.  ",
"U.R.E.E.c.q.e.e.e.e.8.e.e.q.e.e.8.t.e.8.n.^.U.a.8.y.q.e.e.e.q.e.e.q.G q & F S 6 @ - . 8XN.u.e.t.+.8.e.t.e.E.E.P.e.e.t.+.t.y.e.  ",
"U.^.R.^.v.8.e.e.q.e.e.e.e.e.y.e.t.+.+.@.p.'.^.v.q.y.e.e.t.e.t.e.e.8.` & r 8 . . % y + 6XM.8.+.e.e.e.q.8.+.R.^.P.q.q.y.q.e.e.q.  ",
"R.E.N.N.h.e.e.t.e.e.e.q.t.q.e.t.b.p.h.b.c.M.P.e.} @.q.t.q.X.o.+.e.8.g.5 D . + . 4 / r 6X'.c.c.p.c.h.v.n.c.N.N.M.e.q.p.e.q.p.x.  ",
"U.F.8.e.e.+.q.q.e.e.e.e.p.t.e.U.[.].^.].N.+.e./ Z E 8.t.o.G M X.t.e.F.o.M . . . + . . H [.E.R.[.'.E.^.^.R.e.+.+.+.+.e.+.t.E.'.  ",
"E.P.q.e.u.e.t.u.t.q.q.+.e.8.+.P.U.E.Y.E.P.q.t.` F J e.p.+.J F ` y.e.F.'.e.. . . . . . J [.E.U.E.U.T.R.R.[.8.p.e.y.e.y.+.+.P.E.  ",
"c.c.e.u.o.E ` 8.t.t.N.P.N.P.N.n.u.p.N.h.e./ ) ) J J } / _ +.X.g.P.b.c.h.p.$ O + . + . J [.U.^.P.p.n.l.p.p.u.t.t.t.8.c.P.F.c.u.  ",
"8.t.t.t.) M H +.e.h.E.'.R.].'.t.+.+.e.8.X.F G G H H G Z ) p.e.F.{.^.t.O.8.t.O.t . . O / p.'.^.M.O.O.O.8.e.O.+.t.e.+.N.'.E.p.o.  ",
"8.e.e.+.` G E 8.+.u.E.R.Y.K.U.t.e.y.t.t.o.F G J E E H J _ e.O.b.U.T.p.t.t.t.8.) t 4 ) t.i.U.U.n.t.p.u.e.e.+.p.q.e.e.N.E.U.h.q.  ",
"E E J H o.+.q.p.e.p.E.R.N.t.p.e.8.y.8.e.X.F H } 8.u.e.8.+.t.e.t.t.t.q.8.t.e.t.8.e.e.m.^.P.e.t.8.e.e.e.+.t.e.e.p.U.I.n.e.t.8.+.  ",
"J H G M X.t.t.e.O.p.U.R.m.O.8.p.e.u.e.p.o.H F O.t.e.e.e.a.t.+.t.t.t.t.8.y.e.t.t.q.q.G.{.^.q.t.e.p.q.e.q.e.u.e.p.].].m.+.t.t.p.  ",
"G E X.) o.e.e.h.a.M.R.^.b.+.y.o.` o.X.o.` ) / +.t.e.e.+.e.e.p.X.} +.t.t.t.e.8.t.q.e.b.J.m.y.q.e.+. .e.e.+.e.e.p.F.M.c.e.y.@.o.  ",
"H _ a.e.q.e.e.T.T.E.T._.x.O.e.! F J H F / q.y.t.q.q.e.e.q.8.y._ F H 8.t.t.e.t.i.q.q.q.8.q.t.t.X.F D  .y.e.q.q.8.q.@.q.+.q.E H   ",
"D / t.t.t.t.q.I.T.E.T.}.m.e.a.! H H H D / t.q.q.q.a.e.t.e.y.y._ F Z e.q.t.+.q.e.O.g.e.i.g.q.i.X.M H X.y.e.q.y.e.t.q.a.t.e.J D   ",
" .O.e.y.y.+.e.I._.K.x.v.+._ ` J J ! @. .+.e.e.t.q.e._ _ ` ` / } @.X.8.e.y.N.m.v.q.e. .) /  ._ _ +.` +.y.q.O.y.e.e.@.q./ `  .X.  ",
"y.t.q.8.y.e.q.T.E.N.q.e._ H H J F J y.y.e.q.t.e.q.8.H F F H D  .t.x.q.q.y._.[.N.+.q.! F H F F _ a.y.t.e.q.8.e.e.e.q. .D ! +.y.  ",
"q.8.y.q.t.t.e.P.T.P.8.e. .J G H H E 8.e.e.e.e.t.y.e./ H H J Z X.e.t.+.8.c.R.'.b.q.u._ H J F D ) e.t.8.8.t.t.e.y.8.u. .F H +.q.  ",
"t.8.p.e.n.E.E.x.q.e.e.p.` F ! +.t.e.e.8.t.t.e.+.e.q.J F ` e.e.8.q.+.I.R.M./ E ! ! ! G F E e.t.e.t.e.q.e.t.e.e.@.F / J G J e.t.  ",
"t.e.u.8.N.].U.e.e.y.t.t.o.F Z +.e.t.e.q.e.e.t.+.t.e./ Z / e.e.e.t.e.R.'.K.F G F J F H G H e.e.t.q.e.q.e.e.8.t.+.D F G H G +.q.  ",
"8.+.u.8.N.U.U.p.e.+.+.o.} J ! q.e.t.e.e.e.+.+.t.+.@.` H ` p.t.t.q.t.v.R.v.F H E J F J ! ) 8.e.e.q.t.e.e.u.O.+.@.) E J J / e.u.  ",
"F E e.+.e.+.e.t.u.X.G G X.t.u.e.8.e.8.e.t.e.t.) Z E +.8.c.].U.U.[.[.G N H J J J G E O.t.t.t.t.t.t.t.8.+.e.J F / e.t.h.t.e.e.8.  ",
"F / t.e.t.O.e.e.e.X.G F ) e.e.t.+.8.8.+.+.+.t.` M J e.+.t.U.Y.E.P.]./ F G G F G F G o.t.8.8.+.+.8.e.e.8.t.H F J p.+.e.+.e.+.+.  "
};
