/* XPM */
static char *_270b9805e0e44a4e3b121731c779f86vZWQxSxqWpVC3nue[] = {
/* columns rows colors chars-per-pixel */
"64 64 212 2 ",
"   c #030303",
".  c #090503",
"X  c #0C0905",
"o  c #04040B",
"O  c #080709",
"+  c #150804",
"@  c #14150D",
"#  c #080B12",
"$  c #120E1B",
"%  c #141413",
"&  c #1C1513",
"*  c #14121B",
"=  c #17191A",
"-  c #200D08",
";  c #23170D",
":  c #221615",
">  c #2C1A13",
",  c #241F1D",
"<  c #311C10",
"1  c #27231C",
"2  c #37231B",
"3  c #3E271C",
"4  c #141127",
"5  c #191D22",
"6  c #1F1F30",
"7  c #242525",
"8  c #292420",
"9  c #2F2C27",
"0  c #24232C",
"q  c #2A282A",
"w  c #312521",
"e  c #332D26",
"r  c #3C2C24",
"t  c #332F2C",
"y  c #393024",
"u  c #35312D",
"i  c #252435",
"p  c #242637",
"a  c #332C32",
"s  c #332E39",
"d  c #2A313C",
"f  c #333232",
"g  c #393637",
"h  c #33333C",
"j  c #3C3D3C",
"k  c #442415",
"l  c #422E24",
"z  c #433928",
"x  c #57392C",
"c  c #473937",
"v  c #673E2F",
"b  c #633F37",
"n  c #47453A",
"m  c #4B423E",
"M  c #4C483D",
"N  c #554738",
"B  c #5C5639",
"V  c #734626",
"C  c #674B3D",
"Z  c #744D3A",
"A  c #2D3443",
"S  c #3A3642",
"D  c #363946",
"F  c #343C5A",
"G  c #423B42",
"H  c #3A424A",
"J  c #3C4757",
"K  c #434344",
"L  c #4B4344",
"P  c #4C4A43",
"I  c #46474B",
"U  c #44434C",
"Y  c #4A4B4D",
"T  c #564E49",
"R  c #53524D",
"E  c #5B5848",
"W  c #4D4E51",
"Q  c #4B4B55",
"!  c #4E5153",
"~  c #525355",
"^  c #575A57",
"/  c #555659",
"(  c #5A5659",
")  c #56595B",
"_  c #5A5B5D",
"`  c #64594A",
"'  c #755B49",
"]  c #655753",
"[  c #635C5A",
"{  c #6C5F5C",
"}  c #676357",
"|  c #75685A",
" . c #5D5E61",
".. c #595B67",
"X. c #5C5D70",
"o. c #615F62",
"O. c #685D60",
"+. c #5E6062",
"@. c #59636E",
"#. c #5D6970",
"$. c #626365",
"%. c #646A66",
"&. c #656669",
"*. c #66696B",
"=. c #6C6868",
"-. c #6A6C6D",
";. c #716E63",
":. c #726E6D",
">. c #6A716D",
",. c #78746C",
"<. c #656875",
"1. c #6D6E71",
"2. c #706D71",
"3. c #6E7173",
"4. c #6C737C",
"5. c #727375",
"6. c #787B77",
"7. c #757679",
"8. c #78777C",
"9. c #77797B",
"0. c #7A7B7E",
"q. c #8B5935",
"w. c #95623A",
"e. c #89614A",
"r. c #986B48",
"t. c #886A58",
"y. c #957159",
"u. c #A2724C",
"i. c #A6785B",
"p. c #827F6C",
"a. c #947260",
"s. c #847B74",
"d. c #7B827F",
"f. c #93816E",
"g. c #8B897C",
"h. c #948579",
"j. c #8F907F",
"k. c #98957F",
"l. c #A9866E",
"z. c #BD8D69",
"x. c #A38F7C",
"c. c #A89F7D",
"v. c #B8937C",
"b. c #CA9B7B",
"n. c #D39E7D",
"m. c #6C738E",
"M. c #747A85",
"N. c #7D7E81",
"B. c #737B8B",
"V. c #6F7490",
"C. c #807D82",
"Z. c #7E8183",
"A. c #7A849C",
"S. c #828385",
"D. c #898881",
"F. c #848689",
"G. c #86898B",
"H. c #898A8D",
"J. c #908D89",
"K. c #949389",
"L. c #8C8D91",
"P. c #8E9193",
"I. c #929395",
"U. c #9B9C97",
"Y. c #949699",
"T. c #97989B",
"R. c #9A9B9D",
"E. c #A08C84",
"W. c #A69788",
"Q. c #9FA198",
"!. c #AEAA8E",
"~. c #ABA394",
"^. c #B2A899",
"/. c #8D9AAA",
"(. c #9D9EA1",
"). c #9FA1A4",
"_. c #9EA6AC",
"`. c #9BA2B3",
"'. c #A2A3A5",
"]. c #A2A3A7",
"[. c #A5A6A9",
"{. c #A5A6AA",
"}. c #A7A8AC",
"|. c #A7A9AC",
" X c #AAABAD",
".X c #A9AAAE",
"XX c #BBB5A4",
"oX c #A6A6B5",
"OX c #ABACB0",
"+X c #ADAEB2",
"@X c #AEB1B4",
"#X c #AAB1BA",
"$X c #B1B2B5",
"%X c #B1B2B6",
"&X c #B5B6B9",
"*X c #B7B8BA",
"=X c #B9BBBB",
"-X c #DCAE96",
";X c #E0B18D",
":X c #C7BDAA",
">X c #C4BFBF",
",X c #C6C19E",
"<X c #CDC7B3",
"1X c #DCD3B7",
"2X c #E2D7B7",
"3X c #A4B1C2",
"4X c #B9BCC5",
"5X c #BCC2CB",
"6X c #C7C7CA",
"7X c #D0D1CE",
"8X c #EDD3C0",
"9X c #F3EAD3",
/* pixels */
"0.N.0.0.7.Z.9.9.0.9.9.9.0.9.0.6.0.N.7.! W ~ I W 5.0.N.].{.].].}.L.5.N./ I / ~ I &.Z.5.8.N.N.5.S.8.S.N._ W W 0.0.5.Z.5.0.0.9.~ K ",
"N.S.S.F.S.F.S.S.G.G.S.0.S.Z.S.G.S.Z.S. ._ / / ~ 5.Z.H.}.+X+X}..XT.H.H.$./ _ / ~ 3.F.S.F.S.F.N.N.F.S.F.+.! / N.G.H.S.G.F.F.S.$./ ",
"S.Z.F.S.F.S.S.F.3.*.7.S.H.F.S.G.5.-.1./ _ $.0.1.I.(.T.I.F.L.H.(.7.-.1._ / $.5.5.N.S.S.S.0.H.(.(.P.N.L.0.5.7.Z.S.N.$.-.*.-.-.5.5.",
"S.Z.F.N.G.S.F.G. .K +.N.S.F.S.F.) /  ./ _ 1.L.N.].@XL.&. ._ ~ &.$.~ ~ _ / $.F.S.S.N.F.F.N.H.{.$X(.N.G.S.F.H.F.S.0./ ~ / ~ ~ N.S.",
"S.F.H.0.F.S.S.S.-./ 1.S.S.F.S.F.$./ / _ ~ $.F.S.).I.$.( ' l.t.] K / / +.)  .F.N.S.N.N.N.Z.L.).$XT.S.S.F.N.N.S.F.N./ ! $.) _ 0.0.",
"Z.S.0._ $. . . .8.N.S.S.S.F.N.G.$./  .S.S.N.F.Z.0.R C V r.V i.y.t.o.N.N.N.F.}.{.]..X.X{.{.].H.F.L.S.S.H.S.N.F.F.N./ ) 5.9.S.F.S.",
"H.G.8./ / ) ) ) N.L.S.0.N.F.N.H. .W ) 0.S.F.F.S.R ` e.n.u.w.q.q.y.{ S.Z.S.L.OXOX+X$X.X.XOX{.S.0.G.F.N.F.S.F.F.F.5./ / 5.S.F.S.S.",
"N.N.5.)  . . . .N.F.N.H.L.F.0.0.-.$.*.Y _ *.Z.S.P C -Xi.;Xz.r.b.l.C _ S.N.H..X].{.{.].OX.X].F.F.S.S.Z.F.S.F.0.N.5.&.) 9.H.S.F.S.",
") ~  . .) 7.L.F.S.N.L.OX*XS.~ ~ N.F.S.%.5.6.Z.U.E t.a.l.v.e.e.Z v.' :.N.S.Z.Z.7.Y.@X.X}.}.].F.S.F.S.F.F.F.N.) ! +.G.H.F.S.N.F.N.",
") ~  ./ ~ 1.F.N.S.0.H.+X*XS.~ ~ 9.S.S.H.%.%.0.:.c r 3 ' C x t.k x 2 :.H.S.S.S.N.Y.$X{.+X$X+XN.N.S.F.N.0.F.Z./ ~ &.S.F.S.S.S.G.H.",
"1.1.5.5.1.N.G.G.I.Y.Y.Y.T.F.&.$.S.F.G.F.H.5.-.D.e r w a G g c : ] 1 *.S.N.F.I.I.T.(.I.Y.T.T.Z.F.F.H.F.Z.F.F.1.3.5.S.S.F.F.S.5.1.",
"L.F.L.L.G.S.N.S.+X*X].N.7.F.F.H.F.0.S.F.R.Z.f @ M ; f U X.X...S = P Q.Z.S.P.$X*XI.0.N.0.0.N.F.S.F.F.F.F.N.F.F.F.G.F.N.S.S.S.+.~ ",
"N.N.Z.Z.S.S.S.F.(..X(.F.N.S.N.S.S.0.F.I.$X^ 9 ` <Xh.m a i i i S t } ^.K.Z.H.].+XT.N.F.S.Z.S.G.S.Z.S.Z.Z.N.F.G.Z.Z.Z.G.G.F.S.$.~ ",
"G.H.H.N.S.Y.(.(.+XOX(.S.F.S.S.H.S.S.H.R.f } [ N :X9Xh.8 7 U I Y n !.9X1X{.(.H.H.L.Z.Z.S.S.S.&.$.1.F.Z.Z.F.F.Z.F.S.Z.G.5.+.*.7.0.",
"8.N.S.0.Z.(.$X$X+XOX).0.S.S.S.S.N.0.S.5.) 6XJ.,.| :X9X} = -.-..Xj.<X2X1Xs.{.Z.0.N.N.S.F.F.Z./ W +.F.Z.S.F.Z.Z.F.F.N.G.1.! ~ 0.G.",
"F.F.L.G.S.I.].{.].].).Z.G.N.S.S.L.S.S.5.S.3.5 # P E ^.} y =.=.G.g k.,Xc.N u F.G.G.N.F.N.N.0.&. .3.G.Z.F.Z.Z.G.F.H.0.G.3./ / Z.G.",
".X.X{..XOXY.N.F.N.G.F.0.F.S.S.N.).{.+X0.5.<.A.4.5 P + z ` ~.+ (./ n E B ` e J.F.F.S.F.&./  .Z.Z.H.F.Z.Z.Z.F.}.}.).Z.F.5./ ) S.G.",
"{.OX.X.X.XT.N.S.S.F.Z.S.0.S.F.N.{.{.@X&X8.B.3X/.D ! . ` W.| s.f h @ g.:X~.u S.H.Z.F.F.&.!  .Z.F.G.Z.Z.Z.Z.N.].*X.XS.F.1.~ / 9.0.",
"{..X.X{..XY.N.S.S.S.Z.F.N.F.F.N.{.}..XR.6X@.`.B.d i % & T k.^.9 e . 1 P j G 5.3.3.7.7.-.&.3.Z.N.Z.Z.Z.L.Y.P.I.(.L.-.5.5.&.-.H.I.",
"{.{..X.X+XY.N.F.F.G.F.S.H.Z.Z.N.).}.{.Z.F.h U D * # *  .I M P m ;.N 1 f S  ./ ) / / ) 7.F.F.F.F.F.Z.N.).@X@XF.F.9.! ~ 5.S.F.}.$X",
"}..X.X{.OXY.Z.F.S.Z.S.S.F.N.S.N..X$X$XS._ q _ o.O o i i A A h [ ^.h.+ c L.G.) )  ._ / N.G.Z.N.Z.F.Z.8.(.}.}.8.F.0.) I 3.N.N.]..X",
".X+X{.L.I.H.S.S.1.$.1.F.N.L.].T.L.H.H.$.2.L ,.m O 4 F V.F F J s E.8Xf.8 &.N./  ._ ) / 7.S.Z.F.F.P.).(.).OX}.F.G.F.0.5.F.S.N.{..X",
".X+X(.0.Z.S.S.S. .W +.F.N.T.*X+XG.0.0./ ) G e [ a i D m.A.A.B...2 x.2Xp.R C. .) _ _ / 7.F.Z.F.8.P.@X@X).@X}.G.8.0.S.F.H.0.Z.).+X",
"}.OX].N.F.F.S.S.$.~ &.N.F.I.+X}.H.S.S.) _ g 6.>X/ f ..<.`.#X_.G.<XXX^.7Xg.O. .~ _ _ _ 0.F.Z.G.8.Y.}.}.}.$X].F.Z.H.S.F.F.S.H.R..X",
"S.S.H.N.F.3.~ _ Z.G.N.S.S.S.F.S.G.S.N./ _ ~ Q Q % 5.F.}.4X=X=Xd.X ;.XXT J.{ S.S.F.F.S.F.Z.L.].}.OX}.}.).}.}.Z.F.F.S.0.T.@X{..X.X",
"S.0.S.Z.F.*.I  .0.G.S.S.N.N.F.G.S.F.G./ ~ ~  ./ %.^ q           + : ;.R L.Y C.N.S.8.N.S.0.Z.{.}.}.@XOX@X}.@XF.Z.F.F.S.T..X{.+X$X",
"S.S.G.S.G.3.~ $.N.G.S.S.S.S.F.S.N.Z.S.) _  .-._ M.5   . .   O . c c > $.oXN.F.S.H.L.P.P.L.L.}..X{.).(.].T.).F.Z.Z.5.9.Y.+X.X{.).",
"N.S.G.S.S.1.~ _ N.F.N.S.S.S.S.Z.G.F.S.~ ) -.G.S.M.6   X O o   > x b l -.6XG.F.N.Y.$XOX.XOX}.@X$XT.Z.N.Z.N.N.Z.Z.N.W Y F.*X{.F.7.",
"F.S.G.H.S.-./ _ 9.S.N.S.Z.S.S.S.S.S.Z.~ Y &.F.N.S.<.$ m , o O < v Z N %.5XF.N.0.Y.+X.X+XOX@X}.@X(.N.Z.Z.F.Z.G.F.Z.~ Y H.*X.XF.0.",
"-.*.-.-.*.-.-.3.S.S.N.S.S.F.S.F.5.-.5.5.5.7.F.N.Y.Z.$ L ,     > x t.| %.4X(.Y.Y.Y.L.L.Y.G.P.P.Y.P.Z.G.F.Z.Z.4.&.1.F.F.H.H.I.H.S.",
"! ~ ~ ~ ~ 7.H.F.G.F.Z.S.S.G.S.S._ I _ F.G.S.S.N.R.T.* L 1     + - c n %.4X@X+X*XT.0.S.S.8.N.N.Z.Z.Z.G.F.Z.Z._ W 3.=X*XT.5.S.S.0.",
" .) _ _ / 5.S.0.S.S.S.S.S.S.Z.G.$./ +.F.S.S.F.S.H.P.* c , X = 1 & L Y %.@XOX{.}.T.0.H.N.G.H.Z.Z.F.N.F.F.Z.Z._ / -.+X].R.Z.F.Z.N.",
"_ / &.Z.9.S.S.S.S.F.G.N.F.T.(.}.S.0.0.S.S.F.N.F.5.~ $ O   7 I R u % j >..XOX+X{.T.0.S.&._  .$._ $. . .$.$. .9.9.S.G.S.H.S.N.$.+.",
"~ ~ &.F.F.F.S.S.S.N.S.N.7.I.$X@XH.S.S.F.F.F.S.H.$.K U / 7     @ j % j 1.{.{.}.+X(.S.F.$.W ~ ) /  .~ ~ / ~ ~ H.G.F.N.F.G.G.G._ ! ",
"$.$.5.S.F.S.N.S.F.Z.F.I.F.I..XR.F.S.F.S.S.N.N.F.*.K h Y 7   O O I = I F.OX+X(.}.L.5.0.1.&.$._ ) $._ ) $.&._ F.0.G.0.F.0.5.7.*.&.",
"S.S.F.S.S.F.S.F.Z.N.G.{..XI.F.S.N.N.S.N.S.Z.Z.F.1.0 o         # J #.L.]..X}.N.F.5.!  .5.F.N.+._  .+._ 5.H.N.F.0.F.S.S.1./ _ 0.S.",
"S.F.F.N.N.S.0.0.S.N.H.{.*XY.7.S.S.S.F.0.F.F.S.F.*.0       . o o @..X@X+X+X{.N.G.1.W / 3.G.F._ / / / W -.F.F.0.S.S.S.S.3./ / N.F.",
"S.S.F.F.F.F.N.S.T.I.R..X.XY.N.G.S.F.F.N.F.0.1.-.5.7       , I H 4.I.Y.I.Y.I.N.L.N.1.3.0.S.S.) / -.3.3.S.Z.F.N.G.F.0.G.1./ +.0.F.",
"S.S.Z.F.N.S.0.S..X.X.X+X.XY.S.S.S.S.Z.S.S.5.~ ~ 5.I     O K L.P.F.N.N.N.S.N.N.Z.S.F.F.F.F.S.) / 1.F.F.H.S.F.Z.F.F.Z.G.1.~  .0.G.",
"S.S.S.S.0.F.N.N.{..X]..X+XY.F.S.F.S.0.F.F.1.W ~ 5.N.K f K P H.+XI.0.S.F.F.N.F.S.N.Z.S.S.S.S.~ ~ *.P.Z.0.S.S.Z.F.Z.F.F.5.~ / 0.Z.",
"S.Z.G..XR.].(.R..X.X].H.L.H.S.S.S.S.F.F.Z.Z.S.0.S.S.7.N.0.N.H.F.N.S.S.S.N.G.S.F.P.OX].7.) &.0.0.7.S.S.S.Z.F.S.S.0.$._ 3.0.0.S.S.",
"S.S.L.$X.X+X.X+X.X.X].Z.N.F.S.N.S.S.S.N.S.Z.0.S.Z.Z.Z.F.S.S.F.N.F.S.S.F.Z.S.N.0.I.+X$X1.~ _ S.F.Z.S.F.S.N.N.N.Z.0.W W 7.H.F.S.F.",
"S.S.L.{..X{.].}.].}.(.S.S.G.F.S.F.S.G.S.S.G.F.G.H.S.F.S.S.S.F.S.S.0.S.G.F.F.L.F.(.]..X1. .$.N.Z.H.S.F.S.F.N.H.G.N./ ) 5.Z.F.F.F.",
".X{..X+X.XI.Z.S.S.S.S.0.S.S.Z.S.S.N.F.S.N.Y.+X{.H.N.G.Z.S.S.S.Z.S.S.G.F.S.L.OX}.Y.S.F.8.N.F.G.S.F.0.N.S.F.S..X.X].S.S.F.0.F.G.S.",
"{.{.+X.X+XI.N.S.S.Z.S.S.S.S.S.G.S.F.0.0.9.H.$X+XI.Z.G.S.S.F.S.F.S.S.S.N.N.G.+X@X(.N.Z.F.S.F.N.0.S.S.S.Z.N.0..X+X].Z.Z.G.S.S.S.Z.",
".X.X.XT.(.L.S.S.F.S.S.S.Z.F.Z.S.F.Y.H.L.Y.I.T.].S.1.9.Z.F.Z.5.5.0.S.N.L.Y.I..X.XT.N.F.S.Z.F.I.I.H.I.H.I.Y.I.R.T.T.S.Z.H.S.S.H.P.",
".X{.(.N.S.S.0.Z.Z.S.S.S.S.H.F.S.{.*X$X+X$XT.0.S.$.W  .N.F.5./ Y 5.F.S.].$X}.+XOXT.Z.F.Z.S.H..X.X&X$X.X+X+X.XS.0.0.0.0.S.0.F..X$X",
"+X.X].Z.S.G.S.F.G.F.Z.Z.9.S.0.0.].{..X{..X].Z.F.-.~ _ S.H.0._ ~ -.G.S.(.$X.X+XOX(.Z.S.Z.N.F..X{..X{.}..X.X&XN.H.S.G.S.G.0.0.]..X",
"H.I.I.S.G.5._ -.N.F.F.R.].T.].R.Y.H.H.R.L.S.$.&.&._ _ 1.$.*.0.5.L.].Y.I.L.I.L.L.L.S.N.C.S.F.{.+X].H.Y.P.H.H.G.F.F.F.N.I.].(.I.G.",
"S.N.F.F.F.&.I ) 0.S.L..X$X.X$X$XF.0.9.S.N.5.~ / / ) ) / W &.H.S.(.*X+XF.8.N.F.N.N.S.N.F.0.S.$X+XT.9.9.9.N.S.9.0.F.S.0.R.$X.XH.7.",
"F.N.S.S.0.-./  .N.0.G..X.X{.).{.F.S.G.F.F.7.~ / _  . ./ _ *.S.9.Y.{.}.H.S.F.F.N.F.H.Z.G.S.H.{.}.Y.F.H.G.S.F.0.H.Z.S.S.T..X{.L.Z.",
")  . ._ ) 7.0.Z.H.S.H..X.XR.F.G.S.N.G.N.S.5.~ ) 1.N.G.S.N.0.F.S.F.F.F.Z.N.F.S.F.Z.S.S.T.+X].S.F.N.S.S.S.0.F.S.S.H.{.].Y.S.F.N.0.",
"/ _ ) / Y 5.F.F.S.9.H.}..XY.9.N.H.S.G.S.G.7.) ~ 9.F.F.S.S.H.F.0.F.F.F.F.N.G.S.F.F.Z.Z.(.=X+XZ.F.S.H.Z.S.S.F.G.S.H.@X$XT.0.F.F.H.",
"_ /  .5.&.9.S.S.L.H.T..X+XY.0.G.9.-.7.5.7.-.&.$.0.F.S.S.0.S.S.H.5.1.0.F.F.F.S.N.F.Z.S.Y.).T.F.N.S.0.3.S.S.0.S.S.H.(.R.I.S.G.9.7.",
"+.) *.H.S.Z.S.S.}.}..X}.@XL.8.S.+.~ ) ) ~ $.Z.G.F.Z.Z.S.S.Z.N.G.*./ ) N.F.F.S.F.G.Z.Z.Z.N.Z.F.F.7.~ ! 3.G.S.Z.Z.N.Z.9.Z.0.Z. .) ",
"~ ! $.F.F.F.F.Z.].}..X}.=XT.S.H.+.) ) ) ! $.F.Z.Z.Z.H.S.F.S.G.G.*./ W S.Z.F.0.Z.S.8.L.S.G.L.Z.G.7.Y ) 5.G.S.Z.G.S.F.Z.H.F.S._ ! ",
"3.3.8.S.G.G.0.S.].@X).P.I.0.*.-._ _ +.9.3.0.S.S.F.Z.S.*.*.-.-.$.1.9.5.N.S.G.R.T.I.Z.S.3.&.$.3.*.*.0.-.0.G.Z.8.G.S.S.9.Z.$.-.3.5.",
"G.G.F.Z.0.G.S.Z.}..X(.Z.S.*.) ) _ ~ _ G.G.S.Z.F.S.Z.N.) ~ ~ ) ! 3.F.P.Z.Z.G.@X&XR.0.Z.+.~ ) ~ ~ *.H.G.F.S.Z.0.S.S.S.Z.3.! +.0.G.",
"Z.Z.N.G.Z.F.F.S.].}.].N.S.3._ / ) )  .N.S.S.S.S.F.G.S.$./ ) _ W 5.S.F.0.N.I..X$XT.N.G.*.) _ ~ ! &.S.F.N.N.F.F.S.G.N.G.3.~ ) 0.Z.",
"G.F.N.H.S.Y..X.XP.Z.S.S.G.-.~ +.0.G.S.S.N.F.F.S.0.S.Z._ ~ -.S.S.N.Z.0.]..XT.$. .+.+. ./ ~ _ S.F.S.F.S.Z.S.F.S.S.9.~ $._ / _ S.F.",
"Z.F.S.G.N.R.$X{.S.S.G.F.F.5.~ W 0.S.F.S.Z.S.S.F.0.F.S.$.W $.S.S.S.F.S..X$X).~ / ~ _ ~ ) / ) S.S.F.Z.S.Z.S.S.N.F.N.! ~ / ) / 0.Z.",
"Z.N.0.G.N.T.{.{.H.S.0.0.5.1._ +.Z.S.F.S.S.S.0.0.G.0.9.-.) -.H.F.F.Z.F.I..XI.~ )  ._ ~ _ +.&.N.S.S.Z.F.S.S.G.0.0.9.&. ._ _ $.S.G.",
") ~  .S.0.S.0.S.F.G.5./ / 5.F.G.S.N.S.N.S.F.S.F.&.W  .0.C.I.$X{.{.&X&X/ I ) ) _ _ /  .9.F.F.F.F.F.F.F.N.0.S._ ~ $.S.F.L.F.S.S.N.",
"/ ~ $.F.S.F.9.S.S.S.5./ ~ &.S.S.F.0.N.N.0.0.0.F.-.I _ S.0.F.{.{..X].$X$.~ / / ~ / ~ / 7.F.N.N.0.0.N.S.S.N.F.) ~ _ H.0.S.0.S.0.0."
};
