/* XPM */
static char *_394ac43877b4ba5b92e77ccc8768f56[] = {
/* columns rows colors chars-per-pixel */
"64 64 216 2 ",
"   c #030100",
".  c #0B0100",
"X  c #0D0B02",
"o  c #090908",
"O  c #130301",
"+  c #160B03",
"@  c #220D00",
"#  c #322C2C",
"$  c #37312D",
"%  c #3B3735",
"&  c #423C28",
"*  c #4A3A36",
"=  c #573938",
"-  c #5B3A3B",
";  c #69392D",
":  c #663A33",
">  c #703F32",
",  c #3A412D",
"<  c #3C4031",
"1  c #49463A",
"2  c #57443D",
"3  c #485039",
"4  c #65443A",
"5  c #754535",
"6  c #593E41",
"7  c #4D4E4F",
"8  c #584543",
"9  c #5C594D",
"0  c #4E4F51",
"q  c #4F5052",
"w  c #535456",
"e  c #5C5F54",
"r  c #565659",
"t  c #58575C",
"y  c #57585A",
"u  c #5A5B5D",
"i  c #644C47",
"p  c #744C43",
"a  c #62514A",
"s  c #795A57",
"d  c #58674C",
"f  c #5C6253",
"g  c #5B6B52",
"h  c #646756",
"j  c #646D5A",
"k  c #7A635B",
"l  c #627357",
"z  c #64735C",
"x  c #5D5E61",
"c  c #605F64",
"v  c #7D5E63",
"b  c #5F6062",
"n  c #626264",
"m  c #666669",
"M  c #67686A",
"N  c #6A6B6D",
"B  c #796866",
"V  c #6C7263",
"C  c #6D7C65",
"Z  c #777268",
"A  c #7B756B",
"S  c #767B6B",
"D  c #7A7B6D",
"F  c #6E6E71",
"G  c #706F73",
"H  c #6F7072",
"J  c #727375",
"K  c #7E7C72",
"L  c #767779",
"P  c #7A7B7D",
"I  c #894F43",
"U  c #865A5D",
"Y  c #865D62",
"T  c #866566",
"R  c #906366",
"E  c #84796C",
"W  c #837C72",
"Q  c #847B77",
"!  c #768369",
"~  c #7D8273",
"^  c #838276",
"/  c #8A8479",
"(  c #958C7E",
")  c #998C79",
"_  c #8B967D",
"`  c #94917E",
"'  c #A0846E",
"]  c #A28F7C",
"[  c #A9927C",
"{  c #7E7E81",
"}  c #807F84",
"|  c #7F8082",
" . c #828385",
".. c #8D8B84",
"X. c #858689",
"o. c #88878C",
"O. c #87888A",
"+. c #8A8A8C",
"@. c #918680",
"#. c #958D83",
"$. c #9B8D85",
"%. c #958E8A",
"&. c #9A8E8B",
"*. c #8F9980",
"=. c #949384",
"-. c #9B9285",
";. c #949983",
":. c #9D9C87",
">. c #94928C",
",. c #9B938A",
"<. c #8E8E91",
"1. c #8F9092",
"2. c #939395",
"3. c #9C9592",
"4. c #9D9A94",
"5. c #969699",
"6. c #98979B",
"7. c #97989A",
"8. c #9A9A9C",
"9. c #A2948D",
"0. c #A39889",
"q. c #B79C8A",
"w. c #A59A93",
"e. c #A29A94",
"r. c #93A28B",
"t. c #9AA896",
"y. c #A0AA8F",
"u. c #BBA28D",
"i. c #A9A998",
"p. c #BAA796",
"a. c #BCAC9B",
"s. c #BCB39D",
"d. c #9E9FA1",
"f. c #A09FA4",
"g. c #9FA0A2",
"h. c #A2A3A5",
"j. c #A6A6A9",
"k. c #A8A7AC",
"l. c #A7A8AA",
"z. c #AAABAD",
"x. c #ABACAE",
"c. c #ACADAF",
"v. c #B6AFA7",
"b. c #ABB7A5",
"n. c #B7B4A1",
"m. c #BCB2A4",
"M. c #BBBBA6",
"N. c #BCB5AD",
"B. c #BEBBAC",
"V. c #ADAEB1",
"C. c #AEAFB1",
"Z. c #B0AFB4",
"A. c #AFB0B2",
"S. c #B2B3B5",
"D. c #BBB8B5",
"F. c #B5B6B9",
"G. c #C09686",
"H. c #C5A48F",
"J. c #C7A997",
"K. c #D3AF99",
"L. c #C9B29D",
"P. c #C4B5A4",
"I. c #C2B9A7",
"U. c #C7B7A8",
"Y. c #C3BBAB",
"T. c #CABCAB",
"R. c #D1BBA6",
"E. c #C4BCB3",
"W. c #C6BEB6",
"Q. c #CBC1AF",
"!. c #D0C1AE",
"~. c #CDC3B4",
"^. c #C9C6B7",
"/. c #CEC4BA",
"(. c #D3C5B5",
"). c #D5C7B8",
"_. c #D5CBBC",
"`. c #DBCDBC",
"'. c #C7D8BB",
"]. c #D8D4BC",
"[. c #E7CABC",
"{. c #FAC8BD",
"}. c #E2D1BB",
"|. c #CFE0BC",
" X c #D5CDC2",
".X c #D9CDC4",
"XX c #C6DCC1",
"oX c #CADDC3",
"OX c #DCD2C3",
"+X c #D2DAC3",
"@X c #D6D9C7",
"#X c #D2D0CB",
"$X c #DDD4C9",
"%X c #F5CEC2",
"&X c #E7D8C8",
"*X c #F7D3CA",
"=X c #F1D5CE",
"-X c #C6E3C4",
";X c #CCE3C4",
":X c #CCE8CA",
">X c #D4E3C5",
",X c #D3E4CB",
"<X c #DAE5CA",
"1X c #D4E9CA",
"2X c #D8EBD1",
"3X c #E8E4D7",
"4X c #F5E6D4",
"5X c #F7E9D7",
"6X c #F3E7DB",
"7X c #F5E9DB",
"8X c #FBEDDC",
"9X c #FEF1DE",
"0X c #FBEEE2",
"qX c #FEF2E3",
"wX c #F1F2EE",
"eX c #FFF7E9",
/* pixels */
"w u u w u w u c.c.C.{ { { w u x u u u u w u w r {  . .r r x u u y r u 2.F.S.J y r u w n  . . . . .L r u u u u y u m j.C.C.{ }  .",
"u n u u b r r j.l.A.P { { w u u r r u u w u u u  .| O.u u u r r r r w +.C.S.N w u u y u  . .X. . .J r r u r w u r x j.x.z. .X.X.",
"w J X. .n u u 8.7.2. . . .w u u r u H | P n w w L J P w w n P J L P J <.d.d.N r u u u u X.{  .P L H r u M J H x y u 2.d.2. . .{ ",
"w 2.C.F.F y w  .P P  . . .w r b r w +.S.F.F r u w w w u r H F.S.C.c.A.5.P  .n y r x y u  .X.L w w u r u +.F.c.F y r y w x  . .{ ",
"w +.C.A.N w r O. . . . .{ u u u w r 2.C.x.N q y u x u u w N C.C.z.c.x.5.|  .n u u x u x  .+.P w u u w w <.S.C.N u u u r n X.o.P ",
"w  .2.1.n u u  . . .N M N r w J <.O.<.1.7.P J J u u u u y n X.{ X.2.2.+.| X.n u y y r u N F N u w N O. .2.2.5.N u r u w u J J N ",
"w J  . .m y y  . .| y w u u r | S.C.5.P  .{  .O.n u r u u y r w m  .|  . .X.n u y u u r u w r u y  .S.x.7.| { n r r u u u u t u ",
"u J X.| n w y  . . .u u u u r { A.z.5. . .X.X.O.x u u y r u x u N O. .X.{ { m u w u q u w u u r w  .F.S.8. . .n u u u u r w w x ",
"u n n n x u w n b m w u x u r n H N P  . .N x M u u u x u x r u u M n { X. .M w u <.7.2.u u b u x M L J H M N x u u x u m 2.<.o.",
"u u r r u u u u u r y u x w r x w w J X.O.b r u y r u u w x r u w u r J  . .n r u z.l.z.r r u u w u w r r r y y y u u r N Z.C.f.",
"w b u u n u n w w w n u u u r n u y J  .X.n r u x u u u u x w u u u u J X.O.N w u j.C.l.r u r b u r w w r r r u y u u r m C.S.6.",
"u n y w 8.z.z.n u u z.l.8.y u u u u u y x u u y u r b j.h.h.h.h.X.u w x n 6.u u u X.X.+.w x N d.8.j.d.h.2.P | n u u u y n <.2.+.",
"u r y w d.l.C.n r w F.j.l.0 y u w r u u u r y w u u y S.j.C.l.c.1.w u n r u u w u P | { y u N S.z.c.j.S.7.P X.n y u u y x  . . .",
"u N N N 2.C.c.u y u x.z.7.u u n x b x r w u x r M u M j.z.z.C.z.2.w r u y w n u n L  .{ u u F A.l.A.z.x.5.| X.n w y u r x  .X.X.",
"w +.A.c.1.P X.u u u { { X.X. . . . .F u u u w u j.#Xl. . .{ | { P w u u u u 5.x.l.<.| X.r u u O. .|  . . . .| n w u u u u u u x ",
"w <.x.l.1.P O.u w x O.X. .| X.X. .X.J w r u u w j.e.%.Q A ,.-.,.@.%.#./ Z q 8.z.l.X.X. .w u n +.X.X. .|  .X.X.n w b r u u u r u ",
"L +.h.h.<. .X.x u x L L P X.| X. . .H r u m N M c.3.^ ..A #.#.,.-.,.@.W W N.2.c.l.+.P  .w r n  .L  .O. .X.P { M y q m x u u u u ",
"C.5.P  .| X.X.u u r w r n  . . . . .J 4.2...>.>.e.W W .X X$X$X.X.X X$XOX XA A A ^ X. . .u u r u r M  .P H w y r u n z.C.c.u n u ",
"c.h.| X.|  .{ u r u w r n  . .X.X. .F ..2.>.3.#.,.W Z $X_._. X X X_.OX_._.W W A A X.X.X.r r u w y N O.X.F w u w r y d.c.z.w w u ",
"+.P  .X.J J L m u x u u n J J L L J N u w .   ,.-.$.0.E Z &X_.B.B.OX).qXqX~..XY.E.  . J u r n u u M P { F u r F J L 8.d.8.J G L ",
"w J  .X.n r w u r u r u u r r u w r u u w   . ( $.0.-.E E /./.^.B.).).8XqX&X&XT.P.+   r u u u u u u w w r u u 5.S.c.X.P O.C.Z.j.",
"u F  .O.n y r x u u w y r u r x w r x   . N.Y.qXeXqX8XOX~.~.B.B.m.Y.T.).OX=X4X8X0Xm.N..   u u u r u u u u w y 5.x.A.X. . .C.C.h.",
"u n m N u r n u u u u u n 2.<. .y u L X   W./.6X7X7X0XOX`.Y.Y.B.~.U.~.(.`.qX9XeXqX/.N..   y u b y u u u u u u O.8.8.X. .X.8.5.2.",
"w u r r u u u w u r u r N F.c.7.w w +...4.^. X0XeXeXeX).)._._.m.m.).`.).`.qX8XqX7X/..X%.3.u y u u x w u u u r L  .|  .{ O. . .} ",
"u u u y x u w n u u r w M j.x.5.w r <.>...$X$X6XqX7X8X).`.OX].Y.T.`.`.`.`.8XqX8XqX&X X%...u r u u b r u r y u L {  .O.{ X. .X.{ ",
"u u y u u u w 7.8.8.P P P J N F r     D.W. X X$X~.qXeX9X8XOX(._.).).}.4X8XqXqX`._.T.$XW.D.o   2.<.| w u L +.+. . . . . . .N N N ",
"u u u u b u w l.z.z.|  .{ 7 w u r   X B.E. X.X_.$XqX5XqXqX`.(.&X).`.}.8XqX5XqX).`.OX XE.N..   F.S.5.0 r +.F.S.<. .|  .{ X.t u u ",
"w n n n n x n h.z.l.X. . .u u x r .   m.E.m.E.OX_.~.$X5XqXqX9X9X9X8X9X9X4X&X).).`.P.Y.N.N.  . C.z.8.w u O.A.z.1. . .+.X. .t u r ",
"w  .l.j.z.z.g.O. .O.P  .X.P { X. .  . ).~.Y.Y./. XOX&X5X9X8X8X8X8X8X8X8X4X&X&X`.`.U.T./.W.    O.+.P r y b N M L X. .n u n x x x ",
"w O.C.l.h.j.C.O.| X.P  . .{  .X.l.O . P.a.T.~.Y.Y./._._.`.`.`.`.OX`.].`.`.).(.T.P.T.m.m.m..   { | P w w u u r J  . .n u r u x x ",
"u P l.h.h.c.l.{ {  .P |  .X. .+.{ . @ P.T.T.m.m.Y.OX X_._.`.`.`.`.`._._.`.`.).(.T.U.~.U.(..   |  .L u u n r u L +.X.x r x r r w ",
"u u w y y w r u r w u u n X. .o   a.u.R.R.T.T.~.Y.E.Y.Y.Y.Y.U.U.U.Y.Y.Y.Y.U.I.I.P.T.m.T.I.a.m..   X. .X.J w u u u u x u t c n J ",
"t u y w u u r u r u w u u X. .  + q.L.H.R.P.s.Y.Y.Y.Y.Y.Y.Y.Y.Y.U.Y.Y.E.Y.I.I.U.T.P.!.P.P.p.a.. O  .X. .J w u y u w u w u t w N ",
"t F P P m u u u u x r u n { {     J.H.' [ L.T.U.m.B.B.E.Y.Y.Y.U.Y.Y.B.Y.Y.Y.U.U.T.U.P.] 0.a.P.. . O.P P J u u u M n m n n m c J ",
"w <.F.S.J w u r w r u y u w r o   p.u.[ ] U.T.I.Y.Y.Y.Y.Y.Y.Y.Y.Y.Y.E.Y.Y.Y.Y.Y.I.Y.U.0.) p.p.. . P w y u r w 7.C.S.C.A.S.Z.F.j.",
"w { l.A.J w y u x u u w u u x t r   . #.-.-./ ~.m.Y.Y.Y.Y.Y.Y.I.I.T.U.U.T.I.Y.Y.M.=.:.` ( E E qX .{ w u u u y 7.C.S.z.c.l.C.k.j.",
"X.2.8.d.H r r  . . .u u x u w M o.  . >.,.-.,.E.).m.P.U.U.I.I.Y.Q.P.P.T.T.I.M.Q.Q./ =.=.=.E Z J 2.F r u u r r X.2.5.h.j.h.d.h.h.",
"C.5.{  .M r w z.A.F.r u u u r P C.>...    ,.#.$./ $.w.m.T.Y.I.Y.Y.Y.Y.Y.n.0.( #.#.e.#..   >.4.u r u u r x u u w w w P { {  .P { ",
"S.5. .X.N w w z.l.S.r u u u r P C.>....   ,.,.-.w.( w.m.T.Y.Y.Y.Y.Y.M.Y.n.w.-.,.,./ &.    2.+.x r x u y u w r y u r  .X.X.X. .X.",
"2.P n m n u w +.2.2.w y u u t m { >.>.X   e.#.@.#.#.$.$.$.$.$.-.-._ _ ;.;.( #.,.&.9.3.  o u u u wXu y r J X.X.n u w J F F X.} X.",
" .F w y u r w  .| { u u u r r u u >.2.  . %.%.e.,.9.9.,.$.-.$.$.-.;._ *.;.=.-.,.&.&.3..   r u u u x u w O.S.C.L y r u r w  . .X.",
"X.J y u n u y { X. .u r u x u x w t F | P K K / ,.#.#.$.,.,.,.$.#.;._ ;.;.-.,.9.,.Q Q %.2.r x u r u r w X.c.C.J w u r u u o.X. .",
"X.J y w J { P X. .X.w y M 8.8.+.u u m m m H Q >.,.,.,.,.#.#.$.,.,.=.=.=.=.=.=.>.=.^ Z 3.,.P J u u n u u P 2.2.{ J J x u u N N F ",
" .J y r P X.| X.| X.u u x F.C.8.w r n t r J X.K A A K -.#.,.e.@.,.-.,.#.-.S S S ~ < < & 1 8 i 4.y u u w F  .{  .X. .n r u t r c ",
" .J r u L | |  . . .u w n C.j.5.w y u u r L  .K ^ S ^ #.,.#.Q 4.,.9.$.e...K ! V C , 3 & & 4 4 qXv.x u w J X.X. .O.| n w u t u c ",
"u u u r n x u x u x r u x +.O. .w u b u r     @X+Xj 9 ~ D D ~ D A E B W / f g 2X1XoX].].&XH.H.5 : u u u x n x x x n x y u x u x ",
"u u u r u r u b u u x r x | {  .u r y y w     3X+Xd h ! ! S ~ V K / W A Z j g 1X'.'.<X].}.K.K.5 5 n w u u u u w u r u r x x u u ",
"w u u u x r r u u q J N J  .X.P M N n % 1 @X'.<X+X<X<Xg g g d z h 9 h V z 2X'.z g >X+Xs.p.q.G.> 4 u x n u w r u u 0 n y u u u c ",
"u u r u u r u u u u z.c.j. .{ 2.z.S.6X1 % +X+X>X>X>X'.g g l z l g z z g d oX1Xd l <X^.s.a.p.K.p p L l.z.O.y u u r u g.l.j.z.j.j.",
"w u u r u y u u u w x.x.l.{ { 2.x.c.X.    M.y.<X|.d ! '.;X;X1X'.2X-X2XXX:X2XXXz d   X . . i 4 .Xw J F.z.+.w r u r r h.x.c.C.z.j.",
"u N {  .m y r P P L d.h.8. . .O.8.d.qXO . i.M.'.<Xd l '.:X:X'.2X-X:X-X-X;XXX2Xd j     . . i i N m P z.x. .u u u r u 7.z.l.k.j.h.",
"u  .A.S.P w r h.C.C. .P {  . .L w p ; %X%X%X&XO   h j t.t.oX:X-X:X:X:X-X1Xr.b.f V     r u u n F.C.h.{ { X. . .m u w {  .|  .{ X.",
"7 +.c.A.L u r h.x.c.{ X.X. .X.P w ; I {.*X%X=X. . h V t.b.oX,X,XoXoXoX2X,Xi.i.f e     y r r n S.x.j.P +.X. .+.m w w P P  .X. . .",
"+.O.2.d.H u w 2.7.2.X. . . .X.L u p > {.[.%X&X+ .             X       .     . . X     u L P P 8.h.d.P X.P L P M u u  . .O.P P P ",
"S.8.P X.N w w  .{ {  .P X.O. .P w 4 4 *X=X4X=X. . O .   .   . . . O . O . O . . .     u x.S.l. .P  .| X.N w w u r r P  .X.u w u ",
"l.2. . .H u u P  . . . .X.P X.{ w v.E.2 8 i 2 . O * * B B k k 2 = s s s T T s i * .   u z.z.S.P X.X.X.X.J w u w u r P  . .u u u ",
"2. .m n m r u M M N X. .X.X. .{ w u 3Xa 2 9 9 . . 8 8 B s T T = - R U U R U Y 6 = .   u O. .O.N J L O.X.J u u M J F  . .O.u u u ",
" .N w w u u u u w w X. . .X. .P r w F  . .X. .X.j.. . O O * - = 4 - : U Y U T - = .   u u r u r w n  .X.J w r L O. .X. .X.u u y ",
" .J u u u u u u n r  . . . . .L r r J  .| X.{  .h.  . . . 8 = = = - - R Y Y Y = 6 .   u w r u u w M  .X.J w r J  .X.X. .O.u u w ",
" .P P P M u u u w u  . . .n n n u r x x u L  . .+.+.+.7.8.7.w r u O O T v v T O . u u u 2.5.2.r u x m m n r u n m M M m M u w n ",
"X.X.X.O.N u u u u u  . . .w w u u r b u w L  . .X. . .C.z.l.q u x . . B B B B . . x u u z.z.z.r u x u r u r u u r u u u u u w M ",
" .^ P  .M u u u u u {  .{ r y u x r n n x L  . . .{ { z.z.j.u u b     # $ $ # .   n u u j.c.z.w r u u r x u u u w u u u r u w M ",
"O.L u u u u u u w u u x u u r u r r P h.h.+.{  .X. .| +.X.O.h.d.5.    % # # %   o 5.h.h.X.O.O.r r u u u u u u u u u u u u 8.7.h.",
" .F w t u u u u u u u u u u w x w w X.F.C.2.{ P  . .{ | P +.C.S.g.q r   o o   u 0 d.C.c.X.{ X.r u u r u u u u u r u u u u c.c.z."
};
