/* XPM */
static char *c550c349267141c89f9262ddbc9d1764[] = {
/* columns rows colors chars-per-pixel */
"64 64 208 2 ",
"   c #040100",
".  c #0B0100",
"X  c #040900",
"o  c #0D0B03",
"O  c #0D0D0B",
"+  c #130101",
"@  c #130E03",
"#  c #160708",
"$  c #071104",
"%  c #220D00",
"&  c #362B27",
"*  c #38382E",
"=  c #3A3732",
"-  c #473431",
";  c #483937",
":  c #593938",
">  c #6A3A3D",
",  c #3D4432",
"<  c #444539",
"1  c #5A413C",
"2  c #674539",
"3  c #4E3C43",
"4  c #683D46",
"5  c #4D4E4F",
"6  c #5C4645",
"7  c #555D45",
"8  c #4E4F51",
"9  c #5B4C51",
"0  c #4F5052",
"q  c #535456",
"w  c #5C5654",
"e  c #565659",
"r  c #58575C",
"t  c #57585A",
"y  c #5A5B5D",
"u  c #664745",
"i  c #754743",
"p  c #6E5349",
"a  c #775B58",
"s  c #57684C",
"d  c #5C6557",
"f  c #586957",
"g  c #5B7359",
"h  c #636B57",
"j  c #657457",
"k  c #5D5E61",
"l  c #605F64",
"z  c #5F6062",
"x  c #596863",
"c  c #626365",
"v  c #636C65",
"b  c #656669",
"n  c #67686A",
"m  c #6A6B6D",
"M  c #766666",
"N  c #627462",
"B  c #747567",
"V  c #7B766C",
"C  c #7B7C6C",
"Z  c #6E6E71",
"A  c #706F73",
"S  c #6F7072",
"D  c #727375",
"F  c #7A7973",
"G  c #767679",
"H  c #76797A",
"J  c #7A7B7D",
"K  c #88575C",
"L  c #835B5D",
"P  c #82655E",
"I  c #8B5A61",
"U  c #925D64",
"Y  c #846264",
"T  c #8B6464",
"R  c #846B6C",
"E  c #946369",
"W  c #82796B",
"Q  c #837C72",
"!  c #807F7B",
"~  c #79826D",
"^  c #7E8073",
"/  c #828275",
"(  c #89857C",
")  c #948879",
"_  c #958A7D",
"`  c #9A8D7B",
"'  c #9C927D",
"]  c #A68C76",
"[  c #A38F7E",
"{  c #CAA27F",
"}  c #777C82",
"|  c #7E7E81",
" . c #807F84",
".. c #7F8082",
"X. c #828385",
"o. c #8D8B84",
"O. c #858689",
"+. c #88878C",
"@. c #87888A",
"#. c #8A8A8C",
"$. c #958C83",
"%. c #9A8E83",
"&. c #958E89",
"*. c #9B8F89",
"=. c #959185",
"-. c #9B9185",
";. c #95928C",
":. c #9B948A",
">. c #9D9A8E",
",. c #8D8E91",
"<. c #8F9092",
"1. c #929395",
"2. c #9A9693",
"3. c #9B9993",
"4. c #969699",
"5. c #98979C",
"6. c #96989A",
"7. c #9A9B9C",
"8. c #A08F88",
"9. c #A29486",
"0. c #A1948A",
"q. c #B89D87",
"w. c #A49B93",
"e. c #A69E96",
"r. c #9CAB96",
"t. c #9CB19A",
"y. c #AAA88F",
"u. c #B7A48B",
"i. c #A3A799",
"p. c #B7A899",
"a. c #BCAC9C",
"s. c #B8B49D",
"d. c #9E9EA1",
"f. c #A09FA4",
"g. c #9FA0A2",
"h. c #A2A3A5",
"j. c #A6A6A9",
"k. c #A8A7AC",
"l. c #A7A8AA",
"z. c #AAABAD",
"x. c #B9AFA4",
"c. c #BCB2A5",
"v. c #B9B6A9",
"b. c #BCB5AD",
"n. c #BEBAAB",
"m. c #AEAEB1",
"M. c #B0AFB4",
"N. c #AFB0B2",
"B. c #B2B3B5",
"V. c #BBB8B5",
"C. c #B5B6B8",
"Z. c #C89B85",
"A. c #CEAB8F",
"S. c #C4A893",
"D. c #C9B29D",
"F. c #C4B5A4",
"G. c #C8B8A7",
"H. c #C1B7AB",
"J. c #C3BBAC",
"K. c #CABBAB",
"L. c #D1BBA6",
"P. c #C4BCB3",
"I. c #C2BAB6",
"U. c #C9BEB2",
"Y. c #BFD6BC",
"T. c #CFC1AF",
"R. c #CDC3B4",
"E. c #CAC5B8",
"W. c #CDC4BA",
"Q. c #D3C5B5",
"!. c #D5C8B7",
"~. c #D5CBBC",
"^. c #DBCDBC",
"/. c #C8D5B9",
"(. c #CBDDBD",
"). c #D8D5BC",
"_. c #E8CAB8",
"`. c #F7CAB7",
"'. c #F2CEBC",
"]. c #E6D7BA",
"[. c #C9E5BA",
"{. c #D5CDC2",
"}. c #D8CEC2",
"|. c #CBDBC6",
" X c #D3D4C1",
".X c #DCD2C3",
"XX c #D7DEC6",
"oX c #DDD4C9",
"OX c #E6D8C8",
"+X c #F8D5C4",
"@X c #CCE2C4",
"#X c #C8E4C8",
"$X c #D3E5CA",
"%X c #D8E6C8",
"&X c #CDF3CE",
"*X c #DAEBD3",
"=X c #E5E5C3",
"-X c #E2E6D1",
";X c #F5E6D4",
":X c #F7E9D7",
">X c #F3E7DB",
",X c #F5E9DB",
"<X c #FBEDDC",
"1X c #FEF1DE",
"2X c #FBEEE2",
"3X c #EEF3EB",
"4X c #FEF2E3",
"5X c #FFF7E9",
/* pixels */
"q y y q y q y z.z.m.| | | q y k y y y y q y q e | X.X.e.&.Q V :.=.:.$.*.&./ B t e y q c X.X.X.X.X.G e y y y y t y b j.m.m.|  .X.",
"y c y y z e e j.l.N.J | | q y y e e y y q y y y X...7.3./ o.V $.$.:.-.:._ Q Q x.y y t y X.X.O.X.X.D e e y e q y e k j.z.z.X.O.O.",
"q D O.X.c y y 7.6.4.X.X.X.q y y e y S ..J 3.1.o.;.;.w.Q Q }.{.oXoX}.{.~.oX.X{.V V V / y O.| X.J G S e y n D S k t y 1.d.1.X.X.| ",
"q 1.m.C.Z t q X.J J X.X.X.q e z e q #.B.C.o.;.;.2.&.:.Q B oX~.~.{.{.{.~..X~.~.Q Q V V y X.O.H q q y e y #.C.z.Z t e t q k X.X.| ",
"q #.m.N.m q e @.X.X.X.X.| y y y q e 1.m.z.m 0 .   :.-.%.0.W B OX~.n.n..X!.4X4XR.}.H.U.  . #.J q y y q q ,.B.m.m y y y e c O.+.J ",
"q X.1.<.c y y X.X.X.m n m e q D ,.@.,.<.6.J D   . $.%.9.-.W W W.W.E.n.~.!.<X4XOXOXU.H.@   Z m y q m @.X.1.1.4.m y e y q y D D m ",
"q D X.X.b t t X.X...t q y y e ..B.m.4.J X.  . v.H.4X5X4X<X.XR.R.n.n.c.J.K.!..XOX;X2X2Xc.b..   y t X.B.z.6...| c e e y y y y r y ",
"y D O...c q t X.X.X.y y y y e | N.z.4.X.X.X   I.W.>X,X,X2X.X~.J.J.J.R.J.T.Q.^.5X4X5X4XW.b..   e q X.C.B.7.X.X.c y y y y e q q k ",
"y c c c k y q c z b q y k y e c S m J X.X.o.3.E.{.2X5X5X5X!.!.~.~.c.c.!.^.!.^.5X2X4X,XW.}.&.2.y k n H D S n m k y y k y b 1.,.+.",
"y y e e y y y y y e t y k q e k q q D O.@.;.o.-XoX>X5X,X<X!.~..X^.J.K.^.^.^.^.<X4X<X4XOX{.&.o.y q y q e e e t t t y y e m M.m.f.",
"q z y y c y c q q q c y y y e c y t D     I.I.{.{.oXR.4X5X1X<X.XQ.^.!.!.].;X1X4X4X^.~.J.oXP.V.O   e q q e e e y t y y e b m.B.5.",
"y c t q 7.z.z.c y y z.l.7.t y y y y y   o b.P.{.}.~.oX4X:X1X4X^.Q.OX!.^.].<X4X:X4X!.~..X{.I.b..   j.d.h.1.J ..c y y y t c ,.1.#.",
"y e t q d.l.m.c e q C.j.l.8 t y q e y .   c.U.c.U..X~.R.oX:X4X4X1X1X1X<X1X1X;XOX!.!.^.H.J.b.b.    z.j.B.6.J O.c t y y t k X.X.X.",
"y m m m 1.m.z.y t y z.z.6.y y c k z k   . !.R.J.H.~.{.oXOX:X1X<X<X<X1X<X<X<X;XOXOX^.^.J.K.W.P.    N.z.z.4...O.c q t y e k X.O.O.",
"q #.N.z.<.J O.y y y | | O.O.X.X.X.X.i.+ . F.a.K.R.J.J.W.~.~.~.~.^.^..X^.^.~.~.!.Q.K.F.K.c.c.c..   ..X.X.X.X...c q y y y y y y k ",
"q ,.z.l.<.J @.y q k @.O.X...O.O.X.O.D . % F.K.K.c.c.J..X X~.~.~.^.^.^.^.~.~.~.~.!.Q.K.J.R.F.Q..   O.X...X.O.O.c q z e y y y e y ",
"G #.h.h.,.X.O.k y k G H J O...O.X.O   a.u.L.L.K.K.R.J.U.J.H.J.J.J.J.J.J.J.J.J.J.F.F.F.K.a.K.F.a.x..   X.O.J | n t 0 b k y y y y ",
"m.4.J X...O.O.y y e q e c X.X.X.X.  @ q.D.S.L.F.a.J.J.J.H.H.J.J.J.J.J.H.J.J.J.H.F.J.K.F.T.F.F.p.p.. + J S q t e y c z.m.z.y c y ",
"z.h...O...X.| y e y q e c X.X.O.O.    S.S.] [ D.K.J.c.n.n.P.J.H.J.J.J.H.n.J.J.J.J.J.K.G.F.[ 9.a.F.. . O.Z q y q e t d.z.z.q q y ",
"#.J X.O.D D G b y k y y c D D H G     p.u.[ [ G.K.F.J.n.J.J.J.J.J.J.J.P.H.H.H.J.J.J.G.K.K.9.` a.p.. . | Z y e Z D G 7.d.7.D A G ",
"q D X.O.c e q y e y e y y e e y q e y   . &.*.8.) Q.x.J.J.J.J.J.J.J.n.J.H.H.J.H.H.U.H.-.w.%.$.Q Q E.q q e y y 4.B.z.O.J @.m.M.j.",
"y Z X.@.c t e k y y q t e y e k q e k     ;.:.*.0.K.!.c.n.J.n.n.n.J.R.c.F.J.U.H.H.U.P.) %.&.:.Q B y y y y q t 4.z.N.O.X.X.m.m.h.",
"y c b m y e c y y y y y c 1.,.X.t y H ;.o.    :.%.%.) %.y.c.P.P.b.P.P.U.U.U.c.0.$.$.$.w.&..   ;.3.y y y y y y @.7.7.O.X.O.7.4.1.",
"q y e e y y y q y e y e m C.z.6.q q #.;.o..   -.9.%.e._ w.c.P.P.P.I.I.U.J.J.c.w.-.:.:.( ;..   :.o.k q y y y e G X...X.| @.X.X. .",
"y y y t k y q c y y e q n j.z.4.q q ,.;.;.o   w.%.) $.$.%.-.-.%.%.-.0.%.%.-.-.$.&.-.:.:.:.  . y y z >Xy e t y H | X.@.| O.X.O.| ",
"y y t y y y q 6.7.7.J J J D m Z e q b &.2.  . =.&.w.-.0.0.-.-.-.%.%.%.0.%.-.-.%.-.:.$.;.;.    1.,...q y G #.#.X.X.X.X.X.X.m m m ",
"y y y y z y q l.z.z...X.| 5 q y e y k y q H X.F F ( :.$._ ` -.9.' ` ` -.%.-.:.-.:.>.:.F Q ;.;.C.B.4.8 e #.C.B.,.X...X.| O.r y y ",
"q c c c c k c h.z.l.O.X.X.y y k e y k y q J O.A ! ;.;.:.-.-.` ` ` ' ' -.&.-.:.&.=.:.=./ B 3.1.m.z.7.q y @.N.z.<.X.X.#.O.X.r y e ",
"q X.l.j.z.z.g.@.X.@.J X.O.J | O.X...Z 9 6 ; ; * < B F V W -.` -.) ' ' -.:.=.:.B C C C v.j.j.6.@.#.J e t z m n H O.X.c y c k k k ",
"q @.m.l.h.j.m.@...O.J X.X.| X.O...X.D 1 a & < < , C C / B :.$.:.-.:.( =.( >.( ^ / B C t z.z.z.| ..J q q y y e D X.X.c y e y k k ",
"y J l.h.h.z.l.| | X.J ..X.O.X.#.| w 6 S.q.].=X/.%X|.$Xd w ( F F D X.J ^ B C C h h XX X  o m.h...X.H y y c e y G #.O.k e k e e q ",
"y y q t t q e y e q y y c O.X.G q 9 6 A.Z._.].).%X@X|.h F D J  .H } H C ~ ~ B h 7 -X%XX   q X.@.X.O.X.O.D q y y y y k y r l c D ",
"r y t q y y e y e y q y y O.X.H q 9 u Z.{ A.u.=X(.s f |.|.d d v v x f f s h s %X*X/.XXXX X< < O.| X.O.X.D q y t y q y q y r q m ",
"r Z J J b y y y y k e y c | | G k w u A.Z.D.u.)./.s g $X*Xd d h f f g g f s j /.%X%XXX X-X* < #.X.@.J J D y y y n c b c c b l D ",
"q ,.C.B.D q y e q e y t y q e k y y k i > + + X $ g s Y.*X/.%X%X[.[.[.@X*X$X(.j s %X%Xs.y.o   #.X.J q t y e q 6.m.B.m.N.B.M.C.j.",
"q | l.N.D q t y k y y q y y k r e q r 4 a + .   X f f $X/.*X[.[.[.[.[.$X(.@X$Xs j XX).y.s.. + @.O.| q y y y t 6.m.B.z.z.l.m.k.j.",
"O.1.7.d.S e e X.X.X.y y k y q n +.X.X.| X.b y X   N f t.t.@X$X#X#X&X#X(.%Xt.t.f v   . OX+X'.+X2 p Z e y y e e O.1.4.h.j.h.d.h.h.",
"m.4.| X.n e q z.N.C.e y y y e J m.m.B.m.C.G q   X f N r.i.|.|.#X#X#X|.%XXXr.i.f v . . _.'.`.`.i : y y e k y y q q q J | | X.J | ",
"B.4.X.O.m q q z.l.B.e y y y e J m.m.z.j.B.n r             @         X o   @     O . . +X+X_.+Xi p k y t y q e t y e X.O.O.O.X.O.",
"1.J c b c y q #.1.1.q t y y r b | H +.4.4.,.,.        . . . . . .   . . + .   .   + . +X'.+X'.: 6 y t e D O.O.c y q D Z Z O. .O.",
"X.Z q t y e q X...| y y y e e y y q Z O.| d.z.  . - 6 T T T T Y a : : P P a M 3 9 . + : 2 2 p y y k y q @.B.m.G t e y e q X.X.O.",
"O.D t y c y t | O.X.y e y k y k q r Z ..J d.N.. . : : K K I U K K u u L T R M 3 - . + a : p p 2Xe y e q O.z.m.D q y e y y +.O.X.",
"O.D t q D | J O.X.O.q t n 7.7.#.y y b b b | ,.  . u : E I U K > > : : - u + . # . X.X.2.H H {.y y c y y J 1.1.| D D k y y m m Z ",
"X.D t e J O...O...O.y y k C.m.7.q e c r 4.D O.. . 6 : I K E T : : : : 6 ; + + . . O.X.X.X.O.X.e t y y q Z X.| X.O.X.c e y r e l ",
"X.D e y G ....X.X.X.y q c m.j.4.q t y y e G X.X.h.+ + Y Y L Y + + B.l.7.| X.X.X.X.O.X.O.| X...y e k y q D O.O.X.@...c q y r y l ",
"y y y e c k y k y k e y k #.@.X.q y k y e H X...O.. . Y a a R .   c c H ..O.X.X.X.X.X.X.b z b t y y y y k c k k k c k t y k y k ",
"y y y e y e y z y y k e k ..| X.y e y t q H X.O.O.  # & 6 & & O   y e m @.X.X.X.X.X...X.y q y y y c q y y y y q y e y e k k y y ",
"q y y y k e e y y 0 D m D X.O.J n m c y q G J J X.o   & & & =   $ 3Xe n O.X.X.X.| @.X.X.y y y t q y k c y q e y y 8 c t y y y l ",
"y y e y y e y y y y z.z.j.X.| 1.z.B.O.q t y e e X.V.X.  o     y q y y c y q k e e J X.O.e y e y t G l.z.@.t y y e y g.l.j.z.j.j.",
"q y y e y t y y y q z.z.l.| | 1.z.z.O.e y e y e O...6.        y q k e z e e c t q X.X.O.q y e y q D C.l.#.q e y e e h.z.z.m.z.j.",
"y m | X.b t e J J G d.h.7.X.X.@.7.d.J y e k e y G | | J J G k e k D S n c c y t y G ....y q y m b J z.z.X.y y y e y 6.z.l.k.j.h.",
"y X.N.B.J q e h.m.m.X.J | X.X.H q q z y t y e y y q e q q y t t D N.B.d.X.X.Z y q y e e y y c C.m.h.| | O.X.X.b y q | X...X.| O.",
"5 #.z.N.G y e h.z.z.| O.O.X.O.J q e k q y y t e y e k y y y y e Z B.z.7.J O.b e y k y t e e c B.z.j.J #.O.X.#.b q q J J X.O.X.X.",
"#.@.4.d.S y q 4.6.1.O.X.X.X.O.H y y Z O.@.n y y k y y y y k e y m j.7.4.| @.m y y y y y G J J 7.h.d.J O.J H J n y y X.X.@.J J J ",
"B.7.J O.m q q X.| | X.J O.@.X.J q q X.C.C.G e y k t y y t y y e k X.X.X.X.X.n y e y y y z.B.l.X.J X...O.m q q y e e J X.O.y q y ",
"l.4.X.X.S y y J X.X.X.X.O.J O.| q t X.m.m.H y e y e y y y y y y b X.O.X.X.X.m e e k t y z.z.B.J O.O.O.O.D q y q y e J X.X.y y y ",
"4.X.b c b e y n n m O.X.O.O.X.| q y H 4.4...D D #.,.1.y y c q y k Z m J O.X.m y y y y y @.X.@.m D G @.O.D y y n D Z X.X.@.y y y ",
"X.m q q y y y y q q O.X.X.O.X.J e q Z X.X.O.X.O.j.m.N.y y y y t q y q m O.O.m q e y e y y e y e q c X.O.D q e H @.X.O.X.O.y y t ",
"X.D y y y y y y c e X.X.X.X.X.G e e D X...O.| X.h.m.z.k y y y y y y e Z O.X.m y y k y y q e y y q n X.O.D q e D X.O.O.X.@.y y q ",
"X.J H J n y y y q y X.X.X.c c c y e k k y H X.X.#.#.#.6.7.6.q e y y t c b c c y e y y y 1.4.1.e y k b b c e y c b n n b n y q c ",
"O.O.O.@.m y y y y y X.X.X.q q y y e z y q G X.X.O.X.X.m.z.l.0 y k e q y y y y y e k y y z.z.z.e y k y e y e y y e y y y y y q n ",
"X./ J X.n y y y y y | X.| e t y k e c c k H X.X.X...| z.z.j.y y z e y k e y k y q c y y j.z.z.q e y y e k y y y q y y y e y q n ",
"@.H y y y y y y q y y k y y e y e e J h.h.#.| X.@.X...#.O.@.h.d.4.0 y y t y y y q 4.h.h.O.@.@.e e y y y y y y y y y y y y 7.6.h.",
"X.Z q r y y y y y y y y y y q k q q O.C.m.1.| J X.X.| ..J #.m.B.g.q e k e y c y 8 d.m.z.O.| O.e y y e y y y y y e y y y y z.z.z."
};
