/* XPM */
static char * collect1_xpm[] = {
"64 64 706 2",
"  	c #764923",
". 	c #7C4620",
"+ 	c #7B4720",
"@ 	c #794820",
"# 	c #7C4720",
"$ 	c #7B4820",
"% 	c #7B4620",
"& 	c #764922",
"* 	c #7B471F",
"= 	c #73421E",
"- 	c #6B3B1C",
"; 	c #6F3F1B",
"> 	c #623618",
", 	c #78451F",
"' 	c #76441E",
") 	c #75431E",
"! 	c #7A4720",
"~ 	c #764520",
"{ 	c #6F401D",
"] 	c #7B4821",
"^ 	c #7C4821",
"/ 	c #74431E",
"( 	c #6E401C",
"_ 	c #6E421C",
": 	c #74481E",
"< 	c #7E5021",
"[ 	c #835424",
"} 	c #885625",
"| 	c #885725",
"1 	c #845524",
"2 	c #7F5022",
"3 	c #76491F",
"4 	c #6F431D",
"5 	c #6D401C",
"6 	c #73431E",
"7 	c #7A4620",
"8 	c #7D4720",
"9 	c #7C471F",
"0 	c #79461F",
"a 	c #70411C",
"b 	c #72451D",
"c 	c #805022",
"d 	c #8B5A27",
"e 	c #96622A",
"f 	c #9D672D",
"g 	c #A06A2E",
"h 	c #A26B2E",
"i 	c #A36B2F",
"j 	c #A36C2F",
"k 	c #A26C2F",
"l 	c #A16A2E",
"m 	c #9E682D",
"n 	c #98632B",
"o 	c #8D5C27",
"p 	c #825323",
"q 	c #75481E",
"r 	c #74451E",
"s 	c #71461D",
"t 	c #8F5D27",
"u 	c #9F692E",
"v 	c #A56D30",
"w 	c #A56E30",
"x 	c #A66E30",
"y 	c #A46C2F",
"z 	c #9F6A2E",
"A 	c #936129",
"B 	c #764A1F",
"C 	c #72441D",
"D 	c #78461F",
"E 	c #7A4820",
"F 	c #74441F",
"G 	c #6D401F",
"H 	c #75451E",
"I 	c #7C4E21",
"J 	c #905F28",
"K 	c #A26B2F",
"L 	c #94612A",
"M 	c #7F5122",
"N 	c #75461E",
"O 	c #76441F",
"P 	c #7B481F",
"Q 	c #7A4721",
"R 	c #6F411E",
"S 	c #633B1B",
"T 	c #61381A",
"U 	c #623819",
"V 	c #643A19",
"W 	c #6D3F1B",
"X 	c #7A4B20",
"Y 	c #8C5B26",
"Z 	c #A76E30",
"` 	c #9E692E",
" .	c #9B662C",
"..	c #98652B",
"+.	c #98642B",
"@.	c #9A662C",
"#.	c #9D682D",
"$.	c #A16B2F",
"%.	c #A66D30",
"&.	c #93602A",
"*.	c #7B4D21",
"=.	c #7C4820",
"-.	c #653A1B",
";.	c #60381B",
">.	c #61391C",
",.	c #5F381A",
"'.	c #5F3A19",
").	c #835423",
"!.	c #97632B",
"~.	c #835524",
"{.	c #734A1E",
"].	c #69441A",
"^.	c #674216",
"/.	c #694314",
"(.	c #6C4413",
"_.	c #6D4413",
":.	c #6E4515",
"<.	c #734918",
"[.	c #794E1C",
"}.	c #805321",
"|.	c #8E5D27",
"1.	c #9F692D",
"2.	c #8B5A26",
"3.	c #75471E",
"4.	c #72411D",
"5.	c #63391A",
"6.	c #61391B",
"7.	c #5F371A",
"8.	c #67401C",
"9.	c #8C5C27",
"0.	c #895A26",
"a.	c #6A441A",
"b.	c #513110",
"c.	c #462907",
"d.	c #4B2C02",
"e.	c #543201",
"f.	c #5A3600",
"g.	c #5D3800",
"h.	c #5E3900",
"i.	c #5D3801",
"j.	c #5D3804",
"k.	c #613C0B",
"l.	c #6A4316",
"m.	c #96632A",
"n.	c #946029",
"o.	c #784A1F",
"p.	c #7B4721",
"q.	c #75431C",
"r.	c #5E371A",
"s.	c #6B421D",
"t.	c #A46D2F",
"u.	c #865725",
"v.	c #5C3915",
"w.	c #442508",
"x.	c #412502",
"y.	c #533100",
"z.	c #5B3600",
"A.	c #603A00",
"B.	c #5F3900",
"C.	c #5E3901",
"D.	c #5F3905",
"E.	c #633E0E",
"F.	c #774C1E",
"G.	c #99652B",
"H.	c #A56D2F",
"I.	c #9C662C",
"J.	c #784B20",
"K.	c #76451E",
"L.	c #794520",
"M.	c #673C1A",
"N.	c #6B421C",
"O.	c #95622A",
"P.	c #946129",
"Q.	c #69421A",
"R.	c #3E2006",
"S.	c #3F2201",
"T.	c #513000",
"U.	c #5E3800",
"V.	c #5C3802",
"W.	c #623E11",
"X.	c #885924",
"Y.	c #A66D2F",
"Z.	c #9D672C",
"`.	c #794C1F",
" +	c #784520",
".+	c #71451E",
"++	c #4F2E0F",
"@+	c #391C01",
"#+	c #4D2D00",
"$+	c #5C3800",
"%+	c #5B3706",
"&+	c #754C1C",
"*+	c #9A652C",
"=+	c #A66E2F",
"-+	c #784C1F",
";+	c #794720",
">+	c #7A461F",
",+	c #73451E",
"'+	c #935F28",
")+	c #9F682E",
"!+	c #7B4F21",
"~+	c #432509",
"{+	c #412300",
"]+	c #563300",
"^+	c #5F3A00",
"/+	c #583500",
"(+	c #6D4617",
"_+	c #9A652B",
":+	c #7B4722",
"<+	c #7A4722",
"[+	c #71421D",
"}+	c #8C5A26",
"|+	c #3F2106",
"1+	c #462700",
"2+	c #684213",
"3+	c #915F28",
"4+	c #794620",
"5+	c #825224",
"6+	c #764C1E",
"7+	c #4B2B00",
"8+	c #5C3700",
"9+	c #6A4314",
"0+	c #956229",
"a+	c #875725",
"b+	c #7A4822",
"c+	c #794822",
"d+	c #7C4721",
"e+	c #75471F",
"f+	c #96632B",
"g+	c #825523",
"h+	c #452609",
"i+	c #492A00",
"j+	c #5B3701",
"k+	c #704819",
"l+	c #9C672C",
"m+	c #683C1C",
"n+	c #6B3E1C",
"o+	c #72411E",
"p+	c #7B4621",
"q+	c #74441E",
"r+	c #885925",
"s+	c #4E2E0E",
"t+	c #442600",
"u+	c #593602",
"v+	c #7B501F",
"w+	c #8F5D28",
"x+	c #663C1B",
"y+	c #62381A",
"z+	c #6E3F1D",
"A+	c #7A4C20",
"B+	c #674119",
"C+	c #3D2000",
"D+	c #593500",
"E+	c #5C3909",
"F+	c #8F5E27",
"G+	c #744A1F",
"H+	c #61391A",
"I+	c #623919",
"J+	c #72431E",
"K+	c #77451F",
"L+	c #845624",
"M+	c #875825",
"N+	c #3E2105",
"O+	c #502F00",
"P+	c #694316",
"Q+	c #5F3919",
"R+	c #62391B",
"S+	c #60381A",
"T+	c #6C401D",
"U+	c #71441D",
"V+	c #583613",
"W+	c #432400",
"X+	c #5A3704",
"Y+	c #855724",
"Z+	c #A36C2E",
"`+	c #6D431C",
" @	c #633719",
".@	c #62371A",
"+@	c #7C481F",
"@@	c #7D5022",
"#@	c #835624",
"$@	c #3E2003",
"%@	c #533200",
"&@	c #5D3700",
"*@	c #512D00",
"=@	c #593200",
"-@	c #5F3901",
";@	c #6A4415",
">@	c #A0692E",
",@	c #8C5B27",
"'@	c #5D3619",
")@	c #64381B",
"!@	c #74421E",
"~@	c #7E4821",
"{@	c #936029",
"]@	c #643E17",
"^@	c #3F2301",
"/@	c #5D3400",
"(@	c #804100",
"_@	c #7B3D00",
":@	c #5D3200",
"<@	c #5F3B09",
"[@	c #8F5E28",
"}@	c #9A662B",
"|@	c #643D1B",
"1@	c #6E3F1E",
"2@	c #7A4621",
"3@	c #74461E",
"4@	c #45270A",
"5@	c #5D3500",
"6@	c #7C4000",
"7@	c #8C4701",
"8@	c #8A4401",
"9@	c #7F3D00",
"0@	c #603100",
"a@	c #5C3500",
"b@	c #5D3902",
"c@	c #754B1C",
"d@	c #A16B2E",
"e@	c #754A1F",
"f@	c #7A451F",
"g@	c #7B4520",
"h@	c #764B1F",
"i@	c #805323",
"j@	c #3C2004",
"k@	c #5A3500",
"l@	c #733D00",
"m@	c #8B4701",
"n@	c #703B0D",
"o@	c #723A0D",
"p@	c #853F02",
"q@	c #823C00",
"r@	c #683100",
"s@	c #855524",
"t@	c #76431E",
"u@	c #78431F",
"v@	c #815323",
"w@	c #633F18",
"x@	c #452601",
"y@	c #6E3C00",
"z@	c #8E4B01",
"A@	c #773E0C",
"B@	c #73421D",
"C@	c #6F3A12",
"D@	c #7D3A04",
"E@	c #833B00",
"F@	c #6D3100",
"G@	c #5A3000",
"H@	c #5B3700",
"I@	c #633E0C",
"J@	c #6C3E1B",
"K@	c #703F1C",
"L@	c #563412",
"M@	c #4C2C00",
"N@	c #673900",
"O@	c #8D4B00",
"P@	c #7A4007",
"Q@	c #72401B",
"R@	c #703D17",
"S@	c #723406",
"T@	c #823900",
"U@	c #743200",
"V@	c #5C2E00",
"W@	c #603B07",
"X@	c #865824",
"Y@	c #9B662B",
"Z@	c #6B3F1B",
"`@	c #693B1A",
" #	c #9B652B",
".#	c #95632A",
"+#	c #4F2E0D",
"@#	c #523000",
"##	c #613800",
"$#	c #874A00",
"%#	c #834704",
"&#	c #714018",
"*#	c #703F1A",
"=#	c #6C330B",
"-#	c #7D3401",
";#	c #783100",
">#	c #5E2B00",
",#	c #593300",
"'#	c #5E3904",
")#	c #815421",
"!#	c #71451D",
"~#	c #683D1A",
"{#	c #8E5E28",
"]#	c #4C2B0B",
"^#	c #553300",
"/#	c #7D4500",
"(#	c #8E4F02",
"_#	c #734014",
":#	c #79451F",
"<#	c #73411C",
"[#	c #6A3410",
"}#	c #773002",
"|#	c #793000",
"1#	c #632900",
"2#	c #563000",
"3#	c #5E3903",
"4#	c #7E511F",
"5#	c #A0692D",
"6#	c #774A1F",
"7#	c #6D401B",
"8#	c #A76F30",
"9#	c #8B5B27",
"0#	c #4A2A0A",
"a#	c #583400",
"b#	c #744200",
"c#	c #935201",
"d#	c #76420F",
"e#	c #75431D",
"f#	c #663412",
"g#	c #742E02",
"h#	c #7B2E00",
"i#	c #632500",
"j#	c #502E00",
"k#	c #5E3902",
"l#	c #7B501D",
"m#	c #A06B2E",
"n#	c #7D4E21",
"o#	c #6E411C",
"p#	c #A1692E",
"q#	c #8A5B27",
"r#	c #6C3E00",
"s#	c #945400",
"t#	c #81490C",
"u#	c #74421C",
"v#	c #693714",
"w#	c #732E02",
"x#	c #672700",
"y#	c #512E00",
"z#	c #7A4F1D",
"A#	c #573400",
"B#	c #523100",
"C#	c #874E00",
"D#	c #9A5801",
"E#	c #74410F",
"F#	c #6E3C18",
"G#	c #713005",
"H#	c #7E3100",
"I#	c #6F2A00",
"J#	c #562C00",
"K#	c #7E5022",
"L#	c #6A3E1B",
"M#	c #4C2C0B",
"N#	c #6C3F00",
"O#	c #8F5200",
"P#	c #8E5004",
"Q#	c #734111",
"R#	c #74431D",
"S#	c #6D3209",
"T#	c #7F3300",
"U#	c #762F00",
"V#	c #582B00",
"W#	c #7F521F",
"X#	c #7A4D21",
"Y#	c #683B1A",
"Z#	c #98642C",
"`#	c #50300F",
" $	c #633A00",
".$	c #844A00",
"+$	c #905001",
"@$	c #77410D",
"#$	c #71411B",
"$$	c #6A330D",
"%$	c #803600",
"&$	c #7D3300",
"*$	c #602C00",
"=$	c #5B3500",
"-$	c #825521",
";$	c #6C3D1B",
">$	c #966229",
",$	c #5D3600",
"'$	c #7B4400",
")$	c #904E01",
"!$	c #7A4107",
"~$	c #703F18",
"{$	c #6B3712",
"]$	c #7F3801",
"^$	c #823700",
"/$	c #6A2E00",
"($	c #613B08",
"_$	c #9E682C",
":$	c #74411D",
"<$	c #895925",
"[$	c #69441B",
"}$	c #462702",
"|$	c #593400",
"1$	c #6F3C00",
"2$	c #8B4900",
"3$	c #814304",
"4$	c #6F3D14",
"5$	c #6B3A16",
"6$	c #7B3803",
"7$	c #843B00",
"8$	c #723200",
"9$	c #583000",
"0$	c #653F0E",
"a$	c #926029",
"b$	c #99642B",
"c$	c #6A3D1B",
"d$	c #7B4E21",
"e$	c #865825",
"f$	c #3D2105",
"g$	c #653700",
"h$	c #824300",
"i$	c #864302",
"j$	c #723C10",
"k$	c #6C3A16",
"l$	c #783906",
"m$	c #873D00",
"n$	c #7B3600",
"o$	c #5D2F00",
"p$	c #6A4315",
"q$	c #8E5B27",
"r$	c #70401C",
"s$	c #75481F",
"t$	c #4C2D0D",
"u$	c #603500",
"v$	c #753B00",
"w$	c #844101",
"x$	c #7F3D03",
"y$	c #884001",
"z$	c #602F00",
"A$	c #5D3904",
"B$	c #A36D2F",
"C$	c #7D4F22",
"D$	c #6B431A",
"E$	c #412401",
"F$	c #5B3400",
"G$	c #6C3600",
"H$	c #853F00",
"I$	c #894000",
"J$	c #693200",
"K$	c #613C0C",
"L$	c #895826",
"M$	c #3F2204",
"N$	c #553200",
"O$	c #623200",
"P$	c #663000",
"Q$	c #6F4719",
"R$	c #98632A",
"S$	c #72431D",
"T$	c #74471E",
"U$	c #A36B2E",
"V$	c #643F18",
"W$	c #452700",
"X$	c #543200",
"Y$	c #5A3807",
"Z$	c #805122",
"`$	c #905E28",
" %	c #462909",
".%	c #71481B",
"+%	c #754923",
"@%	c #7E4F21",
"#%	c #724A1D",
"$%	c #613D0F",
"%%	c #97632A",
"&%	c #76451F",
"*%	c #744924",
"=%	c #77471F",
"-%	c #5D3A14",
";%	c #4A2B00",
">%	c #5A3706",
",%	c #77481F",
"'%	c #744922",
")%	c #4F300E",
"!%	c #4F2E00",
"~%	c #5C3703",
"{%	c #7B4F1E",
"]%	c #75441E",
"^%	c #8D5B27",
"/%	c #472A0A",
"(%	c #5D3803",
"_%	c #724919",
":%	c #925F29",
"<%	c #744923",
"[%	c #76481F",
"}%	c #482B0B",
"|%	c #4F2F00",
"1%	c #704719",
"2%	c #7C4D22",
"3%	c #77451E",
"4%	c #744925",
"5%	c #7C4621",
"6%	c #74421D",
"7%	c #7D4F21",
"8%	c #543410",
"9%	c #5D3907",
"0%	c #6D401D",
"a%	c #7C461F",
"b%	c #73431D",
"c%	c #805222",
"d%	c #A26A2E",
"e%	c #633F17",
"f%	c #462904",
"g%	c #613C0E",
"h%	c #825522",
"i%	c #623A19",
"j%	c #784620",
"k%	c #7D471F",
"l%	c #845423",
"m%	c #A1692D",
"n%	c #7D5121",
"o%	c #52330F",
"p%	c #462801",
"q%	c #593606",
"r%	c #744A1A",
"s%	c #916028",
"t%	c #875826",
"u%	c #623B19",
"v%	c #6D3E1C",
"w%	c #7C4822",
"x%	c #7B4822",
"y%	c #794821",
"z%	c #7D4721",
"A%	c #744B1E",
"B%	c #4A2E0C",
"C%	c #482B03",
"D%	c #5E3801",
"E%	c #5C3807",
"F%	c #684316",
"G%	c #8D5C26",
"H%	c #885926",
"I%	c #643D1C",
"J%	c #653B1B",
"K%	c #7C461E",
"L%	c #784721",
"M%	c #815222",
"N%	c #97642B",
"O%	c #815423",
"P%	c #623F17",
"Q%	c #4C2F0A",
"R%	c #4E3005",
"S%	c #573502",
"T%	c #5F3A01",
"U%	c #603A01",
"V%	c #603A02",
"W%	c #593707",
"X%	c #7A4F1F",
"Y%	c #643C19",
"Z%	c #6C3D1C",
"`%	c #784521",
" &	c #75431F",
".&	c #6A401D",
"+&	c #6B3F1C",
"@&	c #724320",
"#&	c #794722",
"$&	c #794621",
"%&	c #72421D",
"&&	c #714A1E",
"*&	c #664218",
"=&	c #664115",
"-&	c #6B4415",
";&	c #694317",
">&	c #6E471B",
",&	c #7F5322",
"'&	c #946229",
")&	c #A46D30",
"!&	c #815223",
"~&	c #6C3F1C",
"{&	c #754420",
"]&	c #78441F",
"^&	c #5E391C",
"/&	c #60371A",
"(&	c #673A1A",
"_&	c #754421",
":&	c #8A5A26",
"<&	c #9F682D",
"[&	c #794A1F",
"}&	c #74421F",
"|&	c #643819",
"1&	c #5F391D",
"2&	c #63381B",
"3&	c #63381A",
"4&	c #71421F",
"5&	c #7D481F",
"6&	c #71431D",
"7&	c #784320",
"8&	c #683A1A",
"9&	c #64391A",
"0&	c #744420",
"a&	c #8C5C26",
"b&	c #A06A2D",
"c&	c #915F29",
"d&	c #78481F",
"e&	c #7C4520",
"f&	c #673D1B",
"g&	c #693C1A",
"h&	c #71411E",
"i&	c #9E692D",
"j&	c #73441E",
"k&	c #7D451E",
"l&	c #774720",
"m&	c #70461D",
"n&	c #825423",
"o&	c #855624",
"p&	c #73491E",
"q&	c #6E431C",
"r&	c #77461F",
"s&	c #6F3F1C",
"t&	c #6A3D1A",
"u&	c #693D1B",
"v&	c #6E3F1C",
"w&	c #794721",
"  . + @ # + + + + + + + + + + + + + + + + + + + + + + + + + + + + + + + + + + + + + + + + + + + + + + + + + + + + + + + + $ + % ",
"& . * @ . + + + + + + + + . + + + + + + + + + + + + + + + + + + + + + + + + + + + + + + + + + + + + + + + + + + + + + + + + = - ",
"& . * @ . + + + + + + + + + + + + + + + + + + + + + + + + + + + + + + + + + + + + + + + + + + + + + + + + + + + + + + + + + ; > ",
"& . * @ . + + + + + + + + + + + + + + + + + + + + + + + + , ' ) ) ' , ! + + + + + + + + + + + + + + + + + + + + + + + + + + ~ { ",
"& . * @ . + + + + + + + + ] + + ^ + + + + + + ! , / ( _ : < [ } | 1 2 3 4 5 6 , 7 + + + + + + + + + + + + + + + + + + + + + + 8 ",
"& . * @ . + + + + + + + # 9 9 + ^ + + + + 0 a b c d e f g h i j j k h l m n o p q ( , + + + + + + + + + + + + + + + + + + + + # ",
"& . * @ . + + + + + + + ^ ] ] ^ # ^ ! 0 r s t u j v w x x x x x x x x x x x v y z A B C D 7 + + + + + + + + + + + + + + + + + # ",
"& . * @ . + + + @ E + ! F G G ) + , H I J K x x x x x x x x x x x x x x x x x x x x y L M N O + + + + + + + + + + + + + + + + # ",
"& . * @ . + + + P $ Q R S T U V W X Y h x x x x x Z x j `  ...+.+.+.@.#.$.%.Z x x x x x y &.*.H 0 + + + + + + + + + + + + + + # ",
"& . * @ . + + + + =.O -.;.>.,.'.). .x x x x x x y !.~.{.].^./.(._.(.:.<.[.}.|.u x x x x x Z 1.2.3.' + + + . + + + + + + + + + # ",
"& . * @ . + + + + + 4.5.6.7.8.9.h x x x x x m 0.a.b.c.d.e.f.g.h.h.h.h.h.i.j.k.l.}.m.y x x x x y n.o.' + * . . + + + + + p.p.+ # ",
"& . * @ . + + + + =.q.5.r.s.L t.x x x x h u.v.w.x.y.z.h.A.A.A.A.A.A.A.A.A.A.B.C.D.E.F.G.H.x x x H.I.J.K.+ + + + + + + + p.p.+ # ",
"& . * @ . + + + ^ # L.M.N.O.v x x x j P.Q.R.S.T.U.A.A.A.A.A.A.A.A.A.A.A.A.A.A.A.A.A.V.W.X.1.x x x Y.Z.`.' + + + ! + + + p.p.+ # ",
"& . * @ . + + + + +  +.+m.x x x x l u.++@+#+$+A.A.A.A.A.A.A.A.A.A.A.A.A.A.A.A.A.A.A.A.h.%+&+*+v x x =+Z.-+' + + ;+! + + + + + # ",
"& . * @ . + + + >+0 ,+'+x x x x )+!+~+{+]+^+A.A.A.A.A.A.A.A.A.A.A.A.A.A.A.A.A.A.A.A.A.A.A./+(+A x x x H._+o.' :+<+Q + 9 + + + # ",
"& . * @ . + + + + [+}+t.x x x 1.{.|+1+z.A.A.A.A.A.A.A.A.A.A.A.A.A.A.A.A.A.A.A.A.A.A.A.A.A.A.i.2+3+v x x H.n.N 4++ + + * + + + # ",
"& . * @ . + + + ) 5+g x x x g 6+|+7+8+A.A.A.A.A.A.A.A.A.A.A.A.A.A.A.A.A.A.A.A.A.A.A.A.A.A.A.A.i.9+0+x x x j a+F b+c+p.d++ + + # ",
"& . * @ . + + 0 e+f+x x x y g+h+i+g.A.A.A.A.A.A.A.A.A.A.A.A.A.A.A.A.A.A.A.A.A.A.A.A.A.A.A.A.A.A.j+k+l+x x x #.3 m+n+o+p+# * + # ",
"& . * @ . + + q+r+H.x x v J s+t+8+A.A.A.A.A.A.A.A.A.A.A.A.A.A.A.A.A.A.A.A.A.A.A.A.A.A.A.A.A.A.A.A.u+v+l x x x w+x+y+5.z+# 9 + # ",
"& . * @ . + 0 A+l+x x x #.B+C+D+A.A.A.A.A.A.A.A.A.A.A.A.A.A.A.A.A.A.A.A.A.A.A.A.A.A.A.A.A.A.A.A.A.^+E+F+w x x h G+6.H+I+J+^ + # ",
"& . * @ . + K+L+H.x x H.M+N+O+^+A.A.A.A.A.A.A.A.A.A.A.A.A.A.A.A.A.A.A.A.A.A.A.A.A.A.A.A.A.A.A.A.A.A.$+P+u x x x t Q+R+S+T+^ + # ",
"& . * @ . 7 U+ .x x x #.V+W+g.A.A.A.A.A.A.A.A.A.A.A.A.A.A.A.h.h.A.A.A.A.A.A.A.A.A.A.A.A.A.A.A.A.A.A.A.X+Y+v x x Z+`+ @.@( +@# # ",
"& . * @ . , @@H.x x w #@$@%@A.A.A.A.A.A.A.A.A.A.A.A.A.A.A.&@*@=@U.A.A.A.A.A.A.A.A.A.A.A.A.A.A.A.A.A.A.-@;@>@x x H.,@'@)@!@~@+ # ",
"& . * @ . q+{@x x x l ]@^@h.A.A.A.A.A.A.A.A.A.A.A.A.A.A.U./@(@_@:@8+A.A.A.A.A.A.A.A.A.A.A.A.A.A.A.A.A.^+<@[@x x x }@|@1@2@8 + # ",
"& . * @ . 3@f x x x n 4@O+A.A.A.A.A.A.A.A.A.A.A.A.A.A.B.5@6@7@8@9@0@a@B.A.A.A.A.A.A.A.A.A.A.A.A.A.A.A.A.b@c@=+x x d@e@f@p.+ + # ",
"& . * @ g@h@j x x x i@j@8+A.A.A.A.A.A.A.A.A.A.A.A.A.A.k@l@m@n@o@p@q@r@=@h.A.A.A.A.A.A.A.A.A.A.A.A.A.A.A.h.2+l+x x t.s@t@Q Q + # ",
"& . * @ u@v@v x x %.w@x@h.A.A.A.A.A.A.A.A.A.A.A.A.A.f.y@z@A@4.B@C@D@E@F@G@H@A.A.A.A.A.A.A.A.A.A.A.A.A.A.^+I@[@Z x v P.J@Q Q + # ",
"& . * @ K@w+w x x 1.L@M@^+A.A.A.A.A.A.A.A.A.A.A.A.H@N@O@P@Q@+ + ' R@S@T@U@V@k@A.A.A.A.A.A.A.A.A.A.A.A.A.A.W@X@x x x Y@Z@+ + + # ",
"& . * @ `@ #x x Z .#+#@#A.A.A.A.A.A.A.A.A.A.A.A.h.##$#%#&#>++ + + 0 *#=#-#;#>#,#B.A.A.A.A.A.A.A.A.A.A.A.A.'#)#t.x x )+!#+ + + # ",
"& . * @ ~#m x x Z {#]#^#A.A.A.A.A.A.A.A.A.A.A.B.&@/#(#_#:#+ + + + + 7 <#[#}#|#1#2#U.A.A.A.A.A.A.A.A.A.A.A.3#4#j x x 5#6#7 + + # ",
"& . * @ 7#>@x x 8#9#0#a#A.A.A.A.A.A.A.A.A.A.A.&@b#c#d#e#+ + + + + + + + ) f#g#h#i#j#^+A.A.A.A.A.A.A.A.A.A.k#l#K x x m#n#:#+ + # ",
"& . * @ o#p#x x 8#q#0#D+A.A.A.A.A.A.A.A.A.A.8+r#s#t#u#+ + + + + + + + + , v#w#h#x#y#^+A.A.A.A.A.A.A.A.A.A.C.z#$.x x d@2 , + + # ",
"& . * @ _ p#x x 8#9#0#A#A.A.A.A.A.A.A.A.A.A.B#C#D#E#) + + + + + + + + 0 F#G#H#I#J#B.A.A.A.A.A.A.A.A.A.A.A.b@l#K x x m#K#, + + # ",
"& . * @ L#>@x x Z J M#^#A.A.A.A.A.A.A.A.A.A.f.N#O#P#Q#R#+ + + + + + + Q@S#T#U#V#&@A.A.A.A.A.A.A.A.A.A.A.A.3#W#j x x 5#X#0 + + # ",
"& . * @ Y#Z.x x x Z#`#@#A.A.A.A.A.A.A.A.A.A.A.g. $.$+$@$#$! + + + + e#$$%$&$*$=$A.A.A.A.A.A.A.A.A.A.A.A.A.D.-$t.x x u q + + + # ",
"& . * @ ;$>$x x x g V+#+A.A.A.A.A.A.A.A.A.A.A.A.U.,$'$)$!$~$, + + , {$]$^$/$=@B.A.A.A.A.A.A.A.A.A.A.A.A.A.($r+x x x _$o#+ + + # ",
"& . * @ :$<$w x x x [$}$B.A.A.A.A.A.A.A.A.A.A.A.A.B.|$1$2$3$4$' 0 5$6$7$8$9$h.A.A.A.A.A.A.A.A.A.A.A.A.A.B.0$a$Z x x b$c$+ + + # ",
"& . * @ f@d$t.x x x e$f$8+A.A.A.A.A.A.A.A.A.A.A.A.A.A./+g$h$i$j$k$l$m$n$o$$+A.A.A.A.A.A.A.A.A.A.A.A.A.A.h.p$u x x v q$r$+ + + # ",
"& . * @ . s$l x x x @.t$T.A.A.A.A.A.A.A.A.A.A.A.A.A.A.A.8+u$v$w$x$y$E@z$f.A.A.A.A.A.A.A.A.A.A.A.A.A.A.A.A$v+x x x B$C$, + + + # ",
"& . * @ . r *+x x x K D$E$h.A.A.A.A.A.A.A.A.A.A.A.A.A.A.A.h.F$G$H$I$J$|$A.A.A.A.A.A.A.A.A.A.A.A.A.A.A.A.K$0+x x x m q + + + + # ",
"& . * @ . ' L$Y.x x w 9.M$N$A.A.A.A.A.A.A.A.A.A.A.A.A.A.A.A.B.z.O$P$=@B.A.A.A.A.A.A.A.A.A.A.A.A.A.A.A.-@Q$d@x x x R$S$+ + + + # ",
"& . * @ . 0 T$U$x x x l V$W$h.A.A.A.A.A.A.A.A.A.A.A.A.A.A.A.A.A.z.X$B.A.A.A.A.A.A.A.A.A.A.A.A.A.A.A.A.Y$9.x x x H.Z$' + + + + # ",
"& . * @ . ! q+w+x x x v `$ %y.A.A.A.A.A.A.A.A.A.A.A.A.A.A.A.A.A.A.A.A.A.A.A.A.A.A.A.A.A.A.A.A.A.A.A.j+.%j x x x I._ ! + + + + # ",
"+%. * @ . + D @%h x x x g #%E$z.A.A.A.A.A.A.A.A.A.A.A.A.A.A.A.A.A.A.A.A.A.A.A.A.A.A.A.A.A.A.A.A.A.h.$%%%x x x t.).&%+ + + + + # ",
"*%. * @ . . g@=%{@x x x x %%-%;%U.A.A.A.A.A.A.A.A.A.A.A.A.A.A.A.A.A.A.A.A.A.A.A.A.A.A.A.A.A.A.A.B.>%Y+j x x x *+,%7 + + + + + # ",
"'%. * @ . + + ' @%1.x x x H.,@)%!%h.A.A.A.A.A.A.A.A.A.A.A.A.A.A.A.A.A.A.A.A.A.A.A.A.A.A.A.A.A.A.~%{%>@x x x y p ]%+ + + E @ + # ",
"'%. * @ + + + + S$^%y x x x y g+/%B#h.A.A.A.A.A.A.A.A.A.A.A.A.A.A.A.A.A.A.A.A.A.A.A.A.A.A.A.A.(%_% .x x x v :%N 0 + * + ! ! + # ",
"<%. % @ + + + + 0 [%b$x x x x j g+}%|%U.A.A.A.A.A.A.A.A.A.A.A.A.A.A.A.A.A.A.A.A.A.A.A.A.A.^+A$1% .x x x x Z.2%3%* + + + + + + # ",
"4%5%% @ + + + + + 6%7%f x x x x t.L+8%7+z.A.A.A.A.A.A.A.A.A.A.A.A.A.A.A.A.A.A.A.A.A.A.A.h.9%c@@.x x x x d@v@0%=.* + + + + + + # ",
"4%# a%+ 9 9 9 + + ^ b%c%d%x x x x t.J e%f%X$B.A.A.A.A.A.A.A.A.A.A.A.A.A.A.A.A.A.A.A.^+H@g%h%1.x x x x y M+i%j%^ + + + + + + + # ",
"4%# a%! k%9 9 + + + ! b%l%m%x x x x w  .n%o%p%A#A.A.A.A.A.A.A.A.A.A.A.A.A.A.A.A.A.$+q%r%s%j x x x x t.t%u%v%w%x%+ + + + Q Q + # ",
"*%a%* y%z%# * + + >+>+7 H ).d%x x x x x k !.A%B%C%A#g.^+A.A.A.A.A.A.A.A.A.A.B.D%E%F%G%5#w x x x x y H%I%J%, ^ Q + + + + Q Q + # ",
"& K%+ L%+ b+Q + * * + + 7 q+M%f w x x x x x y N%O%P%Q%R%S%D%-@T%T%T%U%V%A$W%W.X%J g v x x x x x l ~.Y%Z%`%] + + + + + @ ! + + # ",
"& 9  &.&+&@&#&$&+ * + + + + %&I +.y x x x x x x v i  .r+&&*&=&/.p$-&;&>&,&'&g )&x x x x x x H.I.!&~&{&<+z%p.+ + + + + ! ! + + # ",
"  ]&Y#^&/&(&_&Q E + # % + + + ) e+:&<&x x x x x x x x Z 8#=+h z u l y 8#8#x x x x x x x x l t [&R#=.=.# # + + + + + + + + + + # ",
"+%}&|&1&2&3&4&5&@ E + + + + + + 0 [+I `$5#x x x x x x x x x x x x x x x x x x x x x x h {@!&6&, + + + + + + + + + + + + + + + # ",
"  7&8&^&/&9&0&# @ E + + + + + + + + O =%A+a&b&H.x x x x x x x x x x x x x x x x v K c&I d&]%+ + + + + + + + + + + + + + + + + # ",
"+%e&!@f&g&h&Q + E $ 9 + + + + + + + + 7 , r q 1 a$i&H.w w x x x x x x x w w g L | 6#j&K+7 + + + + + + + + + + + + + + + + + + # ",
"4%k&k%l&, + + ^ + + * + + + + + + + + + + + 7 D H 4 m&n&3+_+_$1.1._$}@{@o&p&q&r r&0 ! + + + + + + + + + + + + + + + + + + + + # ",
"4%. 9 E d+9 9 + >++ >++ + + + + + + + + + + + + + + ! ' s&t&u&L#L#u&u&v&/ 7 + + + + + + + + + + + + + + + + + + + + + + + + + # ",
"+%. * @ + # 9 + + + + + + + + + + + + + + + + + + + + + + + + + + + + + + + + + + + + + + + + + + + + + + + + + + + + + + + + # ",
"& a%+ w&+ ! ! + + + + + + + + + + + + + + + + + + + + + + + + + + + + + + + + + + + + + + + + + + + + + + + + + + + + + + + + # ",
"& 9 p+#&+ @ E + + + + + + + + + + + + + + + + + + + + + + + + + + + + + + + + + + + + + + + + + + + + + + + + + + + + + + + + # ",
"'%. + ;+* + + + + + + + + + + + + + + + + + + + + + + + + + + + + + + + + + + + + + + + + + + + + + + + + + + + + + + + + + + # "};
