/* XPM */
static char * collect4_xpm[] = {
"64 64 272 2",
"  	c #764923",
". 	c #7C4620",
"+ 	c #7B4720",
"@ 	c #794820",
"# 	c #7C4720",
"$ 	c #7B4820",
"% 	c #7B4620",
"& 	c #764922",
"* 	c #7B471F",
"= 	c #73421E",
"- 	c #6B3B1C",
"; 	c #6F3F1B",
"> 	c #623618",
", 	c #76441E",
"' 	c #6E3F1B",
") 	c #70401C",
"! 	c #78451F",
"~ 	c #764520",
"{ 	c #6F401D",
"] 	c #7B4821",
"^ 	c #7C4821",
"/ 	c #71401A",
"( 	c #713E0A",
"_ 	c #794108",
": 	c #733E0D",
"< 	c #7D4720",
"[ 	c #7C471F",
"} 	c #7A4720",
"| 	c #713F18",
"1 	c #774003",
"2 	c #834700",
"3 	c #794206",
"4 	c #6D3E1B",
"5 	c #714018",
"6 	c #7A4206",
"7 	c #7A4820",
"8 	c #74441F",
"9 	c #6D401F",
"0 	c #75431E",
"a 	c #704018",
"b 	c #7B481F",
"c 	c #7A4721",
"d 	c #6F411E",
"e 	c #633B1B",
"f 	c #61381A",
"g 	c #623819",
"h 	c #653A19",
"i 	c #72411D",
"j 	c #7C4820",
"k 	c #76441F",
"l 	c #653A1B",
"m 	c #60381B",
"n 	c #61391C",
"o 	c #61391B",
"p 	c #60381A",
"q 	c #673A1A",
"r 	c #774420",
"s 	c #63391A",
"t 	c #62391B",
"u 	c #62381B",
"v 	c #63381A",
"w 	c #724220",
"x 	c #7D4821",
"y 	c #714019",
"z 	c #774004",
"A 	c #7B4721",
"B 	c #75431C",
"C 	c #61381B",
"D 	c #633A1B",
"E 	c #7D4820",
"F 	c #794520",
"G 	c #6A3D1B",
"H 	c #60391C",
"I 	c #61391A",
"J 	c #6B3E1B",
"K 	c #784721",
"L 	c #774104",
"M 	c #6A3D1C",
"N 	c #653B1D",
"O 	c #653C1D",
"P 	c #6B3E1D",
"Q 	c #764620",
"R 	c #7A461F",
"S 	c #794720",
"T 	c #794621",
"U 	c #764420",
"V 	c #774520",
"W 	c #7A4620",
"X 	c #6F3F19",
"Y 	c #754004",
"Z 	c #7B4722",
"` 	c #7A4722",
" .	c #6E3F19",
"..	c #743F04",
"+.	c #6E3E19",
"@.	c #743E04",
"#.	c #7A4822",
"$.	c #794822",
"%.	c #7C4721",
"&.	c #6F3E19",
"*.	c #784520",
"=.	c #71401E",
"-.	c #6C3E1D",
";.	c #6B3E1C",
">.	c #72411E",
",.	c #7B4621",
"'.	c #6E3E1A",
").	c #733D04",
"!.	c #693D1C",
"~.	c #64381B",
"{.	c #6E3F1D",
"].	c #733E05",
"^.	c #844700",
"/.	c #6E3F1C",
"(.	c #63391C",
"_.	c #623919",
":.	c #72431E",
"<.	c #6E3F1A",
"[.	c #7C461F",
"}.	c #683C1B",
"|.	c #5F381A",
"1.	c #62391A",
"2.	c #6C401D",
"3.	c #683C1E",
"4.	c #5F371C",
"5.	c #623A1B",
"6.	c #643819",
"7.	c #62371A",
"8.	c #6E401C",
"9.	c #7C481F",
"0.	c #7B4822",
"a.	c #6E3E1F",
"b.	c #63391B",
"c.	c #74421E",
"d.	c #7E4821",
"e.	c #6F3E1B",
"f.	c #733E06",
"g.	c #7C4722",
"h.	c #774421",
"i.	c #693C1A",
"j.	c #63381B",
"k.	c #6E3F1E",
"l.	c #7A4621",
"m.	c #6E401D",
"n.	c #6B3D1D",
"o.	c #6B3E1E",
"p.	c #72421E",
"q.	c #7B461F",
"r.	c #794721",
"s.	c #794722",
"t.	c #7A4520",
"u.	c #6D3F1B",
"v.	c #733F07",
"w.	c #77461D",
"x.	c #6D401C",
"y.	c #73411E",
"z.	c #77451F",
"A.	c #683C1A",
"B.	c #643818",
"C.	c #71421D",
"D.	c #73411D",
"E.	c #61371B",
"F.	c #60391D",
"G.	c #613A1E",
"H.	c #693C1B",
"I.	c #7A471F",
"J.	c #63371A",
"K.	c #62381A",
"L.	c #613719",
"M.	c #6A3D1A",
"N.	c #784723",
"O.	c #723E08",
"P.	c #794620",
"Q.	c #6B3D1C",
"R.	c #5F371A",
"S.	c #74431E",
"T.	c #774621",
"U.	c #71421F",
"V.	c #74431F",
"W.	c #7D4620",
"X.	c #723D08",
"Y.	c #6F3F1C",
"Z.	c #713D09",
"`.	c #6F401C",
" +	c #713E09",
".+	c #824700",
"++	c #824600",
"@+	c #713D0A",
"#+	c #703D0A",
"$+	c #703C0A",
"%+	c #754923",
"&+	c #71411D",
"*+	c #713D0B",
"=+	c #744420",
"-+	c #70401E",
";+	c #784621",
">+	c #744924",
",+	c #713E0C",
"'+	c #814600",
")+	c #79461F",
"!+	c #64391A",
"~+	c #613819",
"{+	c #633819",
"]+	c #693A1B",
"^+	c #75421D",
"/+	c #744922",
"(+	c #613A1B",
"_+	c #603A1B",
":+	c #643A1B",
"<+	c #75441E",
"[+	c #623A1C",
"}+	c #613A1C",
"|+	c #744923",
"1+	c #73421D",
"2+	c #703E0C",
"3+	c #6D3E1C",
"4+	c #633A1A",
"5+	c #653A1A",
"6+	c #774521",
"7+	c #744925",
"8+	c #7C4621",
"9+	c #74421D",
"0+	c #703D0D",
"a+	c #804500",
"b+	c #653919",
"c+	c #5F3A1E",
"d+	c #633919",
"e+	c #643919",
"f+	c #673B1B",
"g+	c #784620",
"h+	c #7D471F",
"i+	c #7C4822",
"j+	c #794821",
"k+	c #7D4721",
"l+	c #71401C",
"m+	c #673C1C",
"n+	c #7C461E",
"o+	c #703D0E",
"p+	c #7F4500",
"q+	c #683D1B",
"r+	c #653B1B",
"s+	c #663B1A",
"t+	c #784521",
"u+	c #75431F",
"v+	c #6A401D",
"w+	c #6B3F1C",
"x+	c #724320",
"y+	c #774620",
"z+	c #78441F",
"A+	c #683B1A",
"B+	c #5E391C",
"C+	c #60371A",
"D+	c #754421",
"E+	c #74421F",
"F+	c #5F391D",
"G+	c #7D481F",
"H+	c #6F3D0E",
"I+	c #784320",
"J+	c #683A1A",
"K+	c #6F3D0F",
"L+	c #7F4400",
"M+	c #7C4520",
"N+	c #673D1B",
"O+	c #71411E",
"P+	c #794106",
"Q+	c #7D451E",
"R+	c #774720",
"S+	c #6D3C11",
"T+	c #7C4304",
"U+	c #7B4204",
"V+	c #733F0A",
"W+	c #6A3C1A",
"  . + @ # + + + + + + + + + + + + + + + + + + + + + + + + + + + + + + + + + + + + + + + + + + + + + + + + + + + + + + + + $ + % ",
"& . * @ . + + + + + + + + . + + + + + + + + + + + + + + + + + + + + + + + + + + + + + + + + + + + + + + + + + + + + + + + + = - ",
"& . * @ . + + + + + + + + + + + + + + + + + + + + + + + + + + + + + + + + + + + + + + + + + + + + + + + + + + + + + + + + + ; > ",
"& . * @ . + + + + + + + + + + + + + + + + + + + + + + , ; ' ' ' ' ' ' ' ' ) ! + + + + + + + + + + + + + + + + + + + + + + + ~ { ",
"& . * @ . + + + + + + + + ] + + ^ + + + + + + + + + + / ( _ _ _ _ _ _ _ _ : ) + + + + + + + + + + + + + + + + + + + + + + + + < ",
"& . * @ . + + + + + + + # [ [ + ^ + + + + + + + + + } | 1 2 2 2 2 2 2 2 2 3 4 + + + + + + + + + + + + + + + + + + + + + + + + # ",
"& . * @ . + + + + + + + ^ ] ] ^ # ^ + + + + + + + + + 5 1 2 2 2 2 2 2 2 2 6 4 + + + + + + + + + + + + + + + + + + + + + + + + # ",
"& . * @ . + + + @ 7 + } 8 9 9 0 + + + + + + + + + + + a 1 2 2 2 2 2 2 2 2 6 4 + + + + + + + + + + + + + + + + + + + + + + + + # ",
"& . * @ . + + + b $ c d e f g h i # + + + + + + + + + a 1 2 2 2 2 2 2 2 2 6 4 + + + + + + + + + + + + + + + + + + + + + + + + # ",
"& . * @ . + + + + j k l m n o p q r ^ + c + + + + + + 5 1 2 2 2 2 2 2 2 2 6 4 + + + + + + + + + + + + + + . + + + + + + + + + # ",
"& . * @ . + + + + + i s o t t u v w x } c * + + + + + y z 2 2 2 2 2 2 2 2 6 4 + + + + + + + + + + + + + * . . + + + + + A A + # ",
"& . * @ . + + + + j B s C t t m D 8 E A A + + + + + + y z 2 2 2 2 2 2 2 2 6 4 + + + + + + + + + + + + + + + + + + + + + A A + # ",
"& . * @ . + + + ^ # F G g o H I J K * + A + + + + + + y L 2 2 2 2 2 2 2 2 6 4 + + + + + + + + + + + + + + + + + } + + + A A + # ",
"& . * @ . + + + + + A ~ M N O P Q $ * + R + + + + + + y L 2 2 2 2 2 2 2 2 6 4 + + + + + + + + + + + + + + + + + S } + + + + + # ",
"& . * @ . + + + R + + ] T U V W + + + + + + + + + + + X Y 2 2 2 2 2 2 2 2 6 4 + + + + + + + + + + + + + + + + Z ` c + [ + + + # ",
"& . * @ . + + + + + + + + ] + } 7 # + + + + + + + + +  ...2 2 2 2 2 2 2 2 6 4 + + + + + + + + + + + + + + + + A + + + * + + + # ",
"& . * @ . + + + + + + + A A + } } + + + + + + + + + + +.@.2 2 2 2 2 2 2 2 6 4 + + + + + + + + + + + + + + + # Z #.$.A %.+ + + # ",
"& . * @ . + + + + + + + A A + * * + + + + + + + + + + &.@.2 2 2 2 2 2 2 2 6 4 + + + + + + + + + + + + + + A *.=.-.;.>.,.# * + # ",
"& . * @ . + + + + + + + + + + + + + + + + + + + + + + '.).2 2 2 2 2 2 2 2 6 4 + + + + + + + + + + + + + # V !.n ~.v s {.# [ + # ",
"& . * @ . + + + + + + + + + + + + 7 + + + + + + + + + '.].^.2 2 2 2 2 2 2 6 4 + + + + + + + + + + + . . < /.p o (.t I _.:.^ + # ",
"& . * @ . + + + + + + + + + + + + 7 + + + + + + + + + <.].^.2 2 2 2 2 2 2 6 4 + + + + + + + + + + + . %.[.}.|.1.t t t p 2.^ + # ",
"& . * @ . + + + + + + + + + + + + + + + + + + + + + + <.].^.2 2 2 2 2 2 2 6 4 + + + + + + + + + + + R $ S 3.4.t 5.s 6.7.8.9.# # ",
"& . * @ . + + + + + + + + + + + + + + + + + + + + + + <.].^.2 2 2 2 2 2 2 6 4 + + + + + + + + + + + + $ 0.a.f n (.b.t ~.c.d.+ # ",
"& . * @ . + + + + + + + + + + + + + + + + + + + + + + e.f.^.2 2 2 2 2 2 2 6 4 + + + + + + + + + + + + + g.h.i.I j.b.b.k.l.< + # ",
"& . * @ . + + + + + + + + + + + + } c % . + A + [ + + ' f.^.2 2 2 2 2 2 2 6 4 + + + + + + + + + + + + + $ %.! m.n.o.p.q.A + + # ",
"& . * @ . + + + + + + + + + + + + r.s.c + + Z A + + + ' f.^.2 2 2 2 2 2 2 6 4 + + + + + + + + + + + + + + + ^ + t.W A # c c + # ",
"& . * @ . + + + + + + + + + + + + } A + . + A A + + + ' f.^.2 2 2 2 2 2 2 6 4 + + + + + + + + + + + + + + + + # . A c + c c + # ",
"& . * @ . + + + + + + + + + + + + ^ $ + %.+ + + + + + u.v.^.2 2 2 2 2 2 2 6 4 + + + + + + + + + + + + + + + + + + c s.+ + + + # ",
"& . * @ . + + + + + + + + + + + $ w.x.P y.q.# + @ + + u.v.^.2 2 2 2 2 2 2 6 4 + + + + + + + + + + + + + + + + + + + + + + + + # ",
"& . * @ . + + + + + + + + + + # z.A.f f B.C.] + 7 + + u.v.^.2 2 2 2 2 2 2 6 4 + + + + + + + + + + + + + + + + + + + + + + + + # ",
"& . * @ . + + + + + + + + + + %.D.E.F.G.m H.I.< c + + u.v.^.2 2 2 2 2 2 2 6 4 + + + + + + + + + + + + + + + + + + + + + + + + # ",
"& . * @ . + + + + + + + + + + j c.J.K.t L.M.* %.N.c + ' O.2 2 2 2 2 2 2 2 6 4 + + + + + + + + + + + * * + + + + + + + + + + + # ",
"& . * @ . + + + + + + + + + + + P.Q.p R.h S.^ + c + + ' O.2 2 2 2 2 2 2 2 6 4 + + + + + + + + + + + + + + + + + + + + + + + + # ",
"& . * @ . + + + + + + + + + + + + T.U.m.V.+ # + + . + ' O.2 2 2 2 2 2 2 2 6 4 + + + + + + + + + + + + + + + + + + + + + + + + # ",
"& . * @ . + + + + + + + + + + + + + j x W.[.+ + + . + ' X.2 2 2 2 2 2 2 2 6 4 + + + + + + + + + + + + + + + + + + + + + + + + # ",
"& . * @ . + + + + + + + + + + + + R + + q.R + + + + + Y.Z.2 2 2 2 2 2 2 2 6 4 + + + + + + + + + + + + + + + + + + + + + + + + # ",
"& . * @ . + + + + + + + + + + + + + + + + + + + + + + `. +.+2 2 2 2 2 2 2 6 4 + + + + + + + + + + + + + + + + + + + + + + + + # ",
"& . * @ . + + + + + + + + + + + + A + + + + + + + + + `. +2 2 2 2 2 2 2 2 6 4 + + + + + + + + + + + + + + + + + + + + + + + + # ",
"& . * @ . + + + + + + + + + + + + s.c + + + + + + + + `. +++2 2 2 2 2 2 2 6 4 + + + + + + + + + + + + + + + + + + + + + + + + # ",
"& . * @ . + + + + + + + + + + + + c + + + + + + + + + ) @+++2 2 2 2 2 2 2 6 4 + + + + + + + + + + + + + + + + + + + + + + + + # ",
"& . * @ . + + + + + + + + + + + + + + + + + + + + + + ) #+++2 2 2 2 2 2 2 6 4 + + + + + + + + + + + + + + + + + + + + + + + + # ",
"& . * @ . + + + + + + + + + + + + + + + + + + + + + + ) #+++2 2 2 2 2 2 2 6 4 + + + + + + + + + + + + + + + + + + + + + + + + # ",
"& . * @ . + + + + + + + + + + + + + + + + + + + + + + ) $+++2 2 2 2 2 2 2 6 4 + + + + + + + # E E x E # + + + + + + + + + + + # ",
"%+. * @ . + + + + + + + + + + + + + + + + + + + + + + &+*+++2 2 2 2 2 2 2 6 4 + + + + + + + r.=+-+{ p.;+A R + ^ + + + + + + + # ",
">+. * @ . . . + + + + + + + + + + + + + + + + + + + + i ,+'+2 2 2 2 2 2 2 6 4 + + + + + j )+' !+~+~+{+]+^+A + + + + + + + + + # ",
"/+. * @ . + + + + + + + + + + + + + + + + + + + + + + i ,+'+2 2 2 2 2 2 2 6 4 + + + + < + ;.I n t (+_+m :+<+j + + + + + 7 @ + # ",
"/+. * @ + + + + + + + + + + + + + + + + + + + + + + + i ,+'+2 2 2 2 2 2 2 6 4 [ * + + j S.b.s s t t [+}+f Q.` # + + * + } } + # ",
"|+. % @ + + + + + + + + + + + + + + + + + + + + + + + 1+2+'+2 2 2 2 2 2 2 6 4 * + c % + 3+u 4+4+t t t t t 5+6+j * + + + + + + # ",
"7+8+% @ + + + + + + + + + + + + + + + + + + + + + + + 9+0+a+2 2 2 2 2 2 2 6 4 + c s.. W Q.u (+5.t f t t o b+~ j * + + + + + + # ",
"7+# [.+ [ [ [ + + ^ + + + + + + + + + + + + + + + + + 9+0+a+2 2 2 2 2 2 2 6 4 + + + + + m.c+s d+t 1.e+e+C f+g+^ + + + + + + + # ",
"7+# [.} h+[ [ + + + + + + + + + + + + + + + + + + + + 9+0+a+2 2 2 2 2 2 2 6 4 + + * + ^ U 5+b.t f 1.b.D L./.i+0.+ + + + c c + # ",
">+[.* j+k+# * + + R R + + + + + + + + + + + + + + + + S.0+a+2 2 2 2 2 2 2 6 4 + + * + # A l+b.H K.K.o n m+! ^ c + + + + c c + # ",
"& n++ K + #.c + * * + + + + + + + + + + + + + + + + + 0 o+p+2 2 2 2 2 2 2 6 4 + + + + + ^ + i q+r+5+s+3+t+] + + + + + @ } + + # ",
"& [ u+v+w+x+s.T + * + + + + + + + + + + + + + + + + + 0 o+p+2 2 2 2 2 2 2 6 4 + + + + + + # ] y+8 V.~ ` k+A + + + + + } } + + # ",
"  z+A+B+C+q D+c 7 + # % + + + + + + + + + + + + + + + 0 o+p+2 2 2 2 2 2 2 6 4 + + R + + + + + # j j j # # + + + + + + + + + + # ",
"%+E+6.F+j.v U.G+@ 7 + + + + + + + + + + + + + + + + + <+H+p+2 2 2 2 2 2 2 6 4 + + + + + + + + + + + + + + + + + + + + + + + + # ",
"  I+J+B+C+!+=+# @ 7 + + + + + + + + + + + + + + + + + , K+L+2 2 2 2 2 2 2 6 4 + + + + + + + + + + + + + + + + + + + + + + + + # ",
"%+M+c.N+i.O+c + 7 $ [ + + + + + + + + + + + + + + + + , K+L+2 2 2 2 2 2 2 P+4 + + + + + + + + + + + + + + + + + + + + + + + + # ",
"7+Q+h+R+! + + ^ + + * + + + + + + + + + + + + + + + + z.S+L T+T+T+T+T+T+U+V+/.+ + + + + + + + + + + + + + + + + + + + + + + + # ",
"7+. [ 7 %.[ [ + R + R + + + + + + + + + + + + + + + + W l+W+W+W+W+W+W+W+M.4 ! + + + + + + + + + + + + + + + + + + + + + + + + # ",
"%+. * @ + # [ + + + + + + + + + + + + + + + + + + + + + + + + + + + + + + + + + + + + + + + + + + + + + + + + + + + + + + + + # ",
"& [.+ r.+ } } + + + + + + + + + + + + + + + + + + + + + + + + + + + + + + + + + + + + + + + + + + + + + + + + + + + + + + + + # ",
"& [ ,.s.+ @ 7 + + + + + + + + + + + + + + + + + + + + + + + + + + + + + + + + + + + + + + + + + + + + + + + + + + + + + + + + # ",
"/+. + S * + + + + + + + + + + + + + + + + + + + + + + + + + + + + + + + + + + + + + + + + + + + + + + + + + + + + + + + + + + # "};
