/* XPM */
static char *_194252902374fa1ae1d17421ebb74e8[] = {
/* columns rows colors chars-per-pixel */
"64 64 236 2 ",
"   c #730E00",
".  c #7B3D00",
"X  c #792F10",
"o  c #793424",
"O  c #7B362A",
"+  c #714536",
"@  c #4E4F50",
"#  c #4F5052",
"$  c #535456",
"%  c #565659",
"&  c #58575C",
"*  c #57585A",
"=  c #5A5A5D",
"-  c #5D5E60",
";  c #605F64",
":  c #5F6062",
">  c #626364",
",  c #666669",
"<  c #67686A",
"1  c #6A6B6D",
"2  c #6E6E71",
"3  c #706F73",
"4  c #6F7072",
"5  c #737375",
"6  c #767779",
"7  c #77787A",
"8  c #7A7B7D",
"9  c #891103",
"0  c #892500",
"q  c #893503",
"w  c #973B01",
"e  c #8F3711",
"r  c #A43902",
"t  c #8F3826",
"y  c #A23D37",
"u  c #8B4808",
"i  c #974603",
"p  c #954B01",
"a  c #985606",
"s  c #8F5012",
"d  c #A54A04",
"f  c #A85A05",
"g  c #B55706",
"h  c #A65E15",
"j  c #B85918",
"k  c #946606",
"l  c #A6670A",
"z  c #B56708",
"x  c #BB7B09",
"c  c #A86417",
"v  c #BA6C16",
"b  c #AC7214",
"n  c #B67419",
"m  c #974627",
"M  c #894A39",
"N  c #924F33",
"B  c #B0712C",
"V  c #C8760B",
"C  c #CD7110",
"Z  c #C97816",
"A  c #CE6A27",
"S  c #8D5147",
"D  c #975947",
"F  c #A4594E",
"G  c #99674C",
"H  c #AB6E52",
"J  c #A66958",
"K  c #A5786A",
"L  c #B6756E",
"P  c #B98810",
"I  c #B98629",
"U  c #D98918",
"Y  c #CE9213",
"T  c #E8900D",
"R  c #F69904",
"E  c #FB9B03",
"W  c #F49C0A",
"Q  c #FC9C0B",
"!  c #E89917",
"~  c #F49B13",
"^  c #FB9C13",
"/  c #F99A19",
"(  c #D8AB15",
")  c #ECA704",
"_  c #F4A303",
"`  c #FDA402",
"'  c #F3AB02",
"]  c #FCAA02",
"[  c #F5A30C",
"{  c #FCA30B",
"}  c #F3AC0B",
"|  c #FCAC0B",
" . c #F5B706",
".. c #FCB304",
"X. c #FCBC02",
"o. c #FBB40B",
"O. c #FCBB0B",
"+. c #E8A718",
"@. c #FBA414",
"#. c #FCAB13",
"$. c #FCA31C",
"%. c #F7A918",
"&. c #EAB710",
"*. c #FCB313",
"=. c #F9B916",
"-. c #FCB31B",
";. c #C68824",
":. c #DA8B26",
">. c #CE902B",
",. c #D89825",
"<. c #D79A38",
"1. c #E69728",
"2. c #F79A25",
"3. c #DBA62C",
"4. c #DBB827",
"5. c #E9A826",
"6. c #F9A825",
"7. c #FAAB2C",
"8. c #E9BA25",
"9. c #FCB524",
"0. c #FDBA25",
"q. c #FCB32B",
"w. c #F8BA2A",
"e. c #E7A832",
"r. c #FAAC34",
"t. c #E8B634",
"y. c #FCBC33",
"u. c #FBB838",
"i. c #ECC80D",
"p. c #FDC302",
"a. c #F9C907",
"s. c #FDC30B",
"d. c #FDD503",
"f. c #FBD907",
"g. c #FBC918",
"h. c #FDD717",
"j. c #FCE402",
"k. c #FCEB02",
"l. c #F5E608",
"z. c #FCE30C",
"x. c #FDF203",
"c. c #FDE718",
"v. c #FBF115",
"b. c #E9C626",
"n. c #FDC32C",
"m. c #FAC928",
"M. c #ECD32B",
"N. c #FDD325",
"B. c #FDDB23",
"V. c #FED62C",
"C. c #F8D828",
"Z. c #F9C736",
"A. c #FBD936",
"S. c #FCE626",
"D. c #F5F12C",
"F. c #FBE734",
"G. c #FBF439",
"H. c #B88C4A",
"J. c #B28A72",
"K. c #B5857A",
"L. c #D0A650",
"P. c #F8B845",
"I. c #E7B956",
"U. c #CB9077",
"Y. c #D3A464",
"T. c #EBBD64",
"R. c #FBC645",
"E. c #FAD847",
"W. c #F4CC53",
"Q. c #FBD958",
"!. c #F9E949",
"~. c #FBF14F",
"^. c #F9E957",
"/. c #F3CE6E",
"(. c #FAE969",
"). c #FDF26A",
"_. c #F9E677",
"`. c #7E7E81",
"'. c #807F84",
"]. c #7F8082",
"[. c #828385",
"{. c #858689",
"}. c #88878C",
"|. c #87888A",
" X c #8A8A8C",
".X c #9B958F",
"XX c #8E8E91",
"oX c #8F9092",
"OX c #929395",
"+X c #969699",
"@X c #9A9998",
"#X c #9A9A9C",
"$X c #B4908C",
"%X c #9E9FA1",
"&X c #A09FA4",
"*X c #9FA0A2",
"=X c #A2A2A5",
"-X c #A6A6A9",
";X c #A8A7AC",
":X c #A7A8AA",
">X c #ABABAD",
",X c #AEAEB1",
"<X c #AFB0B2",
"1X c #B1B1B0",
"2X c #B2B2B5",
"3X c #B9B7B7",
"4X c #B6B6B9",
"5X c #CA9A8D",
"6X c #D6AD8F",
"7X c #CCA69A",
"8X c #E2B88F",
"9X c #D6B2AE",
"0X c #D8B8AB",
"qX c #E5B6AF",
"wX c #F7D98B",
"eX c #FEEF86",
"rX c #F9EA9A",
"tX c #FFF49A",
"yX c #D1C6B3",
"uX c #DBC5B9",
"iX c #EECFB1",
"pX c #FBEAA4",
"aX c #FEF3AF",
"sX c #FDE9B6",
"dX c #F4BCC1",
"fX c #D7C9C8",
"gX c #EFD0CB",
"hX c #EAD6CC",
"jX c #F3DACA",
"kX c #FAEAC5",
"lX c #FFF3C6",
"zX c #F8E5D9",
"xX c #F8EFD9",
"cX c #FCD8E0",
"vX c #F8E9E2",
"bX c #FEF5E4",
/* pixels */
"$ = = $ = $ = >X>X,X`.`.`.$ = - = = = = $ = $ % `.[.[.% % - = = * % = OX4X2X5 * % = $ > [.[.[.[.[.6 % = = = = * = , -X,X,X`.'.[.",
"= > = = : % % -X:X<X8 `.`.$ = = % % = = $ = = = [.].|.= = = % % % % $  X,X2X1 $ = = * = [.[.{.[.[.5 % % = % $ = % - -X>X>X[.{.{.",
"$ 5 {.[.> = = #X#XOX[.[.[.$ = = % = 4 ].8 > $ $ 7 5 8 $ $ > 8 5 7 8 5 XX%X%X1 % = = = = {.`.[.8 6 4 % = < 5 4 - * = OX%XOX[.[.`.",
"$ OX,X4X2 * $ [.8 8 [.[.[.$ % : % $  X2X4X2 % = $ $ $ = % 4 4X2X,X>X<X+X8 [.> * % - * = [.{.7 $ $ = % =  X4X>X2 * % * $ - [.[.`.",
"$  X,X<X1 $ % |.[.[.[.[.`.= = = $ % OX,X>X1 # * = - = = $ 1 ,X,X>X>X>X+X].[.> = = - = - [. X8 $ = = $ $ XX2X,X1 = = = % > {.}.8 ",
"$ [.OXoX> = = [.[.[.1 < 1 % $ 5 XX|.XXoX#X8 5 5 = = = = * > {.`.{.OXOX X].{.> * * * % = 1 2 1 = $ 1 |.[.OXOX+X1 = % = $ = 3 5 1 ",
"$ 5 [.[., * * [.[.].* $ = = % ].2X,X+X8 [.`.[.|.> = % = = * % $ , [.].[.[.{., & * = = % = $ % = * [.2X>X+X].`.> % % = = = = & = ",
"= 5 {.].> $ * [.[.[.= = = = % `.<X>X+X[.[.{.{.|.- = = * % = - = 1 |.[.{.`.`., * $ = # = $ = = % $ [.4X2X#X[.[.> = = - = % $ $ - ",
"= > > > - = $ > : , $ = - = % > 4 1 8 [.].1 = < = = = - = - $ = - 1 > `.|.{.< $ ].XX#XOX= = : = - < 7 5 4 < 1 - = = - = , OXXX}.",
"= = % % = = = = = % * = - $ % - $ $ 5 {.|.: $ = * % = = 5 - % = $ = * =XyX[.> % = >X:X>X% $ = = $ = $ % % % * * * = = % 1 2X,X&X",
"$ : = = > = > $ $ $ > = = = % > = * 5 [.[.> % = - zX9X$X$XL L H H H J.K.5X0XzX$ = -X,X:X% = $ : = % $ $ % % % = * = = % , ,X2X+X",
"= > * $ #X>X>X> = = >X:X#X* = = = = = * - = vXqXK S m u s k f l l a a u u m D L dXfX{. X$ - 1 %X#X-X%X=XOX8 ].> = = = * > XXOX X",
"= % * $ %X:X,X> % $ 4X-X:X@ * = $ % = @XjX7Xm e d n >.+.m.V.N.V.V.N.m.w.3.;.n i q H 0XzX8 = 1 2X>X>X-X2X+X8 {.> * = = * - [.[.[.",
"= 1 1 1 OX,X>X= * = >X>X#XOX= > - : hX7XD q g 1.6.n.N.h.f.a.a.i.a.a.s.g.N.A.0.t.Y p q K uXxX2 <X:X<X>X>X+X].{.> $ * = % - [.{.{.",
"$  X<X>XoX8 {.= = = `.`.{.{.>X[.>XjXL m a 5.V.h.h.s...) ) ` E R E ` ` _ '  .h.h.h.m.U a s 6XkX1X[.].[.[.[.[.].> $ = = = = = = - ",
"$ XX>X:XoX8 |.= $ - |.{.[.].{.zXhXN i ;.Z.N.h.a.' _ R E ` E ^ Q Q E E E ` _ ) ' s.g.V.8.b . J.gX{.{.[.].[.{.{.> $ : % = = = % = ",
"6  X=X=XXX[.{.- = - 6 8 8 [.fX7XG k 4.V.g.=.) _ R ^ / ^ Q ^ ~ T T ^ Q Q E Q Q Q R ' a.h.n.;.q J gX[.|.[.{.8 8 < * # , - = = = = ",
",X+X8 [.].{.{.= = % $ % > [.9Xm k 4.B.g.' _ ` E E Q 2.2.W 2.j d i Z / E E / / Q R ` _ O.N.h.( u F zXbX8 4 $ * % = > >X,X>X= > = ",
">X=X].{.].[.`.= % = $ % > gXt g 8.V.g.=.[ ~ @.{ E @.^ $.W U w <.;.w T @.Q Q Q { ` ` W _  .f.B.+.p G zX{.2 $ = $ % * %X,X>X$ $ = ",
" X8 [.{.5 5 6 , = - = = hXD p t.V.m.+.5.7.6.$.$.{ { ` | / f x !.Z.l V 6.{ ] ] [ | ~ $.} ' ..h.N.Y u K.vX2 = % 2 5 6 #X%X#X5 3 6 ",
"$ 5 [.{.> % $ = % = % = K.w 4.C.V.&.+.6.q.9.%.%.-.| ] @.:.p b.c.c.Y p 1.#.] o.#.7.6.6.} } | X.h.V.n e 0X% = = +X2X>X{.8 |.,X2X-X",
"= 2 [.|.> * % - = 1X$ 0Xt Y B.l. .*.-.-.-.9.0.q.7.-.-.r.d P z.x.x.h.a Z q.| *.-.q.7.6.-.-.-.} a.h.R.h m jXvX* +X>X<X{.[.[.,X,X=X",
"= > , 1 = % > = = @XxXJ d Z.f.i. .=.9.0.q.q.y.u.r.u.7.:.i 8.v.x.x.c.>.p e.9.*.-.9.9.9.9.9.=.w.=.g.N.t.q U.bX= |.#X#X{.[.{.#X+XOX",
"$ = % % = = = $ = % 0XX 1.V.h.a.=.0.0.0.0.0.0.w.y.u.u.c b V.v.l.v.c.E.p :.6.0.9.%.n.0.q.0.b.w.8.g.h.V.I m iX% 6 [.].[.`.|.[.[.'.",
"= = = * - = $ > = vXD f Z.F.g.n.=.n.y.0.0.n.w.w.Z.P.<.u 8.c.v.l.v.z.S.Y w P.q.Z.0.9.y.y.y.n.y.y.=.f.S.4.u $X* 7 `.[.|.`.{.[.{.`.",
"= = * = = = $ #X#XuXe ,.A.C.Z.R.u.y.y.Z.Z.R.P.u.e.<.b P B.j.k.k.k.k.z.m.c v 1.r.r.R.P.y.y.y.Z.Z.m.i.l.S.l J jX].[.[.[.[.[.1 1 1 ",
"= = = = : = $ :X>XJ.d 8.S.M.Z.P.W.P.P.<.;.c h h s a P N.v.j.k.k.j.x.k.B.t.s a a h h n Y 6.r.P.R.Z.g.h.F.,.e uXoX[.].[.`.{.& = = ",
"$ > > > > - > =XzXJ c V.S.M.A.P.:.i u a l b P Y 3.8.V.c.v.z.f.k.k.l.k.v.B.E.8.Y ;.n n f d r g <.R.C.h.V.R.. 7XvX[.[. X{.[.& = % ",
"$ [.:X-X>X>X*X|.gXN P F.S.M.E.t.i >.t.8.g.h.h.c.h.z.j.z.C.F.S.z.z.l.k.j.z.h.h.g.w.q.6.~ U A j h R.A.C.A.A.k J zX#X[.> = , - - - ",
"$ |.,X:X=X-X,X|.9Xr ( S.A.A.E.P.u <.Z.h.f.d.f.z.j.j.j.j.h.c.c.h.h.h.f.a...] ] ` E ` [ ^ / 2.j c R.E.A.A.S.P e zX[.[.> = % = = - ",
"= 8 :X=X=X>X:X`.9Xr i.S.A.E.E.Q.B p 4.h.f.j.f.z.z.j.j.d.f.f.f.B.g. .' _ Q { ` ` ` R [ ~ 2.Z i <.Q.E.!.F.S.( 0 jX X{.- % - % % $ ",
"= = $ * * $ % = 7Xw C.D.!.!.^.Q./.I p 4.N.f.z.d.f.f.f.d.f.f.a.&.} ) ' ] #.| ` ] ` | [ 2.A q L.Q.^.E.!.F.S.8.9 gX= = - = & ; > 5 ",
"& = * $ = = % = 5Xw F.D.F.~.^.^.(.Q.B a ( N.d.d.d.f.f.d.s.O.' } -.*.' _ | _ ] .._ [ 6.v i L._.Q.^.^.!.G.D.b.0 uX= $ = $ = & $ 1 ",
"& 2 8 8 , = = = 5Xw F.D.~.~.^.^.^.^.(.B p 5.g.h.d.d.d.p.o.' | -.[ *.*.*.#.o...' #.6.Z i <.(.Q.).).^.~.G.v.M.0 qX, : , : > , ; 5 ",
"$ XX4X2X5 $ = fX5Xi F.D.~.^.^.^.!.Z.y.P.n p ,.m.d.d.p. .#.#.| #.#.| *.=.} o...*.6.Z w :.q.Z.E.Q.(.(.~.G.v.M.0 qX,X2X,X,X2X2X4X-X",
"$ `.:X<X5 $ * vX7Xw A.F.~.!.R.8.&.o.} -.6.v d +.f.p.X.X.*.#.] | o...o.=.-.o...-.V i :.9.] ' *.5.t.R.!.G.D.b.0 iX,X2X>X>X:X,X;X-X",
"{.OX#X%X4 % % >X9Xq Z.!.b.+.! %.] ' ....*.6.d Y s.p. .X.o.......X.X. .=.=.O.O.@.d Z 7._ ] ..] { $.+.( M.D.4.  gXOX+X=X-X=X%X=X=X",
",X+X`.[.< % $ >X0Xe e.!.4.[ @.@.` ] ......6.j V O.X.X.X.X.X.X.X.p.X.O.=.*.O.O.$.d Z #.....` ` ` ` R ) M.F.;.q zX$ $ 8 `.`.[.8 `.",
"2X+X[.{.1 $ $ >XuXN ;.~.8.R ^ @.` | ' ] ..-.d V O.O.O.X.p.p.p.p.p.p.p.O.O.X.s.q.i Z *...` ] ` ` ` R } Z.^.k D vX= % [.{.{.{.[.{.",
"OX8 > , > = $  XcXJ B ^.V._ { @.` ] | ] ] -.d Y p.s.s.p.p.p.p.p.p.p.X.O.O.p.X.n.c v #.] ] ' ] ` ` _ } E.(.. U.@X= $ 5 2 2 {.'.{.",
"[.2 $ * = % $ [.].L s Z.~._ _ [ _ ] ] #.@.~ i T p.p.s.p.p.p.p.p.p.p.p.s.O.p.p.n.;.z 6.` ..' } %.@._ w.^.3.q 0X6 * $ = % % [.[.{.",
"{.5 * = > = * `.{.qXs L.).q.W _ ` ` ` #.$.U p ) p.p.d.a.f.a.p.s.s.s.a.p.p.p.s.0.1.g 6.#...) } [ ^ [ E.(.B G hX5 $ = % = = }.{.[.",
"{.5 * $ 5 `.8 {.{.uXN B /.(.+.R { ` { ` 6.Z a 9.s.d.a.h.i.=.T z x +.=.g.a.p.s.m.! d 1.q.%.' ] _ W 5.(./.s J.OX`.5 5 - = = 1 1 2 ",
"[.5 * % 8 {.].{.[.{.5X0 T.(.E.W [ W @.#.%.z h y.g.a.N.9.:.g r j j w z ! g.h.a.g.Z.q :.7.6.#.R ` ) Q.eXH.s iX`.[.{.[.> % = & % ; ",
"[.5 % = 6 ].].[.[.[.& N c _.(.4.%.^ @./ / f x m.g.Z.1.f d C ~ 6.7.U f p l 5.Z.=.m.f Z 2.r.$.` _ b.)./.m J bX{.[.|.].> $ = & = ; ",
"= = = % > - = - = - > 0XX L.eX^.5.@.Q ^ / d Y y.+.f r C ! #.o.o.] *.%.U f i Z r.y.f Z 2.2.$.@.8.(.eXH t jX[.- - - > - * = - = - ",
"= = = % = % * : = = - zXK m /.eXW.~ E ` [ z d j r g U %.|  .} ........| { U d r A w U / / / e._.eXY.0 7X= = = $ = % = % - - = = ",
"$ = = = - $ % = * @ 5 1 jXt B rX_.W.$._ R ~ C C T $.-.} ' ] ] ] ] ] ] ] { $.2.C V V $.W $.! _.rX8Xm K xX= $ % = = @ > * = = = ; ",
"= = % = = % = = = = >X>XhXqXt B rXtXT.5.[ W ^ @.{ _ _ | ] ] ` ` ` ` ` { @.^ ~ $.@.W W / 5._.tXwXF J gX>X|.* = = % = *X:X-X>X-X-X",
"$ = = % = * = = = $ >X>X:XvX7Xt H rXtX/.e.T %._ ` ` E { ] ] { { ` ` ` Q ^ ^ $.{ _ | W r._.tX% N S fX2X:X X$ % = % % =X>X>X,X>X-X",
"= 1 `.[., * % 8 8 6 %X=X#X[.[.7Xo G iXsXpXT.+.) ] { / / { ] ] ` { { ` ` ` ` _ _ [ / W.eXpX8XN M uX8 >X>X[.= = = % = #X>X:X;X-X=X",
"= [.<X2X8 $ % =X,X,X[.8 `.[.[.7 7XM M 8XsXaXwXI.5.! 2./ Q ` ` ` Q Q ` ` _ ) } e.T.wXpXpXY.o F 0XbX=X`.`.{.[.[., = $ `.[.].[.`.{.",
"@  X>X<X6 = % =X>X>X`.{.{.[.{.8 vX$ G . J.iXzXkXwXW.t.[ R E E E Q W W ) 5.I./.pXlXkXyXH X K.gX2X>X-X8  X{.[. X, $ $ 8 8 [.{.[.[.",
" X|.OX%X4 = $ OX#XOX{.[.[.[.{.7 = = yXK.o D $XiXsXaXtXrXrXwX/./././.wXrXpXpXsXkX8XK + S 6 vX8 #X=X%X8 {.8 7 8 < = = [.[.|.8 8 8 ",
"2X#X8 {.1 $ $ [.`.`.[.8 {.|.[.8 $ $ [.4XgXK M t G 6XsXkXkXlXlXlXlXlXlXsXkXsXU.N t S $XjX3X2X:X[.8 [.].{.1 $ $ = % % 8 [.{.= $ = ",
":XOX[.[.4 = = 8 [.[.[.[.{.8 {.`.$ % [.,X,X6 uX5XF 9 9 y L 5X6X6X6X5XU.L M   o K $ = % = 3X>X2X8 {.{.{.{.5 $ = $ = % 8 [.[.= = = ",
"OX[., > , % = < < 1 {.[.{.{.[.`.$ = 7 +XOX].5 5  XXX7XK S O o o o O t D K.0X.X= = .X= @X|.[.|.1 5 6 |.{.5 = = < 5 2 [.[.|.= = = ",
"[.1 $ $ = = = = $ $ {.[.[.{.[.8 % $ 2 [.[.{.[.{.-X,X2X= = = = * % = % 2 {.{.1 $ % = % = = % = % $ > [.{.5 $ % 7 |.[.{.[.{.= = * ",
"[.5 = = = = = = > % [.[.[.[.[.6 % % 5 [.].{.`.>X=X,X>X- = = = = = = % 2 {.[.1 = = - = = $ % = = $ < [.{.5 $ % 5 [.{.{.[.|.= = $ ",
"[.8 8 8 < = = = $ = [.[.[.> > > = % - - = 7 [.[. X X X#X#X+X$ % = = % > , > > = % = = = OX+XOX% = - , , > % = > , < < , < = $ > ",
"{.{.[.|.1 * = = = = [.[.[.$ % = = % : = $ 6 [.[.{.[.[.,X>X:X# = - % $ = = = = = % - = = >X>X>X% = - = % = % = = % = = = = = $ < ",
"[.J.8 [.1 = = = = = `.[.`.% * = - % > > - 7 [.[.[.].`.>X>X-X= = : % = - % = - = $ > = = -X>X>X$ % = = % - = = = $ = = = % = $ < ",
"|.7 = = = = = = $ = = - = = % = % % 8 =X=X X`.[.|.[.]. X{.|.=X%X+X# = = * = = = $ +X=X=X{.|.|.% % = = = = = = = = = = = = #X#X=X",
"[.1 $ % = = = = = = = = = = $ - $ $ {.4X,XOX`.8 [.[.`.].8  X,X2X%X$ % - % = > = @ %X,X>X{.`.{.% = = % = = = = = % = = = = >X>X>X"
};
