/* XPM */
static char *_35683dee0c44cb9b69680c4016f413d[] = {
/* columns rows colors chars-per-pixel */
"64 64 231 2 ",
"   c #793002",
".  c #793A29",
"X  c #794637",
"o  c #4E4F50",
"O  c #4F5052",
"+  c #535456",
"@  c #565659",
"#  c #58575C",
"$  c #57585A",
"%  c #5A5A5D",
"&  c #7A4D42",
"*  c #795349",
"=  c #5D5E60",
"-  c #605F64",
";  c #5F6062",
":  c #626364",
">  c #666669",
",  c #67686A",
"<  c #6A6B6C",
"1  c #776A67",
"2  c #6E6E71",
"3  c #706F73",
"4  c #6F7072",
"5  c #737375",
"6  c #7A7777",
"7  c #767679",
"8  c #7A7B7D",
"9  c #872D04",
"0  c #9B2E03",
"q  c #893801",
"w  c #983904",
"e  c #883A14",
"r  c #983714",
"t  c #A22F0F",
"y  c #A23D07",
"u  c #8A3B25",
"i  c #963928",
"p  c #8B4504",
"a  c #8B4B0E",
"s  c #944403",
"d  c #9B4402",
"f  c #984B05",
"g  c #995606",
"h  c #984814",
"j  c #995715",
"k  c #A54706",
"l  c #AD4E0D",
"z  c #A85806",
"x  c #B54518",
"c  c #A85A15",
"v  c #B85915",
"b  c #9D650F",
"n  c #AC660B",
"m  c #B66806",
"M  c #A97304",
"N  c #B67406",
"B  c #A86717",
"V  c #B56616",
"C  c #AA7616",
"Z  c #B9771B",
"A  c #954729",
"S  c #8F4A31",
"D  c #88493A",
"F  c #AC562D",
"G  c #91623E",
"H  c #B66F34",
"J  c #C85108",
"K  c #CE690B",
"L  c #C46B16",
"P  c #C67615",
"I  c #D77914",
"U  c #E3780D",
"Y  c #C65729",
"T  c #D0742B",
"R  c #EA7336",
"E  c #965749",
"W  c #97654E",
"Q  c #89655A",
"!  c #956657",
"~  c #A76754",
"^  c #AD7055",
"/  c #947267",
"(  c #867D7B",
")  c #997C74",
"_  c #AA7768",
"`  c #C87547",
"'  c #B78507",
"]  c #BC8F13",
"[  c #B98B2D",
"{  c #C88517",
"}  c #CE8F12",
"|  c #D7851A",
" . c #EA9B07",
".. c #F49C04",
"X. c #FC9D02",
"o. c #F69709",
"O. c #FC9D0B",
"+. c #EC8911",
"@. c #E79819",
"#. c #FA9B16",
"$. c #D8A918",
"%. c #EAA505",
"&. c #F3A401",
"*. c #FBA402",
"=. c #F3A906",
"-. c #FCAB02",
";. c #FCA40C",
":. c #FDAC0B",
">. c #EAB605",
",. c #FDB302",
"<. c #F8B607",
"1. c #FEBC02",
"2. c #E8A818",
"3. c #FCA513",
"4. c #FAAB17",
"5. c #FCA41B",
"6. c #EBB718",
"7. c #FAB718",
"8. c #CD922F",
"9. c #E99628",
"0. c #F99925",
"q. c #F18F34",
"w. c #E89835",
"e. c #DBA627",
"r. c #D1AB30",
"t. c #DAAC38",
"y. c #E5A527",
"u. c #FAA924",
"i. c #ECB929",
"p. c #FAB826",
"a. c #EBA638",
"s. c #FAA935",
"d. c #ECBC36",
"f. c #F9B737",
"g. c #EBCF0B",
"h. c #FDC403",
"j. c #FAC708",
"k. c #FBD907",
"l. c #EAC51A",
"z. c #FCC718",
"x. c #FBD716",
"c. c #FAE707",
"v. c #FAF00D",
"b. c #FCE517",
"n. c #EDC526",
"m. c #FAC728",
"M. c #EAD52E",
"N. c #FAD527",
"B. c #ECC636",
"V. c #FBC835",
"C. c #FAD736",
"Z. c #FDD93C",
"A. c #F9E528",
"S. c #FEF32E",
"D. c #FCE937",
"F. c #FDF33A",
"G. c #B78456",
"H. c #91847D",
"J. c #B5876F",
"K. c #A9877C",
"L. c #DD9747",
"P. c #F89553",
"I. c #D4B24D",
"U. c #F9B945",
"Y. c #EFB053",
"T. c #C99572",
"R. c #D5AB6F",
"E. c #F5B068",
"W. c #EDC648",
"Q. c #FAC646",
"!. c #F9D747",
"~. c #EACE50",
"^. c #FECC57",
"/. c #FBDC59",
"(. c #FDE648",
"). c #FFF447",
"_. c #FCE957",
"`. c #FFF655",
"'. c #FFCD60",
"]. c #F8D667",
"[. c #F8DA75",
"{. c #FDE669",
"}. c #F8E47A",
"|. c #7E7E81",
" X c #807F84",
".X c #7F8082",
"XX c #828385",
"oX c #858689",
"OX c #8A8788",
"+X c #87888A",
"@X c #8A8A8C",
"#X c #928A89",
"$X c #8E8E91",
"%X c #8F9092",
"&X c #929395",
"*X c #999697",
"=X c #969699",
"-X c #9A9A9C",
";X c #AD918A",
":X c #A69A96",
">X c #A9A29E",
",X c #B9A399",
"<X c #9E9FA1",
"1X c #A99EA2",
"2X c #9FA0A2",
"3X c #A2A2A5",
"4X c #A6A6A9",
"5X c #A7A8AA",
"6X c #AAABAD",
"7X c #B3AAA5",
"8X c #AEAEB1",
"9X c #B0AFB4",
"0X c #AFB0B2",
"qX c #B2B3B5",
"wX c #BAB8B7",
"eX c #B5B6B9",
"rX c #C7988E",
"tX c #CDA891",
"yX c #E4B490",
"uX c #CAB4AE",
"iX c #F4D08D",
"pX c #FDE88A",
"aX c #FAE999",
"sX c #FEF39E",
"dX c #CAC1BB",
"fX c #EFCDB3",
"gX c #FEEDAB",
"hX c #FEE7B9",
"jX c #E8D4CE",
"kX c #FBE9C8",
"lX c #FFF3D4",
/* pixels */
"+ % % + % + % 6X6X8X|.|.|.+ % = % % % % + % + @ |.XXXX@ @ = % % $ @ % &XeXqX5 $ @ % + : XXXXXXXXXX7 @ % % % % $ % > 4X8X8X|. XXX",
"% : % % ; @ @ 4X5X0X8 |.|.+ % % @ @ % % + % % % XX.X+X% % % @ @ @ @ + @X8XqX< + % % $ % XXXXoXXXXX5 @ @ % @ + % @ = 4X6X6XXXoXoX",
"+ 5 oXXX: % % -X-X&XXXXXXX+ % % @ % 4 .X8 : + + 7 5 8 + + : 8 5 8 8 5 $X<X<X< @ % % % % oX|.XX8 7 4 @ % , 5 4 = $ % &X<X&XXXXX|.",
"+ &X8XeX2 $ + XX8 8 XXXXXX+ @ ; @ + @XqXeX2 @ % + + + % @ 4 eXqX8X6X0X=X8 XX: $ @ = $ % XXoX8 + + % @ % @XeX6X2 $ @ $ + = XXXX|.",
"+ @X8X0X< + @ +XXXXXXXXX|.% % % + @ &X8X6X< O $ % = % % + < 8X8X6X6X6X=X.XXX: % % = % = XX@X8 + % % + + $XqX8X< % % % @ : +X+X8 ",
"+ XX&X%X: % % XXXXXX< , < @ + 5 $X+X$X%X-X8 5 5 % % % % $ : oX|.oX&X&X@X.XoX: % $ $ @ % < 2 < % + < +XXX&X&X=X< % @ % + % 5 5 < ",
"+ 5 XXXX> $ $ XXXX.X$ + % % @ .XqX8X=X8 XX|.XX+X: % @ % % $ @ + > XX.XXXXXoX: % $ % % @ % + @ % $ XXqX6X=X.X|.: @ @ = % % % # % ",
"% 5 oX.X: + $ XXXXXX% % % % @ |.0X6X=XXXXXoXoX+X= % % $ @ % = % < +XXXoX|.|.> % + % O % + % % @ + XXeXqX-XXXXX: % % = % @ + + = ",
"% : : : = % + : ; > + % = % @ : 4 < 8 XXXX< % , % , H.OX( ( 3 ( 6 ( 5 |.+XXX, + % $X-X&X% % = % = , 8 5 4 , < = % % = % > &X$X+X",
"% % @ @ % % % % % @ $ % = + @ = + + 5 oXoX= + % uXtXJ.J.^ ^ ~ ~ ~ ~ W _ _ K.;X,X1X6X5X6X@ @ % % + % + @ @ @ $ $ $ % % @ < 9X8X2X",
"+ ; % % : % : + + + : % % % @ : % $ 5 oXoX, #X;XE i r r t 0 0 w d z z z z g f A E ,XdX5X@ % @ ; % @ + + @ @ @ % $ % % @ > 8XqX=X",
"% : $ + -X6X6X: % % 6X5X-X$ % % % % % $ 2 ,XW e h Y T Y r w V 8.u.m.V.V.V.V.2.} M   ! 7X< = < <X-X4X<X3X&X8 .X: % % % $ : $X&X@X",
"% @ $ + <X5X8X: @ + eX4X5Xo $ % + @ % : H.S w T R R Y w g a.V.C.m.z.j.h.j.z.N.x.z.e.g e ;X6 < qX6X6X4XqX=X8 oX: $ % % $ = XXXXXX",
"% < < < &X8X6X% $ % 6X6X-X% % : = ; ( / X F E.P.P.v w N m.N.z.<.=.&. . .=.%.%.<.x.z.f.V a ) OXqX5X0X6X6X=X.XoX: + $ % @ = XXoXoX",
"+ @X0X6X%X8 oX% % % |.|.oXoXXXXXXX*XH.S H E.E.E.H q { V.z.<.&.&.....O.O...o.O...&.7.m.m.] p K.&XXX.XXXXXXXXX.X: + % % % % % % = ",
"+ $X6X5X%X8 +X% + = +XoXXX.XoXoXXX,XD g w.P.P.` q { V.m.:.....o.o.#.+.+.o.X.X.O.o. .,.z.m.[   ,X$XoXXX.XXXoXoX: + ; @ % % % @ % ",
"7 @X3X3X$XXXoX= % = 7 8 8 oX.XoXuXE h 8.a.w.R t N N.N.=.X.O.o.o.:.+.l k l #.X.X.&.&.*.*.z.N.M S tX&X+XXXoX8 |., $ O > = % % % % ",
"8X=X8 XX.XoXoX% % @ + @ : XXXX7X_ y L.Y.d.Y.l l d.N.%.*.O.O.O.3.;.P w a.k I O.*.&.*.O.O.,.z.n.p ^ dXXX8 4 + $ @ % : 6X8X6X% : % ",
"6X3X.XoX.XXX|.% @ % + @ : XXXX,XA T '.^.^.8.w 8.V.7.=.;.3.;.3.5. .m P Z.{ z 5.;.;.3.5.3.;.7.Z.e.9 rX+XoX2 + % + @ $ <X8X6X+ + % ",
"@X8 XXoX5 5 7 > % = % % : 5 :X_ h E.^.^.~.g n N.m.4.:.:.:.:.4.5.9.p B.x.$.f 9.3.:.4.4.:.:.=.m.V.m A jX|.2 % @ 2 5 7 -X<X-X5 3 7 ",
"+ 5 XXoX: @ + % @ % @ % % @ :X9 T U.f.f.8.  i.x.7.u.:.7.<.7.4.u.T b N.v.x.g P s.4.u.7.4.4.7.6.N.t.w tX+ @ % % =XqX6XoX8 +X8X9X4X",
"% 2 XX+X: $ @ = % % + $ @ : / w U.U.d.U.s m N.x.7.4.7.7.7.p.u.s.d $.c.v.b.' c s.u.u.p.p.p.p.7.z.m.n ! 7X% + $ =X6X0XoXXXXX8X8X3X",
"% : > < % @ : % % % % % : -XD 8./._._.U.0 $.x.n.i.p.p.p.7.p.u.0.f 6.v.c.v.>.w w.p.p.7.p.m.p.z.j.N.} A uX% % % +X-X-XoXXXoX-X=X&X",
"+ % @ @ % % % + % @ % @ < wXu Y._.)._.C k i.x.n.m.m.f.f.f.f.f.L B N.v.v.c.A.g { p.p.p.p.i.f.p.7.x.l.s rX: % @ 7 XX.XXX|.+XXXXX X",
"% % % $ = % + : % % @ + , :Xc ~.(.A.!.j L V.x.V.V.V.U.U.f.f.9.f } A.v.v.c.b.} f y.f.f.Q.V.Q.U.m.x.A.z ~ 7X$ % 8 |.XX+X|.oXXXoX|.",
"% % $ % % % + -X-X-X8 8 8 1 H W.M.x.e.f 8.Z.n.Q.U.f.9.P c c p n N.b.c.c.c.c.x.M g c c Z 8.Y.E.Q.l.A.} q dX@X@XXXXXXXXXXXXX< < < ",
"% % % % ; % + 5X6X6X.XXX|.& 8./.M.N.{ s e.C.V.U.V w k V Z } 2.Z.A.c.c.c.c.v.k.N.e.{ N M z w V Q.N.N.d.  uXwXqX$XXX.XXX|.oX# % % ",
"+ : : : : = : 3X6X5XoXXXXX* t._.`.(.8.f n.N.Z.8.h R +.5.p.m.x.b.x.c.c.b.b.b.b.k.b.N.x.k.6.w.j ] C.Z.W.q rXdX6X%XXXXX@XoXXX# % @ ",
"+ XX5X4X6X6X2X+XXX+X8 XX+XQ W.`.`.(.[ g A.A.Z.r.d q.#.X.*.&.=.=.>.x.x.x.x.b.c.k.k.c.k.k.x.d.j [ Z.C.!.g ^ :X, 8 oXXX: % > = = = ",
"+ +X8X5X3X4X8X+X.XoX8 XXOXQ i.D.D.C.C z A.D.!.W.j v #.X.:...;.-.*.&.<.x.k.k.c.c.c.g.c.x.N.' a ^.Z.D.C.M ~ *X@ 5 XXXX: % @ % = = ",
"% 8 5X3X3X6X5X|.8 XX8 XX#XW i.n.N.i.z V D.D.!./.L.k I 5...4.*.*.-.-.=.>.j.k.k.k.c.k.k.N.8.p I./.(.C.D.' A #X% 7 @XoX= @ = @ @ + ",
"% % + $ $ + @ % @ + % % 1 W !.D.).B.z m S.F._./.].H f @.5.3.;.:.-.,.=.=.>.h.k.b.g.k.x.6.f [ ].{.(.D.A.' u OX% % % % = % $ - : 5 ",
"$ % $ + % % @ % @ % + % / G _.).).~.g M S.F._._.{.[.j z s.#.4.-.-.-.-.,.<.>.h.k.k.x.m.n B /._.{._.).b.} u @X% $ % + % + % # + < ",
"# 2 8 8 > % % % % = @ % ) j (.F.F.!.g N S.F._._.!.Q.y.f L u.4.-.,.,.,.,.,.,.,.h.x.z.] d y.V.!.{.{.`.b.' A >X% % , : > : : > - 5 ",
"+ $XeXqX5 + % @ + @ % % ) f B.N.N.B.z n S.F.Z.i.4.4.u.| k +.4.,.-.,.,.,.,.,.,.1.j.i.q | 7.<.6.d./._.A.' S XX+ =X8XqX8X0XqX9XeX4X",
"+ |.5X0X5 + $ % = % % + K.f i.N.l.B.n n D.l.%.&.-.-.3.0.z P 7.,.,.1.,.,.,.,.,.,.7.| z u.,.-.:.%.2.V.(.M G % $ =X8XqX6X6X5X8X5X4X",
"oX&X-X<X4 @ @ XXXXXX% % ;Xh B.F.D.(.[ c (.6.&.-.*.-.-.s.c Z 7.1.1.1.1.1.1.1.1.,.7.m P 4.-.-.*.;.%.6./.f ^ @ @ oX&X=X3X4X3X<X3X3X",
"8X=X|.XX, @ + 6X0XqX+ % ;Xh r.F.F.).[ g !.B.%.-.*.-.-.u.z P 7.1.h.1.1.1.1.1.1.1.<.I m #.-.-.*.;.%.z.].q T.% % + + + 8 |.|.XX8 |.",
"qX=XXXoX< + + 6X5XqX@ % ;XA 8.D.A.D.8.s t.!.%.-.&.:.-.5.k { 7.j.h.h.h.j.h.h.h.h.>.9.k u.-.*.*.=.%.!.Y.  yX+ @ $ % @ XXoXoXoXXXoX",
"&X8 : > : % + @X&X&X+ @ #XD C l.g.l.@.d 8./.2.*.X.:.-.@.d +.7.j.1.j.j.j.j.h.h.j.j.a.0 0.:.*.;.%.%./.w.9 fXoXoX: % + 5 2 2 oX XoX",
"XX2 + $ % @ + XX.X|.% % < ! c n.A.N.U.j [ {.i.&.*.:.3.| s 4.z.h.j.z.m.7.z.j.j.j.z.a.w 9.u.#.;.*.d.{.B W uXqX8X7 $ + % @ @ XXXXoX",
"oX5 $ % : % $ |.oXXX% @ % ) e ~.A.)./.B B ].Q.&.*.*.u.T d 7.h.k.z.p.@.N @.7.z.j.j.u.w 9.0.#.;.X.Q.[.a K.oX6X8X5 + % @ % % +XoXXX",
"oX5 $ + 5 |.8 oXXXoX+ $ , 7XQ 8.D.F.(.e.q R.[.%.*.X.5.P d z.h.j.p.Z w V d { 6.z.j.7.z I 0.;.&.u.].I.h ;X8 %X&X|.5 5 = % % < < 2 ",
"XX5 $ @ 8 oX.XoX.XoX% % = eX:XG i.l.l.i.q H pXf.&.*.;.P z m.V.$.z d @.:. .d z @.m.p.K K 5.X.=.I.pX^ E ( 2 XX|.XXoXXX: @ % # @ - ",
"XX5 @ % 7 .X.XXXXXXX% + : 8X6XQ { n.>.i.Z q E.}.2.&.X.K v U.{ q V 9.7.,.-.0.v d { s.L K ;.*.$.}.iXi ) 6 5 oXoXXX+X.X: + % # % - ",
"% % % @ : = % = % = @ % = @X+X( h f.M.m.L.d H pXW.2.O.K y F y | 3.:.4.:.-.*.u.I y z y U X.&.~.pXG.i :X% = : = = = : = $ % = % = ",
"% % % @ % @ % ; % % = @ = .X|.OXE 8.Q.V.Q.T h R.pXr.5.0.I K +.3.:.-.;.-.-.:.;.0.q.m | #...d.}.E.9 rX+ % % % % + % @ % @ = = % % ",
"+ % % % = @ @ % % O 5 < 5 XXoX8 1 A Y.Q.Q.s.k ^ pXpXe.#.5.;.-.*.;.:.4.:.-.*.*.;.#.s.#.5.f.[.aXF E uX, : % + @ % % o : $ % % % - ",
"% % @ % % @ % % % % 6X6X4XXX|.&X6X) F q.9.0.L 0 T.sX[.e.%.&.*.-.X.3.5.3.-.-.-.-.-.X.&.2.[.aXG.i uX8 5X5X+X$ % % @ % 2X5X4X6X4X4X",
"+ % % @ % $ % % % + 6X6X5X|.|.&X6X7XD L q.q.q.Y q R.sX[.e.2.%.;.#.#.;.*.-.-.*.=.%.;.y.}.aXR.A _ *X5 eX5X@X+ @ % @ @ 3X6X6X8X6X4X",
"% < |.XX> $ @ 8 8 7 <X3X-XXXXX+X-X<XK.e T Y.E.E.x h R.gXpXY.w.#.o.O.;.*.*.*.X.2.e.Y.pXgXyXe Q *X> 8 6X6XXX% % % @ % -X6X5X5X4X3X",
"% XX0XqX8 + @ 3X8X8XXX8 |.XXXX8 + + , Q 9 ` Y.E.P.x r T.hXkXiXU.&.....#.o.o.0.Y.iXhXkXtX  ! :XeX0X3X|.|.oXXXXX> % + |.XX.XXX|.oX",
"o @X6X0X7 % @ 3X6X6X|.oXoXXXoX8 + @ = : 1 X F T P.R J r J.fXkXgXaXiXiXiXiXiXhXhXhXfX/ X Q :X: qX6X4X8 @XoXXX@X> + + 8 8 XXoXXXXX",
"@X+X&X<X4 % + &X-X&XoXXXXXXXoX8 % % 2 oX+X6 * u x T R x r A T.fXkXkXlXlXlXkXkXfX_ S D K.7X8 8 -X3X<X8 oX8 8 8 , % % XXXX+X8 8 8 ",
"qX-X8 oX< + + XX|.|.XX8 oX+XXX8 + + XXeXeX7 % 1 & 9 r x x 0 w q F T.tXtXtXT.F   . ;XuX*X6XqX5XXX8 XX.XoX< + + % @ @ 8 XXoX% + % ",
"5X&XXXXX4 % % 8 XXXXXXXXoX8 oX|.+ $ XX8X8X8 % @ < ) ! u i u . . . & & & & & ! rXdX7X: % 6X6XqX8 oXoXoXoX5 + % + % @ 8 XXXX% % % ",
"&XXX> : > @ % , , < oXXXoXoXXX|.+ % 8 =X&X.X5 5 @X$X-X>X;X:XH.( = 2 < 8 @X&XH.2 % % % % +XXX+X< 5 7 +XoX5 % % , 5 2 XXXX+X% % % ",
"XX< + + % % % % + + oXXXXXoXXX8 @ + 2 XXXXoXXXoX4X8X0X% % % % $ + % + < oXoX< + @ % @ % % @ % @ + : XXoX5 + @ 8 +XXXoXXXoX% % $ ",
"XX5 % % % % % % : @ XXXXXXXXXX7 @ @ 5 XX.XoX|.XX3X8X6X= % % % % % % $ 4 oXXX< % % = % % + @ % % + , XXoX5 + @ 5 XXoXoXXX+X% % + ",
"XX8 8 8 , % % % + % XXXXXX: : : % @ = = % 8 XXXX@X@X@X-X-X=X+ @ % % $ ; > : : % @ % % % &X=X&X@ % = > > : @ % : > , , > , % + : ",
"oXoXoX+X< $ % % % % XXXXXX+ @ % % @ ; % + 7 XXXXoXXXXX8X6X5XO % = @ + % % % % % @ = % % 6X6X6X@ % = % @ % @ % % @ % % % % % + , ",
"XXH.8 XX, % % % % % |.XX|.@ $ % = @ : : = 8 XXXXXX.X|.6X6X4X% % ; @ % = @ % = % + : % % 4X6X6X+ @ % % @ = % % % + % % % @ % + , ",
"+X8 % % % % % % + % % = % % @ % @ @ 8 3X3X@X|.XX+XXX.X@XoX+X3X<X=XO % % $ % % % + =X3X3XoX+X+X@ @ % % % % % % % % % % % % -X-X3X",
"XX< + @ % % % % % % % % % % + = + + oXeX8X&X|.8 XXXX|..X8 @X8XqX2X+ @ = @ % : % o <X8X6XoX|.oX@ % % @ % % % % % @ % % % % 6X6X6X"
};
