/* XPM */
static char *f513d267ba334d46a11064e04edc72d7[] = {
/* columns rows colors chars-per-pixel */
"64 64 237 2 ",
"   c #7B3004",
".  c #752E11",
"X  c #783514",
"o  c #7C4B00",
"O  c #4E4F50",
"+  c #4F5052",
"@  c #535456",
"#  c #565759",
"$  c #58575C",
"%  c #57585A",
"&  c #5A5A5D",
"*  c #6E5953",
"=  c #5D5E60",
"-  c #605F64",
";  c #5F6062",
":  c #626364",
">  c #666669",
",  c #67686A",
"<  c #6A6B6D",
"1  c #726E6E",
"2  c #6E6E71",
"3  c #6F7072",
"4  c #737375",
"5  c #767779",
"6  c #787778",
"7  c #7B7B7D",
"8  c #852C00",
"9  c #8F2A00",
"0  c #952B03",
"q  c #893601",
"w  c #983803",
"e  c #893218",
"r  c #97381B",
"t  c #A63904",
"y  c #A73E17",
"u  c #8E3B24",
"i  c #8A4603",
"p  c #9B4402",
"a  c #964805",
"s  c #875201",
"d  c #975906",
"f  c #8B4519",
"g  c #954417",
"h  c #995512",
"j  c #A54903",
"k  c #AA5703",
"l  c #B75808",
"z  c #AC4F13",
"x  c #B75413",
"c  c #93650B",
"v  c #AB6604",
"b  c #B56508",
"n  c #AE6E10",
"m  c #B77715",
"M  c #884728",
"N  c #8A4933",
"B  c #964736",
"V  c #935034",
"C  c #AD5229",
"Z  c #B26A2B",
"A  c #B67823",
"S  c #C54E1C",
"D  c #C76804",
"F  c #C77409",
"G  c #C97818",
"H  c #D27114",
"J  c #E87E05",
"K  c #C65623",
"L  c #CB5930",
"P  c #CB712D",
"I  c #D77C25",
"U  c #E3743B",
"Y  c #935947",
"T  c #A55A4B",
"R  c #AB6F51",
"E  c #967469",
"W  c #837D79",
"Q  c #A97763",
"!  c #AA7A71",
"~  c #D67742",
"^  c #F17B4A",
"/  c #C17F6C",
"(  c #B68705",
")  c #BC8616",
"_  c #B38C27",
"`  c #C7870B",
"'  c #D4930F",
"]  c #C78A18",
"[  c #DC8815",
"{  c #ED9A06",
"}  c #F59C03",
"|  c #FB9D04",
" . c #F6990A",
".. c #FB9C09",
"X. c #E78A13",
"o. c #EA9718",
"O. c #F79B17",
"+. c #D6A61A",
"@. c #ECA706",
"#. c #F4A402",
"$. c #FCA303",
"%. c #F5AB02",
"&. c #FCAB03",
"*. c #F3A60A",
"=. c #FCA30B",
"-. c #FEAB0B",
";. c #ECB606",
":. c #F4B301",
">. c #FDB302",
",. c #FDBC02",
"<. c #FCB30B",
"1. c #F7B909",
"2. c #E8A519",
"3. c #F2A413",
"4. c #FBA312",
"5. c #FBAB13",
"6. c #FBA81A",
"7. c #EBB618",
"8. c #F9B916",
"9. c #FBB41C",
"0. c #D08D2B",
"q. c #CA9A3A",
"w. c #D8953A",
"e. c #E58A24",
"r. c #ED9C26",
"t. c #F19931",
"y. c #D7A826",
"u. c #DAAD3A",
"i. c #E9A726",
"p. c #FAA728",
"a. c #E7B828",
"s. c #FAB829",
"d. c #EFA833",
"f. c #E9B836",
"g. c #FBB636",
"h. c #FDC303",
"j. c #FDC50C",
"k. c #FCC808",
"l. c #FDD807",
"z. c #EBCE15",
"x. c #FAC817",
"c. c #FED816",
"v. c #FDE204",
"b. c #F8E608",
"n. c #F6F107",
"m. c #FCE415",
"M. c #FBF415",
"N. c #EACB2C",
"B. c #FAC826",
"V. c #E9D328",
"C. c #FAD728",
"Z. c #ECC63A",
"A. c #FBC938",
"S. c #FCD838",
"D. c #FAE52A",
"F. c #EFEA36",
"G. c #FBE738",
"H. c #FEEC3B",
"J. c #FBF43A",
"K. c #8E827C",
"L. c #B2866E",
"P. c #CE944F",
"I. c #EC974F",
"U. c #DEAB4C",
"Y. c #E9B745",
"T. c #F8B746",
"R. c #F1AE51",
"E. c #CA8E6D",
"W. c #EDA36B",
"Q. c #FDAA65",
"!. c #E6B56B",
"~. c #DDC24F",
"^. c #FAC947",
"/. c #FCD947",
"(. c #F1C452",
"). c #FBD853",
"_. c #FCE747",
"`. c #FBF147",
"'. c #FBE659",
"]. c #FDF555",
"[. c #FBCB67",
"{. c #FDDA67",
"}. c #F0D475",
"|. c #FEE564",
" X c #FEF265",
".X c #FAE579",
"XX c #7E7E81",
"oX c #807F84",
"OX c #7F8082",
"+X c #828385",
"@X c #858689",
"#X c #88878C",
"$X c #87888A",
"%X c #8A8A8C",
"&X c #97908C",
"*X c #8E8E91",
"=X c #8F9092",
"-X c #929395",
";X c #969699",
":X c #999898",
">X c #9A9A9C",
",X c #B29386",
"<X c #A89994",
"1X c #BCA58E",
"2X c #ABA39C",
"3X c #B7A698",
"4X c #9E9FA1",
"5X c #A09FA4",
"6X c #9FA0A2",
"7X c #A2A2A5",
"8X c #AAA5A6",
"9X c #A6A6A9",
"0X c #A7A8AA",
"qX c #AAABAD",
"wX c #B5ABA5",
"eX c #AEAEB1",
"rX c #B0AFB4",
"tX c #AFB0B2",
"yX c #B2B3B5",
"uX c #B5B6B9",
"iX c #C9938B",
"pX c #D0AA95",
"aX c #CAB5A8",
"sX c #D9B5A9",
"dX c #D9B4AC",
"fX c #E7BAB5",
"gX c #F3CE8D",
"hX c #FDE387",
"jX c #FBE997",
"kX c #D7C7B9",
"lX c #EBD3B9",
"zX c #FBEAA6",
"xX c #FEF2A6",
"cX c #FDEBB7",
"vX c #EBD4CA",
"bX c #E4D5D2",
"nX c #FBEDCF",
/* pixels */
"@ & & @ & @ & qXqXeXXXXXXX@ & = & & & & @ & @ # XX+X+X# # = & & % # & -XuXyX4 % # & @ : +X+X+X+X+X5 # & & & & % & > 9XeXeXXXoX+X",
"& : & & ; # # 9X0XtX7 XXXX@ & & # # & & @ & & & +XOX$X& & & # # # # @ %XeXyX< @ & & % & +X+X@X+X+X4 # # & # @ & # = 9XqXqX+X@X@X",
"@ 4 @X+X: & & >X>X-X+X+X+X@ & & # & 3 OX7 : @ @ 5 4 7 @ @ : 7 4 7 7 4 *X4X4X< # & & & & @XXX+X7 5 3 # & , 4 3 = % & -X4X-X+X+XXX",
"@ -XeXuX2 % @ +X7 7 +X+X+X@ # ; # @ %XyXuX2 # & @ @ @ & # 3 uXyXeXqXtX;X7 +X: % # = % & +X@X7 @ @ & # & %XuXqX2 % # % @ = +X+XXX",
"@ %XeXtX< @ # $X+X+X+X+XXX& & & @ # -XeXqX< + % & = & & @ < eXeXqXqXqX;X+X@X: $ & = & = +X%X7 @ & & @ @ *XyXeX< & & & # : @X#X7 ",
"@ +X-X=X: & & +X+X+X< , < # @ 4 *X$X*X=X>X7 4 4 & & & & % : @XXX@X-X-X%XXX@X: $ % % # & < 2 < & @ < $X+X-X-X;X< & # & @ & 4 4 < ",
"@ 4 +X+X> % % +X+XOX% @ & & # OXyXeX;X7 +XXX+X$X: & # & & % # @ > +XOX+X+X@X: & % & & # & @ # & % +XyXqX;XOXXX: # # & & & & $ & ",
"& 4 @XOX: @ % +X+X+X& & & & # XXtXqX;X+X+X@X@X$X= & & % # & = & < $X+X@XXXXX> & @ & + & @ & & # @ +XyXyX>X+X+X: & & & & # @ @ = ",
"& : : : = & @ : ; > @ & = & # : 3 < 7 +X+X2 = , & & & K.W < & : = , : XX@X@X> @ & *X>X-X& & ; & = , 7 4 3 , < = & & = & > -X*X#X",
"& & # # & & & & & # % & = @ # = @ @ 4 @X$X; # & <X,X,XL.* ; # & @ & # 4 @X+X: # = qX0XqX# # & & @ & @ # # # % % % & & # < rXeX5X",
"@ ; & & : & : @ @ @ : & & & # : & % 4 +X@X4 <XL.V f i h h h h h p w w r T E Y * * 8XyX0X# & # : & # @ @ # # # & % & & # > eXyX;X",
"& : % @ >XqXqX: & & qX0X>X% & & & % & % wXiXV i m 0.d.^.S.A.A.A.i.] l w C L L C y q Q aX< = < 4X>X9X4X7X-X7 OX: & & & % : *X-X%X",
"& # % @ 4X0XeX: # @ uX9X0XO % & @ # & vXL.8 k i.B.C.c.j.j.,.h.j.x.B.x.y.j t K ^ ^ L w V 1X:X< yXqXqX9XyX;X7 @X: % & & % = +X+X+X",
"& < < < -XeXqX& % & qXqX>X& & : = &XlXQ a G s.B.B.%.#.#.| | | $.&.<.x.B.s.b t K I.Q.I.z M 1X2XtX0XtXqXqX;XOX@X: @ % & # = +X@X@X",
"@ %XtXqX=X7 @X& & & XXXX@X@X+X+X+XvXL.q 0.A.B.1.#.$.} | ......| } } &.8.B.B.m w ~ Q.Q.I.Z X aX8X+XOX+X+X+X+XOX: @ & & & & & & = ",
"@ *XqX0X=X7 $X& @ = $X@X+XOX@X@XnXE.  q.A.x.@.#...|  .O.X.[ O.O. .} ..#.:.C.A.A 8 P.I.R.P.h u fX@X@X+XOX+X@X@X: @ ; # & & & # & ",
"5 %X7X7X*X+X@X= & = 5 7 7 @XOX+XiXr ) S.x.=.} } ..| | X.l w x O.} $. .} #.4.B.B.n p U t.i.] p T wX+X$X+X@X7 XX, % + > = & & & & ",
"eX;X7 +XOX@X@X& & # @ # : +X+XvXT k x.x.;...=.4...| 4.G j I.w X.=.|  .=.$.$.8.c.7.p K R.f.T.w.r ! W +X7 3 @ % # & : qXeXqX& : & ",
"qX7XOX@XOX+XXX& # & @ # : +XkXL.w i.C.;.:.4.6.4.4.=.O.p +.S.m D p.p.5.%.&.#.%.k.C.` 0 I.[.[.[.Z B 3X%X@X2 @ & @ # % 4XeXqX@ @ & ",
"%X7 +X@X4 4 5 > & = & = > 4 lXa n C.j.:.:.&.5.5.5.4.o.w V.m.y.i t.p.5.<.6.<.:.;.x.A.j k (.{.[.R.q L.:XXX2 & # 2 4 5 >X4X>X4 3 5 ",
"@ 4 +X@X: # @ & # & # & & &XL.q N.C.8.<.<.9.9.5.9.p.b m C.M.z.d I p.5.8.6.9.;.8.1.S.y.q 0.^.f.T.Z   3X& # & & ;XyXqX@X7 $XeXrX9X",
"& 2 +X$X: % # = & & @ % # aXM G S.B.s.g.p.9.9.s.s.p.p y.D.M.m.( x p.9.8.s.s.s.9.7.B.B.v d Z.a.T.I.q L.2X& @ % ;XqXtX@X+X+XeXeX7X",
"& : > < & # : & & & & & : iXg y.S.8.s.g.s.8.8.s.g.I k x.m.n.M.+.j t.g.9.9.B.s.8.8.x.c.` a f.'.{.[.A V lX& & & $X>X>X@X+X@X>X;X-X",
"@ & # # & & & @ & # & # 2XQ k C.x.x.s.g.s.B.8.A.T.Z b c.M.n.n.C.k P T.g.s.s.s.B.s.B.C.u.i q.|.|.|.q.f sX& & # 5 +XOX+XXX$X+X+XoX",
"& & & % = & @ : & & # @ aXV m D.x.8.s.g.g.A.^.T.w.g 2.m.n.n.n.c.` C I.T.T.g.g.s.s.B.C.^.h A )._.'.Y.a ,X: % % 7 XX+X$XXX@X+X@XXX",
"& & % & & & @ >X>X>X7 7 3Xa +.C.B.A.T.R.I.A n h a ( C.v.b.n.b.v.k.v d h n G d.T.^.s.A./.n d a.V.N.T.h ! nX%X%X+X+X+X+X+X+X< < < ",
"& & & & ; & @ 0XqXqXOX+X3Xo Z./.A.Y.k i d n ) ` 7.C.c.b.b.b.b.v.m.B.+.] m b p q G ^.A.S.' q Y._._.).Z T vXuXyX*X+XOX+XXX@X$ & & ",
"@ : : : : = : 7XqX0X@X+X,Xo /./.^.) b i.z.C.c.v.v.b.b.b.m.m.v.v.c.c.x.B.s.O.e.P p d.^.C.8.9 U. X]. Xq.g lXyXqX=X+X+X%X@X+X$ & # ",
"@ +X0X9XqXqX6X$X+X$X7 @XQ d _./.^.m D B.c.b.m.l.v.l.b.v.c.c.c.k.,.%.#.#.*. .p.e.w U.).C.C.9 q. X].].Y.8 kX< , 7 @X+X: & > = = = ",
"@ $XeX0X7X9XeX$XOX@X7 -XY n _._.'.Y.p y.c.b.z.m.v.v.l.l.c.h.>.&.$.$.$.$.*.6.r.D C [.).D.D.p ) /.G.G.f.8 fX& # 4 +X+X: & # & = = ",
"& 7 0X7X7XqX0XXXXX+X7 -XB ` S._.'.{.q.i y.m.l.l.l.l.l.l.h.:.%.&.&.&.$.$.&.t.P a R.{.'.D.D.k v Z.V.V.f.8 dX# & 5 %X@X= # = # # @ ",
"& & @ % % @ # & # @ % W r ' G.].'.|.).A c ;.c.l.l.l.l.,.@.%.%.&.&.&.=.=.4.e.p P.{.|.'.F.D.k v ).`.H.).q pX@ & & & & = & $ - : 4 ",
"$ & % @ & & # & # & @ K.e ' G.`.'.|.|.[.h ` x.k.l.c.h.:.:.&.>.&.&.&.-.4.O.j A {.|.'.'.J.G.b v '.`.`.'.q pX@ & % & @ & @ & $ @ < ",
"$ 2 7 7 > & & & & = # &Xe ' H.`.'.'.).^.' p ' x.j.h.:.:.:.>.&.&.>.-.-.6.D j i.A./.'.].J.H.k v _.H.H.).q pX& & & , : > : : > - 4 ",
"@ *XuXyX4 @ & # @ # & &Xr ( J.`./.g.a.;.3.I p s.j.,.>.>.>.>.>.>.&.<.5.[ w o.<.:.7.f./.H._.j v N.V.V.a.q sX# @ >XeXyXeXtXyXrXuX9X",
"@ XX0XtX4 @ % & = & & :XB ( G.x.3.4.&.%.<.o.j [ x.,.>.>.>.>.>.>.>.<.<.b l 6.>.&.6.3.@.z._.a n N.z.V.a.8 dX& % ;XeXyXqXqX0XeX0X9X",
"@X-X>X4X3 # # +X+X+X% <XR c G.7. .=.&.&.<.4.k G 8.,.,.,.,.,.,.>.,.<.8.k G 9.:.=.6...#.C.).8 0.H.H.H.f.q fX# # @X-X;X7X9X7X4X7X7X",
"eX;XXX+X, # @ qXeXyX# & iXs _.s.5.} $.&.-.{ j I 8.h.h.,.,.,.,.,.,.1.B.v G 5.%.-...=.} C.^.  f.H.H.`.+.q vX& & @ @ @ 7 XXXX+X7 XX",
"yX;X+X@X< @ @ qX0XyX# & pXi ).Z.@.$.$.=.5.o.j o.j.h.h.h.,.h.,.h.j.1.8.F l 4.:.&.| =.=.S.y.q f.G.D.G.m C vX@ # % & # +X@X@X@X+X@X",
"-X7 : > : & @ %X-X-X@ # sXf u.).@.#.4.=.9.' w 6.h.h.h.h.h.k.h.h.h.j.x.[ z O.>.$.-. .p.'._ a 2.x.z.7.d R vX@X@X: & @ 4 2 2 @XoX@X",
"+X2 @ % & # @ +XOXXX& & kXV 0.{.s. .O.5.*.' w s.j.h.k.j.x.x.x.x.k.h.j.3.t o.-.$.#.#.g.{.c n N.S.V.f.a ,XkXyXeX5 % @ & # # +X+X@X",
"@X4 % & : & % XX@X+X& # kXQ Z {.f.O.4.5.5.[ p A.j.k.j.8.` m i.s.x.k.h.8.t o.=.4.#.*.^.!.h _ `.`.].q.g pX+XqXeX4 @ & # & & #X@X+X",
"@X4 % @ 4 XX7 @X+X@X@ % > ,Xf ~./.@.*.3.p.H k B.z.x.7.n j x 0 0.s.x.c.7.w X.#.*.*.i..XP.p f._._.)._ V aX7 -X-XXX4 4 = & & < < 2 ",
"+X4 % # 7 @XOX@XOX@X& & = bXX q.).B.*.3.p.S F B.B.' d k o.p.X.p b i.A.g.j [ &.*.@.^.[.Z a s.B.a.d.s Q @ 2 +XXX+X@X+X: # & $ # - ",
"+X4 # & 5 OXOX+X+X+X& @ : eXE a .X).3.*.O.x G g.] i m p.5.-.5.o.k p w.R.x F &.*.i..X!.q ] 7.8.s.G   3X@ 4 @X@X+X$XOX: @ & $ & - ",
"& & & # : = & = & = # & = %XaX8 P.hXT.{ 4.F j l t H p.-.5.5.5.5.=.F w K t J ..o.{.hXP i (.N.A.g.w Q K.& = : = = = : = % & = & = ",
"& & & # & # & ; & & = # = OXwX/ r gX.Xd...o.F D O.6.-.&.=.-.5.5.=.4.X.D H O.O.Y.hXW.9 w.^.G.^.P w 3X@ & & & & @ & # & # = = & & ",
"@ & & & = # # & & + 4 < 4 +X@XaXB R jX[.r.3.p...| $.$.$.&.&.&.$.$.=.=.4.p.o.d..XgXV z R.^.Z.t.t ! 6 = : & @ # & & O : % & & & - ",
"& & # & & # & & & & qXqX9X+XXX7XiXr E.xX}.+.O...$.$.$.&.&.%.%.*.5.4.$.4.i.u..XjXR w I r.o.e.z B &X5 0XqX@X% & & # & 6X0X9XqX9X9X",
"@ & & # & % & & & @ qXqX0XXXXX;XvXT r gXxX}.d.O...| } #.%.&.%.*.*.4.4.2.Y.hXjXP.w Z t.r.e.z e <X@ 4 yX0X%X@ # & # # 7XqXqXeXqX9X",
"& < XX+X> % # 7 7 5 4X7X>X+X+X$XyXbXT f gXxXjXU.r.O.4.$.$.$.$.{ 3.i.d.R.hXjX!.8 Z Q.Q.R.P r ! 6 > 7 qXqX+X& & & # & >XqX0X0X9X7X",
"& +XtXyX7 @ # 7XeXeX+X7 XX+X+X7 @ @ lXY M pXcXxX}.R.o.} } | | } i.R.gXxXzXE.0 L I.Q.I.Z e E 4 yXeX7XXXXX@X+X+X> & @ XX+XOX+XXX@X",
"O %XqXtX5 & # 7XqXqXXX@X@X+X@X7 @ # : aXY N L.cXnXcXcXgXgXgXgXjXzXcXcXgXR 0 S ^ ^ ~ C u E : : yXqX9X7 %X@X+X%X> @ @ 7 7 +X@X+X+X",
"%X$X-X4X3 & @ -X>X-X@X+X+X+X@X7 & & 2 @X:XE N N iXvXnXnXnXnXnXnXnXlXL.u t x U L y r Y K.7 7 7 >X7X4X7 @X7 7 7 , & & +X+X$X7 7 7 ",
"yX>X7 @X< @ @ +XXXXX+X7 @X$X+X7 @ @ +XyXyX7 1 E 8   T E.pXpXpXE.C 9 0 r y C w 8 N K.W & qXyX0X+X7 +XOX@X< @ @ & # # 7 +X@X& @ & ",
"0X-X+X+X3 & & 7 +X+X+X+X@X7 @XXX@ % +XeXeX5 & & W L.Y M X X X . X e e e u M Q pX2X1 % & qXqXyX7 @X@X@X@X4 @ & @ & # 7 +X+X& & & ",
"-X+X> : > # & , , < @X+X@X@X+XXX@ & 7 -X-XOX4 4 %X*X>X&X2XwX<X3X3X<X<X<X8XwX<X< & & & & $X+X$X< 4 5 $X@X4 & & , 4 2 +X+X$X& & & ",
"+X< @ @ & & & & @ @ @X+X+X@X+X7 @ @ 2 +X+X@X+X@X9XeXtX& & & & % @ & @ < @X@X< @ # & # & & # & # @ : +X@X4 @ # 7 $X+X@X+X@X& & % ",
"+X4 & & & & & & : # +X+X+X+X+X5 # # 4 +XOX@XXX+X7XeXqX= & & & & & & # 2 @X+X< & & = & & @ # & & @ , +X@X4 @ # 4 +X@X@X+X$X& & @ ",
"+X7 7 7 , & & & @ & +X+X+X: : : & # = = & 7 +X+X%X%X%X>X>X;X@ # & & # : > : : & $ & & & -X;X-X# & = > > : # & : > , , > , & @ : ",
"@X@X@X$X< % & & & & +X+X+X@ # & & # ; & @ 5 +X+X@X+X+XeXqX0X+ & = # @ & & & & & # = & & qXqXqX# & = & # & # & & # & & & & & @ , ",
"+XK.7 +X, & & & & & XX+XXX# % & = # : : = 7 +X+X+XOXXXqXqX9X& & ; # & = # & = & @ : & & 9XqXqX@ # & & # = & & & @ & & & # & @ , ",
"$X7 & & & & & & @ & & = & & # & # # 7 7X7X%XXX+X$X+XOX%X@X$X7X4X;X+ & & % & & & @ ;X7X7X@X$X$X# # & & & & & & & & & & & & >X>X7X",
"+X< @ # & & & & & & & & & & @ = @ @ @XyXeX-XXX7 +X+XXXOX7 %XeXyX6X@ # = # & : & O 4XeXqX@XXX@X# & & # & & & & & # & & & & qXqXqX"
};
