/* XPM */
static char *_2c5681b7487423b98105e09822679cb[] = {
/* columns rows colors chars-per-pixel */
"64 64 234 2 ",
"   c #791A00",
".  c #722A00",
"X  c #673100",
"o  c #793300",
"O  c #753D2F",
"+  c #7D440F",
"@  c #6F442E",
"#  c #4D4E4F",
"$  c #4E4F51",
"%  c #4F5052",
"&  c #535456",
"*  c #565659",
"=  c #58575C",
"-  c #57585A",
";  c #5A5B5D",
":  c #7F5445",
">  c #796558",
",  c #5D5E61",
"<  c #605F63",
"1  c #5F6062",
"2  c #626364",
"3  c #666669",
"4  c #686568",
"5  c #67686A",
"6  c #6A6B6D",
"7  c #736D6B",
"8  c #6E6E71",
"9  c #6F7072",
"0  c #727375",
"q  c #767779",
"w  c #787779",
"e  c #7B7B7D",
"r  c #911E02",
"t  c #892906",
"y  c #972D0D",
"u  c #843100",
"i  c #8B3902",
"p  c #953805",
"a  c #9B3B00",
"s  c #9A3717",
"d  c #A33903",
"f  c #A53915",
"g  c #B03C17",
"h  c #903A25",
"j  c #8B4405",
"k  c #984704",
"l  c #9A5403",
"z  c #99461A",
"x  c #8F5116",
"c  c #A64703",
"v  c #B54A0D",
"b  c #A55704",
"n  c #B35A02",
"m  c #A54E12",
"M  c #A95913",
"N  c #9E6006",
"B  c #A86606",
"V  c #B96306",
"C  c #AB7302",
"Z  c #BB7809",
"A  c #AC6E14",
"S  c #B76916",
"D  c #B8751A",
"F  c #8B492C",
"G  c #844534",
"H  c #974E31",
"J  c #B15328",
"K  c #B87924",
"L  c #AF6B31",
"P  c #C35312",
"I  c #CB6F0F",
"U  c #C56B16",
"Y  c #D57A19",
"T  c #E47A13",
"R  c #C95831",
"E  c #CF692B",
"W  c #C57928",
"Q  c #8C5146",
"!  c #9C5846",
"~  c #A55145",
"^  c #966A56",
"/  c #9B6959",
"(  c #AF6D54",
")  c #927168",
"_  c #837B79",
"`  c #A87667",
"'  c #AD726A",
"]  c #E77142",
"[  c #B88E1E",
"{  c #BB882E",
"}  c #C98A1A",
"|  c #D78617",
" . c #D09010",
".. c #EC920C",
"X. c #F99B05",
"o. c #E88B1A",
"O. c #EB9918",
"+. c #F89917",
"@. c #CAA00B",
"#. c #EBA605",
"$. c #F2A301",
"%. c #FCA402",
"&. c #F9AB06",
"*. c #F2A30B",
"=. c #FBA40B",
"-. c #E9BB0F",
";. c #FCB403",
":. c #FDBC02",
">. c #F8B809",
",. c #EAA819",
"<. c #FBA314",
"1. c #F6A815",
"2. c #FBA51A",
"3. c #FCAB1A",
"4. c #F8B715",
"5. c #CA8726",
"6. c #D88A25",
"7. c #D58734",
"8. c #D29431",
"9. c #DC9936",
"0. c #E68C27",
"q. c #E69927",
"w. c #F39925",
"e. c #E8873B",
"r. c #F2813D",
"t. c #E89736",
"y. c #D7AA30",
"u. c #E6A526",
"i. c #F7A828",
"p. c #E5BC29",
"a. c #F9B827",
"s. c #E7A435",
"d. c #F6AB36",
"f. c #EDB838",
"g. c #F7B839",
"h. c #ECC50F",
"j. c #FCC205",
"k. c #FBC60A",
"l. c #FCDA07",
"z. c #FAC617",
"x. c #F9D618",
"c. c #F7E707",
"v. c #FEE619",
"b. c #FAC827",
"n. c #EDD02D",
"m. c #FCD626",
"M. c #EBC238",
"N. c #FDC534",
"B. c #FBC839",
"V. c #F6D439",
"C. c #FEE629",
"Z. c #FFF62C",
"A. c #FBE73B",
"S. c #FBF73A",
"D. c #AF8A42",
"F. c #8E877E",
"G. c #B08976",
"H. c #DB8A49",
"J. c #EC8948",
"K. c #FA9C58",
"L. c #D7AC47",
"P. c #EAAB43",
"I. c #F6A848",
"U. c #E9B443",
"Y. c #F5BA46",
"T. c #E3B354",
"R. c #FEB559",
"E. c #C68C70",
"W. c #D8A86A",
"Q. c #EDB66F",
"!. c #DBC04C",
"~. c #E8C94F",
"^. c #F8C945",
"/. c #F8D747",
"(. c #F5C758",
"). c #FBD954",
"_. c #EFE340",
"`. c #FBE747",
"'. c #FBFA47",
"]. c #FDE856",
"[. c #FCF855",
"{. c #FEC964",
"}. c #FDD566",
"|. c #F3CF73",
" X c #FFE765",
".X c #7E7E81",
"XX c #807F84",
"oX c #7F8082",
"OX c #828385",
"+X c #858689",
"@X c #89878A",
"#X c #87888A",
"$X c #8A8A8C",
"%X c #998E86",
"&X c #8E8E91",
"*X c #8F9092",
"=X c #929395",
"-X c #969699",
";X c #989799",
":X c #9A9A9C",
">X c #A68C86",
",X c #A8958C",
"<X c #B9948D",
"1X c #A69E9A",
"2X c #B3A899",
"3X c #9E9FA1",
"4X c #A09FA4",
"5X c #9FA0A2",
"6X c #A2A2A5",
"7X c #A6A6A9",
"8X c #A8A7AC",
"9X c #A7A8AA",
"0X c #AAABAD",
"qX c #BBADA7",
"wX c #AEAEB1",
"eX c #B4AFB0",
"rX c #AFB0B2",
"tX c #B2B3B5",
"yX c #B5B6B9",
"uX c #BAB8B8",
"iX c #CBAB94",
"pX c #D9AD9B",
"aX c #C3A7A1",
"sX c #CDB4AA",
"dX c #D9B4A7",
"fX c #F4D18F",
"gX c #FBE494",
"hX c #CDC4B2",
"jX c #F3D1B1",
"kX c #FFEBA0",
"lX c #FCE4BB",
"zX c #CAC4C1",
"xX c #E7D3C5",
"cX c #FDECCF",
/* pixels */
"& ; ; & ; & ; 0X0XwX.X.X.X& ; , ; ; ; ; & ; & * .XOXOX* * , ; ; - * ; =XyXtX0 - * ; & 2 OXOXOXOXOXq * ; ; ; ; - ; 3 7XwXwX.XXXOX",
"; 2 ; ; 1 * * 7X9XrXe .X.X& ; ; * * ; ; & ; ; ; OXoX#X; ; ; * * * * & $XwXtX6 & ; ; - ; OXOX+XOXOX0 * * ; * & ; * , 7X0X0XOX+X+X",
"& 0 +XOX2 ; ; :X;X=XOXOXOX& ; ; * ; 9 oXe 2 & & w 0 e & & 2 e 0 e e 0 &X3X3X6 * ; ; ; ; +X.XOXe q 9 * ; 5 0 9 , - ; =X3X=XOXOX.X",
"& =XwXyX8 - & OXe e OXOXOX& * 1 * & $XtXyX8 * ; & & & ; * 9 yXtXwX0XrX-Xe OX2 - * , - ; OX+Xe & & ; * ; $XyX0X8 - * - & , OXOX.X",
"& $XwXrX6 & * #XOXOXOXOX.X; ; ; & * =XwX0X6 % - ; , ; ; & 6 wXwX0X0X0X-X.XOX2 ; ; , ; , OX$Xe & ; ; & & &XtXwX6 ; ; ; * 2 +X@Xe ",
"& OX=X*X2 ; ; OXOXOX6 5 6 * & 0 &X#X&X*X;Xe 0 0 ; ; ; ; - 2 +X.X+X=X=X$XoX+X2 ; - - * ; 6 8 6 ; & 6 #XOX=X=X-X6 ; * ; & ; 0 0 6 ",
"& 0 OXOX3 - - OXOXoX- & ; ; * oXtXwX-Xe OX.XOX#X2 ; * ; ; - * & 3 OXoXOXOX+X2 ; - ; ; * ; & * ; - OXtX0X;XoX.X2 * * , ; ; ; = ; ",
"; 0 +XoX2 & - OXOXOX; ; ; ; * .XrX0X-XOXOX+X+X#X, ; ; - * ; , ; 6 #XOX+X.X.X3 ; & ; % ; & ; ; * & OXyXtX:XOXOX2 ; ; , ; * & & , ",
"; 2 2 2 , ; & 2 1 3 & ; , ; * 2 9 6 e OXoX6 , 5 ; ; ; 0 2 , * , ; @X@XeX+XOX4 & ; &X;X=X; ; 1 ; , 5 e 0 9 5 6 , ; ; , ; 3 =X&X@X",
"; ; * * ; ; ; ; ; * - ; , & * , & & 0 +X#X1 * ; - * >XG./ / / / / / / ` <XdX@X* ; 0X9X0X* * ; ; & ; & * * * - - - ; ; * 6 tXwX4X",
"& 1 ; ; 2 ; 2 & & & 2 ; ; ; * 2 ; - 0 OXOX1 - ; 2 ) G j B B l p p y f f f h ' aX2 7XwX9X* ; * 1 ; * & & * * * ; - ; ; * 3 wXtX;X",
"; 2 - & :X0X0X2 ; ; 0X9X:X- ; ; ; ; ; - , ; ; 2 > + 5.d.N.N.N.O.V p R ] E P f ! %X+X+X$X& , 6 3X:X7X3X6X=Xe oX2 ; ; ; - 2 &X=X$X",
"; * - & 3X9XwX2 * & yX7X9X$ - ; & * ; ; , - 2 > + y.N.z.k.j.k.z.a.D a E r.r.] J G %XoX.X- ; 6 tX0X0X7XtX;Xe +X2 - ; ; - , OXOXOX",
"; 6 6 6 =XwX0X; - ; 0X0X;X; ; 2 , 1 , * & 2 ) x 6.B.4.$.$.$.$.>.b.g.M f J.K.K.J.z ^ 1X.X; ; 8 rX9XrX0X0X-XoX+X2 & - ; * , OX+X+X",
"& $XrX0X*Xe +X; ; ; .X.X+X+XOXOXOXOX8 ; ; >XF D B.4.X.%.X.X.*...*.a.d.a R K.R.R.H.z G.1X* ; , #XOXoXOXOXOXOXoX2 & ; ; ; ; ; ; , ",
"& &X0X9X*Xe #X; & , #X+XOXoX+X+XOX+X0 & ,X` j Y.a.$.X.+...| O.<.$.#.b. .i H.P.s.K.E t pX& ; 2 $X+X+XOXoXOX+X+X2 & 1 * ; ; ; * ; ",
"q $X6X6X&XOX+X, ; , q e e +XoX+XOXOX9 * sXu } ^.1.X.X.o.c k I +.*.$.>.b.l m 9.t.t.t.c ~ 1X* 2 OXq OX#XOX+Xe .X5 - % 3 , ; ; ; ; ",
"wX-Xe OXoX+X+X; ; * & * 2 OXOXOXOXOX0 2 ( k b.i.*.%.=.I c 7.c +.2.*.$.z. .i t.U.Y.f.9.y <X; * ; * 5 OXe 9 & - * ; 2 0XwX0X; 2 ; ",
"0X6XoX+XoXOX.X; * ; & * 2 OXOX+X+XOX8 qXh  .x.#.*.=.2.V S ~.p w.<.3.3.4.u.c K }.)./.R.J ^ e ; & - 6 #X+X8 & ; & * - 3XwX0X& & = ",
"$Xe OX+X0 0 q 3 ; , ; ; 2 0 0 w q 0 6 >Xi p.-.4.3.2.w.b q.V.l T 3.2.i.>.a.S J {.).).}.7.F ,X1 ; ; 5 e .X8 ; * 8 0 q :X3X:X0 9 q ",
"& 0 OX+X2 * & ; * ; * ; ; * * ; & * e ) b a.-.4.i.i.s.i M.m.Z U 3.i.a.>.N.5.d 7.M.p.g.t.p >X; ; ; ; & & * ; ; -XtX0X+Xe #XwXtX7X",
"; 8 OX#X2 - * , ; ; & - * ; * , & * qXQ K N.4.a.a.d.0.l V.C. .c a.3.a.>.z.i.d W M.M.f.g.c ` _ ; * ; ; ; ; & - -X0XrX+XOXOXwXwX6X",
"; 2 3 6 ; * 2 ; ; ; ; ; 2 =X&XOX- ; aXx } b.4.a.a.g.I Z b.C.y.k i.a.a.z.h.^.c { ).].].].7.h 1X1 - ; ; ; ; ; ; #X:X:X+XOX+X:X-X=X",
"& ; * * ; ; ; & ; * ; * 6 yX0X;X& & aXj a.b.b.4.a.Y.c  .C.C.p.l | g.g.b.h.V.V N ).].'.].(.  <X; ; , & ; ; ; * q OXoXOX.X#XOXOXXX",
"; ; ; - , ; & 2 ; ; * & 5 7X0X-X& 4 <Xj B.b.N.N.B.d.k y.v.v.x.B U Y.Y.g.b.m.6.i ~./.`.`.(.u G.; ; 1 * ; * - ; e .XOX#X.X+XOX+X.X",
"; ; - ; ; ; & ;X:X:Xe e e 0 6 8 * hX' c V.B.g.u.A l B x.c.l.v.@.k M 5.I.B.B.U.u P.^.n.n.f.b ! :X&XoX& ; q $X$XOXOXOXOXOXOX6 6 6 ",
"; ; ; ; 1 ; & 9X0X0XoXOX.X# & ; ; hXH V /.y.k l A  .z.v.c.c.c.x.O.W M k Z B.^.o 8.^.V.V./.K F zXtX-X$ * $XyXtX&XOXoXOX.X+X= ; ; ",
"& 2 2 2 2 , 2 6X0X9X+XOXOX; ; , , hXj Y V.C K p.m.m.v.c.c.c.c.x.a.d.q.W i U./.+ L. X[.[.[.8.h hX0X:X& ; #XrX0X*XOXOX$X+XOX= ; * ",
"& OX9X7X0X0X5X#XOX#Xe OX+Xe .X+XOXhXu q.^.D W m.x.l.l.c.c.l.k.;.%.+.w.J.i U./.l W  X[.[.[.!.G qX$Xe * - 1 6 5 e +XOX2 ; 3 , , , ",
"& #XwX9X6X7XwX#XoX+Xe OXOXe OX+XOXsXo s.).8.l b.l.l.c.l.l.j.;.%.%.X.i.U b ^.V.l S ).A.A._.L.h sXoXe & & ; ; * 0 OXOX2 ; * ; ; , ",
"; e 9X6X6X0X9X.X.XOXe oXOX#XOX$Xe qX. U.).(.x } m.l.l.l.k.;.&.%.%.<.w.k 8.)./.C b B.b.n.n.s.y sXOXe ; ; 2 * ; q $X+X, * , * * & ",
"; ; & - - & * ; * & ; ; 2 +XOXq & 2XX Y.).].{ M a.l.l.k.>.#.;.&.=.1.Z x (.].V.C b ).A.A.`.U.y iXOX+XOX+X0 & ; ; ; ; , ; = < 2 0 ",
"= ; - & ; ; * ; * ; & ; ; +XOXw & ,XX Y.].].).k  .x.k.:.;.;.&.&.1.O.l {  X]./.C b ].'.'.'.!.p iX.XOX+XOX0 & ; - ; & ; & ; = & 6 ",
"= 8 e e 3 ; ; ; ; , * ; 2 .X.Xq ; %XX Y.].`./.U B z.k.;.;.;.&.&.<.| k P.).].`.C l `.S.S.'.!.p iXOX#Xe e 0 ; ; ; 5 2 3 2 2 3 < 0 ",
"& &XyXtX0 & ; * & * ; - ; & * , ; F.X Y. XB.4.q.a i.>.:.;.;.;.;.3.V V d.a.V./.C b B.x.x.n.s.y dXOXe & - ; * & ;XwXtXwXrXtXtXyX7X",
"& .X9XrX0 & - ; , ; ; & ; ; , = * F.. f.^.,.&.1.b o.>.:.;.;.;.;.<.c 0.i.*.#./.B n N.x.x.n.9.r jX+X.X& ; ; ; - ;XwXtX0X0X9XwX8X7X",
"+X=X:X3X9 * * OXOXOX; ; , ; & 5 #X1Xu 9.g.*.%.%.V I >.:.:.:.:.:.1.d t.+.=.*.^.l U `.Z.Z.A.L.r xXw 8 * ; ; * * +X=X-X6X7X6X3X6X6X",
"wX-X.XOX5 * & 0XrXyX* ; ; ; * e wXuXi 5.^.$.%.X.n Y >.:.j.j.j.:.1.c 0.2.%.$.).j 7.`.Z.Z.S.y.t xX* ; ; * , ; ; & & & e .X.XOXe .X",
"tX-XOX+X6 & & 0X9XtX* ; ; ; * e wXyX! S ^.$.=.+.c 0.>.j.j.k.j.:.i.n Y 3.%.1.).u t.A.v.C.A.[ s xX* , ; - ; & * - ; * OX+X+X+XOX+X",
"=Xe 2 3 2 ; & $X=X=X& - ; ; = 3 .X$X' m /.#.*.O.a q.z.j.j.k.k.k.a.V I <.%.3.Y.u t.z.h.h.n.l J zX- ; - * 0 +X+X2 ; & 0 8 8 +XXX+X",
"OX8 & - ; * & OXoX.X; ; ; * * ; ; & <Xk ).,.*...a s.b.k.z.4.z.k.4.V I <.#.N.t.p f.m.x.m.B.j E.1X; , ; & #XtXwXq - & ; * * OXOX+X",
"+X0 - ; 2 ; - .X+XOX; * ; , ; , & = aXp Y.a.<...c d.b.z.#. .a.z.j. .P 3.#.).W l /.S.C.A.(.. iX0 * ; * & +X0XwX0 & ; * ; ; @X+XOX",
"+X0 - & 0 .Xe +XOX+X& - 5 :X:X$X; ; dXs L.^.+.o.a d.b.,.c a K g.z. .v +.3.}.m D /.S.C./.9.o 2X; ; 2 ; ; e =X=X.X0 0 , ; ; 6 6 8 ",
"OX0 - * e +XoX+XoX+X; ; , yXwX:X& * dX~ D.{.O.0.a Y.d.l V o.a W N.| c <.g.(.p 5.p.h.h.g.b / =X* - ; ; & 8 OX.XOX+XOX2 * ; = * < ",
"OX0 * ; q oXoXOXOXOX; & 2 wX7X-X& - $X/ L {.s.0.d P.n b *.3.Y d | 7.d +.(.L.k 5.p.-.-.u.a ,X.X; * , ; & 0 +X+XOX#XoX2 & ; = ; < ",
"; ; ; * 2 , ; , ; , * ; , $X#XOX& ; , G.f Q.T.0.d n c O.4.=.i.I d m n i.}.L m f.V.m.N.} z _ 3 - ; ; ; ; , 2 , , , 2 , - ; , ; , ",
"; ; ; * ; * ; 1 ; ; , * , oX.XOX; * ; %Xh W.|.q.Y I O.<.;.1.2.+.T I q.y.|.J S (./.B.B.A ^ < ; ; ; 2 & ; ; ; ; & ; * ; * , , ; ; ",
"& ; ; ; , * * ; ; % 0 6 0 OX+Xe 5 6 2 0 ! z fXU.u.+.=.%.&.1.<.X.=.X.,.}.W.y t.Y.^.f.y.p ) ; ; - & ; , 2 ; & * ; ; $ 2 - ; ; ; < ",
"; ; * ; ; * ; ; ; ; 0X0X7XOX.X=X0XtX+X& %X  Q.|.u.+.%.%.&.1.=.%.X.*.f.gXL f t.q.s.8.B z _ ; & ; - q 9X0X#X- ; ; * ; 5X9X7X0X7X7X",
"& ; ; * ; - ; ; ; & 0X0X9X.X.X=X0X0X+X* _ ` H gX|.i.%.=.<.*.$.$.=.d.gXW.u E t.0.0.7.o iX; ; * ; & 0 yX9X$X& * ; * * 6X0X0XwX0X7X",
"; 6 .XOX3 - * e e q 3X6X:XOXOX#X:X3Xe ; * ,XH G.kXT.O.2.X.X.&.*.s.fXjXF M I.Y.R.K.s / 1X- & , 6 3 e 0X0XOX; ; ; * ; ;X0X9X8X7X6X",
"; OXrXtXe & * 6XwXwXOXe .XOXOXe & & 1 ; - w ) H fXkXQ.w.$.$.$.P.fXlX( s H.I.I.I.J ~ >X* ; ; 2 yXwX6X.X.X+XOXOX3 ; & .XOXoXOX.X+X",
"# $X0XrXq ; * 6X0X0X.X+X+XOX+Xe & * , & ; ; 1XO ! jXlXjXfXfXfXlXlXE.s J J.e.e.J G ) ; - * * 2 tX0X7Xe $X+XOX$X3 & & e e OX+XOXOX",
"$X#X=X3X9 ; & =X;X=X+XOXOXOX+Xe ; ; 8 +X#X5 2 sXG H dXcXcXcXcXjX( y g ] E E s Q 7 ; ; ; q e e :X6X3Xe +Xe e e 5 ; ; OXOX#Xe e e ",
"tX:Xe +X6 & & OX.X.XOXe +X#XOXe & & OXyXyXq & F.sX/ . ( iXiXE.H t d R P v s ^ 7 * ; ; ; 0XtX9XOXe OXoX+X6 & & ; * * e OX+X; & ; ",
"9X=XOXOX9 ; ; e OXOXOXOX+Xe +X.X& - OXwXwXw ; * F.qXG.: @ @ @ O G Q Q Q / <X0 * * , - ; 0X0XtXe +X+X+X+X0 & ; & ; * e OXOX; ; ; ",
"=XOX3 2 3 * ; 5 5 6 +XOX+X+XOX.X& ; e -X=XoX0 0 $X&X=X2 ; 2 & ; , w 0 OX+XOX6 ; ; ; ; ; #XOX#X6 0 q #X+X0 ; ; 5 0 8 OXOX#X; ; ; ",
"OX6 & & ; ; ; ; & & +XOXOX+XOXe * & 8 OXOX+XOX+X7XwXrX; ; ; ; - & ; * 8 +X+X6 & * ; * ; ; * ; * & 2 OX+X0 & * e #XOX+XOX+X; ; - ",
"OX0 ; ; ; ; ; ; 2 * OXOXOXOXOXq * * 0 OXoX+X.XOX6XwX0X, ; ; ; ; ; ; * 8 +XOX6 ; ; , ; ; & * ; ; & 5 OX+X0 & * 0 OX+X+XOX#X; ; & ",
"OXe e e 5 ; ; ; & ; OXOXOX2 2 2 ; * , , ; e OXOX$X$X$X;X:X;X& * ; ; ; 2 3 2 2 ; * ; ; ; =X-X=X* ; , 3 3 2 * ; 2 3 5 5 3 5 ; & 2 ",
"+X+X+X#X6 - ; ; ; ; OXOXOX& & ; ; * 1 ; & q OXOX+XOXOXwX0X9X% ; , * & ; ; ; ; ; * , ; ; 0X0X0X* ; , ; * ; * ; ; * ; ; ; ; ; & 5 ",
"OXF.e OX5 ; ; ; ; ; .XOX.X* - ; , * 2 2 , e OXOXOXoX.X0X0X7X; ; 1 * ; , * ; , ; & 2 ; ; 7X0X0X& * ; ; * , ; ; ; & ; ; ; * ; & 5 ",
"#Xe ; ; ; ; ; ; & ; ; , ; ; * ; * * e 6X6X$X.XOX#XOXoX$X+X#X6X3X-X% ; ; - ; ; ; & -X6X6X+X#X#X* * ; ; ; ; ; ; ; ; ; ; ; ; :X;X6X",
"OX6 & * ; ; ; ; ; ; ; ; ; ; & , & & +XyXwX=X.Xe OXOX.XoXe $XwXtX5X& * , * ; 2 ; $ 3XwX0X+X.X+X* ; ; * ; ; ; ; ; * ; ; ; ; 0X0X0X"
};
