/* XPM */
static char *_f1ffa830c2d443ea584594dc5443876[] = {
/* columns rows colors chars-per-pixel */
"64 64 237 2 ",
"   c #773214",
".  c #79372C",
"X  c #7A4231",
"o  c #4D4E4F",
"O  c #4E4F51",
"+  c #4F5052",
"@  c #535456",
"#  c #565659",
"$  c #58575C",
"%  c #57585A",
"&  c #5A5B5D",
"*  c #725750",
"=  c #7B615C",
"-  c #5D5E61",
";  c #605F64",
":  c #5F6062",
">  c #626264",
",  c #696767",
"<  c #666669",
"1  c #67686A",
"2  c #6A6B6D",
"3  c #726A69",
"4  c #6E6E71",
"5  c #706F73",
"6  c #6F7072",
"7  c #737375",
"8  c #767779",
"9  c #787779",
"0  c #7A7B7D",
"q  c #881902",
"w  c #951E00",
"e  c #8A2502",
"r  c #952700",
"t  c #883607",
"y  c #953201",
"u  c #993A02",
"i  c #922F18",
"p  c #873816",
"a  c #A32D02",
"s  c #A63602",
"d  c #A43C02",
"f  c #A9351B",
"g  c #893B2B",
"h  c #B23B26",
"j  c #8A4404",
"k  c #984703",
"l  c #965709",
"z  c #8B4819",
"x  c #9A5517",
"c  c #A64804",
"v  c #A95705",
"b  c #B35805",
"n  c #B6540E",
"m  c #A94813",
"M  c #B34B19",
"N  c #A45A19",
"B  c #986609",
"V  c #A96B0C",
"C  c #BA6609",
"Z  c #B76A17",
"A  c #B77717",
"S  c #894826",
"D  c #974427",
"F  c #98532D",
"G  c #854B39",
"H  c #974C39",
"J  c #865639",
"K  c #AC5426",
"L  c #956022",
"P  c #B56C2B",
"I  c #BA682A",
"U  c #C3570E",
"Y  c #CE710A",
"T  c #D77B05",
"R  c #C66C18",
"E  c #C87A18",
"W  c #CB5928",
"Q  c #C47924",
"!  c #CF6C32",
"~  c #E47033",
"^  c #935846",
"/  c #895A51",
"(  c #8D6659",
")  c #AB6857",
"_  c #AC7052",
"`  c #936963",
"'  c #907469",
"]  c #857C79",
"[  c #917872",
"{  c #AE7369",
"}  c #CE7542",
"|  c #BA8412",
" . c #BB8225",
".. c #D28E0E",
"X. c #C68417",
"o. c #D89C1B",
"O. c #E6890B",
"+. c #EA9906",
"@. c #F89B06",
"#. c #ED8B13",
"$. c #E89516",
"%. c #F69C17",
"&. c #DAA311",
"*. c #EDA502",
"=. c #EAA806",
"-. c #FBA402",
";. c #F3AA02",
":. c #FBAB03",
">. c #F4A508",
",. c #FCA409",
"<. c #FCAC0B",
"1. c #E9B509",
"2. c #FBB401",
"3. c #FCBB02",
"4. c #F8B908",
"5. c #EBA516",
"6. c #F8A617",
"7. c #FDAB12",
"8. c #EBB716",
"9. c #FBB212",
"0. c #F8B718",
"q. c #C88627",
"w. c #D98726",
"e. c #D79525",
"r. c #DC8838",
"t. c #CD9335",
"y. c #E99925",
"u. c #EF922C",
"i. c #F59A27",
"p. c #E2863B",
"a. c #E99934",
"s. c #D7AD2D",
"d. c #EAA629",
"f. c #F7A727",
"g. c #E8B727",
"h. c #F8BA26",
"j. c #E9A937",
"k. c #F9A635",
"l. c #ECB433",
"z. c #EAB535",
"x. c #F6B837",
"c. c #FCBC3A",
"v. c #ECC908",
"b. c #FBC303",
"n. c #FBC80C",
"m. c #FBDB07",
"M. c #EBC51E",
"N. c #FAC71A",
"B. c #EDD51A",
"V. c #FBD818",
"C. c #FCE606",
"Z. c #FDEC0E",
"A. c #D9C02E",
"S. c #F9C527",
"D. c #E9D02D",
"F. c #FAD326",
"G. c #FCCC32",
"H. c #F8C936",
"J. c #F7D637",
"K. c #FDEA24",
"L. c #FFF32A",
"P. c #ECE439",
"I. c #FDEA38",
"U. c #FEF835",
"Y. c #B98751",
"T. c #8A817D",
"R. c #978379",
"E. c #B08776",
"W. c #D39349",
"Q. c #EE9149",
"!. c #D6AB4B",
"~. c #F8AB48",
"^. c #F9B848",
"/. c #FAA858",
"(. c #F0B351",
"). c #C78E71",
"_. c #D7B46C",
"`. c #F8AE66",
"'. c #FEB863",
"]. c #ECC845",
"[. c #FDCC43",
"{. c #F7C348",
"}. c #F9D747",
"|. c #F9C956",
" X c #ECD454",
".X c #FBD558",
"XX c #FCE649",
"oX c #FCF846",
"OX c #FDE656",
"+X c #FFF554",
"@X c #FDD865",
"#X c #F1CF74",
"$X c #F9E665",
"%X c #FAE57B",
"&X c #7E7E81",
"*X c #807F84",
"=X c #7F8082",
"-X c #828385",
";X c #8B8787",
":X c #858689",
">X c #87888A",
",X c #8A8A8C",
"<X c #968B86",
"1X c #9F9084",
"2X c #8E8E91",
"3X c #8F9092",
"4X c #929395",
"5X c #969699",
"6X c #999898",
"7X c #9A9A9C",
"8X c #AB9389",
"9X c #B1908B",
"0X c #A99A94",
"qX c #B4A194",
"wX c #9E9FA1",
"eX c #A09FA4",
"rX c #9FA0A2",
"tX c #A2A2A5",
"yX c #A6A6A9",
"uX c #A8A7AC",
"iX c #A7A8AA",
"pX c #AAABAD",
"aX c #AEAEB1",
"sX c #B4AFB0",
"dX c #AFB0B2",
"fX c #B2B3B5",
"gX c #B5B6B9",
"hX c #B7B8BA",
"jX c #C99C93",
"kX c #D6AD92",
"lX c #CCB3A8",
"zX c #F5D08F",
"xX c #F7DA93",
"cX c #FCE799",
"vX c #FADCAB",
"bX c #FDE8AC",
"nX c #FDEACB",
/* pixels */
"@ & & @ & @ & pXpXaX&X&X&X@ & - & & & & @ & @ # &X-X-X# # - & & % # & 4XgXfX7 % # & @ > -X-X-X-X-X8 # & & & & % & < yXaXaX&X*X-X",
"& > & & : # # yXiXdX0 &X&X@ & & # # & & @ & & & -X=X>X& & & # # # # @ ,XaXfX2 @ & & % & -X-X:X-X-X7 # # & # @ & # - yXpXpX-X:X:X",
"@ 7 :X-X> & & 7X7X4X-X-X-X@ & & # & 6 =X0 > @ @ 9 7 0 @ @ > 0 7 9 0 7 2XwXwX2 # & & & & :X&X-X0 8 6 # & , 7 6 - % & 4XwX4X-X-X&X",
"@ 4XaXgX4 % @ -X0 0 -X-X-X@ # : # @ ,XfXgX4 # & @ @ @ & # 6 gXfXaXpXdX5X0 -X> % # - % & -X:X9 @ @ & # & ,XgXpX4 % # % @ - -X-X&X",
"@ ,XaXdX2 @ # >X-X-X-X-X&X& & & @ # 4XaXpX2 + % & - & & @ 2 aXaXpXpXpX5X=X-X> & & - & - -X,X0 @ & & @ @ 2XfXaX2 & & & # > :X>X0 ",
"@ -X4X3X> & & -X-X-X2 1 2 # @ 7 2X>X2X3X7X0 7 7 & & & & % > :X&X:X4X4X,X=X:X> & % % # & 2 4 2 & @ 2 >X-X4X4X5X2 & # & @ & 5 7 2 ",
"@ 7 -X-X< % % -X-X=X% @ & & # =XfXaX5X0 -X&X-X>X> & # & & % # @ < -X=X-X-X:X> & % & & # & @ # & % -XfXpX5X=X&X> # # - & & & $ & ",
"& 7 :X=X> @ % -X-X-X& & & & # &XdXpX5X-X-X:X:X>X- & & % # & - & 2 >X-X:X&X&X< & @ & + & @ & & # @ -XgXfX7X-X-X> & & - & # @ @ - ",
"& > > > - & @ > : < @ & - & # > 6 2 0 -X-X2 - 1 & & & 1 ;XqX0X0X0X0X0X6X4X-X, @ & 2X7X4X& & : & - 1 9 7 6 , 2 - & & - & < 4X2X>X",
"& & # # & & & & & # % & - @ # - @ @ 7 :X>X: # & % # 8XjXE.{ ) ) ) _ _ _ { 9X<X, & pXiXpX# # & & @ & @ # # # % % % & & # 2 fXaXeX",
"@ : & & > & > @ @ @ > & & & # > & % 7 -X:X: # & , E.H i f h f i y k l V l j J 8X0 yXaXiX# & # : & # @ @ # # # & % & & # < aXfX5X",
"& > % @ 7XpXpX> & & pXiX7X% & & & & & % - & & > R.t m W ~ ~ f d Q l.J.G.G.o.A   9X2X:X,X@ - 2 wX7XyXwXtX4X0 =X> & & & % > 2X4X,X",
"& # % @ wXiXaX> # @ gXyXiXO % & @ # & & & # & ' t I p.p.~ m u t.[.F.n.0.N.S.h.A   8X=X&X% & 2 fXpXpXyXfX5X0 :X> % & & % - -X-X-X",
"& 2 2 2 4XaXpX& % & pXpX7X& & > - : - # @ - ' p I Q./.`.I u w.H.0.+.@.-.@.:.h.x.Z / ;X&X& & 4 dXiXdXpXpX5X=X:X> @ % & # - -X:X:X",
"@ ,XdXpX3X0 :X& & & &X&X:X:X-X-X-X-X4 & & ] G K /.'./.Q.c Z H.0.*.-.@.@.@.-.>.S.d.F R.:X# & & >X-X=X-X-X-X-X=X> @ & & & & & & - ",
"@ 2XpXiX3X0 >X& @ - >X:X-X=X:X:X-X:X7 @ 1 ` t Q.~.Q.Q.I u x.h.=.;.>.O.O.%.6.+.6.S.e.G >X@ & > ,X:X:X-X=X-X:X:X> @ : # & & & # & ",
"8 ,XtXtX2X-X:X- & - 8 9 0 :X=X:X-X-X6 # 1Xp I a.u.a.! u ..G.%.>.+.$.b c R %.-.+.0.H.F [ # # > -X8 -X>X-X:X0 &X1 % + < : & & & & ",
"aX5X0 -X=X:X:X& & # @ # > -X-X-X-X-X7 9 H N (.^.^.~.Z u S.4.5.>.6.E c r.s %.@.7.*.S.e.H 3 & # & # , -X0 6 @ % # & > pXaXpX& ; & ",
"pXtX=X:X=X-X&X& # & @ # > -X-X:X:X-X4 8Xp W.|..X.X'.u E S.;.<.>.6.R b {.y y.%.6.6.0.g.x ( # & @ % 2 >X:X4 @ & @ # % rXaXpX@ @ $ ",
",X0 -X:X7 7 8 < & - & & > 7 7 9 8 7 7 ' x (.@X|..Xr.k o.0.;.1.9.%.n ..G.v E k.>.0.9.S.A / > : & & , 0 &X4 & # 4 7 8 7XrX7X7 5 8 ",
"@ 7 -X:X> # @ & # & # & & # # & @ # T.^ P ~.c.x.^.Z v M.0.9.8.0.i.a 8.F.q.b k.9.>.0.N.e.S T.& % & & @ @ # & & 5XfXpX:X0 >XaXfXyX",
"& 4 -X>X> % # - & & @ % # & # - @ # R.S q.{.x.l.j.m A F.0.0.8.h.y.a B.K.s.k k.4.4.4.n.c.j 8X& & # & & & & @ % 5XpXdX:X-X:XaXaXtX",
"& > < 2 & # > & & & & & > 4X2X-X% & 1XS |.OXOXOX!.k E J.0.9.h.x.E C V.K.s.j ~.0.h.0.0.[.l { 7 : % & & & & & & >X7X7X:X-X:X7X5X4X",
"@ & # # & & & @ & # & # 2 hXpX5X@ @ R.L $X+XOX$X!.j j.G.h.x.c.^.v e.V.Z.M.l w.c.c.x.h.[.V F <X% & - @ & & & # 8 -X=X-X&X>X-X-X*X",
"& & & % - & @ > & & # @ 1 yXpX5X@ 3 ^ A OXXX}..Xt.j H.H.c.^.'.(.j s.V.C.V.V Z ^.^.^.c.G.o.e sX& & : # & # % & 9 &X-X>X&X:X-X:X&X",
"& & % & & & @ 7X7X7X0 0 0 7 2 4 # 0Xi e.J.D.H.{.I l J.[.^.u.I x B M.C.C.C...l x Q ~.^.G.S.q lX4X2X=X@ & 8 ,X,X-X-X-X-X-X-X2 2 2 ",
"& & & & : & @ iXpXpX=X-X&Xo @ & # lXq !.P.J.J.|.v B }.j.v c C X.g.K.C.C.C.V.1.| V j Z S.G.w jXhXfX5XO # ,XgXfX2X-X=X-X&X:X$ & & ",
"@ > > > > - > tXpXiX:X-X-X& & - # qXe $XoXoX+X$Xk | .XQ c #.7.N.V.C.C.m.Z.m.V.F.S.s.j g.G.s E.fXpX7X@ & >XdXpX3X-X-X,X:X-X$ & # ",
"@ -XiXyXpXpXrX>X-X>X0 -X:X0 &X:X6XE.u $XoXoX+X Xy ..}.Q b i.,.-.*.4.V.m.m.m.C.V.F.H.t z.}.c { >X,X0 # % : 2 , 9 :X-X> & < - - - ",
"@ >XaXiXtXyXaX>X=X:X0 -X:X&X-X:X:XE.c }.P.P.J.].r &.}.!.k u.@.-.:.;.1.n.m.C.m.V.F.o.l H.}.b { 7X=X0 @ @ & & # 7 -X-X> & # & & - ",
"& 0 iXtXtXpXiX&X&X-X0 =X-X:X-X,X0 { M x.D.D.D.l.w g.I.|.N C 6.,.:.;.*.4.m.m.m.V.S.l t.XX}.R ( 6X-X9 & & > # & 8 ,X:X- # - # # @ ",
"& & @ % % @ # & # @ & & > :X-X9 @ * K }.oXoXXX].w g.P.$Xt.k #.6.,.<.7.;.b.m.m.V...l ].XX}.Q J >X-X:X-X:X7 @ & & & & - & $ ; > 7 ",
"$ & % @ & & # & # & @ & & :X-X9 @ * P XXoXoXoX].q A.P.OX@Xj E 6.7.7.<.:.2.n.V.N.V  .OX+X}.Q J -X&X-X:X-X7 @ & % & @ & @ & $ @ 2 ",
"$ 4 0 0 < & & & & - # & > &X&X8 - * P }.U.U.oX].e s.oXOX.XE c %.7.6.7.:.2.4.N.o.k d.OX+XOXZ J >X-X>X0 0 7 & & & 1 > < > > < ; 7 ",
"@ 2XgXfX7 @ & # @ # & % & @ # - & * K H.B.B.F.z.e g.I.H.5.y.u O.<.7.<.2.2.2.S.E C 5.l.XX}.Z J >X-X0 @ % & # @ 7XaXfXaXdXfXfXgXyX",
"@ &XiXdX7 @ % & - & & @ & & - $ % @ D H.B.B.B.l.r d.S.=.>.f.n T <.9.2.3.3.3.9.b O.9.d.8.H.C ^ >X:X&X@ & & & % 5XaXfXpXpXiXaXuXyX",
":X4X7XwX6 # # -X-X-X& & - & @ 1 >X-XH }.L.L.L.].y e.h.*.,.i.U Y 9.3.3.3.3.b.6.s $.<.5.&.}.v ` 9 9 4 # & & # # :X4X5XtXyXtXwXtXtX",
"aX5X&X-X, # @ pXdXgX# & & & # 0 aXaX( }.U.L.U.}.k E [.*.<.%.n Y 4.3.b.b.3.b.h.d O.-.6.=..Xy { & # & & # - & & @ @ @ 0 &X&X-X0 &X",
"fX5X-X:X2 @ @ pXiXfX# & & & # 0 aXaX` ].L.K.K.D.v V .X*.4.%.m ..4.3.b.b.3.b.h.v T ,.>.=.|.r 1X- # - & % & @ # % & # -X:X:X:X-X:X",
"4X0 > < > & @ ,X4X4X@ % & & $ < &X9 / ..v.v.v.8.Z l .X*.;.$.c +.b.n.b.b.n.n.0.C Y @.;.8.{.r <X% % & % # 7 :X:X> & @ 7 4 4 :X*X:X",
"-X4 @ % & # @ -X=X&X& & & # # & & & / | J.V.V.G.q.j |.>.+.i.u 5.n.n.N.4.n.n.0.C C f.*.S.l.q ] & & - & @ >XfXaX8 % @ & # # -X-X:X",
":X7 % & > & % &X:X-X& # & - & - @ - ` B OXI.I.XXt.j ~.h.>.i.y g.v.N.+.T 0.N.S.E v y.>.}.| D 8 & # & # @ :XpXaX7 @ & # & & >X:X-X",
":X7 % @ 7 &X0 :X-X:X@ % 1 7X7X,X& - [ z }.I.I.I.z.k t.{.-.#.y 8.N.d.v u Z S.h.w.c f.5.@Xx { 0 & & > & & 0 4X4X&X7 7 - & & 2 2 4 ",
"-X7 % # 0 :X=X:X=X:X& & - gXaX7X@ # ] z e.g.F.M.s.k P .X>.#.d h.h.v v a.u X.c.w.c i.l.|.z 9X-X# % & & @ 4 -X&X-X:X-X> # & $ # ; ",
"-X7 # & 8 =X=X-X-X-X& @ > aXyX5X@ % 2 J Z g.8.1.g.N N .Xf.O.a ~.C v $.f.w.u E r.a k. X!.D 0X=X& # - & @ 7 :X:X-X>X=X> @ & $ & ; ",
"& & & # > - & - & - # & - ,X>X-X@ & - ( m l.G.G.H.q.j _.^.$.a M c $.9.9.f.Y u n U a.#XY.^ ] < & & & & & - > - - - > - % & - & - ",
"& & & # & # & : & & - # - =X&X-X& # & 3 g t.[.J.[.~.t W.@Xa.~ U O.<.;.:.7.k.w.Y $.j.#XK ` 3 & & & > @ & & & & @ & # & # - - & & ",
"@ & & & - # # & & + 7 2 7 -X:X0 1 2 > & * I ^.[.c.'.v k xX(.i.%.-.;.2.:.,.%.%.%.f.|._.p [ & & & @ & - > & @ # & & O > % & & & ; ",
"& & # & & # & & & & pXpXyX-X&X4XpXfX:X@ , . Q e.y.y.E r _.xX5.,.-.;.-.,.,.7.@.%.z.%XI ^ 2 & # & % 8 iXpX>X% & & # & rXiXyXpXyXyX",
"@ & & # & % & & & @ pXpXiX&X&X4XpXpX:X# & * x p.a.y.y.b z xX#X$.6.%.,.,.-.>.5.d.%X_.q 0X@ & # & @ 7 gXiX,X@ # & # # tXpXpXaXpXyX",
"& 2 &X-X< % # 0 0 8 wXtX7X-X-X>X7XwX0 & # - G ! /.~.~.W.k Y.cX'.i.i.6.@.@.%.k.#XxXF ) 6X& @ & 2 < 0 pXpX-X& & & # & 7XpXiXuXyXtX",
"& -XdXfX0 @ # tXaXaX-X0 &X-X-X9 @ @ : & % & = g } `.`./.I z kXbX'.i.5.>.@.k.#XbXY.g 8X& & & > gXaXtX&X&X:X-X-X< & @ &X-X=X-X&X:X",
"o ,XpXdX8 & # tXpXpX&X:X:X-X:X0 @ # - @ & & % / g } Q.Q.~ d F zXbXvXzX#XxXvXbX).X { ] % # # > fXpXyX0 ,X:X-X,X< @ @ 0 0 -X:X-X-X",
",X>X4XwX6 & @ 4X7X4X:X-X-X-X:X9 & & 4 :X>X, & 7 ` D M ~ ~ ~ d D kXnXnXnXnXvX).X ' ;X& & 8 0 0 7XtXwX0 :X0 9 0 , & & -X-X>X0 0 0 ",
"fX7X0 :X2 @ @ -X&X&X-X0 :X>X-X0 @ @ -XgXgX8 @ & 0X9Xt y M U M i p ) kXkX).G * ' 7 & & & pXfXiX-X0 -X=X:X2 @ @ & # # 0 -X-X& @ & ",
"iX4X-X-X6 & & 0 -X-X-X-X:X0 :X&X@ % -XaXaX9 & # - 0XlX{ S t p   g .   . / [ ] > # - % & pXpXfX0 :X:X:X:X7 @ & @ & # 0 -X-X& & & ",
"4X-X< > < # & , , 2 :X-X:X:X-X&X@ & 9 5X4X=X7 7 ,X2X4X;X;X<X] T.;X;X-X<X,X:X2 & & & & & >X-X>X2 7 8 >X:X7 & & , 7 4 -X-X>X& & & ",
"-X2 @ @ & & & & @ @ :X-X-X:X-X0 # @ 4 -X-X:X-X:XyXaXdX& & & & % @ & @ 2 :X:X2 @ # & # & & # & # @ > -X:X7 @ # 9 >X-X:X-X:X& & & ",
"-X7 & & & & & & > # -X-X-X-X-X8 # # 7 -X=X:X&X-XtXaXpX- & & & & & & # 4 :X-X2 & & - & & @ # & & @ , -X:X7 @ # 7 -X:X:X-X>X& & @ ",
"-X0 0 0 , & & & @ & -X-X-X> > > & # - - & 9 -X-X,X,X,X7X7X5X@ # & & # > < > > & # & & & 4X5X4X# & - < < > # & > < , , < , & @ > ",
":X:X:X>X2 & & & & & -X-X-X@ @ & & # : & @ 8 -X-X:X-X-XaXpXiX+ & - # @ & & & & & # - & & pXpXpX# & - & # & # & & # & & & & & @ , ",
"-XT.9 -X2 & & & & & &X-X&X# % & - # > > - 9 -X-X-X=X&XpXpXyX& & : # & - # & - & @ > & & yXpXpX@ # & & # - & & & @ & & & # & @ , ",
">X9 & & & & & & # & & - & & # & # # 0 tXtX,X&X-X>X-X=X,X:X>XtXwX5X+ & & % & & & @ 5XtXtX:X>X>X# # & & & & & & & & & & & & 7X7XtX",
"-X2 @ # & & & & & & & & & & @ - @ @ :XgXaX4X&X0 -X-X&X=X0 ,XaXfXrX@ # - # & > & O wXaXpX:X&X:X# & & # & & & & & # & & & & pXpXpX"
};
