/* XPM */
static char *_ba6ffff94e74cd2922b03046a97670f[] = {
/* columns rows colors chars-per-pixel */
"64 64 200 2 ",
"   c #6E433C",
".  c #4D4E4F",
"X  c #4E4F51",
"o  c #4F5052",
"O  c #535456",
"+  c #565659",
"@  c #58575C",
"#  c #57585A",
"$  c #5A5B5D",
"%  c #734D46",
"&  c #72534E",
"*  c #7A5C57",
"=  c #5D5E61",
"-  c #605F64",
";  c #5F6062",
":  c #626365",
">  c #6A6565",
",  c #656669",
"<  c #67686A",
"1  c #6A6B6D",
"2  c #726C6C",
"3  c #6E6E71",
"4  c #706F73",
"5  c #6F7072",
"6  c #727375",
"7  c #7C7473",
"8  c #767679",
"9  c #77787A",
"0  c #7A7B7D",
"q  c #932501",
"w  c #9B2601",
"e  c #942901",
"r  c #9B2B00",
"t  c #972E0A",
"y  c #8F2D14",
"u  c #8A341B",
"i  c #933818",
"p  c #A23F16",
"a  c #893926",
"s  c #A4420F",
"d  c #B34B1E",
"f  c #BB5414",
"g  c #BD551C",
"h  c #B96B08",
"j  c #BD730E",
"k  c #BC771B",
"l  c #8E4739",
"z  c #964E36",
"x  c #9B4D3A",
"c  c #935336",
"v  c #95523A",
"b  c #9C513C",
"n  c #A44726",
"m  c #B04922",
"M  c #B75526",
"N  c #A04B3E",
"B  c #BA6030",
"V  c #C26718",
"C  c #C57D15",
"Z  c #C4771A",
"A  c #D37B1C",
"S  c #E26318",
"D  c #C95B27",
"F  c #D65E2E",
"G  c #C86625",
"H  c #DB662C",
"J  c #C27C23",
"K  c #CC7329",
"L  c #D77626",
"P  c #E66C29",
"I  c #F37A2D",
"U  c #E47032",
"Y  c #E37535",
"T  c #8C4E43",
"R  c #8F5349",
"E  c #955548",
"W  c #975D53",
"Q  c #8E6255",
"!  c #956057",
"~  c #AA6A5A",
"^  c #93766F",
"/  c #837D7A",
"(  c #A77267",
")  c #D77641",
"_  c #E87E4B",
"`  c #CF8C13",
"'  c #CE9418",
"]  c #D99B19",
"[  c #DCAE15",
"{  c #E0A41B",
"}  c #D08729",
"|  c #D59527",
" . c #DF9A23",
".. c #F1832B",
"X. c #E19529",
"o. c #E49928",
"O. c #E58732",
"+. c #F9873A",
"@. c #E39A38",
"#. c #DAA429",
"$. c #DEA634",
"%. c #E3AA23",
"&. c #ECBE24",
"*. c #E4AA36",
"=. c #EAB436",
"-. c #EEBD3B",
";. c #F5BC3D",
":. c #DEC800",
">. c #DCC31C",
",. c #E5CB05",
"<. c #E9C51B",
"1. c #E9D61B",
"2. c #F1DD1F",
"3. c #E9C426",
"4. c #F2CB2E",
"5. c #E5D424",
"6. c #F4D629",
"7. c #EBCE34",
"8. c #F6C938",
"9. c #EED232",
"0. c #F8D73A",
"q. c #F8E726",
"w. c #FFF32F",
"e. c #F8E737",
"r. c #FEED3B",
"t. c #FFF534",
"y. c #FEF13C",
"u. c #89807F",
"i. c #EA9F51",
"p. c #E8A649",
"a. c #FDA548",
"s. c #FEAA4A",
"d. c #EFB945",
"f. c #F8B74A",
"g. c #FBA259",
"h. c #FEB552",
"j. c #FEB656",
"k. c #FFB269",
"l. c #FAC544",
"z. c #FDD244",
"x. c #F4DD42",
"c. c #FDCC57",
"v. c #FDD757",
"b. c #FED65D",
"n. c #FEEC44",
"m. c #FAE649",
"M. c #FFF346",
"N. c #FFFA4B",
"B. c #FEE856",
"V. c #FEE55B",
"C. c #FEF454",
"Z. c #FFF954",
"A. c #FFF55A",
"S. c #7E7E81",
"D. c #807F84",
"F. c #7F8082",
"G. c #828385",
"H. c #8C8584",
"J. c #858689",
"K. c #88878C",
"L. c #87888A",
"P. c #8A8A8C",
"I. c #958C8B",
"U. c #9C938E",
"Y. c #8E8E91",
"T. c #968F90",
"R. c #8F9092",
"E. c #929395",
"W. c #9A9394",
"Q. c #969699",
"!. c #97989A",
"~. c #999A9C",
"^. c #BE928C",
"/. c #A69B96",
"(. c #AFA295",
"). c #9E9EA1",
"_. c #A09FA4",
"`. c #9FA0A2",
"'. c #A2A3A5",
"]. c #AAA5A7",
"[. c #A6A6A9",
"{. c #A7A8AA",
"}. c #AAABAD",
"|. c #B3A6A4",
" X c #B5ABA5",
".X c #B4ADAC",
"XX c #BBACAB",
"oX c #BEB0A5",
"OX c #BBB2AD",
"+X c #ADAEB1",
"@X c #B0AFB4",
"#X c #AFB0B2",
"$X c #B2B2B5",
"%X c #B5B6B8",
"&X c #C2A99E",
"*X c #C2AEAB",
"=X c #C2B4AD",
"-X c #C7B9B3",
";X c #D4BEBC",
":X c #D1C4C2",
/* pixels */
"O $ $ O $ O $ }.}.+XS.S.S.O $ = $ $ $ $ O $ O + S.G.G.+ + = $ $ # + $ E.%X$X6 # + $ O : G.G.G.G.G.8 + $ $ $ $ # $ , [.+X+XS.D.G.",
"$ : $ $ ; + + [.{.#X0 S.S.O $ $ + + $ $ O $ $ $ G.F.L.$ $ $ + + + + O P.+X$X1 O $ $ # $ G.G.J.G.G.6 + + $ + O $ + = [.}.}.G.J.J.",
"O 6 J.G.: $ $ ~.!.E.G.G.G.O $ $ + $ 5 F.0 : O O 9 6 0 O O : 0 6 9 0 6 Y.).).1 + $ $ $ $ J.S.G.0 8 5 + $ < 6 5 = # $ E.).E.G.G.S.",
"O E.+X%X3 # O G.0 0 G.G.G.O + ; + O P.$X%X3 + $ O O O $ + 5 %X$X+X}.#XQ.0 G.: # + = # $ G.J.9 O O $ + $ P.%X}.3 # + # O = G.G.S.",
"O P.+X#X1 O + L.G.G.G.G.S.$ $ $ O + E.+X}.1 o # $ = $ $ O 1 +X+X}.}.}.Q.F.G.: $ $ = $ = G.P.0 O $ $ O O Y.$X+X1 $ $ $ + : J.K.0 ",
"O G.E.R.: $ $ G.G.G.1 < 1 + O 6 Y.L.Y.R.!.0 6 6 $ $ $ $ # : J.S.J.E.E.P.F.J.: $ # # + $ 1 3 1 $ O 1 L.G.E.E.Q.1 $ + $ O $ 6 6 1 ",
"O 6 G.G., # # G.G.F.# O $ $ + F.$X+XQ.0 G.S.G.L.: $ + $ $ # + O , G.F.G.G.J.: $ # $ $ + $ O + $ # G.$X}.!.F.S.: + + $ $ $ $ @ $ ",
"$ 6 J.F.: O # G.G.G.$ $ $ $ + S.#X}.Q.G.G.J.J.L.= $ $ # + $ = $ 1 L.G.J.S.S., $ O $ o $ O $ $ + O G.%X$X~.G.G.: $ $ $ $ + O O = ",
"$ : : : = $ O : ; , O $ = $ + : 5 1 0 G.G.1 = < $ $ $ = $ = + $ $ < : S.J.G.< O $ Y.!.E.$ $ ; $ = < 9 6 5 < 1 = $ $ = $ , E.Y.K.",
"$ $ + + $ $ $ $ $ + # $ = O + = O O 6 J.L.; + $ # + $ $ O T.7 7 2 3 1 D.T.P.: + $ }.{.}.+ + $ $ O $ O + + + # # # $ $ + 1 @X+X_.",
"O ; $ $ : $ : O O O : $ $ $ + : $ # 6 G.J.: + $ = $ $ $ / ^.( ~ ~ ~ ~ ~ ( &XG.O $ [.+X{.+ $ + ; $ + O O + + + $ # $ $ + , +X$X!.",
"$ : # O ~.}.}.: $ $ }.{.~.# $ $ $ $ $ # = $ $ # $ + ; [.OXa i p s s s p i Q U.$ $ J.J.P.O = 1 ).~.[.).'.E.0 F.: $ $ $ # : Y.E.P.",
"$ + # O ).{.+X: + O %X[.{.X # $ O + $ $ $ + # O $ $ # $X=Xt D U P L U U d z /.O $ 0 F.S.# $ 1 $X}.}.[.$X!.0 J.: # $ $ # = G.G.G.",
"$ 1 1 1 E.+X}.$ # $ }.}.!.$ $ : = ; = + O $ = + < $ < [.-Xw F +.....I +.g z (.$ : 8 G.S.$ $ 3 #X{.#X}.}.Q.F.J.: O # $ + = G.J.J.",
"O P.#X}.R.0 J.$ $ $ S.S.J.J.G.G.G.G.3 $ $ $ O $ [.+X{.G.oXw Y g.s.s.a.g.D z XX}.{.Y.F.J.+ $ $ L.G.F.G.G.G.G.F.: O $ $ $ $ $ $ = ",
"O Y.}.{.R.0 L.$ O = L.J.G.F.J.J.G.J.6 O + $ $ O [.}.[.G.oXq _ k.h.h.j.k.B z OX}.{.J.J.G.O $ : P.J.J.G.F.G.J.J.: O ; + $ $ $ + $ ",
"8 P.'.'.Y.G.J.= $ = 8 9 0 J.F.J.G.G.5 + $ , 1 < ).}.[.J.-Xq ) i.p.p.p.g.M E ].}.{.P.0 G.O + : G.8 G.L.G.J.0 S.< # o , = $ $ $ $ ",
"+XQ.0 G.F.J.J.$ $ + O + : G.G.G.G.G.6 + + Q.$X#XL.0 G.S.-Xe K @.$.@.o.@.g x '.0 0 J.G.G.$ $ + $ + < G.0 5 O # + $ : }.+X}.$ : $ ",
"}.'.F.J.F.G.S.$ + $ O + : G.G.J.J.G.3 + o ).}.%XF.S.G.J.;Xe O.d.d.d.d.d.V N '.G.G.J.J.J.+ + $ O # 1 L.J.3 O $ O + # ).}.}.O O $ ",
"P.0 G.J.6 6 8 , $ = $ $ : 6 6 9 8 6 1 $ O R.~.~.G.G.G.G.;Xq @.c.c.c.v.v.K x /.G.J.8 8 6 $ + : $ $ < 0 S.3 $ + 3 6 8 ~.).~.6 4 8 ",
"O 6 G.J.: + O $ + $ + $ $ + + $ O + $ $ O 8 G.S.G.G.G.J.;Xr @.b.b.b.v.b.K N W.G.G.$ + + $ $ $ $ $ $ O O + $ $ Q.$X}.J.0 L.+X@X[.",
"$ 3 G.L.: # + = $ $ O # + $ + = O + = # O 8 G.G.S.S.J.P.;Xe } =.=.=.=.;.V N ].S.J.$ + # $ $ $ $ + $ $ $ $ O # Q.}.#XJ.G.G.+X+X'.",
"$ : , 1 $ + : $ $ $ $ $ : E.Y.G.# $ 9 P.Y.G.G.G.J.G.J.3 *Xy | -.-.-.8.;.V x |.J.P.: $ $ $ # $ ; # $ $ $ $ $ $ L.~.~.J.G.J.~.Q.E.",
"O $ + + $ $ $ O $ + $ + 1 %X}.!.O O P.$X$XP.G.F.J.G.J.+ /.u *.v.V.B.B.V.J x XXG.G.$ + $ # $ # $ $ = O $ $ $ + 8 G.F.G.S.L.G.G.D.",
"$ $ $ # = $ O : $ $ + O < [.}.Q.O O Y.}.{.Y.J.J.G.S.G.$ /.u *.V.B.B.C.B.J v OXJ.G.: $ + + $ + $ $ ; + $ + # $ 9 S.G.L.S.J.G.J.S.",
"$ $ # $ $ $ O !.~.~.0 0 0 6 1 3 + O , 1 6 0 G.F., : 1 # H.a $.B.m.m.m.B.k v XX, < # + + $ $ : E.Y.F.O $ 8 P.P.G.G.G.G.G.G.1 1 1 ",
"$ $ $ $ ; $ O {.}.}.F.G.S.. O $ + $ = $ O 9 G.L.= O # $ / a | 7.7.9.7.z.Z b =XO O $ $ $ $ # 1 %X$XQ.X + P.%X$XY.G.F.G.S.J.@ $ $ ",
"O : : : : = : '.}.{.J.G.G.$ $ = + $ = # O 0 J.L.$ $ = $ : a #.x.x.x.0.x.k v XX$ $ $ + O O O 1 +X}.~.O $ L.#X}.R.G.G.P.J.G.@ $ + ",
"O G.{.[.}.}.`.L.G.L.0 G.J.0 S.J.G.F.3 # # $ $ : $ = O {.).R *.A.Z.Z.Z.A.} v OXS.0 : $ : [.[.!.L.P.0 + # ; 1 < 9 J.G.: $ : = = = ",
"O L.+X{.'.[.+XL.F.J.0 G.G.S.G.J.F.G.6 # $ O O + $ $ $ +X+XR $.C.Z.N.N.A.J v OXG.G.= O # }.}.}.S.F.0 O O $ $ + 6 G.G.: $ + $ = = ",
"$ 0 {.'.'.}.{.S.S.G.0 F.G.J.G.P.S.S.5 + = ; : O : : 1 }.{.! #.m.e.e.e.m.k b .XG.J.: $ : }.+X'.F.G.9 $ $ : + $ 8 P.J.= + = + + O ",
"$ $ O # # O + $ + O $ $ : J.G.8 O + = + $ O O $ [.}.+XF.F.T ' 9.5.5.5.0.k b .XG.J.= + O $ O : L.G.J.G.J.6 O $ $ $ $ = $ @ - : 6 ",
"@ $ # O $ $ + $ + $ O $ $ J.G.9 O + = + @ = + # '.#X+XG.L.R #.m.n.y.r.m.k x XXG.G.: $ $ + $ $ J.S.G.J.G.6 O $ # $ O $ O $ @ O 1 ",
"@ 3 0 0 , $ $ $ $ = + $ : S.S.8 = = : = = = + + ~.'.'.J.L.T *.Z.N.N.N.Z.J x XXF.S.: + $ $ $ ; P.G.L.0 0 6 $ $ $ < : , : : , - 6 ",
"O Y.%X$X6 O $ + O + $ # $ O + = $ $ = @ + @ = o S.S.G.G.P.T #.n.r.r.y.M.Z x |.O + $ $ + $ + $ P.G.0 O # $ + O !.+X$X+X#X$X@X%X[.",
"O S.{.#X6 O # $ = $ $ O $ $ = @ # O @ # O O @ + J.P.G.P.L.T ] 6.5.2.1.9.j x *X$ + $ O + $ $ $ L.J.S.O $ $ $ # !.+X$X}.}.{.+X{.[.",
"J.E.~.).5 + + G.G.G.$ $ = $ O < K.G.G.S.G., = $ 3 6 5 G.F.T ] 6.1.1.1.6.j x XX+ O 6 9 9 O $ $ 6 9 3 + $ $ + + J.E.Q.'.[.'.).'.'.",
"+XQ.S.G.< + O }.#X%X+ $ $ $ + 0 +X+X$X+X%X8 O $ $ + # J.G.l %.r.t.w.w.n.C x XX# # '.$X+X$ $ + $ + $ $ + = $ $ O O O 0 S.S.G.0 S.",
"$XQ.G.J.1 O O }.{.$X+ $ $ $ + 0 +X+X}.[.$X< @ @ $ + $ J.G.l %.y.t.w.t.M.` x |.+ O '.}.$X# O = = + = $ # $ O + # $ + G.J.J.J.G.J.",
"E.0 : , : $ O P.E.E.O # $ $ @ , S.9 K.Q.Q.Y.Y.R.= $ + 5 < l { e.q.q.q.e.C x =XL.J.Q.E.E.$ $ $ # # $ # + 6 J.J.: $ O 6 3 3 J.D.J.",
"G.3 O # $ + O G.F.S.$ $ $ + + $ $ O 3 J.S.).}.%X: $ O $ > a ` <.,.,.:.<.h b :X$X$XJ.S.G.# + $ $ $ = $ O L.$X+X8 # + $ + O G.G.J.",
"J.6 # $ : $ # S.J.G.$ + $ = $ = O @ 3 F.0 ).#X+X, + = # 7 a ] 6.6.q.6.0.j c -X[.}.J.J.G.= + = $ + $ + O J.}.+X6 O $ + $ $ K.J.G.",
"J.6 # O 6 S.0 J.G.J.O # < ~.~.P.$ $ , , , S.Y.P.~.~.!.$ 7 u %.n.y.y.y.n.C c OXE.E.G.G.F.9 9 6 $ $ : $ $ 0 E.E.S.6 6 = $ $ 1 1 3 ",
"G.6 # + 0 J.F.J.F.J.$ $ = %X+X~.O + : @ O 6 J.S.{.}.$X$ 7 i %.n.r.y.r.n.` c |.G.S.J.G.G.G.J.G.+ # $ $ O 3 G.S.G.J.G.: + $ @ + - ",
"G.6 + $ 8 F.F.G.G.G.$ O : +X[.Q.O # $ $ + 8 G.G.'.+X}.$ / u ` 3.>.>.>.3.h c  XG.G.J.G.J.S.G.F.$ + = $ O 6 J.J.G.L.F.: O $ @ $ - ",
"$ $ $ + : = $ = $ = + $ = P.L.G.O $ = $ + 9 G.F.J.G.P.'..Xi ` &.<.<.[ &.h c  XG.G.G.G.G., ; , # $ $ $ $ = : = = = : = # $ = $ = ",
"$ $ $ + $ + $ ; $ $ = + = F.S.G.$ + $ # O 9 G.J.J.G.G.$X.Xe  .8.8.4.4.8.V v .XG.G.G.F.G.$ O $ $ $ : O $ $ $ $ O $ + $ + = = $ $ ",
"O $ $ $ = + + $ $ o 6 1 6 G.J.0 < 1 : $ O 8 0 0 G.F.F.[..Xq X.z.z.0.0.z.Z v  XG.S.L.G.G.$ $ $ # O $ = : $ O + $ $ X : # $ $ $ - ",
"$ $ + $ $ + $ $ $ $ }.}.[.G.S.E.}.$XJ.O # $ + + G.G.G.G.T.r X.l.l.l.8.l.V v U.+ + 0 G.J.+ $ + $ # 8 {.}.L.# $ $ + $ `.{.[.}.[.[.",
"O $ $ + $ # $ $ $ O }.}.{.S.S.E.}.}.J.+ $ + $ + J.F.G.J.T.r A o. . .] o.f v U.# O G.G.J.O $ + $ O 6 %X{.P.O + $ + + '.}.}.+X}.[.",
"$ 1 S.G., # + 0 0 8 ).'.~.G.G.L.~.).0 $ + = + $ 8 S.S.0 W.w L o.X.o.o.o.f E H.$ $ 8 F.F.$ O $ 1 , 0 }.}.G.$ $ $ + $ !.}.{.{.[.'.",
"$ G.#X$X0 O + '.+X+XG.0 S.G.G.9 O O ; $ # $ + $ $ O + O 7 w O.f.h.h.h.h.G W H.$ O $ + + $ $ : %X+X'.S.S.J.G.G., $ O S.G.F.G.S.J.",
". P.}.#X8 $ + '.}.}.S.J.J.G.J.0 O + = O $ $ # + $ + = $ u.w Y s.s.s.s.s.G W 8 + $ = $ # + + : $X}.[.0 P.J.G.P., O O 0 0 G.J.G.G.",
"P.L.E.).5 $ O E.!.E.J.G.G.G.J.9 $ $ 3 J.L.< $ $ = $ $ $ 7 t D +.+.+...+.M W 1 $ $ $ $ $ 8 0 0 ~.'.).0 J.0 9 0 < $ $ G.G.L.0 0 0 ",
"$X~.0 J.1 O O G.S.S.G.0 J.L.G.0 O O G.%X%X8 + $ ; # $ $ 7 i F P P S I H m W < $ + $ $ $ }.$X{.G.0 G.F.J.1 O O $ + + 0 G.J.$ O $ ",
"{.E.G.G.5 $ $ 0 G.G.G.G.J.0 J.S.O # G.+X+X9 $ + $ + $ $ / u n d g f g M n Q 1 + + = # $ }.}.$X0 J.J.J.J.6 O $ O $ + 0 G.G.$ $ $ ",
"E.G.< : , + $ < < 1 J.G.J.J.G.S.O $ 9 Q.E.F.6 6 P.Y.E.$ / ^   % % * & * * I.1 $ $ $ $ $ L.G.L.1 6 8 L.J.6 $ $ < 6 3 G.G.L.$ $ $ ",
"G.1 O O $ $ $ $ O O J.G.G.J.G.0 + O 3 G.G.J.G.J.[.+X#X$ $ 6 1 # O $ O 5 P.P.1 O + $ + $ $ + $ + O : G.J.6 O + 9 L.G.J.G.J.$ $ # ",
"G.6 $ $ $ $ $ $ : + G.G.G.G.G.8 + + 6 G.F.J.S.G.'.+X}.= $ $ $ $ $ $ + 3 J.G.1 $ $ = $ $ O + $ $ O < G.J.6 O + 6 G.J.J.G.L.$ $ O ",
"G.0 0 0 < $ $ $ O $ G.G.G.: : : $ + = = $ 9 G.G.P.P.P.!.~.!.O + $ $ # : , : : $ + $ $ $ E.Q.E.+ $ = , , : + $ : , < < , < $ O : ",
"J.J.J.L.1 $ $ $ $ $ G.G.G.O O $ $ + ; $ O 8 G.G.J.G.G.+X}.{.o $ = + O $ $ $ $ $ @ = $ $ }.}.}.+ $ = $ + $ + $ $ + $ $ $ $ $ O < ",
"G./ 9 G.< $ $ $ $ $ S.G.S.+ # $ = + : : = 9 G.G.G.F.S.}.}.[.$ $ ; + $ = + $ = $ O : $ $ [.}.}.O + $ $ + = $ $ $ O $ $ $ + $ O < ",
"L.9 $ $ $ $ $ $ O $ $ = $ $ + $ + + 0 '.'.P.S.G.L.G.F.P.J.L.'.).Q.o $ $ # $ $ $ O Q.'.'.J.L.L.+ + $ $ $ $ $ $ $ $ $ $ $ $ ~.!.'.",
"G.3 O @ $ $ $ $ $ $ $ $ $ $ O = O O J.%X+XE.S.0 G.G.S.F.0 P.+X$X`.O + = + $ : $ X ).+X}.J.S.J.+ $ $ + $ $ $ $ $ + $ $ $ $ }.}.}."
};
