/* XPM */
static char *_853f57e08034ca4b81609f0b5e5e988[] = {
/* columns rows colors chars-per-pixel */
"64 64 237 2 ",
"   c #173E59",
".  c #253D5A",
"X  c #183969",
"o  c #093270",
"O  c #16405C",
"+  c #2C455A",
"@  c #185176",
"#  c #264768",
"$  c #214677",
"%  c #25587A",
"&  c #355571",
"*  c #29617E",
"=  c #434447",
"-  c #4A4B4D",
";  c #464B56",
":  c #4C4E51",
">  c #4E5153",
",  c #525355",
"<  c #555659",
"1  c #56595B",
"2  c #5A5B5D",
"3  c #5D5E61",
"4  c #575C69",
"5  c #4C5971",
"6  c #5E6062",
"7  c #5F646F",
"8  c #456477",
"9  c #586A77",
"0  c #626365",
"q  c #646669",
"w  c #66696B",
"e  c #6A6C6E",
"r  c #646A76",
"t  c #6C6E71",
"y  c #6E7173",
"u  c #6D737B",
"i  c #727375",
"p  c #767877",
"a  c #757679",
"s  c #77797B",
"d  c #7A7B7E",
"f  c #1C3B82",
"g  c #185D83",
"h  c #26488C",
"j  c #255D86",
"k  c #264A95",
"l  c #225298",
"z  c #1A648B",
"x  c #2C698F",
"c  c #276894",
"v  c #377797",
"b  c #2B4EAD",
"n  c #3977AA",
"m  c #396BB2",
"M  c #516E94",
"N  c #69758D",
"B  c #747B84",
"V  c #7D7E81",
"C  c #476AAA",
"Z  c #4774BB",
"A  c #5572B2",
"S  c #687AA1",
"D  c #3D7ED4",
"F  c #486CC5",
"G  c #457AD6",
"H  c #497EDD",
"J  c #517BD1",
"K  c #4C7BE3",
"L  c #4E7BE9",
"P  c #5779EB",
"I  c #547AEC",
"U  c #5A76F5",
"Y  c #5779F1",
"T  c #7E8183",
"R  c #7B858E",
"E  c #64879E",
"W  c #778998",
"Q  c #5C89A5",
"!  c #5891B2",
"~  c #6787A7",
"^  c #728CA8",
"/  c #7993A6",
"(  c #6999B4",
")  c #7C9DB4",
"_  c #3987CA",
"`  c #3C98CD",
"'  c #3D88D4",
"]  c #3A90D0",
"[  c #498ACC",
"{  c #489AC9",
"}  c #5294C2",
"|  c #448AD5",
" . c #4887D9",
".. c #5388D9",
"X. c #4994DA",
"o. c #4C9ADC",
"O. c #5798D9",
"+. c #4EA4CA",
"@. c #4AA8DB",
"#. c #56A6D8",
"$. c #5BB5D8",
"%. c #69AECC",
"&. c #67B2CD",
"*. c #69B7D6",
"=. c #4680E0",
"-. c #4C84E3",
";. c #4D8DE3",
":. c #5582E7",
">. c #4D94E3",
",. c #5697E7",
"<. c #629EEC",
"1. c #54AFE4",
"2. c #5AACE6",
"3. c #59A7E8",
"4. c #48BDEA",
"5. c #58B8E8",
"6. c #5CBCEC",
"7. c #46BEF6",
"8. c #4BBEF6",
"9. c #56BDF3",
"0. c #61ABED",
"q. c #64B8EA",
"w. c #64ABF0",
"e. c #63BCF2",
"r. c #65B9F5",
"t. c #3FC2F5",
"y. c #7EC8DE",
"u. c #7FD3DF",
"i. c #47C3E6",
"p. c #45C2EB",
"a. c #4BC3EC",
"s. c #4DCAEC",
"d. c #55C7EC",
"f. c #5AC3ED",
"g. c #54D2EF",
"h. c #44C3F3",
"j. c #4AC3F4",
"k. c #4DCBF3",
"l. c #46C2FA",
"z. c #4AC2F9",
"x. c #52C6F2",
"c. c #5CC4F2",
"v. c #53CCF2",
"b. c #5ACDF3",
"n. c #55D4F3",
"m. c #5BD3F4",
"M. c #5DD3FA",
"N. c #5AD8F9",
"B. c #63C3EE",
"V. c #6BCCEF",
"C. c #7DCFE4",
"Z. c #6AD9EC",
"A. c #7BD5E4",
"S. c #76D5E8",
"D. c #73DDEC",
"F. c #65C3F3",
"G. c #67C8F7",
"H. c #75CBF9",
"J. c #63D3F6",
"K. c #6AD4F2",
"L. c #64DCF4",
"P. c #62D5F9",
"I. c #6ED4FB",
"U. c #64DCFA",
"Y. c #6CDCFC",
"T. c #72D4F5",
"R. c #74DAF3",
"E. c #73D5FC",
"W. c #73DCFD",
"Q. c #7AD8F8",
"!. c #7BDCFD",
"~. c #7FE2ED",
"^. c #63E3FC",
"/. c #6BE6F9",
"(. c #6CE4FC",
"). c #75E3F7",
"_. c #73E2FE",
"`. c #7CE3FD",
"'. c #828385",
"]. c #848689",
"[. c #86898B",
"{. c #898A8D",
"}. c #878C92",
"|. c #8C8E91",
" X c #8E9093",
".X c #84959F",
"XX c #8D949B",
"oX c #929396",
"OX c #949699",
"+X c #96999B",
"@X c #9A9B9D",
"#X c #8798A6",
"$X c #949CA4",
"%X c #9C9EA1",
"&X c #9FA1A3",
"*X c #99A4AB",
"=X c #96A6B9",
"-X c #A2A3A5",
";X c #A1A2A6",
":X c #A5A6A9",
">X c #A5A6AA",
",X c #A6A9AC",
"<X c #AAABAD",
"1X c #A9AAAE",
"2X c #A2AEB4",
"3X c #ADAEB1",
"4X c #AEB1B4",
"5X c #A9B2BC",
"6X c #B2B2B5",
"7X c #B5B6B9",
"8X c #B6BABD",
"9X c #96B3CD",
"0X c #A7B8C6",
"qX c #A4B5CD",
"wX c #84D1DC",
"eX c #B2C6D3",
"rX c #86D8EA",
"tX c #97DCE4",
"yX c #85DCFA",
"uX c #83DBFE",
"iX c #AED1E4",
"pX c #88E0E7",
"aX c #96E2ED",
"sX c #87E3F7",
"dX c #9AE9F3",
"fX c #ABE5F0",
"gX c #A9ECF5",
"hX c #A9F3F8",
"jX c #B5F6FA",
"kX c #BAF8FA",
"lX c #C4CED2",
"zX c #C8DEE1",
"xX c #C4F8FA",
"cX c #CCFEFE",
"vX c #D5FDFC",
"bX c #DAFCFD",
"nX c #E0F9FF",
/* pixels */
"d V d d a T s s d s s s d s d p d V a > : , - : i d V ;X>X;X;X,X Xi V < - , , = q T i s V V i '.s '.V 2 : : d d i T a d d s , = ",
"V '.'.].'.].'.'.[.[.'.d '.T '.[.'.T '.3 2 < < , i T {.,X3X3X,X1X+X{.{.0 < 2 < , y ].'.].'.].V V ].'.].6 > < V [.{.'.[.].].'.0 < ",
"'.T ].'.].'.'.].y q a '.{.].'.[.i e t < 2 0 d t oX%X+XoX XOXoX%Xa e t 2 < 0 i i V '.'.'.d {.%X%X XV |.d i a T '.V 0 e w e e i i ",
"'.T ].V [.'.].[.3 = 6 V '.].'.].1 < 3 < 2 t |.V ;X4X1X].d '.V ].w , , 2 < 0 ].'.'.V ].].V {.>X6X%XV [.'.'.{.].'.d < , < , , V '.",
"'.].{.d ].'.'.'.e < t '.'.].'.].0 < < 2 , 0 ].'.&X4X3X].V [.'.].w 2 < 6 1 3 ].V '.V V V T |.&X6X+X'.'.].V V '.].V < > 0 1 2 d d ",
"T '.d 2 0 3 3 3 s V '.'.'.].V [.0 < 3 '.'.V ].T V ].].3 2 0 3 2 i ].V V V ].,X>X>X1X1X>X>X;X{.].|.'.'.{.'.V ].].V < 1 a s '.].'.",
"{.[.s < < 1 1 1 V |.'.d V ].V {.3 : 1 T {.].].'.V '.V 2 < < < : e {.'.T '.|.3X3X3X6X1X1X3X>X'.d [.].V ].'.].].].i < < i '.].'.'.",
"V V i 1 3 3 3 3 V ].V {.|.].d d e 0 e d '.d T ].].].'.3 < 1 q 6 a [.'.'.V {.1X;X>X>X;X3X1X;X].].'.'.T ].'.[.d V i q 1 s {.'.].'.",
"1 , 3 3 1 a |.].'.V |.1X7X'., , V ].'.].[.V '.].V ].].0 : t {.].V T ].V '.T T a OX4X1X,X,X;X].'.].'.].].].V 1 > 6 [.{.].'.V ].V ",
"1 , 3 < , t ].V '.d {.3X7X'., , s '.'.'.'.T '.].[.].'.0 : T qXo o M =X{.'.'.'.V OX6X>X3X6X3XV V '.'.V d ].T < , q '.].'.'.'.[.{.",
"t t i i t V [.[.oXOXOXOX+X].q 0 '.].[.].'.'.'.].s e i y R N C J J Z 5 0XV ].oXoX+X%XoXOX+X+XT ].].{.].T ].].t y i '.'.].].'.i t ",
"|.].|.|.[.'.V '.3X7X;XV a ].].{.].d '.'.'.'.d '.0 - 3 }.iXA m <.o.o.c 9X*XoX6X8XoXV V d d V ].'.].].].].V ].].].[.].V '.'.'.6 , ",
"V V V '.'.'.'.].%X1X%X].V '.V '.'.d ].].T ].'.'.e , >X=Xo Z O.uX!.I.q.c M eX>X3X+XV ].'.T '.[.'.T '.T T V ].[.T T T [.[.].'.0 , ",
"[.{.{.V '.OX%X%X3X3X%X'.].'.'.{.'.'.{.'.d  X;X&X[.}.N C Z G #.W.(.U.a.@.+.8 *X|.|.T T '.'.'.q 0 t [.T '.].].T R '.T [.i 6 w a d ",
"s V '.d V %X6X6X3X3X&Xd '.'.'.'.V d '.T d OX7X7XXXeXM Z ..o.1.Y.^.N.v.d.$.v ) 2XV V '.].].T , : 6 ].T '.].T T ].].V [.t > , d [.",
"].].|.[.'.OX;X>X;X;X&XT [.V '.'.|.'.'.{.]. X>X8X.X& y.q._ T.P.a.p.s.(.s.d.yX! 8 lXV ].V V d q 3 y [.T ].T R [.].{.d [.y 1 < T [.",
"1X1X>X1X3XOXV ].V [.].d ].'.'.V &X>X3X>X1XOX,X^ ! { 6.F.B.W.U.p.p.s.^.^.b.2.[ C ~ #XoXq , 3 T T {.].T T T ].,X>X&XT ].i < 1 '.[.",
">X3X1X1X1X+XV '.'.].T '.d '.].V >X>X4X1X6X*XeX% { c.d.G.H.W.U.p.p.s.^.^.J.o...J h ^ 0Xw > 3 T ].[.T T T T V >X7X,X'.].t , < s d ",
">X1X1X>X1XOXV '.'.'.T ].V ].].V >X>X1XOX;XB & *.6.4._.r._ T.Y.p.p.s.^.n.a.!.0.G ..C & t q y T V R T T |.OX XoX%X|.e i i q e {.oX",
">X>X1X1X3XOXV ].].[.].'.{.T T V &X>X>Xd {.W @ $.f.J.9.,. .3.6.J.m.n.n.k.j.J.F.0. .m X XX].].].'.].R V &X4X4X].].s > , i '.].>X6X",
",X1X1X>X3XOXT ].'.T '.'.].V '.V ,X6X6X{.eX) z 5.J.E.;.L -.| @.Y.(.^.a.p.h.4.M.I.{ n @ eX*XT V T ].'.s %X,X,Xs ].d 1 - y V V ;X1X",
"1X3X>X|.oX{.'.'.t 0 t ].V |.;X+X|.{.{.0X+ %.yX!.q.' I Y H H.E.Y.L.L.(.k.h.l.j.x.I.!.rX& r '.].]. X&X%X&X3X,X].[.].d i ].'.V >X1X",
"1X3X%Xd T '.'.'.3 : 6 ].V +X7X3X[.V d 0XO &.!.q.,.I U Y  .H.W.K.Z.L.(.v.p.h.l.j.b.P.Q.j N [.].s  X4X4X&X4X,X[.s d '.].{.d T &X3X",
",X3X;XV ].].'.'.q , q V ].oX3X,X{.].8XiX@ $.!.| I U U I | T.Q.S.A.D./.g.p.l.l.h.h.m.W.j ) 0X[.s OX,X>X,X6X>X].T {.'.].].'.{.@X1X",
"'.'.{.V ].y , 2 T [.V '.'.'.].'.[.[.#X* *.K.E.-.I U Y <.Q.T.sXkXkXhXD.^.N.h.j.7.h.M.W.[ C # ,X,X3X,X,X&X,X,XT ].].'.d +X4X>X1X1X",
"'.d '.T ].w - 3 d [.'.'.V V ].[.'.|./ g 6.P.E.=.P U L 0.!.R.tXcXcXjXA._.U.a.j.l.l.M.W.| F X 5X1X,X4X3X4X,X4X].T ].].'.+X1X>X3X6X",
"'.'.[.'.[.y , 0 V [.'.'.'.'.].'.'.zX( z 9.P.W.=.P P =.2.`.A.tXvXvXxXwXQ.U.a.j.l.l.M.W.;.F f qX1X>X&X%X>X+X&X].T '.a s OX3X,X>X&X",
"V '.[.'.'.t , 2 V ].V '.'.'.'.T $X8 ! @.z.P.W.-.Y :.r.I.R.hXxXvXvXvXjXsXL.^.k.h.l.b.E.;.K J M $X+XT V T V V T T V : - ].7X>X].a ",
"].'.[.{.'.e < 2 s '.V '.T '.'.'.#X# } 9.8.P.E.-.I -.E._.A.kXvXbXvXvXcXaXZ./.n.p.l.m.W.;.I :.h }.%XT T T ].T [.].T , - {.7X,X].d ",
"e w e e w e e y '.'.V '.'.].'.]./ # { 9.8.P.E. .-.| T.R.rXkXvXbXbXvXvXtXA.).g.p.h.N._.;.I P k B  XT [.].].T u q t ].].{.{.oX{.'.",
"> , , , , a {.].[.].T '.'.[.'.'./ # { 8.j.M.W.| 0.T.T.sXjXcXbXbXbXbXbXxXdXD.L.N.h.n.(.;.I Y k r R T [.].V T 2 : y 8X7X+Xi '.'.d ",
"3 1 2 2 < i '.d '.'.'.'.'.'.T {.~ c @.z.7.P.W.' q.`.D.dXcXvXvXbXbXbXbXvXkXA.).^.p.n._.;.I Y b N ].T ].T T T 2 , e 3X;X@XT ].T V ",
"2 < q T s '.'.'.'.].[.V ].+X%XoXx F.8.l.4.P.E._ 6.`.S.fXcXvXvXbXbXbXbXvXkXwXD./.i.n.Y.X.K Y Y A 4 3 3 0 0 3 s s '.[.'.{.'.V 0 6 ",
", , q ].].].'.'.'.V '.V a oX6X%Xc c.4.k.I.5.@.G.T.S.hXxXvXbXbXbXbXbXbXvXvXkXaXZ.^.N.x.G.w.K P F 4 , , < , , {.[.].V ].[.[.[.2 > ",
"0 0 i '.].'.V '.].T ].oX].oX1X[.c c.x.f.H.3.' !.R.A.kXvXbXbXbXbXnXbXbXbXvXcXdXZ.(.N.a.Y.B.o.-.F 4 2 1 0 q 2 ].d [.d ].d i a w q ",
"'.'.].'.'.].'.].T V [.>X1XoX].u z f.I.H.' ' ] I.(.S.jXvXbXbXbXbXbXbXbXbXvXcXdXK._.P.4.i.b.!.>.m 4 6 2 i {.V ].d ].'.'.t < 2 d '.",
"'.].].V V '.d d '.V {.>X7XOXa a c !.1.,.H 0.G.d.L.).rXfXvXvXbXbXbXbXbXvXxXtXsXW.@.6.Y.i.x.c.G.#.4 < : e ].].d '.'.'.'.y < < V ].",
"'.'.].].].].V '.+XoX@X,X1XOXV s v sX1.=.H r.W.a.n.(.S.dXcXbXvXbXbXbXbXvXkXu.R.T.] 1.(.a.p.4.W.*.r y y '.T ].V [.].d [.t < 6 d ].",
"'.'.T ].V '.d '.1X,X1X3X,XOX'.a v sX@.' D e.(.p.N.(.Z.dXcXvXbXbXbXbXbXcXkXA.`.Q.| 2._.a.p.4.!.*.r ].].{.'.].T ].].T [.t , 3 d [.",
"'.'.'.'.d ].V V >X1X;X1X3XOX].i x V.f.e.e.f.n.p.k.n./.~.tXxXbXbXbXbXvXfXaX`.F.3. .>.1.J.m.K.q.} 7  XT d '.'.T ].T ].].a , < d T ",
"'.T [.1X@X;X%X%X1X1X;X{.|.{.'.B M $.V.Y._.m.i.h.h.p.^.).wXxXvXvXvXvXcXtXS.`.2.G K  .` W._.Q.[ M a '.'.'.T ].'.'.d 0 2 y s d '.'.",
"'.'.|.6X1X3X1X3X1X3X;XT V ].'.+X9Xj +.d.(.(.Y.p.h.p.^.(.S.jXcXvXvXbXcXrXT.`.w.K G 2.W.W.B.| l N T '.].'.V V V T d : : a [.].'.].",
"'.'.|.>X1X>X;X>X;X>X%X'.'.[.].|.=X$ { v.(.J.5.M.v.p.b.L.D.dXgXcXvXcXgXyXT.e.,.=.0.f.m._.F...k r |.'.].'.].V {.[.V < 2 a T ].].].",
"1X>X1X3X1XoXT '.'.'.'.d '.'.T ].#X# { f._.1.| E.J.a.4.b.(.Z.pXkXxXhXC.Q.V.` ] o.!.M.i.Y.e. .h r ].d V '.].'.1X1X;X'.'.].d ].[.'.",
">X>X3X,X3XoXV '.'.T '.'.'.'.'.[.#X# } B.`.2.K  .e.W._.J.i.Y.).A.rXS.yX#.` T.W.E.x.p.i.(.B...$ q '.'.'.T V d 1X3X;XT T [.'.'.].'.",
"1X1X1X+X%X|.'.'.].'.'.'.T ].T '.XX#X! +.!.0.L L 3.r.e.c.c.B.B.!.R.Q.q.2.5.m.P.M.h.h.p.(.q.C N ].{.oX|.oXOXoX@X+X+X'.T {.'.'.{.oX",
"1X>X%XV '.'.d T T '.'.'.'.{.].'.>XlX/ g sXw.L Y I -.D 1.uXX.o.uX!.H._ G.Y.i.h.7.l.t.h._.$.X 5X1X7X6X1X3X3X1X'.d d d d '.d ].,X6X",
"3X1X;XT '.[.'.].[.].T T s '.d d ;X1XW * yXw.Y U I P H 2.uXo.| >.X.X.' G.(.p.h.l.l.l.p._.*.  3X>X1X>X>X1X1X7XV {.'.[.'.[.d d ;X1X",
"{.oXoX'.[.a 3 e V ].].@X;X+X;X@XOX{.[.W %.O.I Y I :.,.6.T.6.,.K L -.3.c.L.n.k.8.7.7.9.$.( r >X3X;X{.OX X{.{.[.].].].V oX;X%XoX[.",
"'.V ].].].q - 1 d '.|.1X6X1X6X6X].d d }.. C P P :.| E.P.a.W.H.H L ,.!.b.s.(.m.4.9.e.q.% 4 '.6X3X+Xs s s V '.s d ].'.d @X6X,X{.a ",
"].V '.'.d e < 3 V d [.,X1X>X;X>X].'.[.].XXS h h O.H.F.x.a.(.G.G H o.W.v.p.v.J.V.c c j #X[.{.>X>XOX].{.[.'.].d {.T '.'.+X,X>X|.T ",
"1 3 3 2 1 a d T {.'.{.1X1X@X].{.'.V [.V '.t ; 4 ( &.{ @.a.J.G.#.3.1.P.d.4.{ +.%.E N u +X3X;X'.].V '.].'.d ].'.'.{.>X;XOX'.].V d ",
"< 2 1 < - a ].].'.s {.>X1XOXs V {.'.[.'.{.a 1 , 9 + # n B.6.V.sXsXQ.f.6.$.% # 8 XXT T %X8X3XT ].'.{.T '.'.].[.'.{.4X6X+Xd ].].{.",
"2 < 3 i q a '.'.|.{.+X1X3XOXd [.s e a i a t q 0 R R W ~ Q Q ~ ( Q Q Q ~ ~ W W R [.T '.OX&X+X].V '.d y '.'.d '.'.{.%X@XoX'.[.s a ",
"6 1 w {.'.T '.'.>X,X1X,X4X|.s '.6 , 1 1 , 0 T [.].T T '.'.T V [.w , 1 V ].].'.'.[.T T T V T ].].a , > y [.'.T T V T s T d T 3 1 ",
", > 0 ].].].].T ;X,X1X>X8X+X'.{.6 1 1 1 > 0 ].T T T {.'.].'.[.[.w , - '.V ].d T '.s |.'.[.|.T [.a - 1 i [.'.T [.'.].T {.].'.2 > ",
"y y s '.[.[.V '.;X4X&X XoXd w e 2 2 6 s y d '.'.].T '.w w e e 0 t s i V '.[.@X+XoXT '.y q 0 y w w d e d [.T s [.'.'.s T 0 e y i ",
"[.[.].T d [.'.T >X1X%XT '.w 1 1 2 , 2 [.[.'.T ].'.T V 1 , , 1 > y ]. XT T [.4X7X@Xd T 6 , 1 , , w {.[.].'.T d '.'.'.T y > 6 d [.",
"T T V [.T ].].'.;X>X;XV '.y 2 < 1 1 3 V '.'.'.'.].[.'.0 < 1 2 : i '.[.d d oX1X6X+XV [.w 1 2 , > q '.].V V ].].'.[.V [.y , 1 d T ",
"[.].V {.'.OX,X,X XT '.'.[.e , 6 d [.'.'.V ].].'.d '.T 2 , e '.'.V T d ;X,X+X0 3 6 6 3 < , 2 '.].'.].].T '.].'.'.s , 0 2 < 2 '.].",
"T ].'.[.V @X6X>X'.'.[.].].a , - d '.].'.T '.'.].d ].'.0 : 0 '.'.'.].'.1X6X&X, < , 2 , 1 < 1 '.'.].T '.T '.'.V ].V : , < 1 < d T ",
"T V d [.V +X>X>X{.'.d d a t 2 6 T '.].'.'.'.d d [.d s e 1 e {.].].T ].oX1XoX, 1 3 2 , 2 6 q V '.'.T ].'.'.[.d d s q 3 2 2 0 '.[.",
"< , 3 '.d '.d '.].[.i < < i ].[.'.V '.V '.].'.].q : 3 d V oX6X>X>X7X7X< - 1 1 2 2 < 3 s ].].].].].].].V d '.2 , 0 '.].|.].'.'.V ",
"< , 0 ].'.].s '.'.'.i < , q '.'.].d V V d d d ].e - 2 '.d ].>X>X1X;X6X0 , < < , < , < a ].V V d d d '.'.V ].1 , 2 {.d '.d '.d d "
};
