/* XPM */
static char * collect7_xpm[] = {
"64 64 681 2",
"  	c #764923",
". 	c #7C4620",
"+ 	c #7B4720",
"@ 	c #794820",
"# 	c #7C4720",
"$ 	c #7B4820",
"% 	c #7B4620",
"& 	c #764922",
"* 	c #7B471F",
"= 	c #73421E",
"- 	c #6B3B1C",
"; 	c #79461F",
"> 	c #76441E",
", 	c #73421D",
"' 	c #71411D",
") 	c #7A4620",
"! 	c #6F3F1B",
"~ 	c #623618",
"{ 	c #78451F",
"] 	c #74431E",
"^ 	c #6E401C",
"/ 	c #6F431C",
"( 	c #7A4C20",
"_ 	c #845424",
": 	c #8A5926",
"< 	c #8D5A26",
"[ 	c #8D5B26",
"} 	c #8A5825",
"| 	c #835324",
"1 	c #794C20",
"2 	c #6D401C",
"3 	c #764520",
"4 	c #6F401D",
"5 	c #7B4821",
"6 	c #7C4821",
"7 	c #72451D",
"8 	c #7F5022",
"9 	c #8C5B27",
"0 	c #97632A",
"a 	c #9E682D",
"b 	c #A16B2E",
"c 	c #A26C2F",
"d 	c #A46C2F",
"e 	c #A46D2F",
"f 	c #A26B2F",
"g 	c #96632A",
"h 	c #8B5B27",
"i 	c #7D4720",
"j 	c #7C471F",
"k 	c #7A4720",
"l 	c #75451E",
"m 	c #71461E",
"n 	c #8B5B26",
"o 	c #A36C2F",
"p 	c #A56D30",
"q 	c #A66E30",
"r 	c #A56E30",
"s 	c #A36B2F",
"t 	c #9F692D",
"u 	c #8B5A26",
"v 	c #70451D",
"w 	c #74441E",
"x 	c #7A4B20",
"y 	c #8D5C27",
"z 	c #A06A2E",
"A 	c #75441E",
"B 	c #7A4820",
"C 	c #74441F",
"D 	c #6D401F",
"E 	c #75431E",
"F 	c #77481F",
"G 	c #875824",
"H 	c #A0692D",
"I 	c #A66D30",
"J 	c #A76E30",
"K 	c #9C682D",
"L 	c #99652B",
"M 	c #95622A",
"N 	c #936129",
"O 	c #936128",
"P 	c #936029",
"Q 	c #99652C",
"R 	c #865724",
"S 	c #7B481F",
"T 	c #7A4721",
"U 	c #6F411E",
"V 	c #633B1B",
"W 	c #61381A",
"X 	c #623819",
"Y 	c #643919",
"Z 	c #6B3E1B",
"` 	c #815122",
" .	c #98632B",
"..	c #A56D2F",
"+.	c #926029",
"@.	c #815522",
"#.	c #784E1C",
"$.	c #724918",
"%.	c #6D4513",
"&.	c #684210",
"*.	c #653F0E",
"=.	c #653F0D",
"-.	c #653F11",
";.	c #633F15",
">.	c #664119",
",.	c #72491E",
"'.	c #835524",
").	c #98642B",
"!.	c #96622B",
"~.	c #805122",
"{.	c #71421D",
"].	c #7C4820",
"^.	c #76441F",
"/.	c #653A1B",
"(.	c #60381B",
"_.	c #61391C",
":.	c #60381A",
"<.	c #5F3919",
"[.	c #875925",
"}.	c #6F4718",
"|.	c #623D0E",
"1.	c #5D3905",
"2.	c #5C3801",
"3.	c #5E3900",
"4.	c #5F3900",
"5.	c #5D3800",
"6.	c #593500",
"7.	c #543200",
"8.	c #4A2C02",
"9.	c #452807",
"0.	c #523110",
"a.	c #6E461B",
"b.	c #8C5C27",
"c.	c #875825",
"d.	c #72441D",
"e.	c #72411D",
"f.	c #63391A",
"g.	c #61391B",
"h.	c #61381B",
"i.	c #623B1A",
"j.	c #855724",
"k.	c #664113",
"l.	c #603B07",
"m.	c #5E3901",
"n.	c #603A00",
"o.	c #5A3600",
"p.	c #512F00",
"q.	c #3F2302",
"r.	c #47270A",
"s.	c #623D17",
"t.	c #8D5D28",
"u.	c #74451D",
"v.	c #7A451F",
"w.	c #7B4721",
"x.	c #75431C",
"y.	c #60371A",
"z.	c #633C1A",
"A.	c #946229",
"B.	c #714819",
"C.	c #5A3604",
"D.	c #5F3901",
"E.	c #4D2E00",
"F.	c #3D2001",
"G.	c #452609",
"H.	c #754C1E",
"I.	c #9A652C",
"J.	c #8A5925",
"K.	c #73451E",
"L.	c #794520",
"M.	c #693C1B",
"N.	c #613918",
"O.	c #A16A2E",
"P.	c #895924",
"Q.	c #603C0F",
"R.	c #5C3700",
"S.	c #482900",
"T.	c #391C02",
"U.	c #5E3A16",
"V.	c #915F28",
"W.	c #73441D",
"X.	c #6E421D",
"Y.	c #865624",
"Z.	c #805320",
"`.	c #5A3707",
" +	c #5E3800",
".+	c #3A1D00",
"++	c #52310F",
"@+	c #885925",
"#+	c #794720",
"$+	c #7A461F",
"%+	c #815123",
"&+	c #A0692E",
"*+	c #7A501E",
"=+	c #5C3906",
"-+	c #5F3A00",
";+	c #573400",
">+	c #3E2100",
",+	c #4A2A0C",
"'+	c #845624",
")+	c #A16A2D",
"!+	c #805123",
"~+	c #734320",
"{+	c #794A20",
"]+	c #99642C",
"^+	c #5D3907",
"/+	c #422400",
"(+	c #4C2B0D",
"_+	c #885825",
":+	c #76481F",
"<+	c #8B5B25",
"[+	c #5C3808",
"}+	c #5A3500",
"|+	c #3E2201",
"1+	c #563412",
"2+	c #8B5A27",
"3+	c #6F431F",
"4+	c #7C4721",
"5+	c #78461F",
"6+	c #7A4C21",
"7+	c #95632A",
"8+	c #583500",
"9+	c #3B1F01",
"0+	c #664019",
"a+	c #9B672C",
"b+	c #6E3F1D",
"c+	c #7B4621",
"d+	c #905E28",
"e+	c #744A1B",
"f+	c #5D3801",
"g+	c #3E2104",
"h+	c #815322",
"i+	c #653D1A",
"j+	c #6D3F1D",
"k+	c #74491F",
"l+	c #8A5B25",
"m+	c #5A3706",
"n+	c #462700",
"o+	c #523111",
"p+	c #6E451D",
"q+	c #603818",
"r+	c #72431E",
"s+	c #70411C",
"t+	c #8D5C26",
"u+	c #9E692D",
"v+	c #664114",
"w+	c #5B3700",
"x+	c #583400",
"y+	c #3A1C00",
"z+	c #774D1F",
"A+	c #6C401D",
"B+	c #8A5A26",
"C+	c #603B08",
"D+	c #582E00",
"E+	c #563000",
"F+	c #462800",
"G+	c #502F0F",
"H+	c #9E682C",
"I+	c #683F1B",
"J+	c #7C481F",
"K+	c #855523",
"L+	c #744B1B",
"M+	c #5E3902",
"N+	c #5A3400",
"O+	c #6A3500",
"P+	c #833E00",
"Q+	c #703500",
"R+	c #3C1F03",
"S+	c #7E4821",
"T+	c #643E10",
"U+	c #5D3500",
"V+	c #733900",
"W+	c #8A4200",
"X+	c #843E02",
"Y+	c #823C01",
"Z+	c #632F00",
"`+	c #5B3600",
" @	c #412401",
".@	c #633E18",
"+@	c #895A26",
"@@	c #70431D",
"#@	c #9A642B",
"$@	c #5E3A07",
"%@	c #643700",
"&@	c #7E4000",
"*@	c #8D4600",
"=@	c #7B3D07",
"-@	c #693812",
";@	c #713609",
">@	c #7D3700",
",@	c #5E2E00",
"'@	c #513000",
")@	c #45280B",
"!@	c #9A662C",
"~@	c #6F411D",
"{@	c #72461D",
"]@	c #784D1D",
"^@	c #5B3702",
"/@	c #5B3500",
"(@	c #6C3A00",
"_@	c #8A4800",
":@	c #8C4701",
"<@	c #773D0B",
"[@	c #6F3E19",
"}@	c #6E3D19",
"|@	c #753506",
"1@	c #793500",
"2@	c #5A2E00",
"3@	c #5C3800",
"4@	c #412205",
"5@	c #A26B2E",
"6@	c #6B411C",
"7@	c #7D4F21",
"8@	c #794300",
"9@	c #914E00",
"0@	c #894801",
"a@	c #733E11",
"b@	c #73421C",
"c@	c #6C3A16",
"d@	c #743202",
"e@	c #713000",
"f@	c #583000",
"g@	c #412303",
"h@	c #734B1F",
"i@	c #73491E",
"j@	c #794621",
"k@	c #6E4615",
"l@	c #5D3700",
"m@	c #613800",
"n@	c #844900",
"o@	c #955100",
"p@	c #854704",
"q@	c #6F3D14",
"r@	c #77441E",
"s@	c #6A3612",
"t@	c #783201",
"u@	c #692E00",
"v@	c #593300",
"w@	c #432502",
"x@	c #69421A",
"y@	c #825323",
"z@	c #6F3F1C",
"A@	c #8F5D28",
"B@	c #97632B",
"C@	c #6B4312",
"D@	c #673B00",
"E@	c #915200",
"F@	c #985501",
"G@	c #804608",
"H@	c #714018",
"I@	c #79451F",
"J@	c #75421D",
"K@	c #69320D",
"L@	c #772F00",
"M@	c #5D2A00",
"N@	c #472901",
"O@	c #653E17",
"P@	c #8C5A27",
"Q@	c #6D3E1B",
"R@	c #956129",
"S@	c #6B4311",
"T@	c #633A00",
"U@	c #985800",
"V@	c #9C5900",
"W@	c #804707",
"X@	c #6D3E1A",
"Y@	c #713F1B",
"Z@	c #6C2F09",
"`@	c #712B00",
" #	c #592C00",
".#	c #482A01",
"+#	c #633D16",
"@#	c #9F6A2E",
"##	c #70401C",
"$#	c #6B3D1B",
"%#	c #623A00",
"&#	c #945600",
"*#	c #9D5A00",
"=#	c #854A07",
"-#	c #714019",
";#	c #6D3B18",
">#	c #702D05",
",#	c #6A2800",
"'#	c #562E00",
")#	c #482B01",
"!#	c #623C16",
"~#	c #9F692E",
"{#	c #925F28",
"]#	c #6E3F1C",
"^#	c #6C3E1B",
"/#	c #96632B",
"(#	c #6A4312",
"_#	c #6E3F00",
":#	c #985600",
"<#	c #995600",
"[#	c #7D450B",
"}#	c #6B3B19",
"|#	c #6C2C07",
"1#	c #772B00",
"2#	c #522200",
"3#	c #643E17",
"4#	c #915E28",
"5#	c #6F401C",
"6#	c #6B4414",
"7#	c #734100",
"8#	c #9A5600",
"9#	c #945101",
"0#	c #733F10",
"a#	c #6C3B18",
"b#	c #6C2F08",
"c#	c #752D01",
"d#	c #612700",
"e#	c #583100",
"f#	c #462801",
"g#	c #664018",
"h#	c #A26C2E",
"i#	c #704716",
"j#	c #5D3900",
"k#	c #5E3700",
"l#	c #804700",
"m#	c #9A5400",
"n#	c #8C4C02",
"o#	c #683614",
"p#	c #733205",
"q#	c #742E00",
"r#	c #5E2A00",
"s#	c #583300",
"t#	c #422502",
"u#	c #6D461C",
"v#	c #855524",
"w#	c #815222",
"x#	c #754C1B",
"y#	c #613700",
"z#	c #884A00",
"A#	c #985100",
"B#	c #834504",
"C#	c #713F19",
"D#	c #74421D",
"E#	c #68340F",
"F#	c #7A3502",
"G#	c #743100",
"H#	c #5B2D00",
"I#	c #422404",
"J#	c #7C5121",
"K#	c #A76F30",
"L#	c #A56E2F",
"M#	c #764B1F",
"N#	c #73481E",
"O#	c #A06B2E",
"P#	c #7D5120",
"Q#	c #5C3803",
"R#	c #673A00",
"S#	c #8D4C00",
"T#	c #944E00",
"U#	c #7A3F07",
"V#	c #703F1B",
"W#	c #703E1A",
"X#	c #70370B",
"Y#	c #7E3701",
"Z#	c #6F3100",
"`#	c #582F00",
" $	c #422407",
".$	c #6D431C",
"+$	c #6F421C",
"@$	c #9C672C",
"#$	c #8F5E27",
"$$	c #603B0B",
"%$	c #593600",
"&$	c #703D00",
"*$	c #904B00",
"=$	c #904A01",
"-$	c #743C0C",
";$	c #6E3B15",
">$	c #783A07",
",$	c #7E3A00",
"'$	c #6B3200",
")$	c #553000",
"!$	c #4F2E00",
"~$	c #513110",
"{$	c #6E411C",
"]$	c #73431D",
"^$	c #6A4315",
"/$	c #763E00",
"($	c #914A00",
"_$	c #8B4501",
":$	c #813E02",
"<$	c #7B3A00",
"[$	c #643200",
"}$	c #593400",
"|$	c #3F2201",
"1$	c #754B1E",
"2$	c #8E5D27",
"3$	c #885725",
"4$	c #7E5220",
"5$	c #5F3A04",
"6$	c #5B3300",
"7$	c #8F4800",
"8$	c #7A3C00",
"9$	c #5E3300",
"0$	c #432507",
"a$	c #815323",
"b$	c #76491F",
"c$	c #94612A",
"d$	c #613C0C",
"e$	c #593100",
"f$	c #673400",
"g$	c #5A3300",
"h$	c #452700",
"i$	c #5E3A15",
"j$	c #734B1D",
"k$	c #5C3702",
"l$	c #563300",
"m$	c #402304",
"n$	c #915E27",
"o$	c #784C20",
"p$	c #6A441A",
"q$	c #A36B2E",
"r$	c #96622A",
"s$	c #865623",
"t$	c #593604",
"u$	c #502E00",
"v$	c #4F300D",
"w$	c #8F5E28",
"x$	c #936028",
"y$	c #77471F",
"z$	c #754923",
"A$	c #77451F",
"B$	c #7F5122",
"C$	c #5A3601",
"D$	c #452806",
"E$	c #7D5121",
"F$	c #835223",
"G$	c #744924",
"H$	c #74461E",
"I$	c #6C4416",
"J$	c #442703",
"K$	c #6D461B",
"L$	c #72441E",
"M$	c #744922",
"N$	c #7C4D21",
"O$	c #9D682D",
"P$	c #452802",
"Q$	c #633E17",
"R$	c #9B662C",
"S$	c #9D672C",
"T$	c #77441F",
"U$	c #73431E",
"V$	c #895725",
"W$	c #905F28",
"X$	c #664012",
"Y$	c #442803",
"Z$	c #633F18",
"`$	c #9A662B",
" %	c #895825",
".%	c #72421D",
"+%	c #744923",
"@%	c #71441D",
"#%	c #905F29",
"$%	c #6C4517",
"%%	c #5B3703",
"&%	c #523100",
"*%	c #492C07",
"=%	c #8F5D27",
"-%	c #744925",
";%	c #7C4621",
">%	c #74471F",
",%	c #956229",
"'%	c #794E1E",
")%	c #5D3909",
"!%	c #4A2B00",
"~%	c #52320F",
"{%	c #7F5322",
"]%	c #7A471F",
"^%	c #7C461F",
"/%	c #77491F",
"(%	c #95612A",
"_%	c #6D4617",
":%	c #583503",
"<%	c #4C2C00",
"[%	c #462A07",
"}%	c #6E471C",
"|%	c #6D431D",
"1%	c #75441F",
"2%	c #7D471F",
"3%	c #75481E",
"4%	c #A46D30",
"5%	c #875924",
"6%	c #633F13",
"7%	c #5C3806",
"8%	c #4D2E02",
"9%	c #452A08",
"0%	c #634018",
"a%	c #926129",
"b%	c #6B421C",
"c%	c #7C4822",
"d%	c #7B4822",
"e%	c #794821",
"f%	c #7D4721",
"g%	c #905D27",
"h%	c #9E692E",
"i%	c #784E1E",
"j%	c #623D11",
"k%	c #583607",
"l%	c #5D3804",
"m%	c #5F3A02",
"n%	c #603A01",
"o%	c #603901",
"p%	c #583603",
"q%	c #503105",
"r%	c #4C2F09",
"s%	c #5C3B15",
"t%	c #794F20",
"u%	c #916029",
"v%	c #8E5D28",
"w%	c #663F1C",
"x%	c #643A1B",
"y%	c #7C461E",
"z%	c #784721",
"A%	c #7A4822",
"B%	c #71431D",
"C%	c #895826",
"D%	c #845623",
"E%	c #724A1D",
"F%	c #6B4519",
"G%	c #684317",
"H%	c #684216",
"I%	c #674217",
"J%	c #69441A",
"K%	c #754C1F",
"L%	c #875926",
"M%	c #613A18",
"N%	c #784521",
"O%	c #75431F",
"P%	c #6A401D",
"Q%	c #6B3F1C",
"R%	c #724320",
"S%	c #794722",
"T%	c #7E4F21",
"U%	c #A46C30",
"V%	c #7B4D21",
"W%	c #6B3E1C",
"X%	c #7A4722",
"Y%	c #78441F",
"Z%	c #683B1A",
"`%	c #5E391C",
" &	c #673A1A",
".&	c #754421",
"+&	c #865525",
"@&	c #77451E",
"#&	c #74421F",
"$&	c #643819",
"%&	c #5F391D",
"&&	c #63381B",
"*&	c #63381A",
"=&	c #71421F",
"-&	c #7D481F",
";&	c #78491F",
">&	c #7D4F22",
",&	c #94602A",
"'&	c #784320",
")&	c #683A1A",
"!&	c #64391A",
"~&	c #744420",
"{&	c #73441E",
"]&	c #784B20",
"^&	c #875725",
"/&	c #774B1F",
"(&	c #7C4520",
"_&	c #74421E",
":&	c #673D1B",
"<&	c #693C1A",
"[&	c #71411E",
"}&	c #77461F",
"|&	c #70461D",
"1&	c #825223",
"2&	c #8D5B27",
"3&	c #97622A",
"4&	c #805223",
"5&	c #7D451E",
"6&	c #774720",
"7&	c #6A3D1B",
"8&	c #794721",
"  . + @ # + + + + + + + + + + + + + + + + + + + + + + + + + + + + + + + + + + + + + + + + + + + + + + + + + + + + + + + + $ + % ",
"& . * @ . + + + + + + + + . + + + + + + + + + + + + + + + + + + + + + + + + + + + + + + + + + + + + + + + + + + + + + + + + = - ",
"& . * @ . + + + + + + + + + + + + + + + + + + + + + + + + ; > , ' ' ' , > ) + + + + + + + + + + + + + + + + + + + + + + + + ! ~ ",
"& . * @ . + + + + + + + + + + + + + + + + + + + + { ] ^ / ( _ : < [ < } | 1 / 2 ] { + + + + + + + + + + + + + + + + + + + + 3 4 ",
"& . * @ . + + + + + + + + 5 + + 6 + + + + + ) ' 7 8 9 0 a b c d e e e d f b a g h 8 7 ' ) + + + + + + + + + + + + + + + + + + i ",
"& . * @ . + + + + + + + # j j + 6 + + k ; l m n a o p q q q q q q q q q q q q r p s t u v l ; + + + + + + + + + + + + + + + + # ",
"& . * @ . + + + + + + + 6 5 5 6 # 6 { w x y z q q q q q q q q q q q q q q q q q q q q q z 9 1 A ; + + + + + + + + + + + + + + # ",
"& . * @ . + + + @ B + k C D D E + > F G H I q q q q J q b K L M N O P M Q a s q J q q q q q t R F E + + + + + + + + + + + + + # ",
"& . * @ . + + + S $ T U V W X Y Z `  ...q q q q q f +.@.#.$.%.&.*.=.*.-.;.>.,.'.).e q q q q q ..!.~.{.+ + + + + + + + + + + + # ",
"& . * @ . + + + + ].^./.(._.:.<.'.t q q q q q K [.}.|.1.2.3.3.4.4.4.4.5.6.7.8.9.0.a.b.z q q q q q z c.d.; . + + + + + + + + + # ",
"& . * @ . + + + + + e.f.g.h.i.9 s q q q r z j.k.l.m.4.n.n.n.n.n.n.n.n.n.n.n.3.o.p.q.r.s.t.o q q q q f 9 u.v.. + + + + + w.w.+ # ",
"& . * @ . + + + + ].x.f.y.z.9 ..q q q d A.B.C.D.n.n.n.n.n.n.n.n.n.n.n.n.n.n.n.n.n.5.E.F.G.H.I.p q q q d J.K.; + + + + + w.w.+ # ",
"& . * @ . + + + 6 # L.M.N.y ..q q q O.P.Q.R.n.n.n.n.n.n.n.n.n.n.n.n.n.n.n.n.n.n.n.n.n.o.S.T.U.V.d q q q e u W.) k + + + w.w.+ # ",
"& . * @ . + + + + + w.X.Y.o q q q t Z.`.3.n.n.n.n.n.n.n.n.n.n.n.n.n.n.n.n.n.n.n.n.n.n.n. +p..+++@+d q q q o Y.{.#+k + + + + + # ",
"& . * @ . + + + $++ ] %+&+q q q t *+=+4.n.n.n.n.n.n.n.n.n.n.n.n.n.n.n.n.n.n.n.n.n.n.n.n.n.-+;+>+,+'+d q q q )+!+~+T + j + + + # ",
"& . * @ . + + + + { {+]+q q q O.Z.^+4.n.n.n.n.n.n.n.n.n.n.n.n.n.n.n.n.n.n.n.n.n.n.n.n.n.n.n.n.6./+(+_+p q q q Q :+; + * + + + # ",
"& . * @ . + + + k w _+..q q e <+[+4.n.n.n.n.n.n.n.n.n.n.n.n.n.n.n.n.n.n.n.n.n.n.n.n.n.n.n.n.n.n.}+|+1++.r q q e 2+3+w.4++ + + # ",
"& . * @ . + + + 5+6+O.q q r 7+Q.5.n.n.n.n.n.n.n.n.n.n.n.n.n.n.n.n.n.n.n.n.n.n.n.n.n.n.n.n.n.n.n.n.8+9+0+a+q q q H ( b+c+# * + # ",
"& . * @ . + + + l d+q q q O.e+f+n.n.n.n.n.n.n.n.n.n.n.n.n.n.n.n.n.n.n.n.n.n.n.n.n.n.n.n.n.n.n.n.n.4.p.g+h+o q q p b.i+j+# j + # ",
"& . * @ . + + ; k+b q q q l+m+n.n.n.n.n.n.n.n.n.n.n.n.n.n.n.n.n.n.n.n.n.n.n.n.n.n.n.n.n.n.n.n.n.n.n.5.n+o+).q q q t p+q+r+6 + # ",
"& . * @ . + + s+t+q q q u+v+3.n.n.n.n.n.n.n.n.n.n.n.n.n.n.n.n.n.n.n.w+ +n.n.n.n.n.n.n.n.n.n.n.n.n.n.n.x+y+z+o q q J @+<.A+6 + # ",
"& . * @ . + ) 7 &+q q I B+C+n.n.n.n.n.n.n.n.n.n.n.n.n.n.n.n.n.n.-+}+D+E+3.n.n.n.n.n.n.n.n.n.n.n.n.n.n.4.F+G+L q q q H+I+2 J+# # ",
"& . * @ . + ^.K+d q q o L+M+n.n.n.n.n.n.n.n.n.n.n.n.n.n.n.n.n.4.N+O+P+Q+N+-+n.n.n.n.n.n.n.n.n.n.n.n.n.n.;+R+j.p q q d 1 e.S++ # ",
"& . * @ . + ] d+p q q L T+3.n.n.n.n.n.n.n.n.n.n.n.n.n.n.n.n.5.U+V+W+X+Y+Z+`+n.n.n.n.n.n.n.n.n.n.n.n.n.n.4. @.@d q q r +@^.i + # ",
"& . * @ . + @@#@q q J j.$@n.n.n.n.n.n.n.n.n.n.n.n.n.n.n.-+}+%@&@*@=@-@;@>@,@`+n.n.n.n.n.n.n.n.n.n.n.n.n.n.'@)@!@q q q 0 ~@+ + # ",
"& . * @ . + {@z q q e ]@^@n.n.n.n.n.n.n.n.n.n.n.n.n.n.3./@(@_@:@<@[@; }@|@1@2@3@n.n.n.n.n.n.n.n.n.n.n.n.n.6.4@c.J q q 5@6@T + # ",
"& . * @ . { 7@5@q q u+$.5.n.n.n.n.n.n.n.n.n.n.n.n.n.5./@8@9@0@a@b@k + ; c@d@e@f@3.n.n.n.n.n.n.n.n.n.n.n.n.3@g@h@J q q ..i@j@+ # ",
"& . * @ . , _+o q q Q k@4.n.n.n.n.n.n.n.n.n.n.n.n.l@m@n@o@p@q@r@+ + + + { s@t@u@v@-+n.n.n.n.n.n.n.n.n.n.n.4.w@x@e q q p y@> + # ",
"& . * @ . z@A@..q q B@C@4.n.n.n.n.n.n.n.n.n.n.-+l@D@E@F@G@H@I@+ + + + + + J@K@L@M@}+n.n.n.n.n.n.n.n.n.n.n.-+N@O@b q q p P@, + # ",
"& . * @ . Q@R@q q q g S@4.n.n.n.n.n.n.n.n.n.n.o.T@U@V@W@X@) + + + + + + + k Y@Z@`@ #5.n.n.n.n.n.n.n.n.n.n.-+.#+#@#q q r A@##+ # ",
"& . * @ . $#R@q q q g S@4.n.n.n.n.n.n.n.n.n.n.5.%#&#*#=#-#) + + + + + + + + ) ;#>#,#'#3.n.n.n.n.n.n.n.n.n.-+)#!#~#q q r {#]#+ # ",
"& . * @ . ^#R@q q q /#(#4.n.n.n.n.n.n.n.n.n.n.n.R._#:#<#[#x.+ + + + + + + + ) }#|#1#2#6.n.n.n.n.n.n.n.n.n.-+.#3#z q q r 4#5#+ # ",
"& . * @ . ]#4#p q q ).6#4.n.n.n.n.n.n.n.n.n.n.n.n.R.7#8#9#0#r@+ + + + + + I@a#b#c#d#e# +n.n.n.n.n.n.n.n.n.-+f#g#h#q q p y e.+ # ",
"& . * @ . e.: d q q a+i#j#n.n.n.n.n.n.n.n.n.n.n.n.-+k#l#m#n#q@; + + + + r@o#p#q#r#s#4.n.n.n.n.n.n.n.n.n.n.3.t#u#q q q p v#E + # ",
"& . * @ . > w#f q q b x#2.n.n.n.n.n.n.n.n.n.n.n.n.n. +y#z#A#B#C#) + ) D#E#F#G#H#o.-+n.n.n.n.n.n.n.n.n.n.n.R.I#J#K#q q L#M#; + # ",
"& . * @ . + N#O#q q q P#Q#n.n.n.n.n.n.n.n.n.n.n.n.n.n.R.R#S#T#U#V#I@W#X#Y#Z#`#R.n.n.n.n.n.n.n.n.n.n.n.n.n.;+ $V.q q q d .$+ + # ",
"& . * @ . + +$@$q q K##$$$4.n.n.n.n.n.n.n.n.n.n.n.n.n.n.%$&$*$=$-$;$>$,$'$)$3.n.n.n.n.n.n.n.n.n.n.n.n.n.n.!$~$z q q q I.{$+ + # ",
"& . * @ . + ]$N r q q t ^$m.n.n.n.n.n.n.n.n.n.n.n.n.n.n.-+}+/$($_$:$<$[$}$4.n.n.n.n.n.n.n.n.n.n.n.n.n.n.4.|$1$..q q q 2$A + + # ",
"& . * @ . + > 3$e q q ..4$5$n.n.n.n.n.n.n.n.n.n.n.n.n.n.n.4.6$&@7$8$9$R.n.n.n.n.n.n.n.n.n.n.n.n.n.n.n.n.7.0$d+q q q e a$; + + # ",
"& . * @ . + ; b$O.q q q c$d$n.n.n.n.n.n.n.n.n.n.n.n.n.n.n.n. +e$f$g$ +n.n.n.n.n.n.n.n.n.n.n.n.n.n.n.n.3.h$i$H q q q O.b$) + + # ",
"& . * @ . + + ^ R@q q q e j$k$n.n.n.n.n.n.n.n.n.n.n.n.n.n.n.n. +;+4.n.n.n.n.n.n.n.n.n.n.n.n.n.n.n.n.n.l$m$B+p q q q n$w + + + # ",
"& . * @ . + + { o$d q q q !@Q.3.n.n.n.n.n.n.n.n.n.n.n.n.n.n.n.n.n.n.n.n.n.n.n.n.n.n.n.n.n.n.n.n.n.n.5.h$p$t q q q q$1 { + + + # ",
"& . * @ . + + + K.r$q q q d s$t$n.n.n.n.n.n.n.n.n.n.n.n.n.n.n.n.n.n.n.n.n.n.n.n.n.n.n.n.n.n.n.n.n.4.u$v$w$p q q q x$y$) + + + # ",
"z$. * @ . + + + A$B$d q q q t L+C$n.n.n.n.n.n.n.n.n.n.n.n.n.n.n.n.n.n.n.n.n.n.n.n.n.n.n.n.n.n.n.n.;+D$E$f q q q 5@F$A$+ + + + # ",
"G$. * @ . . . + ) H$A@q q q r ).I$l@n.n.n.n.n.n.n.n.n.n.n.n.n.n.n.n.n.n.n.n.n.n.n.n.n.n.n.n.n.n.o.J$K$u+q q q p {#L$) + + + + # ",
"M$. * @ . + + + + A$N$O$q q q p V.-.f+n.n.n.n.n.n.n.n.n.n.n.n.n.n.n.n.n.n.n.n.n.n.n.n.n.n.n.n.w+P$Q$R$q q q q S$x T$+ + B @ + # ",
"M$. * @ + + + + + + U$V$o q q q p W$X$M+n.n.n.n.n.n.n.n.n.n.n.n.n.n.n.n.n.n.n.n.n.n.n.n.n.-+8+Y$Z$`$q q q q o  %.%+ * + k k + # ",
"+%. % @ + + + + + + ) @%d+e q q q q #%$%%%4.n.n.n.n.n.n.n.n.n.n.n.n.n.n.n.n.n.n.n.n.n.n.3.&%*%K$@$q q q q ..=%+$* + + + + + + # ",
"-%;%% @ + + + + + + + { >%,%q q q q q I.'%)%3@n.n.n.n.n.n.n.n.n.n.n.n.n.n.n.n.n.n.n.n.o.!%~%{%t q q q q q +.v ]%* + + + + + + # ",
"-%# ^%+ j j j + + 6 + + > /%(%q q q q q z n _%:%3.n.n.n.n.n.n.n.n.n.n.n.n.n.n.n.n.R.<%[%}%#%o q q q q q N |%1%6 + + + + + + + # ",
"-%# ^%k 2%j j + + + + + + A$3%r$p q q q q 4%a 5%6%7%f+4.n.n.n.n.n.n.n.n.n.-+ +o.8%9%0%#$~#r q q q q ..a%b%$#c%d%+ + + + T T + # ",
"G$^%* e%f%# * + + $+$++ + + { H$g%d q q q q q ..h%2$i%j%k%l%m%n%n%o%o%M+p%q%r%s%t%u%b p q q q q q o v%w%x%{ 6 T + + + + T T + # ",
"& y%+ z%+ A%T + * * + + + + + ; B%C%h%q q q q q q q d O./#D%E%F%G%H%I%J%K%L%I.f p q q q q q q r a _+M%$#N%5 + + + + + @ k + + # ",
"& j O%P%Q%R%S%j@+ * + + + + + + ) .%T%P o q q q q q q q q K#K#J U%o e K#K#J q q q q q q q q q$P V%W%3 X%f%w.+ + + + + k k + + # ",
"  Y%Z%`%y. &.&T B + # % + + + + + + > K.+&B@o J q q q q q q q q q q q q q q q q q q q q o g v#K.@&].].# # + + + + + + + + + + # ",
"z$#&$&%&&&*&=&-&@ B + + + + + + + + + ) A ;&>&c$o p q q q q q q q q q q q q q q q r o ,&7@;&A ) + + + + + + + + + + + + + + + # ",
"  '&)&`%y.!&~&# @ B + + + + + + + + + + + ; A${&]&_+c$t ..q r q q q q q r I ..t c$^&/&{&A$) + + + + + + + + + + + + + + + + + # ",
"z$(&_&:&<&[&T + B $ j + + + + + + + + + + + + ) ; }&l / |&1&2&3&L !@`$r$t+4&|&/ l 5+; ) + + + + + + + + + + + + + + + + + + + # ",
"-%5&2%6&{ + + 6 + + * + + + + + + + + + + + + + + + + + k T$' Q@7&<&7&Q@' T$+ + + + + + + + + + + + + + + + + + + + + + + + + # ",
"-%. j B 4+j j + $++ $++ + + + + + + + + + + + + + + + + + + + + + + + + + + + + + + + + + + + + + + + + + + + + + + + + + + + # ",
"z$. * @ + # j + + + + + + + + + + + + + + + + + + + + + + + + + + + + + + + + + + + + + + + + + + + + + + + + + + + + + + + + # ",
"& ^%+ 8&+ k k + + + + + + + + + + + + + + + + + + + + + + + + + + + + + + + + + + + + + + + + + + + + + + + + + + + + + + + + # ",
"& j c+S%+ @ B + + + + + + + + + + + + + + + + + + + + + + + + + + + + + + + + + + + + + + + + + + + + + + + + + + + + + + + + # ",
"M$. + #+* + + + + + + + + + + + + + + + + + + + + + + + + + + + + + + + + + + + + + + + + + + + + + + + + + + + + + + + + + + # "};
